G04 #@! TF.GenerationSoftware,KiCad,Pcbnew,8.0.8*
G04 #@! TF.CreationDate,2025-12-14T22:14:21-05:00*
G04 #@! TF.ProjectId,hellen121vag,68656c6c-656e-4313-9231-7661672e6b69,d*
G04 #@! TF.SameCoordinates,PX2b953a0PY6943058*
G04 #@! TF.FileFunction,Soldermask,Bot*
G04 #@! TF.FilePolarity,Negative*
%FSLAX46Y46*%
G04 Gerber Fmt 4.6, Leading zero omitted, Abs format (unit mm)*
G04 Created by KiCad (PCBNEW 8.0.8) date 2025-12-14 22:14:21*
%MOMM*%
%LPD*%
G01*
G04 APERTURE LIST*
%ADD10C,3.700000*%
%ADD11C,2.200000*%
%ADD12C,2.600000*%
%ADD13C,1.500000*%
%ADD14C,0.600000*%
%ADD15R,1.100000X1.100000*%
%ADD16C,1.100000*%
%ADD17O,1.100000X2.400000*%
%ADD18C,1.524000*%
%ADD19C,0.599999*%
%ADD20O,1.700000X1.850000*%
G04 APERTURE END LIST*
D10*
G04 #@! TO.C,P1*
X18648000Y5492000D03*
D11*
X21098000Y13292000D03*
D10*
X93148000Y5492000D03*
D11*
X142898000Y13292000D03*
D10*
X145348000Y5492000D03*
D12*
X25748000Y10492000D03*
X31548000Y10492000D03*
X28648000Y12822000D03*
X25748000Y18622000D03*
X31548000Y18622000D03*
D13*
X85168000Y18622000D03*
X82628000Y18622000D03*
X80088000Y18622000D03*
X77548000Y18622000D03*
X75008000Y18622000D03*
X72468000Y18622000D03*
X69928000Y18622000D03*
X67388000Y18622000D03*
X64848000Y18622000D03*
X62308000Y18622000D03*
X59768000Y18622000D03*
X57228000Y18622000D03*
X54688000Y18622000D03*
X52148000Y18622000D03*
X49608000Y18622000D03*
X47068000Y18622000D03*
X44528000Y18622000D03*
X41988000Y18622000D03*
X39448000Y18622000D03*
X85168000Y16082000D03*
X82628000Y16082000D03*
X80088000Y16082000D03*
X77548000Y16082000D03*
X75008000Y16082000D03*
X72468000Y16082000D03*
X69928000Y16082000D03*
X67388000Y16082000D03*
X64848000Y16082000D03*
X62308000Y16082000D03*
X59768000Y16082000D03*
X57228000Y16082000D03*
X54688000Y16082000D03*
X52148000Y16082000D03*
X49608000Y16082000D03*
X47068000Y16082000D03*
X44528000Y16082000D03*
X41988000Y16082000D03*
X39448000Y16082000D03*
X85168000Y10032000D03*
X82628000Y10032000D03*
X80088000Y10032000D03*
X77548000Y10032000D03*
X75008000Y10032000D03*
X72468000Y10032000D03*
X69928000Y10032000D03*
X67388000Y10032000D03*
X64848000Y10032000D03*
X62308000Y10032000D03*
X59768000Y10032000D03*
X57228000Y10032000D03*
X54688000Y10032000D03*
X52148000Y10032000D03*
X49608000Y10032000D03*
X47068000Y10032000D03*
X44528000Y10032000D03*
X41988000Y10032000D03*
X39448000Y10032000D03*
X85168000Y7492000D03*
X82628000Y7492000D03*
X80088000Y7492000D03*
X77548000Y7492000D03*
X75008000Y7492000D03*
X72468000Y7492000D03*
X69928000Y7492000D03*
X67388000Y7492000D03*
X64848000Y7492000D03*
X62308000Y7492000D03*
X59768000Y7492000D03*
X57228000Y7492000D03*
X54688000Y7492000D03*
X52148000Y7492000D03*
X49608000Y7492000D03*
X47068000Y7492000D03*
X44528000Y7492000D03*
X41988000Y7492000D03*
X39448000Y7492000D03*
X101138000Y7492000D03*
X103678000Y7492000D03*
X106218000Y7492000D03*
X108758000Y7492000D03*
X111298000Y7492000D03*
X113838000Y7492000D03*
X116378000Y7492000D03*
X118918000Y7492000D03*
X101138000Y10032000D03*
X103678000Y10032000D03*
X106218000Y10032000D03*
X108758000Y10032000D03*
X111298000Y10032000D03*
X113838000Y10032000D03*
X116378000Y10032000D03*
X118918000Y10032000D03*
X101138000Y16082000D03*
X103678000Y16082000D03*
X106218000Y16082000D03*
X108758000Y16082000D03*
X111298000Y16082000D03*
X113838000Y16082000D03*
X116378000Y16082000D03*
X118918000Y16082000D03*
X101138000Y18622000D03*
X103678000Y18622000D03*
X106218000Y18622000D03*
X108758000Y18622000D03*
X111298000Y18622000D03*
X113838000Y18622000D03*
X116378000Y18622000D03*
X118918000Y18622000D03*
D12*
X126748000Y10492000D03*
X132548000Y10492000D03*
X138448000Y10492000D03*
X129648000Y12822000D03*
X135548000Y12822000D03*
X126748000Y18622000D03*
X132548000Y18622000D03*
X138448000Y18622000D03*
G04 #@! TD*
D14*
G04 #@! TO.C,M3*
X87750000Y100968733D03*
X87750000Y99768733D03*
X87750000Y102168733D03*
X87750000Y103368733D03*
X73325000Y96908733D03*
X73325000Y95908733D03*
G04 #@! TD*
D15*
G04 #@! TO.C,J2*
X16362000Y90250000D03*
D16*
X17162000Y92000000D03*
X17962000Y90250000D03*
X18762000Y92000000D03*
X19562000Y90250000D03*
D17*
X14312000Y91125000D03*
X21612000Y91125000D03*
G04 #@! TD*
D18*
G04 #@! TO.C,R4*
X88675391Y47293342D03*
X92485391Y47293342D03*
G04 #@! TD*
D19*
G04 #@! TO.C,M8*
X45399997Y45557058D03*
X44524995Y46082058D03*
X45699999Y46832056D03*
X45624996Y50382057D03*
G04 #@! TD*
D10*
G04 #@! TO.C,P2*
X18600000Y5375000D03*
D11*
X21050000Y13175000D03*
D10*
X93100000Y5375000D03*
D11*
X142850000Y13175000D03*
D10*
X145300000Y5375000D03*
D12*
X25700000Y10375000D03*
X31500000Y10375000D03*
X28600000Y12705000D03*
X25700000Y18505000D03*
X31500000Y18505000D03*
D13*
X85120000Y18505000D03*
X82580000Y18505000D03*
X80040000Y18505000D03*
X77500000Y18505000D03*
X74960000Y18505000D03*
X72420000Y18505000D03*
X69880000Y18505000D03*
X67340000Y18505000D03*
X64800000Y18505000D03*
X62260000Y18505000D03*
X59720000Y18505000D03*
X57180000Y18505000D03*
X54640000Y18505000D03*
X52100000Y18505000D03*
X49560000Y18505000D03*
X47020000Y18505000D03*
X44480000Y18505000D03*
X41940000Y18505000D03*
X39400000Y18505000D03*
X85120000Y15965000D03*
X82580000Y15965000D03*
X80040000Y15965000D03*
X77500000Y15965000D03*
X74960000Y15965000D03*
X72420000Y15965000D03*
X69880000Y15965000D03*
X67340000Y15965000D03*
X64800000Y15965000D03*
X62260000Y15965000D03*
X59720000Y15965000D03*
X57180000Y15965000D03*
X54640000Y15965000D03*
X52100000Y15965000D03*
X49560000Y15965000D03*
X47020000Y15965000D03*
X44480000Y15965000D03*
X41940000Y15965000D03*
X39400000Y15965000D03*
X85120000Y9915000D03*
X82580000Y9915000D03*
X80040000Y9915000D03*
X77500000Y9915000D03*
X74960000Y9915000D03*
X72420000Y9915000D03*
X69880000Y9915000D03*
X67340000Y9915000D03*
X64800000Y9915000D03*
X62260000Y9915000D03*
X59720000Y9915000D03*
X57180000Y9915000D03*
X54640000Y9915000D03*
X52100000Y9915000D03*
X49560000Y9915000D03*
X47020000Y9915000D03*
X44480000Y9915000D03*
X41940000Y9915000D03*
X39400000Y9915000D03*
X85120000Y7375000D03*
X82580000Y7375000D03*
X80040000Y7375000D03*
X77500000Y7375000D03*
X74960000Y7375000D03*
X72420000Y7375000D03*
X69880000Y7375000D03*
X67340000Y7375000D03*
X64800000Y7375000D03*
X62260000Y7375000D03*
X59720000Y7375000D03*
X57180000Y7375000D03*
X54640000Y7375000D03*
X52100000Y7375000D03*
X49560000Y7375000D03*
X47020000Y7375000D03*
X44480000Y7375000D03*
X41940000Y7375000D03*
X39400000Y7375000D03*
X101090000Y7375000D03*
X103630000Y7375000D03*
X106170000Y7375000D03*
X108710000Y7375000D03*
X111250000Y7375000D03*
X113790000Y7375000D03*
X116330000Y7375000D03*
X118870000Y7375000D03*
X101090000Y9915000D03*
X103630000Y9915000D03*
X106170000Y9915000D03*
X108710000Y9915000D03*
X111250000Y9915000D03*
X113790000Y9915000D03*
X116330000Y9915000D03*
X118870000Y9915000D03*
X101090000Y15965000D03*
X103630000Y15965000D03*
X106170000Y15965000D03*
X108710000Y15965000D03*
X111250000Y15965000D03*
X113790000Y15965000D03*
X116330000Y15965000D03*
X118870000Y15965000D03*
X101090000Y18505000D03*
X103630000Y18505000D03*
X106170000Y18505000D03*
X108710000Y18505000D03*
X111250000Y18505000D03*
X113790000Y18505000D03*
X116330000Y18505000D03*
X118870000Y18505000D03*
D12*
X126700000Y10375000D03*
X132500000Y10375000D03*
X138400000Y10375000D03*
X129600000Y12705000D03*
X135500000Y12705000D03*
X126700000Y18505000D03*
X132500000Y18505000D03*
X138400000Y18505000D03*
G04 #@! TD*
D18*
G04 #@! TO.C,F2*
X63280000Y47088733D03*
X68180000Y47088733D03*
G04 #@! TD*
D14*
G04 #@! TO.C,M2*
X97000000Y52068730D03*
X97000000Y51118730D03*
X97000000Y50168732D03*
X88300000Y51168730D03*
X88300000Y52068730D03*
G04 #@! TD*
G04 #@! TO.C,J1*
G36*
G01*
X74825000Y55418733D02*
X74825000Y56768733D01*
G75*
G02*
X75075000Y57018733I250000J0D01*
G01*
X76275000Y57018733D01*
G75*
G02*
X76525000Y56768733I0J-250000D01*
G01*
X76525000Y55418733D01*
G75*
G02*
X76275000Y55168733I-250000J0D01*
G01*
X75075000Y55168733D01*
G75*
G02*
X74825000Y55418733I0J250000D01*
G01*
G37*
D20*
X78175000Y56093733D03*
X80675000Y56093733D03*
X83175000Y56093733D03*
X85675000Y56093733D03*
G04 #@! TD*
D14*
G04 #@! TO.C,M4*
X87750000Y89918733D03*
X87750000Y88718733D03*
X87750000Y91118733D03*
X87750000Y92318733D03*
X73325000Y85858733D03*
X73325000Y84858733D03*
G04 #@! TD*
D18*
G04 #@! TO.C,F1*
X63280000Y50208733D03*
X68180000Y50208733D03*
G04 #@! TD*
D13*
G04 #@! TO.C,M1*
X89199996Y80568731D03*
X89199996Y74168734D03*
X89199996Y72268731D03*
X89199996Y67968731D03*
D14*
X89649995Y65568734D03*
X89649995Y64568733D03*
D13*
X89199996Y61718731D03*
X73699999Y81018733D03*
X73699999Y79168734D03*
X73699999Y74218731D03*
X73699999Y62168733D03*
G04 #@! TD*
D18*
G04 #@! TO.C,F3*
X63280000Y43968733D03*
X68180000Y43968733D03*
G04 #@! TD*
M02*
