G04 #@! TF.GenerationSoftware,KiCad,Pcbnew,8.0.8*
G04 #@! TF.CreationDate,2025-12-17T17:48:41-05:00*
G04 #@! TF.ProjectId,hellen121vag,68656c6c-656e-4313-9231-7661672e6b69,d*
G04 #@! TF.SameCoordinates,PX2b953a0PY6943058*
G04 #@! TF.FileFunction,Soldermask,Top*
G04 #@! TF.FilePolarity,Negative*
%FSLAX46Y46*%
G04 Gerber Fmt 4.6, Leading zero omitted, Abs format (unit mm)*
G04 Created by KiCad (PCBNEW 8.0.8) date 2025-12-17 17:48:41*
%MOMM*%
%LPD*%
G01*
G04 APERTURE LIST*
%ADD10R,1.100000X1.100000*%
%ADD11C,1.100000*%
%ADD12O,1.100000X2.400000*%
%ADD13O,1.700000X1.850000*%
%ADD14C,2.600000*%
%ADD15C,1.500000*%
%ADD16C,3.700000*%
%ADD17C,2.200000*%
%ADD18C,0.600000*%
%ADD19C,1.524000*%
%ADD20C,0.599999*%
%ADD21O,0.250000X0.499999*%
%ADD22O,0.499999X0.250000*%
G04 APERTURE END LIST*
G04 #@! TO.C,U2*
G36*
G01*
X64430000Y94900000D02*
X64430000Y95200000D01*
G75*
G02*
X64580000Y95350000I150000J0D01*
G01*
X66230000Y95350000D01*
G75*
G02*
X66380000Y95200000I0J-150000D01*
G01*
X66380000Y94900000D01*
G75*
G02*
X66230000Y94750000I-150000J0D01*
G01*
X64580000Y94750000D01*
G75*
G02*
X64430000Y94900000I0J150000D01*
G01*
G37*
G36*
G01*
X64430000Y93630000D02*
X64430000Y93930000D01*
G75*
G02*
X64580000Y94080000I150000J0D01*
G01*
X66230000Y94080000D01*
G75*
G02*
X66380000Y93930000I0J-150000D01*
G01*
X66380000Y93630000D01*
G75*
G02*
X66230000Y93480000I-150000J0D01*
G01*
X64580000Y93480000D01*
G75*
G02*
X64430000Y93630000I0J150000D01*
G01*
G37*
G36*
G01*
X64430000Y92360000D02*
X64430000Y92660000D01*
G75*
G02*
X64580000Y92810000I150000J0D01*
G01*
X66230000Y92810000D01*
G75*
G02*
X66380000Y92660000I0J-150000D01*
G01*
X66380000Y92360000D01*
G75*
G02*
X66230000Y92210000I-150000J0D01*
G01*
X64580000Y92210000D01*
G75*
G02*
X64430000Y92360000I0J150000D01*
G01*
G37*
G36*
G01*
X64430000Y91090000D02*
X64430000Y91390000D01*
G75*
G02*
X64580000Y91540000I150000J0D01*
G01*
X66230000Y91540000D01*
G75*
G02*
X66380000Y91390000I0J-150000D01*
G01*
X66380000Y91090000D01*
G75*
G02*
X66230000Y90940000I-150000J0D01*
G01*
X64580000Y90940000D01*
G75*
G02*
X64430000Y91090000I0J150000D01*
G01*
G37*
G36*
G01*
X59480000Y91090000D02*
X59480000Y91390000D01*
G75*
G02*
X59630000Y91540000I150000J0D01*
G01*
X61280000Y91540000D01*
G75*
G02*
X61430000Y91390000I0J-150000D01*
G01*
X61430000Y91090000D01*
G75*
G02*
X61280000Y90940000I-150000J0D01*
G01*
X59630000Y90940000D01*
G75*
G02*
X59480000Y91090000I0J150000D01*
G01*
G37*
G36*
G01*
X59480000Y92360000D02*
X59480000Y92660000D01*
G75*
G02*
X59630000Y92810000I150000J0D01*
G01*
X61280000Y92810000D01*
G75*
G02*
X61430000Y92660000I0J-150000D01*
G01*
X61430000Y92360000D01*
G75*
G02*
X61280000Y92210000I-150000J0D01*
G01*
X59630000Y92210000D01*
G75*
G02*
X59480000Y92360000I0J150000D01*
G01*
G37*
G36*
G01*
X59480000Y93630000D02*
X59480000Y93930000D01*
G75*
G02*
X59630000Y94080000I150000J0D01*
G01*
X61280000Y94080000D01*
G75*
G02*
X61430000Y93930000I0J-150000D01*
G01*
X61430000Y93630000D01*
G75*
G02*
X61280000Y93480000I-150000J0D01*
G01*
X59630000Y93480000D01*
G75*
G02*
X59480000Y93630000I0J150000D01*
G01*
G37*
G36*
G01*
X59480000Y94900000D02*
X59480000Y95200000D01*
G75*
G02*
X59630000Y95350000I150000J0D01*
G01*
X61280000Y95350000D01*
G75*
G02*
X61430000Y95200000I0J-150000D01*
G01*
X61430000Y94900000D01*
G75*
G02*
X61280000Y94750000I-150000J0D01*
G01*
X59630000Y94750000D01*
G75*
G02*
X59480000Y94900000I0J150000D01*
G01*
G37*
G04 #@! TD*
G04 #@! TO.C,C5*
G36*
G01*
X55775000Y87410074D02*
X55775000Y88090074D01*
G75*
G02*
X55860000Y88175074I85000J0D01*
G01*
X56540000Y88175074D01*
G75*
G02*
X56625000Y88090074I0J-85000D01*
G01*
X56625000Y87410074D01*
G75*
G02*
X56540000Y87325074I-85000J0D01*
G01*
X55860000Y87325074D01*
G75*
G02*
X55775000Y87410074I0J85000D01*
G01*
G37*
G36*
G01*
X57355002Y87410074D02*
X57355002Y88090074D01*
G75*
G02*
X57440002Y88175074I85000J0D01*
G01*
X58120002Y88175074D01*
G75*
G02*
X58205002Y88090074I0J-85000D01*
G01*
X58205002Y87410074D01*
G75*
G02*
X58120002Y87325074I-85000J0D01*
G01*
X57440002Y87325074D01*
G75*
G02*
X57355002Y87410074I0J85000D01*
G01*
G37*
G04 #@! TD*
G04 #@! TO.C,C4*
G36*
G01*
X55775000Y89360059D02*
X55775000Y90040059D01*
G75*
G02*
X55860000Y90125059I85000J0D01*
G01*
X56540000Y90125059D01*
G75*
G02*
X56625000Y90040059I0J-85000D01*
G01*
X56625000Y89360059D01*
G75*
G02*
X56540000Y89275059I-85000J0D01*
G01*
X55860000Y89275059D01*
G75*
G02*
X55775000Y89360059I0J85000D01*
G01*
G37*
G36*
G01*
X57355002Y89360059D02*
X57355002Y90040059D01*
G75*
G02*
X57440002Y90125059I85000J0D01*
G01*
X58120002Y90125059D01*
G75*
G02*
X58205002Y90040059I0J-85000D01*
G01*
X58205002Y89360059D01*
G75*
G02*
X58120002Y89275059I-85000J0D01*
G01*
X57440002Y89275059D01*
G75*
G02*
X57355002Y89360059I0J85000D01*
G01*
G37*
G04 #@! TD*
G04 #@! TO.C,C3*
G36*
G01*
X55775000Y91310044D02*
X55775000Y91990044D01*
G75*
G02*
X55860000Y92075044I85000J0D01*
G01*
X56540000Y92075044D01*
G75*
G02*
X56625000Y91990044I0J-85000D01*
G01*
X56625000Y91310044D01*
G75*
G02*
X56540000Y91225044I-85000J0D01*
G01*
X55860000Y91225044D01*
G75*
G02*
X55775000Y91310044I0J85000D01*
G01*
G37*
G36*
G01*
X57355002Y91310044D02*
X57355002Y91990044D01*
G75*
G02*
X57440002Y92075044I85000J0D01*
G01*
X58120002Y92075044D01*
G75*
G02*
X58205002Y91990044I0J-85000D01*
G01*
X58205002Y91310044D01*
G75*
G02*
X58120002Y91225044I-85000J0D01*
G01*
X57440002Y91225044D01*
G75*
G02*
X57355002Y91310044I0J85000D01*
G01*
G37*
G04 #@! TD*
G04 #@! TO.C,C2*
G36*
G01*
X55775000Y93260029D02*
X55775000Y93940029D01*
G75*
G02*
X55860000Y94025029I85000J0D01*
G01*
X56540000Y94025029D01*
G75*
G02*
X56625000Y93940029I0J-85000D01*
G01*
X56625000Y93260029D01*
G75*
G02*
X56540000Y93175029I-85000J0D01*
G01*
X55860000Y93175029D01*
G75*
G02*
X55775000Y93260029I0J85000D01*
G01*
G37*
G36*
G01*
X57355002Y93260029D02*
X57355002Y93940029D01*
G75*
G02*
X57440002Y94025029I85000J0D01*
G01*
X58120002Y94025029D01*
G75*
G02*
X58205002Y93940029I0J-85000D01*
G01*
X58205002Y93260029D01*
G75*
G02*
X58120002Y93175029I-85000J0D01*
G01*
X57440002Y93175029D01*
G75*
G02*
X57355002Y93260029I0J85000D01*
G01*
G37*
G04 #@! TD*
G04 #@! TO.C,C1*
G36*
G01*
X55775000Y95210014D02*
X55775000Y95890014D01*
G75*
G02*
X55860000Y95975014I85000J0D01*
G01*
X56540000Y95975014D01*
G75*
G02*
X56625000Y95890014I0J-85000D01*
G01*
X56625000Y95210014D01*
G75*
G02*
X56540000Y95125014I-85000J0D01*
G01*
X55860000Y95125014D01*
G75*
G02*
X55775000Y95210014I0J85000D01*
G01*
G37*
G36*
G01*
X57355002Y95210014D02*
X57355002Y95890014D01*
G75*
G02*
X57440002Y95975014I85000J0D01*
G01*
X58120002Y95975014D01*
G75*
G02*
X58205002Y95890014I0J-85000D01*
G01*
X58205002Y95210014D01*
G75*
G02*
X58120002Y95125014I-85000J0D01*
G01*
X57440002Y95125014D01*
G75*
G02*
X57355002Y95210014I0J85000D01*
G01*
G37*
G04 #@! TD*
G04 #@! TO.C,U1*
G36*
G01*
X37100000Y87605000D02*
X37100000Y88005000D01*
G75*
G02*
X37300000Y88205000I200000J0D01*
G01*
X39100000Y88205000D01*
G75*
G02*
X39300000Y88005000I0J-200000D01*
G01*
X39300000Y87605000D01*
G75*
G02*
X39100000Y87405000I-200000J0D01*
G01*
X37300000Y87405000D01*
G75*
G02*
X37100000Y87605000I0J200000D01*
G01*
G37*
G36*
G01*
X37100000Y86465000D02*
X37100000Y86865000D01*
G75*
G02*
X37300000Y87065000I200000J0D01*
G01*
X39100000Y87065000D01*
G75*
G02*
X39300000Y86865000I0J-200000D01*
G01*
X39300000Y86465000D01*
G75*
G02*
X39100000Y86265000I-200000J0D01*
G01*
X37300000Y86265000D01*
G75*
G02*
X37100000Y86465000I0J200000D01*
G01*
G37*
G36*
G01*
X41300000Y82874997D02*
X41300000Y88175003D01*
G75*
G02*
X41549997Y88425000I249997J0D01*
G01*
X47450003Y88425000D01*
G75*
G02*
X47700000Y88175003I0J-249997D01*
G01*
X47700000Y82874997D01*
G75*
G02*
X47450003Y82625000I-249997J0D01*
G01*
X41549997Y82625000D01*
G75*
G02*
X41300000Y82874997I0J249997D01*
G01*
G37*
G36*
G01*
X37100000Y84185000D02*
X37100000Y84585000D01*
G75*
G02*
X37300000Y84785000I200000J0D01*
G01*
X39100000Y84785000D01*
G75*
G02*
X39300000Y84585000I0J-200000D01*
G01*
X39300000Y84185000D01*
G75*
G02*
X39100000Y83985000I-200000J0D01*
G01*
X37300000Y83985000D01*
G75*
G02*
X37100000Y84185000I0J200000D01*
G01*
G37*
G36*
G01*
X37100000Y83045000D02*
X37100000Y83445000D01*
G75*
G02*
X37300000Y83645000I200000J0D01*
G01*
X39100000Y83645000D01*
G75*
G02*
X39300000Y83445000I0J-200000D01*
G01*
X39300000Y83045000D01*
G75*
G02*
X39100000Y82845000I-200000J0D01*
G01*
X37300000Y82845000D01*
G75*
G02*
X37100000Y83045000I0J200000D01*
G01*
G37*
G04 #@! TD*
D10*
G04 #@! TO.C,J2*
X39650000Y77775000D03*
D11*
X40450000Y79525000D03*
X41250000Y77775000D03*
X42050000Y79525000D03*
X42850000Y77775000D03*
D12*
X44900000Y78650000D03*
X37600000Y78650000D03*
G04 #@! TD*
G04 #@! TO.C,J1*
G36*
G01*
X38950000Y91700000D02*
X38950000Y93050000D01*
G75*
G02*
X39200000Y93300000I250000J0D01*
G01*
X40400000Y93300000D01*
G75*
G02*
X40650000Y93050000I0J-250000D01*
G01*
X40650000Y91700000D01*
G75*
G02*
X40400000Y91450000I-250000J0D01*
G01*
X39200000Y91450000D01*
G75*
G02*
X38950000Y91700000I0J250000D01*
G01*
G37*
D13*
X42300000Y92375000D03*
X44800000Y92375000D03*
X47300000Y92375000D03*
X49800000Y92375000D03*
G04 #@! TD*
D14*
G04 #@! TO.C,P1*
X138448000Y18622000D03*
X132548000Y18622000D03*
X126748000Y18622000D03*
X135548000Y12822000D03*
X129648000Y12822000D03*
X138448000Y10492000D03*
X132548000Y10492000D03*
X126748000Y10492000D03*
D15*
X118918000Y18622000D03*
X116378000Y18622000D03*
X113838000Y18622000D03*
X111298000Y18622000D03*
X108758000Y18622000D03*
X106218000Y18622000D03*
X103678000Y18622000D03*
X101138000Y18622000D03*
X118918000Y16082000D03*
X116378000Y16082000D03*
X113838000Y16082000D03*
X111298000Y16082000D03*
X108758000Y16082000D03*
X106218000Y16082000D03*
X103678000Y16082000D03*
X101138000Y16082000D03*
X118918000Y10032000D03*
X116378000Y10032000D03*
X113838000Y10032000D03*
X111298000Y10032000D03*
X108758000Y10032000D03*
X106218000Y10032000D03*
X103678000Y10032000D03*
X101138000Y10032000D03*
X118918000Y7492000D03*
X116378000Y7492000D03*
X113838000Y7492000D03*
X111298000Y7492000D03*
X108758000Y7492000D03*
X106218000Y7492000D03*
X103678000Y7492000D03*
X101138000Y7492000D03*
X39448000Y7492000D03*
X41988000Y7492000D03*
X44528000Y7492000D03*
X47068000Y7492000D03*
X49608000Y7492000D03*
X52148000Y7492000D03*
X54688000Y7492000D03*
X57228000Y7492000D03*
X59768000Y7492000D03*
X62308000Y7492000D03*
X64848000Y7492000D03*
X67388000Y7492000D03*
X69928000Y7492000D03*
X72468000Y7492000D03*
X75008000Y7492000D03*
X77548000Y7492000D03*
X80088000Y7492000D03*
X82628000Y7492000D03*
X85168000Y7492000D03*
X39448000Y10032000D03*
X41988000Y10032000D03*
X44528000Y10032000D03*
X47068000Y10032000D03*
X49608000Y10032000D03*
X52148000Y10032000D03*
X54688000Y10032000D03*
X57228000Y10032000D03*
X59768000Y10032000D03*
X62308000Y10032000D03*
X64848000Y10032000D03*
X67388000Y10032000D03*
X69928000Y10032000D03*
X72468000Y10032000D03*
X75008000Y10032000D03*
X77548000Y10032000D03*
X80088000Y10032000D03*
X82628000Y10032000D03*
X85168000Y10032000D03*
X39448000Y16082000D03*
X41988000Y16082000D03*
X44528000Y16082000D03*
X47068000Y16082000D03*
X49608000Y16082000D03*
X52148000Y16082000D03*
X54688000Y16082000D03*
X57228000Y16082000D03*
X59768000Y16082000D03*
X62308000Y16082000D03*
X64848000Y16082000D03*
X67388000Y16082000D03*
X69928000Y16082000D03*
X72468000Y16082000D03*
X75008000Y16082000D03*
X77548000Y16082000D03*
X80088000Y16082000D03*
X82628000Y16082000D03*
X85168000Y16082000D03*
X39448000Y18622000D03*
X41988000Y18622000D03*
X44528000Y18622000D03*
X47068000Y18622000D03*
X49608000Y18622000D03*
X52148000Y18622000D03*
X54688000Y18622000D03*
X57228000Y18622000D03*
X59768000Y18622000D03*
X62308000Y18622000D03*
X64848000Y18622000D03*
X67388000Y18622000D03*
X69928000Y18622000D03*
X72468000Y18622000D03*
X75008000Y18622000D03*
X77548000Y18622000D03*
X80088000Y18622000D03*
X82628000Y18622000D03*
X85168000Y18622000D03*
D14*
X31548000Y18622000D03*
X25748000Y18622000D03*
X28648000Y12822000D03*
X31548000Y10492000D03*
X25748000Y10492000D03*
D16*
X145348000Y5492000D03*
D17*
X142898000Y13292000D03*
D16*
X93148000Y5492000D03*
D17*
X21098000Y13292000D03*
D16*
X18648000Y5492000D03*
G04 #@! TD*
G04 #@! TO.C,R8*
G36*
G01*
X60525006Y65225005D02*
X60525006Y63975005D01*
G75*
G02*
X60425006Y63875005I-100000J0D01*
G01*
X59625006Y63875005D01*
G75*
G02*
X59525006Y63975005I0J100000D01*
G01*
X59525006Y65225005D01*
G75*
G02*
X59625006Y65325005I100000J0D01*
G01*
X60425006Y65325005D01*
G75*
G02*
X60525006Y65225005I0J-100000D01*
G01*
G37*
G36*
G01*
X58624984Y65225005D02*
X58624984Y63975005D01*
G75*
G02*
X58524984Y63875005I-100000J0D01*
G01*
X57724984Y63875005D01*
G75*
G02*
X57624984Y63975005I0J100000D01*
G01*
X57624984Y65225005D01*
G75*
G02*
X57724984Y65325005I100000J0D01*
G01*
X58524984Y65325005D01*
G75*
G02*
X58624984Y65225005I0J-100000D01*
G01*
G37*
G04 #@! TD*
G04 #@! TO.C,R9*
G36*
G01*
X60525006Y68225005D02*
X60525006Y66975005D01*
G75*
G02*
X60425006Y66875005I-100000J0D01*
G01*
X59625006Y66875005D01*
G75*
G02*
X59525006Y66975005I0J100000D01*
G01*
X59525006Y68225005D01*
G75*
G02*
X59625006Y68325005I100000J0D01*
G01*
X60425006Y68325005D01*
G75*
G02*
X60525006Y68225005I0J-100000D01*
G01*
G37*
G36*
G01*
X58624984Y68225005D02*
X58624984Y66975005D01*
G75*
G02*
X58524984Y66875005I-100000J0D01*
G01*
X57724984Y66875005D01*
G75*
G02*
X57624984Y66975005I0J100000D01*
G01*
X57624984Y68225005D01*
G75*
G02*
X57724984Y68325005I100000J0D01*
G01*
X58524984Y68325005D01*
G75*
G02*
X58624984Y68225005I0J-100000D01*
G01*
G37*
G04 #@! TD*
G04 #@! TO.C,L1*
G36*
G01*
X127331255Y43875005D02*
X126818755Y43875005D01*
G75*
G02*
X126600005Y44093755I0J218750D01*
G01*
X126600005Y44531255D01*
G75*
G02*
X126818755Y44750005I218750J0D01*
G01*
X127331255Y44750005D01*
G75*
G02*
X127550005Y44531255I0J-218750D01*
G01*
X127550005Y44093755D01*
G75*
G02*
X127331255Y43875005I-218750J0D01*
G01*
G37*
G36*
G01*
X127331255Y45450005D02*
X126818755Y45450005D01*
G75*
G02*
X126600005Y45668755I0J218750D01*
G01*
X126600005Y46106255D01*
G75*
G02*
X126818755Y46325005I218750J0D01*
G01*
X127331255Y46325005D01*
G75*
G02*
X127550005Y46106255I0J-218750D01*
G01*
X127550005Y45668755D01*
G75*
G02*
X127331255Y45450005I-218750J0D01*
G01*
G37*
G04 #@! TD*
D15*
G04 #@! TO.C,M1*
X113325007Y71600008D03*
X113325007Y78000005D03*
X113325007Y79900008D03*
X113325007Y84200008D03*
D18*
X112875008Y86600005D03*
X112875008Y87600006D03*
D15*
X113325007Y90450008D03*
X128825004Y71150006D03*
X128825004Y73000005D03*
X128825004Y77950008D03*
X128825004Y90000006D03*
G04 #@! TD*
G04 #@! TO.C,U8*
G36*
G01*
X122820005Y58150005D02*
X122520005Y58150005D01*
G75*
G02*
X122370005Y58300005I0J150000D01*
G01*
X122370005Y59950005D01*
G75*
G02*
X122520005Y60100005I150000J0D01*
G01*
X122820005Y60100005D01*
G75*
G02*
X122970005Y59950005I0J-150000D01*
G01*
X122970005Y58300005D01*
G75*
G02*
X122820005Y58150005I-150000J0D01*
G01*
G37*
G36*
G01*
X124090005Y58150005D02*
X123790005Y58150005D01*
G75*
G02*
X123640005Y58300005I0J150000D01*
G01*
X123640005Y59950005D01*
G75*
G02*
X123790005Y60100005I150000J0D01*
G01*
X124090005Y60100005D01*
G75*
G02*
X124240005Y59950005I0J-150000D01*
G01*
X124240005Y58300005D01*
G75*
G02*
X124090005Y58150005I-150000J0D01*
G01*
G37*
G36*
G01*
X125360005Y58150005D02*
X125060005Y58150005D01*
G75*
G02*
X124910005Y58300005I0J150000D01*
G01*
X124910005Y59950005D01*
G75*
G02*
X125060005Y60100005I150000J0D01*
G01*
X125360005Y60100005D01*
G75*
G02*
X125510005Y59950005I0J-150000D01*
G01*
X125510005Y58300005D01*
G75*
G02*
X125360005Y58150005I-150000J0D01*
G01*
G37*
G36*
G01*
X126630005Y58150005D02*
X126330005Y58150005D01*
G75*
G02*
X126180005Y58300005I0J150000D01*
G01*
X126180005Y59950005D01*
G75*
G02*
X126330005Y60100005I150000J0D01*
G01*
X126630005Y60100005D01*
G75*
G02*
X126780005Y59950005I0J-150000D01*
G01*
X126780005Y58300005D01*
G75*
G02*
X126630005Y58150005I-150000J0D01*
G01*
G37*
G36*
G01*
X126630005Y63100005D02*
X126330005Y63100005D01*
G75*
G02*
X126180005Y63250005I0J150000D01*
G01*
X126180005Y64900005D01*
G75*
G02*
X126330005Y65050005I150000J0D01*
G01*
X126630005Y65050005D01*
G75*
G02*
X126780005Y64900005I0J-150000D01*
G01*
X126780005Y63250005D01*
G75*
G02*
X126630005Y63100005I-150000J0D01*
G01*
G37*
G36*
G01*
X125360005Y63100005D02*
X125060005Y63100005D01*
G75*
G02*
X124910005Y63250005I0J150000D01*
G01*
X124910005Y64900005D01*
G75*
G02*
X125060005Y65050005I150000J0D01*
G01*
X125360005Y65050005D01*
G75*
G02*
X125510005Y64900005I0J-150000D01*
G01*
X125510005Y63250005D01*
G75*
G02*
X125360005Y63100005I-150000J0D01*
G01*
G37*
G36*
G01*
X124090005Y63100005D02*
X123790005Y63100005D01*
G75*
G02*
X123640005Y63250005I0J150000D01*
G01*
X123640005Y64900005D01*
G75*
G02*
X123790005Y65050005I150000J0D01*
G01*
X124090005Y65050005D01*
G75*
G02*
X124240005Y64900005I0J-150000D01*
G01*
X124240005Y63250005D01*
G75*
G02*
X124090005Y63100005I-150000J0D01*
G01*
G37*
G36*
G01*
X122820005Y63100005D02*
X122520005Y63100005D01*
G75*
G02*
X122370005Y63250005I0J150000D01*
G01*
X122370005Y64900005D01*
G75*
G02*
X122520005Y65050005I150000J0D01*
G01*
X122820005Y65050005D01*
G75*
G02*
X122970005Y64900005I0J-150000D01*
G01*
X122970005Y63250005D01*
G75*
G02*
X122820005Y63100005I-150000J0D01*
G01*
G37*
G04 #@! TD*
G04 #@! TO.C,R12*
G36*
G01*
X64025006Y68225005D02*
X64025006Y66975005D01*
G75*
G02*
X63925006Y66875005I-100000J0D01*
G01*
X63125006Y66875005D01*
G75*
G02*
X63025006Y66975005I0J100000D01*
G01*
X63025006Y68225005D01*
G75*
G02*
X63125006Y68325005I100000J0D01*
G01*
X63925006Y68325005D01*
G75*
G02*
X64025006Y68225005I0J-100000D01*
G01*
G37*
G36*
G01*
X62124984Y68225005D02*
X62124984Y66975005D01*
G75*
G02*
X62024984Y66875005I-100000J0D01*
G01*
X61224984Y66875005D01*
G75*
G02*
X61124984Y66975005I0J100000D01*
G01*
X61124984Y68225005D01*
G75*
G02*
X61224984Y68325005I100000J0D01*
G01*
X62024984Y68325005D01*
G75*
G02*
X62124984Y68225005I0J-100000D01*
G01*
G37*
G04 #@! TD*
G04 #@! TO.C,L2*
G36*
G01*
X125331255Y43875005D02*
X124818755Y43875005D01*
G75*
G02*
X124600005Y44093755I0J218750D01*
G01*
X124600005Y44531255D01*
G75*
G02*
X124818755Y44750005I218750J0D01*
G01*
X125331255Y44750005D01*
G75*
G02*
X125550005Y44531255I0J-218750D01*
G01*
X125550005Y44093755D01*
G75*
G02*
X125331255Y43875005I-218750J0D01*
G01*
G37*
G36*
G01*
X125331255Y45450005D02*
X124818755Y45450005D01*
G75*
G02*
X124600005Y45668755I0J218750D01*
G01*
X124600005Y46106255D01*
G75*
G02*
X124818755Y46325005I218750J0D01*
G01*
X125331255Y46325005D01*
G75*
G02*
X125550005Y46106255I0J-218750D01*
G01*
X125550005Y45668755D01*
G75*
G02*
X125331255Y45450005I-218750J0D01*
G01*
G37*
G04 #@! TD*
G04 #@! TO.C,U7*
G36*
G01*
X116735005Y64050005D02*
X117035005Y64050005D01*
G75*
G02*
X117185005Y63900005I0J-150000D01*
G01*
X117185005Y62250005D01*
G75*
G02*
X117035005Y62100005I-150000J0D01*
G01*
X116735005Y62100005D01*
G75*
G02*
X116585005Y62250005I0J150000D01*
G01*
X116585005Y63900005D01*
G75*
G02*
X116735005Y64050005I150000J0D01*
G01*
G37*
G36*
G01*
X115465005Y64050005D02*
X115765005Y64050005D01*
G75*
G02*
X115915005Y63900005I0J-150000D01*
G01*
X115915005Y62250005D01*
G75*
G02*
X115765005Y62100005I-150000J0D01*
G01*
X115465005Y62100005D01*
G75*
G02*
X115315005Y62250005I0J150000D01*
G01*
X115315005Y63900005D01*
G75*
G02*
X115465005Y64050005I150000J0D01*
G01*
G37*
G36*
G01*
X114195005Y64050005D02*
X114495005Y64050005D01*
G75*
G02*
X114645005Y63900005I0J-150000D01*
G01*
X114645005Y62250005D01*
G75*
G02*
X114495005Y62100005I-150000J0D01*
G01*
X114195005Y62100005D01*
G75*
G02*
X114045005Y62250005I0J150000D01*
G01*
X114045005Y63900005D01*
G75*
G02*
X114195005Y64050005I150000J0D01*
G01*
G37*
G36*
G01*
X112925005Y64050005D02*
X113225005Y64050005D01*
G75*
G02*
X113375005Y63900005I0J-150000D01*
G01*
X113375005Y62250005D01*
G75*
G02*
X113225005Y62100005I-150000J0D01*
G01*
X112925005Y62100005D01*
G75*
G02*
X112775005Y62250005I0J150000D01*
G01*
X112775005Y63900005D01*
G75*
G02*
X112925005Y64050005I150000J0D01*
G01*
G37*
G36*
G01*
X112925005Y59100005D02*
X113225005Y59100005D01*
G75*
G02*
X113375005Y58950005I0J-150000D01*
G01*
X113375005Y57300005D01*
G75*
G02*
X113225005Y57150005I-150000J0D01*
G01*
X112925005Y57150005D01*
G75*
G02*
X112775005Y57300005I0J150000D01*
G01*
X112775005Y58950005D01*
G75*
G02*
X112925005Y59100005I150000J0D01*
G01*
G37*
G36*
G01*
X114195005Y59100005D02*
X114495005Y59100005D01*
G75*
G02*
X114645005Y58950005I0J-150000D01*
G01*
X114645005Y57300005D01*
G75*
G02*
X114495005Y57150005I-150000J0D01*
G01*
X114195005Y57150005D01*
G75*
G02*
X114045005Y57300005I0J150000D01*
G01*
X114045005Y58950005D01*
G75*
G02*
X114195005Y59100005I150000J0D01*
G01*
G37*
G36*
G01*
X115465005Y59100005D02*
X115765005Y59100005D01*
G75*
G02*
X115915005Y58950005I0J-150000D01*
G01*
X115915005Y57300005D01*
G75*
G02*
X115765005Y57150005I-150000J0D01*
G01*
X115465005Y57150005D01*
G75*
G02*
X115315005Y57300005I0J150000D01*
G01*
X115315005Y58950005D01*
G75*
G02*
X115465005Y59100005I150000J0D01*
G01*
G37*
G36*
G01*
X116735005Y59100005D02*
X117035005Y59100005D01*
G75*
G02*
X117185005Y58950005I0J-150000D01*
G01*
X117185005Y57300005D01*
G75*
G02*
X117035005Y57150005I-150000J0D01*
G01*
X116735005Y57150005D01*
G75*
G02*
X116585005Y57300005I0J150000D01*
G01*
X116585005Y58950005D01*
G75*
G02*
X116735005Y59100005I150000J0D01*
G01*
G37*
G04 #@! TD*
G04 #@! TO.C,R6*
G36*
G01*
X69465005Y60250005D02*
X68685005Y60250005D01*
G75*
G02*
X68615005Y60320005I0J70000D01*
G01*
X68615005Y60880005D01*
G75*
G02*
X68685005Y60950005I70000J0D01*
G01*
X69465005Y60950005D01*
G75*
G02*
X69535005Y60880005I0J-70000D01*
G01*
X69535005Y60320005D01*
G75*
G02*
X69465005Y60250005I-70000J0D01*
G01*
G37*
G36*
G01*
X69465005Y61850005D02*
X68685005Y61850005D01*
G75*
G02*
X68615005Y61920005I0J70000D01*
G01*
X68615005Y62480005D01*
G75*
G02*
X68685005Y62550005I70000J0D01*
G01*
X69465005Y62550005D01*
G75*
G02*
X69535005Y62480005I0J-70000D01*
G01*
X69535005Y61920005D01*
G75*
G02*
X69465005Y61850005I-70000J0D01*
G01*
G37*
G04 #@! TD*
G04 #@! TO.C,Q5*
G36*
G01*
X114005005Y55175005D02*
X114705005Y55175005D01*
G75*
G02*
X114955005Y54925005I0J-250000D01*
G01*
X114955005Y53225005D01*
G75*
G02*
X114705005Y52975005I-250000J0D01*
G01*
X114005005Y52975005D01*
G75*
G02*
X113755005Y53225005I0J250000D01*
G01*
X113755005Y54925005D01*
G75*
G02*
X114005005Y55175005I250000J0D01*
G01*
G37*
G36*
G01*
X109425002Y50975005D02*
X114725008Y50975005D01*
G75*
G02*
X114975005Y50725008I0J-249997D01*
G01*
X114975005Y44825002D01*
G75*
G02*
X114725008Y44575005I-249997J0D01*
G01*
X109425002Y44575005D01*
G75*
G02*
X109175005Y44825002I0J249997D01*
G01*
X109175005Y50725008D01*
G75*
G02*
X109425002Y50975005I249997J0D01*
G01*
G37*
G36*
G01*
X109445005Y55175005D02*
X110145005Y55175005D01*
G75*
G02*
X110395005Y54925005I0J-250000D01*
G01*
X110395005Y53225005D01*
G75*
G02*
X110145005Y52975005I-250000J0D01*
G01*
X109445005Y52975005D01*
G75*
G02*
X109195005Y53225005I0J250000D01*
G01*
X109195005Y54925005D01*
G75*
G02*
X109445005Y55175005I250000J0D01*
G01*
G37*
G04 #@! TD*
D19*
G04 #@! TO.C,F3*
X45125005Y68100005D03*
G36*
G01*
X46469995Y67200005D02*
X45779995Y67200005D01*
G75*
G02*
X45549995Y67430005I0J230000D01*
G01*
X45549995Y68770005D01*
G75*
G02*
X45779995Y69000005I230000J0D01*
G01*
X46469995Y69000005D01*
G75*
G02*
X46699995Y68770005I0J-230000D01*
G01*
X46699995Y67430005D01*
G75*
G02*
X46469995Y67200005I-230000J0D01*
G01*
G37*
G36*
G01*
X49370015Y67200005D02*
X48680015Y67200005D01*
G75*
G02*
X48450015Y67430005I0J230000D01*
G01*
X48450015Y68770005D01*
G75*
G02*
X48680015Y69000005I230000J0D01*
G01*
X49370015Y69000005D01*
G75*
G02*
X49600015Y68770005I0J-230000D01*
G01*
X49600015Y67430005D01*
G75*
G02*
X49370015Y67200005I-230000J0D01*
G01*
G37*
X50025005Y68100005D03*
G04 #@! TD*
G04 #@! TO.C,R7*
G36*
G01*
X60525006Y62225005D02*
X60525006Y60975005D01*
G75*
G02*
X60425006Y60875005I-100000J0D01*
G01*
X59625006Y60875005D01*
G75*
G02*
X59525006Y60975005I0J100000D01*
G01*
X59525006Y62225005D01*
G75*
G02*
X59625006Y62325005I100000J0D01*
G01*
X60425006Y62325005D01*
G75*
G02*
X60525006Y62225005I0J-100000D01*
G01*
G37*
G36*
G01*
X58624984Y62225005D02*
X58624984Y60975005D01*
G75*
G02*
X58524984Y60875005I-100000J0D01*
G01*
X57724984Y60875005D01*
G75*
G02*
X57624984Y60975005I0J100000D01*
G01*
X57624984Y62225005D01*
G75*
G02*
X57724984Y62325005I100000J0D01*
G01*
X58524984Y62325005D01*
G75*
G02*
X58624984Y62225005I0J-100000D01*
G01*
G37*
G04 #@! TD*
G04 #@! TO.C,Q2*
G36*
G01*
X89420005Y55175005D02*
X90120005Y55175005D01*
G75*
G02*
X90370005Y54925005I0J-250000D01*
G01*
X90370005Y53225005D01*
G75*
G02*
X90120005Y52975005I-250000J0D01*
G01*
X89420005Y52975005D01*
G75*
G02*
X89170005Y53225005I0J250000D01*
G01*
X89170005Y54925005D01*
G75*
G02*
X89420005Y55175005I250000J0D01*
G01*
G37*
G36*
G01*
X84840002Y50975005D02*
X90140008Y50975005D01*
G75*
G02*
X90390005Y50725008I0J-249997D01*
G01*
X90390005Y44825002D01*
G75*
G02*
X90140008Y44575005I-249997J0D01*
G01*
X84840002Y44575005D01*
G75*
G02*
X84590005Y44825002I0J249997D01*
G01*
X84590005Y50725008D01*
G75*
G02*
X84840002Y50975005I249997J0D01*
G01*
G37*
G36*
G01*
X84860005Y55175005D02*
X85560005Y55175005D01*
G75*
G02*
X85810005Y54925005I0J-250000D01*
G01*
X85810005Y53225005D01*
G75*
G02*
X85560005Y52975005I-250000J0D01*
G01*
X84860005Y52975005D01*
G75*
G02*
X84610005Y53225005I0J250000D01*
G01*
X84610005Y54925005D01*
G75*
G02*
X84860005Y55175005I250000J0D01*
G01*
G37*
G04 #@! TD*
G04 #@! TO.C,Q3*
G36*
G01*
X97615005Y55175005D02*
X98315005Y55175005D01*
G75*
G02*
X98565005Y54925005I0J-250000D01*
G01*
X98565005Y53225005D01*
G75*
G02*
X98315005Y52975005I-250000J0D01*
G01*
X97615005Y52975005D01*
G75*
G02*
X97365005Y53225005I0J250000D01*
G01*
X97365005Y54925005D01*
G75*
G02*
X97615005Y55175005I250000J0D01*
G01*
G37*
G36*
G01*
X93035002Y50975005D02*
X98335008Y50975005D01*
G75*
G02*
X98585005Y50725008I0J-249997D01*
G01*
X98585005Y44825002D01*
G75*
G02*
X98335008Y44575005I-249997J0D01*
G01*
X93035002Y44575005D01*
G75*
G02*
X92785005Y44825002I0J249997D01*
G01*
X92785005Y50725008D01*
G75*
G02*
X93035002Y50975005I249997J0D01*
G01*
G37*
G36*
G01*
X93055005Y55175005D02*
X93755005Y55175005D01*
G75*
G02*
X94005005Y54925005I0J-250000D01*
G01*
X94005005Y53225005D01*
G75*
G02*
X93755005Y52975005I-250000J0D01*
G01*
X93055005Y52975005D01*
G75*
G02*
X92805005Y53225005I0J250000D01*
G01*
X92805005Y54925005D01*
G75*
G02*
X93055005Y55175005I250000J0D01*
G01*
G37*
G04 #@! TD*
G04 #@! TO.C,U3*
G36*
G01*
X88330005Y64050005D02*
X88630005Y64050005D01*
G75*
G02*
X88780005Y63900005I0J-150000D01*
G01*
X88780005Y62250005D01*
G75*
G02*
X88630005Y62100005I-150000J0D01*
G01*
X88330005Y62100005D01*
G75*
G02*
X88180005Y62250005I0J150000D01*
G01*
X88180005Y63900005D01*
G75*
G02*
X88330005Y64050005I150000J0D01*
G01*
G37*
G36*
G01*
X87060005Y64050005D02*
X87360005Y64050005D01*
G75*
G02*
X87510005Y63900005I0J-150000D01*
G01*
X87510005Y62250005D01*
G75*
G02*
X87360005Y62100005I-150000J0D01*
G01*
X87060005Y62100005D01*
G75*
G02*
X86910005Y62250005I0J150000D01*
G01*
X86910005Y63900005D01*
G75*
G02*
X87060005Y64050005I150000J0D01*
G01*
G37*
G36*
G01*
X85790005Y64050005D02*
X86090005Y64050005D01*
G75*
G02*
X86240005Y63900005I0J-150000D01*
G01*
X86240005Y62250005D01*
G75*
G02*
X86090005Y62100005I-150000J0D01*
G01*
X85790005Y62100005D01*
G75*
G02*
X85640005Y62250005I0J150000D01*
G01*
X85640005Y63900005D01*
G75*
G02*
X85790005Y64050005I150000J0D01*
G01*
G37*
G36*
G01*
X84520005Y64050005D02*
X84820005Y64050005D01*
G75*
G02*
X84970005Y63900005I0J-150000D01*
G01*
X84970005Y62250005D01*
G75*
G02*
X84820005Y62100005I-150000J0D01*
G01*
X84520005Y62100005D01*
G75*
G02*
X84370005Y62250005I0J150000D01*
G01*
X84370005Y63900005D01*
G75*
G02*
X84520005Y64050005I150000J0D01*
G01*
G37*
G36*
G01*
X84520005Y59100005D02*
X84820005Y59100005D01*
G75*
G02*
X84970005Y58950005I0J-150000D01*
G01*
X84970005Y57300005D01*
G75*
G02*
X84820005Y57150005I-150000J0D01*
G01*
X84520005Y57150005D01*
G75*
G02*
X84370005Y57300005I0J150000D01*
G01*
X84370005Y58950005D01*
G75*
G02*
X84520005Y59100005I150000J0D01*
G01*
G37*
G36*
G01*
X85790005Y59100005D02*
X86090005Y59100005D01*
G75*
G02*
X86240005Y58950005I0J-150000D01*
G01*
X86240005Y57300005D01*
G75*
G02*
X86090005Y57150005I-150000J0D01*
G01*
X85790005Y57150005D01*
G75*
G02*
X85640005Y57300005I0J150000D01*
G01*
X85640005Y58950005D01*
G75*
G02*
X85790005Y59100005I150000J0D01*
G01*
G37*
G36*
G01*
X87060005Y59100005D02*
X87360005Y59100005D01*
G75*
G02*
X87510005Y58950005I0J-150000D01*
G01*
X87510005Y57300005D01*
G75*
G02*
X87360005Y57150005I-150000J0D01*
G01*
X87060005Y57150005D01*
G75*
G02*
X86910005Y57300005I0J150000D01*
G01*
X86910005Y58950005D01*
G75*
G02*
X87060005Y59100005I150000J0D01*
G01*
G37*
G36*
G01*
X88330005Y59100005D02*
X88630005Y59100005D01*
G75*
G02*
X88780005Y58950005I0J-150000D01*
G01*
X88780005Y57300005D01*
G75*
G02*
X88630005Y57150005I-150000J0D01*
G01*
X88330005Y57150005D01*
G75*
G02*
X88180005Y57300005I0J150000D01*
G01*
X88180005Y58950005D01*
G75*
G02*
X88330005Y59100005I150000J0D01*
G01*
G37*
G04 #@! TD*
G04 #@! TO.C,Q6*
G36*
G01*
X122200005Y55175005D02*
X122900005Y55175005D01*
G75*
G02*
X123150005Y54925005I0J-250000D01*
G01*
X123150005Y53225005D01*
G75*
G02*
X122900005Y52975005I-250000J0D01*
G01*
X122200005Y52975005D01*
G75*
G02*
X121950005Y53225005I0J250000D01*
G01*
X121950005Y54925005D01*
G75*
G02*
X122200005Y55175005I250000J0D01*
G01*
G37*
G36*
G01*
X117620002Y50975005D02*
X122920008Y50975005D01*
G75*
G02*
X123170005Y50725008I0J-249997D01*
G01*
X123170005Y44825002D01*
G75*
G02*
X122920008Y44575005I-249997J0D01*
G01*
X117620002Y44575005D01*
G75*
G02*
X117370005Y44825002I0J249997D01*
G01*
X117370005Y50725008D01*
G75*
G02*
X117620002Y50975005I249997J0D01*
G01*
G37*
G36*
G01*
X117640005Y55175005D02*
X118340005Y55175005D01*
G75*
G02*
X118590005Y54925005I0J-250000D01*
G01*
X118590005Y53225005D01*
G75*
G02*
X118340005Y52975005I-250000J0D01*
G01*
X117640005Y52975005D01*
G75*
G02*
X117390005Y53225005I0J250000D01*
G01*
X117390005Y54925005D01*
G75*
G02*
X117640005Y55175005I250000J0D01*
G01*
G37*
G04 #@! TD*
G04 #@! TO.C,F1*
X132575005Y44150005D03*
G36*
G01*
X133475005Y45494995D02*
X133475005Y44804995D01*
G75*
G02*
X133245005Y44574995I-230000J0D01*
G01*
X131905005Y44574995D01*
G75*
G02*
X131675005Y44804995I0J230000D01*
G01*
X131675005Y45494995D01*
G75*
G02*
X131905005Y45724995I230000J0D01*
G01*
X133245005Y45724995D01*
G75*
G02*
X133475005Y45494995I0J-230000D01*
G01*
G37*
G36*
G01*
X133475005Y48395015D02*
X133475005Y47705015D01*
G75*
G02*
X133245005Y47475015I-230000J0D01*
G01*
X131905005Y47475015D01*
G75*
G02*
X131675005Y47705015I0J230000D01*
G01*
X131675005Y48395015D01*
G75*
G02*
X131905005Y48625015I230000J0D01*
G01*
X133245005Y48625015D01*
G75*
G02*
X133475005Y48395015I0J-230000D01*
G01*
G37*
X132575005Y49050005D03*
G04 #@! TD*
G04 #@! TO.C,U4*
G36*
G01*
X109330005Y64050005D02*
X109630005Y64050005D01*
G75*
G02*
X109780005Y63900005I0J-150000D01*
G01*
X109780005Y62250005D01*
G75*
G02*
X109630005Y62100005I-150000J0D01*
G01*
X109330005Y62100005D01*
G75*
G02*
X109180005Y62250005I0J150000D01*
G01*
X109180005Y63900005D01*
G75*
G02*
X109330005Y64050005I150000J0D01*
G01*
G37*
G36*
G01*
X108060005Y64050005D02*
X108360005Y64050005D01*
G75*
G02*
X108510005Y63900005I0J-150000D01*
G01*
X108510005Y62250005D01*
G75*
G02*
X108360005Y62100005I-150000J0D01*
G01*
X108060005Y62100005D01*
G75*
G02*
X107910005Y62250005I0J150000D01*
G01*
X107910005Y63900005D01*
G75*
G02*
X108060005Y64050005I150000J0D01*
G01*
G37*
G36*
G01*
X106790005Y64050005D02*
X107090005Y64050005D01*
G75*
G02*
X107240005Y63900005I0J-150000D01*
G01*
X107240005Y62250005D01*
G75*
G02*
X107090005Y62100005I-150000J0D01*
G01*
X106790005Y62100005D01*
G75*
G02*
X106640005Y62250005I0J150000D01*
G01*
X106640005Y63900005D01*
G75*
G02*
X106790005Y64050005I150000J0D01*
G01*
G37*
G36*
G01*
X105520005Y64050005D02*
X105820005Y64050005D01*
G75*
G02*
X105970005Y63900005I0J-150000D01*
G01*
X105970005Y62250005D01*
G75*
G02*
X105820005Y62100005I-150000J0D01*
G01*
X105520005Y62100005D01*
G75*
G02*
X105370005Y62250005I0J150000D01*
G01*
X105370005Y63900005D01*
G75*
G02*
X105520005Y64050005I150000J0D01*
G01*
G37*
G36*
G01*
X105520005Y59100005D02*
X105820005Y59100005D01*
G75*
G02*
X105970005Y58950005I0J-150000D01*
G01*
X105970005Y57300005D01*
G75*
G02*
X105820005Y57150005I-150000J0D01*
G01*
X105520005Y57150005D01*
G75*
G02*
X105370005Y57300005I0J150000D01*
G01*
X105370005Y58950005D01*
G75*
G02*
X105520005Y59100005I150000J0D01*
G01*
G37*
G36*
G01*
X106790005Y59100005D02*
X107090005Y59100005D01*
G75*
G02*
X107240005Y58950005I0J-150000D01*
G01*
X107240005Y57300005D01*
G75*
G02*
X107090005Y57150005I-150000J0D01*
G01*
X106790005Y57150005D01*
G75*
G02*
X106640005Y57300005I0J150000D01*
G01*
X106640005Y58950005D01*
G75*
G02*
X106790005Y59100005I150000J0D01*
G01*
G37*
G36*
G01*
X108060005Y59100005D02*
X108360005Y59100005D01*
G75*
G02*
X108510005Y58950005I0J-150000D01*
G01*
X108510005Y57300005D01*
G75*
G02*
X108360005Y57150005I-150000J0D01*
G01*
X108060005Y57150005D01*
G75*
G02*
X107910005Y57300005I0J150000D01*
G01*
X107910005Y58950005D01*
G75*
G02*
X108060005Y59100005I150000J0D01*
G01*
G37*
G36*
G01*
X109330005Y59100005D02*
X109630005Y59100005D01*
G75*
G02*
X109780005Y58950005I0J-150000D01*
G01*
X109780005Y57300005D01*
G75*
G02*
X109630005Y57150005I-150000J0D01*
G01*
X109330005Y57150005D01*
G75*
G02*
X109180005Y57300005I0J150000D01*
G01*
X109180005Y58950005D01*
G75*
G02*
X109330005Y59100005I150000J0D01*
G01*
G37*
G04 #@! TD*
D18*
G04 #@! TO.C,M3*
X68450005Y58425005D03*
X69650005Y58425005D03*
X67250005Y58425005D03*
X66050005Y58425005D03*
X72510005Y44000005D03*
X73510005Y44000005D03*
G04 #@! TD*
D19*
G04 #@! TO.C,F2*
X130075005Y44150005D03*
G36*
G01*
X130975005Y45494995D02*
X130975005Y44804995D01*
G75*
G02*
X130745005Y44574995I-230000J0D01*
G01*
X129405005Y44574995D01*
G75*
G02*
X129175005Y44804995I0J230000D01*
G01*
X129175005Y45494995D01*
G75*
G02*
X129405005Y45724995I230000J0D01*
G01*
X130745005Y45724995D01*
G75*
G02*
X130975005Y45494995I0J-230000D01*
G01*
G37*
G36*
G01*
X130975005Y48395015D02*
X130975005Y47705015D01*
G75*
G02*
X130745005Y47475015I-230000J0D01*
G01*
X129405005Y47475015D01*
G75*
G02*
X129175005Y47705015I0J230000D01*
G01*
X129175005Y48395015D01*
G75*
G02*
X129405005Y48625015I230000J0D01*
G01*
X130745005Y48625015D01*
G75*
G02*
X130975005Y48395015I0J-230000D01*
G01*
G37*
X130075005Y49050005D03*
G04 #@! TD*
D14*
G04 #@! TO.C,P2*
X138400000Y18505000D03*
X132500000Y18505000D03*
X126700000Y18505000D03*
X135500000Y12705000D03*
X129600000Y12705000D03*
X138400000Y10375000D03*
X132500000Y10375000D03*
X126700000Y10375000D03*
D15*
X118870000Y18505000D03*
X116330000Y18505000D03*
X113790000Y18505000D03*
X111250000Y18505000D03*
X108710000Y18505000D03*
X106170000Y18505000D03*
X103630000Y18505000D03*
X101090000Y18505000D03*
X118870000Y15965000D03*
X116330000Y15965000D03*
X113790000Y15965000D03*
X111250000Y15965000D03*
X108710000Y15965000D03*
X106170000Y15965000D03*
X103630000Y15965000D03*
X101090000Y15965000D03*
X118870000Y9915000D03*
X116330000Y9915000D03*
X113790000Y9915000D03*
X111250000Y9915000D03*
X108710000Y9915000D03*
X106170000Y9915000D03*
X103630000Y9915000D03*
X101090000Y9915000D03*
X118870000Y7375000D03*
X116330000Y7375000D03*
X113790000Y7375000D03*
X111250000Y7375000D03*
X108710000Y7375000D03*
X106170000Y7375000D03*
X103630000Y7375000D03*
X101090000Y7375000D03*
X39400000Y7375000D03*
X41940000Y7375000D03*
X44480000Y7375000D03*
X47020000Y7375000D03*
X49560000Y7375000D03*
X52100000Y7375000D03*
X54640000Y7375000D03*
X57180000Y7375000D03*
X59720000Y7375000D03*
X62260000Y7375000D03*
X64800000Y7375000D03*
X67340000Y7375000D03*
X69880000Y7375000D03*
X72420000Y7375000D03*
X74960000Y7375000D03*
X77500000Y7375000D03*
X80040000Y7375000D03*
X82580000Y7375000D03*
X85120000Y7375000D03*
X39400000Y9915000D03*
X41940000Y9915000D03*
X44480000Y9915000D03*
X47020000Y9915000D03*
X49560000Y9915000D03*
X52100000Y9915000D03*
X54640000Y9915000D03*
X57180000Y9915000D03*
X59720000Y9915000D03*
X62260000Y9915000D03*
X64800000Y9915000D03*
X67340000Y9915000D03*
X69880000Y9915000D03*
X72420000Y9915000D03*
X74960000Y9915000D03*
X77500000Y9915000D03*
X80040000Y9915000D03*
X82580000Y9915000D03*
X85120000Y9915000D03*
X39400000Y15965000D03*
X41940000Y15965000D03*
X44480000Y15965000D03*
X47020000Y15965000D03*
X49560000Y15965000D03*
X52100000Y15965000D03*
X54640000Y15965000D03*
X57180000Y15965000D03*
X59720000Y15965000D03*
X62260000Y15965000D03*
X64800000Y15965000D03*
X67340000Y15965000D03*
X69880000Y15965000D03*
X72420000Y15965000D03*
X74960000Y15965000D03*
X77500000Y15965000D03*
X80040000Y15965000D03*
X82580000Y15965000D03*
X85120000Y15965000D03*
X39400000Y18505000D03*
X41940000Y18505000D03*
X44480000Y18505000D03*
X47020000Y18505000D03*
X49560000Y18505000D03*
X52100000Y18505000D03*
X54640000Y18505000D03*
X57180000Y18505000D03*
X59720000Y18505000D03*
X62260000Y18505000D03*
X64800000Y18505000D03*
X67340000Y18505000D03*
X69880000Y18505000D03*
X72420000Y18505000D03*
X74960000Y18505000D03*
X77500000Y18505000D03*
X80040000Y18505000D03*
X82580000Y18505000D03*
X85120000Y18505000D03*
D14*
X31500000Y18505000D03*
X25700000Y18505000D03*
X28600000Y12705000D03*
X31500000Y10375000D03*
X25700000Y10375000D03*
D16*
X145300000Y5375000D03*
D17*
X142850000Y13175000D03*
D16*
X93100000Y5375000D03*
D17*
X21050000Y13175000D03*
D16*
X18600000Y5375000D03*
G04 #@! TD*
G04 #@! TO.C,Q1*
G36*
G01*
X81225005Y55175005D02*
X81925005Y55175005D01*
G75*
G02*
X82175005Y54925005I0J-250000D01*
G01*
X82175005Y53225005D01*
G75*
G02*
X81925005Y52975005I-250000J0D01*
G01*
X81225005Y52975005D01*
G75*
G02*
X80975005Y53225005I0J250000D01*
G01*
X80975005Y54925005D01*
G75*
G02*
X81225005Y55175005I250000J0D01*
G01*
G37*
G36*
G01*
X76645002Y50975005D02*
X81945008Y50975005D01*
G75*
G02*
X82195005Y50725008I0J-249997D01*
G01*
X82195005Y44825002D01*
G75*
G02*
X81945008Y44575005I-249997J0D01*
G01*
X76645002Y44575005D01*
G75*
G02*
X76395005Y44825002I0J249997D01*
G01*
X76395005Y50725008D01*
G75*
G02*
X76645002Y50975005I249997J0D01*
G01*
G37*
G36*
G01*
X76665005Y55175005D02*
X77365005Y55175005D01*
G75*
G02*
X77615005Y54925005I0J-250000D01*
G01*
X77615005Y53225005D01*
G75*
G02*
X77365005Y52975005I-250000J0D01*
G01*
X76665005Y52975005D01*
G75*
G02*
X76415005Y53225005I0J250000D01*
G01*
X76415005Y54925005D01*
G75*
G02*
X76665005Y55175005I250000J0D01*
G01*
G37*
G04 #@! TD*
D20*
G04 #@! TO.C,M7*
X119712507Y93318344D03*
X119637504Y96868345D03*
X120812508Y97618343D03*
X119937506Y98143343D03*
D21*
X126487503Y99193341D03*
X126987504Y99193341D03*
D22*
X116637510Y99243339D03*
G04 #@! TD*
G04 #@! TO.C,D5*
G36*
G01*
X10425005Y39350005D02*
X11725005Y39350005D01*
G75*
G02*
X11975005Y39100005I0J-250000D01*
G01*
X11975005Y37100005D01*
G75*
G02*
X11725005Y36850005I-250000J0D01*
G01*
X10425005Y36850005D01*
G75*
G02*
X10175005Y37100005I0J250000D01*
G01*
X10175005Y39100005D01*
G75*
G02*
X10425005Y39350005I250000J0D01*
G01*
G37*
G36*
G01*
X10425005Y35350005D02*
X11725005Y35350005D01*
G75*
G02*
X11975005Y35100005I0J-250000D01*
G01*
X11975005Y33100005D01*
G75*
G02*
X11725005Y32850005I-250000J0D01*
G01*
X10425005Y32850005D01*
G75*
G02*
X10175005Y33100005I0J250000D01*
G01*
X10175005Y35100005D01*
G75*
G02*
X10425005Y35350005I250000J0D01*
G01*
G37*
G04 #@! TD*
G04 #@! TO.C,R15*
G36*
G01*
X21225005Y46990005D02*
X21225005Y46210005D01*
G75*
G02*
X21155005Y46140005I-70000J0D01*
G01*
X20595005Y46140005D01*
G75*
G02*
X20525005Y46210005I0J70000D01*
G01*
X20525005Y46990005D01*
G75*
G02*
X20595005Y47060005I70000J0D01*
G01*
X21155005Y47060005D01*
G75*
G02*
X21225005Y46990005I0J-70000D01*
G01*
G37*
G36*
G01*
X19625005Y46990005D02*
X19625005Y46210005D01*
G75*
G02*
X19555005Y46140005I-70000J0D01*
G01*
X18995005Y46140005D01*
G75*
G02*
X18925005Y46210005I0J70000D01*
G01*
X18925005Y46990005D01*
G75*
G02*
X18995005Y47060005I70000J0D01*
G01*
X19555005Y47060005D01*
G75*
G02*
X19625005Y46990005I0J-70000D01*
G01*
G37*
G04 #@! TD*
G04 #@! TO.C,R11*
G36*
G01*
X64025006Y65225005D02*
X64025006Y63975005D01*
G75*
G02*
X63925006Y63875005I-100000J0D01*
G01*
X63125006Y63875005D01*
G75*
G02*
X63025006Y63975005I0J100000D01*
G01*
X63025006Y65225005D01*
G75*
G02*
X63125006Y65325005I100000J0D01*
G01*
X63925006Y65325005D01*
G75*
G02*
X64025006Y65225005I0J-100000D01*
G01*
G37*
G36*
G01*
X62124984Y65225005D02*
X62124984Y63975005D01*
G75*
G02*
X62024984Y63875005I-100000J0D01*
G01*
X61224984Y63875005D01*
G75*
G02*
X61124984Y63975005I0J100000D01*
G01*
X61124984Y65225005D01*
G75*
G02*
X61224984Y65325005I100000J0D01*
G01*
X62024984Y65325005D01*
G75*
G02*
X62124984Y65225005I0J-100000D01*
G01*
G37*
G04 #@! TD*
G04 #@! TO.C,R5*
G36*
G01*
X67465005Y60250005D02*
X66685005Y60250005D01*
G75*
G02*
X66615005Y60320005I0J70000D01*
G01*
X66615005Y60880005D01*
G75*
G02*
X66685005Y60950005I70000J0D01*
G01*
X67465005Y60950005D01*
G75*
G02*
X67535005Y60880005I0J-70000D01*
G01*
X67535005Y60320005D01*
G75*
G02*
X67465005Y60250005I-70000J0D01*
G01*
G37*
G36*
G01*
X67465005Y61850005D02*
X66685005Y61850005D01*
G75*
G02*
X66615005Y61920005I0J70000D01*
G01*
X66615005Y62480005D01*
G75*
G02*
X66685005Y62550005I70000J0D01*
G01*
X67465005Y62550005D01*
G75*
G02*
X67535005Y62480005I0J-70000D01*
G01*
X67535005Y61920005D01*
G75*
G02*
X67465005Y61850005I-70000J0D01*
G01*
G37*
G04 #@! TD*
G04 #@! TO.C,Q4*
G36*
G01*
X105810005Y55175005D02*
X106510005Y55175005D01*
G75*
G02*
X106760005Y54925005I0J-250000D01*
G01*
X106760005Y53225005D01*
G75*
G02*
X106510005Y52975005I-250000J0D01*
G01*
X105810005Y52975005D01*
G75*
G02*
X105560005Y53225005I0J250000D01*
G01*
X105560005Y54925005D01*
G75*
G02*
X105810005Y55175005I250000J0D01*
G01*
G37*
G36*
G01*
X101230002Y50975005D02*
X106530008Y50975005D01*
G75*
G02*
X106780005Y50725008I0J-249997D01*
G01*
X106780005Y44825002D01*
G75*
G02*
X106530008Y44575005I-249997J0D01*
G01*
X101230002Y44575005D01*
G75*
G02*
X100980005Y44825002I0J249997D01*
G01*
X100980005Y50725008D01*
G75*
G02*
X101230002Y50975005I249997J0D01*
G01*
G37*
G36*
G01*
X101250005Y55175005D02*
X101950005Y55175005D01*
G75*
G02*
X102200005Y54925005I0J-250000D01*
G01*
X102200005Y53225005D01*
G75*
G02*
X101950005Y52975005I-250000J0D01*
G01*
X101250005Y52975005D01*
G75*
G02*
X101000005Y53225005I0J250000D01*
G01*
X101000005Y54925005D01*
G75*
G02*
X101250005Y55175005I250000J0D01*
G01*
G37*
G04 #@! TD*
G04 #@! TO.C,R10*
G36*
G01*
X64025006Y62225005D02*
X64025006Y60975005D01*
G75*
G02*
X63925006Y60875005I-100000J0D01*
G01*
X63125006Y60875005D01*
G75*
G02*
X63025006Y60975005I0J100000D01*
G01*
X63025006Y62225005D01*
G75*
G02*
X63125006Y62325005I100000J0D01*
G01*
X63925006Y62325005D01*
G75*
G02*
X64025006Y62225005I0J-100000D01*
G01*
G37*
G36*
G01*
X62124984Y62225005D02*
X62124984Y60975005D01*
G75*
G02*
X62024984Y60875005I-100000J0D01*
G01*
X61224984Y60875005D01*
G75*
G02*
X61124984Y60975005I0J100000D01*
G01*
X61124984Y62225005D01*
G75*
G02*
X61224984Y62325005I100000J0D01*
G01*
X62024984Y62325005D01*
G75*
G02*
X62124984Y62225005I0J-100000D01*
G01*
G37*
G04 #@! TD*
G04 #@! TO.C,R1*
G36*
G01*
X53185005Y50250005D02*
X53965005Y50250005D01*
G75*
G02*
X54035005Y50180005I0J-70000D01*
G01*
X54035005Y49620005D01*
G75*
G02*
X53965005Y49550005I-70000J0D01*
G01*
X53185005Y49550005D01*
G75*
G02*
X53115005Y49620005I0J70000D01*
G01*
X53115005Y50180005D01*
G75*
G02*
X53185005Y50250005I70000J0D01*
G01*
G37*
G36*
G01*
X53185005Y48650005D02*
X53965005Y48650005D01*
G75*
G02*
X54035005Y48580005I0J-70000D01*
G01*
X54035005Y48020005D01*
G75*
G02*
X53965005Y47950005I-70000J0D01*
G01*
X53185005Y47950005D01*
G75*
G02*
X53115005Y48020005I0J70000D01*
G01*
X53115005Y48580005D01*
G75*
G02*
X53185005Y48650005I70000J0D01*
G01*
G37*
G04 #@! TD*
D19*
G04 #@! TO.C,R4*
X110575005Y92145006D03*
G36*
G01*
X111200005Y92600005D02*
X109950005Y92600005D01*
G75*
G02*
X109850005Y92700005I0J100000D01*
G01*
X109850005Y93500005D01*
G75*
G02*
X109950005Y93600005I100000J0D01*
G01*
X111200005Y93600005D01*
G75*
G02*
X111300005Y93500005I0J-100000D01*
G01*
X111300005Y92700005D01*
G75*
G02*
X111200005Y92600005I-100000J0D01*
G01*
G37*
G36*
G01*
X111200005Y94500027D02*
X109950005Y94500027D01*
G75*
G02*
X109850005Y94600027I0J100000D01*
G01*
X109850005Y95400027D01*
G75*
G02*
X109950005Y95500027I100000J0D01*
G01*
X111200005Y95500027D01*
G75*
G02*
X111300005Y95400027I0J-100000D01*
G01*
X111300005Y94600027D01*
G75*
G02*
X111200005Y94500027I-100000J0D01*
G01*
G37*
X110575005Y95955006D03*
G04 #@! TD*
G04 #@! TO.C,D6*
G36*
G01*
X126775005Y51425005D02*
X126475005Y51425005D01*
G75*
G02*
X126325005Y51575005I0J150000D01*
G01*
X126325005Y52750005D01*
G75*
G02*
X126475005Y52900005I150000J0D01*
G01*
X126775005Y52900005D01*
G75*
G02*
X126925005Y52750005I0J-150000D01*
G01*
X126925005Y51575005D01*
G75*
G02*
X126775005Y51425005I-150000J0D01*
G01*
G37*
G36*
G01*
X128675005Y51425005D02*
X128375005Y51425005D01*
G75*
G02*
X128225005Y51575005I0J150000D01*
G01*
X128225005Y52750005D01*
G75*
G02*
X128375005Y52900005I150000J0D01*
G01*
X128675005Y52900005D01*
G75*
G02*
X128825005Y52750005I0J-150000D01*
G01*
X128825005Y51575005D01*
G75*
G02*
X128675005Y51425005I-150000J0D01*
G01*
G37*
G36*
G01*
X127725005Y53300005D02*
X127425005Y53300005D01*
G75*
G02*
X127275005Y53450005I0J150000D01*
G01*
X127275005Y54625005D01*
G75*
G02*
X127425005Y54775005I150000J0D01*
G01*
X127725005Y54775005D01*
G75*
G02*
X127875005Y54625005I0J-150000D01*
G01*
X127875005Y53450005D01*
G75*
G02*
X127725005Y53300005I-150000J0D01*
G01*
G37*
G04 #@! TD*
D18*
G04 #@! TO.C,M4*
X58275005Y58237505D03*
X59475005Y58237505D03*
X57075005Y58237505D03*
X55875005Y58237505D03*
X62335005Y43812505D03*
X63335005Y43812505D03*
G04 #@! TD*
G04 #@! TO.C,U6*
G36*
G01*
X95695005Y64050005D02*
X95995005Y64050005D01*
G75*
G02*
X96145005Y63900005I0J-150000D01*
G01*
X96145005Y62250005D01*
G75*
G02*
X95995005Y62100005I-150000J0D01*
G01*
X95695005Y62100005D01*
G75*
G02*
X95545005Y62250005I0J150000D01*
G01*
X95545005Y63900005D01*
G75*
G02*
X95695005Y64050005I150000J0D01*
G01*
G37*
G36*
G01*
X94425005Y64050005D02*
X94725005Y64050005D01*
G75*
G02*
X94875005Y63900005I0J-150000D01*
G01*
X94875005Y62250005D01*
G75*
G02*
X94725005Y62100005I-150000J0D01*
G01*
X94425005Y62100005D01*
G75*
G02*
X94275005Y62250005I0J150000D01*
G01*
X94275005Y63900005D01*
G75*
G02*
X94425005Y64050005I150000J0D01*
G01*
G37*
G36*
G01*
X93155005Y64050005D02*
X93455005Y64050005D01*
G75*
G02*
X93605005Y63900005I0J-150000D01*
G01*
X93605005Y62250005D01*
G75*
G02*
X93455005Y62100005I-150000J0D01*
G01*
X93155005Y62100005D01*
G75*
G02*
X93005005Y62250005I0J150000D01*
G01*
X93005005Y63900005D01*
G75*
G02*
X93155005Y64050005I150000J0D01*
G01*
G37*
G36*
G01*
X91885005Y64050005D02*
X92185005Y64050005D01*
G75*
G02*
X92335005Y63900005I0J-150000D01*
G01*
X92335005Y62250005D01*
G75*
G02*
X92185005Y62100005I-150000J0D01*
G01*
X91885005Y62100005D01*
G75*
G02*
X91735005Y62250005I0J150000D01*
G01*
X91735005Y63900005D01*
G75*
G02*
X91885005Y64050005I150000J0D01*
G01*
G37*
G36*
G01*
X91885005Y59100005D02*
X92185005Y59100005D01*
G75*
G02*
X92335005Y58950005I0J-150000D01*
G01*
X92335005Y57300005D01*
G75*
G02*
X92185005Y57150005I-150000J0D01*
G01*
X91885005Y57150005D01*
G75*
G02*
X91735005Y57300005I0J150000D01*
G01*
X91735005Y58950005D01*
G75*
G02*
X91885005Y59100005I150000J0D01*
G01*
G37*
G36*
G01*
X93155005Y59100005D02*
X93455005Y59100005D01*
G75*
G02*
X93605005Y58950005I0J-150000D01*
G01*
X93605005Y57300005D01*
G75*
G02*
X93455005Y57150005I-150000J0D01*
G01*
X93155005Y57150005D01*
G75*
G02*
X93005005Y57300005I0J150000D01*
G01*
X93005005Y58950005D01*
G75*
G02*
X93155005Y59100005I150000J0D01*
G01*
G37*
G36*
G01*
X94425005Y59100005D02*
X94725005Y59100005D01*
G75*
G02*
X94875005Y58950005I0J-150000D01*
G01*
X94875005Y57300005D01*
G75*
G02*
X94725005Y57150005I-150000J0D01*
G01*
X94425005Y57150005D01*
G75*
G02*
X94275005Y57300005I0J150000D01*
G01*
X94275005Y58950005D01*
G75*
G02*
X94425005Y59100005I150000J0D01*
G01*
G37*
G36*
G01*
X95695005Y59100005D02*
X95995005Y59100005D01*
G75*
G02*
X96145005Y58950005I0J-150000D01*
G01*
X96145005Y57300005D01*
G75*
G02*
X95995005Y57150005I-150000J0D01*
G01*
X95695005Y57150005D01*
G75*
G02*
X95545005Y57300005I0J150000D01*
G01*
X95545005Y58950005D01*
G75*
G02*
X95695005Y59100005I150000J0D01*
G01*
G37*
G04 #@! TD*
G04 #@! TO.C,Q7*
G36*
G01*
X20875005Y44275005D02*
X21175005Y44275005D01*
G75*
G02*
X21325005Y44125005I0J-150000D01*
G01*
X21325005Y42950005D01*
G75*
G02*
X21175005Y42800005I-150000J0D01*
G01*
X20875005Y42800005D01*
G75*
G02*
X20725005Y42950005I0J150000D01*
G01*
X20725005Y44125005D01*
G75*
G02*
X20875005Y44275005I150000J0D01*
G01*
G37*
G36*
G01*
X18975005Y44275005D02*
X19275005Y44275005D01*
G75*
G02*
X19425005Y44125005I0J-150000D01*
G01*
X19425005Y42950005D01*
G75*
G02*
X19275005Y42800005I-150000J0D01*
G01*
X18975005Y42800005D01*
G75*
G02*
X18825005Y42950005I0J150000D01*
G01*
X18825005Y44125005D01*
G75*
G02*
X18975005Y44275005I150000J0D01*
G01*
G37*
G36*
G01*
X19925005Y42400005D02*
X20225005Y42400005D01*
G75*
G02*
X20375005Y42250005I0J-150000D01*
G01*
X20375005Y41075005D01*
G75*
G02*
X20225005Y40925005I-150000J0D01*
G01*
X19925005Y40925005D01*
G75*
G02*
X19775005Y41075005I0J150000D01*
G01*
X19775005Y42250005D01*
G75*
G02*
X19925005Y42400005I150000J0D01*
G01*
G37*
G04 #@! TD*
G04 #@! TO.C,U5*
G36*
G01*
X102830005Y64050005D02*
X103130005Y64050005D01*
G75*
G02*
X103280005Y63900005I0J-150000D01*
G01*
X103280005Y62250005D01*
G75*
G02*
X103130005Y62100005I-150000J0D01*
G01*
X102830005Y62100005D01*
G75*
G02*
X102680005Y62250005I0J150000D01*
G01*
X102680005Y63900005D01*
G75*
G02*
X102830005Y64050005I150000J0D01*
G01*
G37*
G36*
G01*
X101560005Y64050005D02*
X101860005Y64050005D01*
G75*
G02*
X102010005Y63900005I0J-150000D01*
G01*
X102010005Y62250005D01*
G75*
G02*
X101860005Y62100005I-150000J0D01*
G01*
X101560005Y62100005D01*
G75*
G02*
X101410005Y62250005I0J150000D01*
G01*
X101410005Y63900005D01*
G75*
G02*
X101560005Y64050005I150000J0D01*
G01*
G37*
G36*
G01*
X100290005Y64050005D02*
X100590005Y64050005D01*
G75*
G02*
X100740005Y63900005I0J-150000D01*
G01*
X100740005Y62250005D01*
G75*
G02*
X100590005Y62100005I-150000J0D01*
G01*
X100290005Y62100005D01*
G75*
G02*
X100140005Y62250005I0J150000D01*
G01*
X100140005Y63900005D01*
G75*
G02*
X100290005Y64050005I150000J0D01*
G01*
G37*
G36*
G01*
X99020005Y64050005D02*
X99320005Y64050005D01*
G75*
G02*
X99470005Y63900005I0J-150000D01*
G01*
X99470005Y62250005D01*
G75*
G02*
X99320005Y62100005I-150000J0D01*
G01*
X99020005Y62100005D01*
G75*
G02*
X98870005Y62250005I0J150000D01*
G01*
X98870005Y63900005D01*
G75*
G02*
X99020005Y64050005I150000J0D01*
G01*
G37*
G36*
G01*
X99020005Y59100005D02*
X99320005Y59100005D01*
G75*
G02*
X99470005Y58950005I0J-150000D01*
G01*
X99470005Y57300005D01*
G75*
G02*
X99320005Y57150005I-150000J0D01*
G01*
X99020005Y57150005D01*
G75*
G02*
X98870005Y57300005I0J150000D01*
G01*
X98870005Y58950005D01*
G75*
G02*
X99020005Y59100005I150000J0D01*
G01*
G37*
G36*
G01*
X100290005Y59100005D02*
X100590005Y59100005D01*
G75*
G02*
X100740005Y58950005I0J-150000D01*
G01*
X100740005Y57300005D01*
G75*
G02*
X100590005Y57150005I-150000J0D01*
G01*
X100290005Y57150005D01*
G75*
G02*
X100140005Y57300005I0J150000D01*
G01*
X100140005Y58950005D01*
G75*
G02*
X100290005Y59100005I150000J0D01*
G01*
G37*
G36*
G01*
X101560005Y59100005D02*
X101860005Y59100005D01*
G75*
G02*
X102010005Y58950005I0J-150000D01*
G01*
X102010005Y57300005D01*
G75*
G02*
X101860005Y57150005I-150000J0D01*
G01*
X101560005Y57150005D01*
G75*
G02*
X101410005Y57300005I0J150000D01*
G01*
X101410005Y58950005D01*
G75*
G02*
X101560005Y59100005I150000J0D01*
G01*
G37*
G36*
G01*
X102830005Y59100005D02*
X103130005Y59100005D01*
G75*
G02*
X103280005Y58950005I0J-150000D01*
G01*
X103280005Y57300005D01*
G75*
G02*
X103130005Y57150005I-150000J0D01*
G01*
X102830005Y57150005D01*
G75*
G02*
X102680005Y57300005I0J150000D01*
G01*
X102680005Y58950005D01*
G75*
G02*
X102830005Y59100005I150000J0D01*
G01*
G37*
G04 #@! TD*
G04 #@! TO.C,M2*
X54050005Y46175004D03*
X54050005Y45225004D03*
X54050005Y44275006D03*
X45350005Y45275004D03*
X45350005Y46175004D03*
G04 #@! TD*
G36*
X151134191Y112275893D02*
G01*
X151170155Y112226393D01*
X151175000Y112195800D01*
X151175000Y112094801D01*
X151175001Y112094800D01*
X151297001Y112094800D01*
X151355192Y112075893D01*
X151391156Y112026393D01*
X151392628Y112021423D01*
X151525186Y111526710D01*
X151714545Y110968881D01*
X151939986Y110424617D01*
X151939991Y110424606D01*
X152200525Y109896295D01*
X152200544Y109896259D01*
X152495090Y109386092D01*
X152822376Y108896273D01*
X152822381Y108896265D01*
X153180983Y108428926D01*
X153181011Y108428893D01*
X153569409Y107986008D01*
X153569428Y107985988D01*
X153985986Y107569430D01*
X153986006Y107569411D01*
X154428891Y107181012D01*
X154428924Y107180984D01*
X154896260Y106822385D01*
X155386080Y106495098D01*
X155386094Y106495089D01*
X155896275Y106200536D01*
X156424605Y105939993D01*
X156424616Y105939988D01*
X156968880Y105714546D01*
X157526714Y105525185D01*
X157992825Y105400292D01*
X158044139Y105366968D01*
X158056462Y105334866D01*
X158066287Y105325000D01*
X158166877Y105325000D01*
X158225068Y105306093D01*
X158261032Y105256593D01*
X158265876Y105225589D01*
X158242865Y99680127D01*
X158240292Y99658109D01*
X158227772Y99604284D01*
X158208490Y99564666D01*
X158181031Y99530526D01*
X158146480Y99503204D01*
X158141566Y99500862D01*
X158080902Y99492894D01*
X158027140Y99522106D01*
X158000816Y99577339D01*
X157999973Y99590232D01*
X157999973Y99677146D01*
X157171175Y99819225D01*
X157164503Y99820607D01*
X156245492Y100044151D01*
X156240180Y100045601D01*
X155421279Y100293752D01*
X155414451Y100296096D01*
X154770007Y100543960D01*
X154765675Y100545745D01*
X154144431Y100819092D01*
X154141262Y100820553D01*
X153420611Y101168453D01*
X153415115Y101171322D01*
X152621972Y101617465D01*
X152613901Y101622532D01*
X151794678Y102193506D01*
X151791050Y102196158D01*
X151046345Y102767098D01*
X151039551Y102772808D01*
X150419346Y103343397D01*
X150416371Y103346250D01*
X149720991Y104041630D01*
X149714941Y104048256D01*
X149095063Y104792110D01*
X149090775Y104797642D01*
X148643860Y105418357D01*
X148641829Y105421288D01*
X148194599Y106092133D01*
X148191220Y106097575D01*
X147818963Y106742820D01*
X147816781Y106746810D01*
X147444551Y107466455D01*
X147441347Y107473274D01*
X147093642Y108292864D01*
X147092083Y108296767D01*
X146719695Y109289802D01*
X146716494Y109299974D01*
X146468760Y110266136D01*
X146467164Y110273520D01*
X146318183Y111117747D01*
X146317545Y111121868D01*
X146217958Y111868765D01*
X146217695Y111870917D01*
X146206131Y111975000D01*
X146093834Y111975000D01*
X146035643Y111993907D01*
X145999679Y112043407D01*
X145995474Y112085236D01*
X146001581Y112138695D01*
X146016197Y112180260D01*
X146039566Y112217324D01*
X146070767Y112248429D01*
X146110399Y112273247D01*
X146146434Y112286955D01*
X146184626Y112293414D01*
X146201134Y112294800D01*
X151076000Y112294800D01*
X151134191Y112275893D01*
G37*
G36*
X157926580Y105418042D02*
G01*
X157992826Y105400291D01*
X158044140Y105366967D01*
X158056462Y105334865D01*
X158066287Y105325000D01*
X158325862Y105325000D01*
X158345176Y105323098D01*
X158673544Y105257782D01*
X158673550Y105257781D01*
X159257595Y105180890D01*
X159845430Y105142362D01*
X159845444Y105142361D01*
X160140022Y105140001D01*
X162544779Y105140001D01*
X162602970Y105121094D01*
X162614783Y105111005D01*
X163771004Y103954784D01*
X163798781Y103900267D01*
X163800000Y103884780D01*
X163800000Y80249001D01*
X163781093Y80190810D01*
X163731593Y80154846D01*
X163701000Y80150001D01*
X161700006Y80150001D01*
X161575923Y80147438D01*
X161331144Y80106592D01*
X161096424Y80026013D01*
X160878171Y79907901D01*
X160878168Y79907899D01*
X160682340Y79755479D01*
X160682334Y79755474D01*
X160514258Y79572893D01*
X160378532Y79365149D01*
X160378529Y79365144D01*
X160278844Y79137885D01*
X160217923Y78897314D01*
X160197431Y78650000D01*
X160217923Y78402687D01*
X160278844Y78162116D01*
X160378529Y77934857D01*
X160378532Y77934852D01*
X160514258Y77727108D01*
X160682334Y77544527D01*
X160682340Y77544522D01*
X160878168Y77392102D01*
X160878171Y77392100D01*
X161096424Y77273988D01*
X161331144Y77193409D01*
X161575916Y77152564D01*
X161700005Y77150001D01*
X163701000Y77150001D01*
X163759191Y77131094D01*
X163795155Y77081594D01*
X163800000Y77051001D01*
X163800000Y14214430D01*
X163781093Y14156239D01*
X163772892Y14146367D01*
X162504095Y12806178D01*
X162450359Y12776920D01*
X162431650Y12775243D01*
X158098028Y12799454D01*
X158039944Y12818686D01*
X158004257Y12868386D01*
X157999581Y12898452D01*
X157999973Y99677146D01*
X157882246Y99697328D01*
X157828087Y99725796D01*
X157801004Y99780661D01*
X157799974Y99794905D01*
X157799999Y105313845D01*
X157802483Y105335882D01*
X157804440Y105344453D01*
X157835826Y105396975D01*
X157892090Y105421018D01*
X157926580Y105418042D01*
G37*
G36*
X18189673Y112275044D02*
G01*
X18211691Y112272471D01*
X18265516Y112259951D01*
X18305134Y112240669D01*
X18339274Y112213210D01*
X18366600Y112178651D01*
X18386104Y112137718D01*
X18395699Y112097634D01*
X18396233Y112076501D01*
X18378802Y112017851D01*
X18330226Y111980648D01*
X18297265Y111975000D01*
X18182857Y111975000D01*
X18050575Y111203354D01*
X18049193Y111196682D01*
X17825649Y110277672D01*
X17824199Y110272360D01*
X17576048Y109453459D01*
X17573704Y109446631D01*
X17325840Y108802187D01*
X17324055Y108797855D01*
X17050708Y108176611D01*
X17049247Y108173442D01*
X16701347Y107452791D01*
X16698478Y107447295D01*
X16252335Y106654152D01*
X16247268Y106646081D01*
X15676294Y105826858D01*
X15673642Y105823230D01*
X15102702Y105078525D01*
X15096992Y105071731D01*
X14526403Y104451525D01*
X14523550Y104448550D01*
X13828170Y103753170D01*
X13821544Y103747120D01*
X13077690Y103127243D01*
X13072158Y103122955D01*
X12451443Y102676040D01*
X12448512Y102674009D01*
X11777667Y102226779D01*
X11772225Y102223400D01*
X11126980Y101851143D01*
X11122990Y101848961D01*
X10403345Y101476731D01*
X10396526Y101473527D01*
X9576936Y101125822D01*
X9573033Y101124263D01*
X8579998Y100751875D01*
X8569826Y100748674D01*
X7603664Y100500940D01*
X7596280Y100499344D01*
X6752052Y100350363D01*
X6747931Y100349725D01*
X6001098Y100250147D01*
X5998893Y100249879D01*
X5998653Y100249853D01*
X5998652Y100249852D01*
X5998620Y100137198D01*
X5979696Y100079012D01*
X5930186Y100043063D01*
X5910554Y100038832D01*
X5808173Y100027455D01*
X5786002Y100027489D01*
X5731103Y100033761D01*
X5689539Y100048377D01*
X5652475Y100071746D01*
X5621370Y100102947D01*
X5596552Y100142579D01*
X5582844Y100178616D01*
X5576386Y100216807D01*
X5575000Y100233313D01*
X5575000Y105076000D01*
X5593907Y105134191D01*
X5643407Y105170155D01*
X5674000Y105175000D01*
X5774999Y105175000D01*
X5775000Y105175001D01*
X5775000Y105265807D01*
X5793907Y105323998D01*
X5843407Y105359962D01*
X5854687Y105362905D01*
X5904225Y105372759D01*
X6473270Y105525233D01*
X7031102Y105714593D01*
X7575362Y105940033D01*
X7575373Y105940038D01*
X8103700Y106200580D01*
X8613879Y106495131D01*
X8613893Y106495140D01*
X9103687Y106822410D01*
X9103717Y106822431D01*
X9571043Y107181023D01*
X9571076Y107181051D01*
X10013959Y107569447D01*
X10013979Y107569466D01*
X10430534Y107986021D01*
X10430553Y107986041D01*
X10818949Y108428924D01*
X10818977Y108428957D01*
X11177569Y108896283D01*
X11177590Y108896313D01*
X11504860Y109386107D01*
X11504869Y109386121D01*
X11799420Y109896300D01*
X12059962Y110424626D01*
X12059967Y110424637D01*
X12285407Y110968897D01*
X12474767Y111526729D01*
X12627241Y112095774D01*
X12651540Y112217933D01*
X12681436Y112271318D01*
X12737001Y112296934D01*
X12749049Y112297619D01*
X18189673Y112275044D01*
G37*
G36*
X6010874Y105372518D02*
G01*
X6064745Y105360223D01*
X6104444Y105341105D01*
X6138700Y105313786D01*
X6166169Y105279341D01*
X6187684Y105234665D01*
X6196867Y105202782D01*
X6199377Y105180480D01*
X6199998Y105169381D01*
X6198682Y100363141D01*
X6179759Y100304955D01*
X6130249Y100269005D01*
X6112766Y100265036D01*
X6001098Y100250147D01*
X5998893Y100249879D01*
X5998652Y100249853D01*
X5998651Y100249852D01*
X5975000Y13824987D01*
X5975000Y12749001D01*
X5956093Y12690810D01*
X5906593Y12654846D01*
X5876000Y12650001D01*
X1455222Y12650001D01*
X1397031Y12668908D01*
X1385218Y12678997D01*
X220281Y13843933D01*
X192504Y13898450D01*
X191285Y13913946D01*
X197315Y77051009D01*
X216228Y77109198D01*
X265731Y77145158D01*
X296315Y77150000D01*
X2300018Y77150000D01*
X2424098Y77152408D01*
X2424104Y77152409D01*
X2668915Y77193234D01*
X2668925Y77193237D01*
X2903680Y77273804D01*
X2903681Y77273805D01*
X3121984Y77391921D01*
X3317858Y77544356D01*
X3317865Y77544362D01*
X3485977Y77726961D01*
X3621736Y77934735D01*
X3621742Y77934747D01*
X3721449Y78162038D01*
X3782383Y78402640D01*
X3782384Y78402645D01*
X3802881Y78650000D01*
X3782384Y78897356D01*
X3782383Y78897361D01*
X3721449Y79137963D01*
X3621742Y79365254D01*
X3621736Y79365266D01*
X3485977Y79573040D01*
X3317865Y79755639D01*
X3317858Y79755645D01*
X3121984Y79908080D01*
X2903681Y80026196D01*
X2903680Y80026197D01*
X2668925Y80106764D01*
X2668915Y80106767D01*
X2424104Y80147592D01*
X2424098Y80147593D01*
X2300018Y80150001D01*
X296619Y80150001D01*
X238428Y80168908D01*
X202464Y80218408D01*
X197619Y80249010D01*
X199876Y103884666D01*
X218789Y103942855D01*
X228873Y103954661D01*
X1385219Y105111004D01*
X1439735Y105138781D01*
X1455222Y105140000D01*
X3859962Y105140000D01*
X4154562Y105142411D01*
X4648545Y105174788D01*
X4655020Y105175000D01*
X5774999Y105175000D01*
X5775000Y105175001D01*
X5775000Y105265807D01*
X5793907Y105323998D01*
X5843407Y105359962D01*
X5854687Y105362905D01*
X5905824Y105373076D01*
X5905885Y105372767D01*
X5925231Y105375000D01*
X5988846Y105375000D01*
X6010874Y105372518D01*
G37*
G36*
X149884563Y117800232D02*
G01*
X149942750Y117781314D01*
X149954549Y117771236D01*
X151111004Y116614782D01*
X151138781Y116560265D01*
X151140000Y116544778D01*
X151140000Y114140023D01*
X151142359Y113845445D01*
X151142360Y113845431D01*
X151174788Y113350686D01*
X151175000Y113344211D01*
X151175000Y112094801D01*
X151175001Y112094800D01*
X151276000Y112094800D01*
X151334191Y112075893D01*
X151370155Y112026393D01*
X151375000Y111995800D01*
X151375000Y111986154D01*
X151372518Y111964124D01*
X151360222Y111910252D01*
X151341104Y111870555D01*
X151313785Y111836299D01*
X151279341Y111808831D01*
X151234660Y111787313D01*
X151202785Y111778130D01*
X151180518Y111775622D01*
X151169437Y111775000D01*
X146317138Y111775000D01*
X146258947Y111793907D01*
X146222983Y111843407D01*
X146219009Y111860898D01*
X146217961Y111868747D01*
X146217695Y111870917D01*
X146206131Y111975000D01*
X18182857Y111975000D01*
X18162675Y111857272D01*
X18134207Y111803113D01*
X18079342Y111776030D01*
X18065098Y111775000D01*
X12670311Y111775000D01*
X12612120Y111793907D01*
X12576156Y111843407D01*
X12574684Y111899623D01*
X12627241Y112095771D01*
X12742168Y112673552D01*
X12742169Y112673558D01*
X12819061Y113257614D01*
X12857589Y113845437D01*
X12860000Y114140038D01*
X12860000Y116544778D01*
X12878907Y116602969D01*
X12888996Y116614782D01*
X14069926Y117795712D01*
X14124443Y117823489D01*
X14139948Y117824708D01*
X149884563Y117800232D01*
G37*
M02*
