G04 #@! TF.GenerationSoftware,KiCad,Pcbnew,8.0.8*
G04 #@! TF.CreationDate,2025-12-17T16:31:38-05:00*
G04 #@! TF.ProjectId,hellen121vag,68656c6c-656e-4313-9231-7661672e6b69,d*
G04 #@! TF.SameCoordinates,PX2b953a0PY6943058*
G04 #@! TF.FileFunction,Copper,L4,Bot*
G04 #@! TF.FilePolarity,Positive*
%FSLAX46Y46*%
G04 Gerber Fmt 4.6, Leading zero omitted, Abs format (unit mm)*
G04 Created by KiCad (PCBNEW 8.0.8) date 2025-12-17 16:31:38*
%MOMM*%
%LPD*%
G01*
G04 APERTURE LIST*
G04 #@! TA.AperFunction,ComponentPad*
%ADD10C,3.700000*%
G04 #@! TD*
G04 #@! TA.AperFunction,ComponentPad*
%ADD11C,2.200000*%
G04 #@! TD*
G04 #@! TA.AperFunction,ComponentPad*
%ADD12C,2.600000*%
G04 #@! TD*
G04 #@! TA.AperFunction,ComponentPad*
%ADD13C,1.500000*%
G04 #@! TD*
G04 #@! TA.AperFunction,ComponentPad*
%ADD14C,0.600000*%
G04 #@! TD*
G04 #@! TA.AperFunction,SMDPad,CuDef*
%ADD15O,0.200000X3.300000*%
G04 #@! TD*
G04 #@! TA.AperFunction,SMDPad,CuDef*
%ADD16O,0.200000X10.200000*%
G04 #@! TD*
G04 #@! TA.AperFunction,SMDPad,CuDef*
%ADD17O,0.200000X0.300000*%
G04 #@! TD*
G04 #@! TA.AperFunction,SMDPad,CuDef*
%ADD18O,17.000000X0.200000*%
G04 #@! TD*
G04 #@! TA.AperFunction,SMDPad,CuDef*
%ADD19O,15.400000X0.200000*%
G04 #@! TD*
G04 #@! TA.AperFunction,SMDPad,CuDef*
%ADD20O,0.200000X4.800000*%
G04 #@! TD*
G04 #@! TA.AperFunction,SMDPad,CuDef*
%ADD21O,0.200000X2.600000*%
G04 #@! TD*
G04 #@! TA.AperFunction,SMDPad,CuDef*
%ADD22O,0.200000X1.000000*%
G04 #@! TD*
G04 #@! TA.AperFunction,SMDPad,CuDef*
%ADD23O,0.200000X1.500000*%
G04 #@! TD*
G04 #@! TA.AperFunction,SMDPad,CuDef*
%ADD24R,0.200000X3.700000*%
G04 #@! TD*
G04 #@! TA.AperFunction,SMDPad,CuDef*
%ADD25R,0.200000X0.400000*%
G04 #@! TD*
G04 #@! TA.AperFunction,SMDPad,CuDef*
%ADD26R,0.200000X1.600000*%
G04 #@! TD*
G04 #@! TA.AperFunction,SMDPad,CuDef*
%ADD27R,0.200000X9.700000*%
G04 #@! TD*
G04 #@! TA.AperFunction,SMDPad,CuDef*
%ADD28R,0.200000X2.300000*%
G04 #@! TD*
G04 #@! TA.AperFunction,SMDPad,CuDef*
%ADD29R,1.400000X0.200000*%
G04 #@! TD*
G04 #@! TA.AperFunction,SMDPad,CuDef*
%ADD30R,6.400000X0.200000*%
G04 #@! TD*
G04 #@! TA.AperFunction,SMDPad,CuDef*
%ADD31R,1.700000X0.200000*%
G04 #@! TD*
G04 #@! TA.AperFunction,SMDPad,CuDef*
%ADD32R,3.300000X0.200000*%
G04 #@! TD*
G04 #@! TA.AperFunction,SMDPad,CuDef*
%ADD33R,0.200000X7.000000*%
G04 #@! TD*
G04 #@! TA.AperFunction,SMDPad,CuDef*
%ADD34R,0.200000X3.300000*%
G04 #@! TD*
G04 #@! TA.AperFunction,SMDPad,CuDef*
%ADD35R,0.200000X6.300000*%
G04 #@! TD*
G04 #@! TA.AperFunction,ComponentPad*
%ADD36C,1.524000*%
G04 #@! TD*
G04 #@! TA.AperFunction,ComponentPad*
%ADD37C,0.700000*%
G04 #@! TD*
G04 #@! TA.AperFunction,SMDPad,CuDef*
%ADD38R,1.100000X0.250000*%
G04 #@! TD*
G04 #@! TA.AperFunction,SMDPad,CuDef*
%ADD39R,0.980000X0.250000*%
G04 #@! TD*
G04 #@! TA.AperFunction,SMDPad,CuDef*
%ADD40R,6.300000X0.250000*%
G04 #@! TD*
G04 #@! TA.AperFunction,SMDPad,CuDef*
%ADD41R,0.250000X27.600000*%
G04 #@! TD*
G04 #@! TA.AperFunction,SMDPad,CuDef*
%ADD42R,8.750000X0.250000*%
G04 #@! TD*
G04 #@! TA.AperFunction,SMDPad,CuDef*
%ADD43R,0.950000X0.250000*%
G04 #@! TD*
G04 #@! TA.AperFunction,ComponentPad*
%ADD44R,1.100000X1.100000*%
G04 #@! TD*
G04 #@! TA.AperFunction,ComponentPad*
%ADD45C,1.100000*%
G04 #@! TD*
G04 #@! TA.AperFunction,ComponentPad*
%ADD46O,2.400000X1.100000*%
G04 #@! TD*
G04 #@! TA.AperFunction,SMDPad,CuDef*
%ADD47R,6.185000X0.250000*%
G04 #@! TD*
G04 #@! TA.AperFunction,SMDPad,CuDef*
%ADD48R,1.115000X0.250000*%
G04 #@! TD*
G04 #@! TA.AperFunction,SMDPad,CuDef*
%ADD49R,0.250000X14.275000*%
G04 #@! TD*
G04 #@! TA.AperFunction,SMDPad,CuDef*
%ADD50R,0.250000X15.100000*%
G04 #@! TD*
G04 #@! TA.AperFunction,SMDPad,CuDef*
%ADD51R,5.175000X0.250000*%
G04 #@! TD*
G04 #@! TA.AperFunction,ComponentPad*
%ADD52C,0.599999*%
G04 #@! TD*
G04 #@! TA.AperFunction,ComponentPad*
%ADD53O,1.700000X1.850000*%
G04 #@! TD*
G04 #@! TA.AperFunction,SMDPad,CuDef*
%ADD54R,4.400000X0.200000*%
G04 #@! TD*
G04 #@! TA.AperFunction,SMDPad,CuDef*
%ADD55R,0.200000X1.200000*%
G04 #@! TD*
G04 #@! TA.AperFunction,SMDPad,CuDef*
%ADD56R,0.200000X6.800000*%
G04 #@! TD*
G04 #@! TA.AperFunction,SMDPad,CuDef*
%ADD57R,0.200000X4.000000*%
G04 #@! TD*
G04 #@! TA.AperFunction,SMDPad,CuDef*
%ADD58R,0.200000X1.800000*%
G04 #@! TD*
G04 #@! TA.AperFunction,SMDPad,CuDef*
%ADD59R,10.000000X0.200000*%
G04 #@! TD*
G04 #@! TA.AperFunction,ComponentPad*
%ADD60C,1.000000*%
G04 #@! TD*
G04 #@! TA.AperFunction,SMDPad,CuDef*
%ADD61O,0.200000X1.225000*%
G04 #@! TD*
G04 #@! TA.AperFunction,SMDPad,CuDef*
%ADD62O,9.300000X0.200000*%
G04 #@! TD*
G04 #@! TA.AperFunction,ViaPad*
%ADD63C,2.000000*%
G04 #@! TD*
G04 APERTURE END LIST*
D10*
G04 #@! TO.P,P1,*
G04 #@! TO.N,*
X18648000Y5492000D03*
D11*
X21098000Y13292000D03*
D10*
X93148000Y5492000D03*
D11*
X142898000Y13292000D03*
D10*
X145348000Y5492000D03*
D12*
G04 #@! TO.P,P1,1,1*
G04 #@! TO.N,PIN1*
X25748000Y10492000D03*
G04 #@! TO.P,P1,2,2*
G04 #@! TO.N,PIN2*
X31548000Y10492000D03*
G04 #@! TO.P,P1,3,3*
G04 #@! TO.N,PIN114*
X28648000Y12822000D03*
G04 #@! TO.P,P1,4,4*
G04 #@! TO.N,PIN4*
X25748000Y18622000D03*
G04 #@! TO.P,P1,5,5*
G04 #@! TO.N,PIN5*
X31548000Y18622000D03*
D13*
G04 #@! TO.P,P1,6*
G04 #@! TO.N,N/C*
X85168000Y18622000D03*
G04 #@! TO.P,P1,7*
X82628000Y18622000D03*
G04 #@! TO.P,P1,8*
X80088000Y18622000D03*
G04 #@! TO.P,P1,9*
X77548000Y18622000D03*
G04 #@! TO.P,P1,10*
X75008000Y18622000D03*
G04 #@! TO.P,P1,11*
X72468000Y18622000D03*
G04 #@! TO.P,P1,12*
X69928000Y18622000D03*
G04 #@! TO.P,P1,13*
X67388000Y18622000D03*
G04 #@! TO.P,P1,14*
X64848000Y18622000D03*
G04 #@! TO.P,P1,15*
X62308000Y18622000D03*
G04 #@! TO.P,P1,16*
X59768000Y18622000D03*
G04 #@! TO.P,P1,17*
X57228000Y18622000D03*
G04 #@! TO.P,P1,18*
X54688000Y18622000D03*
G04 #@! TO.P,P1,19*
X52148000Y18622000D03*
G04 #@! TO.P,P1,20*
X49608000Y18622000D03*
G04 #@! TO.P,P1,21*
X47068000Y18622000D03*
G04 #@! TO.P,P1,22*
X44528000Y18622000D03*
G04 #@! TO.P,P1,23*
X41988000Y18622000D03*
G04 #@! TO.P,P1,24*
X39448000Y18622000D03*
G04 #@! TO.P,P1,25*
X85168000Y16082000D03*
G04 #@! TO.P,P1,26*
X82628000Y16082000D03*
G04 #@! TO.P,P1,27*
X80088000Y16082000D03*
G04 #@! TO.P,P1,28*
X77548000Y16082000D03*
G04 #@! TO.P,P1,29*
X75008000Y16082000D03*
G04 #@! TO.P,P1,30*
X72468000Y16082000D03*
G04 #@! TO.P,P1,31*
X69928000Y16082000D03*
G04 #@! TO.P,P1,32*
X67388000Y16082000D03*
G04 #@! TO.P,P1,33*
X64848000Y16082000D03*
G04 #@! TO.P,P1,34*
X62308000Y16082000D03*
G04 #@! TO.P,P1,35*
X59768000Y16082000D03*
G04 #@! TO.P,P1,36*
X57228000Y16082000D03*
G04 #@! TO.P,P1,37*
X54688000Y16082000D03*
G04 #@! TO.P,P1,38*
X52148000Y16082000D03*
G04 #@! TO.P,P1,39*
X49608000Y16082000D03*
G04 #@! TO.P,P1,40*
X47068000Y16082000D03*
G04 #@! TO.P,P1,41*
X44528000Y16082000D03*
G04 #@! TO.P,P1,42*
X41988000Y16082000D03*
G04 #@! TO.P,P1,43*
X39448000Y16082000D03*
G04 #@! TO.P,P1,44*
X85168000Y10032000D03*
G04 #@! TO.P,P1,45*
X82628000Y10032000D03*
G04 #@! TO.P,P1,46*
X80088000Y10032000D03*
G04 #@! TO.P,P1,47*
X77548000Y10032000D03*
G04 #@! TO.P,P1,48*
X75008000Y10032000D03*
G04 #@! TO.P,P1,49*
X72468000Y10032000D03*
G04 #@! TO.P,P1,50*
X69928000Y10032000D03*
G04 #@! TO.P,P1,51*
X67388000Y10032000D03*
G04 #@! TO.P,P1,52*
X64848000Y10032000D03*
G04 #@! TO.P,P1,53*
X62308000Y10032000D03*
G04 #@! TO.P,P1,54*
X59768000Y10032000D03*
G04 #@! TO.P,P1,55*
X57228000Y10032000D03*
G04 #@! TO.P,P1,56*
X54688000Y10032000D03*
G04 #@! TO.P,P1,57*
X52148000Y10032000D03*
G04 #@! TO.P,P1,58*
X49608000Y10032000D03*
G04 #@! TO.P,P1,59*
X47068000Y10032000D03*
G04 #@! TO.P,P1,60*
X44528000Y10032000D03*
G04 #@! TO.P,P1,61*
X41988000Y10032000D03*
G04 #@! TO.P,P1,62*
X39448000Y10032000D03*
G04 #@! TO.P,P1,63*
X85168000Y7492000D03*
G04 #@! TO.P,P1,64*
X82628000Y7492000D03*
G04 #@! TO.P,P1,65*
X80088000Y7492000D03*
G04 #@! TO.P,P1,66*
X77548000Y7492000D03*
G04 #@! TO.P,P1,67*
X75008000Y7492000D03*
G04 #@! TO.P,P1,68*
X72468000Y7492000D03*
G04 #@! TO.P,P1,69*
X69928000Y7492000D03*
G04 #@! TO.P,P1,70*
X67388000Y7492000D03*
G04 #@! TO.P,P1,71*
X64848000Y7492000D03*
G04 #@! TO.P,P1,72*
X62308000Y7492000D03*
G04 #@! TO.P,P1,73*
X59768000Y7492000D03*
G04 #@! TO.P,P1,74*
X57228000Y7492000D03*
G04 #@! TO.P,P1,75*
X54688000Y7492000D03*
G04 #@! TO.P,P1,76*
X52148000Y7492000D03*
G04 #@! TO.P,P1,77*
X49608000Y7492000D03*
G04 #@! TO.P,P1,78*
X47068000Y7492000D03*
G04 #@! TO.P,P1,79*
X44528000Y7492000D03*
G04 #@! TO.P,P1,80*
X41988000Y7492000D03*
G04 #@! TO.P,P1,81*
X39448000Y7492000D03*
G04 #@! TO.P,P1,82*
X101138000Y7492000D03*
G04 #@! TO.P,P1,83*
X103678000Y7492000D03*
G04 #@! TO.P,P1,84*
X106218000Y7492000D03*
G04 #@! TO.P,P1,85*
X108758000Y7492000D03*
G04 #@! TO.P,P1,86*
X111298000Y7492000D03*
G04 #@! TO.P,P1,87*
X113838000Y7492000D03*
G04 #@! TO.P,P1,88*
X116378000Y7492000D03*
G04 #@! TO.P,P1,89*
X118918000Y7492000D03*
G04 #@! TO.P,P1,90*
X101138000Y10032000D03*
G04 #@! TO.P,P1,91*
X103678000Y10032000D03*
G04 #@! TO.P,P1,92*
X106218000Y10032000D03*
G04 #@! TO.P,P1,93*
X108758000Y10032000D03*
G04 #@! TO.P,P1,94*
X111298000Y10032000D03*
G04 #@! TO.P,P1,95*
X113838000Y10032000D03*
G04 #@! TO.P,P1,96*
X116378000Y10032000D03*
G04 #@! TO.P,P1,97*
X118918000Y10032000D03*
G04 #@! TO.P,P1,98*
X101138000Y16082000D03*
G04 #@! TO.P,P1,99*
X103678000Y16082000D03*
G04 #@! TO.P,P1,100*
X106218000Y16082000D03*
G04 #@! TO.P,P1,101*
X108758000Y16082000D03*
G04 #@! TO.P,P1,102*
X111298000Y16082000D03*
G04 #@! TO.P,P1,103*
X113838000Y16082000D03*
G04 #@! TO.P,P1,104*
X116378000Y16082000D03*
G04 #@! TO.P,P1,105*
X118918000Y16082000D03*
G04 #@! TO.P,P1,106*
X101138000Y18622000D03*
G04 #@! TO.P,P1,107*
X103678000Y18622000D03*
G04 #@! TO.P,P1,108*
X106218000Y18622000D03*
G04 #@! TO.P,P1,109*
X108758000Y18622000D03*
G04 #@! TO.P,P1,110*
X111298000Y18622000D03*
G04 #@! TO.P,P1,111*
X113838000Y18622000D03*
G04 #@! TO.P,P1,112*
X116378000Y18622000D03*
G04 #@! TO.P,P1,113*
X118918000Y18622000D03*
D12*
G04 #@! TO.P,P1,114,114*
G04 #@! TO.N,PIN114*
X126748000Y10492000D03*
G04 #@! TO.P,P1,115,115*
X132548000Y10492000D03*
G04 #@! TO.P,P1,116,116*
G04 #@! TO.N,PIN116*
X138448000Y10492000D03*
G04 #@! TO.P,P1,117,117*
G04 #@! TO.N,PIN117*
X129648000Y12822000D03*
G04 #@! TO.P,P1,118,118*
G04 #@! TO.N,PIN118*
X135548000Y12822000D03*
G04 #@! TO.P,P1,119,119*
G04 #@! TO.N,PIN119*
X126748000Y18622000D03*
G04 #@! TO.P,P1,120,120*
G04 #@! TO.N,PIN120*
X132548000Y18622000D03*
G04 #@! TO.P,P1,121,121*
G04 #@! TO.N,PIN121*
X138448000Y18622000D03*
G04 #@! TD*
D13*
G04 #@! TO.P,M1,E1,VBAT*
G04 #@! TO.N,/VBAT*
X113325007Y71600008D03*
G04 #@! TO.P,M1,E2,V12*
G04 #@! TO.N,unconnected-(M1-V12-PadE2)*
X113325007Y78000005D03*
G04 #@! TO.P,M1,E3,VIGN*
G04 #@! TO.N,/VIGN*
X113325007Y79900008D03*
G04 #@! TO.P,M1,E4,V5*
G04 #@! TO.N,+5V*
X113325007Y84200008D03*
D14*
G04 #@! TO.P,M1,E5,EN_5VP*
G04 #@! TO.N,/PWR_EN*
X112875008Y86600005D03*
G04 #@! TO.P,M1,E6,PG_5VP*
G04 #@! TO.N,Net-(M1-PG_5VP)*
X112875008Y87600006D03*
D15*
G04 #@! TO.P,M1,S1,GND*
G04 #@! TO.N,PIN114*
X129475003Y75450008D03*
D16*
X129475003Y83950006D03*
D17*
X129475003Y91050008D03*
D18*
X121075005Y91100008D03*
D19*
X120275004Y70500008D03*
D13*
X113325007Y90450008D03*
D17*
X112675006Y70550008D03*
D20*
X112675006Y74750006D03*
D21*
X112675006Y82100008D03*
D22*
X112675006Y85600005D03*
D23*
X112675006Y88900006D03*
D13*
G04 #@! TO.P,M1,V1,V12_PERM*
G04 #@! TO.N,PIN116*
X128825004Y71150006D03*
G04 #@! TO.P,M1,V2,IN_VIGN*
G04 #@! TO.N,/IN_VIGN*
X128825004Y73000005D03*
G04 #@! TO.P,M1,V3,V12_RAW*
G04 #@! TO.N,PIN117*
X128825004Y77950008D03*
G04 #@! TO.P,M1,V4,5VP*
G04 #@! TO.N,PIN106*
X128825004Y90000006D03*
G04 #@! TD*
D14*
G04 #@! TO.P,M6,E1,V5A_SWITCHABLE*
G04 #@! TO.N,+5VA*
X107400000Y78025000D03*
G04 #@! TO.P,M6,E2,GNDA*
G04 #@! TO.N,N/C*
X107400010Y82325000D03*
G04 #@! TO.P,M6,E3,I2C_SCL_(PB10)*
X107400010Y83124990D03*
G04 #@! TO.P,M6,E4,I2C_SDA_(PB11)*
X107400010Y83925000D03*
G04 #@! TO.P,M6,E5,IN_VIGN_(PA5)*
G04 #@! TO.N,/VIGN*
X107400010Y84725000D03*
G04 #@! TO.P,M6,E6,SPI2_CS_/_CAN2_RX_(PB12)*
G04 #@! TO.N,E6INJ7CANRX*
X107400010Y85525000D03*
G04 #@! TO.P,M6,E7,SPI2_SCK_/_CAN2_TX_(PB13)*
G04 #@! TO.N,E7INJ8CANTX*
X107400010Y86325000D03*
G04 #@! TO.P,M6,E8,SPI2_MISO_(PB14)*
G04 #@! TO.N,DC1_DIS_W1*
X107400010Y87125000D03*
G04 #@! TO.P,M6,E9,SPI2_MOSI_(PB15)*
G04 #@! TO.N,/DC2_DIR*
X107400010Y87925000D03*
G04 #@! TO.P,M6,E10,OUT_INJ8_(PD12)*
G04 #@! TO.N,/LS2*
X107400010Y88725000D03*
G04 #@! TO.P,M6,E11,OUT_INJ7_(PD15)*
G04 #@! TO.N,/LS1*
X107400010Y89525000D03*
G04 #@! TO.P,M6,E12,OUT_INJ6_(PA8)*
G04 #@! TO.N,/INJ6*
X107400010Y90325000D03*
G04 #@! TO.P,M6,E13,OUT_INJ5_(PD2)*
G04 #@! TO.N,/INJ5*
X107400010Y91125000D03*
G04 #@! TO.P,M6,E14,OUT_INJ4_(PD10)*
G04 #@! TO.N,/INJ4*
X107400010Y91925000D03*
G04 #@! TO.P,M6,E15,OUT_INJ3_(PD11)*
G04 #@! TO.N,/INJ3*
X107400010Y92725000D03*
G04 #@! TO.P,M6,E16,OUT_INJ2_(PA9)*
G04 #@! TO.N,/INJ2*
X107400000Y93524990D03*
G04 #@! TO.P,M6,E17,OUT_INJ1_(PD3)*
G04 #@! TO.N,/INJ1*
X107400010Y94325000D03*
G04 #@! TO.P,M6,E18,OUT_PWM1_(PD13)*
G04 #@! TO.N,/LS3*
X107400010Y95725000D03*
G04 #@! TO.P,M6,E19,OUT_PWM2_(PC6)*
G04 #@! TO.N,/LS4*
X107400010Y96524990D03*
G04 #@! TO.P,M6,E20,OUT_PWM3_(PC7)*
G04 #@! TO.N,/DC1_PWM*
X107400010Y97324990D03*
G04 #@! TO.P,M6,E21,OUT_PWM4_(PC8)*
G04 #@! TO.N,/DC1_DIR*
X107400010Y98124990D03*
G04 #@! TO.P,M6,E22,OUT_PWM5_(PC9)*
G04 #@! TO.N,/DC2_PWM*
X107400010Y98924990D03*
G04 #@! TO.P,M6,E23,OUT_PWM6_(PD14)*
G04 #@! TO.N,/VR_DISCRETE_THR*
X107400010Y99725000D03*
D24*
G04 #@! TO.P,M6,G,GND*
G04 #@! TO.N,PIN114*
X73800000Y104574990D03*
D25*
X73800000Y101525000D03*
D24*
X73800000Y98474990D03*
D26*
X73800000Y94025000D03*
D27*
X73800000Y80375000D03*
D28*
X73800000Y72375000D03*
D29*
X75600010Y71324990D03*
D30*
X77700000Y107124990D03*
D31*
X83750000Y107124990D03*
D32*
X87250000Y107124990D03*
D29*
X97000000Y107124990D03*
D30*
X104500000Y71324990D03*
D33*
X107600010Y103725010D03*
D25*
X107600010Y95024990D03*
D34*
X107600010Y80174990D03*
D35*
X107600010Y74374990D03*
D14*
G04 #@! TO.P,M6,N1,VBUS*
G04 #@! TO.N,/VBUS*
X107000010Y106925000D03*
G04 #@! TO.P,M6,N2,USBM_(PA11)*
G04 #@! TO.N,/USB-*
X106200010Y106925000D03*
G04 #@! TO.P,M6,N3,USBP_(PA12)*
G04 #@! TO.N,/USB+*
X105400010Y106925000D03*
G04 #@! TO.P,M6,N4,USBID_(PA10)*
G04 #@! TO.N,/DC2_DIS*
X104600000Y106925000D03*
G04 #@! TO.P,M6,N5,SWDIO_(PA13)*
G04 #@! TO.N,N/C*
X103800010Y106925000D03*
G04 #@! TO.P,M6,N6,SWCLK_(PA14)*
X103000010Y106925000D03*
G04 #@! TO.P,M6,N7,nReset*
X102200010Y106925000D03*
G04 #@! TO.P,M6,N8,SWO_(PB3)*
X101400000Y106925000D03*
G04 #@! TO.P,M6,N9,SPI3_CS_(PA15)*
G04 #@! TO.N,/EGT/SPI_CS*
X100600010Y106924990D03*
G04 #@! TO.P,M6,N10,SPI3_SCK_(PC10)*
G04 #@! TO.N,/SCK3*
X99800010Y106924990D03*
G04 #@! TO.P,M6,N11,SPI3_MISO_(PC11)*
G04 #@! TO.N,/MISO3*
X99000010Y106924990D03*
G04 #@! TO.P,M6,N12,SPI3_MOSI_(PC12)*
G04 #@! TO.N,/PG_5VP*
X98200010Y106924990D03*
G04 #@! TO.P,M6,N13,UART2_TX_(PD5)*
G04 #@! TO.N,PIN7*
X95800000Y106924990D03*
G04 #@! TO.P,M6,N14,UART2_RX_(PD6)*
G04 #@! TO.N,PIN6*
X95000000Y106924990D03*
G04 #@! TO.P,M6,N14a,LED_GREEN*
G04 #@! TO.N,N/C*
X94200010Y106925000D03*
G04 #@! TO.P,M6,N14b,LED_YELLOW*
X93400000Y106925000D03*
G04 #@! TO.P,M6,N15,V33_SWITCHABLE*
G04 #@! TO.N,+3.3VA*
X92600000Y106925000D03*
G04 #@! TO.P,M6,N16,BOOT0*
G04 #@! TO.N,N/C*
X91800000Y106925000D03*
G04 #@! TO.P,M6,N17,VBAT*
G04 #@! TO.N,/VBAT*
X91000000Y106925000D03*
G04 #@! TO.P,M6,N18,UART8_RX_(PE0)*
G04 #@! TO.N,/VR_DISCRETE*
X90200000Y106924990D03*
G04 #@! TO.P,M6,N19,UART8_TX_(PE1)*
G04 #@! TO.N,/VR_MAX9924*
X89400000Y106924990D03*
G04 #@! TO.P,M6,N20,OUT_PWR_EN_(PE10)*
G04 #@! TO.N,/PWR_EN*
X85100000Y106924990D03*
G04 #@! TO.P,M6,N21,V33*
G04 #@! TO.N,+3.3V*
X82400000Y106924990D03*
G04 #@! TO.P,M6,N22,VCC*
G04 #@! TO.N,+5V*
X81400010Y106924990D03*
G04 #@! TO.P,M6,N23,V33*
G04 #@! TO.N,N/C*
X74000000Y106924990D03*
G04 #@! TO.P,M6,S1,IN_D4_(PE15)*
G04 #@! TO.N,PIN89*
X100800020Y71524990D03*
G04 #@! TO.P,M6,S2,IN_D3_(PE14)*
G04 #@! TO.N,PIN34*
X99600010Y71524990D03*
G04 #@! TO.P,M6,S3,IN_D2_(PE13)*
G04 #@! TO.N,PIN35*
X98400010Y71524990D03*
G04 #@! TO.P,M6,S4,IN_D1_(PE12)*
G04 #@! TO.N,PIN36*
X97200010Y71524990D03*
G04 #@! TO.P,M6,S5,VREF2*
G04 #@! TO.N,N/C*
X96000010Y71524990D03*
G04 #@! TO.P,M6,S6,IN_AUX4_(PC5)*
G04 #@! TO.N,/IN_VMAIN*
X94800010Y71524990D03*
G04 #@! TO.P,M6,S7,IN_AUX3_(PA7)*
G04 #@! TO.N,/IN_AUX3*
X93600010Y71524990D03*
G04 #@! TO.P,M6,S8,IN_AUX2_(PC4/PE9)*
G04 #@! TO.N,PIN91*
X92400010Y71524990D03*
G04 #@! TO.P,M6,S9,IN_AUX1_(PB0)*
G04 #@! TO.N,PIN39*
X91200010Y71524990D03*
G04 #@! TO.P,M6,S10,IN_O2S2_(PA1)*
G04 #@! TO.N,PIN41*
X90000010Y71524990D03*
G04 #@! TO.P,M6,S11,IN_O2S_/_CAN_WAKEUP_(PA0)*
G04 #@! TO.N,PIN40*
X88800010Y71524990D03*
G04 #@! TO.P,M6,S12,IN_MAP2_(PC1)*
G04 #@! TO.N,/INTERNAL_MAP*
X87600010Y71524990D03*
G04 #@! TO.P,M6,S13,IN_MAP1_(PC0)*
G04 #@! TO.N,PIN37*
X86400010Y71524990D03*
G04 #@! TO.P,M6,S14,IN_CRANK_(PB1)*
G04 #@! TO.N,PIN84*
X85200010Y71524990D03*
G04 #@! TO.P,M6,S15,IN_KNOCK_(PA2)*
G04 #@! TO.N,/ADC3*
X84000010Y71524990D03*
G04 #@! TO.P,M6,S16,IN_CAM_(PA6)*
G04 #@! TO.N,PIN85*
X82800010Y71524990D03*
G04 #@! TO.P,M6,S17,IN_VSS_(PE11)*
G04 #@! TO.N,PIN42*
X81600010Y71524990D03*
G04 #@! TO.P,M6,S18,IN_TPS_(PA4)*
G04 #@! TO.N,PIN38*
X80400000Y71524990D03*
G04 #@! TO.P,M6,S19,IN_PPS_(PA3)*
G04 #@! TO.N,PIN90*
X79200000Y71524990D03*
G04 #@! TO.P,M6,S20,IN_IAT_(PC3)*
G04 #@! TO.N,PIN63*
X78000000Y71524990D03*
G04 #@! TO.P,M6,S21,IN_CLT_(PC2)*
G04 #@! TO.N,PIN65*
X76800000Y71524990D03*
G04 #@! TO.P,M6,S22,VREF1*
G04 #@! TO.N,/VREF1*
X74400000Y71524990D03*
G04 #@! TO.P,M6,W1,GNDA*
G04 #@! TO.N,PIN113*
X74000000Y74025000D03*
G04 #@! TO.P,M6,W2,V5A_SWITCHABLE*
G04 #@! TO.N,+5VA*
X74000000Y75025000D03*
G04 #@! TO.P,M6,W3,IGN8_(PE6)*
G04 #@! TO.N,/LS_HOT2*
X74000000Y85724990D03*
G04 #@! TO.P,M6,W4,IGN7_(PB9)*
G04 #@! TO.N,/LS_HOT1*
X74000000Y86725000D03*
G04 #@! TO.P,M6,W5,IGN6_(PB8)*
G04 #@! TO.N,/IGN6*
X74000000Y87724990D03*
G04 #@! TO.P,M6,W6,IGN5_(PE2)*
G04 #@! TO.N,/IGN5*
X74000000Y88724990D03*
G04 #@! TO.P,M6,W7,IGN4_(PE3)*
G04 #@! TO.N,/IGN4*
X74000000Y89724990D03*
G04 #@! TO.P,M6,W8,IGN3_(PE4)*
G04 #@! TO.N,/IGN3*
X74000000Y90724990D03*
G04 #@! TO.P,M6,W9,IGN2_(PE5)*
G04 #@! TO.N,/IGN2*
X74000000Y91724990D03*
G04 #@! TO.P,M6,W10,IGN1_(PC13)*
G04 #@! TO.N,/IGN1*
X74000000Y92724990D03*
G04 #@! TO.P,M6,W11,CANH*
G04 #@! TO.N,PIN82*
X74000000Y95324990D03*
G04 #@! TO.P,M6,W12,CANL*
G04 #@! TO.N,PIN83*
X74000000Y96124990D03*
G04 #@! TO.P,M6,W13,V33_REF*
G04 #@! TO.N,N/C*
X74000000Y100825000D03*
G04 #@! TO.P,M6,W14,V5A_SWITCHABLE*
X74000000Y102224990D03*
G04 #@! TD*
D36*
G04 #@! TO.P,F3,1,1*
G04 #@! TO.N,PIN120*
X45125005Y68100005D03*
G04 #@! TO.P,F3,2,2*
G04 #@! TO.N,Net-(F3-Pad2)*
X50025005Y68100005D03*
G04 #@! TD*
D37*
G04 #@! TO.P,M5,E1,LSU_Un*
G04 #@! TO.N,PIN105*
X28300005Y43675005D03*
G04 #@! TO.P,M5,E2,LSU_Vm*
G04 #@! TO.N,PIN104*
X31300005Y43675005D03*
G04 #@! TO.P,M5,E3,LSU_Ip*
G04 #@! TO.N,PIN103*
X30300005Y43675005D03*
G04 #@! TO.P,M5,E4,LSU_Rtrim*
G04 #@! TO.N,PIN102*
X29300005Y43675005D03*
D38*
G04 #@! TO.P,M5,G,GND*
G04 #@! TO.N,PIN114*
X40150005Y70650005D03*
D39*
X35810005Y70650005D03*
D40*
X29850005Y70650005D03*
D41*
X40575005Y56975005D03*
X26825005Y56975005D03*
D42*
X36325005Y43300005D03*
D43*
X27175005Y43300005D03*
D37*
G04 #@! TO.P,M5,W1,V5_IN*
G04 #@! TO.N,+5VA*
X37950005Y70266205D03*
G04 #@! TO.P,M5,W2,CAN_VIO*
G04 #@! TO.N,N/C*
X36950005Y70266205D03*
G04 #@! TO.P,M5,W3,CANL*
G04 #@! TO.N,PIN83*
X33654005Y70266205D03*
G04 #@! TO.P,M5,W4,CANH*
G04 #@! TO.N,PIN82*
X34670005Y70266205D03*
G04 #@! TO.P,M5,W9,VDDA*
G04 #@! TO.N,N/C*
X38950005Y70266205D03*
G04 #@! TD*
D44*
G04 #@! TO.P,J22,1,VBUS*
G04 #@! TO.N,/VBUS*
X110700005Y104350005D03*
D45*
G04 #@! TO.P,J22,2,D-*
G04 #@! TO.N,/USB-*
X112450005Y103550005D03*
G04 #@! TO.P,J22,3,D+*
G04 #@! TO.N,/USB+*
X110700005Y102750005D03*
G04 #@! TO.P,J22,4,ID*
G04 #@! TO.N,N/C*
X112450005Y101950005D03*
G04 #@! TO.P,J22,5,GND*
G04 #@! TO.N,PIN114*
X110700005Y101150005D03*
D46*
G04 #@! TO.P,J22,6,Shield*
X111575005Y106400005D03*
X111575005Y99100005D03*
G04 #@! TD*
D36*
G04 #@! TO.P,F1,1,1*
G04 #@! TO.N,PIN108*
X132575005Y44150005D03*
G04 #@! TO.P,F1,2,2*
G04 #@! TO.N,/IN_VIGN*
X132575005Y49050005D03*
G04 #@! TD*
D14*
G04 #@! TO.P,M3,E1,Thresh_IN*
G04 #@! TO.N,/VR_DISCRETE_THR*
X68450005Y58425005D03*
G04 #@! TO.P,M3,E2,OUT_A*
G04 #@! TO.N,/VR_DISCRETE_A*
X69650005Y58425005D03*
G04 #@! TO.P,M3,E3,OUT*
G04 #@! TO.N,/VR_DISCRETE*
X67250005Y58425005D03*
G04 #@! TO.P,M3,E4,V5_IN*
G04 #@! TO.N,+5VA*
X66050005Y58425005D03*
D47*
G04 #@! TO.P,M3,G,GND*
G04 #@! TO.N,PIN114*
X68717505Y43775005D03*
D48*
X74767505Y43775005D03*
D49*
X65750005Y50787505D03*
D50*
X75200005Y51200005D03*
D51*
X72737505Y58625005D03*
D14*
G04 #@! TO.P,M3,W1,VR-*
G04 #@! TO.N,PIN18*
X72510005Y44000005D03*
G04 #@! TO.P,M3,W2,VR+*
G04 #@! TO.N,PIN17*
X73510005Y44000005D03*
G04 #@! TD*
D36*
G04 #@! TO.P,F2,1,1*
G04 #@! TO.N,PIN120*
X130075005Y44150005D03*
G04 #@! TO.P,F2,2,2*
G04 #@! TO.N,PIN117*
X130075005Y49050005D03*
G04 #@! TD*
D10*
G04 #@! TO.P,P2,*
G04 #@! TO.N,*
X18600000Y5375000D03*
D11*
X21050000Y13175000D03*
D10*
X93100000Y5375000D03*
D11*
X142850000Y13175000D03*
D10*
X145300000Y5375000D03*
D12*
G04 #@! TO.P,P2,1*
G04 #@! TO.N,N/C*
X25700000Y10375000D03*
G04 #@! TO.P,P2,2*
X31500000Y10375000D03*
G04 #@! TO.P,P2,3*
X28600000Y12705000D03*
G04 #@! TO.P,P2,4*
X25700000Y18505000D03*
G04 #@! TO.P,P2,5*
X31500000Y18505000D03*
D13*
G04 #@! TO.P,P2,6,6*
G04 #@! TO.N,PIN6*
X85120000Y18505000D03*
G04 #@! TO.P,P2,7,7*
G04 #@! TO.N,PIN7*
X82580000Y18505000D03*
G04 #@! TO.P,P2,8,8*
G04 #@! TO.N,PIN8*
X80040000Y18505000D03*
G04 #@! TO.P,P2,9,9*
G04 #@! TO.N,PIN9*
X77500000Y18505000D03*
G04 #@! TO.P,P2,10,10*
G04 #@! TO.N,PIN10*
X74960000Y18505000D03*
G04 #@! TO.P,P2,11,11*
G04 #@! TO.N,PIN11*
X72420000Y18505000D03*
G04 #@! TO.P,P2,12,12*
G04 #@! TO.N,PIN12*
X69880000Y18505000D03*
G04 #@! TO.P,P2,13,13*
G04 #@! TO.N,PIN13*
X67340000Y18505000D03*
G04 #@! TO.P,P2,14,14*
G04 #@! TO.N,PIN14*
X64800000Y18505000D03*
G04 #@! TO.P,P2,15,15*
G04 #@! TO.N,PIN15*
X62260000Y18505000D03*
G04 #@! TO.P,P2,16,16*
G04 #@! TO.N,PIN16*
X59720000Y18505000D03*
G04 #@! TO.P,P2,17,17*
G04 #@! TO.N,PIN17*
X57180000Y18505000D03*
G04 #@! TO.P,P2,18,18*
G04 #@! TO.N,PIN18*
X54640000Y18505000D03*
G04 #@! TO.P,P2,19,19*
G04 #@! TO.N,PIN19*
X52100000Y18505000D03*
G04 #@! TO.P,P2,20,20*
G04 #@! TO.N,PIN20*
X49560000Y18505000D03*
G04 #@! TO.P,P2,21,21*
G04 #@! TO.N,PIN21*
X47020000Y18505000D03*
G04 #@! TO.P,P2,22,22*
G04 #@! TO.N,PIN22*
X44480000Y18505000D03*
G04 #@! TO.P,P2,23,23*
G04 #@! TO.N,PIN120*
X41940000Y18505000D03*
G04 #@! TO.P,P2,24,24*
X39400000Y18505000D03*
G04 #@! TO.P,P2,25,25*
G04 #@! TO.N,PIN25*
X85120000Y15965000D03*
G04 #@! TO.P,P2,26,26*
G04 #@! TO.N,PIN26*
X82580000Y15965000D03*
G04 #@! TO.P,P2,27,27*
G04 #@! TO.N,PIN27*
X80040000Y15965000D03*
G04 #@! TO.P,P2,28,28*
G04 #@! TO.N,PIN28*
X77500000Y15965000D03*
G04 #@! TO.P,P2,29,29*
G04 #@! TO.N,PIN29*
X74960000Y15965000D03*
G04 #@! TO.P,P2,30,30*
G04 #@! TO.N,PIN30*
X72420000Y15965000D03*
G04 #@! TO.P,P2,31,31*
G04 #@! TO.N,PIN31*
X69880000Y15965000D03*
G04 #@! TO.P,P2,32,32*
G04 #@! TO.N,PIN32*
X67340000Y15965000D03*
G04 #@! TO.P,P2,33,33*
G04 #@! TO.N,PIN33*
X64800000Y15965000D03*
G04 #@! TO.P,P2,34,34*
G04 #@! TO.N,PIN34*
X62260000Y15965000D03*
G04 #@! TO.P,P2,35,35*
G04 #@! TO.N,PIN35*
X59720000Y15965000D03*
G04 #@! TO.P,P2,36,36*
G04 #@! TO.N,PIN36*
X57180000Y15965000D03*
G04 #@! TO.P,P2,37,37*
G04 #@! TO.N,PIN37*
X54640000Y15965000D03*
G04 #@! TO.P,P2,38,38*
G04 #@! TO.N,PIN38*
X52100000Y15965000D03*
G04 #@! TO.P,P2,39,39*
G04 #@! TO.N,PIN39*
X49560000Y15965000D03*
G04 #@! TO.P,P2,40,40*
G04 #@! TO.N,PIN40*
X47020000Y15965000D03*
G04 #@! TO.P,P2,41,41*
G04 #@! TO.N,PIN41*
X44480000Y15965000D03*
G04 #@! TO.P,P2,42,42*
G04 #@! TO.N,PIN42*
X41940000Y15965000D03*
G04 #@! TO.P,P2,43,43*
G04 #@! TO.N,PIN43*
X39400000Y15965000D03*
G04 #@! TO.P,P2,44,44*
G04 #@! TO.N,PIN44*
X85120000Y9915000D03*
G04 #@! TO.P,P2,45,45*
G04 #@! TO.N,PIN45*
X82580000Y9915000D03*
G04 #@! TO.P,P2,46,46*
G04 #@! TO.N,PIN46*
X80040000Y9915000D03*
G04 #@! TO.P,P2,47,47*
G04 #@! TO.N,PIN47*
X77500000Y9915000D03*
G04 #@! TO.P,P2,48,48*
G04 #@! TO.N,PIN48*
X74960000Y9915000D03*
G04 #@! TO.P,P2,49,49*
G04 #@! TO.N,PIN49*
X72420000Y9915000D03*
G04 #@! TO.P,P2,50,50*
G04 #@! TO.N,PIN50*
X69880000Y9915000D03*
G04 #@! TO.P,P2,51,51*
G04 #@! TO.N,PIN51*
X67340000Y9915000D03*
G04 #@! TO.P,P2,52,52*
G04 #@! TO.N,PIN113*
X64800000Y9915000D03*
G04 #@! TO.P,P2,53,53*
X62260000Y9915000D03*
G04 #@! TO.P,P2,54,54*
X59720000Y9915000D03*
G04 #@! TO.P,P2,55,55*
X57180000Y9915000D03*
G04 #@! TO.P,P2,56,56*
X54640000Y9915000D03*
G04 #@! TO.P,P2,57,57*
X52100000Y9915000D03*
G04 #@! TO.P,P2,58,58*
X49560000Y9915000D03*
G04 #@! TO.P,P2,59,59*
X47020000Y9915000D03*
G04 #@! TO.P,P2,60,60*
X44480000Y9915000D03*
G04 #@! TO.P,P2,61,61*
X41940000Y9915000D03*
G04 #@! TO.P,P2,62,62*
X39400000Y9915000D03*
G04 #@! TO.P,P2,63,63*
G04 #@! TO.N,PIN63*
X85120000Y7375000D03*
G04 #@! TO.P,P2,64,64*
G04 #@! TO.N,PIN113*
X82580000Y7375000D03*
G04 #@! TO.P,P2,65,65*
G04 #@! TO.N,PIN65*
X80040000Y7375000D03*
G04 #@! TO.P,P2,66,66*
G04 #@! TO.N,PIN113*
X77500000Y7375000D03*
G04 #@! TO.P,P2,67,67*
G04 #@! TO.N,PIN67*
X74960000Y7375000D03*
G04 #@! TO.P,P2,68,68*
G04 #@! TO.N,PIN113*
X72420000Y7375000D03*
G04 #@! TO.P,P2,69,69*
G04 #@! TO.N,PIN69*
X69880000Y7375000D03*
G04 #@! TO.P,P2,70,70*
G04 #@! TO.N,PIN70*
X67340000Y7375000D03*
G04 #@! TO.P,P2,71,71*
G04 #@! TO.N,PIN106*
X64800000Y7375000D03*
G04 #@! TO.P,P2,72,72*
X62260000Y7375000D03*
G04 #@! TO.P,P2,73,73*
X59720000Y7375000D03*
G04 #@! TO.P,P2,74,74*
X57180000Y7375000D03*
G04 #@! TO.P,P2,75,75*
X54640000Y7375000D03*
G04 #@! TO.P,P2,76,76*
X52100000Y7375000D03*
G04 #@! TO.P,P2,77,77*
X49560000Y7375000D03*
G04 #@! TO.P,P2,78,78*
X47020000Y7375000D03*
G04 #@! TO.P,P2,79,79*
X44480000Y7375000D03*
G04 #@! TO.P,P2,80,80*
X41940000Y7375000D03*
G04 #@! TO.P,P2,81,81*
G04 #@! TO.N,PIN81*
X39400000Y7375000D03*
G04 #@! TO.P,P2,82,82*
G04 #@! TO.N,PIN82*
X101090000Y7375000D03*
G04 #@! TO.P,P2,83,83*
G04 #@! TO.N,PIN83*
X103630000Y7375000D03*
G04 #@! TO.P,P2,84,84*
G04 #@! TO.N,PIN84*
X106170000Y7375000D03*
G04 #@! TO.P,P2,85,85*
G04 #@! TO.N,PIN85*
X108710000Y7375000D03*
G04 #@! TO.P,P2,86,86*
G04 #@! TO.N,PIN86*
X111250000Y7375000D03*
G04 #@! TO.P,P2,87,87*
G04 #@! TO.N,PIN87*
X113790000Y7375000D03*
G04 #@! TO.P,P2,88,88*
G04 #@! TO.N,PIN88*
X116330000Y7375000D03*
G04 #@! TO.P,P2,89,89*
G04 #@! TO.N,PIN89*
X118870000Y7375000D03*
G04 #@! TO.P,P2,90,90*
G04 #@! TO.N,PIN90*
X101090000Y9915000D03*
G04 #@! TO.P,P2,91,91*
G04 #@! TO.N,PIN91*
X103630000Y9915000D03*
G04 #@! TO.P,P2,92,92*
G04 #@! TO.N,PIN92*
X106170000Y9915000D03*
G04 #@! TO.P,P2,93,93*
G04 #@! TO.N,PIN93*
X108710000Y9915000D03*
G04 #@! TO.P,P2,94,94*
G04 #@! TO.N,PIN94*
X111250000Y9915000D03*
G04 #@! TO.P,P2,95,95*
G04 #@! TO.N,PIN95*
X113790000Y9915000D03*
G04 #@! TO.P,P2,96,96*
G04 #@! TO.N,PIN96*
X116330000Y9915000D03*
G04 #@! TO.P,P2,97,97*
G04 #@! TO.N,PIN97*
X118870000Y9915000D03*
G04 #@! TO.P,P2,98,98*
G04 #@! TO.N,PIN113*
X101090000Y15965000D03*
G04 #@! TO.P,P2,99,99*
X103630000Y15965000D03*
G04 #@! TO.P,P2,100,100*
G04 #@! TO.N,PIN100*
X106170000Y15965000D03*
G04 #@! TO.P,P2,101,101*
G04 #@! TO.N,PIN101*
X108710000Y15965000D03*
G04 #@! TO.P,P2,102,102*
G04 #@! TO.N,PIN102*
X111250000Y15965000D03*
G04 #@! TO.P,P2,103,103*
G04 #@! TO.N,PIN103*
X113790000Y15965000D03*
G04 #@! TO.P,P2,104,104*
G04 #@! TO.N,PIN104*
X116330000Y15965000D03*
G04 #@! TO.P,P2,105,105*
G04 #@! TO.N,PIN105*
X118870000Y15965000D03*
G04 #@! TO.P,P2,106,106*
G04 #@! TO.N,PIN106*
X101090000Y18505000D03*
G04 #@! TO.P,P2,107,107*
X103630000Y18505000D03*
G04 #@! TO.P,P2,108,108*
G04 #@! TO.N,PIN108*
X106170000Y18505000D03*
G04 #@! TO.P,P2,109,109*
G04 #@! TO.N,PIN109*
X108710000Y18505000D03*
G04 #@! TO.P,P2,110,110*
G04 #@! TO.N,PIN110*
X111250000Y18505000D03*
G04 #@! TO.P,P2,111,111*
G04 #@! TO.N,PIN111*
X113790000Y18505000D03*
G04 #@! TO.P,P2,112,112*
G04 #@! TO.N,PIN112*
X116330000Y18505000D03*
G04 #@! TO.P,P2,113,113*
G04 #@! TO.N,PIN113*
X118870000Y18505000D03*
D12*
G04 #@! TO.P,P2,114*
G04 #@! TO.N,N/C*
X126700000Y10375000D03*
G04 #@! TO.P,P2,115*
X132500000Y10375000D03*
G04 #@! TO.P,P2,116*
X138400000Y10375000D03*
G04 #@! TO.P,P2,117*
X129600000Y12705000D03*
G04 #@! TO.P,P2,118*
X135500000Y12705000D03*
G04 #@! TO.P,P2,119*
X126700000Y18505000D03*
G04 #@! TO.P,P2,120*
X132500000Y18505000D03*
G04 #@! TO.P,P2,121*
X138400000Y18505000D03*
G04 #@! TD*
D52*
G04 #@! TO.P,M7,V1,V5*
G04 #@! TO.N,+5VA*
X119937506Y98143343D03*
G04 #@! TO.P,M7,V2,CAN_VIO*
G04 #@! TO.N,+3.3VA*
X120812508Y97618343D03*
G04 #@! TO.P,M7,V5,CAN_TX*
G04 #@! TO.N,E7INJ8CANTX*
X119637504Y96868345D03*
G04 #@! TO.P,M7,V6,CAN_RX*
G04 #@! TO.N,E6INJ7CANRX*
X119712507Y93318344D03*
G04 #@! TD*
D36*
G04 #@! TO.P,R4,1,1*
G04 #@! TO.N,Net-(M1-PG_5VP)*
X110575005Y92145006D03*
G04 #@! TO.P,R4,2,2*
G04 #@! TO.N,/PG_5VP*
X110575005Y95955006D03*
G04 #@! TD*
D14*
G04 #@! TO.P,M4,E1,NC*
G04 #@! TO.N,unconnected-(M4-NC-PadE1)*
X58275005Y58237505D03*
G04 #@! TO.P,M4,E2,NC*
G04 #@! TO.N,unconnected-(M4-NC-PadE2)*
X59475005Y58237505D03*
G04 #@! TO.P,M4,E3,OUT*
G04 #@! TO.N,/VR_MAX9924*
X57075005Y58237505D03*
G04 #@! TO.P,M4,E4,V5_IN*
G04 #@! TO.N,+5VA*
X55875005Y58237505D03*
D47*
G04 #@! TO.P,M4,G,GND*
G04 #@! TO.N,PIN114*
X58542505Y43587505D03*
D48*
X64592505Y43587505D03*
D49*
X55575005Y50600005D03*
D50*
X65025005Y51012505D03*
D51*
X62562505Y58437505D03*
D14*
G04 #@! TO.P,M4,W1,VR-*
G04 #@! TO.N,PIN20*
X62335005Y43812505D03*
G04 #@! TO.P,M4,W2,VR+*
G04 #@! TO.N,PIN19*
X63335005Y43812505D03*
G04 #@! TD*
G04 #@! TO.P,J21,1,Pin_1*
G04 #@! TO.N,/VBUS*
G04 #@! TA.AperFunction,ComponentPad*
G36*
G01*
X128925005Y105425005D02*
X128925005Y104075005D01*
G75*
G02*
X128675005Y103825005I-250000J0D01*
G01*
X127475005Y103825005D01*
G75*
G02*
X127225005Y104075005I0J250000D01*
G01*
X127225005Y105425005D01*
G75*
G02*
X127475005Y105675005I250000J0D01*
G01*
X128675005Y105675005D01*
G75*
G02*
X128925005Y105425005I0J-250000D01*
G01*
G37*
G04 #@! TD.AperFunction*
D53*
G04 #@! TO.P,J21,2,Pin_2*
G04 #@! TO.N,/USB-*
X125575005Y104750005D03*
G04 #@! TO.P,J21,3,Pin_3*
G04 #@! TO.N,/USB+*
X123075005Y104750005D03*
G04 #@! TO.P,J21,4,Pin_4*
G04 #@! TO.N,PIN114*
X120575005Y104750005D03*
G04 #@! TO.P,J21,5,Pin_5*
X118075005Y104750005D03*
G04 #@! TD*
D54*
G04 #@! TO.P,M8,G,GND*
G04 #@! TO.N,PIN114*
X44400005Y62775005D03*
D55*
X42300005Y62275005D03*
D56*
X52100005Y57875005D03*
X42300005Y55675005D03*
D57*
X52100005Y51075005D03*
D58*
X42300005Y49975005D03*
D59*
X47200005Y49175005D03*
D14*
G04 #@! TO.P,M8,N1,MOSI*
G04 #@! TO.N,N/C*
X51900005Y61775005D03*
D60*
G04 #@! TO.P,M8,N2,12V_IN*
G04 #@! TO.N,Net-(F3-Pad2)*
X51700005Y53775005D03*
G04 #@! TO.P,M8,S1,12V_IN*
X42700005Y60975005D03*
G04 #@! TO.P,M8,S2,OUT-*
G04 #@! TO.N,PIN2*
X42700005Y59775005D03*
G04 #@! TO.P,M8,S3,OUT+*
G04 #@! TO.N,PIN1*
X42700005Y51575005D03*
D14*
G04 #@! TO.P,M8,W1,DIS*
G04 #@! TO.N,DC1_DIS_W1*
X51900005Y62575005D03*
G04 #@! TO.P,M8,W2,PWM*
G04 #@! TO.N,/DC1_PWM*
X51100005Y62575005D03*
G04 #@! TO.P,M8,W3,SCLK*
G04 #@! TO.N,N/C*
X50300005Y62575005D03*
G04 #@! TO.P,M8,W4,DIR*
G04 #@! TO.N,/DC1_DIR*
X49500005Y62575005D03*
G04 #@! TO.P,M8,W5,3V3_IN*
G04 #@! TO.N,+3.3V*
X48700005Y62575005D03*
G04 #@! TO.P,M8,W6,MISO*
G04 #@! TO.N,N/C*
X47900005Y62575005D03*
G04 #@! TO.P,M8,W7,~CS*
X47100005Y62575005D03*
G04 #@! TD*
G04 #@! TO.P,M2,E1,V5A*
G04 #@! TO.N,+5VA*
X54050005Y46175004D03*
D61*
G04 #@! TO.P,M2,E2,GND*
G04 #@! TO.N,PIN114*
X45150005Y44200004D03*
D62*
X49700005Y46775004D03*
X49700005Y43675004D03*
D14*
X54050005Y45225004D03*
G04 #@! TO.P,M2,E3,OUT_KNOCK*
G04 #@! TO.N,/IN_KNOCK*
X54050005Y44275006D03*
G04 #@! TO.P,M2,W1,IN_KNOCK*
G04 #@! TO.N,PIN81*
X45350005Y45275004D03*
G04 #@! TO.P,M2,W2,VREF*
G04 #@! TO.N,/VREF1*
X45350005Y46175004D03*
G04 #@! TD*
G04 #@! TO.P,R14,1*
G04 #@! TO.N,/LS_HOT1*
G04 #@! TA.AperFunction,SMDPad,CuDef*
G36*
G01*
X108185005Y63750005D02*
X108965005Y63750005D01*
G75*
G02*
X109035005Y63680005I0J-70000D01*
G01*
X109035005Y63120005D01*
G75*
G02*
X108965005Y63050005I-70000J0D01*
G01*
X108185005Y63050005D01*
G75*
G02*
X108115005Y63120005I0J70000D01*
G01*
X108115005Y63680005D01*
G75*
G02*
X108185005Y63750005I70000J0D01*
G01*
G37*
G04 #@! TD.AperFunction*
G04 #@! TO.P,R14,2*
G04 #@! TO.N,Net-(U7-IN2)*
G04 #@! TA.AperFunction,SMDPad,CuDef*
G36*
G01*
X108185005Y62150005D02*
X108965005Y62150005D01*
G75*
G02*
X109035005Y62080005I0J-70000D01*
G01*
X109035005Y61520005D01*
G75*
G02*
X108965005Y61450005I-70000J0D01*
G01*
X108185005Y61450005D01*
G75*
G02*
X108115005Y61520005I0J70000D01*
G01*
X108115005Y62080005D01*
G75*
G02*
X108185005Y62150005I70000J0D01*
G01*
G37*
G04 #@! TD.AperFunction*
G04 #@! TD*
G04 #@! TO.P,R47,1*
G04 #@! TO.N,/INJ2*
G04 #@! TA.AperFunction,SMDPad,CuDef*
G36*
G01*
X102185005Y63750005D02*
X102965005Y63750005D01*
G75*
G02*
X103035005Y63680005I0J-70000D01*
G01*
X103035005Y63120005D01*
G75*
G02*
X102965005Y63050005I-70000J0D01*
G01*
X102185005Y63050005D01*
G75*
G02*
X102115005Y63120005I0J70000D01*
G01*
X102115005Y63680005D01*
G75*
G02*
X102185005Y63750005I70000J0D01*
G01*
G37*
G04 #@! TD.AperFunction*
G04 #@! TO.P,R47,2*
G04 #@! TO.N,Net-(U4-IN2)*
G04 #@! TA.AperFunction,SMDPad,CuDef*
G36*
G01*
X102185005Y62150005D02*
X102965005Y62150005D01*
G75*
G02*
X103035005Y62080005I0J-70000D01*
G01*
X103035005Y61520005D01*
G75*
G02*
X102965005Y61450005I-70000J0D01*
G01*
X102185005Y61450005D01*
G75*
G02*
X102115005Y61520005I0J70000D01*
G01*
X102115005Y62080005D01*
G75*
G02*
X102185005Y62150005I70000J0D01*
G01*
G37*
G04 #@! TD.AperFunction*
G04 #@! TD*
G04 #@! TO.P,R20,1*
G04 #@! TO.N,Net-(F5-Pad1)*
G04 #@! TA.AperFunction,SMDPad,CuDef*
G36*
G01*
X78150005Y51712505D02*
X81000005Y51712505D01*
G75*
G02*
X81250005Y51462505I0J-250000D01*
G01*
X81250005Y50737505D01*
G75*
G02*
X81000005Y50487505I-250000J0D01*
G01*
X78150005Y50487505D01*
G75*
G02*
X77900005Y50737505I0J250000D01*
G01*
X77900005Y51462505D01*
G75*
G02*
X78150005Y51712505I250000J0D01*
G01*
G37*
G04 #@! TD.AperFunction*
G04 #@! TO.P,R20,2*
G04 #@! TO.N,PIN13*
G04 #@! TA.AperFunction,SMDPad,CuDef*
G36*
G01*
X78150005Y45787505D02*
X81000005Y45787505D01*
G75*
G02*
X81250005Y45537505I0J-250000D01*
G01*
X81250005Y44812505D01*
G75*
G02*
X81000005Y44562505I-250000J0D01*
G01*
X78150005Y44562505D01*
G75*
G02*
X77900005Y44812505I0J250000D01*
G01*
X77900005Y45537505D01*
G75*
G02*
X78150005Y45787505I250000J0D01*
G01*
G37*
G04 #@! TD.AperFunction*
G04 #@! TD*
G04 #@! TO.P,R45,1*
G04 #@! TO.N,/LS2*
G04 #@! TA.AperFunction,SMDPad,CuDef*
G36*
G01*
X84185005Y63750005D02*
X84965005Y63750005D01*
G75*
G02*
X85035005Y63680005I0J-70000D01*
G01*
X85035005Y63120005D01*
G75*
G02*
X84965005Y63050005I-70000J0D01*
G01*
X84185005Y63050005D01*
G75*
G02*
X84115005Y63120005I0J70000D01*
G01*
X84115005Y63680005D01*
G75*
G02*
X84185005Y63750005I70000J0D01*
G01*
G37*
G04 #@! TD.AperFunction*
G04 #@! TO.P,R45,2*
G04 #@! TO.N,Net-(U3-IN2)*
G04 #@! TA.AperFunction,SMDPad,CuDef*
G36*
G01*
X84185005Y62150005D02*
X84965005Y62150005D01*
G75*
G02*
X85035005Y62080005I0J-70000D01*
G01*
X85035005Y61520005D01*
G75*
G02*
X84965005Y61450005I-70000J0D01*
G01*
X84185005Y61450005D01*
G75*
G02*
X84115005Y61520005I0J70000D01*
G01*
X84115005Y62080005D01*
G75*
G02*
X84185005Y62150005I70000J0D01*
G01*
G37*
G04 #@! TD.AperFunction*
G04 #@! TD*
G04 #@! TO.P,R21,1*
G04 #@! TO.N,Net-(F6-Pad1)*
G04 #@! TA.AperFunction,SMDPad,CuDef*
G36*
G01*
X86150005Y51637505D02*
X89000005Y51637505D01*
G75*
G02*
X89250005Y51387505I0J-250000D01*
G01*
X89250005Y50662505D01*
G75*
G02*
X89000005Y50412505I-250000J0D01*
G01*
X86150005Y50412505D01*
G75*
G02*
X85900005Y50662505I0J250000D01*
G01*
X85900005Y51387505D01*
G75*
G02*
X86150005Y51637505I250000J0D01*
G01*
G37*
G04 #@! TD.AperFunction*
G04 #@! TO.P,R21,2*
G04 #@! TO.N,PIN12*
G04 #@! TA.AperFunction,SMDPad,CuDef*
G36*
G01*
X86150005Y45712505D02*
X89000005Y45712505D01*
G75*
G02*
X89250005Y45462505I0J-250000D01*
G01*
X89250005Y44737505D01*
G75*
G02*
X89000005Y44487505I-250000J0D01*
G01*
X86150005Y44487505D01*
G75*
G02*
X85900005Y44737505I0J250000D01*
G01*
X85900005Y45462505D01*
G75*
G02*
X86150005Y45712505I250000J0D01*
G01*
G37*
G04 #@! TD.AperFunction*
G04 #@! TD*
G04 #@! TO.P,F9,1*
G04 #@! TO.N,Net-(F9-Pad1)*
G04 #@! TA.AperFunction,SMDPad,CuDef*
G36*
G01*
X110850005Y54843755D02*
X110850005Y55356255D01*
G75*
G02*
X111068755Y55575005I218750J0D01*
G01*
X111506255Y55575005D01*
G75*
G02*
X111725005Y55356255I0J-218750D01*
G01*
X111725005Y54843755D01*
G75*
G02*
X111506255Y54625005I-218750J0D01*
G01*
X111068755Y54625005D01*
G75*
G02*
X110850005Y54843755I0J218750D01*
G01*
G37*
G04 #@! TD.AperFunction*
G04 #@! TO.P,F9,2*
G04 #@! TO.N,/IGN5*
G04 #@! TA.AperFunction,SMDPad,CuDef*
G36*
G01*
X112425005Y54843755D02*
X112425005Y55356255D01*
G75*
G02*
X112643755Y55575005I218750J0D01*
G01*
X113081255Y55575005D01*
G75*
G02*
X113300005Y55356255I0J-218750D01*
G01*
X113300005Y54843755D01*
G75*
G02*
X113081255Y54625005I-218750J0D01*
G01*
X112643755Y54625005D01*
G75*
G02*
X112425005Y54843755I0J218750D01*
G01*
G37*
G04 #@! TD.AperFunction*
G04 #@! TD*
G04 #@! TO.P,R38,1*
G04 #@! TO.N,/LS2*
G04 #@! TA.AperFunction,SMDPad,CuDef*
G36*
G01*
X82685005Y63750005D02*
X83465005Y63750005D01*
G75*
G02*
X83535005Y63680005I0J-70000D01*
G01*
X83535005Y63120005D01*
G75*
G02*
X83465005Y63050005I-70000J0D01*
G01*
X82685005Y63050005D01*
G75*
G02*
X82615005Y63120005I0J70000D01*
G01*
X82615005Y63680005D01*
G75*
G02*
X82685005Y63750005I70000J0D01*
G01*
G37*
G04 #@! TD.AperFunction*
G04 #@! TO.P,R38,2*
G04 #@! TO.N,PIN114*
G04 #@! TA.AperFunction,SMDPad,CuDef*
G36*
G01*
X82685005Y62150005D02*
X83465005Y62150005D01*
G75*
G02*
X83535005Y62080005I0J-70000D01*
G01*
X83535005Y61520005D01*
G75*
G02*
X83465005Y61450005I-70000J0D01*
G01*
X82685005Y61450005D01*
G75*
G02*
X82615005Y61520005I0J70000D01*
G01*
X82615005Y62080005D01*
G75*
G02*
X82685005Y62150005I70000J0D01*
G01*
G37*
G04 #@! TD.AperFunction*
G04 #@! TD*
G04 #@! TO.P,D2,1,K*
G04 #@! TO.N,PIN117*
G04 #@! TA.AperFunction,SMDPad,CuDef*
G36*
G01*
X85065005Y60550005D02*
X86085005Y60550005D01*
G75*
G02*
X86175005Y60460005I0J-90000D01*
G01*
X86175005Y59740005D01*
G75*
G02*
X86085005Y59650005I-90000J0D01*
G01*
X85065005Y59650005D01*
G75*
G02*
X84975005Y59740005I0J90000D01*
G01*
X84975005Y60460005D01*
G75*
G02*
X85065005Y60550005I90000J0D01*
G01*
G37*
G04 #@! TD.AperFunction*
G04 #@! TO.P,D2,2,A*
G04 #@! TO.N,PIN15*
G04 #@! TA.AperFunction,SMDPad,CuDef*
G36*
G01*
X85065005Y57250005D02*
X86085005Y57250005D01*
G75*
G02*
X86175005Y57160005I0J-90000D01*
G01*
X86175005Y56440005D01*
G75*
G02*
X86085005Y56350005I-90000J0D01*
G01*
X85065005Y56350005D01*
G75*
G02*
X84975005Y56440005I0J90000D01*
G01*
X84975005Y57160005D01*
G75*
G02*
X85065005Y57250005I90000J0D01*
G01*
G37*
G04 #@! TD.AperFunction*
G04 #@! TD*
G04 #@! TO.P,R41,1*
G04 #@! TO.N,E7INJ8CANTX*
G04 #@! TA.AperFunction,SMDPad,CuDef*
G36*
G01*
X137185005Y96250005D02*
X137965005Y96250005D01*
G75*
G02*
X138035005Y96180005I0J-70000D01*
G01*
X138035005Y95620005D01*
G75*
G02*
X137965005Y95550005I-70000J0D01*
G01*
X137185005Y95550005D01*
G75*
G02*
X137115005Y95620005I0J70000D01*
G01*
X137115005Y96180005D01*
G75*
G02*
X137185005Y96250005I70000J0D01*
G01*
G37*
G04 #@! TD.AperFunction*
G04 #@! TO.P,R41,2*
G04 #@! TO.N,PIN114*
G04 #@! TA.AperFunction,SMDPad,CuDef*
G36*
G01*
X137185005Y94650005D02*
X137965005Y94650005D01*
G75*
G02*
X138035005Y94580005I0J-70000D01*
G01*
X138035005Y94020005D01*
G75*
G02*
X137965005Y93950005I-70000J0D01*
G01*
X137185005Y93950005D01*
G75*
G02*
X137115005Y94020005I0J70000D01*
G01*
X137115005Y94580005D01*
G75*
G02*
X137185005Y94650005I70000J0D01*
G01*
G37*
G04 #@! TD.AperFunction*
G04 #@! TD*
G04 #@! TO.P,R34,1*
G04 #@! TO.N,/INJ6*
G04 #@! TA.AperFunction,SMDPad,CuDef*
G36*
G01*
X88685005Y63750005D02*
X89465005Y63750005D01*
G75*
G02*
X89535005Y63680005I0J-70000D01*
G01*
X89535005Y63120005D01*
G75*
G02*
X89465005Y63050005I-70000J0D01*
G01*
X88685005Y63050005D01*
G75*
G02*
X88615005Y63120005I0J70000D01*
G01*
X88615005Y63680005D01*
G75*
G02*
X88685005Y63750005I70000J0D01*
G01*
G37*
G04 #@! TD.AperFunction*
G04 #@! TO.P,R34,2*
G04 #@! TO.N,PIN114*
G04 #@! TA.AperFunction,SMDPad,CuDef*
G36*
G01*
X88685005Y62150005D02*
X89465005Y62150005D01*
G75*
G02*
X89535005Y62080005I0J-70000D01*
G01*
X89535005Y61520005D01*
G75*
G02*
X89465005Y61450005I-70000J0D01*
G01*
X88685005Y61450005D01*
G75*
G02*
X88615005Y61520005I0J70000D01*
G01*
X88615005Y62080005D01*
G75*
G02*
X88685005Y62150005I70000J0D01*
G01*
G37*
G04 #@! TD.AperFunction*
G04 #@! TD*
G04 #@! TO.P,R53,1*
G04 #@! TO.N,E7INJ8CANTX*
G04 #@! TA.AperFunction,SMDPad,CuDef*
G36*
G01*
X138685005Y96250005D02*
X139465005Y96250005D01*
G75*
G02*
X139535005Y96180005I0J-70000D01*
G01*
X139535005Y95620005D01*
G75*
G02*
X139465005Y95550005I-70000J0D01*
G01*
X138685005Y95550005D01*
G75*
G02*
X138615005Y95620005I0J70000D01*
G01*
X138615005Y96180005D01*
G75*
G02*
X138685005Y96250005I70000J0D01*
G01*
G37*
G04 #@! TD.AperFunction*
G04 #@! TO.P,R53,2*
G04 #@! TO.N,N/C*
G04 #@! TA.AperFunction,SMDPad,CuDef*
G36*
G01*
X138685005Y94650005D02*
X139465005Y94650005D01*
G75*
G02*
X139535005Y94580005I0J-70000D01*
G01*
X139535005Y94020005D01*
G75*
G02*
X139465005Y93950005I-70000J0D01*
G01*
X138685005Y93950005D01*
G75*
G02*
X138615005Y94020005I0J70000D01*
G01*
X138615005Y94580005D01*
G75*
G02*
X138685005Y94650005I70000J0D01*
G01*
G37*
G04 #@! TD.AperFunction*
G04 #@! TD*
G04 #@! TO.P,R37,1*
G04 #@! TO.N,/LS3*
G04 #@! TA.AperFunction,SMDPad,CuDef*
G36*
G01*
X79685005Y63750005D02*
X80465005Y63750005D01*
G75*
G02*
X80535005Y63680005I0J-70000D01*
G01*
X80535005Y63120005D01*
G75*
G02*
X80465005Y63050005I-70000J0D01*
G01*
X79685005Y63050005D01*
G75*
G02*
X79615005Y63120005I0J70000D01*
G01*
X79615005Y63680005D01*
G75*
G02*
X79685005Y63750005I70000J0D01*
G01*
G37*
G04 #@! TD.AperFunction*
G04 #@! TO.P,R37,2*
G04 #@! TO.N,PIN114*
G04 #@! TA.AperFunction,SMDPad,CuDef*
G36*
G01*
X79685005Y62150005D02*
X80465005Y62150005D01*
G75*
G02*
X80535005Y62080005I0J-70000D01*
G01*
X80535005Y61520005D01*
G75*
G02*
X80465005Y61450005I-70000J0D01*
G01*
X79685005Y61450005D01*
G75*
G02*
X79615005Y61520005I0J70000D01*
G01*
X79615005Y62080005D01*
G75*
G02*
X79685005Y62150005I70000J0D01*
G01*
G37*
G04 #@! TD.AperFunction*
G04 #@! TD*
G04 #@! TO.P,D4,1,K*
G04 #@! TO.N,PIN117*
G04 #@! TA.AperFunction,SMDPad,CuDef*
G36*
G01*
X77065005Y60700005D02*
X78085005Y60700005D01*
G75*
G02*
X78175005Y60610005I0J-90000D01*
G01*
X78175005Y59890005D01*
G75*
G02*
X78085005Y59800005I-90000J0D01*
G01*
X77065005Y59800005D01*
G75*
G02*
X76975005Y59890005I0J90000D01*
G01*
X76975005Y60610005D01*
G75*
G02*
X77065005Y60700005I90000J0D01*
G01*
G37*
G04 #@! TD.AperFunction*
G04 #@! TO.P,D4,2,A*
G04 #@! TO.N,PIN88*
G04 #@! TA.AperFunction,SMDPad,CuDef*
G36*
G01*
X77065005Y57400005D02*
X78085005Y57400005D01*
G75*
G02*
X78175005Y57310005I0J-90000D01*
G01*
X78175005Y56590005D01*
G75*
G02*
X78085005Y56500005I-90000J0D01*
G01*
X77065005Y56500005D01*
G75*
G02*
X76975005Y56590005I0J90000D01*
G01*
X76975005Y57310005D01*
G75*
G02*
X77065005Y57400005I90000J0D01*
G01*
G37*
G04 #@! TD.AperFunction*
G04 #@! TD*
G04 #@! TO.P,R32,1*
G04 #@! TO.N,/INJ2*
G04 #@! TA.AperFunction,SMDPad,CuDef*
G36*
G01*
X100685005Y63750005D02*
X101465005Y63750005D01*
G75*
G02*
X101535005Y63680005I0J-70000D01*
G01*
X101535005Y63120005D01*
G75*
G02*
X101465005Y63050005I-70000J0D01*
G01*
X100685005Y63050005D01*
G75*
G02*
X100615005Y63120005I0J70000D01*
G01*
X100615005Y63680005D01*
G75*
G02*
X100685005Y63750005I70000J0D01*
G01*
G37*
G04 #@! TD.AperFunction*
G04 #@! TO.P,R32,2*
G04 #@! TO.N,PIN114*
G04 #@! TA.AperFunction,SMDPad,CuDef*
G36*
G01*
X100685005Y62150005D02*
X101465005Y62150005D01*
G75*
G02*
X101535005Y62080005I0J-70000D01*
G01*
X101535005Y61520005D01*
G75*
G02*
X101465005Y61450005I-70000J0D01*
G01*
X100685005Y61450005D01*
G75*
G02*
X100615005Y61520005I0J70000D01*
G01*
X100615005Y62080005D01*
G75*
G02*
X100685005Y62150005I70000J0D01*
G01*
G37*
G04 #@! TD.AperFunction*
G04 #@! TD*
G04 #@! TO.P,R39,1*
G04 #@! TO.N,/LS4*
G04 #@! TA.AperFunction,SMDPad,CuDef*
G36*
G01*
X76685005Y63750005D02*
X77465005Y63750005D01*
G75*
G02*
X77535005Y63680005I0J-70000D01*
G01*
X77535005Y63120005D01*
G75*
G02*
X77465005Y63050005I-70000J0D01*
G01*
X76685005Y63050005D01*
G75*
G02*
X76615005Y63120005I0J70000D01*
G01*
X76615005Y63680005D01*
G75*
G02*
X76685005Y63750005I70000J0D01*
G01*
G37*
G04 #@! TD.AperFunction*
G04 #@! TO.P,R39,2*
G04 #@! TO.N,PIN114*
G04 #@! TA.AperFunction,SMDPad,CuDef*
G36*
G01*
X76685005Y62150005D02*
X77465005Y62150005D01*
G75*
G02*
X77535005Y62080005I0J-70000D01*
G01*
X77535005Y61520005D01*
G75*
G02*
X77465005Y61450005I-70000J0D01*
G01*
X76685005Y61450005D01*
G75*
G02*
X76615005Y61520005I0J70000D01*
G01*
X76615005Y62080005D01*
G75*
G02*
X76685005Y62150005I70000J0D01*
G01*
G37*
G04 #@! TD.AperFunction*
G04 #@! TD*
G04 #@! TO.P,R28,1*
G04 #@! TO.N,N/C*
G04 #@! TA.AperFunction,SMDPad,CuDef*
G36*
G01*
X118845005Y51675005D02*
X121695005Y51675005D01*
G75*
G02*
X121945005Y51425005I0J-250000D01*
G01*
X121945005Y50700005D01*
G75*
G02*
X121695005Y50450005I-250000J0D01*
G01*
X118845005Y50450005D01*
G75*
G02*
X118595005Y50700005I0J250000D01*
G01*
X118595005Y51425005D01*
G75*
G02*
X118845005Y51675005I250000J0D01*
G01*
G37*
G04 #@! TD.AperFunction*
G04 #@! TO.P,R28,2*
G04 #@! TO.N,PIN8*
G04 #@! TA.AperFunction,SMDPad,CuDef*
G36*
G01*
X118845005Y45750005D02*
X121695005Y45750005D01*
G75*
G02*
X121945005Y45500005I0J-250000D01*
G01*
X121945005Y44775005D01*
G75*
G02*
X121695005Y44525005I-250000J0D01*
G01*
X118845005Y44525005D01*
G75*
G02*
X118595005Y44775005I0J250000D01*
G01*
X118595005Y45500005D01*
G75*
G02*
X118845005Y45750005I250000J0D01*
G01*
G37*
G04 #@! TD.AperFunction*
G04 #@! TD*
G04 #@! TO.P,F5,1*
G04 #@! TO.N,Net-(F5-Pad1)*
G04 #@! TA.AperFunction,SMDPad,CuDef*
G36*
G01*
X77850005Y54843755D02*
X77850005Y55356255D01*
G75*
G02*
X78068755Y55575005I218750J0D01*
G01*
X78506255Y55575005D01*
G75*
G02*
X78725005Y55356255I0J-218750D01*
G01*
X78725005Y54843755D01*
G75*
G02*
X78506255Y54625005I-218750J0D01*
G01*
X78068755Y54625005D01*
G75*
G02*
X77850005Y54843755I0J218750D01*
G01*
G37*
G04 #@! TD.AperFunction*
G04 #@! TO.P,F5,2*
G04 #@! TO.N,/IGN1*
G04 #@! TA.AperFunction,SMDPad,CuDef*
G36*
G01*
X79425005Y54843755D02*
X79425005Y55356255D01*
G75*
G02*
X79643755Y55575005I218750J0D01*
G01*
X80081255Y55575005D01*
G75*
G02*
X80300005Y55356255I0J-218750D01*
G01*
X80300005Y54843755D01*
G75*
G02*
X80081255Y54625005I-218750J0D01*
G01*
X79643755Y54625005D01*
G75*
G02*
X79425005Y54843755I0J218750D01*
G01*
G37*
G04 #@! TD.AperFunction*
G04 #@! TD*
G04 #@! TO.P,R26,1*
G04 #@! TO.N,Net-(F8-Pad1)*
G04 #@! TA.AperFunction,SMDPad,CuDef*
G36*
G01*
X102650005Y51675005D02*
X105500005Y51675005D01*
G75*
G02*
X105750005Y51425005I0J-250000D01*
G01*
X105750005Y50700005D01*
G75*
G02*
X105500005Y50450005I-250000J0D01*
G01*
X102650005Y50450005D01*
G75*
G02*
X102400005Y50700005I0J250000D01*
G01*
X102400005Y51425005D01*
G75*
G02*
X102650005Y51675005I250000J0D01*
G01*
G37*
G04 #@! TD.AperFunction*
G04 #@! TO.P,R26,2*
G04 #@! TO.N,PIN9*
G04 #@! TA.AperFunction,SMDPad,CuDef*
G36*
G01*
X102650005Y45750005D02*
X105500005Y45750005D01*
G75*
G02*
X105750005Y45500005I0J-250000D01*
G01*
X105750005Y44775005D01*
G75*
G02*
X105500005Y44525005I-250000J0D01*
G01*
X102650005Y44525005D01*
G75*
G02*
X102400005Y44775005I0J250000D01*
G01*
X102400005Y45500005D01*
G75*
G02*
X102650005Y45750005I250000J0D01*
G01*
G37*
G04 #@! TD.AperFunction*
G04 #@! TD*
G04 #@! TO.P,R24,1*
G04 #@! TO.N,Net-(Q5-G)*
G04 #@! TA.AperFunction,SMDPad,CuDef*
G36*
G01*
X113225005Y53490005D02*
X113225005Y52710005D01*
G75*
G02*
X113155005Y52640005I-70000J0D01*
G01*
X112595005Y52640005D01*
G75*
G02*
X112525005Y52710005I0J70000D01*
G01*
X112525005Y53490005D01*
G75*
G02*
X112595005Y53560005I70000J0D01*
G01*
X113155005Y53560005D01*
G75*
G02*
X113225005Y53490005I0J-70000D01*
G01*
G37*
G04 #@! TD.AperFunction*
G04 #@! TO.P,R24,2*
G04 #@! TO.N,Net-(F9-Pad1)*
G04 #@! TA.AperFunction,SMDPad,CuDef*
G36*
G01*
X111625005Y53490005D02*
X111625005Y52710005D01*
G75*
G02*
X111555005Y52640005I-70000J0D01*
G01*
X110995005Y52640005D01*
G75*
G02*
X110925005Y52710005I0J70000D01*
G01*
X110925005Y53490005D01*
G75*
G02*
X110995005Y53560005I70000J0D01*
G01*
X111555005Y53560005D01*
G75*
G02*
X111625005Y53490005I0J-70000D01*
G01*
G37*
G04 #@! TD.AperFunction*
G04 #@! TD*
G04 #@! TO.P,R40,1*
G04 #@! TO.N,E6INJ7CANRX*
G04 #@! TA.AperFunction,SMDPad,CuDef*
G36*
G01*
X140185005Y96250005D02*
X140965005Y96250005D01*
G75*
G02*
X141035005Y96180005I0J-70000D01*
G01*
X141035005Y95620005D01*
G75*
G02*
X140965005Y95550005I-70000J0D01*
G01*
X140185005Y95550005D01*
G75*
G02*
X140115005Y95620005I0J70000D01*
G01*
X140115005Y96180005D01*
G75*
G02*
X140185005Y96250005I70000J0D01*
G01*
G37*
G04 #@! TD.AperFunction*
G04 #@! TO.P,R40,2*
G04 #@! TO.N,PIN114*
G04 #@! TA.AperFunction,SMDPad,CuDef*
G36*
G01*
X140185005Y94650005D02*
X140965005Y94650005D01*
G75*
G02*
X141035005Y94580005I0J-70000D01*
G01*
X141035005Y94020005D01*
G75*
G02*
X140965005Y93950005I-70000J0D01*
G01*
X140185005Y93950005D01*
G75*
G02*
X140115005Y94020005I0J70000D01*
G01*
X140115005Y94580005D01*
G75*
G02*
X140185005Y94650005I70000J0D01*
G01*
G37*
G04 #@! TD.AperFunction*
G04 #@! TD*
G04 #@! TO.P,F8,1*
G04 #@! TO.N,Net-(F8-Pad1)*
G04 #@! TA.AperFunction,SMDPad,CuDef*
G36*
G01*
X102850005Y54843755D02*
X102850005Y55356255D01*
G75*
G02*
X103068755Y55575005I218750J0D01*
G01*
X103506255Y55575005D01*
G75*
G02*
X103725005Y55356255I0J-218750D01*
G01*
X103725005Y54843755D01*
G75*
G02*
X103506255Y54625005I-218750J0D01*
G01*
X103068755Y54625005D01*
G75*
G02*
X102850005Y54843755I0J218750D01*
G01*
G37*
G04 #@! TD.AperFunction*
G04 #@! TO.P,F8,2*
G04 #@! TO.N,/IGN4*
G04 #@! TA.AperFunction,SMDPad,CuDef*
G36*
G01*
X104425005Y54843755D02*
X104425005Y55356255D01*
G75*
G02*
X104643755Y55575005I218750J0D01*
G01*
X105081255Y55575005D01*
G75*
G02*
X105300005Y55356255I0J-218750D01*
G01*
X105300005Y54843755D01*
G75*
G02*
X105081255Y54625005I-218750J0D01*
G01*
X104643755Y54625005D01*
G75*
G02*
X104425005Y54843755I0J218750D01*
G01*
G37*
G04 #@! TD.AperFunction*
G04 #@! TD*
G04 #@! TO.P,R33,1*
G04 #@! TO.N,/INJ4*
G04 #@! TA.AperFunction,SMDPad,CuDef*
G36*
G01*
X94685005Y63750005D02*
X95465005Y63750005D01*
G75*
G02*
X95535005Y63680005I0J-70000D01*
G01*
X95535005Y63120005D01*
G75*
G02*
X95465005Y63050005I-70000J0D01*
G01*
X94685005Y63050005D01*
G75*
G02*
X94615005Y63120005I0J70000D01*
G01*
X94615005Y63680005D01*
G75*
G02*
X94685005Y63750005I70000J0D01*
G01*
G37*
G04 #@! TD.AperFunction*
G04 #@! TO.P,R33,2*
G04 #@! TO.N,PIN114*
G04 #@! TA.AperFunction,SMDPad,CuDef*
G36*
G01*
X94685005Y62150005D02*
X95465005Y62150005D01*
G75*
G02*
X95535005Y62080005I0J-70000D01*
G01*
X95535005Y61520005D01*
G75*
G02*
X95465005Y61450005I-70000J0D01*
G01*
X94685005Y61450005D01*
G75*
G02*
X94615005Y61520005I0J70000D01*
G01*
X94615005Y62080005D01*
G75*
G02*
X94685005Y62150005I70000J0D01*
G01*
G37*
G04 #@! TD.AperFunction*
G04 #@! TD*
G04 #@! TO.P,R16,1*
G04 #@! TO.N,/LS1*
G04 #@! TA.AperFunction,SMDPad,CuDef*
G36*
G01*
X85685005Y63750005D02*
X86465005Y63750005D01*
G75*
G02*
X86535005Y63680005I0J-70000D01*
G01*
X86535005Y63120005D01*
G75*
G02*
X86465005Y63050005I-70000J0D01*
G01*
X85685005Y63050005D01*
G75*
G02*
X85615005Y63120005I0J70000D01*
G01*
X85615005Y63680005D01*
G75*
G02*
X85685005Y63750005I70000J0D01*
G01*
G37*
G04 #@! TD.AperFunction*
G04 #@! TO.P,R16,2*
G04 #@! TO.N,PIN114*
G04 #@! TA.AperFunction,SMDPad,CuDef*
G36*
G01*
X85685005Y62150005D02*
X86465005Y62150005D01*
G75*
G02*
X86535005Y62080005I0J-70000D01*
G01*
X86535005Y61520005D01*
G75*
G02*
X86465005Y61450005I-70000J0D01*
G01*
X85685005Y61450005D01*
G75*
G02*
X85615005Y61520005I0J70000D01*
G01*
X85615005Y62080005D01*
G75*
G02*
X85685005Y62150005I70000J0D01*
G01*
G37*
G04 #@! TD.AperFunction*
G04 #@! TD*
G04 #@! TO.P,F6,1*
G04 #@! TO.N,Net-(F6-Pad1)*
G04 #@! TA.AperFunction,SMDPad,CuDef*
G36*
G01*
X86350005Y54843755D02*
X86350005Y55356255D01*
G75*
G02*
X86568755Y55575005I218750J0D01*
G01*
X87006255Y55575005D01*
G75*
G02*
X87225005Y55356255I0J-218750D01*
G01*
X87225005Y54843755D01*
G75*
G02*
X87006255Y54625005I-218750J0D01*
G01*
X86568755Y54625005D01*
G75*
G02*
X86350005Y54843755I0J218750D01*
G01*
G37*
G04 #@! TD.AperFunction*
G04 #@! TO.P,F6,2*
G04 #@! TO.N,/IGN2*
G04 #@! TA.AperFunction,SMDPad,CuDef*
G36*
G01*
X87925005Y54843755D02*
X87925005Y55356255D01*
G75*
G02*
X88143755Y55575005I218750J0D01*
G01*
X88581255Y55575005D01*
G75*
G02*
X88800005Y55356255I0J-218750D01*
G01*
X88800005Y54843755D01*
G75*
G02*
X88581255Y54625005I-218750J0D01*
G01*
X88143755Y54625005D01*
G75*
G02*
X87925005Y54843755I0J218750D01*
G01*
G37*
G04 #@! TD.AperFunction*
G04 #@! TD*
G04 #@! TO.P,R22,1*
G04 #@! TO.N,Net-(F7-Pad1)*
G04 #@! TA.AperFunction,SMDPad,CuDef*
G36*
G01*
X94150005Y51675005D02*
X97000005Y51675005D01*
G75*
G02*
X97250005Y51425005I0J-250000D01*
G01*
X97250005Y50700005D01*
G75*
G02*
X97000005Y50450005I-250000J0D01*
G01*
X94150005Y50450005D01*
G75*
G02*
X93900005Y50700005I0J250000D01*
G01*
X93900005Y51425005D01*
G75*
G02*
X94150005Y51675005I250000J0D01*
G01*
G37*
G04 #@! TD.AperFunction*
G04 #@! TO.P,R22,2*
G04 #@! TO.N,PIN10*
G04 #@! TA.AperFunction,SMDPad,CuDef*
G36*
G01*
X94150005Y45750005D02*
X97000005Y45750005D01*
G75*
G02*
X97250005Y45500005I0J-250000D01*
G01*
X97250005Y44775005D01*
G75*
G02*
X97000005Y44525005I-250000J0D01*
G01*
X94150005Y44525005D01*
G75*
G02*
X93900005Y44775005I0J250000D01*
G01*
X93900005Y45500005D01*
G75*
G02*
X94150005Y45750005I250000J0D01*
G01*
G37*
G04 #@! TD.AperFunction*
G04 #@! TD*
G04 #@! TO.P,F7,1*
G04 #@! TO.N,Net-(F7-Pad1)*
G04 #@! TA.AperFunction,SMDPad,CuDef*
G36*
G01*
X94350005Y54843755D02*
X94350005Y55356255D01*
G75*
G02*
X94568755Y55575005I218750J0D01*
G01*
X95006255Y55575005D01*
G75*
G02*
X95225005Y55356255I0J-218750D01*
G01*
X95225005Y54843755D01*
G75*
G02*
X95006255Y54625005I-218750J0D01*
G01*
X94568755Y54625005D01*
G75*
G02*
X94350005Y54843755I0J218750D01*
G01*
G37*
G04 #@! TD.AperFunction*
G04 #@! TO.P,F7,2*
G04 #@! TO.N,/IGN3*
G04 #@! TA.AperFunction,SMDPad,CuDef*
G36*
G01*
X95925005Y54843755D02*
X95925005Y55356255D01*
G75*
G02*
X96143755Y55575005I218750J0D01*
G01*
X96581255Y55575005D01*
G75*
G02*
X96800005Y55356255I0J-218750D01*
G01*
X96800005Y54843755D01*
G75*
G02*
X96581255Y54625005I-218750J0D01*
G01*
X96143755Y54625005D01*
G75*
G02*
X95925005Y54843755I0J218750D01*
G01*
G37*
G04 #@! TD.AperFunction*
G04 #@! TD*
G04 #@! TO.P,R52,1*
G04 #@! TO.N,E6INJ7CANRX*
G04 #@! TA.AperFunction,SMDPad,CuDef*
G36*
G01*
X141685005Y96250005D02*
X142465005Y96250005D01*
G75*
G02*
X142535005Y96180005I0J-70000D01*
G01*
X142535005Y95620005D01*
G75*
G02*
X142465005Y95550005I-70000J0D01*
G01*
X141685005Y95550005D01*
G75*
G02*
X141615005Y95620005I0J70000D01*
G01*
X141615005Y96180005D01*
G75*
G02*
X141685005Y96250005I70000J0D01*
G01*
G37*
G04 #@! TD.AperFunction*
G04 #@! TO.P,R52,2*
G04 #@! TO.N,N/C*
G04 #@! TA.AperFunction,SMDPad,CuDef*
G36*
G01*
X141685005Y94650005D02*
X142465005Y94650005D01*
G75*
G02*
X142535005Y94580005I0J-70000D01*
G01*
X142535005Y94020005D01*
G75*
G02*
X142465005Y93950005I-70000J0D01*
G01*
X141685005Y93950005D01*
G75*
G02*
X141615005Y94020005I0J70000D01*
G01*
X141615005Y94580005D01*
G75*
G02*
X141685005Y94650005I70000J0D01*
G01*
G37*
G04 #@! TD.AperFunction*
G04 #@! TD*
G04 #@! TO.P,R46,1*
G04 #@! TO.N,/INJ1*
G04 #@! TA.AperFunction,SMDPad,CuDef*
G36*
G01*
X105185005Y63750005D02*
X105965005Y63750005D01*
G75*
G02*
X106035005Y63680005I0J-70000D01*
G01*
X106035005Y63120005D01*
G75*
G02*
X105965005Y63050005I-70000J0D01*
G01*
X105185005Y63050005D01*
G75*
G02*
X105115005Y63120005I0J70000D01*
G01*
X105115005Y63680005D01*
G75*
G02*
X105185005Y63750005I70000J0D01*
G01*
G37*
G04 #@! TD.AperFunction*
G04 #@! TO.P,R46,2*
G04 #@! TO.N,Net-(U4-IN1)*
G04 #@! TA.AperFunction,SMDPad,CuDef*
G36*
G01*
X105185005Y62150005D02*
X105965005Y62150005D01*
G75*
G02*
X106035005Y62080005I0J-70000D01*
G01*
X106035005Y61520005D01*
G75*
G02*
X105965005Y61450005I-70000J0D01*
G01*
X105185005Y61450005D01*
G75*
G02*
X105115005Y61520005I0J70000D01*
G01*
X105115005Y62080005D01*
G75*
G02*
X105185005Y62150005I70000J0D01*
G01*
G37*
G04 #@! TD.AperFunction*
G04 #@! TD*
G04 #@! TO.P,R17,1*
G04 #@! TO.N,N/C*
G04 #@! TA.AperFunction,SMDPad,CuDef*
G36*
G01*
X80225005Y53490005D02*
X80225005Y52710005D01*
G75*
G02*
X80155005Y52640005I-70000J0D01*
G01*
X79595005Y52640005D01*
G75*
G02*
X79525005Y52710005I0J70000D01*
G01*
X79525005Y53490005D01*
G75*
G02*
X79595005Y53560005I70000J0D01*
G01*
X80155005Y53560005D01*
G75*
G02*
X80225005Y53490005I0J-70000D01*
G01*
G37*
G04 #@! TD.AperFunction*
G04 #@! TO.P,R17,2*
G04 #@! TO.N,Net-(F5-Pad1)*
G04 #@! TA.AperFunction,SMDPad,CuDef*
G36*
G01*
X78625005Y53490005D02*
X78625005Y52710005D01*
G75*
G02*
X78555005Y52640005I-70000J0D01*
G01*
X77995005Y52640005D01*
G75*
G02*
X77925005Y52710005I0J70000D01*
G01*
X77925005Y53490005D01*
G75*
G02*
X77995005Y53560005I70000J0D01*
G01*
X78555005Y53560005D01*
G75*
G02*
X78625005Y53490005I0J-70000D01*
G01*
G37*
G04 #@! TD.AperFunction*
G04 #@! TD*
G04 #@! TO.P,R42,1*
G04 #@! TO.N,/LS3*
G04 #@! TA.AperFunction,SMDPad,CuDef*
G36*
G01*
X81185005Y63750005D02*
X81965005Y63750005D01*
G75*
G02*
X82035005Y63680005I0J-70000D01*
G01*
X82035005Y63120005D01*
G75*
G02*
X81965005Y63050005I-70000J0D01*
G01*
X81185005Y63050005D01*
G75*
G02*
X81115005Y63120005I0J70000D01*
G01*
X81115005Y63680005D01*
G75*
G02*
X81185005Y63750005I70000J0D01*
G01*
G37*
G04 #@! TD.AperFunction*
G04 #@! TO.P,R42,2*
G04 #@! TO.N,N/C*
G04 #@! TA.AperFunction,SMDPad,CuDef*
G36*
G01*
X81185005Y62150005D02*
X81965005Y62150005D01*
G75*
G02*
X82035005Y62080005I0J-70000D01*
G01*
X82035005Y61520005D01*
G75*
G02*
X81965005Y61450005I-70000J0D01*
G01*
X81185005Y61450005D01*
G75*
G02*
X81115005Y61520005I0J70000D01*
G01*
X81115005Y62080005D01*
G75*
G02*
X81185005Y62150005I70000J0D01*
G01*
G37*
G04 #@! TD.AperFunction*
G04 #@! TD*
G04 #@! TO.P,D3,1,K*
G04 #@! TO.N,PIN117*
G04 #@! TA.AperFunction,SMDPad,CuDef*
G36*
G01*
X79565005Y60550005D02*
X80585005Y60550005D01*
G75*
G02*
X80675005Y60460005I0J-90000D01*
G01*
X80675005Y59740005D01*
G75*
G02*
X80585005Y59650005I-90000J0D01*
G01*
X79565005Y59650005D01*
G75*
G02*
X79475005Y59740005I0J90000D01*
G01*
X79475005Y60460005D01*
G75*
G02*
X79565005Y60550005I90000J0D01*
G01*
G37*
G04 #@! TD.AperFunction*
G04 #@! TO.P,D3,2,A*
G04 #@! TO.N,PIN16*
G04 #@! TA.AperFunction,SMDPad,CuDef*
G36*
G01*
X79565005Y57250005D02*
X80585005Y57250005D01*
G75*
G02*
X80675005Y57160005I0J-90000D01*
G01*
X80675005Y56440005D01*
G75*
G02*
X80585005Y56350005I-90000J0D01*
G01*
X79565005Y56350005D01*
G75*
G02*
X79475005Y56440005I0J90000D01*
G01*
X79475005Y57160005D01*
G75*
G02*
X79565005Y57250005I90000J0D01*
G01*
G37*
G04 #@! TD.AperFunction*
G04 #@! TD*
G04 #@! TO.P,R30,1*
G04 #@! TO.N,/INJ3*
G04 #@! TA.AperFunction,SMDPad,CuDef*
G36*
G01*
X97685005Y63750005D02*
X98465005Y63750005D01*
G75*
G02*
X98535005Y63680005I0J-70000D01*
G01*
X98535005Y63120005D01*
G75*
G02*
X98465005Y63050005I-70000J0D01*
G01*
X97685005Y63050005D01*
G75*
G02*
X97615005Y63120005I0J70000D01*
G01*
X97615005Y63680005D01*
G75*
G02*
X97685005Y63750005I70000J0D01*
G01*
G37*
G04 #@! TD.AperFunction*
G04 #@! TO.P,R30,2*
G04 #@! TO.N,PIN114*
G04 #@! TA.AperFunction,SMDPad,CuDef*
G36*
G01*
X97685005Y62150005D02*
X98465005Y62150005D01*
G75*
G02*
X98535005Y62080005I0J-70000D01*
G01*
X98535005Y61520005D01*
G75*
G02*
X98465005Y61450005I-70000J0D01*
G01*
X97685005Y61450005D01*
G75*
G02*
X97615005Y61520005I0J70000D01*
G01*
X97615005Y62080005D01*
G75*
G02*
X97685005Y62150005I70000J0D01*
G01*
G37*
G04 #@! TD.AperFunction*
G04 #@! TD*
G04 #@! TO.P,R51,1*
G04 #@! TO.N,/INJ6*
G04 #@! TA.AperFunction,SMDPad,CuDef*
G36*
G01*
X90185005Y63750005D02*
X90965005Y63750005D01*
G75*
G02*
X91035005Y63680005I0J-70000D01*
G01*
X91035005Y63120005D01*
G75*
G02*
X90965005Y63050005I-70000J0D01*
G01*
X90185005Y63050005D01*
G75*
G02*
X90115005Y63120005I0J70000D01*
G01*
X90115005Y63680005D01*
G75*
G02*
X90185005Y63750005I70000J0D01*
G01*
G37*
G04 #@! TD.AperFunction*
G04 #@! TO.P,R51,2*
G04 #@! TO.N,Net-(U6-IN2)*
G04 #@! TA.AperFunction,SMDPad,CuDef*
G36*
G01*
X90185005Y62150005D02*
X90965005Y62150005D01*
G75*
G02*
X91035005Y62080005I0J-70000D01*
G01*
X91035005Y61520005D01*
G75*
G02*
X90965005Y61450005I-70000J0D01*
G01*
X90185005Y61450005D01*
G75*
G02*
X90115005Y61520005I0J70000D01*
G01*
X90115005Y62080005D01*
G75*
G02*
X90185005Y62150005I70000J0D01*
G01*
G37*
G04 #@! TD.AperFunction*
G04 #@! TD*
G04 #@! TO.P,R18,1*
G04 #@! TO.N,Net-(Q2-G)*
G04 #@! TA.AperFunction,SMDPad,CuDef*
G36*
G01*
X88725005Y53490005D02*
X88725005Y52710005D01*
G75*
G02*
X88655005Y52640005I-70000J0D01*
G01*
X88095005Y52640005D01*
G75*
G02*
X88025005Y52710005I0J70000D01*
G01*
X88025005Y53490005D01*
G75*
G02*
X88095005Y53560005I70000J0D01*
G01*
X88655005Y53560005D01*
G75*
G02*
X88725005Y53490005I0J-70000D01*
G01*
G37*
G04 #@! TD.AperFunction*
G04 #@! TO.P,R18,2*
G04 #@! TO.N,Net-(F6-Pad1)*
G04 #@! TA.AperFunction,SMDPad,CuDef*
G36*
G01*
X87125005Y53490005D02*
X87125005Y52710005D01*
G75*
G02*
X87055005Y52640005I-70000J0D01*
G01*
X86495005Y52640005D01*
G75*
G02*
X86425005Y52710005I0J70000D01*
G01*
X86425005Y53490005D01*
G75*
G02*
X86495005Y53560005I70000J0D01*
G01*
X87055005Y53560005D01*
G75*
G02*
X87125005Y53490005I0J-70000D01*
G01*
G37*
G04 #@! TD.AperFunction*
G04 #@! TD*
G04 #@! TO.P,R49,1*
G04 #@! TO.N,/INJ4*
G04 #@! TA.AperFunction,SMDPad,CuDef*
G36*
G01*
X96185005Y63750005D02*
X96965005Y63750005D01*
G75*
G02*
X97035005Y63680005I0J-70000D01*
G01*
X97035005Y63120005D01*
G75*
G02*
X96965005Y63050005I-70000J0D01*
G01*
X96185005Y63050005D01*
G75*
G02*
X96115005Y63120005I0J70000D01*
G01*
X96115005Y63680005D01*
G75*
G02*
X96185005Y63750005I70000J0D01*
G01*
G37*
G04 #@! TD.AperFunction*
G04 #@! TO.P,R49,2*
G04 #@! TO.N,Net-(U5-IN2)*
G04 #@! TA.AperFunction,SMDPad,CuDef*
G36*
G01*
X96185005Y62150005D02*
X96965005Y62150005D01*
G75*
G02*
X97035005Y62080005I0J-70000D01*
G01*
X97035005Y61520005D01*
G75*
G02*
X96965005Y61450005I-70000J0D01*
G01*
X96185005Y61450005D01*
G75*
G02*
X96115005Y61520005I0J70000D01*
G01*
X96115005Y62080005D01*
G75*
G02*
X96185005Y62150005I70000J0D01*
G01*
G37*
G04 #@! TD.AperFunction*
G04 #@! TD*
G04 #@! TO.P,R36,1*
G04 #@! TO.N,/LS_HOT2*
G04 #@! TA.AperFunction,SMDPad,CuDef*
G36*
G01*
X109685005Y63750005D02*
X110465005Y63750005D01*
G75*
G02*
X110535005Y63680005I0J-70000D01*
G01*
X110535005Y63120005D01*
G75*
G02*
X110465005Y63050005I-70000J0D01*
G01*
X109685005Y63050005D01*
G75*
G02*
X109615005Y63120005I0J70000D01*
G01*
X109615005Y63680005D01*
G75*
G02*
X109685005Y63750005I70000J0D01*
G01*
G37*
G04 #@! TD.AperFunction*
G04 #@! TO.P,R36,2*
G04 #@! TO.N,PIN114*
G04 #@! TA.AperFunction,SMDPad,CuDef*
G36*
G01*
X109685005Y62150005D02*
X110465005Y62150005D01*
G75*
G02*
X110535005Y62080005I0J-70000D01*
G01*
X110535005Y61520005D01*
G75*
G02*
X110465005Y61450005I-70000J0D01*
G01*
X109685005Y61450005D01*
G75*
G02*
X109615005Y61520005I0J70000D01*
G01*
X109615005Y62080005D01*
G75*
G02*
X109685005Y62150005I70000J0D01*
G01*
G37*
G04 #@! TD.AperFunction*
G04 #@! TD*
G04 #@! TO.P,R13,1*
G04 #@! TO.N,/LS_HOT2*
G04 #@! TA.AperFunction,SMDPad,CuDef*
G36*
G01*
X111185005Y63750005D02*
X111965005Y63750005D01*
G75*
G02*
X112035005Y63680005I0J-70000D01*
G01*
X112035005Y63120005D01*
G75*
G02*
X111965005Y63050005I-70000J0D01*
G01*
X111185005Y63050005D01*
G75*
G02*
X111115005Y63120005I0J70000D01*
G01*
X111115005Y63680005D01*
G75*
G02*
X111185005Y63750005I70000J0D01*
G01*
G37*
G04 #@! TD.AperFunction*
G04 #@! TO.P,R13,2*
G04 #@! TO.N,Net-(U7-IN1)*
G04 #@! TA.AperFunction,SMDPad,CuDef*
G36*
G01*
X111185005Y62150005D02*
X111965005Y62150005D01*
G75*
G02*
X112035005Y62080005I0J-70000D01*
G01*
X112035005Y61520005D01*
G75*
G02*
X111965005Y61450005I-70000J0D01*
G01*
X111185005Y61450005D01*
G75*
G02*
X111115005Y61520005I0J70000D01*
G01*
X111115005Y62080005D01*
G75*
G02*
X111185005Y62150005I70000J0D01*
G01*
G37*
G04 #@! TD.AperFunction*
G04 #@! TD*
G04 #@! TO.P,R35,1*
G04 #@! TO.N,/LS_HOT1*
G04 #@! TA.AperFunction,SMDPad,CuDef*
G36*
G01*
X106685005Y63750005D02*
X107465005Y63750005D01*
G75*
G02*
X107535005Y63680005I0J-70000D01*
G01*
X107535005Y63120005D01*
G75*
G02*
X107465005Y63050005I-70000J0D01*
G01*
X106685005Y63050005D01*
G75*
G02*
X106615005Y63120005I0J70000D01*
G01*
X106615005Y63680005D01*
G75*
G02*
X106685005Y63750005I70000J0D01*
G01*
G37*
G04 #@! TD.AperFunction*
G04 #@! TO.P,R35,2*
G04 #@! TO.N,PIN114*
G04 #@! TA.AperFunction,SMDPad,CuDef*
G36*
G01*
X106685005Y62150005D02*
X107465005Y62150005D01*
G75*
G02*
X107535005Y62080005I0J-70000D01*
G01*
X107535005Y61520005D01*
G75*
G02*
X107465005Y61450005I-70000J0D01*
G01*
X106685005Y61450005D01*
G75*
G02*
X106615005Y61520005I0J70000D01*
G01*
X106615005Y62080005D01*
G75*
G02*
X106685005Y62150005I70000J0D01*
G01*
G37*
G04 #@! TD.AperFunction*
G04 #@! TD*
G04 #@! TO.P,R25,1*
G04 #@! TO.N,Net-(Q6-G)*
G04 #@! TA.AperFunction,SMDPad,CuDef*
G36*
G01*
X121225005Y53490005D02*
X121225005Y52710005D01*
G75*
G02*
X121155005Y52640005I-70000J0D01*
G01*
X120595005Y52640005D01*
G75*
G02*
X120525005Y52710005I0J70000D01*
G01*
X120525005Y53490005D01*
G75*
G02*
X120595005Y53560005I70000J0D01*
G01*
X121155005Y53560005D01*
G75*
G02*
X121225005Y53490005I0J-70000D01*
G01*
G37*
G04 #@! TD.AperFunction*
G04 #@! TO.P,R25,2*
G04 #@! TO.N,N/C*
G04 #@! TA.AperFunction,SMDPad,CuDef*
G36*
G01*
X119625005Y53490005D02*
X119625005Y52710005D01*
G75*
G02*
X119555005Y52640005I-70000J0D01*
G01*
X118995005Y52640005D01*
G75*
G02*
X118925005Y52710005I0J70000D01*
G01*
X118925005Y53490005D01*
G75*
G02*
X118995005Y53560005I70000J0D01*
G01*
X119555005Y53560005D01*
G75*
G02*
X119625005Y53490005I0J-70000D01*
G01*
G37*
G04 #@! TD.AperFunction*
G04 #@! TD*
G04 #@! TO.P,R2,1*
G04 #@! TO.N,/IN_VMAIN*
G04 #@! TA.AperFunction,SMDPad,CuDef*
G36*
G01*
X128725005Y45490005D02*
X128725005Y44710005D01*
G75*
G02*
X128655005Y44640005I-70000J0D01*
G01*
X128095005Y44640005D01*
G75*
G02*
X128025005Y44710005I0J70000D01*
G01*
X128025005Y45490005D01*
G75*
G02*
X128095005Y45560005I70000J0D01*
G01*
X128655005Y45560005D01*
G75*
G02*
X128725005Y45490005I0J-70000D01*
G01*
G37*
G04 #@! TD.AperFunction*
G04 #@! TO.P,R2,2*
G04 #@! TO.N,PIN120*
G04 #@! TA.AperFunction,SMDPad,CuDef*
G36*
G01*
X127125005Y45490005D02*
X127125005Y44710005D01*
G75*
G02*
X127055005Y44640005I-70000J0D01*
G01*
X126495005Y44640005D01*
G75*
G02*
X126425005Y44710005I0J70000D01*
G01*
X126425005Y45490005D01*
G75*
G02*
X126495005Y45560005I70000J0D01*
G01*
X127055005Y45560005D01*
G75*
G02*
X127125005Y45490005I0J-70000D01*
G01*
G37*
G04 #@! TD.AperFunction*
G04 #@! TD*
G04 #@! TO.P,F10,1*
G04 #@! TO.N,N/C*
G04 #@! TA.AperFunction,SMDPad,CuDef*
G36*
G01*
X118850005Y54843755D02*
X118850005Y55356255D01*
G75*
G02*
X119068755Y55575005I218750J0D01*
G01*
X119506255Y55575005D01*
G75*
G02*
X119725005Y55356255I0J-218750D01*
G01*
X119725005Y54843755D01*
G75*
G02*
X119506255Y54625005I-218750J0D01*
G01*
X119068755Y54625005D01*
G75*
G02*
X118850005Y54843755I0J218750D01*
G01*
G37*
G04 #@! TD.AperFunction*
G04 #@! TO.P,F10,2*
G04 #@! TO.N,/IGN6*
G04 #@! TA.AperFunction,SMDPad,CuDef*
G36*
G01*
X120425005Y54843755D02*
X120425005Y55356255D01*
G75*
G02*
X120643755Y55575005I218750J0D01*
G01*
X121081255Y55575005D01*
G75*
G02*
X121300005Y55356255I0J-218750D01*
G01*
X121300005Y54843755D01*
G75*
G02*
X121081255Y54625005I-218750J0D01*
G01*
X120643755Y54625005D01*
G75*
G02*
X120425005Y54843755I0J218750D01*
G01*
G37*
G04 #@! TD.AperFunction*
G04 #@! TD*
G04 #@! TO.P,R48,1*
G04 #@! TO.N,/INJ3*
G04 #@! TA.AperFunction,SMDPad,CuDef*
G36*
G01*
X99185005Y63750005D02*
X99965005Y63750005D01*
G75*
G02*
X100035005Y63680005I0J-70000D01*
G01*
X100035005Y63120005D01*
G75*
G02*
X99965005Y63050005I-70000J0D01*
G01*
X99185005Y63050005D01*
G75*
G02*
X99115005Y63120005I0J70000D01*
G01*
X99115005Y63680005D01*
G75*
G02*
X99185005Y63750005I70000J0D01*
G01*
G37*
G04 #@! TD.AperFunction*
G04 #@! TO.P,R48,2*
G04 #@! TO.N,Net-(U5-IN1)*
G04 #@! TA.AperFunction,SMDPad,CuDef*
G36*
G01*
X99185005Y62150005D02*
X99965005Y62150005D01*
G75*
G02*
X100035005Y62080005I0J-70000D01*
G01*
X100035005Y61520005D01*
G75*
G02*
X99965005Y61450005I-70000J0D01*
G01*
X99185005Y61450005D01*
G75*
G02*
X99115005Y61520005I0J70000D01*
G01*
X99115005Y62080005D01*
G75*
G02*
X99185005Y62150005I70000J0D01*
G01*
G37*
G04 #@! TD.AperFunction*
G04 #@! TD*
G04 #@! TO.P,R31,1*
G04 #@! TO.N,/INJ5*
G04 #@! TA.AperFunction,SMDPad,CuDef*
G36*
G01*
X91685005Y63750005D02*
X92465005Y63750005D01*
G75*
G02*
X92535005Y63680005I0J-70000D01*
G01*
X92535005Y63120005D01*
G75*
G02*
X92465005Y63050005I-70000J0D01*
G01*
X91685005Y63050005D01*
G75*
G02*
X91615005Y63120005I0J70000D01*
G01*
X91615005Y63680005D01*
G75*
G02*
X91685005Y63750005I70000J0D01*
G01*
G37*
G04 #@! TD.AperFunction*
G04 #@! TO.P,R31,2*
G04 #@! TO.N,PIN114*
G04 #@! TA.AperFunction,SMDPad,CuDef*
G36*
G01*
X91685005Y62150005D02*
X92465005Y62150005D01*
G75*
G02*
X92535005Y62080005I0J-70000D01*
G01*
X92535005Y61520005D01*
G75*
G02*
X92465005Y61450005I-70000J0D01*
G01*
X91685005Y61450005D01*
G75*
G02*
X91615005Y61520005I0J70000D01*
G01*
X91615005Y62080005D01*
G75*
G02*
X91685005Y62150005I70000J0D01*
G01*
G37*
G04 #@! TD.AperFunction*
G04 #@! TD*
G04 #@! TO.P,D1,1,K*
G04 #@! TO.N,PIN117*
G04 #@! TA.AperFunction,SMDPad,CuDef*
G36*
G01*
X87565005Y60550005D02*
X88585005Y60550005D01*
G75*
G02*
X88675005Y60460005I0J-90000D01*
G01*
X88675005Y59740005D01*
G75*
G02*
X88585005Y59650005I-90000J0D01*
G01*
X87565005Y59650005D01*
G75*
G02*
X87475005Y59740005I0J90000D01*
G01*
X87475005Y60460005D01*
G75*
G02*
X87565005Y60550005I90000J0D01*
G01*
G37*
G04 #@! TD.AperFunction*
G04 #@! TO.P,D1,2,A*
G04 #@! TO.N,PIN14*
G04 #@! TA.AperFunction,SMDPad,CuDef*
G36*
G01*
X87565005Y57250005D02*
X88585005Y57250005D01*
G75*
G02*
X88675005Y57160005I0J-90000D01*
G01*
X88675005Y56440005D01*
G75*
G02*
X88585005Y56350005I-90000J0D01*
G01*
X87565005Y56350005D01*
G75*
G02*
X87475005Y56440005I0J90000D01*
G01*
X87475005Y57160005D01*
G75*
G02*
X87565005Y57250005I90000J0D01*
G01*
G37*
G04 #@! TD.AperFunction*
G04 #@! TD*
G04 #@! TO.P,R3,1*
G04 #@! TO.N,PIN114*
G04 #@! TA.AperFunction,SMDPad,CuDef*
G36*
G01*
X126425005Y46210005D02*
X126425005Y46990005D01*
G75*
G02*
X126495005Y47060005I70000J0D01*
G01*
X127055005Y47060005D01*
G75*
G02*
X127125005Y46990005I0J-70000D01*
G01*
X127125005Y46210005D01*
G75*
G02*
X127055005Y46140005I-70000J0D01*
G01*
X126495005Y46140005D01*
G75*
G02*
X126425005Y46210005I0J70000D01*
G01*
G37*
G04 #@! TD.AperFunction*
G04 #@! TO.P,R3,2*
G04 #@! TO.N,/IN_VMAIN*
G04 #@! TA.AperFunction,SMDPad,CuDef*
G36*
G01*
X128025005Y46210005D02*
X128025005Y46990005D01*
G75*
G02*
X128095005Y47060005I70000J0D01*
G01*
X128655005Y47060005D01*
G75*
G02*
X128725005Y46990005I0J-70000D01*
G01*
X128725005Y46210005D01*
G75*
G02*
X128655005Y46140005I-70000J0D01*
G01*
X128095005Y46140005D01*
G75*
G02*
X128025005Y46210005I0J70000D01*
G01*
G37*
G04 #@! TD.AperFunction*
G04 #@! TD*
G04 #@! TO.P,R23,1*
G04 #@! TO.N,Net-(Q4-G)*
G04 #@! TA.AperFunction,SMDPad,CuDef*
G36*
G01*
X105225005Y53490005D02*
X105225005Y52710005D01*
G75*
G02*
X105155005Y52640005I-70000J0D01*
G01*
X104595005Y52640005D01*
G75*
G02*
X104525005Y52710005I0J70000D01*
G01*
X104525005Y53490005D01*
G75*
G02*
X104595005Y53560005I70000J0D01*
G01*
X105155005Y53560005D01*
G75*
G02*
X105225005Y53490005I0J-70000D01*
G01*
G37*
G04 #@! TD.AperFunction*
G04 #@! TO.P,R23,2*
G04 #@! TO.N,Net-(F8-Pad1)*
G04 #@! TA.AperFunction,SMDPad,CuDef*
G36*
G01*
X103625005Y53490005D02*
X103625005Y52710005D01*
G75*
G02*
X103555005Y52640005I-70000J0D01*
G01*
X102995005Y52640005D01*
G75*
G02*
X102925005Y52710005I0J70000D01*
G01*
X102925005Y53490005D01*
G75*
G02*
X102995005Y53560005I70000J0D01*
G01*
X103555005Y53560005D01*
G75*
G02*
X103625005Y53490005I0J-70000D01*
G01*
G37*
G04 #@! TD.AperFunction*
G04 #@! TD*
G04 #@! TO.P,R19,1*
G04 #@! TO.N,Net-(Q3-G)*
G04 #@! TA.AperFunction,SMDPad,CuDef*
G36*
G01*
X96725005Y53490005D02*
X96725005Y52710005D01*
G75*
G02*
X96655005Y52640005I-70000J0D01*
G01*
X96095005Y52640005D01*
G75*
G02*
X96025005Y52710005I0J70000D01*
G01*
X96025005Y53490005D01*
G75*
G02*
X96095005Y53560005I70000J0D01*
G01*
X96655005Y53560005D01*
G75*
G02*
X96725005Y53490005I0J-70000D01*
G01*
G37*
G04 #@! TD.AperFunction*
G04 #@! TO.P,R19,2*
G04 #@! TO.N,Net-(F7-Pad1)*
G04 #@! TA.AperFunction,SMDPad,CuDef*
G36*
G01*
X95125005Y53490005D02*
X95125005Y52710005D01*
G75*
G02*
X95055005Y52640005I-70000J0D01*
G01*
X94495005Y52640005D01*
G75*
G02*
X94425005Y52710005I0J70000D01*
G01*
X94425005Y53490005D01*
G75*
G02*
X94495005Y53560005I70000J0D01*
G01*
X95055005Y53560005D01*
G75*
G02*
X95125005Y53490005I0J-70000D01*
G01*
G37*
G04 #@! TD.AperFunction*
G04 #@! TD*
G04 #@! TO.P,R50,1*
G04 #@! TO.N,/INJ5*
G04 #@! TA.AperFunction,SMDPad,CuDef*
G36*
G01*
X93185005Y63750005D02*
X93965005Y63750005D01*
G75*
G02*
X94035005Y63680005I0J-70000D01*
G01*
X94035005Y63120005D01*
G75*
G02*
X93965005Y63050005I-70000J0D01*
G01*
X93185005Y63050005D01*
G75*
G02*
X93115005Y63120005I0J70000D01*
G01*
X93115005Y63680005D01*
G75*
G02*
X93185005Y63750005I70000J0D01*
G01*
G37*
G04 #@! TD.AperFunction*
G04 #@! TO.P,R50,2*
G04 #@! TO.N,Net-(U6-IN1)*
G04 #@! TA.AperFunction,SMDPad,CuDef*
G36*
G01*
X93185005Y62150005D02*
X93965005Y62150005D01*
G75*
G02*
X94035005Y62080005I0J-70000D01*
G01*
X94035005Y61520005D01*
G75*
G02*
X93965005Y61450005I-70000J0D01*
G01*
X93185005Y61450005D01*
G75*
G02*
X93115005Y61520005I0J70000D01*
G01*
X93115005Y62080005D01*
G75*
G02*
X93185005Y62150005I70000J0D01*
G01*
G37*
G04 #@! TD.AperFunction*
G04 #@! TD*
G04 #@! TO.P,R44,1*
G04 #@! TO.N,/LS1*
G04 #@! TA.AperFunction,SMDPad,CuDef*
G36*
G01*
X87185005Y63750005D02*
X87965005Y63750005D01*
G75*
G02*
X88035005Y63680005I0J-70000D01*
G01*
X88035005Y63120005D01*
G75*
G02*
X87965005Y63050005I-70000J0D01*
G01*
X87185005Y63050005D01*
G75*
G02*
X87115005Y63120005I0J70000D01*
G01*
X87115005Y63680005D01*
G75*
G02*
X87185005Y63750005I70000J0D01*
G01*
G37*
G04 #@! TD.AperFunction*
G04 #@! TO.P,R44,2*
G04 #@! TO.N,Net-(U3-IN1)*
G04 #@! TA.AperFunction,SMDPad,CuDef*
G36*
G01*
X87185005Y62150005D02*
X87965005Y62150005D01*
G75*
G02*
X88035005Y62080005I0J-70000D01*
G01*
X88035005Y61520005D01*
G75*
G02*
X87965005Y61450005I-70000J0D01*
G01*
X87185005Y61450005D01*
G75*
G02*
X87115005Y61520005I0J70000D01*
G01*
X87115005Y62080005D01*
G75*
G02*
X87185005Y62150005I70000J0D01*
G01*
G37*
G04 #@! TD.AperFunction*
G04 #@! TD*
G04 #@! TO.P,R27,1*
G04 #@! TO.N,Net-(F9-Pad1)*
G04 #@! TA.AperFunction,SMDPad,CuDef*
G36*
G01*
X110650005Y51675005D02*
X113500005Y51675005D01*
G75*
G02*
X113750005Y51425005I0J-250000D01*
G01*
X113750005Y50700005D01*
G75*
G02*
X113500005Y50450005I-250000J0D01*
G01*
X110650005Y50450005D01*
G75*
G02*
X110400005Y50700005I0J250000D01*
G01*
X110400005Y51425005D01*
G75*
G02*
X110650005Y51675005I250000J0D01*
G01*
G37*
G04 #@! TD.AperFunction*
G04 #@! TO.P,R27,2*
G04 #@! TO.N,PIN11*
G04 #@! TA.AperFunction,SMDPad,CuDef*
G36*
G01*
X110650005Y45750005D02*
X113500005Y45750005D01*
G75*
G02*
X113750005Y45500005I0J-250000D01*
G01*
X113750005Y44775005D01*
G75*
G02*
X113500005Y44525005I-250000J0D01*
G01*
X110650005Y44525005D01*
G75*
G02*
X110400005Y44775005I0J250000D01*
G01*
X110400005Y45500005D01*
G75*
G02*
X110650005Y45750005I250000J0D01*
G01*
G37*
G04 #@! TD.AperFunction*
G04 #@! TD*
G04 #@! TO.P,R29,1*
G04 #@! TO.N,/INJ1*
G04 #@! TA.AperFunction,SMDPad,CuDef*
G36*
G01*
X103685005Y63750005D02*
X104465005Y63750005D01*
G75*
G02*
X104535005Y63680005I0J-70000D01*
G01*
X104535005Y63120005D01*
G75*
G02*
X104465005Y63050005I-70000J0D01*
G01*
X103685005Y63050005D01*
G75*
G02*
X103615005Y63120005I0J70000D01*
G01*
X103615005Y63680005D01*
G75*
G02*
X103685005Y63750005I70000J0D01*
G01*
G37*
G04 #@! TD.AperFunction*
G04 #@! TO.P,R29,2*
G04 #@! TO.N,PIN114*
G04 #@! TA.AperFunction,SMDPad,CuDef*
G36*
G01*
X103685005Y62150005D02*
X104465005Y62150005D01*
G75*
G02*
X104535005Y62080005I0J-70000D01*
G01*
X104535005Y61520005D01*
G75*
G02*
X104465005Y61450005I-70000J0D01*
G01*
X103685005Y61450005D01*
G75*
G02*
X103615005Y61520005I0J70000D01*
G01*
X103615005Y62080005D01*
G75*
G02*
X103685005Y62150005I70000J0D01*
G01*
G37*
G04 #@! TD.AperFunction*
G04 #@! TD*
G04 #@! TO.P,R43,1*
G04 #@! TO.N,/LS4*
G04 #@! TA.AperFunction,SMDPad,CuDef*
G36*
G01*
X78185005Y63750005D02*
X78965005Y63750005D01*
G75*
G02*
X79035005Y63680005I0J-70000D01*
G01*
X79035005Y63120005D01*
G75*
G02*
X78965005Y63050005I-70000J0D01*
G01*
X78185005Y63050005D01*
G75*
G02*
X78115005Y63120005I0J70000D01*
G01*
X78115005Y63680005D01*
G75*
G02*
X78185005Y63750005I70000J0D01*
G01*
G37*
G04 #@! TD.AperFunction*
G04 #@! TO.P,R43,2*
G04 #@! TO.N,N/C*
G04 #@! TA.AperFunction,SMDPad,CuDef*
G36*
G01*
X78185005Y62150005D02*
X78965005Y62150005D01*
G75*
G02*
X79035005Y62080005I0J-70000D01*
G01*
X79035005Y61520005D01*
G75*
G02*
X78965005Y61450005I-70000J0D01*
G01*
X78185005Y61450005D01*
G75*
G02*
X78115005Y61520005I0J70000D01*
G01*
X78115005Y62080005D01*
G75*
G02*
X78185005Y62150005I70000J0D01*
G01*
G37*
G04 #@! TD.AperFunction*
G04 #@! TD*
D63*
G04 #@! TO.N,PIN114*
X2600000Y30750000D03*
X2600000Y21350000D03*
X2600000Y85725000D03*
X2600000Y72150000D03*
X2600000Y96600000D03*
X114400000Y114950000D03*
X2750000Y14525000D03*
X103875000Y115000000D03*
X160900000Y32225000D03*
X2600000Y40775000D03*
X160900000Y42250000D03*
X26825000Y114975000D03*
X70950000Y114975000D03*
X48875000Y114975000D03*
X148025000Y115000000D03*
X160900000Y87200000D03*
X125950000Y115000000D03*
X160900000Y52775000D03*
X160900000Y14850000D03*
X160900000Y98075000D03*
X160900000Y62675000D03*
X15950000Y114975000D03*
X60675000Y114975000D03*
X2600000Y51300000D03*
X160900000Y22825000D03*
X81825000Y115000000D03*
X136475000Y114950000D03*
X92450000Y115000000D03*
X2600000Y61200000D03*
X37450000Y114975000D03*
X160900000Y73625000D03*
G04 #@! TD*
G04 #@! TA.AperFunction,Conductor*
G04 #@! TO.N,PIN114*
G36*
X149662602Y117788998D02*
G01*
X149683576Y117772095D01*
X150912095Y116543576D01*
X150946121Y116481264D01*
X150949000Y116454481D01*
X150949000Y114091859D01*
X150949001Y114091845D01*
X150949001Y113851150D01*
X150985274Y113274615D01*
X150985274Y113274614D01*
X151057675Y112701507D01*
X151057677Y112701494D01*
X151165924Y112134046D01*
X151165925Y112134038D01*
X151309582Y111574535D01*
X151309589Y111574511D01*
X151488098Y111025120D01*
X151700754Y110488012D01*
X151700762Y110487994D01*
X151946713Y109965323D01*
X151946717Y109965315D01*
X152225015Y109459092D01*
X152225016Y109459091D01*
X152225024Y109459077D01*
X152534548Y108971346D01*
X152534556Y108971334D01*
X152874092Y108504004D01*
X152874101Y108503992D01*
X153132686Y108191415D01*
X153242328Y108058880D01*
X153637773Y107637774D01*
X153863823Y107425500D01*
X154058883Y107242327D01*
X154058890Y107242321D01*
X154058899Y107242313D01*
X154270276Y107067447D01*
X154503991Y106874101D01*
X154503994Y106874099D01*
X154503995Y106874098D01*
X154504002Y106874093D01*
X154959923Y106542847D01*
X154971342Y106534551D01*
X155459091Y106225016D01*
X155965314Y105946718D01*
X156488012Y105700754D01*
X157025123Y105488097D01*
X157276675Y105406363D01*
X157574510Y105309590D01*
X157574534Y105309583D01*
X158134037Y105165926D01*
X158134043Y105165926D01*
X158134056Y105165922D01*
X158701501Y105057676D01*
X159106005Y105006576D01*
X159274614Y104985275D01*
X159274618Y104985275D01*
X159274624Y104985274D01*
X159851149Y104949002D01*
X159851151Y104949001D01*
X159851161Y104949001D01*
X160102008Y104949001D01*
X162454482Y104949001D01*
X162522603Y104928999D01*
X162543577Y104912096D01*
X163772095Y103683578D01*
X163806121Y103621266D01*
X163809000Y103594483D01*
X163809000Y80467001D01*
X163788998Y80398880D01*
X163735342Y80352387D01*
X163683000Y80341001D01*
X161649996Y80341001D01*
X161649976Y80340999D01*
X161573277Y80340999D01*
X161322662Y80303225D01*
X161322660Y80303225D01*
X161322651Y80303223D01*
X161080484Y80228525D01*
X161080472Y80228520D01*
X160852128Y80118554D01*
X160852120Y80118550D01*
X160642729Y79975789D01*
X160642724Y79975785D01*
X160456935Y79803398D01*
X160298910Y79605242D01*
X160172191Y79385759D01*
X160172188Y79385751D01*
X160079597Y79149832D01*
X160079596Y79149830D01*
X160023199Y78902741D01*
X160004259Y78650000D01*
X160023199Y78397260D01*
X160079596Y78150171D01*
X160079597Y78150169D01*
X160172188Y77914250D01*
X160172191Y77914242D01*
X160298910Y77694759D01*
X160298912Y77694756D01*
X160298913Y77694755D01*
X160456934Y77496603D01*
X160642723Y77324216D01*
X160642729Y77324212D01*
X160852120Y77181451D01*
X160852124Y77181449D01*
X160852130Y77181445D01*
X161080476Y77071479D01*
X161080479Y77071479D01*
X161080484Y77071476D01*
X161322651Y76996778D01*
X161322653Y76996778D01*
X161322662Y76996775D01*
X161573277Y76959001D01*
X161662008Y76959001D01*
X163683000Y76959001D01*
X163751121Y76938999D01*
X163797614Y76885343D01*
X163809000Y76833001D01*
X163809000Y14195519D01*
X163788998Y14127398D01*
X163772095Y14106424D01*
X162543576Y12877905D01*
X162481264Y12843879D01*
X162454481Y12841000D01*
X157926908Y12841000D01*
X157858787Y12861002D01*
X157812294Y12914658D01*
X157800908Y12967141D01*
X157900000Y99375000D01*
X156916662Y99473334D01*
X156884345Y99480964D01*
X152721003Y101066999D01*
X152683059Y101089769D01*
X149810006Y103594482D01*
X148814119Y104462691D01*
X148790072Y104490884D01*
X148526815Y104912095D01*
X146812510Y107654984D01*
X146795583Y107698188D01*
X146723809Y108075000D01*
X146000000Y111875000D01*
X18200000Y111875000D01*
X17503383Y108093368D01*
X17491434Y108058405D01*
X15913057Y105000299D01*
X15877331Y104957772D01*
X10923728Y101193034D01*
X10870708Y101169508D01*
X6100000Y100275000D01*
X6050448Y12966928D01*
X6030407Y12898819D01*
X5976725Y12852357D01*
X5924448Y12841000D01*
X1545520Y12841000D01*
X1477399Y12861002D01*
X1456425Y12877905D01*
X227905Y14106425D01*
X193879Y14168737D01*
X191000Y14195520D01*
X191000Y76833000D01*
X211002Y76901121D01*
X264658Y76947614D01*
X317000Y76959000D01*
X2299978Y76959000D01*
X2426704Y76958986D01*
X2426704Y76958987D01*
X2426710Y76958986D01*
X2677347Y76996737D01*
X2919558Y77071425D01*
X3147930Y77181380D01*
X3357362Y77324147D01*
X3543175Y77496535D01*
X3701217Y77694694D01*
X3827957Y77914196D01*
X3920564Y78150136D01*
X3976969Y78397245D01*
X3995912Y78650000D01*
X3976969Y78902755D01*
X3920572Y79149830D01*
X3920564Y79149865D01*
X3920563Y79149867D01*
X3827955Y79385809D01*
X3740880Y79536613D01*
X3701217Y79605306D01*
X3544958Y79801230D01*
X3543179Y79803461D01*
X3543173Y79803468D01*
X3357361Y79975854D01*
X3147934Y80118618D01*
X2919559Y80228575D01*
X2677351Y80303262D01*
X2677349Y80303263D01*
X2677347Y80303263D01*
X2426810Y80340999D01*
X2426704Y80341015D01*
X2299978Y80341000D01*
X317000Y80341000D01*
X248879Y80361002D01*
X202386Y80414658D01*
X191000Y80467000D01*
X191000Y103594482D01*
X211002Y103662603D01*
X227905Y103683577D01*
X1456424Y104912095D01*
X1518736Y104946121D01*
X1545519Y104949000D01*
X4148849Y104949000D01*
X4148849Y104949001D01*
X4725376Y104985273D01*
X4725382Y104985274D01*
X4725385Y104985274D01*
X4725386Y104985274D01*
X4873137Y105003940D01*
X5298499Y105057675D01*
X5865944Y105165921D01*
X5865957Y105165925D01*
X5865962Y105165925D01*
X6380703Y105298090D01*
X6425473Y105309584D01*
X6425483Y105309588D01*
X6425489Y105309589D01*
X6549436Y105349862D01*
X6974877Y105488096D01*
X7511988Y105700753D01*
X8034686Y105946717D01*
X8540909Y106225015D01*
X9028658Y106534550D01*
X9496009Y106874100D01*
X9941118Y107242326D01*
X10362227Y107637773D01*
X10757674Y108058882D01*
X11125900Y108503991D01*
X11465450Y108971342D01*
X11774985Y109459091D01*
X12053283Y109965314D01*
X12299247Y110488012D01*
X12511904Y111025123D01*
X12614041Y111339470D01*
X12690411Y111574510D01*
X12690418Y111574534D01*
X12834075Y112134037D01*
X12834076Y112134045D01*
X12834076Y112134046D01*
X12834079Y112134056D01*
X12942325Y112701501D01*
X13014727Y113274624D01*
X13050999Y113851149D01*
X13051000Y113851150D01*
X13051000Y116454481D01*
X13071002Y116522602D01*
X13087905Y116543576D01*
X14316423Y117772095D01*
X14378735Y117806120D01*
X14405518Y117809000D01*
X149594481Y117809000D01*
X149662602Y117788998D01*
G37*
G04 #@! TD.AperFunction*
G04 #@! TD*
M02*
