G04 #@! TF.GenerationSoftware,KiCad,Pcbnew,8.0.8*
G04 #@! TF.CreationDate,2025-12-19T11:36:57-05:00*
G04 #@! TF.ProjectId,hellen121vag,68656c6c-656e-4313-9231-7661672e6b69,d*
G04 #@! TF.SameCoordinates,PX2b953a0PY6943058*
G04 #@! TF.FileFunction,Copper,L1,Top*
G04 #@! TF.FilePolarity,Positive*
%FSLAX46Y46*%
G04 Gerber Fmt 4.6, Leading zero omitted, Abs format (unit mm)*
G04 Created by KiCad (PCBNEW 8.0.8) date 2025-12-19 11:36:57*
%MOMM*%
%LPD*%
G01*
G04 APERTURE LIST*
G04 #@! TA.AperFunction,ComponentPad*
%ADD10C,3.700000*%
G04 #@! TD*
G04 #@! TA.AperFunction,ComponentPad*
%ADD11C,2.200000*%
G04 #@! TD*
G04 #@! TA.AperFunction,ComponentPad*
%ADD12C,2.600000*%
G04 #@! TD*
G04 #@! TA.AperFunction,ComponentPad*
%ADD13C,1.500000*%
G04 #@! TD*
G04 #@! TA.AperFunction,ComponentPad*
%ADD14C,0.600000*%
G04 #@! TD*
G04 #@! TA.AperFunction,SMDPad,CuDef*
%ADD15O,0.200000X3.300000*%
G04 #@! TD*
G04 #@! TA.AperFunction,SMDPad,CuDef*
%ADD16O,0.200000X10.200000*%
G04 #@! TD*
G04 #@! TA.AperFunction,SMDPad,CuDef*
%ADD17O,0.200000X0.300000*%
G04 #@! TD*
G04 #@! TA.AperFunction,SMDPad,CuDef*
%ADD18O,17.000000X0.200000*%
G04 #@! TD*
G04 #@! TA.AperFunction,SMDPad,CuDef*
%ADD19O,15.400000X0.200000*%
G04 #@! TD*
G04 #@! TA.AperFunction,SMDPad,CuDef*
%ADD20O,0.200000X4.800000*%
G04 #@! TD*
G04 #@! TA.AperFunction,SMDPad,CuDef*
%ADD21O,0.200000X2.600000*%
G04 #@! TD*
G04 #@! TA.AperFunction,SMDPad,CuDef*
%ADD22O,0.200000X1.000000*%
G04 #@! TD*
G04 #@! TA.AperFunction,SMDPad,CuDef*
%ADD23O,0.200000X1.500000*%
G04 #@! TD*
G04 #@! TA.AperFunction,SMDPad,CuDef*
%ADD24O,0.200000X1.225000*%
G04 #@! TD*
G04 #@! TA.AperFunction,SMDPad,CuDef*
%ADD25O,9.300000X0.200000*%
G04 #@! TD*
G04 #@! TA.AperFunction,SMDPad,CuDef*
%ADD26R,6.185000X0.250000*%
G04 #@! TD*
G04 #@! TA.AperFunction,SMDPad,CuDef*
%ADD27R,1.115000X0.250000*%
G04 #@! TD*
G04 #@! TA.AperFunction,SMDPad,CuDef*
%ADD28R,0.250000X14.275000*%
G04 #@! TD*
G04 #@! TA.AperFunction,SMDPad,CuDef*
%ADD29R,0.250000X15.100000*%
G04 #@! TD*
G04 #@! TA.AperFunction,SMDPad,CuDef*
%ADD30R,5.175000X0.250000*%
G04 #@! TD*
G04 #@! TA.AperFunction,ComponentPad*
%ADD31C,1.524000*%
G04 #@! TD*
G04 #@! TA.AperFunction,ComponentPad*
%ADD32O,1.700000X1.850000*%
G04 #@! TD*
G04 #@! TA.AperFunction,SMDPad,CuDef*
%ADD33R,0.200000X3.700000*%
G04 #@! TD*
G04 #@! TA.AperFunction,SMDPad,CuDef*
%ADD34R,0.200000X0.400000*%
G04 #@! TD*
G04 #@! TA.AperFunction,SMDPad,CuDef*
%ADD35R,0.200000X1.600000*%
G04 #@! TD*
G04 #@! TA.AperFunction,SMDPad,CuDef*
%ADD36R,0.200000X9.700000*%
G04 #@! TD*
G04 #@! TA.AperFunction,SMDPad,CuDef*
%ADD37R,0.200000X2.300000*%
G04 #@! TD*
G04 #@! TA.AperFunction,SMDPad,CuDef*
%ADD38R,1.400000X0.200000*%
G04 #@! TD*
G04 #@! TA.AperFunction,SMDPad,CuDef*
%ADD39R,6.400000X0.200000*%
G04 #@! TD*
G04 #@! TA.AperFunction,SMDPad,CuDef*
%ADD40R,1.700000X0.200000*%
G04 #@! TD*
G04 #@! TA.AperFunction,SMDPad,CuDef*
%ADD41R,3.300000X0.200000*%
G04 #@! TD*
G04 #@! TA.AperFunction,SMDPad,CuDef*
%ADD42R,0.200000X7.000000*%
G04 #@! TD*
G04 #@! TA.AperFunction,SMDPad,CuDef*
%ADD43R,0.200000X3.300000*%
G04 #@! TD*
G04 #@! TA.AperFunction,SMDPad,CuDef*
%ADD44R,0.200000X6.300000*%
G04 #@! TD*
G04 #@! TA.AperFunction,SMDPad,CuDef*
%ADD45R,4.400000X0.200000*%
G04 #@! TD*
G04 #@! TA.AperFunction,SMDPad,CuDef*
%ADD46R,0.200000X1.200000*%
G04 #@! TD*
G04 #@! TA.AperFunction,SMDPad,CuDef*
%ADD47R,0.200000X6.800000*%
G04 #@! TD*
G04 #@! TA.AperFunction,SMDPad,CuDef*
%ADD48R,0.200000X4.000000*%
G04 #@! TD*
G04 #@! TA.AperFunction,SMDPad,CuDef*
%ADD49R,0.200000X1.800000*%
G04 #@! TD*
G04 #@! TA.AperFunction,SMDPad,CuDef*
%ADD50R,10.000000X0.200000*%
G04 #@! TD*
G04 #@! TA.AperFunction,ComponentPad*
%ADD51C,1.000000*%
G04 #@! TD*
G04 #@! TA.AperFunction,ComponentPad*
%ADD52C,0.700000*%
G04 #@! TD*
G04 #@! TA.AperFunction,SMDPad,CuDef*
%ADD53C,3.000000*%
G04 #@! TD*
G04 #@! TA.AperFunction,SMDPad,CuDef*
%ADD54R,3.000000X0.250000*%
G04 #@! TD*
G04 #@! TA.AperFunction,SMDPad,CuDef*
%ADD55R,1.100000X0.250000*%
G04 #@! TD*
G04 #@! TA.AperFunction,SMDPad,CuDef*
%ADD56R,0.980000X0.250000*%
G04 #@! TD*
G04 #@! TA.AperFunction,SMDPad,CuDef*
%ADD57R,1.450000X0.250000*%
G04 #@! TD*
G04 #@! TA.AperFunction,SMDPad,CuDef*
%ADD58R,0.250000X27.600000*%
G04 #@! TD*
G04 #@! TA.AperFunction,SMDPad,CuDef*
%ADD59R,1.950000X0.250000*%
G04 #@! TD*
G04 #@! TA.AperFunction,SMDPad,CuDef*
%ADD60R,0.950000X0.250000*%
G04 #@! TD*
G04 #@! TA.AperFunction,ComponentPad*
%ADD61R,1.100000X1.100000*%
G04 #@! TD*
G04 #@! TA.AperFunction,ComponentPad*
%ADD62C,1.100000*%
G04 #@! TD*
G04 #@! TA.AperFunction,ComponentPad*
%ADD63O,2.400000X1.100000*%
G04 #@! TD*
G04 #@! TA.AperFunction,SMDPad,CuDef*
%ADD64O,0.200000X5.669999*%
G04 #@! TD*
G04 #@! TA.AperFunction,SMDPad,CuDef*
%ADD65O,11.100001X0.200000*%
G04 #@! TD*
G04 #@! TA.AperFunction,SMDPad,CuDef*
%ADD66O,9.800001X0.399999*%
G04 #@! TD*
G04 #@! TA.AperFunction,SMDPad,CuDef*
%ADD67O,0.499999X0.250000*%
G04 #@! TD*
G04 #@! TA.AperFunction,SMDPad,CuDef*
%ADD68O,0.200000X6.799999*%
G04 #@! TD*
G04 #@! TA.AperFunction,SMDPad,CuDef*
%ADD69O,0.250000X0.499999*%
G04 #@! TD*
G04 #@! TA.AperFunction,ComponentPad*
%ADD70C,0.599999*%
G04 #@! TD*
G04 #@! TA.AperFunction,ViaPad*
%ADD71C,2.000000*%
G04 #@! TD*
G04 APERTURE END LIST*
G04 #@! TO.P,U2,1,IN1*
G04 #@! TO.N,Net-(U2-IN1)*
G04 #@! TA.AperFunction,SMDPad,CuDef*
G36*
G01*
X13119998Y52024926D02*
X13119998Y52324926D01*
G75*
G02*
X13269998Y52474926I150000J0D01*
G01*
X14919998Y52474926D01*
G75*
G02*
X15069998Y52324926I0J-150000D01*
G01*
X15069998Y52024926D01*
G75*
G02*
X14919998Y51874926I-150000J0D01*
G01*
X13269998Y51874926D01*
G75*
G02*
X13119998Y52024926I0J150000D01*
G01*
G37*
G04 #@! TD.AperFunction*
G04 #@! TO.P,U2,2,STATUS1*
G04 #@! TO.N,unconnected-(U2-STATUS1-Pad2)*
G04 #@! TA.AperFunction,SMDPad,CuDef*
G36*
G01*
X13119998Y50754926D02*
X13119998Y51054926D01*
G75*
G02*
X13269998Y51204926I150000J0D01*
G01*
X14919998Y51204926D01*
G75*
G02*
X15069998Y51054926I0J-150000D01*
G01*
X15069998Y50754926D01*
G75*
G02*
X14919998Y50604926I-150000J0D01*
G01*
X13269998Y50604926D01*
G75*
G02*
X13119998Y50754926I0J150000D01*
G01*
G37*
G04 #@! TD.AperFunction*
G04 #@! TO.P,U2,3,IN2*
G04 #@! TO.N,Net-(U2-IN2)*
G04 #@! TA.AperFunction,SMDPad,CuDef*
G36*
G01*
X13119998Y49484926D02*
X13119998Y49784926D01*
G75*
G02*
X13269998Y49934926I150000J0D01*
G01*
X14919998Y49934926D01*
G75*
G02*
X15069998Y49784926I0J-150000D01*
G01*
X15069998Y49484926D01*
G75*
G02*
X14919998Y49334926I-150000J0D01*
G01*
X13269998Y49334926D01*
G75*
G02*
X13119998Y49484926I0J150000D01*
G01*
G37*
G04 #@! TD.AperFunction*
G04 #@! TO.P,U2,4,STATUS2*
G04 #@! TO.N,unconnected-(U2-STATUS2-Pad4)*
G04 #@! TA.AperFunction,SMDPad,CuDef*
G36*
G01*
X13119998Y48214926D02*
X13119998Y48514926D01*
G75*
G02*
X13269998Y48664926I150000J0D01*
G01*
X14919998Y48664926D01*
G75*
G02*
X15069998Y48514926I0J-150000D01*
G01*
X15069998Y48214926D01*
G75*
G02*
X14919998Y48064926I-150000J0D01*
G01*
X13269998Y48064926D01*
G75*
G02*
X13119998Y48214926I0J150000D01*
G01*
G37*
G04 #@! TD.AperFunction*
G04 #@! TO.P,U2,5,S2*
G04 #@! TO.N,PIN114*
G04 #@! TA.AperFunction,SMDPad,CuDef*
G36*
G01*
X18069998Y48214926D02*
X18069998Y48514926D01*
G75*
G02*
X18219998Y48664926I150000J0D01*
G01*
X19869998Y48664926D01*
G75*
G02*
X20019998Y48514926I0J-150000D01*
G01*
X20019998Y48214926D01*
G75*
G02*
X19869998Y48064926I-150000J0D01*
G01*
X18219998Y48064926D01*
G75*
G02*
X18069998Y48214926I0J150000D01*
G01*
G37*
G04 #@! TD.AperFunction*
G04 #@! TO.P,U2,6,D2*
G04 #@! TO.N,PIN51*
G04 #@! TA.AperFunction,SMDPad,CuDef*
G36*
G01*
X18069998Y49484926D02*
X18069998Y49784926D01*
G75*
G02*
X18219998Y49934926I150000J0D01*
G01*
X19869998Y49934926D01*
G75*
G02*
X20019998Y49784926I0J-150000D01*
G01*
X20019998Y49484926D01*
G75*
G02*
X19869998Y49334926I-150000J0D01*
G01*
X18219998Y49334926D01*
G75*
G02*
X18069998Y49484926I0J150000D01*
G01*
G37*
G04 #@! TD.AperFunction*
G04 #@! TO.P,U2,7,S1*
G04 #@! TO.N,PIN114*
G04 #@! TA.AperFunction,SMDPad,CuDef*
G36*
G01*
X18069998Y50754926D02*
X18069998Y51054926D01*
G75*
G02*
X18219998Y51204926I150000J0D01*
G01*
X19869998Y51204926D01*
G75*
G02*
X20019998Y51054926I0J-150000D01*
G01*
X20019998Y50754926D01*
G75*
G02*
X19869998Y50604926I-150000J0D01*
G01*
X18219998Y50604926D01*
G75*
G02*
X18069998Y50754926I0J150000D01*
G01*
G37*
G04 #@! TD.AperFunction*
G04 #@! TO.P,U2,8,D1*
G04 #@! TO.N,PIN50*
G04 #@! TA.AperFunction,SMDPad,CuDef*
G36*
G01*
X18069998Y52024926D02*
X18069998Y52324926D01*
G75*
G02*
X18219998Y52474926I150000J0D01*
G01*
X19869998Y52474926D01*
G75*
G02*
X20019998Y52324926I0J-150000D01*
G01*
X20019998Y52024926D01*
G75*
G02*
X19869998Y51874926I-150000J0D01*
G01*
X18219998Y51874926D01*
G75*
G02*
X18069998Y52024926I0J150000D01*
G01*
G37*
G04 #@! TD.AperFunction*
G04 #@! TD*
G04 #@! TO.P,U1,1,IN1*
G04 #@! TO.N,Net-(U1-IN1)*
G04 #@! TA.AperFunction,SMDPad,CuDef*
G36*
G01*
X13119998Y60604926D02*
X13119998Y60904926D01*
G75*
G02*
X13269998Y61054926I150000J0D01*
G01*
X14919998Y61054926D01*
G75*
G02*
X15069998Y60904926I0J-150000D01*
G01*
X15069998Y60604926D01*
G75*
G02*
X14919998Y60454926I-150000J0D01*
G01*
X13269998Y60454926D01*
G75*
G02*
X13119998Y60604926I0J150000D01*
G01*
G37*
G04 #@! TD.AperFunction*
G04 #@! TO.P,U1,2,STATUS1*
G04 #@! TO.N,unconnected-(U1-STATUS1-Pad2)*
G04 #@! TA.AperFunction,SMDPad,CuDef*
G36*
G01*
X13119998Y59334926D02*
X13119998Y59634926D01*
G75*
G02*
X13269998Y59784926I150000J0D01*
G01*
X14919998Y59784926D01*
G75*
G02*
X15069998Y59634926I0J-150000D01*
G01*
X15069998Y59334926D01*
G75*
G02*
X14919998Y59184926I-150000J0D01*
G01*
X13269998Y59184926D01*
G75*
G02*
X13119998Y59334926I0J150000D01*
G01*
G37*
G04 #@! TD.AperFunction*
G04 #@! TO.P,U1,3,IN2*
G04 #@! TO.N,Net-(U1-IN2)*
G04 #@! TA.AperFunction,SMDPad,CuDef*
G36*
G01*
X13119998Y58064926D02*
X13119998Y58364926D01*
G75*
G02*
X13269998Y58514926I150000J0D01*
G01*
X14919998Y58514926D01*
G75*
G02*
X15069998Y58364926I0J-150000D01*
G01*
X15069998Y58064926D01*
G75*
G02*
X14919998Y57914926I-150000J0D01*
G01*
X13269998Y57914926D01*
G75*
G02*
X13119998Y58064926I0J150000D01*
G01*
G37*
G04 #@! TD.AperFunction*
G04 #@! TO.P,U1,4,STATUS2*
G04 #@! TO.N,unconnected-(U1-STATUS2-Pad4)*
G04 #@! TA.AperFunction,SMDPad,CuDef*
G36*
G01*
X13119998Y56794926D02*
X13119998Y57094926D01*
G75*
G02*
X13269998Y57244926I150000J0D01*
G01*
X14919998Y57244926D01*
G75*
G02*
X15069998Y57094926I0J-150000D01*
G01*
X15069998Y56794926D01*
G75*
G02*
X14919998Y56644926I-150000J0D01*
G01*
X13269998Y56644926D01*
G75*
G02*
X13119998Y56794926I0J150000D01*
G01*
G37*
G04 #@! TD.AperFunction*
G04 #@! TO.P,U1,5,S2*
G04 #@! TO.N,PIN114*
G04 #@! TA.AperFunction,SMDPad,CuDef*
G36*
G01*
X18069998Y56794926D02*
X18069998Y57094926D01*
G75*
G02*
X18219998Y57244926I150000J0D01*
G01*
X19869998Y57244926D01*
G75*
G02*
X20019998Y57094926I0J-150000D01*
G01*
X20019998Y56794926D01*
G75*
G02*
X19869998Y56644926I-150000J0D01*
G01*
X18219998Y56644926D01*
G75*
G02*
X18069998Y56794926I0J150000D01*
G01*
G37*
G04 #@! TD.AperFunction*
G04 #@! TO.P,U1,6,D2*
G04 #@! TO.N,PIN14*
G04 #@! TA.AperFunction,SMDPad,CuDef*
G36*
G01*
X18069998Y58064926D02*
X18069998Y58364926D01*
G75*
G02*
X18219998Y58514926I150000J0D01*
G01*
X19869998Y58514926D01*
G75*
G02*
X20019998Y58364926I0J-150000D01*
G01*
X20019998Y58064926D01*
G75*
G02*
X19869998Y57914926I-150000J0D01*
G01*
X18219998Y57914926D01*
G75*
G02*
X18069998Y58064926I0J150000D01*
G01*
G37*
G04 #@! TD.AperFunction*
G04 #@! TO.P,U1,7,S1*
G04 #@! TO.N,PIN114*
G04 #@! TA.AperFunction,SMDPad,CuDef*
G36*
G01*
X18069998Y59334926D02*
X18069998Y59634926D01*
G75*
G02*
X18219998Y59784926I150000J0D01*
G01*
X19869998Y59784926D01*
G75*
G02*
X20019998Y59634926I0J-150000D01*
G01*
X20019998Y59334926D01*
G75*
G02*
X19869998Y59184926I-150000J0D01*
G01*
X18219998Y59184926D01*
G75*
G02*
X18069998Y59334926I0J150000D01*
G01*
G37*
G04 #@! TD.AperFunction*
G04 #@! TO.P,U1,8,D1*
G04 #@! TO.N,PIN15*
G04 #@! TA.AperFunction,SMDPad,CuDef*
G36*
G01*
X18069998Y60604926D02*
X18069998Y60904926D01*
G75*
G02*
X18219998Y61054926I150000J0D01*
G01*
X19869998Y61054926D01*
G75*
G02*
X20019998Y60904926I0J-150000D01*
G01*
X20019998Y60604926D01*
G75*
G02*
X19869998Y60454926I-150000J0D01*
G01*
X18219998Y60454926D01*
G75*
G02*
X18069998Y60604926I0J150000D01*
G01*
G37*
G04 #@! TD.AperFunction*
G04 #@! TD*
G04 #@! TO.P,F4,1*
G04 #@! TO.N,Net-(F4-Pad1)*
G04 #@! TA.AperFunction,SMDPad,CuDef*
G36*
G01*
X23574998Y60693676D02*
X23574998Y61206176D01*
G75*
G02*
X23793748Y61424926I218750J0D01*
G01*
X24231248Y61424926D01*
G75*
G02*
X24449998Y61206176I0J-218750D01*
G01*
X24449998Y60693676D01*
G75*
G02*
X24231248Y60474926I-218750J0D01*
G01*
X23793748Y60474926D01*
G75*
G02*
X23574998Y60693676I0J218750D01*
G01*
G37*
G04 #@! TD.AperFunction*
G04 #@! TO.P,F4,2*
G04 #@! TO.N,/IGN1*
G04 #@! TA.AperFunction,SMDPad,CuDef*
G36*
G01*
X25149998Y60693676D02*
X25149998Y61206176D01*
G75*
G02*
X25368748Y61424926I218750J0D01*
G01*
X25806248Y61424926D01*
G75*
G02*
X26024998Y61206176I0J-218750D01*
G01*
X26024998Y60693676D01*
G75*
G02*
X25806248Y60474926I-218750J0D01*
G01*
X25368748Y60474926D01*
G75*
G02*
X25149998Y60693676I0J218750D01*
G01*
G37*
G04 #@! TD.AperFunction*
G04 #@! TD*
G04 #@! TO.P,C5,1*
G04 #@! TO.N,PIN114*
G04 #@! TA.AperFunction,SMDPad,CuDef*
G36*
G01*
X23294998Y44535000D02*
X23294998Y45215000D01*
G75*
G02*
X23379998Y45300000I85000J0D01*
G01*
X24059998Y45300000D01*
G75*
G02*
X24144998Y45215000I0J-85000D01*
G01*
X24144998Y44535000D01*
G75*
G02*
X24059998Y44450000I-85000J0D01*
G01*
X23379998Y44450000D01*
G75*
G02*
X23294998Y44535000I0J85000D01*
G01*
G37*
G04 #@! TD.AperFunction*
G04 #@! TO.P,C5,2*
G04 #@! TO.N,+3.3VA*
G04 #@! TA.AperFunction,SMDPad,CuDef*
G36*
G01*
X24875000Y44535000D02*
X24875000Y45215000D01*
G75*
G02*
X24960000Y45300000I85000J0D01*
G01*
X25640000Y45300000D01*
G75*
G02*
X25725000Y45215000I0J-85000D01*
G01*
X25725000Y44535000D01*
G75*
G02*
X25640000Y44450000I-85000J0D01*
G01*
X24960000Y44450000D01*
G75*
G02*
X24875000Y44535000I0J85000D01*
G01*
G37*
G04 #@! TD.AperFunction*
G04 #@! TD*
G04 #@! TO.P,C4,1*
G04 #@! TO.N,PIN114*
G04 #@! TA.AperFunction,SMDPad,CuDef*
G36*
G01*
X23294998Y46484985D02*
X23294998Y47164985D01*
G75*
G02*
X23379998Y47249985I85000J0D01*
G01*
X24059998Y47249985D01*
G75*
G02*
X24144998Y47164985I0J-85000D01*
G01*
X24144998Y46484985D01*
G75*
G02*
X24059998Y46399985I-85000J0D01*
G01*
X23379998Y46399985D01*
G75*
G02*
X23294998Y46484985I0J85000D01*
G01*
G37*
G04 #@! TD.AperFunction*
G04 #@! TO.P,C4,2*
G04 #@! TO.N,+3.3VA*
G04 #@! TA.AperFunction,SMDPad,CuDef*
G36*
G01*
X24875000Y46484985D02*
X24875000Y47164985D01*
G75*
G02*
X24960000Y47249985I85000J0D01*
G01*
X25640000Y47249985D01*
G75*
G02*
X25725000Y47164985I0J-85000D01*
G01*
X25725000Y46484985D01*
G75*
G02*
X25640000Y46399985I-85000J0D01*
G01*
X24960000Y46399985D01*
G75*
G02*
X24875000Y46484985I0J85000D01*
G01*
G37*
G04 #@! TD.AperFunction*
G04 #@! TD*
G04 #@! TO.P,C3,1*
G04 #@! TO.N,PIN114*
G04 #@! TA.AperFunction,SMDPad,CuDef*
G36*
G01*
X23294998Y48434970D02*
X23294998Y49114970D01*
G75*
G02*
X23379998Y49199970I85000J0D01*
G01*
X24059998Y49199970D01*
G75*
G02*
X24144998Y49114970I0J-85000D01*
G01*
X24144998Y48434970D01*
G75*
G02*
X24059998Y48349970I-85000J0D01*
G01*
X23379998Y48349970D01*
G75*
G02*
X23294998Y48434970I0J85000D01*
G01*
G37*
G04 #@! TD.AperFunction*
G04 #@! TO.P,C3,2*
G04 #@! TO.N,Net-(U7-T+)*
G04 #@! TA.AperFunction,SMDPad,CuDef*
G36*
G01*
X24875000Y48434970D02*
X24875000Y49114970D01*
G75*
G02*
X24960000Y49199970I85000J0D01*
G01*
X25640000Y49199970D01*
G75*
G02*
X25725000Y49114970I0J-85000D01*
G01*
X25725000Y48434970D01*
G75*
G02*
X25640000Y48349970I-85000J0D01*
G01*
X24960000Y48349970D01*
G75*
G02*
X24875000Y48434970I0J85000D01*
G01*
G37*
G04 #@! TD.AperFunction*
G04 #@! TD*
G04 #@! TO.P,C2,1*
G04 #@! TO.N,Net-(U7-T-)*
G04 #@! TA.AperFunction,SMDPad,CuDef*
G36*
G01*
X23294998Y50384955D02*
X23294998Y51064955D01*
G75*
G02*
X23379998Y51149955I85000J0D01*
G01*
X24059998Y51149955D01*
G75*
G02*
X24144998Y51064955I0J-85000D01*
G01*
X24144998Y50384955D01*
G75*
G02*
X24059998Y50299955I-85000J0D01*
G01*
X23379998Y50299955D01*
G75*
G02*
X23294998Y50384955I0J85000D01*
G01*
G37*
G04 #@! TD.AperFunction*
G04 #@! TO.P,C2,2*
G04 #@! TO.N,Net-(U7-T+)*
G04 #@! TA.AperFunction,SMDPad,CuDef*
G36*
G01*
X24875000Y50384955D02*
X24875000Y51064955D01*
G75*
G02*
X24960000Y51149955I85000J0D01*
G01*
X25640000Y51149955D01*
G75*
G02*
X25725000Y51064955I0J-85000D01*
G01*
X25725000Y50384955D01*
G75*
G02*
X25640000Y50299955I-85000J0D01*
G01*
X24960000Y50299955D01*
G75*
G02*
X24875000Y50384955I0J85000D01*
G01*
G37*
G04 #@! TD.AperFunction*
G04 #@! TD*
G04 #@! TO.P,C1,1*
G04 #@! TO.N,PIN114*
G04 #@! TA.AperFunction,SMDPad,CuDef*
G36*
G01*
X23294998Y52334940D02*
X23294998Y53014940D01*
G75*
G02*
X23379998Y53099940I85000J0D01*
G01*
X24059998Y53099940D01*
G75*
G02*
X24144998Y53014940I0J-85000D01*
G01*
X24144998Y52334940D01*
G75*
G02*
X24059998Y52249940I-85000J0D01*
G01*
X23379998Y52249940D01*
G75*
G02*
X23294998Y52334940I0J85000D01*
G01*
G37*
G04 #@! TD.AperFunction*
G04 #@! TO.P,C1,2*
G04 #@! TO.N,Net-(U7-T-)*
G04 #@! TA.AperFunction,SMDPad,CuDef*
G36*
G01*
X24875000Y52334940D02*
X24875000Y53014940D01*
G75*
G02*
X24960000Y53099940I85000J0D01*
G01*
X25640000Y53099940D01*
G75*
G02*
X25725000Y53014940I0J-85000D01*
G01*
X25725000Y52334940D01*
G75*
G02*
X25640000Y52249940I-85000J0D01*
G01*
X24960000Y52249940D01*
G75*
G02*
X24875000Y52334940I0J85000D01*
G01*
G37*
G04 #@! TD.AperFunction*
G04 #@! TD*
D10*
G04 #@! TO.P,P1,*
G04 #@! TO.N,*
X144952000Y113258000D03*
D11*
X142502000Y105458000D03*
D10*
X70452000Y113258000D03*
D11*
X20702000Y105458000D03*
D10*
X18252000Y113258000D03*
D12*
G04 #@! TO.P,P1,1,1*
G04 #@! TO.N,PIN1*
X137852000Y108258000D03*
G04 #@! TO.P,P1,2,2*
G04 #@! TO.N,PIN2*
X132052000Y108258000D03*
G04 #@! TO.P,P1,3,3*
G04 #@! TO.N,PIN114*
X134952000Y105928000D03*
G04 #@! TO.P,P1,4,4*
G04 #@! TO.N,PIN4*
X137852000Y100128000D03*
G04 #@! TO.P,P1,5,5*
G04 #@! TO.N,PIN5*
X132052000Y100128000D03*
D13*
G04 #@! TO.P,P1,6,6*
G04 #@! TO.N,PIN6*
X78432000Y100128000D03*
G04 #@! TO.P,P1,7,7*
G04 #@! TO.N,PIN7*
X80972000Y100128000D03*
G04 #@! TO.P,P1,8,8*
G04 #@! TO.N,PIN8*
X83512000Y100128000D03*
G04 #@! TO.P,P1,9,9*
G04 #@! TO.N,PIN9*
X86052000Y100128000D03*
G04 #@! TO.P,P1,10,10*
G04 #@! TO.N,PIN10*
X88592000Y100128000D03*
G04 #@! TO.P,P1,11,11*
G04 #@! TO.N,PIN11*
X91132000Y100128000D03*
G04 #@! TO.P,P1,12,12*
G04 #@! TO.N,PIN12*
X93672000Y100128000D03*
G04 #@! TO.P,P1,13,13*
G04 #@! TO.N,PIN13*
X96212000Y100128000D03*
G04 #@! TO.P,P1,14,14*
G04 #@! TO.N,PIN14*
X98752000Y100128000D03*
G04 #@! TO.P,P1,15,15*
G04 #@! TO.N,PIN15*
X101292000Y100128000D03*
G04 #@! TO.P,P1,16,16*
G04 #@! TO.N,PIN16*
X103832000Y100128000D03*
G04 #@! TO.P,P1,17,17*
G04 #@! TO.N,PIN17*
X106372000Y100128000D03*
G04 #@! TO.P,P1,18,18*
G04 #@! TO.N,PIN18*
X108912000Y100128000D03*
G04 #@! TO.P,P1,19,19*
G04 #@! TO.N,PIN19*
X111452000Y100128000D03*
G04 #@! TO.P,P1,20,20*
G04 #@! TO.N,PIN20*
X113992000Y100128000D03*
G04 #@! TO.P,P1,21,21*
G04 #@! TO.N,PIN21*
X116532000Y100128000D03*
G04 #@! TO.P,P1,22,22*
G04 #@! TO.N,PIN22*
X119072000Y100128000D03*
G04 #@! TO.P,P1,23,23*
G04 #@! TO.N,PIN120*
X121612000Y100128000D03*
G04 #@! TO.P,P1,24,24*
X124152000Y100128000D03*
G04 #@! TO.P,P1,25,25*
G04 #@! TO.N,PIN25*
X78432000Y102668000D03*
G04 #@! TO.P,P1,26,26*
G04 #@! TO.N,PIN26*
X80972000Y102668000D03*
G04 #@! TO.P,P1,27,27*
G04 #@! TO.N,PIN27*
X83512000Y102668000D03*
G04 #@! TO.P,P1,28,28*
G04 #@! TO.N,PIN28*
X86052000Y102668000D03*
G04 #@! TO.P,P1,29,29*
G04 #@! TO.N,PIN29*
X88592000Y102668000D03*
G04 #@! TO.P,P1,30,30*
G04 #@! TO.N,PIN30*
X91132000Y102668000D03*
G04 #@! TO.P,P1,31,31*
G04 #@! TO.N,PIN31*
X93672000Y102668000D03*
G04 #@! TO.P,P1,32,32*
G04 #@! TO.N,PIN32*
X96212000Y102668000D03*
G04 #@! TO.P,P1,33,33*
G04 #@! TO.N,PIN33*
X98752000Y102668000D03*
G04 #@! TO.P,P1,34,34*
G04 #@! TO.N,PIN34*
X101292000Y102668000D03*
G04 #@! TO.P,P1,35,35*
G04 #@! TO.N,PIN35*
X103832000Y102668000D03*
G04 #@! TO.P,P1,36,36*
G04 #@! TO.N,PIN36*
X106372000Y102668000D03*
G04 #@! TO.P,P1,37,37*
G04 #@! TO.N,PIN37*
X108912000Y102668000D03*
G04 #@! TO.P,P1,38,38*
G04 #@! TO.N,PIN38*
X111452000Y102668000D03*
G04 #@! TO.P,P1,39,39*
G04 #@! TO.N,PIN39*
X113992000Y102668000D03*
G04 #@! TO.P,P1,40,40*
G04 #@! TO.N,PIN40*
X116532000Y102668000D03*
G04 #@! TO.P,P1,41,41*
G04 #@! TO.N,PIN41*
X119072000Y102668000D03*
G04 #@! TO.P,P1,42,42*
G04 #@! TO.N,PIN42*
X121612000Y102668000D03*
G04 #@! TO.P,P1,43,43*
G04 #@! TO.N,PIN43*
X124152000Y102668000D03*
G04 #@! TO.P,P1,44,44*
G04 #@! TO.N,PIN44*
X78432000Y108718000D03*
G04 #@! TO.P,P1,45,45*
G04 #@! TO.N,PIN45*
X80972000Y108718000D03*
G04 #@! TO.P,P1,46,46*
G04 #@! TO.N,PIN46*
X83512000Y108718000D03*
G04 #@! TO.P,P1,47,47*
G04 #@! TO.N,PIN47*
X86052000Y108718000D03*
G04 #@! TO.P,P1,48,48*
G04 #@! TO.N,PIN48*
X88592000Y108718000D03*
G04 #@! TO.P,P1,49,49*
G04 #@! TO.N,PIN49*
X91132000Y108718000D03*
G04 #@! TO.P,P1,50,50*
G04 #@! TO.N,PIN50*
X93672000Y108718000D03*
G04 #@! TO.P,P1,51,51*
G04 #@! TO.N,PIN51*
X96212000Y108718000D03*
G04 #@! TO.P,P1,52,52*
G04 #@! TO.N,PIN113*
X98752000Y108718000D03*
G04 #@! TO.P,P1,53,53*
X101292000Y108718000D03*
G04 #@! TO.P,P1,54,54*
X103832000Y108718000D03*
G04 #@! TO.P,P1,55,55*
X106372000Y108718000D03*
G04 #@! TO.P,P1,56,56*
X108912000Y108718000D03*
G04 #@! TO.P,P1,57,57*
X111452000Y108718000D03*
G04 #@! TO.P,P1,58,58*
X113992000Y108718000D03*
G04 #@! TO.P,P1,59,59*
X116532000Y108718000D03*
G04 #@! TO.P,P1,60,60*
X119072000Y108718000D03*
G04 #@! TO.P,P1,61,61*
X121612000Y108718000D03*
G04 #@! TO.P,P1,62,62*
X124152000Y108718000D03*
G04 #@! TO.P,P1,63,63*
G04 #@! TO.N,PIN63*
X78432000Y111258000D03*
G04 #@! TO.P,P1,64,64*
G04 #@! TO.N,PIN113*
X80972000Y111258000D03*
G04 #@! TO.P,P1,65,65*
G04 #@! TO.N,PIN65*
X83512000Y111258000D03*
G04 #@! TO.P,P1,66,66*
G04 #@! TO.N,PIN113*
X86052000Y111258000D03*
G04 #@! TO.P,P1,67,67*
G04 #@! TO.N,PIN67*
X88592000Y111258000D03*
G04 #@! TO.P,P1,68,68*
G04 #@! TO.N,PIN113*
X91132000Y111258000D03*
G04 #@! TO.P,P1,69,69*
G04 #@! TO.N,PIN69*
X93672000Y111258000D03*
G04 #@! TO.P,P1,70,70*
G04 #@! TO.N,PIN70*
X96212000Y111258000D03*
G04 #@! TO.P,P1,71,71*
G04 #@! TO.N,PIN106*
X98752000Y111258000D03*
G04 #@! TO.P,P1,72,72*
X101292000Y111258000D03*
G04 #@! TO.P,P1,73,73*
X103832000Y111258000D03*
G04 #@! TO.P,P1,74,74*
X106372000Y111258000D03*
G04 #@! TO.P,P1,75,75*
X108912000Y111258000D03*
G04 #@! TO.P,P1,76,76*
X111452000Y111258000D03*
G04 #@! TO.P,P1,77,77*
X113992000Y111258000D03*
G04 #@! TO.P,P1,78,78*
X116532000Y111258000D03*
G04 #@! TO.P,P1,79,79*
X119072000Y111258000D03*
G04 #@! TO.P,P1,80,80*
X121612000Y111258000D03*
G04 #@! TO.P,P1,81,81*
G04 #@! TO.N,PIN81*
X124152000Y111258000D03*
G04 #@! TO.P,P1,82,82*
G04 #@! TO.N,PIN82*
X62462000Y111258000D03*
G04 #@! TO.P,P1,83,83*
G04 #@! TO.N,PIN83*
X59922000Y111258000D03*
G04 #@! TO.P,P1,84,84*
G04 #@! TO.N,PIN84*
X57382000Y111258000D03*
G04 #@! TO.P,P1,85,85*
G04 #@! TO.N,PIN85*
X54842000Y111258000D03*
G04 #@! TO.P,P1,86,86*
G04 #@! TO.N,PIN86*
X52302000Y111258000D03*
G04 #@! TO.P,P1,87,87*
G04 #@! TO.N,PIN87*
X49762000Y111258000D03*
G04 #@! TO.P,P1,88,88*
G04 #@! TO.N,PIN88*
X47222000Y111258000D03*
G04 #@! TO.P,P1,89,89*
G04 #@! TO.N,PIN89*
X44682000Y111258000D03*
G04 #@! TO.P,P1,90,90*
G04 #@! TO.N,PIN90*
X62462000Y108718000D03*
G04 #@! TO.P,P1,91,91*
G04 #@! TO.N,PIN91*
X59922000Y108718000D03*
G04 #@! TO.P,P1,92,92*
G04 #@! TO.N,PIN92*
X57382000Y108718000D03*
G04 #@! TO.P,P1,93,93*
G04 #@! TO.N,PIN93*
X54842000Y108718000D03*
G04 #@! TO.P,P1,94,94*
G04 #@! TO.N,PIN94*
X52302000Y108718000D03*
G04 #@! TO.P,P1,95,95*
G04 #@! TO.N,PIN95*
X49762000Y108718000D03*
G04 #@! TO.P,P1,96,96*
G04 #@! TO.N,PIN96*
X47222000Y108718000D03*
G04 #@! TO.P,P1,97,97*
G04 #@! TO.N,PIN97*
X44682000Y108718000D03*
G04 #@! TO.P,P1,98,98*
G04 #@! TO.N,PIN113*
X62462000Y102668000D03*
G04 #@! TO.P,P1,99,99*
X59922000Y102668000D03*
G04 #@! TO.P,P1,100,100*
G04 #@! TO.N,PIN100*
X57382000Y102668000D03*
G04 #@! TO.P,P1,101,101*
G04 #@! TO.N,PIN101*
X54842000Y102668000D03*
G04 #@! TO.P,P1,102,102*
G04 #@! TO.N,PIN102*
X52302000Y102668000D03*
G04 #@! TO.P,P1,103,103*
G04 #@! TO.N,PIN103*
X49762000Y102668000D03*
G04 #@! TO.P,P1,104,104*
G04 #@! TO.N,PIN104*
X47222000Y102668000D03*
G04 #@! TO.P,P1,105,105*
G04 #@! TO.N,PIN105*
X44682000Y102668000D03*
G04 #@! TO.P,P1,106,106*
G04 #@! TO.N,PIN106*
X62462000Y100128000D03*
G04 #@! TO.P,P1,107,107*
X59922000Y100128000D03*
G04 #@! TO.P,P1,108,108*
G04 #@! TO.N,PIN108*
X57382000Y100128000D03*
G04 #@! TO.P,P1,109,109*
G04 #@! TO.N,PIN109*
X54842000Y100128000D03*
G04 #@! TO.P,P1,110,110*
G04 #@! TO.N,PIN110*
X52302000Y100128000D03*
G04 #@! TO.P,P1,111,111*
G04 #@! TO.N,PIN111*
X49762000Y100128000D03*
G04 #@! TO.P,P1,112,112*
G04 #@! TO.N,PIN112*
X47222000Y100128000D03*
G04 #@! TO.P,P1,113,113*
G04 #@! TO.N,PIN113*
X44682000Y100128000D03*
D12*
G04 #@! TO.P,P1,114,114*
G04 #@! TO.N,PIN114*
X36852000Y108258000D03*
G04 #@! TO.P,P1,115,115*
X31052000Y108258000D03*
G04 #@! TO.P,P1,116,116*
G04 #@! TO.N,PIN116*
X25152000Y108258000D03*
G04 #@! TO.P,P1,117,117*
G04 #@! TO.N,PIN117*
X33952000Y105928000D03*
G04 #@! TO.P,P1,118,118*
G04 #@! TO.N,PIN118*
X28052000Y105928000D03*
G04 #@! TO.P,P1,119,119*
G04 #@! TO.N,PIN119*
X36852000Y100128000D03*
G04 #@! TO.P,P1,120,120*
G04 #@! TO.N,PIN120*
X31052000Y100128000D03*
G04 #@! TO.P,P1,121,121*
G04 #@! TO.N,PIN121*
X25152000Y100128000D03*
G04 #@! TD*
G04 #@! TO.P,R12,1*
G04 #@! TO.N,PIN113*
G04 #@! TA.AperFunction,SMDPad,CuDef*
G36*
G01*
X99349999Y51250000D02*
X99349999Y52500000D01*
G75*
G02*
X99449999Y52600000I100000J0D01*
G01*
X100249999Y52600000D01*
G75*
G02*
X100349999Y52500000I0J-100000D01*
G01*
X100349999Y51250000D01*
G75*
G02*
X100249999Y51150000I-100000J0D01*
G01*
X99449999Y51150000D01*
G75*
G02*
X99349999Y51250000I0J100000D01*
G01*
G37*
G04 #@! TD.AperFunction*
G04 #@! TO.P,R12,2*
G04 #@! TO.N,PIN89*
G04 #@! TA.AperFunction,SMDPad,CuDef*
G36*
G01*
X101250021Y51250000D02*
X101250021Y52500000D01*
G75*
G02*
X101350021Y52600000I100000J0D01*
G01*
X102150021Y52600000D01*
G75*
G02*
X102250021Y52500000I0J-100000D01*
G01*
X102250021Y51250000D01*
G75*
G02*
X102150021Y51150000I-100000J0D01*
G01*
X101350021Y51150000D01*
G75*
G02*
X101250021Y51250000I0J100000D01*
G01*
G37*
G04 #@! TD.AperFunction*
G04 #@! TD*
G04 #@! TO.P,L2,1,1*
G04 #@! TO.N,PIN22*
G04 #@! TA.AperFunction,SMDPad,CuDef*
G36*
G01*
X38043750Y75600000D02*
X38556250Y75600000D01*
G75*
G02*
X38775000Y75381250I0J-218750D01*
G01*
X38775000Y74943750D01*
G75*
G02*
X38556250Y74725000I-218750J0D01*
G01*
X38043750Y74725000D01*
G75*
G02*
X37825000Y74943750I0J218750D01*
G01*
X37825000Y75381250D01*
G75*
G02*
X38043750Y75600000I218750J0D01*
G01*
G37*
G04 #@! TD.AperFunction*
G04 #@! TO.P,L2,2,2*
G04 #@! TO.N,Net-(U7-T-)*
G04 #@! TA.AperFunction,SMDPad,CuDef*
G36*
G01*
X38043750Y74025000D02*
X38556250Y74025000D01*
G75*
G02*
X38775000Y73806250I0J-218750D01*
G01*
X38775000Y73368750D01*
G75*
G02*
X38556250Y73150000I-218750J0D01*
G01*
X38043750Y73150000D01*
G75*
G02*
X37825000Y73368750I0J218750D01*
G01*
X37825000Y73806250D01*
G75*
G02*
X38043750Y74025000I218750J0D01*
G01*
G37*
G04 #@! TD.AperFunction*
G04 #@! TD*
G04 #@! TO.P,Q1,1,G*
G04 #@! TO.N,Net-(Q1-G)*
G04 #@! TA.AperFunction,SMDPad,CuDef*
G36*
G01*
X82150000Y64300000D02*
X81450000Y64300000D01*
G75*
G02*
X81200000Y64550000I0J250000D01*
G01*
X81200000Y66250000D01*
G75*
G02*
X81450000Y66500000I250000J0D01*
G01*
X82150000Y66500000D01*
G75*
G02*
X82400000Y66250000I0J-250000D01*
G01*
X82400000Y64550000D01*
G75*
G02*
X82150000Y64300000I-250000J0D01*
G01*
G37*
G04 #@! TD.AperFunction*
G04 #@! TO.P,Q1,2,C*
G04 #@! TO.N,PIN13*
G04 #@! TA.AperFunction,SMDPad,CuDef*
G36*
G01*
X83680000Y68500000D02*
X81430000Y68500000D01*
G75*
G02*
X81180000Y68750000I0J250000D01*
G01*
X81180000Y71300000D01*
G75*
G02*
X81430000Y71550000I250000J0D01*
G01*
X83680000Y71550000D01*
G75*
G02*
X83930000Y71300000I0J-250000D01*
G01*
X83930000Y68750000D01*
G75*
G02*
X83680000Y68500000I-250000J0D01*
G01*
G37*
G04 #@! TD.AperFunction*
G04 #@! TA.AperFunction,SMDPad,CuDef*
G36*
G01*
X86730000Y68500000D02*
X84480000Y68500000D01*
G75*
G02*
X84230000Y68750000I0J250000D01*
G01*
X84230000Y71300000D01*
G75*
G02*
X84480000Y71550000I250000J0D01*
G01*
X86730000Y71550000D01*
G75*
G02*
X86980000Y71300000I0J-250000D01*
G01*
X86980000Y68750000D01*
G75*
G02*
X86730000Y68500000I-250000J0D01*
G01*
G37*
G04 #@! TD.AperFunction*
G04 #@! TA.AperFunction,SMDPad,CuDef*
G36*
G01*
X86730003Y68500000D02*
X81429997Y68500000D01*
G75*
G02*
X81180000Y68749997I0J249997D01*
G01*
X81180000Y74650003D01*
G75*
G02*
X81429997Y74900000I249997J0D01*
G01*
X86730003Y74900000D01*
G75*
G02*
X86980000Y74650003I0J-249997D01*
G01*
X86980000Y68749997D01*
G75*
G02*
X86730003Y68500000I-249997J0D01*
G01*
G37*
G04 #@! TD.AperFunction*
G04 #@! TA.AperFunction,SMDPad,CuDef*
G36*
G01*
X83680000Y71850000D02*
X81430000Y71850000D01*
G75*
G02*
X81180000Y72100000I0J250000D01*
G01*
X81180000Y74650000D01*
G75*
G02*
X81430000Y74900000I250000J0D01*
G01*
X83680000Y74900000D01*
G75*
G02*
X83930000Y74650000I0J-250000D01*
G01*
X83930000Y72100000D01*
G75*
G02*
X83680000Y71850000I-250000J0D01*
G01*
G37*
G04 #@! TD.AperFunction*
G04 #@! TA.AperFunction,SMDPad,CuDef*
G36*
G01*
X86730000Y71850000D02*
X84480000Y71850000D01*
G75*
G02*
X84230000Y72100000I0J250000D01*
G01*
X84230000Y74650000D01*
G75*
G02*
X84480000Y74900000I250000J0D01*
G01*
X86730000Y74900000D01*
G75*
G02*
X86980000Y74650000I0J-250000D01*
G01*
X86980000Y72100000D01*
G75*
G02*
X86730000Y71850000I-250000J0D01*
G01*
G37*
G04 #@! TD.AperFunction*
G04 #@! TO.P,Q1,3,E*
G04 #@! TO.N,PIN114*
G04 #@! TA.AperFunction,SMDPad,CuDef*
G36*
G01*
X86710000Y64300000D02*
X86010000Y64300000D01*
G75*
G02*
X85760000Y64550000I0J250000D01*
G01*
X85760000Y66250000D01*
G75*
G02*
X86010000Y66500000I250000J0D01*
G01*
X86710000Y66500000D01*
G75*
G02*
X86960000Y66250000I0J-250000D01*
G01*
X86960000Y64550000D01*
G75*
G02*
X86710000Y64300000I-250000J0D01*
G01*
G37*
G04 #@! TD.AperFunction*
G04 #@! TD*
G04 #@! TO.P,Q4,1,G*
G04 #@! TO.N,Net-(Q4-G)*
G04 #@! TA.AperFunction,SMDPad,CuDef*
G36*
G01*
X57565000Y64300000D02*
X56865000Y64300000D01*
G75*
G02*
X56615000Y64550000I0J250000D01*
G01*
X56615000Y66250000D01*
G75*
G02*
X56865000Y66500000I250000J0D01*
G01*
X57565000Y66500000D01*
G75*
G02*
X57815000Y66250000I0J-250000D01*
G01*
X57815000Y64550000D01*
G75*
G02*
X57565000Y64300000I-250000J0D01*
G01*
G37*
G04 #@! TD.AperFunction*
G04 #@! TO.P,Q4,2,C*
G04 #@! TO.N,PIN9*
G04 #@! TA.AperFunction,SMDPad,CuDef*
G36*
G01*
X59095000Y68500000D02*
X56845000Y68500000D01*
G75*
G02*
X56595000Y68750000I0J250000D01*
G01*
X56595000Y71300000D01*
G75*
G02*
X56845000Y71550000I250000J0D01*
G01*
X59095000Y71550000D01*
G75*
G02*
X59345000Y71300000I0J-250000D01*
G01*
X59345000Y68750000D01*
G75*
G02*
X59095000Y68500000I-250000J0D01*
G01*
G37*
G04 #@! TD.AperFunction*
G04 #@! TA.AperFunction,SMDPad,CuDef*
G36*
G01*
X62145000Y68500000D02*
X59895000Y68500000D01*
G75*
G02*
X59645000Y68750000I0J250000D01*
G01*
X59645000Y71300000D01*
G75*
G02*
X59895000Y71550000I250000J0D01*
G01*
X62145000Y71550000D01*
G75*
G02*
X62395000Y71300000I0J-250000D01*
G01*
X62395000Y68750000D01*
G75*
G02*
X62145000Y68500000I-250000J0D01*
G01*
G37*
G04 #@! TD.AperFunction*
G04 #@! TA.AperFunction,SMDPad,CuDef*
G36*
G01*
X62145003Y68500000D02*
X56844997Y68500000D01*
G75*
G02*
X56595000Y68749997I0J249997D01*
G01*
X56595000Y74650003D01*
G75*
G02*
X56844997Y74900000I249997J0D01*
G01*
X62145003Y74900000D01*
G75*
G02*
X62395000Y74650003I0J-249997D01*
G01*
X62395000Y68749997D01*
G75*
G02*
X62145003Y68500000I-249997J0D01*
G01*
G37*
G04 #@! TD.AperFunction*
G04 #@! TA.AperFunction,SMDPad,CuDef*
G36*
G01*
X59095000Y71850000D02*
X56845000Y71850000D01*
G75*
G02*
X56595000Y72100000I0J250000D01*
G01*
X56595000Y74650000D01*
G75*
G02*
X56845000Y74900000I250000J0D01*
G01*
X59095000Y74900000D01*
G75*
G02*
X59345000Y74650000I0J-250000D01*
G01*
X59345000Y72100000D01*
G75*
G02*
X59095000Y71850000I-250000J0D01*
G01*
G37*
G04 #@! TD.AperFunction*
G04 #@! TA.AperFunction,SMDPad,CuDef*
G36*
G01*
X62145000Y71850000D02*
X59895000Y71850000D01*
G75*
G02*
X59645000Y72100000I0J250000D01*
G01*
X59645000Y74650000D01*
G75*
G02*
X59895000Y74900000I250000J0D01*
G01*
X62145000Y74900000D01*
G75*
G02*
X62395000Y74650000I0J-250000D01*
G01*
X62395000Y72100000D01*
G75*
G02*
X62145000Y71850000I-250000J0D01*
G01*
G37*
G04 #@! TD.AperFunction*
G04 #@! TO.P,Q4,3,E*
G04 #@! TO.N,PIN114*
G04 #@! TA.AperFunction,SMDPad,CuDef*
G36*
G01*
X62125000Y64300000D02*
X61425000Y64300000D01*
G75*
G02*
X61175000Y64550000I0J250000D01*
G01*
X61175000Y66250000D01*
G75*
G02*
X61425000Y66500000I250000J0D01*
G01*
X62125000Y66500000D01*
G75*
G02*
X62375000Y66250000I0J-250000D01*
G01*
X62375000Y64550000D01*
G75*
G02*
X62125000Y64300000I-250000J0D01*
G01*
G37*
G04 #@! TD.AperFunction*
G04 #@! TD*
G04 #@! TO.P,C28,1*
G04 #@! TO.N,PIN114*
G04 #@! TA.AperFunction,SMDPad,CuDef*
G36*
G01*
X36875000Y70535000D02*
X36875000Y71215000D01*
G75*
G02*
X36960000Y71300000I85000J0D01*
G01*
X37640000Y71300000D01*
G75*
G02*
X37725000Y71215000I0J-85000D01*
G01*
X37725000Y70535000D01*
G75*
G02*
X37640000Y70450000I-85000J0D01*
G01*
X36960000Y70450000D01*
G75*
G02*
X36875000Y70535000I0J85000D01*
G01*
G37*
G04 #@! TD.AperFunction*
G04 #@! TO.P,C28,2*
G04 #@! TO.N,Net-(U8-T-)*
G04 #@! TA.AperFunction,SMDPad,CuDef*
G36*
G01*
X38455002Y70535000D02*
X38455002Y71215000D01*
G75*
G02*
X38540002Y71300000I85000J0D01*
G01*
X39220002Y71300000D01*
G75*
G02*
X39305002Y71215000I0J-85000D01*
G01*
X39305002Y70535000D01*
G75*
G02*
X39220002Y70450000I-85000J0D01*
G01*
X38540002Y70450000D01*
G75*
G02*
X38455002Y70535000I0J85000D01*
G01*
G37*
G04 #@! TD.AperFunction*
G04 #@! TD*
G04 #@! TO.P,U7,1,GND*
G04 #@! TO.N,PIN114*
G04 #@! TA.AperFunction,SMDPad,CuDef*
G36*
G01*
X46640000Y55425000D02*
X46340000Y55425000D01*
G75*
G02*
X46190000Y55575000I0J150000D01*
G01*
X46190000Y57225000D01*
G75*
G02*
X46340000Y57375000I150000J0D01*
G01*
X46640000Y57375000D01*
G75*
G02*
X46790000Y57225000I0J-150000D01*
G01*
X46790000Y55575000D01*
G75*
G02*
X46640000Y55425000I-150000J0D01*
G01*
G37*
G04 #@! TD.AperFunction*
G04 #@! TO.P,U7,2,T-*
G04 #@! TO.N,Net-(U7-T-)*
G04 #@! TA.AperFunction,SMDPad,CuDef*
G36*
G01*
X47910000Y55425000D02*
X47610000Y55425000D01*
G75*
G02*
X47460000Y55575000I0J150000D01*
G01*
X47460000Y57225000D01*
G75*
G02*
X47610000Y57375000I150000J0D01*
G01*
X47910000Y57375000D01*
G75*
G02*
X48060000Y57225000I0J-150000D01*
G01*
X48060000Y55575000D01*
G75*
G02*
X47910000Y55425000I-150000J0D01*
G01*
G37*
G04 #@! TD.AperFunction*
G04 #@! TO.P,U7,3,T+*
G04 #@! TO.N,Net-(U7-T+)*
G04 #@! TA.AperFunction,SMDPad,CuDef*
G36*
G01*
X49180000Y55425000D02*
X48880000Y55425000D01*
G75*
G02*
X48730000Y55575000I0J150000D01*
G01*
X48730000Y57225000D01*
G75*
G02*
X48880000Y57375000I150000J0D01*
G01*
X49180000Y57375000D01*
G75*
G02*
X49330000Y57225000I0J-150000D01*
G01*
X49330000Y55575000D01*
G75*
G02*
X49180000Y55425000I-150000J0D01*
G01*
G37*
G04 #@! TD.AperFunction*
G04 #@! TO.P,U7,4,V_CC*
G04 #@! TO.N,+3.3VA*
G04 #@! TA.AperFunction,SMDPad,CuDef*
G36*
G01*
X50450000Y55425000D02*
X50150000Y55425000D01*
G75*
G02*
X50000000Y55575000I0J150000D01*
G01*
X50000000Y57225000D01*
G75*
G02*
X50150000Y57375000I150000J0D01*
G01*
X50450000Y57375000D01*
G75*
G02*
X50600000Y57225000I0J-150000D01*
G01*
X50600000Y55575000D01*
G75*
G02*
X50450000Y55425000I-150000J0D01*
G01*
G37*
G04 #@! TD.AperFunction*
G04 #@! TO.P,U7,5,SCK*
G04 #@! TO.N,/SCK3*
G04 #@! TA.AperFunction,SMDPad,CuDef*
G36*
G01*
X50450000Y60375000D02*
X50150000Y60375000D01*
G75*
G02*
X50000000Y60525000I0J150000D01*
G01*
X50000000Y62175000D01*
G75*
G02*
X50150000Y62325000I150000J0D01*
G01*
X50450000Y62325000D01*
G75*
G02*
X50600000Y62175000I0J-150000D01*
G01*
X50600000Y60525000D01*
G75*
G02*
X50450000Y60375000I-150000J0D01*
G01*
G37*
G04 #@! TD.AperFunction*
G04 #@! TO.P,U7,6,~{CS}*
G04 #@! TO.N,/EGT/SPI_CS*
G04 #@! TA.AperFunction,SMDPad,CuDef*
G36*
G01*
X49180000Y60375000D02*
X48880000Y60375000D01*
G75*
G02*
X48730000Y60525000I0J150000D01*
G01*
X48730000Y62175000D01*
G75*
G02*
X48880000Y62325000I150000J0D01*
G01*
X49180000Y62325000D01*
G75*
G02*
X49330000Y62175000I0J-150000D01*
G01*
X49330000Y60525000D01*
G75*
G02*
X49180000Y60375000I-150000J0D01*
G01*
G37*
G04 #@! TD.AperFunction*
G04 #@! TO.P,U7,7,SO*
G04 #@! TO.N,/MISO3*
G04 #@! TA.AperFunction,SMDPad,CuDef*
G36*
G01*
X47910000Y60375000D02*
X47610000Y60375000D01*
G75*
G02*
X47460000Y60525000I0J150000D01*
G01*
X47460000Y62175000D01*
G75*
G02*
X47610000Y62325000I150000J0D01*
G01*
X47910000Y62325000D01*
G75*
G02*
X48060000Y62175000I0J-150000D01*
G01*
X48060000Y60525000D01*
G75*
G02*
X47910000Y60375000I-150000J0D01*
G01*
G37*
G04 #@! TD.AperFunction*
G04 #@! TO.P,U7,8*
G04 #@! TO.N,N/C*
G04 #@! TA.AperFunction,SMDPad,CuDef*
G36*
G01*
X46640000Y60375000D02*
X46340000Y60375000D01*
G75*
G02*
X46190000Y60525000I0J150000D01*
G01*
X46190000Y62175000D01*
G75*
G02*
X46340000Y62325000I150000J0D01*
G01*
X46640000Y62325000D01*
G75*
G02*
X46790000Y62175000I0J-150000D01*
G01*
X46790000Y60525000D01*
G75*
G02*
X46640000Y60375000I-150000J0D01*
G01*
G37*
G04 #@! TD.AperFunction*
G04 #@! TD*
D13*
G04 #@! TO.P,M1,E1,VBAT*
G04 #@! TO.N,/VBAT*
X50049998Y47874997D03*
G04 #@! TO.P,M1,E2,V12*
G04 #@! TO.N,unconnected-(M1-V12-PadE2)*
X50049998Y41475000D03*
G04 #@! TO.P,M1,E3,VIGN*
G04 #@! TO.N,/VIGN*
X50049998Y39574997D03*
G04 #@! TO.P,M1,E4,V5*
G04 #@! TO.N,+5V*
X50049998Y35274997D03*
D14*
G04 #@! TO.P,M1,E5,EN_5VP*
G04 #@! TO.N,/PWR_EN*
X50499997Y32875000D03*
G04 #@! TO.P,M1,E6,PG_5VP*
G04 #@! TO.N,Net-(M1-PG_5VP)*
X50499997Y31874999D03*
D15*
G04 #@! TO.P,M1,S1,GND*
G04 #@! TO.N,PIN114*
X33900002Y44024997D03*
D16*
X33900002Y35524999D03*
D17*
X33900002Y28424997D03*
D18*
X42300000Y28374997D03*
D19*
X43100001Y48974997D03*
D13*
X50049998Y29024997D03*
D17*
X50699999Y48924997D03*
D20*
X50699999Y44724999D03*
D21*
X50699999Y37374997D03*
D22*
X50699999Y33875000D03*
D23*
X50699999Y30574999D03*
D13*
G04 #@! TO.P,M1,V1,V12_PERM*
G04 #@! TO.N,PIN116*
X34550001Y48324999D03*
G04 #@! TO.P,M1,V2,IN_VIGN*
G04 #@! TO.N,/IN_VIGN*
X34550001Y46475000D03*
G04 #@! TO.P,M1,V3,V12_RAW*
G04 #@! TO.N,PIN117*
X34550001Y41524997D03*
G04 #@! TO.P,M1,V4,5VP*
G04 #@! TO.N,PIN106*
X34550001Y29474999D03*
G04 #@! TD*
D14*
G04 #@! TO.P,M2,E1,V5A*
G04 #@! TO.N,+5VA*
X109325000Y73300001D03*
D24*
G04 #@! TO.P,M2,E2,GND*
G04 #@! TO.N,PIN114*
X118225000Y75275001D03*
D25*
X113675000Y72700001D03*
X113675000Y75800001D03*
D14*
X109325000Y74250001D03*
G04 #@! TO.P,M2,E3,OUT_KNOCK*
G04 #@! TO.N,/IN_KNOCK*
X109325000Y75199999D03*
G04 #@! TO.P,M2,W1,IN_KNOCK*
G04 #@! TO.N,PIN81*
X118025000Y74200001D03*
G04 #@! TO.P,M2,W2,VREF*
G04 #@! TO.N,/VREF1*
X118025000Y73300001D03*
G04 #@! TD*
G04 #@! TO.P,U10,1,OUT*
G04 #@! TO.N,PIN43*
G04 #@! TA.AperFunction,SMDPad,CuDef*
G36*
G01*
X142220000Y80075000D02*
X141820000Y80075000D01*
G75*
G02*
X141620000Y80275000I0J200000D01*
G01*
X141620000Y82075000D01*
G75*
G02*
X141820000Y82275000I200000J0D01*
G01*
X142220000Y82275000D01*
G75*
G02*
X142420000Y82075000I0J-200000D01*
G01*
X142420000Y80275000D01*
G75*
G02*
X142220000Y80075000I-200000J0D01*
G01*
G37*
G04 #@! TD.AperFunction*
G04 #@! TO.P,U10,2,IN*
G04 #@! TO.N,Net-(Q7-D)*
G04 #@! TA.AperFunction,SMDPad,CuDef*
G36*
G01*
X143360000Y80075000D02*
X142960000Y80075000D01*
G75*
G02*
X142760000Y80275000I0J200000D01*
G01*
X142760000Y82075000D01*
G75*
G02*
X142960000Y82275000I200000J0D01*
G01*
X143360000Y82275000D01*
G75*
G02*
X143560000Y82075000I0J-200000D01*
G01*
X143560000Y80275000D01*
G75*
G02*
X143360000Y80075000I-200000J0D01*
G01*
G37*
G04 #@! TD.AperFunction*
G04 #@! TO.P,U10,3,Vbb*
G04 #@! TO.N,PIN120*
G04 #@! TA.AperFunction,SMDPad,CuDef*
G36*
G01*
X143900000Y84275000D02*
X141650000Y84275000D01*
G75*
G02*
X141400000Y84525000I0J250000D01*
G01*
X141400000Y87075000D01*
G75*
G02*
X141650000Y87325000I250000J0D01*
G01*
X143900000Y87325000D01*
G75*
G02*
X144150000Y87075000I0J-250000D01*
G01*
X144150000Y84525000D01*
G75*
G02*
X143900000Y84275000I-250000J0D01*
G01*
G37*
G04 #@! TD.AperFunction*
G04 #@! TA.AperFunction,SMDPad,CuDef*
G36*
G01*
X146950000Y84275000D02*
X144700000Y84275000D01*
G75*
G02*
X144450000Y84525000I0J250000D01*
G01*
X144450000Y87075000D01*
G75*
G02*
X144700000Y87325000I250000J0D01*
G01*
X146950000Y87325000D01*
G75*
G02*
X147200000Y87075000I0J-250000D01*
G01*
X147200000Y84525000D01*
G75*
G02*
X146950000Y84275000I-250000J0D01*
G01*
G37*
G04 #@! TD.AperFunction*
G04 #@! TA.AperFunction,SMDPad,CuDef*
G36*
G01*
X146950003Y84275000D02*
X141649997Y84275000D01*
G75*
G02*
X141400000Y84524997I0J249997D01*
G01*
X141400000Y90425003D01*
G75*
G02*
X141649997Y90675000I249997J0D01*
G01*
X146950003Y90675000D01*
G75*
G02*
X147200000Y90425003I0J-249997D01*
G01*
X147200000Y84524997D01*
G75*
G02*
X146950003Y84275000I-249997J0D01*
G01*
G37*
G04 #@! TD.AperFunction*
G04 #@! TA.AperFunction,SMDPad,CuDef*
G36*
G01*
X143900000Y87625000D02*
X141650000Y87625000D01*
G75*
G02*
X141400000Y87875000I0J250000D01*
G01*
X141400000Y90425000D01*
G75*
G02*
X141650000Y90675000I250000J0D01*
G01*
X143900000Y90675000D01*
G75*
G02*
X144150000Y90425000I0J-250000D01*
G01*
X144150000Y87875000D01*
G75*
G02*
X143900000Y87625000I-250000J0D01*
G01*
G37*
G04 #@! TD.AperFunction*
G04 #@! TA.AperFunction,SMDPad,CuDef*
G36*
G01*
X146950000Y87625000D02*
X144700000Y87625000D01*
G75*
G02*
X144450000Y87875000I0J250000D01*
G01*
X144450000Y90425000D01*
G75*
G02*
X144700000Y90675000I250000J0D01*
G01*
X146950000Y90675000D01*
G75*
G02*
X147200000Y90425000I0J-250000D01*
G01*
X147200000Y87875000D01*
G75*
G02*
X146950000Y87625000I-250000J0D01*
G01*
G37*
G04 #@! TD.AperFunction*
G04 #@! TO.P,U10,4,IS*
G04 #@! TO.N,Net-(U10-IS)*
G04 #@! TA.AperFunction,SMDPad,CuDef*
G36*
G01*
X145640000Y80075000D02*
X145240000Y80075000D01*
G75*
G02*
X145040000Y80275000I0J200000D01*
G01*
X145040000Y82075000D01*
G75*
G02*
X145240000Y82275000I200000J0D01*
G01*
X145640000Y82275000D01*
G75*
G02*
X145840000Y82075000I0J-200000D01*
G01*
X145840000Y80275000D01*
G75*
G02*
X145640000Y80075000I-200000J0D01*
G01*
G37*
G04 #@! TD.AperFunction*
G04 #@! TO.P,U10,5,OUT*
G04 #@! TO.N,PIN43*
G04 #@! TA.AperFunction,SMDPad,CuDef*
G36*
G01*
X146780000Y80075000D02*
X146380000Y80075000D01*
G75*
G02*
X146180000Y80275000I0J200000D01*
G01*
X146180000Y82075000D01*
G75*
G02*
X146380000Y82275000I200000J0D01*
G01*
X146780000Y82275000D01*
G75*
G02*
X146980000Y82075000I0J-200000D01*
G01*
X146980000Y80275000D01*
G75*
G02*
X146780000Y80075000I-200000J0D01*
G01*
G37*
G04 #@! TD.AperFunction*
G04 #@! TD*
G04 #@! TO.P,Q6,1,G*
G04 #@! TO.N,Net-(Q6-G)*
G04 #@! TA.AperFunction,SMDPad,CuDef*
G36*
G01*
X41175000Y64300000D02*
X40475000Y64300000D01*
G75*
G02*
X40225000Y64550000I0J250000D01*
G01*
X40225000Y66250000D01*
G75*
G02*
X40475000Y66500000I250000J0D01*
G01*
X41175000Y66500000D01*
G75*
G02*
X41425000Y66250000I0J-250000D01*
G01*
X41425000Y64550000D01*
G75*
G02*
X41175000Y64300000I-250000J0D01*
G01*
G37*
G04 #@! TD.AperFunction*
G04 #@! TO.P,Q6,2,C*
G04 #@! TO.N,PIN8*
G04 #@! TA.AperFunction,SMDPad,CuDef*
G36*
G01*
X42705000Y68500000D02*
X40455000Y68500000D01*
G75*
G02*
X40205000Y68750000I0J250000D01*
G01*
X40205000Y71300000D01*
G75*
G02*
X40455000Y71550000I250000J0D01*
G01*
X42705000Y71550000D01*
G75*
G02*
X42955000Y71300000I0J-250000D01*
G01*
X42955000Y68750000D01*
G75*
G02*
X42705000Y68500000I-250000J0D01*
G01*
G37*
G04 #@! TD.AperFunction*
G04 #@! TA.AperFunction,SMDPad,CuDef*
G36*
G01*
X45755000Y68500000D02*
X43505000Y68500000D01*
G75*
G02*
X43255000Y68750000I0J250000D01*
G01*
X43255000Y71300000D01*
G75*
G02*
X43505000Y71550000I250000J0D01*
G01*
X45755000Y71550000D01*
G75*
G02*
X46005000Y71300000I0J-250000D01*
G01*
X46005000Y68750000D01*
G75*
G02*
X45755000Y68500000I-250000J0D01*
G01*
G37*
G04 #@! TD.AperFunction*
G04 #@! TA.AperFunction,SMDPad,CuDef*
G36*
G01*
X45755003Y68500000D02*
X40454997Y68500000D01*
G75*
G02*
X40205000Y68749997I0J249997D01*
G01*
X40205000Y74650003D01*
G75*
G02*
X40454997Y74900000I249997J0D01*
G01*
X45755003Y74900000D01*
G75*
G02*
X46005000Y74650003I0J-249997D01*
G01*
X46005000Y68749997D01*
G75*
G02*
X45755003Y68500000I-249997J0D01*
G01*
G37*
G04 #@! TD.AperFunction*
G04 #@! TA.AperFunction,SMDPad,CuDef*
G36*
G01*
X42705000Y71850000D02*
X40455000Y71850000D01*
G75*
G02*
X40205000Y72100000I0J250000D01*
G01*
X40205000Y74650000D01*
G75*
G02*
X40455000Y74900000I250000J0D01*
G01*
X42705000Y74900000D01*
G75*
G02*
X42955000Y74650000I0J-250000D01*
G01*
X42955000Y72100000D01*
G75*
G02*
X42705000Y71850000I-250000J0D01*
G01*
G37*
G04 #@! TD.AperFunction*
G04 #@! TA.AperFunction,SMDPad,CuDef*
G36*
G01*
X45755000Y71850000D02*
X43505000Y71850000D01*
G75*
G02*
X43255000Y72100000I0J250000D01*
G01*
X43255000Y74650000D01*
G75*
G02*
X43505000Y74900000I250000J0D01*
G01*
X45755000Y74900000D01*
G75*
G02*
X46005000Y74650000I0J-250000D01*
G01*
X46005000Y72100000D01*
G75*
G02*
X45755000Y71850000I-250000J0D01*
G01*
G37*
G04 #@! TD.AperFunction*
G04 #@! TO.P,Q6,3,E*
G04 #@! TO.N,PIN114*
G04 #@! TA.AperFunction,SMDPad,CuDef*
G36*
G01*
X45735000Y64300000D02*
X45035000Y64300000D01*
G75*
G02*
X44785000Y64550000I0J250000D01*
G01*
X44785000Y66250000D01*
G75*
G02*
X45035000Y66500000I250000J0D01*
G01*
X45735000Y66500000D01*
G75*
G02*
X45985000Y66250000I0J-250000D01*
G01*
X45985000Y64550000D01*
G75*
G02*
X45735000Y64300000I-250000J0D01*
G01*
G37*
G04 #@! TD.AperFunction*
G04 #@! TD*
G04 #@! TO.P,C29,1*
G04 #@! TO.N,Net-(U8-T-)*
G04 #@! TA.AperFunction,SMDPad,CuDef*
G36*
G01*
X37015001Y63715000D02*
X37015001Y63035000D01*
G75*
G02*
X36930001Y62950000I-85000J0D01*
G01*
X36250001Y62950000D01*
G75*
G02*
X36165001Y63035000I0J85000D01*
G01*
X36165001Y63715000D01*
G75*
G02*
X36250001Y63800000I85000J0D01*
G01*
X36930001Y63800000D01*
G75*
G02*
X37015001Y63715000I0J-85000D01*
G01*
G37*
G04 #@! TD.AperFunction*
G04 #@! TO.P,C29,2*
G04 #@! TO.N,Net-(U8-T+)*
G04 #@! TA.AperFunction,SMDPad,CuDef*
G36*
G01*
X35434999Y63715000D02*
X35434999Y63035000D01*
G75*
G02*
X35349999Y62950000I-85000J0D01*
G01*
X34669999Y62950000D01*
G75*
G02*
X34584999Y63035000I0J85000D01*
G01*
X34584999Y63715000D01*
G75*
G02*
X34669999Y63800000I85000J0D01*
G01*
X35349999Y63800000D01*
G75*
G02*
X35434999Y63715000I0J-85000D01*
G01*
G37*
G04 #@! TD.AperFunction*
G04 #@! TD*
G04 #@! TO.P,M4,E1,NC*
G04 #@! TO.N,unconnected-(M4-NC-PadE1)*
X105100000Y61237500D03*
G04 #@! TO.P,M4,E2,NC*
G04 #@! TO.N,unconnected-(M4-NC-PadE2)*
X103900000Y61237500D03*
G04 #@! TO.P,M4,E3,OUT*
G04 #@! TO.N,/VR_MAX9924*
X106300000Y61237500D03*
G04 #@! TO.P,M4,E4,V5_IN*
G04 #@! TO.N,+5VA*
X107500000Y61237500D03*
D26*
G04 #@! TO.P,M4,G,GND*
G04 #@! TO.N,PIN114*
X104832500Y75887500D03*
D27*
X98782500Y75887500D03*
D28*
X107800000Y68875000D03*
D29*
X98350000Y68462500D03*
D30*
X100812500Y61037500D03*
D14*
G04 #@! TO.P,M4,W1,VR-*
G04 #@! TO.N,PIN20*
X101040000Y75662500D03*
G04 #@! TO.P,M4,W2,VR+*
G04 #@! TO.N,PIN19*
X100040000Y75662500D03*
G04 #@! TD*
G04 #@! TO.P,C31,1*
G04 #@! TO.N,PIN114*
G04 #@! TA.AperFunction,SMDPad,CuDef*
G36*
G01*
X35140000Y58159999D02*
X34460000Y58159999D01*
G75*
G02*
X34375000Y58244999I0J85000D01*
G01*
X34375000Y58924999D01*
G75*
G02*
X34460000Y59009999I85000J0D01*
G01*
X35140000Y59009999D01*
G75*
G02*
X35225000Y58924999I0J-85000D01*
G01*
X35225000Y58244999D01*
G75*
G02*
X35140000Y58159999I-85000J0D01*
G01*
G37*
G04 #@! TD.AperFunction*
G04 #@! TO.P,C31,2*
G04 #@! TO.N,+3.3VA*
G04 #@! TA.AperFunction,SMDPad,CuDef*
G36*
G01*
X35140000Y59740001D02*
X34460000Y59740001D01*
G75*
G02*
X34375000Y59825001I0J85000D01*
G01*
X34375000Y60505001D01*
G75*
G02*
X34460000Y60590001I85000J0D01*
G01*
X35140000Y60590001D01*
G75*
G02*
X35225000Y60505001I0J-85000D01*
G01*
X35225000Y59825001D01*
G75*
G02*
X35140000Y59740001I-85000J0D01*
G01*
G37*
G04 #@! TD.AperFunction*
G04 #@! TD*
G04 #@! TO.P,R8,1*
G04 #@! TO.N,PIN85*
G04 #@! TA.AperFunction,SMDPad,CuDef*
G36*
G01*
X102849999Y54250000D02*
X102849999Y55500000D01*
G75*
G02*
X102949999Y55600000I100000J0D01*
G01*
X103749999Y55600000D01*
G75*
G02*
X103849999Y55500000I0J-100000D01*
G01*
X103849999Y54250000D01*
G75*
G02*
X103749999Y54150000I-100000J0D01*
G01*
X102949999Y54150000D01*
G75*
G02*
X102849999Y54250000I0J100000D01*
G01*
G37*
G04 #@! TD.AperFunction*
G04 #@! TO.P,R8,2*
G04 #@! TO.N,+5VA*
G04 #@! TA.AperFunction,SMDPad,CuDef*
G36*
G01*
X104750021Y54250000D02*
X104750021Y55500000D01*
G75*
G02*
X104850021Y55600000I100000J0D01*
G01*
X105650021Y55600000D01*
G75*
G02*
X105750021Y55500000I0J-100000D01*
G01*
X105750021Y54250000D01*
G75*
G02*
X105650021Y54150000I-100000J0D01*
G01*
X104850021Y54150000D01*
G75*
G02*
X104750021Y54250000I0J100000D01*
G01*
G37*
G04 #@! TD.AperFunction*
G04 #@! TD*
G04 #@! TO.P,R10,1*
G04 #@! TO.N,PIN113*
G04 #@! TA.AperFunction,SMDPad,CuDef*
G36*
G01*
X99349999Y57250000D02*
X99349999Y58500000D01*
G75*
G02*
X99449999Y58600000I100000J0D01*
G01*
X100249999Y58600000D01*
G75*
G02*
X100349999Y58500000I0J-100000D01*
G01*
X100349999Y57250000D01*
G75*
G02*
X100249999Y57150000I-100000J0D01*
G01*
X99449999Y57150000D01*
G75*
G02*
X99349999Y57250000I0J100000D01*
G01*
G37*
G04 #@! TD.AperFunction*
G04 #@! TO.P,R10,2*
G04 #@! TO.N,PIN84*
G04 #@! TA.AperFunction,SMDPad,CuDef*
G36*
G01*
X101250021Y57250000D02*
X101250021Y58500000D01*
G75*
G02*
X101350021Y58600000I100000J0D01*
G01*
X102150021Y58600000D01*
G75*
G02*
X102250021Y58500000I0J-100000D01*
G01*
X102250021Y57250000D01*
G75*
G02*
X102150021Y57150000I-100000J0D01*
G01*
X101350021Y57150000D01*
G75*
G02*
X101250021Y57250000I0J100000D01*
G01*
G37*
G04 #@! TD.AperFunction*
G04 #@! TD*
G04 #@! TO.P,U5,1,IN1*
G04 #@! TO.N,Net-(U5-IN1)*
G04 #@! TA.AperFunction,SMDPad,CuDef*
G36*
G01*
X60545000Y55425000D02*
X60245000Y55425000D01*
G75*
G02*
X60095000Y55575000I0J150000D01*
G01*
X60095000Y57225000D01*
G75*
G02*
X60245000Y57375000I150000J0D01*
G01*
X60545000Y57375000D01*
G75*
G02*
X60695000Y57225000I0J-150000D01*
G01*
X60695000Y55575000D01*
G75*
G02*
X60545000Y55425000I-150000J0D01*
G01*
G37*
G04 #@! TD.AperFunction*
G04 #@! TO.P,U5,2,STATUS1*
G04 #@! TO.N,unconnected-(U5-STATUS1-Pad2)*
G04 #@! TA.AperFunction,SMDPad,CuDef*
G36*
G01*
X61815000Y55425000D02*
X61515000Y55425000D01*
G75*
G02*
X61365000Y55575000I0J150000D01*
G01*
X61365000Y57225000D01*
G75*
G02*
X61515000Y57375000I150000J0D01*
G01*
X61815000Y57375000D01*
G75*
G02*
X61965000Y57225000I0J-150000D01*
G01*
X61965000Y55575000D01*
G75*
G02*
X61815000Y55425000I-150000J0D01*
G01*
G37*
G04 #@! TD.AperFunction*
G04 #@! TO.P,U5,3,IN2*
G04 #@! TO.N,Net-(U5-IN2)*
G04 #@! TA.AperFunction,SMDPad,CuDef*
G36*
G01*
X63085000Y55425000D02*
X62785000Y55425000D01*
G75*
G02*
X62635000Y55575000I0J150000D01*
G01*
X62635000Y57225000D01*
G75*
G02*
X62785000Y57375000I150000J0D01*
G01*
X63085000Y57375000D01*
G75*
G02*
X63235000Y57225000I0J-150000D01*
G01*
X63235000Y55575000D01*
G75*
G02*
X63085000Y55425000I-150000J0D01*
G01*
G37*
G04 #@! TD.AperFunction*
G04 #@! TO.P,U5,4,STATUS2*
G04 #@! TO.N,unconnected-(U5-STATUS2-Pad4)*
G04 #@! TA.AperFunction,SMDPad,CuDef*
G36*
G01*
X64355000Y55425000D02*
X64055000Y55425000D01*
G75*
G02*
X63905000Y55575000I0J150000D01*
G01*
X63905000Y57225000D01*
G75*
G02*
X64055000Y57375000I150000J0D01*
G01*
X64355000Y57375000D01*
G75*
G02*
X64505000Y57225000I0J-150000D01*
G01*
X64505000Y55575000D01*
G75*
G02*
X64355000Y55425000I-150000J0D01*
G01*
G37*
G04 #@! TD.AperFunction*
G04 #@! TO.P,U5,5,S2*
G04 #@! TO.N,PIN114*
G04 #@! TA.AperFunction,SMDPad,CuDef*
G36*
G01*
X64355000Y60375000D02*
X64055000Y60375000D01*
G75*
G02*
X63905000Y60525000I0J150000D01*
G01*
X63905000Y62175000D01*
G75*
G02*
X64055000Y62325000I150000J0D01*
G01*
X64355000Y62325000D01*
G75*
G02*
X64505000Y62175000I0J-150000D01*
G01*
X64505000Y60525000D01*
G75*
G02*
X64355000Y60375000I-150000J0D01*
G01*
G37*
G04 #@! TD.AperFunction*
G04 #@! TO.P,U5,6,D2*
G04 #@! TO.N,PIN45*
G04 #@! TA.AperFunction,SMDPad,CuDef*
G36*
G01*
X63085000Y60375000D02*
X62785000Y60375000D01*
G75*
G02*
X62635000Y60525000I0J150000D01*
G01*
X62635000Y62175000D01*
G75*
G02*
X62785000Y62325000I150000J0D01*
G01*
X63085000Y62325000D01*
G75*
G02*
X63235000Y62175000I0J-150000D01*
G01*
X63235000Y60525000D01*
G75*
G02*
X63085000Y60375000I-150000J0D01*
G01*
G37*
G04 #@! TD.AperFunction*
G04 #@! TO.P,U5,7,S1*
G04 #@! TO.N,PIN114*
G04 #@! TA.AperFunction,SMDPad,CuDef*
G36*
G01*
X61815000Y60375000D02*
X61515000Y60375000D01*
G75*
G02*
X61365000Y60525000I0J150000D01*
G01*
X61365000Y62175000D01*
G75*
G02*
X61515000Y62325000I150000J0D01*
G01*
X61815000Y62325000D01*
G75*
G02*
X61965000Y62175000I0J-150000D01*
G01*
X61965000Y60525000D01*
G75*
G02*
X61815000Y60375000I-150000J0D01*
G01*
G37*
G04 #@! TD.AperFunction*
G04 #@! TO.P,U5,8,D1*
G04 #@! TO.N,PIN44*
G04 #@! TA.AperFunction,SMDPad,CuDef*
G36*
G01*
X60545000Y60375000D02*
X60245000Y60375000D01*
G75*
G02*
X60095000Y60525000I0J150000D01*
G01*
X60095000Y62175000D01*
G75*
G02*
X60245000Y62325000I150000J0D01*
G01*
X60545000Y62325000D01*
G75*
G02*
X60695000Y62175000I0J-150000D01*
G01*
X60695000Y60525000D01*
G75*
G02*
X60545000Y60375000I-150000J0D01*
G01*
G37*
G04 #@! TD.AperFunction*
G04 #@! TD*
D31*
G04 #@! TO.P,F2,1,1*
G04 #@! TO.N,PIN120*
X33300000Y75325000D03*
G04 #@! TA.AperFunction,SMDPad,CuDef*
G36*
G01*
X32400000Y73980010D02*
X32400000Y74670010D01*
G75*
G02*
X32630000Y74900010I230000J0D01*
G01*
X33970000Y74900010D01*
G75*
G02*
X34200000Y74670010I0J-230000D01*
G01*
X34200000Y73980010D01*
G75*
G02*
X33970000Y73750010I-230000J0D01*
G01*
X32630000Y73750010D01*
G75*
G02*
X32400000Y73980010I0J230000D01*
G01*
G37*
G04 #@! TD.AperFunction*
G04 #@! TO.P,F2,2,2*
G04 #@! TO.N,PIN117*
G04 #@! TA.AperFunction,SMDPad,CuDef*
G36*
G01*
X32400000Y71079990D02*
X32400000Y71769990D01*
G75*
G02*
X32630000Y71999990I230000J0D01*
G01*
X33970000Y71999990D01*
G75*
G02*
X34200000Y71769990I0J-230000D01*
G01*
X34200000Y71079990D01*
G75*
G02*
X33970000Y70849990I-230000J0D01*
G01*
X32630000Y70849990D01*
G75*
G02*
X32400000Y71079990I0J230000D01*
G01*
G37*
G04 #@! TD.AperFunction*
X33300000Y70425000D03*
G04 #@! TD*
G04 #@! TO.P,Q3,1,G*
G04 #@! TO.N,Net-(Q3-G)*
G04 #@! TA.AperFunction,SMDPad,CuDef*
G36*
G01*
X65760000Y64300000D02*
X65060000Y64300000D01*
G75*
G02*
X64810000Y64550000I0J250000D01*
G01*
X64810000Y66250000D01*
G75*
G02*
X65060000Y66500000I250000J0D01*
G01*
X65760000Y66500000D01*
G75*
G02*
X66010000Y66250000I0J-250000D01*
G01*
X66010000Y64550000D01*
G75*
G02*
X65760000Y64300000I-250000J0D01*
G01*
G37*
G04 #@! TD.AperFunction*
G04 #@! TO.P,Q3,2,C*
G04 #@! TO.N,PIN10*
G04 #@! TA.AperFunction,SMDPad,CuDef*
G36*
G01*
X67290000Y68500000D02*
X65040000Y68500000D01*
G75*
G02*
X64790000Y68750000I0J250000D01*
G01*
X64790000Y71300000D01*
G75*
G02*
X65040000Y71550000I250000J0D01*
G01*
X67290000Y71550000D01*
G75*
G02*
X67540000Y71300000I0J-250000D01*
G01*
X67540000Y68750000D01*
G75*
G02*
X67290000Y68500000I-250000J0D01*
G01*
G37*
G04 #@! TD.AperFunction*
G04 #@! TA.AperFunction,SMDPad,CuDef*
G36*
G01*
X70340000Y68500000D02*
X68090000Y68500000D01*
G75*
G02*
X67840000Y68750000I0J250000D01*
G01*
X67840000Y71300000D01*
G75*
G02*
X68090000Y71550000I250000J0D01*
G01*
X70340000Y71550000D01*
G75*
G02*
X70590000Y71300000I0J-250000D01*
G01*
X70590000Y68750000D01*
G75*
G02*
X70340000Y68500000I-250000J0D01*
G01*
G37*
G04 #@! TD.AperFunction*
G04 #@! TA.AperFunction,SMDPad,CuDef*
G36*
G01*
X70340003Y68500000D02*
X65039997Y68500000D01*
G75*
G02*
X64790000Y68749997I0J249997D01*
G01*
X64790000Y74650003D01*
G75*
G02*
X65039997Y74900000I249997J0D01*
G01*
X70340003Y74900000D01*
G75*
G02*
X70590000Y74650003I0J-249997D01*
G01*
X70590000Y68749997D01*
G75*
G02*
X70340003Y68500000I-249997J0D01*
G01*
G37*
G04 #@! TD.AperFunction*
G04 #@! TA.AperFunction,SMDPad,CuDef*
G36*
G01*
X67290000Y71850000D02*
X65040000Y71850000D01*
G75*
G02*
X64790000Y72100000I0J250000D01*
G01*
X64790000Y74650000D01*
G75*
G02*
X65040000Y74900000I250000J0D01*
G01*
X67290000Y74900000D01*
G75*
G02*
X67540000Y74650000I0J-250000D01*
G01*
X67540000Y72100000D01*
G75*
G02*
X67290000Y71850000I-250000J0D01*
G01*
G37*
G04 #@! TD.AperFunction*
G04 #@! TA.AperFunction,SMDPad,CuDef*
G36*
G01*
X70340000Y71850000D02*
X68090000Y71850000D01*
G75*
G02*
X67840000Y72100000I0J250000D01*
G01*
X67840000Y74650000D01*
G75*
G02*
X68090000Y74900000I250000J0D01*
G01*
X70340000Y74900000D01*
G75*
G02*
X70590000Y74650000I0J-250000D01*
G01*
X70590000Y72100000D01*
G75*
G02*
X70340000Y71850000I-250000J0D01*
G01*
G37*
G04 #@! TD.AperFunction*
G04 #@! TO.P,Q3,3,E*
G04 #@! TO.N,PIN114*
G04 #@! TA.AperFunction,SMDPad,CuDef*
G36*
G01*
X70320000Y64300000D02*
X69620000Y64300000D01*
G75*
G02*
X69370000Y64550000I0J250000D01*
G01*
X69370000Y66250000D01*
G75*
G02*
X69620000Y66500000I250000J0D01*
G01*
X70320000Y66500000D01*
G75*
G02*
X70570000Y66250000I0J-250000D01*
G01*
X70570000Y64550000D01*
G75*
G02*
X70320000Y64300000I-250000J0D01*
G01*
G37*
G04 #@! TD.AperFunction*
G04 #@! TD*
G04 #@! TO.P,R4,1,1*
G04 #@! TO.N,Net-(M1-PG_5VP)*
X52800000Y27329999D03*
G04 #@! TA.AperFunction,SMDPad,CuDef*
G36*
G01*
X52175000Y26875000D02*
X53425000Y26875000D01*
G75*
G02*
X53525000Y26775000I0J-100000D01*
G01*
X53525000Y25975000D01*
G75*
G02*
X53425000Y25875000I-100000J0D01*
G01*
X52175000Y25875000D01*
G75*
G02*
X52075000Y25975000I0J100000D01*
G01*
X52075000Y26775000D01*
G75*
G02*
X52175000Y26875000I100000J0D01*
G01*
G37*
G04 #@! TD.AperFunction*
G04 #@! TO.P,R4,2,2*
G04 #@! TO.N,/PG_5VP*
G04 #@! TA.AperFunction,SMDPad,CuDef*
G36*
G01*
X52175000Y24974978D02*
X53425000Y24974978D01*
G75*
G02*
X53525000Y24874978I0J-100000D01*
G01*
X53525000Y24074978D01*
G75*
G02*
X53425000Y23974978I-100000J0D01*
G01*
X52175000Y23974978D01*
G75*
G02*
X52075000Y24074978I0J100000D01*
G01*
X52075000Y24874978D01*
G75*
G02*
X52175000Y24974978I100000J0D01*
G01*
G37*
G04 #@! TD.AperFunction*
X52800000Y23519999D03*
G04 #@! TD*
G04 #@! TO.P,R9,1*
G04 #@! TO.N,PIN89*
G04 #@! TA.AperFunction,SMDPad,CuDef*
G36*
G01*
X102849999Y51250000D02*
X102849999Y52500000D01*
G75*
G02*
X102949999Y52600000I100000J0D01*
G01*
X103749999Y52600000D01*
G75*
G02*
X103849999Y52500000I0J-100000D01*
G01*
X103849999Y51250000D01*
G75*
G02*
X103749999Y51150000I-100000J0D01*
G01*
X102949999Y51150000D01*
G75*
G02*
X102849999Y51250000I0J100000D01*
G01*
G37*
G04 #@! TD.AperFunction*
G04 #@! TO.P,R9,2*
G04 #@! TO.N,+5VA*
G04 #@! TA.AperFunction,SMDPad,CuDef*
G36*
G01*
X104750021Y51250000D02*
X104750021Y52500000D01*
G75*
G02*
X104850021Y52600000I100000J0D01*
G01*
X105650021Y52600000D01*
G75*
G02*
X105750021Y52500000I0J-100000D01*
G01*
X105750021Y51250000D01*
G75*
G02*
X105650021Y51150000I-100000J0D01*
G01*
X104850021Y51150000D01*
G75*
G02*
X104750021Y51250000I0J100000D01*
G01*
G37*
G04 #@! TD.AperFunction*
G04 #@! TD*
G04 #@! TO.P,F3,1,1*
G04 #@! TO.N,PIN120*
X118250000Y51375000D03*
G04 #@! TA.AperFunction,SMDPad,CuDef*
G36*
G01*
X116905010Y52275000D02*
X117595010Y52275000D01*
G75*
G02*
X117825010Y52045000I0J-230000D01*
G01*
X117825010Y50705000D01*
G75*
G02*
X117595010Y50475000I-230000J0D01*
G01*
X116905010Y50475000D01*
G75*
G02*
X116675010Y50705000I0J230000D01*
G01*
X116675010Y52045000D01*
G75*
G02*
X116905010Y52275000I230000J0D01*
G01*
G37*
G04 #@! TD.AperFunction*
G04 #@! TO.P,F3,2,2*
G04 #@! TO.N,Net-(F3-Pad2)*
G04 #@! TA.AperFunction,SMDPad,CuDef*
G36*
G01*
X114004990Y52275000D02*
X114694990Y52275000D01*
G75*
G02*
X114924990Y52045000I0J-230000D01*
G01*
X114924990Y50705000D01*
G75*
G02*
X114694990Y50475000I-230000J0D01*
G01*
X114004990Y50475000D01*
G75*
G02*
X113774990Y50705000I0J230000D01*
G01*
X113774990Y52045000D01*
G75*
G02*
X114004990Y52275000I230000J0D01*
G01*
G37*
G04 #@! TD.AperFunction*
X113350000Y51375000D03*
G04 #@! TD*
G04 #@! TO.P,F1,1,1*
G04 #@! TO.N,PIN108*
X30800000Y75325000D03*
G04 #@! TA.AperFunction,SMDPad,CuDef*
G36*
G01*
X29900000Y73980010D02*
X29900000Y74670010D01*
G75*
G02*
X30130000Y74900010I230000J0D01*
G01*
X31470000Y74900010D01*
G75*
G02*
X31700000Y74670010I0J-230000D01*
G01*
X31700000Y73980010D01*
G75*
G02*
X31470000Y73750010I-230000J0D01*
G01*
X30130000Y73750010D01*
G75*
G02*
X29900000Y73980010I0J230000D01*
G01*
G37*
G04 #@! TD.AperFunction*
G04 #@! TO.P,F1,2,2*
G04 #@! TO.N,/IN_VIGN*
G04 #@! TA.AperFunction,SMDPad,CuDef*
G36*
G01*
X29900000Y71079990D02*
X29900000Y71769990D01*
G75*
G02*
X30130000Y71999990I230000J0D01*
G01*
X31470000Y71999990D01*
G75*
G02*
X31700000Y71769990I0J-230000D01*
G01*
X31700000Y71079990D01*
G75*
G02*
X31470000Y70849990I-230000J0D01*
G01*
X30130000Y70849990D01*
G75*
G02*
X29900000Y71079990I0J230000D01*
G01*
G37*
G04 #@! TD.AperFunction*
X30800000Y70425000D03*
G04 #@! TD*
G04 #@! TO.P,Q7,1,G*
G04 #@! TO.N,Net-(M6-LED_GREEN)*
G04 #@! TA.AperFunction,SMDPad,CuDef*
G36*
G01*
X142500000Y75200000D02*
X142200000Y75200000D01*
G75*
G02*
X142050000Y75350000I0J150000D01*
G01*
X142050000Y76525000D01*
G75*
G02*
X142200000Y76675000I150000J0D01*
G01*
X142500000Y76675000D01*
G75*
G02*
X142650000Y76525000I0J-150000D01*
G01*
X142650000Y75350000D01*
G75*
G02*
X142500000Y75200000I-150000J0D01*
G01*
G37*
G04 #@! TD.AperFunction*
G04 #@! TO.P,Q7,2,S*
G04 #@! TO.N,PIN114*
G04 #@! TA.AperFunction,SMDPad,CuDef*
G36*
G01*
X144400000Y75200000D02*
X144100000Y75200000D01*
G75*
G02*
X143950000Y75350000I0J150000D01*
G01*
X143950000Y76525000D01*
G75*
G02*
X144100000Y76675000I150000J0D01*
G01*
X144400000Y76675000D01*
G75*
G02*
X144550000Y76525000I0J-150000D01*
G01*
X144550000Y75350000D01*
G75*
G02*
X144400000Y75200000I-150000J0D01*
G01*
G37*
G04 #@! TD.AperFunction*
G04 #@! TO.P,Q7,3,D*
G04 #@! TO.N,Net-(Q7-D)*
G04 #@! TA.AperFunction,SMDPad,CuDef*
G36*
G01*
X143450000Y77075000D02*
X143150000Y77075000D01*
G75*
G02*
X143000000Y77225000I0J150000D01*
G01*
X143000000Y78400000D01*
G75*
G02*
X143150000Y78550000I150000J0D01*
G01*
X143450000Y78550000D01*
G75*
G02*
X143600000Y78400000I0J-150000D01*
G01*
X143600000Y77225000D01*
G75*
G02*
X143450000Y77075000I-150000J0D01*
G01*
G37*
G04 #@! TD.AperFunction*
G04 #@! TD*
G04 #@! TO.P,J21,1,Pin_1*
G04 #@! TO.N,/VBUS*
G04 #@! TA.AperFunction,ComponentPad*
G36*
G01*
X34450000Y14050000D02*
X34450000Y15400000D01*
G75*
G02*
X34700000Y15650000I250000J0D01*
G01*
X35900000Y15650000D01*
G75*
G02*
X36150000Y15400000I0J-250000D01*
G01*
X36150000Y14050000D01*
G75*
G02*
X35900000Y13800000I-250000J0D01*
G01*
X34700000Y13800000D01*
G75*
G02*
X34450000Y14050000I0J250000D01*
G01*
G37*
G04 #@! TD.AperFunction*
D32*
G04 #@! TO.P,J21,2,Pin_2*
G04 #@! TO.N,/USB-*
X37800000Y14725000D03*
G04 #@! TO.P,J21,3,Pin_3*
G04 #@! TO.N,/USB+*
X40300000Y14725000D03*
G04 #@! TO.P,J21,4,Pin_4*
G04 #@! TO.N,PIN114*
X42800000Y14725000D03*
G04 #@! TO.P,J21,5,Pin_5*
X45300000Y14725000D03*
G04 #@! TD*
G04 #@! TO.P,R15,1*
G04 #@! TO.N,Net-(M6-LED_GREEN)*
G04 #@! TA.AperFunction,SMDPad,CuDef*
G36*
G01*
X142150000Y72485000D02*
X142150000Y73265000D01*
G75*
G02*
X142220000Y73335000I70000J0D01*
G01*
X142780000Y73335000D01*
G75*
G02*
X142850000Y73265000I0J-70000D01*
G01*
X142850000Y72485000D01*
G75*
G02*
X142780000Y72415000I-70000J0D01*
G01*
X142220000Y72415000D01*
G75*
G02*
X142150000Y72485000I0J70000D01*
G01*
G37*
G04 #@! TD.AperFunction*
G04 #@! TO.P,R15,2*
G04 #@! TO.N,PIN114*
G04 #@! TA.AperFunction,SMDPad,CuDef*
G36*
G01*
X143750000Y72485000D02*
X143750000Y73265000D01*
G75*
G02*
X143820000Y73335000I70000J0D01*
G01*
X144380000Y73335000D01*
G75*
G02*
X144450000Y73265000I0J-70000D01*
G01*
X144450000Y72485000D01*
G75*
G02*
X144380000Y72415000I-70000J0D01*
G01*
X143820000Y72415000D01*
G75*
G02*
X143750000Y72485000I0J70000D01*
G01*
G37*
G04 #@! TD.AperFunction*
G04 #@! TD*
G04 #@! TO.P,C30,1*
G04 #@! TO.N,PIN114*
G04 #@! TA.AperFunction,SMDPad,CuDef*
G36*
G01*
X37225000Y70215000D02*
X37225000Y69535000D01*
G75*
G02*
X37140000Y69450000I-85000J0D01*
G01*
X36460000Y69450000D01*
G75*
G02*
X36375000Y69535000I0J85000D01*
G01*
X36375000Y70215000D01*
G75*
G02*
X36460000Y70300000I85000J0D01*
G01*
X37140000Y70300000D01*
G75*
G02*
X37225000Y70215000I0J-85000D01*
G01*
G37*
G04 #@! TD.AperFunction*
G04 #@! TO.P,C30,2*
G04 #@! TO.N,Net-(U8-T+)*
G04 #@! TA.AperFunction,SMDPad,CuDef*
G36*
G01*
X35644998Y70215000D02*
X35644998Y69535000D01*
G75*
G02*
X35559998Y69450000I-85000J0D01*
G01*
X34879998Y69450000D01*
G75*
G02*
X34794998Y69535000I0J85000D01*
G01*
X34794998Y70215000D01*
G75*
G02*
X34879998Y70300000I85000J0D01*
G01*
X35559998Y70300000D01*
G75*
G02*
X35644998Y70215000I0J-85000D01*
G01*
G37*
G04 #@! TD.AperFunction*
G04 #@! TD*
G04 #@! TO.P,D6,1,K*
G04 #@! TO.N,Net-(U7-T-)*
G04 #@! TA.AperFunction,SMDPad,CuDef*
G36*
G01*
X36600000Y68050000D02*
X36900000Y68050000D01*
G75*
G02*
X37050000Y67900000I0J-150000D01*
G01*
X37050000Y66725000D01*
G75*
G02*
X36900000Y66575000I-150000J0D01*
G01*
X36600000Y66575000D01*
G75*
G02*
X36450000Y66725000I0J150000D01*
G01*
X36450000Y67900000D01*
G75*
G02*
X36600000Y68050000I150000J0D01*
G01*
G37*
G04 #@! TD.AperFunction*
G04 #@! TO.P,D6,2,K*
G04 #@! TO.N,Net-(U7-T+)*
G04 #@! TA.AperFunction,SMDPad,CuDef*
G36*
G01*
X34700000Y68050000D02*
X35000000Y68050000D01*
G75*
G02*
X35150000Y67900000I0J-150000D01*
G01*
X35150000Y66725000D01*
G75*
G02*
X35000000Y66575000I-150000J0D01*
G01*
X34700000Y66575000D01*
G75*
G02*
X34550000Y66725000I0J150000D01*
G01*
X34550000Y67900000D01*
G75*
G02*
X34700000Y68050000I150000J0D01*
G01*
G37*
G04 #@! TD.AperFunction*
G04 #@! TO.P,D6,3,A*
G04 #@! TO.N,PIN114*
G04 #@! TA.AperFunction,SMDPad,CuDef*
G36*
G01*
X35650000Y66175000D02*
X35950000Y66175000D01*
G75*
G02*
X36100000Y66025000I0J-150000D01*
G01*
X36100000Y64850000D01*
G75*
G02*
X35950000Y64700000I-150000J0D01*
G01*
X35650000Y64700000D01*
G75*
G02*
X35500000Y64850000I0J150000D01*
G01*
X35500000Y66025000D01*
G75*
G02*
X35650000Y66175000I150000J0D01*
G01*
G37*
G04 #@! TD.AperFunction*
G04 #@! TD*
D14*
G04 #@! TO.P,M6,E1,V5A_SWITCHABLE*
G04 #@! TO.N,+5VA*
X55975005Y41450005D03*
G04 #@! TO.P,M6,E2,GNDA*
G04 #@! TO.N,unconnected-(M6-GNDA-PadE2)*
X55974995Y37150005D03*
G04 #@! TO.P,M6,E3,I2C_SCL_(PB10)*
G04 #@! TO.N,unconnected-(M6-I2C_SCL_(PB10)-PadE3)*
X55974995Y36350015D03*
G04 #@! TO.P,M6,E4,I2C_SDA_(PB11)*
G04 #@! TO.N,unconnected-(M6-I2C_SDA_(PB11)-PadE4)*
X55974995Y35550005D03*
G04 #@! TO.P,M6,E5,IN_VIGN_(PA5)*
G04 #@! TO.N,/VIGN*
X55974995Y34750005D03*
G04 #@! TO.P,M6,E6,SPI2_CS_/_CAN2_RX_(PB12)*
G04 #@! TO.N,E6INJ7CANRX*
X55974995Y33950005D03*
G04 #@! TO.P,M6,E7,SPI2_SCK_/_CAN2_TX_(PB13)*
G04 #@! TO.N,E7INJ8CANTX*
X55974995Y33150005D03*
G04 #@! TO.P,M6,E8,SPI2_MISO_(PB14)*
G04 #@! TO.N,DC1_DIS_W1*
X55974995Y32350005D03*
G04 #@! TO.P,M6,E9,SPI2_MOSI_(PB15)*
G04 #@! TO.N,/DC2_DIR*
X55974995Y31550005D03*
G04 #@! TO.P,M6,E10,OUT_INJ8_(PD12)*
G04 #@! TO.N,/LS2*
X55974995Y30750005D03*
G04 #@! TO.P,M6,E11,OUT_INJ7_(PD15)*
G04 #@! TO.N,/LS1*
X55974995Y29950005D03*
G04 #@! TO.P,M6,E12,OUT_INJ6_(PA8)*
G04 #@! TO.N,/INJ6*
X55974995Y29150005D03*
G04 #@! TO.P,M6,E13,OUT_INJ5_(PD2)*
G04 #@! TO.N,/INJ5*
X55974995Y28350005D03*
G04 #@! TO.P,M6,E14,OUT_INJ4_(PD10)*
G04 #@! TO.N,/INJ4*
X55974995Y27550005D03*
G04 #@! TO.P,M6,E15,OUT_INJ3_(PD11)*
G04 #@! TO.N,/INJ3*
X55974995Y26750005D03*
G04 #@! TO.P,M6,E16,OUT_INJ2_(PA9)*
G04 #@! TO.N,/INJ2*
X55975005Y25950015D03*
G04 #@! TO.P,M6,E17,OUT_INJ1_(PD3)*
G04 #@! TO.N,/INJ1*
X55974995Y25150005D03*
G04 #@! TO.P,M6,E18,OUT_PWM1_(PD13)*
G04 #@! TO.N,/LS3*
X55974995Y23750005D03*
G04 #@! TO.P,M6,E19,OUT_PWM2_(PC6)*
G04 #@! TO.N,/LS4*
X55974995Y22950015D03*
G04 #@! TO.P,M6,E20,OUT_PWM3_(PC7)*
G04 #@! TO.N,/DC1_PWM*
X55974995Y22150015D03*
G04 #@! TO.P,M6,E21,OUT_PWM4_(PC8)*
G04 #@! TO.N,/DC1_DIR*
X55974995Y21350015D03*
G04 #@! TO.P,M6,E22,OUT_PWM5_(PC9)*
G04 #@! TO.N,/DC2_PWM*
X55974995Y20550015D03*
G04 #@! TO.P,M6,E23,OUT_PWM6_(PD14)*
G04 #@! TO.N,/VR_DISCRETE_THR*
X55974995Y19750005D03*
D33*
G04 #@! TO.P,M6,G,GND*
G04 #@! TO.N,PIN114*
X89575005Y14900015D03*
D34*
X89575005Y17950005D03*
D33*
X89575005Y21000015D03*
D35*
X89575005Y25450005D03*
D36*
X89575005Y39100005D03*
D37*
X89575005Y47100005D03*
D38*
X87774995Y48150015D03*
D39*
X85675005Y12350015D03*
D40*
X79625005Y12350015D03*
D41*
X76125005Y12350015D03*
D38*
X66375005Y12350015D03*
D39*
X58875005Y48150015D03*
D42*
X55774995Y15749995D03*
D34*
X55774995Y24450015D03*
D43*
X55774995Y39300015D03*
D44*
X55774995Y45100015D03*
D14*
G04 #@! TO.P,M6,N1,VBUS*
G04 #@! TO.N,/VBUS*
X56374995Y12550005D03*
G04 #@! TO.P,M6,N2,USBM_(PA11)*
G04 #@! TO.N,/USB-*
X57174995Y12550005D03*
G04 #@! TO.P,M6,N3,USBP_(PA12)*
G04 #@! TO.N,/USB+*
X57974995Y12550005D03*
G04 #@! TO.P,M6,N4,USBID_(PA10)*
G04 #@! TO.N,/DC2_DIS*
X58775005Y12550005D03*
G04 #@! TO.P,M6,N5,SWDIO_(PA13)*
G04 #@! TO.N,unconnected-(M6-SWDIO_(PA13)-PadN5)*
X59574995Y12550005D03*
G04 #@! TO.P,M6,N6,SWCLK_(PA14)*
G04 #@! TO.N,unconnected-(M6-SWCLK_(PA14)-PadN6)*
X60374995Y12550005D03*
G04 #@! TO.P,M6,N7,nReset*
G04 #@! TO.N,unconnected-(M6-nReset-PadN7)*
X61174995Y12550005D03*
G04 #@! TO.P,M6,N8,SWO_(PB3)*
G04 #@! TO.N,unconnected-(M6-SWO_(PB3)-PadN8)*
X61975005Y12550005D03*
G04 #@! TO.P,M6,N9,SPI3_CS_(PA15)*
G04 #@! TO.N,/EGT/SPI_CS*
X62774995Y12550015D03*
G04 #@! TO.P,M6,N10,SPI3_SCK_(PC10)*
G04 #@! TO.N,/SCK3*
X63574995Y12550015D03*
G04 #@! TO.P,M6,N11,SPI3_MISO_(PC11)*
G04 #@! TO.N,/MISO3*
X64374995Y12550015D03*
G04 #@! TO.P,M6,N12,SPI3_MOSI_(PC12)*
G04 #@! TO.N,/PG_5VP*
X65174995Y12550015D03*
G04 #@! TO.P,M6,N13,UART2_TX_(PD5)*
G04 #@! TO.N,PIN7*
X67575005Y12550015D03*
G04 #@! TO.P,M6,N14,UART2_RX_(PD6)*
G04 #@! TO.N,PIN6*
X68375005Y12550015D03*
G04 #@! TO.P,M6,N14a,LED_GREEN*
G04 #@! TO.N,Net-(M6-LED_GREEN)*
X69174995Y12550005D03*
G04 #@! TO.P,M6,N14b,LED_YELLOW*
G04 #@! TO.N,unconnected-(M6-LED_YELLOW-PadN14b)*
X69975005Y12550005D03*
G04 #@! TO.P,M6,N15,V33_SWITCHABLE*
G04 #@! TO.N,+3.3VA*
X70775005Y12550005D03*
G04 #@! TO.P,M6,N16,BOOT0*
G04 #@! TO.N,unconnected-(M6-BOOT0-PadN16)*
X71575005Y12550005D03*
G04 #@! TO.P,M6,N17,VBAT*
G04 #@! TO.N,/VBAT*
X72375005Y12550005D03*
G04 #@! TO.P,M6,N18,UART8_RX_(PE0)*
G04 #@! TO.N,/VR_DISCRETE*
X73175005Y12550015D03*
G04 #@! TO.P,M6,N19,UART8_TX_(PE1)*
G04 #@! TO.N,/VR_MAX9924*
X73975005Y12550015D03*
G04 #@! TO.P,M6,N20,OUT_PWR_EN_(PE10)*
G04 #@! TO.N,/PWR_EN*
X78275005Y12550015D03*
G04 #@! TO.P,M6,N21,V33*
G04 #@! TO.N,+3.3V*
X80975005Y12550015D03*
G04 #@! TO.P,M6,N22,VCC*
G04 #@! TO.N,+5V*
X81974995Y12550015D03*
G04 #@! TO.P,M6,N23,V33*
G04 #@! TO.N,unconnected-(M6-V33-PadN23)*
X89375005Y12550015D03*
G04 #@! TO.P,M6,S1,IN_D4_(PE15)*
G04 #@! TO.N,PIN89*
X62574985Y47950015D03*
G04 #@! TO.P,M6,S2,IN_D3_(PE14)*
G04 #@! TO.N,PIN34*
X63774995Y47950015D03*
G04 #@! TO.P,M6,S3,IN_D2_(PE13)*
G04 #@! TO.N,PIN35*
X64974995Y47950015D03*
G04 #@! TO.P,M6,S4,IN_D1_(PE12)*
G04 #@! TO.N,PIN36*
X66174995Y47950015D03*
G04 #@! TO.P,M6,S5,VREF2*
G04 #@! TO.N,unconnected-(M6-VREF2-PadS5)*
X67374995Y47950015D03*
G04 #@! TO.P,M6,S6,IN_AUX4_(PC5)*
G04 #@! TO.N,/IN_VMAIN*
X68574995Y47950015D03*
G04 #@! TO.P,M6,S7,IN_AUX3_(PA7)*
G04 #@! TO.N,/IN_AUX3*
X69774995Y47950015D03*
G04 #@! TO.P,M6,S8,IN_AUX2_(PC4/PE9)*
G04 #@! TO.N,PIN91*
X70974995Y47950015D03*
G04 #@! TO.P,M6,S9,IN_AUX1_(PB0)*
G04 #@! TO.N,PIN39*
X72174995Y47950015D03*
G04 #@! TO.P,M6,S10,IN_O2S2_(PA1)*
G04 #@! TO.N,PIN41*
X73374995Y47950015D03*
G04 #@! TO.P,M6,S11,IN_O2S_/_CAN_WAKEUP_(PA0)*
G04 #@! TO.N,PIN40*
X74574995Y47950015D03*
G04 #@! TO.P,M6,S12,IN_MAP2_(PC1)*
G04 #@! TO.N,/INTERNAL_MAP*
X75774995Y47950015D03*
G04 #@! TO.P,M6,S13,IN_MAP1_(PC0)*
G04 #@! TO.N,PIN37*
X76974995Y47950015D03*
G04 #@! TO.P,M6,S14,IN_CRANK_(PB1)*
G04 #@! TO.N,PIN84*
X78174995Y47950015D03*
G04 #@! TO.P,M6,S15,IN_KNOCK_(PA2)*
G04 #@! TO.N,/ADC3*
X79374995Y47950015D03*
G04 #@! TO.P,M6,S16,IN_CAM_(PA6)*
G04 #@! TO.N,PIN85*
X80574995Y47950015D03*
G04 #@! TO.P,M6,S17,IN_VSS_(PE11)*
G04 #@! TO.N,PIN42*
X81774995Y47950015D03*
G04 #@! TO.P,M6,S18,IN_TPS_(PA4)*
G04 #@! TO.N,PIN38*
X82975005Y47950015D03*
G04 #@! TO.P,M6,S19,IN_PPS_(PA3)*
G04 #@! TO.N,PIN90*
X84175005Y47950015D03*
G04 #@! TO.P,M6,S20,IN_IAT_(PC3)*
G04 #@! TO.N,PIN63*
X85375005Y47950015D03*
G04 #@! TO.P,M6,S21,IN_CLT_(PC2)*
G04 #@! TO.N,PIN65*
X86575005Y47950015D03*
G04 #@! TO.P,M6,S22,VREF1*
G04 #@! TO.N,/VREF1*
X88975005Y47950015D03*
G04 #@! TO.P,M6,W1,GNDA*
G04 #@! TO.N,PIN113*
X89375005Y45450005D03*
G04 #@! TO.P,M6,W2,V5A_SWITCHABLE*
G04 #@! TO.N,+5VA*
X89375005Y44450005D03*
G04 #@! TO.P,M6,W3,IGN8_(PE6)*
G04 #@! TO.N,/LS_HOT2*
X89375005Y33750015D03*
G04 #@! TO.P,M6,W4,IGN7_(PB9)*
G04 #@! TO.N,/LS_HOT1*
X89375005Y32750005D03*
G04 #@! TO.P,M6,W5,IGN6_(PB8)*
G04 #@! TO.N,/IGN6*
X89375005Y31750015D03*
G04 #@! TO.P,M6,W6,IGN5_(PE2)*
G04 #@! TO.N,/IGN5*
X89375005Y30750015D03*
G04 #@! TO.P,M6,W7,IGN4_(PE3)*
G04 #@! TO.N,/IGN4*
X89375005Y29750015D03*
G04 #@! TO.P,M6,W8,IGN3_(PE4)*
G04 #@! TO.N,/IGN3*
X89375005Y28750015D03*
G04 #@! TO.P,M6,W9,IGN2_(PE5)*
G04 #@! TO.N,/IGN2*
X89375005Y27750015D03*
G04 #@! TO.P,M6,W10,IGN1_(PC13)*
G04 #@! TO.N,/IGN1*
X89375005Y26750015D03*
G04 #@! TO.P,M6,W11,CANH*
G04 #@! TO.N,PIN82*
X89375005Y24150015D03*
G04 #@! TO.P,M6,W12,CANL*
G04 #@! TO.N,PIN83*
X89375005Y23350015D03*
G04 #@! TO.P,M6,W13,V33_REF*
G04 #@! TO.N,unconnected-(M6-V33_REF-PadW13)*
X89375005Y18650005D03*
G04 #@! TO.P,M6,W14,V5A_SWITCHABLE*
G04 #@! TO.N,unconnected-(M6-V5A_SWITCHABLE-PadW14)*
X89375005Y17250015D03*
G04 #@! TD*
G04 #@! TO.P,U3,1,IN1*
G04 #@! TO.N,Net-(U3-IN1)*
G04 #@! TA.AperFunction,SMDPad,CuDef*
G36*
G01*
X75045000Y55425000D02*
X74745000Y55425000D01*
G75*
G02*
X74595000Y55575000I0J150000D01*
G01*
X74595000Y57225000D01*
G75*
G02*
X74745000Y57375000I150000J0D01*
G01*
X75045000Y57375000D01*
G75*
G02*
X75195000Y57225000I0J-150000D01*
G01*
X75195000Y55575000D01*
G75*
G02*
X75045000Y55425000I-150000J0D01*
G01*
G37*
G04 #@! TD.AperFunction*
G04 #@! TO.P,U3,2,STATUS1*
G04 #@! TO.N,unconnected-(U3-STATUS1-Pad2)*
G04 #@! TA.AperFunction,SMDPad,CuDef*
G36*
G01*
X76315000Y55425000D02*
X76015000Y55425000D01*
G75*
G02*
X75865000Y55575000I0J150000D01*
G01*
X75865000Y57225000D01*
G75*
G02*
X76015000Y57375000I150000J0D01*
G01*
X76315000Y57375000D01*
G75*
G02*
X76465000Y57225000I0J-150000D01*
G01*
X76465000Y55575000D01*
G75*
G02*
X76315000Y55425000I-150000J0D01*
G01*
G37*
G04 #@! TD.AperFunction*
G04 #@! TO.P,U3,3,IN2*
G04 #@! TO.N,Net-(U3-IN2)*
G04 #@! TA.AperFunction,SMDPad,CuDef*
G36*
G01*
X77585000Y55425000D02*
X77285000Y55425000D01*
G75*
G02*
X77135000Y55575000I0J150000D01*
G01*
X77135000Y57225000D01*
G75*
G02*
X77285000Y57375000I150000J0D01*
G01*
X77585000Y57375000D01*
G75*
G02*
X77735000Y57225000I0J-150000D01*
G01*
X77735000Y55575000D01*
G75*
G02*
X77585000Y55425000I-150000J0D01*
G01*
G37*
G04 #@! TD.AperFunction*
G04 #@! TO.P,U3,4,STATUS2*
G04 #@! TO.N,unconnected-(U3-STATUS2-Pad4)*
G04 #@! TA.AperFunction,SMDPad,CuDef*
G36*
G01*
X78855000Y55425000D02*
X78555000Y55425000D01*
G75*
G02*
X78405000Y55575000I0J150000D01*
G01*
X78405000Y57225000D01*
G75*
G02*
X78555000Y57375000I150000J0D01*
G01*
X78855000Y57375000D01*
G75*
G02*
X79005000Y57225000I0J-150000D01*
G01*
X79005000Y55575000D01*
G75*
G02*
X78855000Y55425000I-150000J0D01*
G01*
G37*
G04 #@! TD.AperFunction*
G04 #@! TO.P,U3,5,S2*
G04 #@! TO.N,PIN114*
G04 #@! TA.AperFunction,SMDPad,CuDef*
G36*
G01*
X78855000Y60375000D02*
X78555000Y60375000D01*
G75*
G02*
X78405000Y60525000I0J150000D01*
G01*
X78405000Y62175000D01*
G75*
G02*
X78555000Y62325000I150000J0D01*
G01*
X78855000Y62325000D01*
G75*
G02*
X79005000Y62175000I0J-150000D01*
G01*
X79005000Y60525000D01*
G75*
G02*
X78855000Y60375000I-150000J0D01*
G01*
G37*
G04 #@! TD.AperFunction*
G04 #@! TO.P,U3,6,D2*
G04 #@! TO.N,PIN47*
G04 #@! TA.AperFunction,SMDPad,CuDef*
G36*
G01*
X77585000Y60375000D02*
X77285000Y60375000D01*
G75*
G02*
X77135000Y60525000I0J150000D01*
G01*
X77135000Y62175000D01*
G75*
G02*
X77285000Y62325000I150000J0D01*
G01*
X77585000Y62325000D01*
G75*
G02*
X77735000Y62175000I0J-150000D01*
G01*
X77735000Y60525000D01*
G75*
G02*
X77585000Y60375000I-150000J0D01*
G01*
G37*
G04 #@! TD.AperFunction*
G04 #@! TO.P,U3,7,S1*
G04 #@! TO.N,PIN114*
G04 #@! TA.AperFunction,SMDPad,CuDef*
G36*
G01*
X76315000Y60375000D02*
X76015000Y60375000D01*
G75*
G02*
X75865000Y60525000I0J150000D01*
G01*
X75865000Y62175000D01*
G75*
G02*
X76015000Y62325000I150000J0D01*
G01*
X76315000Y62325000D01*
G75*
G02*
X76465000Y62175000I0J-150000D01*
G01*
X76465000Y60525000D01*
G75*
G02*
X76315000Y60375000I-150000J0D01*
G01*
G37*
G04 #@! TD.AperFunction*
G04 #@! TO.P,U3,8,D1*
G04 #@! TO.N,PIN46*
G04 #@! TA.AperFunction,SMDPad,CuDef*
G36*
G01*
X75045000Y60375000D02*
X74745000Y60375000D01*
G75*
G02*
X74595000Y60525000I0J150000D01*
G01*
X74595000Y62175000D01*
G75*
G02*
X74745000Y62325000I150000J0D01*
G01*
X75045000Y62325000D01*
G75*
G02*
X75195000Y62175000I0J-150000D01*
G01*
X75195000Y60525000D01*
G75*
G02*
X75045000Y60375000I-150000J0D01*
G01*
G37*
G04 #@! TD.AperFunction*
G04 #@! TD*
G04 #@! TO.P,Q5,1,G*
G04 #@! TO.N,Net-(Q5-G)*
G04 #@! TA.AperFunction,SMDPad,CuDef*
G36*
G01*
X49370000Y64300000D02*
X48670000Y64300000D01*
G75*
G02*
X48420000Y64550000I0J250000D01*
G01*
X48420000Y66250000D01*
G75*
G02*
X48670000Y66500000I250000J0D01*
G01*
X49370000Y66500000D01*
G75*
G02*
X49620000Y66250000I0J-250000D01*
G01*
X49620000Y64550000D01*
G75*
G02*
X49370000Y64300000I-250000J0D01*
G01*
G37*
G04 #@! TD.AperFunction*
G04 #@! TO.P,Q5,2,C*
G04 #@! TO.N,PIN11*
G04 #@! TA.AperFunction,SMDPad,CuDef*
G36*
G01*
X50900000Y68500000D02*
X48650000Y68500000D01*
G75*
G02*
X48400000Y68750000I0J250000D01*
G01*
X48400000Y71300000D01*
G75*
G02*
X48650000Y71550000I250000J0D01*
G01*
X50900000Y71550000D01*
G75*
G02*
X51150000Y71300000I0J-250000D01*
G01*
X51150000Y68750000D01*
G75*
G02*
X50900000Y68500000I-250000J0D01*
G01*
G37*
G04 #@! TD.AperFunction*
G04 #@! TA.AperFunction,SMDPad,CuDef*
G36*
G01*
X53950000Y68500000D02*
X51700000Y68500000D01*
G75*
G02*
X51450000Y68750000I0J250000D01*
G01*
X51450000Y71300000D01*
G75*
G02*
X51700000Y71550000I250000J0D01*
G01*
X53950000Y71550000D01*
G75*
G02*
X54200000Y71300000I0J-250000D01*
G01*
X54200000Y68750000D01*
G75*
G02*
X53950000Y68500000I-250000J0D01*
G01*
G37*
G04 #@! TD.AperFunction*
G04 #@! TA.AperFunction,SMDPad,CuDef*
G36*
G01*
X53950003Y68500000D02*
X48649997Y68500000D01*
G75*
G02*
X48400000Y68749997I0J249997D01*
G01*
X48400000Y74650003D01*
G75*
G02*
X48649997Y74900000I249997J0D01*
G01*
X53950003Y74900000D01*
G75*
G02*
X54200000Y74650003I0J-249997D01*
G01*
X54200000Y68749997D01*
G75*
G02*
X53950003Y68500000I-249997J0D01*
G01*
G37*
G04 #@! TD.AperFunction*
G04 #@! TA.AperFunction,SMDPad,CuDef*
G36*
G01*
X50900000Y71850000D02*
X48650000Y71850000D01*
G75*
G02*
X48400000Y72100000I0J250000D01*
G01*
X48400000Y74650000D01*
G75*
G02*
X48650000Y74900000I250000J0D01*
G01*
X50900000Y74900000D01*
G75*
G02*
X51150000Y74650000I0J-250000D01*
G01*
X51150000Y72100000D01*
G75*
G02*
X50900000Y71850000I-250000J0D01*
G01*
G37*
G04 #@! TD.AperFunction*
G04 #@! TA.AperFunction,SMDPad,CuDef*
G36*
G01*
X53950000Y71850000D02*
X51700000Y71850000D01*
G75*
G02*
X51450000Y72100000I0J250000D01*
G01*
X51450000Y74650000D01*
G75*
G02*
X51700000Y74900000I250000J0D01*
G01*
X53950000Y74900000D01*
G75*
G02*
X54200000Y74650000I0J-250000D01*
G01*
X54200000Y72100000D01*
G75*
G02*
X53950000Y71850000I-250000J0D01*
G01*
G37*
G04 #@! TD.AperFunction*
G04 #@! TO.P,Q5,3,E*
G04 #@! TO.N,PIN114*
G04 #@! TA.AperFunction,SMDPad,CuDef*
G36*
G01*
X53930000Y64300000D02*
X53230000Y64300000D01*
G75*
G02*
X52980000Y64550000I0J250000D01*
G01*
X52980000Y66250000D01*
G75*
G02*
X53230000Y66500000I250000J0D01*
G01*
X53930000Y66500000D01*
G75*
G02*
X54180000Y66250000I0J-250000D01*
G01*
X54180000Y64550000D01*
G75*
G02*
X53930000Y64300000I-250000J0D01*
G01*
G37*
G04 #@! TD.AperFunction*
G04 #@! TD*
D45*
G04 #@! TO.P,M8,G,GND*
G04 #@! TO.N,PIN114*
X118975000Y56700000D03*
D46*
X121075000Y57200000D03*
D47*
X111275000Y61600000D03*
X121075000Y63800000D03*
D48*
X111275000Y68400000D03*
D49*
X121075000Y69500000D03*
D50*
X116175000Y70300000D03*
D14*
G04 #@! TO.P,M8,N1,MOSI*
G04 #@! TO.N,unconnected-(M8-MOSI-PadN1)*
X111475000Y57700000D03*
D51*
G04 #@! TO.P,M8,N2,12V_IN*
G04 #@! TO.N,Net-(F3-Pad2)*
X111675000Y65700000D03*
G04 #@! TO.P,M8,S1,12V_IN*
X120675000Y58500000D03*
G04 #@! TO.P,M8,S2,OUT-*
G04 #@! TO.N,PIN2*
X120675000Y59700000D03*
G04 #@! TO.P,M8,S3,OUT+*
G04 #@! TO.N,PIN1*
X120675000Y67900000D03*
D14*
G04 #@! TO.P,M8,W1,DIS*
G04 #@! TO.N,DC1_DIS_W1*
X111475000Y56900000D03*
G04 #@! TO.P,M8,W2,PWM*
G04 #@! TO.N,/DC1_PWM*
X112275000Y56900000D03*
G04 #@! TO.P,M8,W3,SCLK*
G04 #@! TO.N,unconnected-(M8-SCLK-PadW3)*
X113075000Y56900000D03*
G04 #@! TO.P,M8,W4,DIR*
G04 #@! TO.N,/DC1_DIR*
X113875000Y56900000D03*
G04 #@! TO.P,M8,W5,3V3_IN*
G04 #@! TO.N,+3.3V*
X114675000Y56900000D03*
G04 #@! TO.P,M8,W6,MISO*
G04 #@! TO.N,unconnected-(M8-MISO-PadW6)*
X115475000Y56900000D03*
G04 #@! TO.P,M8,W7,~CS*
G04 #@! TO.N,unconnected-(M8-~CS-PadW7)*
X116275000Y56900000D03*
G04 #@! TD*
G04 #@! TO.P,M3,E1,Thresh_IN*
G04 #@! TO.N,/VR_DISCRETE_THR*
X94925000Y61050000D03*
G04 #@! TO.P,M3,E2,OUT_A*
G04 #@! TO.N,/VR_DISCRETE_A*
X93725000Y61050000D03*
G04 #@! TO.P,M3,E3,OUT*
G04 #@! TO.N,/VR_DISCRETE*
X96125000Y61050000D03*
G04 #@! TO.P,M3,E4,V5_IN*
G04 #@! TO.N,+5VA*
X97325000Y61050000D03*
D26*
G04 #@! TO.P,M3,G,GND*
G04 #@! TO.N,PIN114*
X94657500Y75700000D03*
D27*
X88607500Y75700000D03*
D28*
X97625000Y68687500D03*
D29*
X88175000Y68275000D03*
D30*
X90637500Y60850000D03*
D14*
G04 #@! TO.P,M3,W1,VR-*
G04 #@! TO.N,PIN18*
X90865000Y75475000D03*
G04 #@! TO.P,M3,W2,VR+*
G04 #@! TO.N,PIN17*
X89865000Y75475000D03*
G04 #@! TD*
D52*
G04 #@! TO.P,M5,E1,LSU_Un*
G04 #@! TO.N,PIN105*
X135075000Y75800000D03*
G04 #@! TO.P,M5,E2,LSU_Vm*
G04 #@! TO.N,PIN104*
X132075000Y75800000D03*
G04 #@! TO.P,M5,E3,LSU_Ip*
G04 #@! TO.N,PIN103*
X133075000Y75800000D03*
G04 #@! TO.P,M5,E4,LSU_Rtrim*
G04 #@! TO.N,PIN102*
X134075000Y75800000D03*
D53*
G04 #@! TO.P,M5,E5,LSU_H+*
G04 #@! TO.N,PIN119*
X129925000Y74550000D03*
D54*
G04 #@! TO.P,M5,E6,LSU_H-*
G04 #@! TO.N,PIN114*
X126425000Y76175000D03*
D55*
G04 #@! TO.P,M5,G,GND*
X123225000Y48825000D03*
D56*
X127565000Y48825000D03*
X130865000Y48825000D03*
D57*
X135950000Y48825000D03*
D58*
X122800000Y62500000D03*
X136550000Y62500000D03*
D59*
X123650000Y76175000D03*
D60*
X136200000Y76175000D03*
G04 #@! TO.P,M5,J1,SEL1*
G04 #@! TO.N,Net-(M5-PULL_DOWN1)*
G04 #@! TA.AperFunction,SMDPad,CuDef*
G36*
G01*
X123825000Y58250000D02*
X125075000Y58250000D01*
G75*
G02*
X125200000Y58125000I0J-125000D01*
G01*
X125200000Y57875000D01*
G75*
G02*
X125075000Y57750000I-125000J0D01*
G01*
X123825000Y57750000D01*
G75*
G02*
X123700000Y57875000I0J125000D01*
G01*
X123700000Y58125000D01*
G75*
G02*
X123825000Y58250000I125000J0D01*
G01*
G37*
G04 #@! TD.AperFunction*
G04 #@! TO.P,M5,J2,SEL2*
G04 #@! TO.N,unconnected-(M5-SEL2-PadJ2)*
G04 #@! TA.AperFunction,SMDPad,CuDef*
G36*
G01*
X126500000Y56575000D02*
X126750000Y56575000D01*
G75*
G02*
X126875000Y56450000I0J-125000D01*
G01*
X126875000Y55200000D01*
G75*
G02*
X126750000Y55075000I-125000J0D01*
G01*
X126500000Y55075000D01*
G75*
G02*
X126375000Y55200000I0J125000D01*
G01*
X126375000Y56450000D01*
G75*
G02*
X126500000Y56575000I125000J0D01*
G01*
G37*
G04 #@! TD.AperFunction*
G04 #@! TO.P,M5,J_GND1,PULL_DOWN1*
G04 #@! TO.N,Net-(M5-PULL_DOWN1)*
G04 #@! TA.AperFunction,SMDPad,CuDef*
G36*
G01*
X123825000Y57450000D02*
X125075000Y57450000D01*
G75*
G02*
X125200000Y57325000I0J-125000D01*
G01*
X125200000Y57075000D01*
G75*
G02*
X125075000Y56950000I-125000J0D01*
G01*
X123825000Y56950000D01*
G75*
G02*
X123700000Y57075000I0J125000D01*
G01*
X123700000Y57325000D01*
G75*
G02*
X123825000Y57450000I125000J0D01*
G01*
G37*
G04 #@! TD.AperFunction*
G04 #@! TO.P,M5,J_GND2,PULL_DOWN2*
G04 #@! TO.N,unconnected-(M5-PULL_DOWN2-PadJ_GND2)*
G04 #@! TA.AperFunction,SMDPad,CuDef*
G36*
G01*
X126375000Y57125000D02*
X126375000Y57375000D01*
G75*
G02*
X126500000Y57500000I125000J0D01*
G01*
X126750000Y57500000D01*
G75*
G02*
X126875000Y57375000I0J-125000D01*
G01*
X126875000Y57125000D01*
G75*
G02*
X126750000Y57000000I-125000J0D01*
G01*
X126500000Y57000000D01*
G75*
G02*
X126375000Y57125000I0J125000D01*
G01*
G37*
G04 #@! TD.AperFunction*
G04 #@! TO.P,M5,J_VCC1,PULL_UP1*
G04 #@! TO.N,unconnected-(M5-PULL_UP1-PadJ_VCC1)*
G04 #@! TA.AperFunction,SMDPad,CuDef*
G36*
G01*
X125700000Y58250000D02*
X125950000Y58250000D01*
G75*
G02*
X126075000Y58125000I0J-125000D01*
G01*
X126075000Y57875000D01*
G75*
G02*
X125950000Y57750000I-125000J0D01*
G01*
X125700000Y57750000D01*
G75*
G02*
X125575000Y57875000I0J125000D01*
G01*
X125575000Y58125000D01*
G75*
G02*
X125700000Y58250000I125000J0D01*
G01*
G37*
G04 #@! TD.AperFunction*
G04 #@! TO.P,M5,J_VCC2,PULL_UP2*
G04 #@! TO.N,unconnected-(M5-PULL_UP2-PadJ_VCC2)*
G04 #@! TA.AperFunction,SMDPad,CuDef*
G36*
G01*
X125700000Y56575000D02*
X125950000Y56575000D01*
G75*
G02*
X126075000Y56450000I0J-125000D01*
G01*
X126075000Y55200000D01*
G75*
G02*
X125950000Y55075000I-125000J0D01*
G01*
X125700000Y55075000D01*
G75*
G02*
X125575000Y55200000I0J125000D01*
G01*
X125575000Y56450000D01*
G75*
G02*
X125700000Y56575000I125000J0D01*
G01*
G37*
G04 #@! TD.AperFunction*
D52*
G04 #@! TO.P,M5,W1,V5_IN*
G04 #@! TO.N,+5VA*
X125425000Y49208800D03*
G04 #@! TO.P,M5,W2,CAN_VIO*
G04 #@! TO.N,unconnected-(M5-CAN_VIO-PadW2)*
X126425000Y49208800D03*
G04 #@! TO.P,M5,W3,CANL*
G04 #@! TO.N,PIN83*
X129721000Y49208800D03*
G04 #@! TO.P,M5,W4,CANH*
G04 #@! TO.N,PIN82*
X128705000Y49208800D03*
G04 #@! TO.P,M5,W5,nReset*
G04 #@! TO.N,unconnected-(M5-nReset-PadW5)*
G04 #@! TA.AperFunction,SMDPad,CuDef*
G36*
G01*
X131725000Y48700000D02*
X131725000Y48700000D01*
G75*
G02*
X131600000Y48825000I0J125000D01*
G01*
X131600000Y49075000D01*
G75*
G02*
X131725000Y49200000I125000J0D01*
G01*
X131725000Y49200000D01*
G75*
G02*
X131850000Y49075000I0J-125000D01*
G01*
X131850000Y48825000D01*
G75*
G02*
X131725000Y48700000I-125000J0D01*
G01*
G37*
G04 #@! TD.AperFunction*
G04 #@! TO.P,M5,W6,SWDIO*
G04 #@! TO.N,unconnected-(M5-SWDIO-PadW6)*
G04 #@! TA.AperFunction,SMDPad,CuDef*
G36*
G01*
X132225000Y48700000D02*
X132225000Y48700000D01*
G75*
G02*
X132100000Y48825000I0J125000D01*
G01*
X132100000Y49075000D01*
G75*
G02*
X132225000Y49200000I125000J0D01*
G01*
X132225000Y49200000D01*
G75*
G02*
X132350000Y49075000I0J-125000D01*
G01*
X132350000Y48825000D01*
G75*
G02*
X132225000Y48700000I-125000J0D01*
G01*
G37*
G04 #@! TD.AperFunction*
G04 #@! TO.P,M5,W7,SWCLK*
G04 #@! TO.N,unconnected-(M5-SWCLK-PadW7)*
G04 #@! TA.AperFunction,SMDPad,CuDef*
G36*
G01*
X132725000Y48700000D02*
X132725000Y48700000D01*
G75*
G02*
X132600000Y48825000I0J125000D01*
G01*
X132600000Y49075000D01*
G75*
G02*
X132725000Y49200000I125000J0D01*
G01*
X132725000Y49200000D01*
G75*
G02*
X132850000Y49075000I0J-125000D01*
G01*
X132850000Y48825000D01*
G75*
G02*
X132725000Y48700000I-125000J0D01*
G01*
G37*
G04 #@! TD.AperFunction*
G04 #@! TO.P,M5,W8,V33_OUT*
G04 #@! TO.N,unconnected-(M5-V33_OUT-PadW8)*
G04 #@! TA.AperFunction,SMDPad,CuDef*
G36*
G01*
X134825000Y48700000D02*
X134825000Y48700000D01*
G75*
G02*
X134700000Y48825000I0J125000D01*
G01*
X134700000Y49075000D01*
G75*
G02*
X134825000Y49200000I125000J0D01*
G01*
X134825000Y49200000D01*
G75*
G02*
X134950000Y49075000I0J-125000D01*
G01*
X134950000Y48825000D01*
G75*
G02*
X134825000Y48700000I-125000J0D01*
G01*
G37*
G04 #@! TD.AperFunction*
G04 #@! TO.P,M5,W9,VDDA*
G04 #@! TO.N,unconnected-(M5-VDDA-PadW9)*
X124425000Y49208800D03*
G04 #@! TD*
G04 #@! TO.P,R1,1*
G04 #@! TO.N,PIN106*
G04 #@! TA.AperFunction,SMDPad,CuDef*
G36*
G01*
X110190000Y69225000D02*
X109410000Y69225000D01*
G75*
G02*
X109340000Y69295000I0J70000D01*
G01*
X109340000Y69855000D01*
G75*
G02*
X109410000Y69925000I70000J0D01*
G01*
X110190000Y69925000D01*
G75*
G02*
X110260000Y69855000I0J-70000D01*
G01*
X110260000Y69295000D01*
G75*
G02*
X110190000Y69225000I-70000J0D01*
G01*
G37*
G04 #@! TD.AperFunction*
G04 #@! TO.P,R1,2*
G04 #@! TO.N,PIN20*
G04 #@! TA.AperFunction,SMDPad,CuDef*
G36*
G01*
X110190000Y70825000D02*
X109410000Y70825000D01*
G75*
G02*
X109340000Y70895000I0J70000D01*
G01*
X109340000Y71455000D01*
G75*
G02*
X109410000Y71525000I70000J0D01*
G01*
X110190000Y71525000D01*
G75*
G02*
X110260000Y71455000I0J-70000D01*
G01*
X110260000Y70895000D01*
G75*
G02*
X110190000Y70825000I-70000J0D01*
G01*
G37*
G04 #@! TD.AperFunction*
G04 #@! TD*
G04 #@! TO.P,R54,1*
G04 #@! TO.N,Net-(U10-IS)*
G04 #@! TA.AperFunction,SMDPad,CuDef*
G36*
G01*
X145910000Y78025000D02*
X146690000Y78025000D01*
G75*
G02*
X146760000Y77955000I0J-70000D01*
G01*
X146760000Y77395000D01*
G75*
G02*
X146690000Y77325000I-70000J0D01*
G01*
X145910000Y77325000D01*
G75*
G02*
X145840000Y77395000I0J70000D01*
G01*
X145840000Y77955000D01*
G75*
G02*
X145910000Y78025000I70000J0D01*
G01*
G37*
G04 #@! TD.AperFunction*
G04 #@! TO.P,R54,2*
G04 #@! TO.N,PIN114*
G04 #@! TA.AperFunction,SMDPad,CuDef*
G36*
G01*
X145910000Y76425000D02*
X146690000Y76425000D01*
G75*
G02*
X146760000Y76355000I0J-70000D01*
G01*
X146760000Y75795000D01*
G75*
G02*
X146690000Y75725000I-70000J0D01*
G01*
X145910000Y75725000D01*
G75*
G02*
X145840000Y75795000I0J70000D01*
G01*
X145840000Y76355000D01*
G75*
G02*
X145910000Y76425000I70000J0D01*
G01*
G37*
G04 #@! TD.AperFunction*
G04 #@! TD*
G04 #@! TO.P,R6,1*
G04 #@! TO.N,/VR_DISCRETE_A*
G04 #@! TA.AperFunction,SMDPad,CuDef*
G36*
G01*
X93910000Y59225000D02*
X94690000Y59225000D01*
G75*
G02*
X94760000Y59155000I0J-70000D01*
G01*
X94760000Y58595000D01*
G75*
G02*
X94690000Y58525000I-70000J0D01*
G01*
X93910000Y58525000D01*
G75*
G02*
X93840000Y58595000I0J70000D01*
G01*
X93840000Y59155000D01*
G75*
G02*
X93910000Y59225000I70000J0D01*
G01*
G37*
G04 #@! TD.AperFunction*
G04 #@! TO.P,R6,2*
G04 #@! TO.N,/ADC3*
G04 #@! TA.AperFunction,SMDPad,CuDef*
G36*
G01*
X93910000Y57625000D02*
X94690000Y57625000D01*
G75*
G02*
X94760000Y57555000I0J-70000D01*
G01*
X94760000Y56995000D01*
G75*
G02*
X94690000Y56925000I-70000J0D01*
G01*
X93910000Y56925000D01*
G75*
G02*
X93840000Y56995000I0J70000D01*
G01*
X93840000Y57555000D01*
G75*
G02*
X93910000Y57625000I70000J0D01*
G01*
G37*
G04 #@! TD.AperFunction*
G04 #@! TD*
G04 #@! TO.P,U6,1,IN1*
G04 #@! TO.N,Net-(U6-IN1)*
G04 #@! TA.AperFunction,SMDPad,CuDef*
G36*
G01*
X67680000Y55425000D02*
X67380000Y55425000D01*
G75*
G02*
X67230000Y55575000I0J150000D01*
G01*
X67230000Y57225000D01*
G75*
G02*
X67380000Y57375000I150000J0D01*
G01*
X67680000Y57375000D01*
G75*
G02*
X67830000Y57225000I0J-150000D01*
G01*
X67830000Y55575000D01*
G75*
G02*
X67680000Y55425000I-150000J0D01*
G01*
G37*
G04 #@! TD.AperFunction*
G04 #@! TO.P,U6,2,STATUS1*
G04 #@! TO.N,unconnected-(U6-STATUS1-Pad2)*
G04 #@! TA.AperFunction,SMDPad,CuDef*
G36*
G01*
X68950000Y55425000D02*
X68650000Y55425000D01*
G75*
G02*
X68500000Y55575000I0J150000D01*
G01*
X68500000Y57225000D01*
G75*
G02*
X68650000Y57375000I150000J0D01*
G01*
X68950000Y57375000D01*
G75*
G02*
X69100000Y57225000I0J-150000D01*
G01*
X69100000Y55575000D01*
G75*
G02*
X68950000Y55425000I-150000J0D01*
G01*
G37*
G04 #@! TD.AperFunction*
G04 #@! TO.P,U6,3,IN2*
G04 #@! TO.N,Net-(U6-IN2)*
G04 #@! TA.AperFunction,SMDPad,CuDef*
G36*
G01*
X70220000Y55425000D02*
X69920000Y55425000D01*
G75*
G02*
X69770000Y55575000I0J150000D01*
G01*
X69770000Y57225000D01*
G75*
G02*
X69920000Y57375000I150000J0D01*
G01*
X70220000Y57375000D01*
G75*
G02*
X70370000Y57225000I0J-150000D01*
G01*
X70370000Y55575000D01*
G75*
G02*
X70220000Y55425000I-150000J0D01*
G01*
G37*
G04 #@! TD.AperFunction*
G04 #@! TO.P,U6,4,STATUS2*
G04 #@! TO.N,unconnected-(U6-STATUS2-Pad4)*
G04 #@! TA.AperFunction,SMDPad,CuDef*
G36*
G01*
X71490000Y55425000D02*
X71190000Y55425000D01*
G75*
G02*
X71040000Y55575000I0J150000D01*
G01*
X71040000Y57225000D01*
G75*
G02*
X71190000Y57375000I150000J0D01*
G01*
X71490000Y57375000D01*
G75*
G02*
X71640000Y57225000I0J-150000D01*
G01*
X71640000Y55575000D01*
G75*
G02*
X71490000Y55425000I-150000J0D01*
G01*
G37*
G04 #@! TD.AperFunction*
G04 #@! TO.P,U6,5,S2*
G04 #@! TO.N,PIN114*
G04 #@! TA.AperFunction,SMDPad,CuDef*
G36*
G01*
X71490000Y60375000D02*
X71190000Y60375000D01*
G75*
G02*
X71040000Y60525000I0J150000D01*
G01*
X71040000Y62175000D01*
G75*
G02*
X71190000Y62325000I150000J0D01*
G01*
X71490000Y62325000D01*
G75*
G02*
X71640000Y62175000I0J-150000D01*
G01*
X71640000Y60525000D01*
G75*
G02*
X71490000Y60375000I-150000J0D01*
G01*
G37*
G04 #@! TD.AperFunction*
G04 #@! TO.P,U6,6,D2*
G04 #@! TO.N,PIN86*
G04 #@! TA.AperFunction,SMDPad,CuDef*
G36*
G01*
X70220000Y60375000D02*
X69920000Y60375000D01*
G75*
G02*
X69770000Y60525000I0J150000D01*
G01*
X69770000Y62175000D01*
G75*
G02*
X69920000Y62325000I150000J0D01*
G01*
X70220000Y62325000D01*
G75*
G02*
X70370000Y62175000I0J-150000D01*
G01*
X70370000Y60525000D01*
G75*
G02*
X70220000Y60375000I-150000J0D01*
G01*
G37*
G04 #@! TD.AperFunction*
G04 #@! TO.P,U6,7,S1*
G04 #@! TO.N,PIN114*
G04 #@! TA.AperFunction,SMDPad,CuDef*
G36*
G01*
X68950000Y60375000D02*
X68650000Y60375000D01*
G75*
G02*
X68500000Y60525000I0J150000D01*
G01*
X68500000Y62175000D01*
G75*
G02*
X68650000Y62325000I150000J0D01*
G01*
X68950000Y62325000D01*
G75*
G02*
X69100000Y62175000I0J-150000D01*
G01*
X69100000Y60525000D01*
G75*
G02*
X68950000Y60375000I-150000J0D01*
G01*
G37*
G04 #@! TD.AperFunction*
G04 #@! TO.P,U6,8,D1*
G04 #@! TO.N,PIN87*
G04 #@! TA.AperFunction,SMDPad,CuDef*
G36*
G01*
X67680000Y60375000D02*
X67380000Y60375000D01*
G75*
G02*
X67230000Y60525000I0J150000D01*
G01*
X67230000Y62175000D01*
G75*
G02*
X67380000Y62325000I150000J0D01*
G01*
X67680000Y62325000D01*
G75*
G02*
X67830000Y62175000I0J-150000D01*
G01*
X67830000Y60525000D01*
G75*
G02*
X67680000Y60375000I-150000J0D01*
G01*
G37*
G04 #@! TD.AperFunction*
G04 #@! TD*
G04 #@! TO.P,L1,1,1*
G04 #@! TO.N,PIN21*
G04 #@! TA.AperFunction,SMDPad,CuDef*
G36*
G01*
X36043750Y75600000D02*
X36556250Y75600000D01*
G75*
G02*
X36775000Y75381250I0J-218750D01*
G01*
X36775000Y74943750D01*
G75*
G02*
X36556250Y74725000I-218750J0D01*
G01*
X36043750Y74725000D01*
G75*
G02*
X35825000Y74943750I0J218750D01*
G01*
X35825000Y75381250D01*
G75*
G02*
X36043750Y75600000I218750J0D01*
G01*
G37*
G04 #@! TD.AperFunction*
G04 #@! TO.P,L1,2,2*
G04 #@! TO.N,Net-(U7-T+)*
G04 #@! TA.AperFunction,SMDPad,CuDef*
G36*
G01*
X36043750Y74025000D02*
X36556250Y74025000D01*
G75*
G02*
X36775000Y73806250I0J-218750D01*
G01*
X36775000Y73368750D01*
G75*
G02*
X36556250Y73150000I-218750J0D01*
G01*
X36043750Y73150000D01*
G75*
G02*
X35825000Y73368750I0J218750D01*
G01*
X35825000Y73806250D01*
G75*
G02*
X36043750Y74025000I218750J0D01*
G01*
G37*
G04 #@! TD.AperFunction*
G04 #@! TD*
G04 #@! TO.P,R7,1*
G04 #@! TO.N,PIN84*
G04 #@! TA.AperFunction,SMDPad,CuDef*
G36*
G01*
X102849999Y57250000D02*
X102849999Y58500000D01*
G75*
G02*
X102949999Y58600000I100000J0D01*
G01*
X103749999Y58600000D01*
G75*
G02*
X103849999Y58500000I0J-100000D01*
G01*
X103849999Y57250000D01*
G75*
G02*
X103749999Y57150000I-100000J0D01*
G01*
X102949999Y57150000D01*
G75*
G02*
X102849999Y57250000I0J100000D01*
G01*
G37*
G04 #@! TD.AperFunction*
G04 #@! TO.P,R7,2*
G04 #@! TO.N,+5VA*
G04 #@! TA.AperFunction,SMDPad,CuDef*
G36*
G01*
X104750021Y57250000D02*
X104750021Y58500000D01*
G75*
G02*
X104850021Y58600000I100000J0D01*
G01*
X105650021Y58600000D01*
G75*
G02*
X105750021Y58500000I0J-100000D01*
G01*
X105750021Y57250000D01*
G75*
G02*
X105650021Y57150000I-100000J0D01*
G01*
X104850021Y57150000D01*
G75*
G02*
X104750021Y57250000I0J100000D01*
G01*
G37*
G04 #@! TD.AperFunction*
G04 #@! TD*
G04 #@! TO.P,R11,1*
G04 #@! TO.N,PIN113*
G04 #@! TA.AperFunction,SMDPad,CuDef*
G36*
G01*
X99349999Y54250000D02*
X99349999Y55500000D01*
G75*
G02*
X99449999Y55600000I100000J0D01*
G01*
X100249999Y55600000D01*
G75*
G02*
X100349999Y55500000I0J-100000D01*
G01*
X100349999Y54250000D01*
G75*
G02*
X100249999Y54150000I-100000J0D01*
G01*
X99449999Y54150000D01*
G75*
G02*
X99349999Y54250000I0J100000D01*
G01*
G37*
G04 #@! TD.AperFunction*
G04 #@! TO.P,R11,2*
G04 #@! TO.N,PIN85*
G04 #@! TA.AperFunction,SMDPad,CuDef*
G36*
G01*
X101250021Y54250000D02*
X101250021Y55500000D01*
G75*
G02*
X101350021Y55600000I100000J0D01*
G01*
X102150021Y55600000D01*
G75*
G02*
X102250021Y55500000I0J-100000D01*
G01*
X102250021Y54250000D01*
G75*
G02*
X102150021Y54150000I-100000J0D01*
G01*
X101350021Y54150000D01*
G75*
G02*
X101250021Y54250000I0J100000D01*
G01*
G37*
G04 #@! TD.AperFunction*
G04 #@! TD*
G04 #@! TO.P,U4,1,IN1*
G04 #@! TO.N,Net-(U4-IN1)*
G04 #@! TA.AperFunction,SMDPad,CuDef*
G36*
G01*
X54045000Y55425000D02*
X53745000Y55425000D01*
G75*
G02*
X53595000Y55575000I0J150000D01*
G01*
X53595000Y57225000D01*
G75*
G02*
X53745000Y57375000I150000J0D01*
G01*
X54045000Y57375000D01*
G75*
G02*
X54195000Y57225000I0J-150000D01*
G01*
X54195000Y55575000D01*
G75*
G02*
X54045000Y55425000I-150000J0D01*
G01*
G37*
G04 #@! TD.AperFunction*
G04 #@! TO.P,U4,2,STATUS1*
G04 #@! TO.N,unconnected-(U4-STATUS1-Pad2)*
G04 #@! TA.AperFunction,SMDPad,CuDef*
G36*
G01*
X55315000Y55425000D02*
X55015000Y55425000D01*
G75*
G02*
X54865000Y55575000I0J150000D01*
G01*
X54865000Y57225000D01*
G75*
G02*
X55015000Y57375000I150000J0D01*
G01*
X55315000Y57375000D01*
G75*
G02*
X55465000Y57225000I0J-150000D01*
G01*
X55465000Y55575000D01*
G75*
G02*
X55315000Y55425000I-150000J0D01*
G01*
G37*
G04 #@! TD.AperFunction*
G04 #@! TO.P,U4,3,IN2*
G04 #@! TO.N,Net-(U4-IN2)*
G04 #@! TA.AperFunction,SMDPad,CuDef*
G36*
G01*
X56585000Y55425000D02*
X56285000Y55425000D01*
G75*
G02*
X56135000Y55575000I0J150000D01*
G01*
X56135000Y57225000D01*
G75*
G02*
X56285000Y57375000I150000J0D01*
G01*
X56585000Y57375000D01*
G75*
G02*
X56735000Y57225000I0J-150000D01*
G01*
X56735000Y55575000D01*
G75*
G02*
X56585000Y55425000I-150000J0D01*
G01*
G37*
G04 #@! TD.AperFunction*
G04 #@! TO.P,U4,4,STATUS2*
G04 #@! TO.N,unconnected-(U4-STATUS2-Pad4)*
G04 #@! TA.AperFunction,SMDPad,CuDef*
G36*
G01*
X57855000Y55425000D02*
X57555000Y55425000D01*
G75*
G02*
X57405000Y55575000I0J150000D01*
G01*
X57405000Y57225000D01*
G75*
G02*
X57555000Y57375000I150000J0D01*
G01*
X57855000Y57375000D01*
G75*
G02*
X58005000Y57225000I0J-150000D01*
G01*
X58005000Y55575000D01*
G75*
G02*
X57855000Y55425000I-150000J0D01*
G01*
G37*
G04 #@! TD.AperFunction*
G04 #@! TO.P,U4,5,S2*
G04 #@! TO.N,PIN114*
G04 #@! TA.AperFunction,SMDPad,CuDef*
G36*
G01*
X57855000Y60375000D02*
X57555000Y60375000D01*
G75*
G02*
X57405000Y60525000I0J150000D01*
G01*
X57405000Y62175000D01*
G75*
G02*
X57555000Y62325000I150000J0D01*
G01*
X57855000Y62325000D01*
G75*
G02*
X58005000Y62175000I0J-150000D01*
G01*
X58005000Y60525000D01*
G75*
G02*
X57855000Y60375000I-150000J0D01*
G01*
G37*
G04 #@! TD.AperFunction*
G04 #@! TO.P,U4,6,D2*
G04 #@! TO.N,PIN49*
G04 #@! TA.AperFunction,SMDPad,CuDef*
G36*
G01*
X56585000Y60375000D02*
X56285000Y60375000D01*
G75*
G02*
X56135000Y60525000I0J150000D01*
G01*
X56135000Y62175000D01*
G75*
G02*
X56285000Y62325000I150000J0D01*
G01*
X56585000Y62325000D01*
G75*
G02*
X56735000Y62175000I0J-150000D01*
G01*
X56735000Y60525000D01*
G75*
G02*
X56585000Y60375000I-150000J0D01*
G01*
G37*
G04 #@! TD.AperFunction*
G04 #@! TO.P,U4,7,S1*
G04 #@! TO.N,PIN114*
G04 #@! TA.AperFunction,SMDPad,CuDef*
G36*
G01*
X55315000Y60375000D02*
X55015000Y60375000D01*
G75*
G02*
X54865000Y60525000I0J150000D01*
G01*
X54865000Y62175000D01*
G75*
G02*
X55015000Y62325000I150000J0D01*
G01*
X55315000Y62325000D01*
G75*
G02*
X55465000Y62175000I0J-150000D01*
G01*
X55465000Y60525000D01*
G75*
G02*
X55315000Y60375000I-150000J0D01*
G01*
G37*
G04 #@! TD.AperFunction*
G04 #@! TO.P,U4,8,D1*
G04 #@! TO.N,PIN48*
G04 #@! TA.AperFunction,SMDPad,CuDef*
G36*
G01*
X54045000Y60375000D02*
X53745000Y60375000D01*
G75*
G02*
X53595000Y60525000I0J150000D01*
G01*
X53595000Y62175000D01*
G75*
G02*
X53745000Y62325000I150000J0D01*
G01*
X54045000Y62325000D01*
G75*
G02*
X54195000Y62175000I0J-150000D01*
G01*
X54195000Y60525000D01*
G75*
G02*
X54045000Y60375000I-150000J0D01*
G01*
G37*
G04 #@! TD.AperFunction*
G04 #@! TD*
G04 #@! TO.P,D5,1,K*
G04 #@! TO.N,PIN43*
G04 #@! TA.AperFunction,SMDPad,CuDef*
G36*
G01*
X152950000Y80125000D02*
X151650000Y80125000D01*
G75*
G02*
X151400000Y80375000I0J250000D01*
G01*
X151400000Y82375000D01*
G75*
G02*
X151650000Y82625000I250000J0D01*
G01*
X152950000Y82625000D01*
G75*
G02*
X153200000Y82375000I0J-250000D01*
G01*
X153200000Y80375000D01*
G75*
G02*
X152950000Y80125000I-250000J0D01*
G01*
G37*
G04 #@! TD.AperFunction*
G04 #@! TO.P,D5,2,A*
G04 #@! TO.N,PIN114*
G04 #@! TA.AperFunction,SMDPad,CuDef*
G36*
G01*
X152950000Y84125000D02*
X151650000Y84125000D01*
G75*
G02*
X151400000Y84375000I0J250000D01*
G01*
X151400000Y86375000D01*
G75*
G02*
X151650000Y86625000I250000J0D01*
G01*
X152950000Y86625000D01*
G75*
G02*
X153200000Y86375000I0J-250000D01*
G01*
X153200000Y84375000D01*
G75*
G02*
X152950000Y84125000I-250000J0D01*
G01*
G37*
G04 #@! TD.AperFunction*
G04 #@! TD*
D61*
G04 #@! TO.P,J22,1,VBUS*
G04 #@! TO.N,/VBUS*
X52675000Y15125000D03*
D62*
G04 #@! TO.P,J22,2,D-*
G04 #@! TO.N,/USB-*
X50925000Y15925000D03*
G04 #@! TO.P,J22,3,D+*
G04 #@! TO.N,/USB+*
X52675000Y16725000D03*
G04 #@! TO.P,J22,4,ID*
G04 #@! TO.N,unconnected-(J22-ID-Pad4)*
X50925000Y17525000D03*
G04 #@! TO.P,J22,5,GND*
G04 #@! TO.N,PIN114*
X52675000Y18325000D03*
D63*
G04 #@! TO.P,J22,6,Shield*
X51800000Y13075000D03*
X51800000Y20375000D03*
G04 #@! TD*
G04 #@! TO.P,Q2,1,G*
G04 #@! TO.N,Net-(Q2-G)*
G04 #@! TA.AperFunction,SMDPad,CuDef*
G36*
G01*
X73955000Y64300000D02*
X73255000Y64300000D01*
G75*
G02*
X73005000Y64550000I0J250000D01*
G01*
X73005000Y66250000D01*
G75*
G02*
X73255000Y66500000I250000J0D01*
G01*
X73955000Y66500000D01*
G75*
G02*
X74205000Y66250000I0J-250000D01*
G01*
X74205000Y64550000D01*
G75*
G02*
X73955000Y64300000I-250000J0D01*
G01*
G37*
G04 #@! TD.AperFunction*
G04 #@! TO.P,Q2,2,C*
G04 #@! TO.N,PIN12*
G04 #@! TA.AperFunction,SMDPad,CuDef*
G36*
G01*
X75485000Y68500000D02*
X73235000Y68500000D01*
G75*
G02*
X72985000Y68750000I0J250000D01*
G01*
X72985000Y71300000D01*
G75*
G02*
X73235000Y71550000I250000J0D01*
G01*
X75485000Y71550000D01*
G75*
G02*
X75735000Y71300000I0J-250000D01*
G01*
X75735000Y68750000D01*
G75*
G02*
X75485000Y68500000I-250000J0D01*
G01*
G37*
G04 #@! TD.AperFunction*
G04 #@! TA.AperFunction,SMDPad,CuDef*
G36*
G01*
X78535000Y68500000D02*
X76285000Y68500000D01*
G75*
G02*
X76035000Y68750000I0J250000D01*
G01*
X76035000Y71300000D01*
G75*
G02*
X76285000Y71550000I250000J0D01*
G01*
X78535000Y71550000D01*
G75*
G02*
X78785000Y71300000I0J-250000D01*
G01*
X78785000Y68750000D01*
G75*
G02*
X78535000Y68500000I-250000J0D01*
G01*
G37*
G04 #@! TD.AperFunction*
G04 #@! TA.AperFunction,SMDPad,CuDef*
G36*
G01*
X78535003Y68500000D02*
X73234997Y68500000D01*
G75*
G02*
X72985000Y68749997I0J249997D01*
G01*
X72985000Y74650003D01*
G75*
G02*
X73234997Y74900000I249997J0D01*
G01*
X78535003Y74900000D01*
G75*
G02*
X78785000Y74650003I0J-249997D01*
G01*
X78785000Y68749997D01*
G75*
G02*
X78535003Y68500000I-249997J0D01*
G01*
G37*
G04 #@! TD.AperFunction*
G04 #@! TA.AperFunction,SMDPad,CuDef*
G36*
G01*
X75485000Y71850000D02*
X73235000Y71850000D01*
G75*
G02*
X72985000Y72100000I0J250000D01*
G01*
X72985000Y74650000D01*
G75*
G02*
X73235000Y74900000I250000J0D01*
G01*
X75485000Y74900000D01*
G75*
G02*
X75735000Y74650000I0J-250000D01*
G01*
X75735000Y72100000D01*
G75*
G02*
X75485000Y71850000I-250000J0D01*
G01*
G37*
G04 #@! TD.AperFunction*
G04 #@! TA.AperFunction,SMDPad,CuDef*
G36*
G01*
X78535000Y71850000D02*
X76285000Y71850000D01*
G75*
G02*
X76035000Y72100000I0J250000D01*
G01*
X76035000Y74650000D01*
G75*
G02*
X76285000Y74900000I250000J0D01*
G01*
X78535000Y74900000D01*
G75*
G02*
X78785000Y74650000I0J-250000D01*
G01*
X78785000Y72100000D01*
G75*
G02*
X78535000Y71850000I-250000J0D01*
G01*
G37*
G04 #@! TD.AperFunction*
G04 #@! TO.P,Q2,3,E*
G04 #@! TO.N,PIN114*
G04 #@! TA.AperFunction,SMDPad,CuDef*
G36*
G01*
X78515000Y64300000D02*
X77815000Y64300000D01*
G75*
G02*
X77565000Y64550000I0J250000D01*
G01*
X77565000Y66250000D01*
G75*
G02*
X77815000Y66500000I250000J0D01*
G01*
X78515000Y66500000D01*
G75*
G02*
X78765000Y66250000I0J-250000D01*
G01*
X78765000Y64550000D01*
G75*
G02*
X78515000Y64300000I-250000J0D01*
G01*
G37*
G04 #@! TD.AperFunction*
G04 #@! TD*
G04 #@! TO.P,C32,1*
G04 #@! TO.N,PIN114*
G04 #@! TA.AperFunction,SMDPad,CuDef*
G36*
G01*
X33640000Y58159999D02*
X32960000Y58159999D01*
G75*
G02*
X32875000Y58244999I0J85000D01*
G01*
X32875000Y58924999D01*
G75*
G02*
X32960000Y59009999I85000J0D01*
G01*
X33640000Y59009999D01*
G75*
G02*
X33725000Y58924999I0J-85000D01*
G01*
X33725000Y58244999D01*
G75*
G02*
X33640000Y58159999I-85000J0D01*
G01*
G37*
G04 #@! TD.AperFunction*
G04 #@! TO.P,C32,2*
G04 #@! TO.N,+3.3VA*
G04 #@! TA.AperFunction,SMDPad,CuDef*
G36*
G01*
X33640000Y59740001D02*
X32960000Y59740001D01*
G75*
G02*
X32875000Y59825001I0J85000D01*
G01*
X32875000Y60505001D01*
G75*
G02*
X32960000Y60590001I85000J0D01*
G01*
X33640000Y60590001D01*
G75*
G02*
X33725000Y60505001I0J-85000D01*
G01*
X33725000Y59825001D01*
G75*
G02*
X33640000Y59740001I-85000J0D01*
G01*
G37*
G04 #@! TD.AperFunction*
G04 #@! TD*
D64*
G04 #@! TO.P,M7,E1,GND*
G04 #@! TO.N,PIN114*
X35937499Y24094163D03*
D65*
X41412500Y26831663D03*
D66*
X42112501Y20231666D03*
D67*
X46737495Y20231666D03*
D68*
X46912499Y23494164D03*
D69*
G04 #@! TO.P,M7,S1,CANL*
G04 #@! TO.N,unconnected-(M7-CANL-PadS1)*
X36387501Y20281664D03*
G04 #@! TO.P,M7,S2,CANH*
G04 #@! TO.N,unconnected-(M7-CANH-PadS2)*
X36887502Y20281664D03*
D70*
G04 #@! TO.P,M7,V1,V5*
G04 #@! TO.N,+5VA*
X43437499Y21331662D03*
G04 #@! TO.P,M7,V2,CAN_VIO*
G04 #@! TO.N,+3.3VA*
X42562497Y21856662D03*
G04 #@! TO.P,M7,V5,CAN_TX*
G04 #@! TO.N,E7INJ8CANTX*
X43737501Y22606660D03*
G04 #@! TO.P,M7,V6,CAN_RX*
G04 #@! TO.N,E6INJ7CANRX*
X43662498Y26156661D03*
G04 #@! TD*
G04 #@! TO.P,R5,1*
G04 #@! TO.N,/IN_KNOCK*
G04 #@! TA.AperFunction,SMDPad,CuDef*
G36*
G01*
X95910000Y59225000D02*
X96690000Y59225000D01*
G75*
G02*
X96760000Y59155000I0J-70000D01*
G01*
X96760000Y58595000D01*
G75*
G02*
X96690000Y58525000I-70000J0D01*
G01*
X95910000Y58525000D01*
G75*
G02*
X95840000Y58595000I0J70000D01*
G01*
X95840000Y59155000D01*
G75*
G02*
X95910000Y59225000I70000J0D01*
G01*
G37*
G04 #@! TD.AperFunction*
G04 #@! TO.P,R5,2*
G04 #@! TO.N,/ADC3*
G04 #@! TA.AperFunction,SMDPad,CuDef*
G36*
G01*
X95910000Y57625000D02*
X96690000Y57625000D01*
G75*
G02*
X96760000Y57555000I0J-70000D01*
G01*
X96760000Y56995000D01*
G75*
G02*
X96690000Y56925000I-70000J0D01*
G01*
X95910000Y56925000D01*
G75*
G02*
X95840000Y56995000I0J70000D01*
G01*
X95840000Y57555000D01*
G75*
G02*
X95910000Y57625000I70000J0D01*
G01*
G37*
G04 #@! TD.AperFunction*
G04 #@! TD*
G04 #@! TO.P,U9,1,IN1*
G04 #@! TO.N,Net-(U9-IN1)*
G04 #@! TA.AperFunction,SMDPad,CuDef*
G36*
G01*
X82545000Y55425000D02*
X82245000Y55425000D01*
G75*
G02*
X82095000Y55575000I0J150000D01*
G01*
X82095000Y57225000D01*
G75*
G02*
X82245000Y57375000I150000J0D01*
G01*
X82545000Y57375000D01*
G75*
G02*
X82695000Y57225000I0J-150000D01*
G01*
X82695000Y55575000D01*
G75*
G02*
X82545000Y55425000I-150000J0D01*
G01*
G37*
G04 #@! TD.AperFunction*
G04 #@! TO.P,U9,2,STATUS1*
G04 #@! TO.N,unconnected-(U9-STATUS1-Pad2)*
G04 #@! TA.AperFunction,SMDPad,CuDef*
G36*
G01*
X83815000Y55425000D02*
X83515000Y55425000D01*
G75*
G02*
X83365000Y55575000I0J150000D01*
G01*
X83365000Y57225000D01*
G75*
G02*
X83515000Y57375000I150000J0D01*
G01*
X83815000Y57375000D01*
G75*
G02*
X83965000Y57225000I0J-150000D01*
G01*
X83965000Y55575000D01*
G75*
G02*
X83815000Y55425000I-150000J0D01*
G01*
G37*
G04 #@! TD.AperFunction*
G04 #@! TO.P,U9,3,IN2*
G04 #@! TO.N,Net-(U9-IN2)*
G04 #@! TA.AperFunction,SMDPad,CuDef*
G36*
G01*
X85085000Y55425000D02*
X84785000Y55425000D01*
G75*
G02*
X84635000Y55575000I0J150000D01*
G01*
X84635000Y57225000D01*
G75*
G02*
X84785000Y57375000I150000J0D01*
G01*
X85085000Y57375000D01*
G75*
G02*
X85235000Y57225000I0J-150000D01*
G01*
X85235000Y55575000D01*
G75*
G02*
X85085000Y55425000I-150000J0D01*
G01*
G37*
G04 #@! TD.AperFunction*
G04 #@! TO.P,U9,4,STATUS2*
G04 #@! TO.N,unconnected-(U9-STATUS2-Pad4)*
G04 #@! TA.AperFunction,SMDPad,CuDef*
G36*
G01*
X86355000Y55425000D02*
X86055000Y55425000D01*
G75*
G02*
X85905000Y55575000I0J150000D01*
G01*
X85905000Y57225000D01*
G75*
G02*
X86055000Y57375000I150000J0D01*
G01*
X86355000Y57375000D01*
G75*
G02*
X86505000Y57225000I0J-150000D01*
G01*
X86505000Y55575000D01*
G75*
G02*
X86355000Y55425000I-150000J0D01*
G01*
G37*
G04 #@! TD.AperFunction*
G04 #@! TO.P,U9,5,S2*
G04 #@! TO.N,PIN114*
G04 #@! TA.AperFunction,SMDPad,CuDef*
G36*
G01*
X86355000Y60375000D02*
X86055000Y60375000D01*
G75*
G02*
X85905000Y60525000I0J150000D01*
G01*
X85905000Y62175000D01*
G75*
G02*
X86055000Y62325000I150000J0D01*
G01*
X86355000Y62325000D01*
G75*
G02*
X86505000Y62175000I0J-150000D01*
G01*
X86505000Y60525000D01*
G75*
G02*
X86355000Y60375000I-150000J0D01*
G01*
G37*
G04 #@! TD.AperFunction*
G04 #@! TO.P,U9,6,D2*
G04 #@! TO.N,PIN88*
G04 #@! TA.AperFunction,SMDPad,CuDef*
G36*
G01*
X85085000Y60375000D02*
X84785000Y60375000D01*
G75*
G02*
X84635000Y60525000I0J150000D01*
G01*
X84635000Y62175000D01*
G75*
G02*
X84785000Y62325000I150000J0D01*
G01*
X85085000Y62325000D01*
G75*
G02*
X85235000Y62175000I0J-150000D01*
G01*
X85235000Y60525000D01*
G75*
G02*
X85085000Y60375000I-150000J0D01*
G01*
G37*
G04 #@! TD.AperFunction*
G04 #@! TO.P,U9,7,S1*
G04 #@! TO.N,PIN114*
G04 #@! TA.AperFunction,SMDPad,CuDef*
G36*
G01*
X83815000Y60375000D02*
X83515000Y60375000D01*
G75*
G02*
X83365000Y60525000I0J150000D01*
G01*
X83365000Y62175000D01*
G75*
G02*
X83515000Y62325000I150000J0D01*
G01*
X83815000Y62325000D01*
G75*
G02*
X83965000Y62175000I0J-150000D01*
G01*
X83965000Y60525000D01*
G75*
G02*
X83815000Y60375000I-150000J0D01*
G01*
G37*
G04 #@! TD.AperFunction*
G04 #@! TO.P,U9,8,D1*
G04 #@! TO.N,PIN16*
G04 #@! TA.AperFunction,SMDPad,CuDef*
G36*
G01*
X82545000Y60375000D02*
X82245000Y60375000D01*
G75*
G02*
X82095000Y60525000I0J150000D01*
G01*
X82095000Y62175000D01*
G75*
G02*
X82245000Y62325000I150000J0D01*
G01*
X82545000Y62325000D01*
G75*
G02*
X82695000Y62175000I0J-150000D01*
G01*
X82695000Y60525000D01*
G75*
G02*
X82545000Y60375000I-150000J0D01*
G01*
G37*
G04 #@! TD.AperFunction*
G04 #@! TD*
G04 #@! TO.P,U11,1,IN1*
G04 #@! TO.N,Net-(U11-IN1)*
G04 #@! TA.AperFunction,SMDPad,CuDef*
G36*
G01*
X22045000Y26925000D02*
X21745000Y26925000D01*
G75*
G02*
X21595000Y27075000I0J150000D01*
G01*
X21595000Y28725000D01*
G75*
G02*
X21745000Y28875000I150000J0D01*
G01*
X22045000Y28875000D01*
G75*
G02*
X22195000Y28725000I0J-150000D01*
G01*
X22195000Y27075000D01*
G75*
G02*
X22045000Y26925000I-150000J0D01*
G01*
G37*
G04 #@! TD.AperFunction*
G04 #@! TO.P,U11,2,STATUS1*
G04 #@! TO.N,unconnected-(U11-STATUS1-Pad2)*
G04 #@! TA.AperFunction,SMDPad,CuDef*
G36*
G01*
X23315000Y26925000D02*
X23015000Y26925000D01*
G75*
G02*
X22865000Y27075000I0J150000D01*
G01*
X22865000Y28725000D01*
G75*
G02*
X23015000Y28875000I150000J0D01*
G01*
X23315000Y28875000D01*
G75*
G02*
X23465000Y28725000I0J-150000D01*
G01*
X23465000Y27075000D01*
G75*
G02*
X23315000Y26925000I-150000J0D01*
G01*
G37*
G04 #@! TD.AperFunction*
G04 #@! TO.P,U11,3,IN2*
G04 #@! TO.N,Net-(U11-IN2)*
G04 #@! TA.AperFunction,SMDPad,CuDef*
G36*
G01*
X24585000Y26925000D02*
X24285000Y26925000D01*
G75*
G02*
X24135000Y27075000I0J150000D01*
G01*
X24135000Y28725000D01*
G75*
G02*
X24285000Y28875000I150000J0D01*
G01*
X24585000Y28875000D01*
G75*
G02*
X24735000Y28725000I0J-150000D01*
G01*
X24735000Y27075000D01*
G75*
G02*
X24585000Y26925000I-150000J0D01*
G01*
G37*
G04 #@! TD.AperFunction*
G04 #@! TO.P,U11,4,STATUS2*
G04 #@! TO.N,unconnected-(U11-STATUS2-Pad4)*
G04 #@! TA.AperFunction,SMDPad,CuDef*
G36*
G01*
X25855000Y26925000D02*
X25555000Y26925000D01*
G75*
G02*
X25405000Y27075000I0J150000D01*
G01*
X25405000Y28725000D01*
G75*
G02*
X25555000Y28875000I150000J0D01*
G01*
X25855000Y28875000D01*
G75*
G02*
X26005000Y28725000I0J-150000D01*
G01*
X26005000Y27075000D01*
G75*
G02*
X25855000Y26925000I-150000J0D01*
G01*
G37*
G04 #@! TD.AperFunction*
G04 #@! TO.P,U11,5,S2*
G04 #@! TO.N,PIN114*
G04 #@! TA.AperFunction,SMDPad,CuDef*
G36*
G01*
X25855000Y31875000D02*
X25555000Y31875000D01*
G75*
G02*
X25405000Y32025000I0J150000D01*
G01*
X25405000Y33675000D01*
G75*
G02*
X25555000Y33825000I150000J0D01*
G01*
X25855000Y33825000D01*
G75*
G02*
X26005000Y33675000I0J-150000D01*
G01*
X26005000Y32025000D01*
G75*
G02*
X25855000Y31875000I-150000J0D01*
G01*
G37*
G04 #@! TD.AperFunction*
G04 #@! TO.P,U11,6,D2*
G04 #@! TO.N,PIN51*
G04 #@! TA.AperFunction,SMDPad,CuDef*
G36*
G01*
X24585000Y31875000D02*
X24285000Y31875000D01*
G75*
G02*
X24135000Y32025000I0J150000D01*
G01*
X24135000Y33675000D01*
G75*
G02*
X24285000Y33825000I150000J0D01*
G01*
X24585000Y33825000D01*
G75*
G02*
X24735000Y33675000I0J-150000D01*
G01*
X24735000Y32025000D01*
G75*
G02*
X24585000Y31875000I-150000J0D01*
G01*
G37*
G04 #@! TD.AperFunction*
G04 #@! TO.P,U11,7,S1*
G04 #@! TO.N,PIN114*
G04 #@! TA.AperFunction,SMDPad,CuDef*
G36*
G01*
X23315000Y31875000D02*
X23015000Y31875000D01*
G75*
G02*
X22865000Y32025000I0J150000D01*
G01*
X22865000Y33675000D01*
G75*
G02*
X23015000Y33825000I150000J0D01*
G01*
X23315000Y33825000D01*
G75*
G02*
X23465000Y33675000I0J-150000D01*
G01*
X23465000Y32025000D01*
G75*
G02*
X23315000Y31875000I-150000J0D01*
G01*
G37*
G04 #@! TD.AperFunction*
G04 #@! TO.P,U11,8,D1*
G04 #@! TO.N,PIN50*
G04 #@! TA.AperFunction,SMDPad,CuDef*
G36*
G01*
X22045000Y31875000D02*
X21745000Y31875000D01*
G75*
G02*
X21595000Y32025000I0J150000D01*
G01*
X21595000Y33675000D01*
G75*
G02*
X21745000Y33825000I150000J0D01*
G01*
X22045000Y33825000D01*
G75*
G02*
X22195000Y33675000I0J-150000D01*
G01*
X22195000Y32025000D01*
G75*
G02*
X22045000Y31875000I-150000J0D01*
G01*
G37*
G04 #@! TD.AperFunction*
G04 #@! TD*
G04 #@! TO.P,U8,1,GND*
G04 #@! TO.N,PIN114*
G04 #@! TA.AperFunction,SMDPad,CuDef*
G36*
G01*
X40555000Y61325000D02*
X40855000Y61325000D01*
G75*
G02*
X41005000Y61175000I0J-150000D01*
G01*
X41005000Y59525000D01*
G75*
G02*
X40855000Y59375000I-150000J0D01*
G01*
X40555000Y59375000D01*
G75*
G02*
X40405000Y59525000I0J150000D01*
G01*
X40405000Y61175000D01*
G75*
G02*
X40555000Y61325000I150000J0D01*
G01*
G37*
G04 #@! TD.AperFunction*
G04 #@! TO.P,U8,2,T-*
G04 #@! TO.N,Net-(U8-T-)*
G04 #@! TA.AperFunction,SMDPad,CuDef*
G36*
G01*
X39285000Y61325000D02*
X39585000Y61325000D01*
G75*
G02*
X39735000Y61175000I0J-150000D01*
G01*
X39735000Y59525000D01*
G75*
G02*
X39585000Y59375000I-150000J0D01*
G01*
X39285000Y59375000D01*
G75*
G02*
X39135000Y59525000I0J150000D01*
G01*
X39135000Y61175000D01*
G75*
G02*
X39285000Y61325000I150000J0D01*
G01*
G37*
G04 #@! TD.AperFunction*
G04 #@! TO.P,U8,3,T+*
G04 #@! TO.N,Net-(U8-T+)*
G04 #@! TA.AperFunction,SMDPad,CuDef*
G36*
G01*
X38015000Y61325000D02*
X38315000Y61325000D01*
G75*
G02*
X38465000Y61175000I0J-150000D01*
G01*
X38465000Y59525000D01*
G75*
G02*
X38315000Y59375000I-150000J0D01*
G01*
X38015000Y59375000D01*
G75*
G02*
X37865000Y59525000I0J150000D01*
G01*
X37865000Y61175000D01*
G75*
G02*
X38015000Y61325000I150000J0D01*
G01*
G37*
G04 #@! TD.AperFunction*
G04 #@! TO.P,U8,4,V_CC*
G04 #@! TO.N,+3.3VA*
G04 #@! TA.AperFunction,SMDPad,CuDef*
G36*
G01*
X36745000Y61325000D02*
X37045000Y61325000D01*
G75*
G02*
X37195000Y61175000I0J-150000D01*
G01*
X37195000Y59525000D01*
G75*
G02*
X37045000Y59375000I-150000J0D01*
G01*
X36745000Y59375000D01*
G75*
G02*
X36595000Y59525000I0J150000D01*
G01*
X36595000Y61175000D01*
G75*
G02*
X36745000Y61325000I150000J0D01*
G01*
G37*
G04 #@! TD.AperFunction*
G04 #@! TO.P,U8,5,SCK*
G04 #@! TO.N,/SCK3*
G04 #@! TA.AperFunction,SMDPad,CuDef*
G36*
G01*
X36745000Y56375000D02*
X37045000Y56375000D01*
G75*
G02*
X37195000Y56225000I0J-150000D01*
G01*
X37195000Y54575000D01*
G75*
G02*
X37045000Y54425000I-150000J0D01*
G01*
X36745000Y54425000D01*
G75*
G02*
X36595000Y54575000I0J150000D01*
G01*
X36595000Y56225000D01*
G75*
G02*
X36745000Y56375000I150000J0D01*
G01*
G37*
G04 #@! TD.AperFunction*
G04 #@! TO.P,U8,6,~{CS}*
G04 #@! TO.N,/EGT/SPI_CS*
G04 #@! TA.AperFunction,SMDPad,CuDef*
G36*
G01*
X38015000Y56375000D02*
X38315000Y56375000D01*
G75*
G02*
X38465000Y56225000I0J-150000D01*
G01*
X38465000Y54575000D01*
G75*
G02*
X38315000Y54425000I-150000J0D01*
G01*
X38015000Y54425000D01*
G75*
G02*
X37865000Y54575000I0J150000D01*
G01*
X37865000Y56225000D01*
G75*
G02*
X38015000Y56375000I150000J0D01*
G01*
G37*
G04 #@! TD.AperFunction*
G04 #@! TO.P,U8,7,SO*
G04 #@! TO.N,/MISO3*
G04 #@! TA.AperFunction,SMDPad,CuDef*
G36*
G01*
X39285000Y56375000D02*
X39585000Y56375000D01*
G75*
G02*
X39735000Y56225000I0J-150000D01*
G01*
X39735000Y54575000D01*
G75*
G02*
X39585000Y54425000I-150000J0D01*
G01*
X39285000Y54425000D01*
G75*
G02*
X39135000Y54575000I0J150000D01*
G01*
X39135000Y56225000D01*
G75*
G02*
X39285000Y56375000I150000J0D01*
G01*
G37*
G04 #@! TD.AperFunction*
G04 #@! TO.P,U8,8*
G04 #@! TO.N,N/C*
G04 #@! TA.AperFunction,SMDPad,CuDef*
G36*
G01*
X40555000Y56375000D02*
X40855000Y56375000D01*
G75*
G02*
X41005000Y56225000I0J-150000D01*
G01*
X41005000Y54575000D01*
G75*
G02*
X40855000Y54425000I-150000J0D01*
G01*
X40555000Y54425000D01*
G75*
G02*
X40405000Y54575000I0J150000D01*
G01*
X40405000Y56225000D01*
G75*
G02*
X40555000Y56375000I150000J0D01*
G01*
G37*
G04 #@! TD.AperFunction*
G04 #@! TD*
D71*
G04 #@! TO.N,PIN113*
X161000000Y88000000D03*
X161000000Y97400000D03*
X161000000Y33025000D03*
X161000000Y46600000D03*
X161000000Y22150000D03*
X49200000Y3800000D03*
X160850000Y104225000D03*
X59725000Y3750000D03*
X2700000Y86525000D03*
X161000000Y77975000D03*
X2700000Y76500000D03*
X136775000Y3775000D03*
X92650000Y3775000D03*
X114725000Y3775000D03*
X15575000Y3750000D03*
X2700000Y31550000D03*
X2700000Y65975000D03*
X2700000Y103900000D03*
X2700000Y20675000D03*
X2700000Y56075000D03*
X147650000Y3775000D03*
X102925000Y3775000D03*
X161000000Y67450000D03*
X2700000Y95925000D03*
X81775000Y3750000D03*
X27125000Y3800000D03*
X71150000Y3750000D03*
X161000000Y57550000D03*
X126150000Y3775000D03*
X2700000Y45125000D03*
G04 #@! TD*
G04 #@! TA.AperFunction,Conductor*
G04 #@! TO.N,PIN113*
G36*
X5741212Y105888998D02*
G01*
X5787705Y105835342D01*
X5799091Y105782856D01*
X5699999Y19375001D01*
X5700000Y19375001D01*
X5700000Y19375000D01*
X6683340Y19276666D01*
X6715651Y19269038D01*
X10878998Y17683001D01*
X10916939Y17660233D01*
X14785879Y14287310D01*
X14809926Y14259118D01*
X15164173Y13692323D01*
X16787489Y11095017D01*
X16804416Y11051813D01*
X17600000Y6875000D01*
X145399999Y6875000D01*
X145400000Y6875000D01*
X146096617Y10656637D01*
X146108563Y10691593D01*
X147686944Y13749705D01*
X147722664Y13792226D01*
X152676274Y17556969D01*
X152729287Y17580492D01*
X157500000Y18475000D01*
X157526549Y65255851D01*
X157549551Y105783072D01*
X157569592Y105851181D01*
X157623274Y105897643D01*
X157675551Y105909000D01*
X162054480Y105909000D01*
X162122601Y105888998D01*
X162143575Y105872095D01*
X163372095Y104643576D01*
X163406120Y104581264D01*
X163409000Y104554481D01*
X163409000Y41917000D01*
X163388998Y41848879D01*
X163335342Y41802386D01*
X163283000Y41791000D01*
X161300025Y41791000D01*
X161173295Y41791017D01*
X160922656Y41753271D01*
X160922641Y41753267D01*
X160680436Y41678586D01*
X160452060Y41568632D01*
X160242623Y41425865D01*
X160056807Y41253479D01*
X160056806Y41253477D01*
X159898763Y41055321D01*
X159898755Y41055310D01*
X159772017Y40835815D01*
X159679406Y40599867D01*
X159623002Y40352768D01*
X159623001Y40352762D01*
X159623001Y40352759D01*
X159604058Y40100000D01*
X159622999Y39847263D01*
X159623002Y39847233D01*
X159679406Y39600134D01*
X159772017Y39364186D01*
X159898755Y39144691D01*
X159898763Y39144680D01*
X160056806Y38946524D01*
X160056807Y38946522D01*
X160147994Y38861926D01*
X160242623Y38774135D01*
X160452060Y38631369D01*
X160680436Y38521415D01*
X160680435Y38521415D01*
X160922505Y38446776D01*
X160922651Y38446731D01*
X160922653Y38446731D01*
X160922656Y38446730D01*
X161011244Y38433389D01*
X161173292Y38408984D01*
X161173294Y38408985D01*
X161173295Y38408984D01*
X161300025Y38409000D01*
X163283000Y38409000D01*
X163351121Y38388998D01*
X163397614Y38335342D01*
X163409000Y38283000D01*
X163409000Y15155519D01*
X163388998Y15087398D01*
X163372095Y15066424D01*
X162143576Y13837905D01*
X162081264Y13803879D01*
X162054481Y13801000D01*
X159451150Y13801000D01*
X158874614Y13764727D01*
X158874613Y13764727D01*
X158301506Y13692326D01*
X158301493Y13692324D01*
X157734045Y13584077D01*
X157734037Y13584076D01*
X157174534Y13440419D01*
X157174510Y13440412D01*
X156625119Y13261903D01*
X156088011Y13049247D01*
X156087993Y13049239D01*
X155565321Y12803287D01*
X155565314Y12803283D01*
X155059091Y12524985D01*
X155059088Y12524984D01*
X155059075Y12524976D01*
X154571344Y12215452D01*
X154571332Y12215444D01*
X154104002Y11875909D01*
X154103995Y11875904D01*
X153658898Y11507689D01*
X153658874Y11507667D01*
X153237772Y11112228D01*
X152842333Y10691126D01*
X152842311Y10691102D01*
X152474096Y10246005D01*
X152474091Y10245998D01*
X152134556Y9778668D01*
X152134548Y9778656D01*
X151825024Y9290925D01*
X151825016Y9290912D01*
X151825015Y9290909D01*
X151673058Y9014500D01*
X151546713Y8784679D01*
X151300761Y8262007D01*
X151300753Y8261989D01*
X151088097Y7724881D01*
X150909588Y7175490D01*
X150909581Y7175466D01*
X150765924Y6615963D01*
X150765923Y6615955D01*
X150657676Y6048507D01*
X150657674Y6048494D01*
X150585273Y5475387D01*
X150585273Y5475386D01*
X150549000Y4898851D01*
X150549000Y2295519D01*
X150528998Y2227398D01*
X150512095Y2206424D01*
X149283576Y977905D01*
X149221264Y943879D01*
X149194481Y941000D01*
X14005518Y941000D01*
X13937397Y961002D01*
X13916423Y977905D01*
X12687905Y2206423D01*
X12653879Y2268735D01*
X12651000Y2295518D01*
X12651000Y4658141D01*
X12650999Y4658155D01*
X12650999Y4898849D01*
X12650998Y4898850D01*
X12650998Y4898851D01*
X12614726Y5475375D01*
X12614724Y5475387D01*
X12578794Y5759805D01*
X12542324Y6048498D01*
X12434078Y6615943D01*
X12434074Y6615956D01*
X12434074Y6615962D01*
X12290417Y7175465D01*
X12290410Y7175489D01*
X12203958Y7441560D01*
X12111903Y7724876D01*
X11899246Y8261987D01*
X11653283Y8784685D01*
X11374985Y9290908D01*
X11065450Y9778657D01*
X10725899Y10246008D01*
X10386198Y10656637D01*
X10357671Y10691121D01*
X9962226Y11112227D01*
X9541124Y11507666D01*
X9541123Y11507667D01*
X9541117Y11507673D01*
X9541110Y11507679D01*
X9541100Y11507688D01*
X9096004Y11875903D01*
X9095997Y11875908D01*
X8628667Y12215443D01*
X8628655Y12215451D01*
X8140924Y12524975D01*
X8140917Y12524979D01*
X8140909Y12524984D01*
X7634686Y12803282D01*
X7634680Y12803285D01*
X7634678Y12803286D01*
X7112006Y13049238D01*
X7111988Y13049246D01*
X6574880Y13261902D01*
X6025489Y13440411D01*
X6025465Y13440418D01*
X5465962Y13584075D01*
X5465954Y13584076D01*
X5465938Y13584079D01*
X5343372Y13607460D01*
X4898506Y13692323D01*
X4898493Y13692325D01*
X4325385Y13764726D01*
X3748850Y13800999D01*
X3748839Y13800999D01*
X3497992Y13800999D01*
X1145518Y13800999D01*
X1077397Y13821001D01*
X1056423Y13837904D01*
X-172095Y15066422D01*
X-206121Y15128734D01*
X-209000Y15155517D01*
X-209000Y38282999D01*
X-188998Y38351120D01*
X-135342Y38397613D01*
X-83000Y38408999D01*
X1950004Y38408999D01*
X1950024Y38409001D01*
X2026719Y38409001D01*
X2026723Y38409001D01*
X2277338Y38446775D01*
X2519317Y38521415D01*
X2519515Y38521476D01*
X2519517Y38521478D01*
X2519524Y38521479D01*
X2747871Y38631445D01*
X2957277Y38774216D01*
X3143066Y38946603D01*
X3301087Y39144755D01*
X3364448Y39254501D01*
X3427808Y39364242D01*
X3427810Y39364246D01*
X3520404Y39600172D01*
X3576801Y39847263D01*
X3595741Y40100000D01*
X3576801Y40352737D01*
X3520404Y40599828D01*
X3427810Y40835754D01*
X3427809Y40835755D01*
X3427808Y40835759D01*
X3301089Y41055242D01*
X3301035Y41055310D01*
X3143066Y41253397D01*
X2957277Y41425784D01*
X2957158Y41425865D01*
X2860439Y41491807D01*
X2747873Y41568554D01*
X2519528Y41678520D01*
X2519515Y41678525D01*
X2277348Y41753223D01*
X2277340Y41753225D01*
X2277338Y41753225D01*
X2026723Y41790999D01*
X2026719Y41790999D01*
X-83000Y41790999D01*
X-151121Y41811001D01*
X-197614Y41864657D01*
X-209000Y41916999D01*
X-209000Y104554481D01*
X-188998Y104622602D01*
X-172095Y104643576D01*
X1056424Y105872095D01*
X1118736Y105906121D01*
X1145519Y105909000D01*
X5673091Y105909000D01*
X5741212Y105888998D01*
G37*
G04 #@! TD.AperFunction*
G04 #@! TD*
M02*
