G04 #@! TF.GenerationSoftware,KiCad,Pcbnew,8.0.8*
G04 #@! TF.CreationDate,2025-12-13T23:32:46-05:00*
G04 #@! TF.ProjectId,hellen121vag,68656c6c-656e-4313-9231-7661672e6b69,d*
G04 #@! TF.SameCoordinates,PX2b953a0PY6943058*
G04 #@! TF.FileFunction,Copper,L1,Top*
G04 #@! TF.FilePolarity,Positive*
%FSLAX46Y46*%
G04 Gerber Fmt 4.6, Leading zero omitted, Abs format (unit mm)*
G04 Created by KiCad (PCBNEW 8.0.8) date 2025-12-13 23:32:46*
%MOMM*%
%LPD*%
G01*
G04 APERTURE LIST*
G04 #@! TA.AperFunction,EtchedComponent*
%ADD10C,0.200000*%
G04 #@! TD*
G04 #@! TA.AperFunction,ComponentPad*
%ADD11C,0.600000*%
G04 #@! TD*
G04 #@! TA.AperFunction,SMDPad,CuDef*
%ADD12R,15.100000X0.250000*%
G04 #@! TD*
G04 #@! TA.AperFunction,SMDPad,CuDef*
%ADD13R,14.275000X0.250000*%
G04 #@! TD*
G04 #@! TA.AperFunction,SMDPad,CuDef*
%ADD14R,0.250000X5.175000*%
G04 #@! TD*
G04 #@! TA.AperFunction,SMDPad,CuDef*
%ADD15R,0.250000X6.185000*%
G04 #@! TD*
G04 #@! TA.AperFunction,SMDPad,CuDef*
%ADD16R,0.250000X1.115000*%
G04 #@! TD*
G04 #@! TA.AperFunction,ComponentPad*
%ADD17C,0.700000*%
G04 #@! TD*
G04 #@! TA.AperFunction,SMDPad,CuDef*
%ADD18C,3.000000*%
G04 #@! TD*
G04 #@! TA.AperFunction,SMDPad,CuDef*
%ADD19R,3.000000X0.250000*%
G04 #@! TD*
G04 #@! TA.AperFunction,SMDPad,CuDef*
%ADD20R,0.980000X0.250000*%
G04 #@! TD*
G04 #@! TA.AperFunction,SMDPad,CuDef*
%ADD21R,1.950000X0.250000*%
G04 #@! TD*
G04 #@! TA.AperFunction,SMDPad,CuDef*
%ADD22R,1.450000X0.250000*%
G04 #@! TD*
G04 #@! TA.AperFunction,SMDPad,CuDef*
%ADD23R,1.100000X0.250000*%
G04 #@! TD*
G04 #@! TA.AperFunction,SMDPad,CuDef*
%ADD24R,0.250000X27.600000*%
G04 #@! TD*
G04 #@! TA.AperFunction,SMDPad,CuDef*
%ADD25R,0.950000X0.250000*%
G04 #@! TD*
G04 #@! TA.AperFunction,ComponentPad*
%ADD26C,1.500000*%
G04 #@! TD*
G04 #@! TA.AperFunction,SMDPad,CuDef*
%ADD27O,17.000000X0.200000*%
G04 #@! TD*
G04 #@! TA.AperFunction,SMDPad,CuDef*
%ADD28O,15.400000X0.200000*%
G04 #@! TD*
G04 #@! TA.AperFunction,SMDPad,CuDef*
%ADD29O,0.200000X10.200000*%
G04 #@! TD*
G04 #@! TA.AperFunction,SMDPad,CuDef*
%ADD30O,0.200000X0.300000*%
G04 #@! TD*
G04 #@! TA.AperFunction,SMDPad,CuDef*
%ADD31O,0.200000X2.600000*%
G04 #@! TD*
G04 #@! TA.AperFunction,SMDPad,CuDef*
%ADD32O,0.200000X1.500000*%
G04 #@! TD*
G04 #@! TA.AperFunction,SMDPad,CuDef*
%ADD33O,0.200000X3.300000*%
G04 #@! TD*
G04 #@! TA.AperFunction,SMDPad,CuDef*
%ADD34O,0.200000X1.000000*%
G04 #@! TD*
G04 #@! TA.AperFunction,SMDPad,CuDef*
%ADD35O,0.200000X4.800000*%
G04 #@! TD*
G04 #@! TA.AperFunction,SMDPad,CuDef*
%ADD36O,0.200000X1.225000*%
G04 #@! TD*
G04 #@! TA.AperFunction,SMDPad,CuDef*
%ADD37O,9.300000X0.200000*%
G04 #@! TD*
G04 #@! TA.AperFunction,SMDPad,CuDef*
%ADD38R,0.200000X2.100000*%
G04 #@! TD*
G04 #@! TA.AperFunction,SMDPad,CuDef*
%ADD39R,9.200000X0.200000*%
G04 #@! TD*
G04 #@! TA.AperFunction,SMDPad,CuDef*
%ADD40R,0.200000X12.399996*%
G04 #@! TD*
G04 #@! TA.AperFunction,SMDPad,CuDef*
%ADD41R,0.200000X1.600000*%
G04 #@! TD*
G04 #@! TA.AperFunction,SMDPad,CuDef*
%ADD42R,4.500000X0.200000*%
G04 #@! TD*
G04 #@! TA.AperFunction,SMDPad,CuDef*
%ADD43R,0.200000X2.000000*%
G04 #@! TD*
G04 #@! TA.AperFunction,SMDPad,CuDef*
%ADD44R,1.400000X0.200000*%
G04 #@! TD*
G04 #@! TA.AperFunction,SMDPad,CuDef*
%ADD45R,0.200000X4.900000*%
G04 #@! TD*
G04 #@! TA.AperFunction,SMDPad,CuDef*
%ADD46R,5.000000X0.200000*%
G04 #@! TD*
G04 #@! TA.AperFunction,SMDPad,CuDef*
%ADD47R,0.200000X10.700000*%
G04 #@! TD*
G04 #@! TA.AperFunction,SMDPad,CuDef*
%ADD48R,0.200000X2.299999*%
G04 #@! TD*
G04 #@! TA.AperFunction,ComponentPad*
%ADD49C,2.600000*%
G04 #@! TD*
G04 #@! TA.AperFunction,ComponentPad*
%ADD50C,3.700000*%
G04 #@! TD*
G04 #@! TA.AperFunction,ComponentPad*
%ADD51C,2.200000*%
G04 #@! TD*
G04 #@! TA.AperFunction,ComponentPad*
%ADD52C,1.700000*%
G04 #@! TD*
G04 #@! TA.AperFunction,SMDPad,CuDef*
%ADD53O,0.250000X10.200000*%
G04 #@! TD*
G04 #@! TA.AperFunction,SMDPad,CuDef*
%ADD54O,5.800001X0.250000*%
G04 #@! TD*
G04 #@! TA.AperFunction,SMDPad,CuDef*
%ADD55O,0.200000X0.399999*%
G04 #@! TD*
G04 #@! TA.AperFunction,ComponentPad*
%ADD56C,0.599999*%
G04 #@! TD*
G04 #@! TA.AperFunction,SMDPad,CuDef*
%ADD57O,0.800001X0.599999*%
G04 #@! TD*
G04 #@! TA.AperFunction,SMDPad,CuDef*
%ADD58O,1.000001X1.500000*%
G04 #@! TD*
G04 #@! TA.AperFunction,SMDPad,CuDef*
%ADD59O,0.200000X4.149999*%
G04 #@! TD*
G04 #@! TA.AperFunction,SMDPad,CuDef*
%ADD60O,0.200000X25.849999*%
G04 #@! TD*
G04 #@! TA.AperFunction,SMDPad,CuDef*
%ADD61O,11.324999X0.200000*%
G04 #@! TD*
G04 #@! TA.AperFunction,SMDPad,CuDef*
%ADD62O,25.699999X0.200000*%
G04 #@! TD*
G04 #@! TA.AperFunction,SMDPad,CuDef*
%ADD63O,1.699999X0.200000*%
G04 #@! TD*
G04 #@! TA.AperFunction,SMDPad,CuDef*
%ADD64O,0.200000X8.824999*%
G04 #@! TD*
G04 #@! TA.AperFunction,SMDPad,CuDef*
%ADD65O,0.200000X14.399999*%
G04 #@! TD*
G04 #@! TA.AperFunction,SMDPad,CuDef*
%ADD66O,0.200000X4.249999*%
G04 #@! TD*
G04 #@! TA.AperFunction,SMDPad,CuDef*
%ADD67O,0.200000X3.600000*%
G04 #@! TD*
G04 #@! TA.AperFunction,ComponentPad*
%ADD68C,1.524000*%
G04 #@! TD*
G04 #@! TA.AperFunction,SMDPad,CuDef*
%ADD69R,1.200000X0.900000*%
G04 #@! TD*
G04 #@! TA.AperFunction,SMDPad,CuDef*
%ADD70C,2.000000*%
G04 #@! TD*
G04 #@! TA.AperFunction,SMDPad,CuDef*
%ADD71R,2.032000X5.080000*%
G04 #@! TD*
G04 #@! TA.AperFunction,ComponentPad*
%ADD72C,1.300000*%
G04 #@! TD*
G04 #@! TA.AperFunction,SMDPad,CuDef*
%ADD73R,11.430000X7.620000*%
G04 #@! TD*
G04 #@! TA.AperFunction,SMDPad,CuDef*
%ADD74R,0.800000X2.200000*%
G04 #@! TD*
G04 #@! TA.AperFunction,SMDPad,CuDef*
%ADD75R,3.600000X2.600000*%
G04 #@! TD*
G04 #@! TA.AperFunction,SMDPad,CuDef*
%ADD76R,0.900000X1.200000*%
G04 #@! TD*
G04 #@! TA.AperFunction,ComponentPad*
%ADD77O,1.700000X1.700000*%
G04 #@! TD*
G04 #@! TA.AperFunction,ComponentPad*
%ADD78R,1.700000X1.700000*%
G04 #@! TD*
G04 #@! TA.AperFunction,ComponentPad*
%ADD79O,1.100000X2.400000*%
G04 #@! TD*
G04 #@! TA.AperFunction,ComponentPad*
%ADD80C,1.100000*%
G04 #@! TD*
G04 #@! TA.AperFunction,ComponentPad*
%ADD81R,1.100000X1.100000*%
G04 #@! TD*
G04 #@! TA.AperFunction,ViaPad*
%ADD82C,0.600000*%
G04 #@! TD*
G04 #@! TA.AperFunction,ViaPad*
%ADD83C,2.000000*%
G04 #@! TD*
G04 #@! TA.AperFunction,ViaPad*
%ADD84C,0.800000*%
G04 #@! TD*
G04 #@! TA.AperFunction,Conductor*
%ADD85C,0.400000*%
G04 #@! TD*
G04 #@! TA.AperFunction,Conductor*
%ADD86C,0.254000*%
G04 #@! TD*
G04 #@! TA.AperFunction,Conductor*
%ADD87C,0.500000*%
G04 #@! TD*
G04 #@! TA.AperFunction,Conductor*
%ADD88C,0.300000*%
G04 #@! TD*
G04 #@! TA.AperFunction,Conductor*
%ADD89C,0.600000*%
G04 #@! TD*
G04 #@! TA.AperFunction,Conductor*
%ADD90C,0.200000*%
G04 #@! TD*
G04 #@! TA.AperFunction,Conductor*
%ADD91C,1.778000*%
G04 #@! TD*
G04 #@! TA.AperFunction,Conductor*
%ADD92C,1.000000*%
G04 #@! TD*
G04 #@! TA.AperFunction,Conductor*
%ADD93C,0.800000*%
G04 #@! TD*
G04 #@! TA.AperFunction,Conductor*
%ADD94C,2.000000*%
G04 #@! TD*
G04 #@! TA.AperFunction,Conductor*
%ADD95C,3.000000*%
G04 #@! TD*
G04 APERTURE END LIST*
D10*
G04 #@! TO.C,G6*
X145400000Y25075000D02*
X145400000Y26575000D01*
X145400000Y25075000D02*
X146900000Y25075000D01*
X146900000Y25075000D02*
X146900000Y20075000D01*
X146900000Y20075000D02*
X149400000Y20075000D01*
X149400000Y28075000D02*
X147400000Y28075000D01*
X149400000Y20075000D02*
X149400000Y28075000D01*
X147400000Y28075000D02*
G75*
G02*
X145400000Y26575000I-1921601J478801D01*
G01*
G04 #@! TD*
D11*
G04 #@! TO.P,M11,E1,Thresh_IN*
G04 #@! TO.N,/THRESHOLD_VR*
X99909400Y30011600D03*
G04 #@! TO.P,M11,E2,OUT_A*
G04 #@! TO.N,/VR_ANALOG*
X99909400Y31211600D03*
G04 #@! TO.P,M11,E3,OUT*
G04 #@! TO.N,/IN_CRANK*
X99909400Y28811600D03*
G04 #@! TO.P,M11,E4,V5_IN*
G04 #@! TO.N,+5V*
X99909400Y27611600D03*
D12*
G04 #@! TO.P,M11,G,GND*
G04 #@! TO.N,GND*
X107134400Y36761600D03*
D13*
X107546900Y27311600D03*
D14*
X99709400Y34299100D03*
D15*
X114559400Y30279100D03*
D16*
X114559400Y36329100D03*
D11*
G04 #@! TO.P,M11,W1,VR-*
G04 #@! TO.N,/IN_CRANK-*
X114334400Y34071600D03*
G04 #@! TO.P,M11,W2,VR+*
G04 #@! TO.N,/IN_CRANK+*
X114334400Y35071600D03*
G04 #@! TD*
D17*
G04 #@! TO.P,M9,E1,LSU_Un*
G04 #@! TO.N,/LSU_SENSOR_U*
X18695000Y39055000D03*
G04 #@! TO.P,M9,E2,LSU_Vm*
G04 #@! TO.N,/LSU_SENSOR_U{slash}PUMP_I*
X21695000Y39055000D03*
G04 #@! TO.P,M9,E3,LSU_Ip*
G04 #@! TO.N,/LSU_PUMP_I*
X20695000Y39055000D03*
G04 #@! TO.P,M9,E4,LSU_Rtrim*
G04 #@! TO.N,/LSU_CALIBR_RES*
X19695000Y39055000D03*
D18*
G04 #@! TO.P,M9,E5,LSU_H+*
G04 #@! TO.N,/LSU_HEAT-*
X23845000Y40305000D03*
D19*
G04 #@! TO.P,M9,E6,LSU_H-*
G04 #@! TO.N,GND*
X27345000Y38680000D03*
D20*
G04 #@! TO.P,M9,G,GND*
X22905000Y66030000D03*
D21*
X30120000Y38680000D03*
D22*
X17820000Y66030000D03*
D23*
X30545000Y66030000D03*
D24*
X30970000Y52355000D03*
D20*
X26205000Y66030000D03*
D24*
X17220000Y52355000D03*
D25*
X17570000Y38680000D03*
G04 #@! TO.P,M9,J1,SEL1*
G04 #@! TO.N,unconnected-(M9-SEL1-PadJ1)*
G04 #@! TA.AperFunction,SMDPad,CuDef*
G36*
G01*
X29945000Y56605000D02*
X28695000Y56605000D01*
G75*
G02*
X28570000Y56730000I0J125000D01*
G01*
X28570000Y56980000D01*
G75*
G02*
X28695000Y57105000I125000J0D01*
G01*
X29945000Y57105000D01*
G75*
G02*
X30070000Y56980000I0J-125000D01*
G01*
X30070000Y56730000D01*
G75*
G02*
X29945000Y56605000I-125000J0D01*
G01*
G37*
G04 #@! TD.AperFunction*
G04 #@! TO.P,M9,J2,SEL2*
G04 #@! TO.N,Net-(M9-PULL_UP2)*
G04 #@! TA.AperFunction,SMDPad,CuDef*
G36*
G01*
X27270000Y58280000D02*
X27020000Y58280000D01*
G75*
G02*
X26895000Y58405000I0J125000D01*
G01*
X26895000Y59655000D01*
G75*
G02*
X27020000Y59780000I125000J0D01*
G01*
X27270000Y59780000D01*
G75*
G02*
X27395000Y59655000I0J-125000D01*
G01*
X27395000Y58405000D01*
G75*
G02*
X27270000Y58280000I-125000J0D01*
G01*
G37*
G04 #@! TD.AperFunction*
G04 #@! TO.P,M9,J_GND1,PULL_DOWN1*
G04 #@! TO.N,unconnected-(M9-PULL_DOWN1-PadJ_GND1)*
G04 #@! TA.AperFunction,SMDPad,CuDef*
G36*
G01*
X29945000Y57405000D02*
X28695000Y57405000D01*
G75*
G02*
X28570000Y57530000I0J125000D01*
G01*
X28570000Y57780000D01*
G75*
G02*
X28695000Y57905000I125000J0D01*
G01*
X29945000Y57905000D01*
G75*
G02*
X30070000Y57780000I0J-125000D01*
G01*
X30070000Y57530000D01*
G75*
G02*
X29945000Y57405000I-125000J0D01*
G01*
G37*
G04 #@! TD.AperFunction*
G04 #@! TO.P,M9,J_GND2,PULL_DOWN2*
G04 #@! TO.N,unconnected-(M9-PULL_DOWN2-PadJ_GND2)*
G04 #@! TA.AperFunction,SMDPad,CuDef*
G36*
G01*
X27395000Y57730000D02*
X27395000Y57480000D01*
G75*
G02*
X27270000Y57355000I-125000J0D01*
G01*
X27020000Y57355000D01*
G75*
G02*
X26895000Y57480000I0J125000D01*
G01*
X26895000Y57730000D01*
G75*
G02*
X27020000Y57855000I125000J0D01*
G01*
X27270000Y57855000D01*
G75*
G02*
X27395000Y57730000I0J-125000D01*
G01*
G37*
G04 #@! TD.AperFunction*
G04 #@! TO.P,M9,J_VCC1,PULL_UP1*
G04 #@! TO.N,unconnected-(M9-PULL_UP1-PadJ_VCC1)*
G04 #@! TA.AperFunction,SMDPad,CuDef*
G36*
G01*
X28070000Y56605000D02*
X27820000Y56605000D01*
G75*
G02*
X27695000Y56730000I0J125000D01*
G01*
X27695000Y56980000D01*
G75*
G02*
X27820000Y57105000I125000J0D01*
G01*
X28070000Y57105000D01*
G75*
G02*
X28195000Y56980000I0J-125000D01*
G01*
X28195000Y56730000D01*
G75*
G02*
X28070000Y56605000I-125000J0D01*
G01*
G37*
G04 #@! TD.AperFunction*
G04 #@! TO.P,M9,J_VCC2,PULL_UP2*
G04 #@! TO.N,Net-(M9-PULL_UP2)*
G04 #@! TA.AperFunction,SMDPad,CuDef*
G36*
G01*
X28070000Y58280000D02*
X27820000Y58280000D01*
G75*
G02*
X27695000Y58405000I0J125000D01*
G01*
X27695000Y59655000D01*
G75*
G02*
X27820000Y59780000I125000J0D01*
G01*
X28070000Y59780000D01*
G75*
G02*
X28195000Y59655000I0J-125000D01*
G01*
X28195000Y58405000D01*
G75*
G02*
X28070000Y58280000I-125000J0D01*
G01*
G37*
G04 #@! TD.AperFunction*
D17*
G04 #@! TO.P,M9,W1,V5_IN*
G04 #@! TO.N,+5V*
X28345000Y65646200D03*
G04 #@! TO.P,M9,W2,CAN_VIO*
G04 #@! TO.N,unconnected-(M9-CAN_VIO-PadW2)*
X27345000Y65646200D03*
G04 #@! TO.P,M9,W3,CANL*
G04 #@! TO.N,/CAN-*
X24049000Y65646200D03*
G04 #@! TO.P,M9,W4,CANH*
G04 #@! TO.N,/CAN+*
X25065000Y65646200D03*
G04 #@! TO.P,M9,W5,nReset*
G04 #@! TO.N,Net-(J8-Pin_5)*
G04 #@! TA.AperFunction,SMDPad,CuDef*
G36*
G01*
X22045000Y66155000D02*
X22045000Y66155000D01*
G75*
G02*
X22170000Y66030000I0J-125000D01*
G01*
X22170000Y65780000D01*
G75*
G02*
X22045000Y65655000I-125000J0D01*
G01*
X22045000Y65655000D01*
G75*
G02*
X21920000Y65780000I0J125000D01*
G01*
X21920000Y66030000D01*
G75*
G02*
X22045000Y66155000I125000J0D01*
G01*
G37*
G04 #@! TD.AperFunction*
G04 #@! TO.P,M9,W6,SWDIO*
G04 #@! TO.N,Net-(J8-Pin_4)*
G04 #@! TA.AperFunction,SMDPad,CuDef*
G36*
G01*
X21545000Y66155000D02*
X21545000Y66155000D01*
G75*
G02*
X21670000Y66030000I0J-125000D01*
G01*
X21670000Y65780000D01*
G75*
G02*
X21545000Y65655000I-125000J0D01*
G01*
X21545000Y65655000D01*
G75*
G02*
X21420000Y65780000I0J125000D01*
G01*
X21420000Y66030000D01*
G75*
G02*
X21545000Y66155000I125000J0D01*
G01*
G37*
G04 #@! TD.AperFunction*
G04 #@! TO.P,M9,W7,SWCLK*
G04 #@! TO.N,Net-(J8-Pin_2)*
G04 #@! TA.AperFunction,SMDPad,CuDef*
G36*
G01*
X21045000Y66155000D02*
X21045000Y66155000D01*
G75*
G02*
X21170000Y66030000I0J-125000D01*
G01*
X21170000Y65780000D01*
G75*
G02*
X21045000Y65655000I-125000J0D01*
G01*
X21045000Y65655000D01*
G75*
G02*
X20920000Y65780000I0J125000D01*
G01*
X20920000Y66030000D01*
G75*
G02*
X21045000Y66155000I125000J0D01*
G01*
G37*
G04 #@! TD.AperFunction*
G04 #@! TO.P,M9,W8,V33_OUT*
G04 #@! TO.N,Net-(J8-Pin_1)*
G04 #@! TA.AperFunction,SMDPad,CuDef*
G36*
G01*
X18945000Y66155000D02*
X18945000Y66155000D01*
G75*
G02*
X19070000Y66030000I0J-125000D01*
G01*
X19070000Y65780000D01*
G75*
G02*
X18945000Y65655000I-125000J0D01*
G01*
X18945000Y65655000D01*
G75*
G02*
X18820000Y65780000I0J125000D01*
G01*
X18820000Y66030000D01*
G75*
G02*
X18945000Y66155000I125000J0D01*
G01*
G37*
G04 #@! TD.AperFunction*
G04 #@! TO.P,M9,W9,VDDA*
G04 #@! TO.N,unconnected-(M9-VDDA-PadW9)*
X29345000Y65646200D03*
G04 #@! TD*
D26*
G04 #@! TO.P,M8,E1,VBAT*
G04 #@! TO.N,/VBAT*
X93615981Y62312109D03*
G04 #@! TO.P,M8,E2,V12*
G04 #@! TO.N,+12V*
X93615981Y55912112D03*
G04 #@! TO.P,M8,E3,VIGN*
G04 #@! TO.N,/VIGN*
X93615981Y54012109D03*
G04 #@! TO.P,M8,E4,V5*
G04 #@! TO.N,+5V*
X93615981Y49712109D03*
D11*
G04 #@! TO.P,M8,E5,EN_5VP*
G04 #@! TO.N,+12V_PROT*
X94065980Y47312112D03*
G04 #@! TO.P,M8,E6,PG_5VP*
G04 #@! TO.N,unconnected-(M8-PG_5VP-PadE6)*
X94065980Y46312111D03*
D27*
G04 #@! TO.P,M8,S1,GND*
G04 #@! TO.N,GND*
X85865983Y42812109D03*
D28*
X86665984Y63412109D03*
D29*
X77465985Y49962111D03*
D30*
X94265982Y63362109D03*
D31*
X94265982Y51812109D03*
D32*
X94265982Y45012111D03*
D26*
X93615981Y43462109D03*
D33*
X77465985Y58462109D03*
D34*
X94265982Y48312112D03*
D35*
X94265982Y59162111D03*
D30*
X77465985Y42862109D03*
D26*
G04 #@! TO.P,M8,V1,V12_PERM*
G04 #@! TO.N,/V12_PERM*
X78115984Y62762111D03*
G04 #@! TO.P,M8,V2,IN_VIGN*
G04 #@! TO.N,/IN_VIGN*
X78115984Y60912112D03*
G04 #@! TO.P,M8,V3,V12_RAW*
G04 #@! TO.N,+12V_RAW*
X78115984Y55962109D03*
G04 #@! TO.P,M8,V4,5VP*
G04 #@! TO.N,+5VP*
X78115984Y43912111D03*
G04 #@! TD*
D11*
G04 #@! TO.P,M5,E1,V5A*
G04 #@! TO.N,+5VA*
X31800000Y34274998D03*
D36*
G04 #@! TO.P,M5,E2,GND*
G04 #@! TO.N,GND*
X22900000Y32299998D03*
D11*
X31800000Y33324998D03*
D37*
X27450000Y34874998D03*
X27450000Y31774998D03*
D11*
G04 #@! TO.P,M5,E3,OUT_KNOCK*
G04 #@! TO.N,/IN_KNOCK1*
X31800000Y32375000D03*
G04 #@! TO.P,M5,W1,IN_KNOCK*
G04 #@! TO.N,/IN_KNOCK1_RAW*
X23100000Y33374998D03*
G04 #@! TO.P,M5,W2,VREF*
G04 #@! TO.N,/VREF2*
X23100000Y34274998D03*
G04 #@! TD*
G04 #@! TO.P,M3,E1,SPI2_SCK*
G04 #@! TO.N,unconnected-(M3-SPI2_SCK-PadE1)*
X81212501Y96171374D03*
G04 #@! TO.P,M3,E2,SPI2_MISO*
G04 #@! TO.N,unconnected-(M3-SPI2_MISO-PadE2)*
X81212501Y95371373D03*
G04 #@! TO.P,M3,E3,SPI2_MOSI*
G04 #@! TO.N,unconnected-(M3-SPI2_MOSI-PadE3)*
X81212501Y94571375D03*
G04 #@! TO.P,M3,E4,SPI2_CS*
G04 #@! TO.N,unconnected-(M3-SPI2_CS-PadE4)*
X81212501Y93771374D03*
G04 #@! TO.P,M3,E6,OUT_IO3*
G04 #@! TO.N,/MAIN_RELAY*
X81212501Y92971373D03*
G04 #@! TO.P,M3,E7,OUT_IO5*
G04 #@! TO.N,/OUT1*
X81212499Y92171374D03*
G04 #@! TO.P,M3,E8,OUT_IO1*
G04 #@! TO.N,/FUEL_PUMP_RELAY*
X81212499Y91371374D03*
G04 #@! TO.P,M3,E9,OUT_IO6*
G04 #@! TO.N,/OUT2*
X81212501Y90571370D03*
G04 #@! TO.P,M3,E10,OUT_IO10*
G04 #@! TO.N,/VVT1_1*
X81212501Y89771374D03*
G04 #@! TO.P,M3,E11,OUT_IO9*
G04 #@! TO.N,unconnected-(M3-OUT_IO9-PadE11)*
X81212501Y88971373D03*
G04 #@! TO.P,M3,E12,OUT_IO2*
G04 #@! TO.N,/WASTEGATE*
X81212501Y88171372D03*
G04 #@! TO.P,M3,E13,OUT_IO12*
G04 #@! TO.N,/ETB_EN*
X81212499Y87371374D03*
G04 #@! TO.P,M3,E14,OUT_PWM5*
G04 #@! TO.N,/VVT2_B1*
X81212499Y86571373D03*
G04 #@! TO.P,M3,E15,OUT_PWM4*
G04 #@! TO.N,/VVT2_B2*
X81212499Y85771372D03*
G04 #@! TO.P,M3,E16,OUT_PWM3*
G04 #@! TO.N,/-ETB*
X81212501Y84971374D03*
G04 #@! TO.P,M3,E17,OUT_PWM2*
G04 #@! TO.N,/+ETB*
X81212501Y84171373D03*
G04 #@! TO.P,M3,E18,OUT_INJ2*
G04 #@! TO.N,/INJ2*
X81212501Y83371374D03*
G04 #@! TO.P,M3,E19,OUT_INJ1*
G04 #@! TO.N,/INJ1*
X81212499Y82571373D03*
G04 #@! TO.P,M3,E20,OUT_IO13*
G04 #@! TO.N,unconnected-(M3-OUT_IO13-PadE20)*
X81212499Y81771372D03*
G04 #@! TO.P,M3,E21,OUT_IO4*
G04 #@! TO.N,/IDLE*
X81212501Y80971374D03*
G04 #@! TO.P,M3,E22,OUT_IO8*
G04 #@! TO.N,/CHECK_ENGINE*
X81212501Y80171373D03*
G04 #@! TO.P,M3,E23,OUT_IO7*
G04 #@! TO.N,/VVT1_2*
X81212501Y79371372D03*
G04 #@! TO.P,M3,E24,OUT_IO11*
G04 #@! TO.N,unconnected-(M3-OUT_IO11-PadE24)*
X81212501Y78571374D03*
G04 #@! TO.P,M3,E25,OUT_PWM7*
G04 #@! TO.N,/FUEL_CONSUM*
X81212501Y77771373D03*
G04 #@! TO.P,M3,E26,OUT_PWM6*
G04 #@! TO.N,/THRESHOLD_VR*
X81212501Y76971374D03*
G04 #@! TO.P,M3,E27,OUT_PWM1*
G04 #@! TO.N,/TACH*
X81212501Y76171373D03*
G04 #@! TO.P,M3,E28,OUT_PWM8*
G04 #@! TO.N,/OUT3*
X81212501Y75371373D03*
G04 #@! TO.P,M3,E29,OUT_INJ3*
G04 #@! TO.N,/INJ3*
X81212501Y74571374D03*
G04 #@! TO.P,M3,E30,OUT_INJ4*
G04 #@! TO.N,/INJ4*
X81212501Y73771373D03*
G04 #@! TO.P,M3,E31,OUT_INJ5*
G04 #@! TO.N,/INJ5*
X81212499Y72971375D03*
G04 #@! TO.P,M3,E32,OUT_INJ6*
G04 #@! TO.N,/INJ6*
X81212501Y72171371D03*
G04 #@! TO.P,M3,E33,OUT_INJ7*
G04 #@! TO.N,/INJ7*
X81212501Y71371373D03*
G04 #@! TO.P,M3,E34,OUT_INJ8*
G04 #@! TO.N,/INJ8*
X81212501Y70571374D03*
G04 #@! TO.P,M3,E35,IO6*
G04 #@! TO.N,unconnected-(M3-IO6-PadE35)*
X81212501Y69771374D03*
G04 #@! TO.P,M3,E36,IO8*
G04 #@! TO.N,unconnected-(M3-IO8-PadE36)*
X81212501Y68971373D03*
G04 #@! TO.P,M3,E37,IO7*
G04 #@! TO.N,unconnected-(M3-IO7-PadE37)*
X81212501Y68171372D03*
G04 #@! TO.P,M3,E38,V5A*
G04 #@! TO.N,unconnected-(M3-V5A-PadE38)*
X81212499Y62271378D03*
G04 #@! TO.P,M3,E39,GNDA*
G04 #@! TO.N,unconnected-(M3-GNDA-PadE39)*
X81212501Y61471377D03*
D38*
G04 #@! TO.P,M3,G,GND*
G04 #@! TO.N,GND*
X39312499Y84721377D03*
D39*
X50612501Y98971376D03*
D40*
X39312499Y69471375D03*
D41*
X81412501Y97471377D03*
D42*
X60862507Y98971376D03*
D43*
X81412501Y59971381D03*
D44*
X41112506Y59071375D03*
D45*
X81412501Y65221375D03*
D46*
X42512501Y98971376D03*
D47*
X39312499Y92921376D03*
D48*
X39312499Y60121377D03*
D11*
G04 #@! TO.P,M3,N1,USBID*
G04 #@! TO.N,unconnected-(M3-USBID-PadN1)*
X81212501Y98771377D03*
G04 #@! TO.P,M3,N2,USBM*
G04 #@! TO.N,/USBM*
X80412503Y98771379D03*
G04 #@! TO.P,M3,N3,USBP*
G04 #@! TO.N,/USBP*
X79612501Y98771379D03*
G04 #@! TO.P,M3,N4,VBUS*
G04 #@! TO.N,/VBUS*
X78812504Y98771377D03*
G04 #@! TO.P,M3,N5,BOOT0*
G04 #@! TO.N,unconnected-(M3-BOOT0-PadN5)*
X78012503Y98771377D03*
G04 #@! TO.P,M3,N6,SWO*
G04 #@! TO.N,unconnected-(M3-SWO-PadN6)*
X77212501Y98771377D03*
G04 #@! TO.P,M3,N7,SWDIO*
G04 #@! TO.N,unconnected-(M3-SWDIO-PadN7)*
X76412504Y98771377D03*
G04 #@! TO.P,M3,N8,SWCLK*
G04 #@! TO.N,unconnected-(M3-SWCLK-PadN8)*
X75612503Y98771379D03*
G04 #@! TO.P,M3,N9,nReset*
G04 #@! TO.N,unconnected-(M3-nReset-PadN9)*
X74812504Y98771377D03*
G04 #@! TO.P,M3,N10,SPI3_CS*
G04 #@! TO.N,/SPI3_CS*
X74012503Y98771377D03*
G04 #@! TO.P,M3,N11,SPI3_SCK*
G04 #@! TO.N,/SPI3_SCK*
X73212501Y98771377D03*
G04 #@! TO.P,M3,N12,SPI3_MISO*
G04 #@! TO.N,/SPI3_MISO*
X72412501Y98771377D03*
G04 #@! TO.P,M3,N13,SPI3_MOSI*
G04 #@! TO.N,/SPI3_MOSI*
X71612503Y98771377D03*
G04 #@! TO.P,M3,N14,I2C_SCL*
G04 #@! TO.N,unconnected-(M3-I2C_SCL-PadN14)*
X70812501Y98771377D03*
G04 #@! TO.P,M3,N15,I2C_SDA*
G04 #@! TO.N,unconnected-(M3-I2C_SDA-PadN15)*
X70012501Y98771379D03*
G04 #@! TO.P,M3,N16,IO1*
G04 #@! TO.N,unconnected-(M3-IO1-PadN16)*
X69212501Y98771379D03*
G04 #@! TO.P,M3,N17,UART2_TX*
G04 #@! TO.N,/TX2*
X68412501Y98771377D03*
G04 #@! TO.P,M3,N18,UART2_RX*
G04 #@! TO.N,/RX2*
X67612501Y98771377D03*
G04 #@! TO.P,M3,N19,IO2*
G04 #@! TO.N,unconnected-(M3-IO2-PadN19)*
X66812501Y98771377D03*
G04 #@! TO.P,M3,N20,IO4*
G04 #@! TO.N,unconnected-(M3-IO4-PadN20)*
X66012501Y98771377D03*
G04 #@! TO.P,M3,N21,IO3*
G04 #@! TO.N,unconnected-(M3-IO3-PadN21)*
X65212503Y98771379D03*
G04 #@! TO.P,M3,N22,V33*
G04 #@! TO.N,unconnected-(M3-V33-PadN22)*
X64412501Y98771377D03*
G04 #@! TO.P,M3,N23,IO5*
G04 #@! TO.N,unconnected-(M3-IO5-PadN23)*
X63612501Y98771377D03*
G04 #@! TO.P,M3,N24,UART8_RX*
G04 #@! TO.N,/RX1*
X58112501Y98771377D03*
G04 #@! TO.P,M3,N25,UART8_TX*
G04 #@! TO.N,/TX1*
X57312501Y98771377D03*
G04 #@! TO.P,M3,N26,IN_VIGN*
G04 #@! TO.N,/VIGN*
X56512503Y98771377D03*
G04 #@! TO.P,M3,N27,VBAT*
G04 #@! TO.N,/VBAT*
X55712504Y98771377D03*
G04 #@! TO.P,M3,N28,VCC*
G04 #@! TO.N,+5V*
X45512504Y98771377D03*
G04 #@! TO.P,M3,N29,V33*
G04 #@! TO.N,+3V3*
X39512501Y98771377D03*
G04 #@! TO.P,M3,S1,IN_D4*
G04 #@! TO.N,/IN_D4*
X80612501Y59271372D03*
G04 #@! TO.P,M3,S2,IN_D3*
G04 #@! TO.N,/IN_D3*
X79412501Y59271374D03*
G04 #@! TO.P,M3,S3,IN_D2*
G04 #@! TO.N,/IN_D2*
X78212503Y59271374D03*
G04 #@! TO.P,M3,S4,IN_D1*
G04 #@! TO.N,/IN_D1*
X77012501Y59271372D03*
G04 #@! TO.P,M3,S5,VREF2*
G04 #@! TO.N,unconnected-(M3-VREF2-PadS5)*
X75812501Y59271374D03*
G04 #@! TO.P,M3,S6,IN_SENS4*
G04 #@! TO.N,unconnected-(M3-IN_SENS4-PadS6)*
X74712515Y59271374D03*
G04 #@! TO.P,M3,S7,IN_SENS3*
G04 #@! TO.N,unconnected-(M3-IN_SENS3-PadS7)*
X73512514Y59271374D03*
G04 #@! TO.P,M3,S8,IN_SENS2*
G04 #@! TO.N,unconnected-(M3-IN_SENS2-PadS8)*
X72312517Y59271372D03*
G04 #@! TO.P,M3,S9,IN_SENS1*
G04 #@! TO.N,/VR_ANALOG*
X71112517Y59271374D03*
G04 #@! TO.P,M3,S10,IN_AUX4*
G04 #@! TO.N,/IN_CAM2*
X69912514Y59271374D03*
G04 #@! TO.P,M3,S11,IN_AUX3*
G04 #@! TO.N,/IN_A3*
X68712511Y59271372D03*
G04 #@! TO.P,M3,S12,IN_AUX2*
G04 #@! TO.N,/IN_PPS2*
X67512514Y59271374D03*
G04 #@! TO.P,M3,S13,IN_AUX1*
G04 #@! TO.N,/IN_TPS2*
X66312516Y59271374D03*
G04 #@! TO.P,M3,S14,IN_RES2*
G04 #@! TO.N,/IN_RES2*
X65112508Y59271374D03*
G04 #@! TO.P,M3,S15,IN_O2S2*
G04 #@! TO.N,/IN_A1*
X63912508Y59271374D03*
G04 #@! TO.P,M3,S16,IN_O2S*
G04 #@! TO.N,/IN_AFR*
X62712511Y59271374D03*
G04 #@! TO.P,M3,S17,IN_RES1*
G04 #@! TO.N,/IN_RES1*
X61512511Y59271374D03*
G04 #@! TO.P,M3,S18,IN_RES3*
G04 #@! TO.N,/IN_A4*
X60312505Y59271374D03*
G04 #@! TO.P,M3,S19,IN_MAP3*
G04 #@! TO.N,/IN_A2*
X59112505Y59271374D03*
G04 #@! TO.P,M3,S20,IN_MAP2*
G04 #@! TO.N,/IN_MAP2*
X57912508Y59271372D03*
G04 #@! TO.P,M3,S21,IN_MAP1*
G04 #@! TO.N,/IN_MAF*
X56712507Y59271374D03*
G04 #@! TO.P,M3,S22,IN_CRANK*
G04 #@! TO.N,/IN_CRANK*
X55512505Y59271372D03*
G04 #@! TO.P,M3,S23,IN_KNOCK*
G04 #@! TO.N,/IN_KNOCK1*
X54312505Y59271374D03*
G04 #@! TO.P,M3,S24,IN_CAM*
G04 #@! TO.N,/IN_CAM1*
X53112510Y59271374D03*
G04 #@! TO.P,M3,S25,IN_VSS*
G04 #@! TO.N,/IN_VSS*
X51912507Y59271372D03*
G04 #@! TO.P,M3,S26,IN_IAT*
G04 #@! TO.N,/IN_IAT*
X50712501Y59271374D03*
G04 #@! TO.P,M3,S27,IN_AT1*
G04 #@! TO.N,unconnected-(M3-IN_AT1-PadS27)*
X49512501Y59271372D03*
G04 #@! TO.P,M3,S28,IN_CLT*
G04 #@! TO.N,/IN_CLT*
X48312504Y59271374D03*
G04 #@! TO.P,M3,S29,IN_AT2*
G04 #@! TO.N,unconnected-(M3-IN_AT2-PadS29)*
X47112504Y59271374D03*
G04 #@! TO.P,M3,S30,IN_TPS*
G04 #@! TO.N,/IN_TPS1*
X45912499Y59271374D03*
G04 #@! TO.P,M3,S31,IN_PPS*
G04 #@! TO.N,/IN_PPS1*
X44712498Y59271374D03*
G04 #@! TO.P,M3,S32,IN_TPS2*
G04 #@! TO.N,unconnected-(M3-IN_TPS2-PadS32)*
X43512501Y59271374D03*
G04 #@! TO.P,M3,S33,IN_PPS2*
G04 #@! TO.N,unconnected-(M3-IN_PPS2-PadS33)*
X42312501Y59271374D03*
G04 #@! TO.P,M3,S35,VREF1*
G04 #@! TO.N,unconnected-(M3-VREF1-PadS35)*
X39912501Y59271374D03*
G04 #@! TO.P,M3,W,GNDA*
G04 #@! TO.N,GNDA*
X39512499Y61771377D03*
G04 #@! TO.P,M3,W0,V5A*
G04 #@! TO.N,+5VA*
X39512499Y62771377D03*
G04 #@! TO.P,M3,W1,IGN8*
G04 #@! TO.N,/IGN8*
X39512501Y76171376D03*
G04 #@! TO.P,M3,W2,IGN7*
G04 #@! TO.N,/IGN7*
X39512501Y77171377D03*
G04 #@! TO.P,M3,W3,IGN6*
G04 #@! TO.N,/IGN6*
X39512501Y78171375D03*
G04 #@! TO.P,M3,W4,IGN5*
G04 #@! TO.N,/IGN5*
X39512501Y79171375D03*
G04 #@! TO.P,M3,W5,IGN4*
G04 #@! TO.N,/IGN4*
X39512501Y80171376D03*
G04 #@! TO.P,M3,W6,IGN3*
G04 #@! TO.N,/IGN3*
X39512501Y81171374D03*
G04 #@! TO.P,M3,W7,IGN2*
G04 #@! TO.N,/IGN2*
X39512501Y82171374D03*
G04 #@! TO.P,M3,W8,IGN1*
G04 #@! TO.N,/IGN1*
X39512501Y83171372D03*
G04 #@! TO.P,M3,W9,CANH*
G04 #@! TO.N,/CAN+*
X39512501Y86271376D03*
G04 #@! TO.P,M3,W10,CANL*
G04 #@! TO.N,/CAN-*
X39512501Y87071377D03*
G04 #@! TD*
D49*
G04 #@! TO.P,P1,121,121*
G04 #@! TO.N,Net-(F2-Pad1)*
X138448000Y18622000D03*
G04 #@! TO.P,P1,120,120*
G04 #@! TO.N,/OUT_VVT2_B2*
X132548000Y18622000D03*
G04 #@! TO.P,P1,119,119*
G04 #@! TO.N,unconnected-(P1-Pad119)*
X126748000Y18622000D03*
G04 #@! TO.P,P1,118,118*
G04 #@! TO.N,/-ETB_OUT*
X135548000Y12822000D03*
G04 #@! TO.P,P1,117,117*
G04 #@! TO.N,/+ETB_OUT*
X129648000Y12822000D03*
G04 #@! TO.P,P1,116,116*
G04 #@! TO.N,unconnected-(P1-Pad116)*
X138448000Y10492000D03*
G04 #@! TO.P,P1,115,115*
G04 #@! TO.N,/OUT_VVT1_2*
X132548000Y10492000D03*
G04 #@! TO.P,P1,114,114*
G04 #@! TO.N,unconnected-(P1-Pad114)*
X126748000Y10492000D03*
D26*
G04 #@! TO.P,P1,113,113*
G04 #@! TO.N,/OUT_INJ5*
X118918000Y18622000D03*
G04 #@! TO.P,P1,112,112*
G04 #@! TO.N,/OUT_INJ6*
X116378000Y18622000D03*
G04 #@! TO.P,P1,111,111*
G04 #@! TO.N,/OUT_IGN3*
X113838000Y18622000D03*
G04 #@! TO.P,P1,110,110*
G04 #@! TO.N,/OUT_IGN6*
X111298000Y18622000D03*
G04 #@! TO.P,P1,109,109*
G04 #@! TO.N,unconnected-(P1-Pad109)*
X108758000Y18622000D03*
G04 #@! TO.P,P1,108,108*
G04 #@! TO.N,GNDA*
X106218000Y18622000D03*
G04 #@! TO.P,P1,107,107*
G04 #@! TO.N,unconnected-(P1-Pad107)*
X103678000Y18622000D03*
G04 #@! TO.P,P1,106,106*
G04 #@! TO.N,/IN_KNOCK1_RAW*
X101138000Y18622000D03*
G04 #@! TO.P,P1,105,105*
G04 #@! TO.N,/OUT_IDLE*
X118918000Y16082000D03*
G04 #@! TO.P,P1,104,104*
G04 #@! TO.N,/OUT_WASTEGATE*
X116378000Y16082000D03*
G04 #@! TO.P,P1,103,103*
G04 #@! TO.N,/OUT_IGN5*
X113838000Y16082000D03*
G04 #@! TO.P,P1,102,102*
G04 #@! TO.N,/OUT_IGN1*
X111298000Y16082000D03*
G04 #@! TO.P,P1,101,101*
G04 #@! TO.N,/IN_MAP2*
X108758000Y16082000D03*
G04 #@! TO.P,P1,100,100*
G04 #@! TO.N,unconnected-(P1-Pad100)*
X106218000Y16082000D03*
G04 #@! TO.P,P1,99,99*
G04 #@! TO.N,GNDA*
X103678000Y16082000D03*
G04 #@! TO.P,P1,98,98*
G04 #@! TO.N,+5VP*
X101138000Y16082000D03*
G04 #@! TO.P,P1,97,97*
G04 #@! TO.N,/OUT_INJ3*
X118918000Y10032000D03*
G04 #@! TO.P,P1,96,96*
G04 #@! TO.N,/OUT_INJ1*
X116378000Y10032000D03*
G04 #@! TO.P,P1,95,95*
G04 #@! TO.N,/OUT_IGN8*
X113838000Y10032000D03*
G04 #@! TO.P,P1,94,94*
G04 #@! TO.N,/OUT_IGN4*
X111298000Y10032000D03*
G04 #@! TO.P,P1,93,93*
G04 #@! TO.N,/IN_CLT*
X108758000Y10032000D03*
G04 #@! TO.P,P1,92,92*
G04 #@! TO.N,/IN_TPS1*
X106218000Y10032000D03*
G04 #@! TO.P,P1,91,91*
G04 #@! TO.N,GNDA*
X103678000Y10032000D03*
G04 #@! TO.P,P1,90,90*
G04 #@! TO.N,/IN_CRANK-*
X101138000Y10032000D03*
G04 #@! TO.P,P1,89,89*
G04 #@! TO.N,/OUT_INJ2*
X118918000Y7492000D03*
G04 #@! TO.P,P1,88,88*
G04 #@! TO.N,/OUT_INJ4*
X116378000Y7492000D03*
G04 #@! TO.P,P1,87,87*
G04 #@! TO.N,/IN_CAM2*
X113838000Y7492000D03*
G04 #@! TO.P,P1,86,86*
G04 #@! TO.N,/IN_CAM1*
X111298000Y7492000D03*
G04 #@! TO.P,P1,85,85*
G04 #@! TO.N,/IN_IAT*
X108758000Y7492000D03*
G04 #@! TO.P,P1,84,84*
G04 #@! TO.N,/IN_TPS2*
X106218000Y7492000D03*
G04 #@! TO.P,P1,83,83*
G04 #@! TO.N,+5VP*
X103678000Y7492000D03*
G04 #@! TO.P,P1,82,82*
G04 #@! TO.N,/IN_CRANK+*
X101138000Y7492000D03*
G04 #@! TO.P,P1,81,81*
G04 #@! TO.N,/OUT_FUEL_CONSUM*
X39448000Y7492000D03*
G04 #@! TO.P,P1,80,80*
G04 #@! TO.N,Net-(P80-Pin_1)*
X41988000Y7492000D03*
G04 #@! TO.P,P1,79,79*
G04 #@! TO.N,unconnected-(P1-Pad79)*
X44528000Y7492000D03*
G04 #@! TO.P,P1,78,78*
G04 #@! TO.N,unconnected-(P1-Pad78)*
X47068000Y7492000D03*
G04 #@! TO.P,P1,77,77*
G04 #@! TO.N,unconnected-(P1-Pad77)*
X49608000Y7492000D03*
G04 #@! TO.P,P1,76,76*
G04 #@! TO.N,/IN_D4*
X52148000Y7492000D03*
G04 #@! TO.P,P1,75,75*
G04 #@! TO.N,/IN_D3*
X54688000Y7492000D03*
G04 #@! TO.P,P1,74,74*
G04 #@! TO.N,Net-(P74-Pin_1)*
X57228000Y7492000D03*
G04 #@! TO.P,P1,73,73*
G04 #@! TO.N,+5VP*
X59768000Y7492000D03*
G04 #@! TO.P,P1,72,72*
X62308000Y7492000D03*
G04 #@! TO.P,P1,71,71*
G04 #@! TO.N,Net-(P1-Pad71)*
X64848000Y7492000D03*
G04 #@! TO.P,P1,70,70*
G04 #@! TO.N,Net-(P1-Pad70)*
X67388000Y7492000D03*
G04 #@! TO.P,P1,69,69*
G04 #@! TO.N,Net-(P69-Pin_1)*
X69928000Y7492000D03*
G04 #@! TO.P,P1,68,68*
G04 #@! TO.N,Net-(P68-Pin_1)*
X72468000Y7492000D03*
G04 #@! TO.P,P1,67,67*
G04 #@! TO.N,Net-(P67-Pin_1)*
X75008000Y7492000D03*
G04 #@! TO.P,P1,66,66*
G04 #@! TO.N,Net-(P66-Pin_1)*
X77548000Y7492000D03*
G04 #@! TO.P,P1,65,65*
G04 #@! TO.N,/OUT_FUEL_PUMP_RELAY*
X80088000Y7492000D03*
G04 #@! TO.P,P1,64,64*
G04 #@! TO.N,Net-(P64-Pin_1)*
X82628000Y7492000D03*
G04 #@! TO.P,P1,63,63*
G04 #@! TO.N,Net-(P63-Pin_1)*
X85168000Y7492000D03*
G04 #@! TO.P,P1,62,62*
G04 #@! TO.N,/V12_PERM*
X39448000Y10032000D03*
G04 #@! TO.P,P1,61,61*
G04 #@! TO.N,Net-(P61-Pin_1)*
X41988000Y10032000D03*
G04 #@! TO.P,P1,60,60*
G04 #@! TO.N,/CAN+*
X44528000Y10032000D03*
G04 #@! TO.P,P1,59,59*
G04 #@! TO.N,GND*
X47068000Y10032000D03*
G04 #@! TO.P,P1,58,58*
G04 #@! TO.N,/CAN-*
X49608000Y10032000D03*
G04 #@! TO.P,P1,57,57*
G04 #@! TO.N,/IN_D2*
X52148000Y10032000D03*
G04 #@! TO.P,P1,56,56*
G04 #@! TO.N,Net-(P56-Pin_1)*
X54688000Y10032000D03*
G04 #@! TO.P,P1,55,55*
G04 #@! TO.N,/IN_D1*
X57228000Y10032000D03*
G04 #@! TO.P,P1,54,54*
G04 #@! TO.N,/IN_VSS*
X59768000Y10032000D03*
G04 #@! TO.P,P1,53,53*
G04 #@! TO.N,+5VP*
X62308000Y10032000D03*
G04 #@! TO.P,P1,52,52*
G04 #@! TO.N,Net-(P1-Pad52)*
X64848000Y10032000D03*
G04 #@! TO.P,P1,51,51*
G04 #@! TO.N,Net-(P1-Pad51)*
X67388000Y10032000D03*
G04 #@! TO.P,P1,50,50*
G04 #@! TO.N,GNDA*
X69928000Y10032000D03*
G04 #@! TO.P,P1,49,49*
G04 #@! TO.N,Net-(P49-Pin_1)*
X72468000Y10032000D03*
G04 #@! TO.P,P1,48,48*
G04 #@! TO.N,Net-(P48-Pin_1)*
X75008000Y10032000D03*
G04 #@! TO.P,P1,47,47*
G04 #@! TO.N,/OUT_CHECK_ENGINE*
X77548000Y10032000D03*
G04 #@! TO.P,P1,46,46*
G04 #@! TO.N,Net-(P46-Pin_1)*
X80088000Y10032000D03*
G04 #@! TO.P,P1,45,45*
G04 #@! TO.N,Net-(P45-Pin_1)*
X82628000Y10032000D03*
G04 #@! TO.P,P1,44,44*
G04 #@! TO.N,Net-(P44-Pin_1)*
X85168000Y10032000D03*
G04 #@! TO.P,P1,43,43*
G04 #@! TO.N,Net-(P43-Pin_1)*
X39448000Y16082000D03*
G04 #@! TO.P,P1,42,42*
G04 #@! TO.N,unconnected-(P1-Pad42)*
X41988000Y16082000D03*
G04 #@! TO.P,P1,41,41*
G04 #@! TO.N,Net-(P41-Pin_1)*
X44528000Y16082000D03*
G04 #@! TO.P,P1,40,40*
G04 #@! TO.N,Net-(P40-Pin_1)*
X47068000Y16082000D03*
G04 #@! TO.P,P1,39,39*
G04 #@! TO.N,/IN_RES2*
X49608000Y16082000D03*
G04 #@! TO.P,P1,38,38*
G04 #@! TO.N,/IN_RES1*
X52148000Y16082000D03*
G04 #@! TO.P,P1,37,37*
G04 #@! TO.N,Net-(P1-Pad37)*
X54688000Y16082000D03*
G04 #@! TO.P,P1,36,36*
G04 #@! TO.N,GNDA*
X57228000Y16082000D03*
G04 #@! TO.P,P1,35,35*
G04 #@! TO.N,/IN_PPS2*
X59768000Y16082000D03*
G04 #@! TO.P,P1,34,34*
G04 #@! TO.N,/IN_PPS1*
X62308000Y16082000D03*
G04 #@! TO.P,P1,33,33*
G04 #@! TO.N,GNDA*
X64848000Y16082000D03*
G04 #@! TO.P,P1,32,32*
G04 #@! TO.N,GND*
X67388000Y16082000D03*
G04 #@! TO.P,P1,31,31*
G04 #@! TO.N,unconnected-(P1-Pad31)*
X69928000Y16082000D03*
G04 #@! TO.P,P1,30,30*
G04 #@! TO.N,unconnected-(P1-Pad30)*
X72468000Y16082000D03*
G04 #@! TO.P,P1,29,29*
G04 #@! TO.N,/IN_MAF*
X75008000Y16082000D03*
G04 #@! TO.P,P1,28,28*
G04 #@! TO.N,Net-(P28-Pin_1)*
X77548000Y16082000D03*
G04 #@! TO.P,P1,27,27*
G04 #@! TO.N,GNDA*
X80088000Y16082000D03*
G04 #@! TO.P,P1,26,26*
G04 #@! TO.N,/IN_IAT*
X82628000Y16082000D03*
G04 #@! TO.P,P1,25,25*
G04 #@! TO.N,unconnected-(P1-Pad25)*
X85168000Y16082000D03*
G04 #@! TO.P,P1,24,24*
G04 #@! TO.N,/OUT_INJ8*
X39448000Y18622000D03*
G04 #@! TO.P,P1,23,23*
G04 #@! TO.N,Net-(P1-Pad23)*
X41988000Y18622000D03*
G04 #@! TO.P,P1,22,22*
G04 #@! TO.N,/OUT_VVT1_1*
X44528000Y18622000D03*
G04 #@! TO.P,P1,21,21*
G04 #@! TO.N,Net-(P1-Pad21)*
X47068000Y18622000D03*
G04 #@! TO.P,P1,20,20*
G04 #@! TO.N,Net-(P20-Pin_1)*
X49608000Y18622000D03*
G04 #@! TO.P,P1,19,19*
G04 #@! TO.N,/OUT_INJ7*
X52148000Y18622000D03*
G04 #@! TO.P,P1,18,18*
G04 #@! TO.N,/OUT_VVT2_B1*
X54688000Y18622000D03*
G04 #@! TO.P,P1,17,17*
G04 #@! TO.N,Net-(P17-Pin_1)*
X57228000Y18622000D03*
G04 #@! TO.P,P1,16,16*
G04 #@! TO.N,unconnected-(P1-Pad16)*
X59768000Y18622000D03*
G04 #@! TO.P,P1,15,15*
G04 #@! TO.N,unconnected-(P1-Pad15)*
X62308000Y18622000D03*
G04 #@! TO.P,P1,14,14*
G04 #@! TO.N,/IN_AFR*
X64848000Y18622000D03*
G04 #@! TO.P,P1,13,13*
G04 #@! TO.N,Net-(P13-Pin_1)*
X67388000Y18622000D03*
G04 #@! TO.P,P1,12,12*
G04 #@! TO.N,Net-(P12-Pin_1)*
X69928000Y18622000D03*
G04 #@! TO.P,P1,11,11*
G04 #@! TO.N,Net-(P11-Pin_1)*
X72468000Y18622000D03*
G04 #@! TO.P,P1,10,10*
G04 #@! TO.N,Net-(P10-Pin_1)*
X75008000Y18622000D03*
G04 #@! TO.P,P1,9,9*
G04 #@! TO.N,Net-(P9-Pin_1)*
X77548000Y18622000D03*
G04 #@! TO.P,P1,8,8*
G04 #@! TO.N,/OUT_IGN7*
X80088000Y18622000D03*
G04 #@! TO.P,P1,7,7*
G04 #@! TO.N,/OUT_IGN2*
X82628000Y18622000D03*
G04 #@! TO.P,P1,6,6*
G04 #@! TO.N,unconnected-(P1-Pad6)*
X85168000Y18622000D03*
D49*
G04 #@! TO.P,P1,5,5*
G04 #@! TO.N,/LSU_HEAT-*
X31548000Y18622000D03*
G04 #@! TO.P,P1,4,4*
G04 #@! TO.N,unconnected-(P1-Pad4)*
X25748000Y18622000D03*
G04 #@! TO.P,P1,3,3*
G04 #@! TO.N,Net-(F1-Pad1)*
X28648000Y12822000D03*
G04 #@! TO.P,P1,2,2*
G04 #@! TO.N,GND*
X31548000Y10492000D03*
G04 #@! TO.P,P1,1,1*
X25748000Y10492000D03*
D50*
G04 #@! TO.P,P1,*
G04 #@! TO.N,*
X145348000Y5492000D03*
D51*
X142898000Y13292000D03*
D50*
X93148000Y5492000D03*
D51*
X21098000Y13292000D03*
D50*
X18648000Y5492000D03*
G04 #@! TD*
G04 #@! TO.P,U3,8,V+*
G04 #@! TO.N,+5V*
G04 #@! TA.AperFunction,SMDPad,CuDef*
G36*
G01*
X34145000Y69800000D02*
X33845000Y69800000D01*
G75*
G02*
X33695000Y69950000I0J150000D01*
G01*
X33695000Y71600000D01*
G75*
G02*
X33845000Y71750000I150000J0D01*
G01*
X34145000Y71750000D01*
G75*
G02*
X34295000Y71600000I0J-150000D01*
G01*
X34295000Y69950000D01*
G75*
G02*
X34145000Y69800000I-150000J0D01*
G01*
G37*
G04 #@! TD.AperFunction*
G04 #@! TO.P,U3,7*
G04 #@! TO.N,Net-(U3B--)*
G04 #@! TA.AperFunction,SMDPad,CuDef*
G36*
G01*
X35415000Y69800000D02*
X35115000Y69800000D01*
G75*
G02*
X34965000Y69950000I0J150000D01*
G01*
X34965000Y71600000D01*
G75*
G02*
X35115000Y71750000I150000J0D01*
G01*
X35415000Y71750000D01*
G75*
G02*
X35565000Y71600000I0J-150000D01*
G01*
X35565000Y69950000D01*
G75*
G02*
X35415000Y69800000I-150000J0D01*
G01*
G37*
G04 #@! TD.AperFunction*
G04 #@! TO.P,U3,6,-*
G04 #@! TA.AperFunction,SMDPad,CuDef*
G36*
G01*
X36685000Y69800000D02*
X36385000Y69800000D01*
G75*
G02*
X36235000Y69950000I0J150000D01*
G01*
X36235000Y71600000D01*
G75*
G02*
X36385000Y71750000I150000J0D01*
G01*
X36685000Y71750000D01*
G75*
G02*
X36835000Y71600000I0J-150000D01*
G01*
X36835000Y69950000D01*
G75*
G02*
X36685000Y69800000I-150000J0D01*
G01*
G37*
G04 #@! TD.AperFunction*
G04 #@! TO.P,U3,5,+*
G04 #@! TO.N,GND*
G04 #@! TA.AperFunction,SMDPad,CuDef*
G36*
G01*
X37955000Y69800000D02*
X37655000Y69800000D01*
G75*
G02*
X37505000Y69950000I0J150000D01*
G01*
X37505000Y71600000D01*
G75*
G02*
X37655000Y71750000I150000J0D01*
G01*
X37955000Y71750000D01*
G75*
G02*
X38105000Y71600000I0J-150000D01*
G01*
X38105000Y69950000D01*
G75*
G02*
X37955000Y69800000I-150000J0D01*
G01*
G37*
G04 #@! TD.AperFunction*
G04 #@! TO.P,U3,4,V-*
G04 #@! TA.AperFunction,SMDPad,CuDef*
G36*
G01*
X37955000Y64850000D02*
X37655000Y64850000D01*
G75*
G02*
X37505000Y65000000I0J150000D01*
G01*
X37505000Y66650000D01*
G75*
G02*
X37655000Y66800000I150000J0D01*
G01*
X37955000Y66800000D01*
G75*
G02*
X38105000Y66650000I0J-150000D01*
G01*
X38105000Y65000000D01*
G75*
G02*
X37955000Y64850000I-150000J0D01*
G01*
G37*
G04 #@! TD.AperFunction*
G04 #@! TO.P,U3,3,+*
G04 #@! TO.N,/IN_KNOCK1*
G04 #@! TA.AperFunction,SMDPad,CuDef*
G36*
G01*
X36685000Y64850000D02*
X36385000Y64850000D01*
G75*
G02*
X36235000Y65000000I0J150000D01*
G01*
X36235000Y66650000D01*
G75*
G02*
X36385000Y66800000I150000J0D01*
G01*
X36685000Y66800000D01*
G75*
G02*
X36835000Y66650000I0J-150000D01*
G01*
X36835000Y65000000D01*
G75*
G02*
X36685000Y64850000I-150000J0D01*
G01*
G37*
G04 #@! TD.AperFunction*
G04 #@! TO.P,U3,2,-*
G04 #@! TO.N,Net-(U3A--)*
G04 #@! TA.AperFunction,SMDPad,CuDef*
G36*
G01*
X35415000Y64850000D02*
X35115000Y64850000D01*
G75*
G02*
X34965000Y65000000I0J150000D01*
G01*
X34965000Y66650000D01*
G75*
G02*
X35115000Y66800000I150000J0D01*
G01*
X35415000Y66800000D01*
G75*
G02*
X35565000Y66650000I0J-150000D01*
G01*
X35565000Y65000000D01*
G75*
G02*
X35415000Y64850000I-150000J0D01*
G01*
G37*
G04 #@! TD.AperFunction*
G04 #@! TO.P,U3,1*
G04 #@! TA.AperFunction,SMDPad,CuDef*
G36*
G01*
X34145000Y64850000D02*
X33845000Y64850000D01*
G75*
G02*
X33695000Y65000000I0J150000D01*
G01*
X33695000Y66650000D01*
G75*
G02*
X33845000Y66800000I150000J0D01*
G01*
X34145000Y66800000D01*
G75*
G02*
X34295000Y66650000I0J-150000D01*
G01*
X34295000Y65000000D01*
G75*
G02*
X34145000Y64850000I-150000J0D01*
G01*
G37*
G04 #@! TD.AperFunction*
G04 #@! TD*
D52*
G04 #@! TO.P,P2,1,Pin_1*
G04 #@! TO.N,/IN_A1*
X44450000Y39198941D03*
G04 #@! TD*
G04 #@! TO.P,R22,1*
G04 #@! TO.N,/ETB_EN*
G04 #@! TA.AperFunction,SMDPad,CuDef*
G36*
G01*
X143450000Y58565000D02*
X143450000Y57785000D01*
G75*
G02*
X143380000Y57715000I-70000J0D01*
G01*
X142820000Y57715000D01*
G75*
G02*
X142750000Y57785000I0J70000D01*
G01*
X142750000Y58565000D01*
G75*
G02*
X142820000Y58635000I70000J0D01*
G01*
X143380000Y58635000D01*
G75*
G02*
X143450000Y58565000I0J-70000D01*
G01*
G37*
G04 #@! TD.AperFunction*
G04 #@! TO.P,R22,2*
G04 #@! TO.N,GND*
G04 #@! TA.AperFunction,SMDPad,CuDef*
G36*
G01*
X141850000Y58565000D02*
X141850000Y57785000D01*
G75*
G02*
X141780000Y57715000I-70000J0D01*
G01*
X141220000Y57715000D01*
G75*
G02*
X141150000Y57785000I0J70000D01*
G01*
X141150000Y58565000D01*
G75*
G02*
X141220000Y58635000I70000J0D01*
G01*
X141780000Y58635000D01*
G75*
G02*
X141850000Y58565000I0J-70000D01*
G01*
G37*
G04 #@! TD.AperFunction*
G04 #@! TD*
G04 #@! TO.P,G5,1*
G04 #@! TO.N,Net-(G5-Pad1)*
X149860000Y73050000D03*
G04 #@! TO.P,G5,2*
G04 #@! TO.N,Net-(G5-Pad12)*
X149860000Y75590000D03*
G04 #@! TO.P,G5,3*
G04 #@! TO.N,Net-(G5-Pad13)*
X149860000Y78130000D03*
G04 #@! TO.P,G5,4*
G04 #@! TO.N,Net-(G5-Pad14)*
X149860000Y80670000D03*
G04 #@! TO.P,G5,5*
G04 #@! TO.N,Net-(G5-Pad10)*
X149860000Y83210000D03*
G04 #@! TO.P,G5,6*
G04 #@! TO.N,Net-(G5-Pad1)*
X152400000Y73050000D03*
G04 #@! TO.P,G5,7*
G04 #@! TO.N,Net-(G5-Pad12)*
X152400000Y75590000D03*
G04 #@! TO.P,G5,8*
G04 #@! TO.N,Net-(G5-Pad13)*
X152400000Y78130000D03*
G04 #@! TO.P,G5,9*
G04 #@! TO.N,Net-(G5-Pad14)*
X152400000Y80670000D03*
G04 #@! TO.P,G5,10*
G04 #@! TO.N,Net-(G5-Pad10)*
X152400000Y83210000D03*
G04 #@! TO.P,G5,11*
G04 #@! TO.N,Net-(G5-Pad1)*
X154940000Y73050000D03*
G04 #@! TO.P,G5,12*
G04 #@! TO.N,Net-(G5-Pad12)*
X154940000Y75590000D03*
G04 #@! TO.P,G5,13*
G04 #@! TO.N,Net-(G5-Pad13)*
X154940000Y78130000D03*
G04 #@! TO.P,G5,14*
G04 #@! TO.N,Net-(G5-Pad14)*
X154940000Y80670000D03*
G04 #@! TO.P,G5,15*
G04 #@! TO.N,Net-(G5-Pad10)*
X154940000Y83210000D03*
G04 #@! TD*
G04 #@! TO.P,P17,1,Pin_1*
G04 #@! TO.N,Net-(P17-Pin_1)*
X57200000Y28275000D03*
G04 #@! TD*
D53*
G04 #@! TO.P,M7,G,GND*
G04 #@! TO.N,GND*
X26892387Y91939205D03*
G04 #@! TA.AperFunction,SMDPad,CuDef*
G36*
G01*
X26812582Y96809391D02*
X26812582Y96809391D01*
G75*
G02*
X26812582Y96986167I88388J88388D01*
G01*
X27095424Y97269009D01*
G75*
G02*
X27272200Y97269009I88388J-88388D01*
G01*
X27272200Y97269009D01*
G75*
G02*
X27272200Y97092233I-88388J-88388D01*
G01*
X26989358Y96809391D01*
G75*
G02*
X26812582Y96809391I-88388J88388D01*
G01*
G37*
G04 #@! TD.AperFunction*
D54*
X30004887Y97189200D03*
D55*
G04 #@! TO.P,M7,S1,OUT_IGN8*
G04 #@! TO.N,/OUT_IGN8*
X34517335Y83814583D03*
G04 #@! TO.P,M7,S2,OUT_IGN7*
G04 #@! TO.N,/OUT_IGN7*
X33757356Y83814583D03*
G04 #@! TO.P,M7,S3,OUT_IGN6*
G04 #@! TO.N,/OUT_IGN6*
X32582363Y83814583D03*
G04 #@! TO.P,M7,S4,OUT_IGN5*
G04 #@! TO.N,/OUT_IGN5*
X31407376Y83814583D03*
G04 #@! TO.P,M7,S5,OUT_IGN4*
G04 #@! TO.N,/OUT_IGN4*
X30567464Y83814583D03*
G04 #@! TO.P,M7,S6,OUT_IGN3*
G04 #@! TO.N,/OUT_IGN3*
X29817392Y83814583D03*
G04 #@! TO.P,M7,S7,OUT_IGN2*
G04 #@! TO.N,/OUT_IGN2*
X28642381Y83814583D03*
G04 #@! TO.P,M7,S8,OUT_IGN1*
G04 #@! TO.N,/OUT_IGN1*
X27467384Y83814583D03*
D56*
G04 #@! TO.P,M7,V1,IGN8*
G04 #@! TO.N,/IGN8*
X32507387Y93914190D03*
G04 #@! TO.P,M7,V2,IGN7*
G04 #@! TO.N,/IGN7*
X34342397Y93489182D03*
G04 #@! TO.P,M7,V3,IGN6*
G04 #@! TO.N,/IGN6*
X32292389Y92939185D03*
G04 #@! TO.P,M7,V4,IGN5*
G04 #@! TO.N,/IGN5*
X32507384Y92064226D03*
G04 #@! TO.P,M7,V5,IGN4*
G04 #@! TO.N,/IGN4*
X32582391Y91214203D03*
G04 #@! TO.P,M7,V6,IGN3*
G04 #@! TO.N,/IGN3*
X34342397Y90889187D03*
G04 #@! TO.P,M7,V7,IGN2*
G04 #@! TO.N,/IGN2*
X33032397Y89589220D03*
G04 #@! TO.P,M7,V8,IGN1*
G04 #@! TO.N,/IGN1*
X34342397Y88939203D03*
G04 #@! TO.P,M7,V9,VCC*
G04 #@! TO.N,/IGN_V5*
X28417382Y96114206D03*
G04 #@! TO.P,M7,V10,V33*
G04 #@! TO.N,/IGN_V33*
X32492388Y95814204D03*
G04 #@! TD*
D57*
G04 #@! TO.P,M6,W5,V12P*
G04 #@! TO.N,+12V_PROT*
X95546542Y48347505D03*
D58*
G04 #@! TO.P,M6,S11,V12_RAW*
G04 #@! TO.N,+12V_RAW*
X104601540Y44851221D03*
G04 #@! TO.P,M6,S5,OUT_SOLENOID_B2*
G04 #@! TO.N,/OUT_VVT2_B1*
X118976566Y44851221D03*
G04 #@! TO.P,M6,S4,OUT_SOLENOID_B1*
G04 #@! TO.N,/OUT_VVT2_B2*
X120232431Y44851221D03*
D59*
G04 #@! TO.P,M6,G,GND*
G04 #@! TO.N,GND*
X123151546Y84283509D03*
D60*
X123149984Y57472498D03*
G04 #@! TA.AperFunction,SMDPad,CuDef*
G36*
G01*
X122510492Y86917272D02*
X122510492Y86917272D01*
G75*
G02*
X122651914Y86917272I70711J-70711D01*
G01*
X123217600Y86351586D01*
G75*
G02*
X123217600Y86210164I-70711J-70711D01*
G01*
X123217600Y86210164D01*
G75*
G02*
X123076178Y86210164I-70711J70711D01*
G01*
X122510492Y86775850D01*
G75*
G02*
X122510492Y86917272I70711J70711D01*
G01*
G37*
G04 #@! TD.AperFunction*
D61*
X111100003Y44272499D03*
D62*
X109774994Y86847510D03*
G04 #@! TA.AperFunction,SMDPad,CuDef*
G36*
G01*
X95350476Y85184023D02*
X95350476Y85184023D01*
G75*
G02*
X95350476Y85325445I70711J70711D01*
G01*
X96927324Y86902293D01*
G75*
G02*
X97068746Y86902293I70711J-70711D01*
G01*
X97068746Y86902293D01*
G75*
G02*
X97068746Y86760871I-70711J-70711D01*
G01*
X95491898Y85184023D01*
G75*
G02*
X95350476Y85184023I-70711J70711D01*
G01*
G37*
G04 #@! TD.AperFunction*
D63*
X96149998Y44212500D03*
D64*
X95401551Y60709873D03*
D65*
X95401548Y78068157D03*
D66*
X95400014Y51347499D03*
G04 #@! TA.AperFunction,SMDPad,CuDef*
G36*
G01*
X95284679Y44179624D02*
X95213969Y44250334D01*
G75*
G02*
X95213969Y44391756I70711J70711D01*
G01*
X95213969Y44391756D01*
G75*
G02*
X95355391Y44391756I70711J-70711D01*
G01*
X95426101Y44321046D01*
G75*
G02*
X95426101Y44179624I-70711J-70711D01*
G01*
X95426101Y44179624D01*
G75*
G02*
X95284679Y44179624I-70711J70711D01*
G01*
G37*
G04 #@! TD.AperFunction*
D67*
X95249999Y46037500D03*
G04 #@! TD*
D52*
G04 #@! TO.P,P5,1,Pin_1*
G04 #@! TO.N,/IN_A3*
X50675000Y39173941D03*
G04 #@! TD*
G04 #@! TO.P,P61,1,Pin_1*
G04 #@! TO.N,Net-(P61-Pin_1)*
X40675000Y32675000D03*
G04 #@! TD*
G04 #@! TO.P,P44,1,Pin_1*
G04 #@! TO.N,Net-(P44-Pin_1)*
X76744800Y30212600D03*
G04 #@! TD*
G04 #@! TO.P,P16,1,Pin_1*
G04 #@! TO.N,/IN_CAM1*
X68000000Y37375000D03*
G04 #@! TD*
G04 #@! TO.P,D8,2,K*
G04 #@! TO.N,Net-(D5-A)*
G04 #@! TA.AperFunction,SMDPad,CuDef*
G36*
G01*
X12411979Y90505000D02*
X12411979Y91745000D01*
G75*
G02*
X12541979Y91875000I130000J0D01*
G01*
X13581979Y91875000D01*
G75*
G02*
X13711979Y91745000I0J-130000D01*
G01*
X13711979Y90505000D01*
G75*
G02*
X13581979Y90375000I-130000J0D01*
G01*
X12541979Y90375000D01*
G75*
G02*
X12411979Y90505000I0J130000D01*
G01*
G37*
G04 #@! TD.AperFunction*
G04 #@! TO.P,D8,1,A*
G04 #@! TO.N,+12V_RAW*
G04 #@! TA.AperFunction,SMDPad,CuDef*
G36*
G01*
X14312000Y90505000D02*
X14312000Y91745000D01*
G75*
G02*
X14442000Y91875000I130000J0D01*
G01*
X15482000Y91875000D01*
G75*
G02*
X15612000Y91745000I0J-130000D01*
G01*
X15612000Y90505000D01*
G75*
G02*
X15482000Y90375000I-130000J0D01*
G01*
X14442000Y90375000D01*
G75*
G02*
X14312000Y90505000I0J130000D01*
G01*
G37*
G04 #@! TD.AperFunction*
G04 #@! TD*
G04 #@! TO.P,P6,1,Pin_1*
G04 #@! TO.N,Net-(M6C-OUT_LOW1)*
X116936200Y34225800D03*
G04 #@! TD*
G04 #@! TO.P,P66,1,Pin_1*
G04 #@! TO.N,Net-(P66-Pin_1)*
X79419800Y30212600D03*
G04 #@! TD*
G04 #@! TO.P,P12,1,Pin_1*
G04 #@! TO.N,Net-(P12-Pin_1)*
X69300000Y25625000D03*
G04 #@! TD*
G04 #@! TO.P,P13,1,Pin_1*
G04 #@! TO.N,Net-(P13-Pin_1)*
X66575000Y25550000D03*
G04 #@! TD*
D68*
G04 #@! TO.P,R13,1,1*
G04 #@! TO.N,Net-(P1-Pad71)*
X8700000Y31830000D03*
G04 #@! TA.AperFunction,SMDPad,CuDef*
G36*
G01*
X8075000Y31375001D02*
X9325000Y31375001D01*
G75*
G02*
X9425000Y31275001I0J-100000D01*
G01*
X9425000Y30475001D01*
G75*
G02*
X9325000Y30375001I-100000J0D01*
G01*
X8075000Y30375001D01*
G75*
G02*
X7975000Y30475001I0J100000D01*
G01*
X7975000Y31275001D01*
G75*
G02*
X8075000Y31375001I100000J0D01*
G01*
G37*
G04 #@! TD.AperFunction*
G04 #@! TO.P,R13,2,2*
G04 #@! TO.N,/LSU_CALIBR_RES*
G04 #@! TA.AperFunction,SMDPad,CuDef*
G36*
G01*
X8075000Y29474979D02*
X9325000Y29474979D01*
G75*
G02*
X9425000Y29374979I0J-100000D01*
G01*
X9425000Y28574979D01*
G75*
G02*
X9325000Y28474979I-100000J0D01*
G01*
X8075000Y28474979D01*
G75*
G02*
X7975000Y28574979I0J100000D01*
G01*
X7975000Y29374979D01*
G75*
G02*
X8075000Y29474979I100000J0D01*
G01*
G37*
G04 #@! TD.AperFunction*
X8700000Y28020000D03*
G04 #@! TD*
D52*
G04 #@! TO.P,G2,1*
G04 #@! TO.N,Net-(G2-Pad1)*
X149860000Y86360000D03*
G04 #@! TO.P,G2,2*
G04 #@! TO.N,Net-(G2-Pad12)*
X149860000Y88900000D03*
G04 #@! TO.P,G2,3*
G04 #@! TO.N,Net-(G2-Pad13)*
X149860000Y91440000D03*
G04 #@! TO.P,G2,4*
G04 #@! TO.N,Net-(G2-Pad14)*
X149860000Y93980000D03*
G04 #@! TO.P,G2,5*
G04 #@! TO.N,Net-(G2-Pad10)*
X149860000Y96520000D03*
G04 #@! TO.P,G2,6*
G04 #@! TO.N,Net-(G2-Pad1)*
X152400000Y86360000D03*
G04 #@! TO.P,G2,7*
G04 #@! TO.N,Net-(G2-Pad12)*
X152400000Y88900000D03*
G04 #@! TO.P,G2,8*
G04 #@! TO.N,Net-(G2-Pad13)*
X152400000Y91440000D03*
G04 #@! TO.P,G2,9*
G04 #@! TO.N,Net-(G2-Pad14)*
X152400000Y93980000D03*
G04 #@! TO.P,G2,10*
G04 #@! TO.N,Net-(G2-Pad10)*
X152400000Y96520000D03*
G04 #@! TO.P,G2,11*
G04 #@! TO.N,Net-(G2-Pad1)*
X154940000Y86360000D03*
G04 #@! TO.P,G2,12*
G04 #@! TO.N,Net-(G2-Pad12)*
X154940000Y88900000D03*
G04 #@! TO.P,G2,13*
G04 #@! TO.N,Net-(G2-Pad13)*
X154940000Y91440000D03*
G04 #@! TO.P,G2,14*
G04 #@! TO.N,Net-(G2-Pad14)*
X154940000Y93980000D03*
G04 #@! TO.P,G2,15*
G04 #@! TO.N,Net-(G2-Pad10)*
X154940000Y96520000D03*
G04 #@! TD*
D68*
G04 #@! TO.P,R4,1,1*
G04 #@! TO.N,Net-(P1-Pad37)*
X54600000Y26295000D03*
G04 #@! TA.AperFunction,SMDPad,CuDef*
G36*
G01*
X55225000Y26749999D02*
X53975000Y26749999D01*
G75*
G02*
X53875000Y26849999I0J100000D01*
G01*
X53875000Y27649999D01*
G75*
G02*
X53975000Y27749999I100000J0D01*
G01*
X55225000Y27749999D01*
G75*
G02*
X55325000Y27649999I0J-100000D01*
G01*
X55325000Y26849999D01*
G75*
G02*
X55225000Y26749999I-100000J0D01*
G01*
G37*
G04 #@! TD.AperFunction*
G04 #@! TO.P,R4,2,2*
G04 #@! TO.N,/OUT_TACH*
G04 #@! TA.AperFunction,SMDPad,CuDef*
G36*
G01*
X55225000Y28650021D02*
X53975000Y28650021D01*
G75*
G02*
X53875000Y28750021I0J100000D01*
G01*
X53875000Y29550021D01*
G75*
G02*
X53975000Y29650021I100000J0D01*
G01*
X55225000Y29650021D01*
G75*
G02*
X55325000Y29550021I0J-100000D01*
G01*
X55325000Y28750021D01*
G75*
G02*
X55225000Y28650021I-100000J0D01*
G01*
G37*
G04 #@! TD.AperFunction*
X54600000Y30105000D03*
G04 #@! TD*
D52*
G04 #@! TO.P,P63,1,Pin_1*
G04 #@! TO.N,Net-(P63-Pin_1)*
X86775000Y25575000D03*
G04 #@! TD*
G04 #@! TO.P,P4,1,Pin_1*
G04 #@! TO.N,/IN_A2*
X53500000Y39173941D03*
G04 #@! TD*
G04 #@! TO.P,R16,2*
G04 #@! TO.N,GND*
G04 #@! TA.AperFunction,SMDPad,CuDef*
G36*
G01*
X8612000Y95790000D02*
X8612000Y95010000D01*
G75*
G02*
X8542000Y94940000I-70000J0D01*
G01*
X7982000Y94940000D01*
G75*
G02*
X7912000Y95010000I0J70000D01*
G01*
X7912000Y95790000D01*
G75*
G02*
X7982000Y95860000I70000J0D01*
G01*
X8542000Y95860000D01*
G75*
G02*
X8612000Y95790000I0J-70000D01*
G01*
G37*
G04 #@! TD.AperFunction*
G04 #@! TO.P,R16,1*
G04 #@! TO.N,Net-(D3-A)*
G04 #@! TA.AperFunction,SMDPad,CuDef*
G36*
G01*
X10212000Y95790000D02*
X10212000Y95010000D01*
G75*
G02*
X10142000Y94940000I-70000J0D01*
G01*
X9582000Y94940000D01*
G75*
G02*
X9512000Y95010000I0J70000D01*
G01*
X9512000Y95790000D01*
G75*
G02*
X9582000Y95860000I70000J0D01*
G01*
X10142000Y95860000D01*
G75*
G02*
X10212000Y95790000I0J-70000D01*
G01*
G37*
G04 #@! TD.AperFunction*
G04 #@! TD*
G04 #@! TO.P,C5,2*
G04 #@! TO.N,Net-(U1-ENA)*
G04 #@! TA.AperFunction,SMDPad,CuDef*
G36*
G01*
X143541999Y53932163D02*
X143541999Y53252163D01*
G75*
G02*
X143456999Y53167163I-85000J0D01*
G01*
X142776999Y53167163D01*
G75*
G02*
X142691999Y53252163I0J85000D01*
G01*
X142691999Y53932163D01*
G75*
G02*
X142776999Y54017163I85000J0D01*
G01*
X143456999Y54017163D01*
G75*
G02*
X143541999Y53932163I0J-85000D01*
G01*
G37*
G04 #@! TD.AperFunction*
G04 #@! TO.P,C5,1*
G04 #@! TO.N,GND*
G04 #@! TA.AperFunction,SMDPad,CuDef*
G36*
G01*
X145122001Y53932163D02*
X145122001Y53252163D01*
G75*
G02*
X145037001Y53167163I-85000J0D01*
G01*
X144357001Y53167163D01*
G75*
G02*
X144272001Y53252163I0J85000D01*
G01*
X144272001Y53932163D01*
G75*
G02*
X144357001Y54017163I85000J0D01*
G01*
X145037001Y54017163D01*
G75*
G02*
X145122001Y53932163I0J-85000D01*
G01*
G37*
G04 #@! TD.AperFunction*
G04 #@! TD*
G04 #@! TO.P,C11,1*
G04 #@! TO.N,GND*
G04 #@! TA.AperFunction,SMDPad,CuDef*
G36*
G01*
X134362000Y30900000D02*
X134362000Y31850000D01*
G75*
G02*
X134612000Y32100000I250000J0D01*
G01*
X135112000Y32100000D01*
G75*
G02*
X135362000Y31850000I0J-250000D01*
G01*
X135362000Y30900000D01*
G75*
G02*
X135112000Y30650000I-250000J0D01*
G01*
X134612000Y30650000D01*
G75*
G02*
X134362000Y30900000I0J250000D01*
G01*
G37*
G04 #@! TD.AperFunction*
G04 #@! TO.P,C11,2*
G04 #@! TO.N,+12V_RAW*
G04 #@! TA.AperFunction,SMDPad,CuDef*
G36*
G01*
X136262000Y30900000D02*
X136262000Y31850000D01*
G75*
G02*
X136512000Y32100000I250000J0D01*
G01*
X137012000Y32100000D01*
G75*
G02*
X137262000Y31850000I0J-250000D01*
G01*
X137262000Y30900000D01*
G75*
G02*
X137012000Y30650000I-250000J0D01*
G01*
X136512000Y30650000D01*
G75*
G02*
X136262000Y30900000I0J250000D01*
G01*
G37*
G04 #@! TD.AperFunction*
G04 #@! TD*
G04 #@! TO.P,P28,1,Pin_1*
G04 #@! TO.N,Net-(P28-Pin_1)*
X74094800Y30212600D03*
G04 #@! TD*
G04 #@! TO.P,P74,1,Pin_1*
G04 #@! TO.N,Net-(P74-Pin_1)*
X45925000Y32675000D03*
G04 #@! TD*
D68*
G04 #@! TO.P,R8,1,1*
G04 #@! TO.N,/IN_VIGN*
X48350000Y29955000D03*
G04 #@! TA.AperFunction,SMDPad,CuDef*
G36*
G01*
X47725000Y29500001D02*
X48975000Y29500001D01*
G75*
G02*
X49075000Y29400001I0J-100000D01*
G01*
X49075000Y28600001D01*
G75*
G02*
X48975000Y28500001I-100000J0D01*
G01*
X47725000Y28500001D01*
G75*
G02*
X47625000Y28600001I0J100000D01*
G01*
X47625000Y29400001D01*
G75*
G02*
X47725000Y29500001I100000J0D01*
G01*
G37*
G04 #@! TD.AperFunction*
G04 #@! TO.P,R8,2,2*
G04 #@! TO.N,Net-(P1-Pad21)*
G04 #@! TA.AperFunction,SMDPad,CuDef*
G36*
G01*
X47725000Y27599979D02*
X48975000Y27599979D01*
G75*
G02*
X49075000Y27499979I0J-100000D01*
G01*
X49075000Y26699979D01*
G75*
G02*
X48975000Y26599979I-100000J0D01*
G01*
X47725000Y26599979D01*
G75*
G02*
X47625000Y26699979I0J100000D01*
G01*
X47625000Y27499979D01*
G75*
G02*
X47725000Y27599979I100000J0D01*
G01*
G37*
G04 #@! TD.AperFunction*
X48350000Y26145000D03*
G04 #@! TD*
G04 #@! TO.P,F1,1,1*
G04 #@! TO.N,Net-(F1-Pad1)*
X124075000Y26775000D03*
G04 #@! TA.AperFunction,SMDPad,CuDef*
G36*
G01*
X124975000Y28119990D02*
X124975000Y27429990D01*
G75*
G02*
X124745000Y27199990I-230000J0D01*
G01*
X123405000Y27199990D01*
G75*
G02*
X123175000Y27429990I0J230000D01*
G01*
X123175000Y28119990D01*
G75*
G02*
X123405000Y28349990I230000J0D01*
G01*
X124745000Y28349990D01*
G75*
G02*
X124975000Y28119990I0J-230000D01*
G01*
G37*
G04 #@! TD.AperFunction*
G04 #@! TO.P,F1,2,2*
G04 #@! TO.N,+12V_RAW*
G04 #@! TA.AperFunction,SMDPad,CuDef*
G36*
G01*
X124975000Y31020010D02*
X124975000Y30330010D01*
G75*
G02*
X124745000Y30100010I-230000J0D01*
G01*
X123405000Y30100010D01*
G75*
G02*
X123175000Y30330010I0J230000D01*
G01*
X123175000Y31020010D01*
G75*
G02*
X123405000Y31250010I230000J0D01*
G01*
X124745000Y31250010D01*
G75*
G02*
X124975000Y31020010I0J-230000D01*
G01*
G37*
G04 #@! TD.AperFunction*
X124075000Y31675000D03*
G04 #@! TD*
D69*
G04 #@! TO.P,D10,1,K*
G04 #@! TO.N,+12V_RAW*
X122016200Y38951200D03*
G04 #@! TO.P,D10,2,A*
G04 #@! TO.N,/OUT_VVT2_B2*
X122016200Y42251200D03*
G04 #@! TD*
D70*
G04 #@! TO.P,J2,1,Pin_1*
G04 #@! TO.N,+12V_RAW*
X17962000Y91125000D03*
G04 #@! TD*
D71*
G04 #@! TO.P,U1,SLUG3,SLUG@3*
G04 #@! TO.N,GND*
X149819000Y43492163D03*
D72*
G04 #@! TO.P,U1,SLUG2,SLUG@2*
X147707000Y40492163D03*
X147707000Y43492163D03*
X147707000Y46492163D03*
X142707000Y40492163D03*
D73*
X142707000Y43492163D03*
D72*
X142707000Y43492163D03*
X142707000Y46492163D03*
X137707000Y40492163D03*
X137707000Y43492163D03*
X137707000Y46492163D03*
D71*
G04 #@! TO.P,U1,SLUG1,SLUG@1*
X135595000Y43492163D03*
D74*
G04 #@! TO.P,U1,20,GND@4*
X136992000Y50092163D03*
G04 #@! TO.P,U1,19,VSB*
G04 #@! TO.N,+12V_RAW*
X138262000Y50092163D03*
G04 #@! TO.P,U1,18,OUT2B*
G04 #@! TO.N,/+ETB_OUT*
X139532000Y50092163D03*
G04 #@! TO.P,U1,17,VBOOT*
G04 #@! TO.N,Net-(D2-K)*
X140802000Y50092163D03*
G04 #@! TO.P,U1,16,ENB*
G04 #@! TO.N,Net-(U1-ENA)*
X142072000Y50092163D03*
G04 #@! TO.P,U1,15,IN2B*
G04 #@! TO.N,/+ETB*
X143342000Y50092163D03*
G04 #@! TO.P,U1,14,IN1B*
G04 #@! TO.N,/-ETB*
X144612000Y50092163D03*
G04 #@! TO.P,U1,13,SENSEB*
G04 #@! TO.N,GND*
X145882000Y50092163D03*
G04 #@! TO.P,U1,12,OUT1B*
G04 #@! TO.N,/-ETB_OUT*
X147152000Y50092163D03*
G04 #@! TO.P,U1,11,GND@3*
G04 #@! TO.N,GND*
X148422000Y50092163D03*
G04 #@! TO.P,U1,10,GND@2*
X148422000Y36892163D03*
G04 #@! TO.P,U1,9,OUT1A*
G04 #@! TO.N,/-ETB_OUT*
X147152000Y36892163D03*
G04 #@! TO.P,U1,8,SENSEA*
G04 #@! TO.N,GND*
X145882000Y36892163D03*
G04 #@! TO.P,U1,7,IN2A*
G04 #@! TO.N,/+ETB*
X144612000Y36892163D03*
G04 #@! TO.P,U1,6,IN1A*
G04 #@! TO.N,/-ETB*
X143342000Y36892163D03*
G04 #@! TO.P,U1,5,ENA*
G04 #@! TO.N,Net-(U1-ENA)*
X142072000Y36892163D03*
G04 #@! TO.P,U1,4,VCP*
G04 #@! TO.N,Net-(U1-VCP)*
X140802000Y36892163D03*
G04 #@! TO.P,U1,3,OUT2A*
G04 #@! TO.N,/+ETB_OUT*
X139532000Y36892163D03*
G04 #@! TO.P,U1,2,VSA*
G04 #@! TO.N,+12V_RAW*
X138262000Y36892163D03*
G04 #@! TO.P,U1,1,GND@1*
G04 #@! TO.N,GND*
X136992000Y36892163D03*
G04 #@! TD*
G04 #@! TO.P,R21,2*
G04 #@! TO.N,GND*
G04 #@! TA.AperFunction,SMDPad,CuDef*
G36*
G01*
X8612000Y81240000D02*
X8612000Y80460000D01*
G75*
G02*
X8542000Y80390000I-70000J0D01*
G01*
X7982000Y80390000D01*
G75*
G02*
X7912000Y80460000I0J70000D01*
G01*
X7912000Y81240000D01*
G75*
G02*
X7982000Y81310000I70000J0D01*
G01*
X8542000Y81310000D01*
G75*
G02*
X8612000Y81240000I0J-70000D01*
G01*
G37*
G04 #@! TD.AperFunction*
G04 #@! TO.P,R21,1*
G04 #@! TO.N,Net-(D7-K)*
G04 #@! TA.AperFunction,SMDPad,CuDef*
G36*
G01*
X10212000Y81240000D02*
X10212000Y80460000D01*
G75*
G02*
X10142000Y80390000I-70000J0D01*
G01*
X9582000Y80390000D01*
G75*
G02*
X9512000Y80460000I0J70000D01*
G01*
X9512000Y81240000D01*
G75*
G02*
X9582000Y81310000I70000J0D01*
G01*
X10142000Y81310000D01*
G75*
G02*
X10212000Y81240000I0J-70000D01*
G01*
G37*
G04 #@! TD.AperFunction*
G04 #@! TD*
G04 #@! TO.P,D4,2,K*
G04 #@! TO.N,Net-(D3-A)*
G04 #@! TA.AperFunction,SMDPad,CuDef*
G36*
G01*
X12411979Y96505000D02*
X12411979Y97745000D01*
G75*
G02*
X12541979Y97875000I130000J0D01*
G01*
X13581979Y97875000D01*
G75*
G02*
X13711979Y97745000I0J-130000D01*
G01*
X13711979Y96505000D01*
G75*
G02*
X13581979Y96375000I-130000J0D01*
G01*
X12541979Y96375000D01*
G75*
G02*
X12411979Y96505000I0J130000D01*
G01*
G37*
G04 #@! TD.AperFunction*
G04 #@! TO.P,D4,1,A*
G04 #@! TO.N,/IN_VIGN*
G04 #@! TA.AperFunction,SMDPad,CuDef*
G36*
G01*
X14312000Y96505000D02*
X14312000Y97745000D01*
G75*
G02*
X14442000Y97875000I130000J0D01*
G01*
X15482000Y97875000D01*
G75*
G02*
X15612000Y97745000I0J-130000D01*
G01*
X15612000Y96505000D01*
G75*
G02*
X15482000Y96375000I-130000J0D01*
G01*
X14442000Y96375000D01*
G75*
G02*
X14312000Y96505000I0J130000D01*
G01*
G37*
G04 #@! TD.AperFunction*
G04 #@! TD*
G04 #@! TO.P,C16,1*
G04 #@! TO.N,GND*
G04 #@! TA.AperFunction,SMDPad,CuDef*
G36*
G01*
X36015001Y73440000D02*
X36015001Y72760000D01*
G75*
G02*
X35930001Y72675000I-85000J0D01*
G01*
X35250001Y72675000D01*
G75*
G02*
X35165001Y72760000I0J85000D01*
G01*
X35165001Y73440000D01*
G75*
G02*
X35250001Y73525000I85000J0D01*
G01*
X35930001Y73525000D01*
G75*
G02*
X36015001Y73440000I0J-85000D01*
G01*
G37*
G04 #@! TD.AperFunction*
G04 #@! TO.P,C16,2*
G04 #@! TO.N,+5V*
G04 #@! TA.AperFunction,SMDPad,CuDef*
G36*
G01*
X34434999Y73440000D02*
X34434999Y72760000D01*
G75*
G02*
X34349999Y72675000I-85000J0D01*
G01*
X33669999Y72675000D01*
G75*
G02*
X33584999Y72760000I0J85000D01*
G01*
X33584999Y73440000D01*
G75*
G02*
X33669999Y73525000I85000J0D01*
G01*
X34349999Y73525000D01*
G75*
G02*
X34434999Y73440000I0J-85000D01*
G01*
G37*
G04 #@! TD.AperFunction*
G04 #@! TD*
D52*
G04 #@! TO.P,P67,1,Pin_1*
G04 #@! TO.N,Net-(P67-Pin_1)*
X82112800Y30212600D03*
G04 #@! TD*
D75*
G04 #@! TO.P,BT1,2,-*
G04 #@! TO.N,GND*
X134600000Y63400000D03*
G04 #@! TO.P,BT1,1,+*
G04 #@! TO.N,Net-(BT1-+)*
X134600000Y92700000D03*
G04 #@! TD*
D52*
G04 #@! TO.P,P9,1,Pin_1*
G04 #@! TO.N,Net-(P9-Pin_1)*
X71444800Y30212600D03*
G04 #@! TD*
G04 #@! TO.P,R5,2*
G04 #@! TO.N,Net-(U1-ENA)*
G04 #@! TA.AperFunction,SMDPad,CuDef*
G36*
G01*
X142717000Y55342163D02*
X143497000Y55342163D01*
G75*
G02*
X143567000Y55272163I0J-70000D01*
G01*
X143567000Y54712163D01*
G75*
G02*
X143497000Y54642163I-70000J0D01*
G01*
X142717000Y54642163D01*
G75*
G02*
X142647000Y54712163I0J70000D01*
G01*
X142647000Y55272163D01*
G75*
G02*
X142717000Y55342163I70000J0D01*
G01*
G37*
G04 #@! TD.AperFunction*
G04 #@! TO.P,R5,1*
G04 #@! TO.N,/ETB_EN*
G04 #@! TA.AperFunction,SMDPad,CuDef*
G36*
G01*
X142717000Y56942163D02*
X143497000Y56942163D01*
G75*
G02*
X143567000Y56872163I0J-70000D01*
G01*
X143567000Y56312163D01*
G75*
G02*
X143497000Y56242163I-70000J0D01*
G01*
X142717000Y56242163D01*
G75*
G02*
X142647000Y56312163I0J70000D01*
G01*
X142647000Y56872163D01*
G75*
G02*
X142717000Y56942163I70000J0D01*
G01*
G37*
G04 #@! TD.AperFunction*
G04 #@! TD*
G04 #@! TO.P,P7,1,Pin_1*
G04 #@! TO.N,Net-(M6C-OUT_LOW7_PULLUP)*
X90500000Y40325000D03*
G04 #@! TD*
G04 #@! TO.P,D5,2,A*
G04 #@! TO.N,Net-(D5-A)*
G04 #@! TA.AperFunction,SMDPad,CuDef*
G36*
G01*
X13102000Y92825000D02*
X12622000Y92825000D01*
G75*
G02*
X12562000Y92885000I0J60000D01*
G01*
X12562000Y93365000D01*
G75*
G02*
X12622000Y93425000I60000J0D01*
G01*
X13102000Y93425000D01*
G75*
G02*
X13162000Y93365000I0J-60000D01*
G01*
X13162000Y92885000D01*
G75*
G02*
X13102000Y92825000I-60000J0D01*
G01*
G37*
G04 #@! TD.AperFunction*
G04 #@! TO.P,D5,1,K*
G04 #@! TO.N,+12V_RAW*
G04 #@! TA.AperFunction,SMDPad,CuDef*
G36*
G01*
X15302000Y92825000D02*
X14822000Y92825000D01*
G75*
G02*
X14762000Y92885000I0J60000D01*
G01*
X14762000Y93365000D01*
G75*
G02*
X14822000Y93425000I60000J0D01*
G01*
X15302000Y93425000D01*
G75*
G02*
X15362000Y93365000I0J-60000D01*
G01*
X15362000Y92885000D01*
G75*
G02*
X15302000Y92825000I-60000J0D01*
G01*
G37*
G04 #@! TD.AperFunction*
G04 #@! TD*
G04 #@! TO.P,P49,1,Pin_1*
G04 #@! TO.N,Net-(P49-Pin_1)*
X72625000Y25575000D03*
G04 #@! TD*
D68*
G04 #@! TO.P,R10,1,1*
G04 #@! TO.N,Net-(P1-Pad51)*
X13300000Y31880000D03*
G04 #@! TA.AperFunction,SMDPad,CuDef*
G36*
G01*
X12675000Y31425001D02*
X13925000Y31425001D01*
G75*
G02*
X14025000Y31325001I0J-100000D01*
G01*
X14025000Y30525001D01*
G75*
G02*
X13925000Y30425001I-100000J0D01*
G01*
X12675000Y30425001D01*
G75*
G02*
X12575000Y30525001I0J100000D01*
G01*
X12575000Y31325001D01*
G75*
G02*
X12675000Y31425001I100000J0D01*
G01*
G37*
G04 #@! TD.AperFunction*
G04 #@! TO.P,R10,2,2*
G04 #@! TO.N,/LSU_SENSOR_U{slash}PUMP_I*
G04 #@! TA.AperFunction,SMDPad,CuDef*
G36*
G01*
X12675000Y29524979D02*
X13925000Y29524979D01*
G75*
G02*
X14025000Y29424979I0J-100000D01*
G01*
X14025000Y28624979D01*
G75*
G02*
X13925000Y28524979I-100000J0D01*
G01*
X12675000Y28524979D01*
G75*
G02*
X12575000Y28624979I0J100000D01*
G01*
X12575000Y29424979D01*
G75*
G02*
X12675000Y29524979I100000J0D01*
G01*
G37*
G04 #@! TD.AperFunction*
X13300000Y28070000D03*
G04 #@! TD*
G04 #@! TO.P,D3,2,A*
G04 #@! TO.N,Net-(D3-A)*
G04 #@! TA.AperFunction,SMDPad,CuDef*
G36*
G01*
X13102000Y94825000D02*
X12622000Y94825000D01*
G75*
G02*
X12562000Y94885000I0J60000D01*
G01*
X12562000Y95365000D01*
G75*
G02*
X12622000Y95425000I60000J0D01*
G01*
X13102000Y95425000D01*
G75*
G02*
X13162000Y95365000I0J-60000D01*
G01*
X13162000Y94885000D01*
G75*
G02*
X13102000Y94825000I-60000J0D01*
G01*
G37*
G04 #@! TD.AperFunction*
G04 #@! TO.P,D3,1,K*
G04 #@! TO.N,/IN_VIGN*
G04 #@! TA.AperFunction,SMDPad,CuDef*
G36*
G01*
X15302000Y94825000D02*
X14822000Y94825000D01*
G75*
G02*
X14762000Y94885000I0J60000D01*
G01*
X14762000Y95365000D01*
G75*
G02*
X14822000Y95425000I60000J0D01*
G01*
X15302000Y95425000D01*
G75*
G02*
X15362000Y95365000I0J-60000D01*
G01*
X15362000Y94885000D01*
G75*
G02*
X15302000Y94825000I-60000J0D01*
G01*
G37*
G04 #@! TD.AperFunction*
G04 #@! TD*
D52*
G04 #@! TO.P,P14,1,Pin_1*
G04 #@! TO.N,/IN_AFR*
X63775000Y25625000D03*
G04 #@! TD*
D68*
G04 #@! TO.P,R9,1,1*
G04 #@! TO.N,Net-(F1-Pad1)*
X51600000Y26145000D03*
G04 #@! TA.AperFunction,SMDPad,CuDef*
G36*
G01*
X52225000Y26599999D02*
X50975000Y26599999D01*
G75*
G02*
X50875000Y26699999I0J100000D01*
G01*
X50875000Y27499999D01*
G75*
G02*
X50975000Y27599999I100000J0D01*
G01*
X52225000Y27599999D01*
G75*
G02*
X52325000Y27499999I0J-100000D01*
G01*
X52325000Y26699999D01*
G75*
G02*
X52225000Y26599999I-100000J0D01*
G01*
G37*
G04 #@! TD.AperFunction*
G04 #@! TO.P,R9,2,2*
G04 #@! TO.N,/IN_VIGN*
G04 #@! TA.AperFunction,SMDPad,CuDef*
G36*
G01*
X52225000Y28500021D02*
X50975000Y28500021D01*
G75*
G02*
X50875000Y28600021I0J100000D01*
G01*
X50875000Y29400021D01*
G75*
G02*
X50975000Y29500021I100000J0D01*
G01*
X52225000Y29500021D01*
G75*
G02*
X52325000Y29400021I0J-100000D01*
G01*
X52325000Y28600021D01*
G75*
G02*
X52225000Y28500021I-100000J0D01*
G01*
G37*
G04 #@! TD.AperFunction*
X51600000Y29955000D03*
G04 #@! TD*
G04 #@! TO.P,C8,1*
G04 #@! TO.N,GND*
G04 #@! TA.AperFunction,SMDPad,CuDef*
G36*
G01*
X135762000Y57804000D02*
X135762000Y58754000D01*
G75*
G02*
X136012000Y59004000I250000J0D01*
G01*
X136512000Y59004000D01*
G75*
G02*
X136762000Y58754000I0J-250000D01*
G01*
X136762000Y57804000D01*
G75*
G02*
X136512000Y57554000I-250000J0D01*
G01*
X136012000Y57554000D01*
G75*
G02*
X135762000Y57804000I0J250000D01*
G01*
G37*
G04 #@! TD.AperFunction*
G04 #@! TO.P,C8,2*
G04 #@! TO.N,+12V_RAW*
G04 #@! TA.AperFunction,SMDPad,CuDef*
G36*
G01*
X137662000Y57804000D02*
X137662000Y58754000D01*
G75*
G02*
X137912000Y59004000I250000J0D01*
G01*
X138412000Y59004000D01*
G75*
G02*
X138662000Y58754000I0J-250000D01*
G01*
X138662000Y57804000D01*
G75*
G02*
X138412000Y57554000I-250000J0D01*
G01*
X137912000Y57554000D01*
G75*
G02*
X137662000Y57804000I0J250000D01*
G01*
G37*
G04 #@! TD.AperFunction*
G04 #@! TD*
D52*
G04 #@! TO.P,P56,1,Pin_1*
G04 #@! TO.N,Net-(P56-Pin_1)*
X54782400Y32676400D03*
G04 #@! TD*
G04 #@! TO.P,P10,1,Pin_1*
G04 #@! TO.N,Net-(P10-Pin_1)*
X68794800Y30212600D03*
G04 #@! TD*
G04 #@! TO.P,D9,2,A*
G04 #@! TO.N,Net-(BT1-+)*
G04 #@! TA.AperFunction,SMDPad,CuDef*
G36*
G01*
X134260000Y95400000D02*
X134740000Y95400000D01*
G75*
G02*
X134800000Y95340000I0J-60000D01*
G01*
X134800000Y94860000D01*
G75*
G02*
X134740000Y94800000I-60000J0D01*
G01*
X134260000Y94800000D01*
G75*
G02*
X134200000Y94860000I0J60000D01*
G01*
X134200000Y95340000D01*
G75*
G02*
X134260000Y95400000I60000J0D01*
G01*
G37*
G04 #@! TD.AperFunction*
G04 #@! TO.P,D9,1,K*
G04 #@! TO.N,/VBAT*
G04 #@! TA.AperFunction,SMDPad,CuDef*
G36*
G01*
X132060000Y95400000D02*
X132540000Y95400000D01*
G75*
G02*
X132600000Y95340000I0J-60000D01*
G01*
X132600000Y94860000D01*
G75*
G02*
X132540000Y94800000I-60000J0D01*
G01*
X132060000Y94800000D01*
G75*
G02*
X132000000Y94860000I0J60000D01*
G01*
X132000000Y95340000D01*
G75*
G02*
X132060000Y95400000I60000J0D01*
G01*
G37*
G04 #@! TD.AperFunction*
G04 #@! TD*
G04 #@! TO.P,P64,1,Pin_1*
G04 #@! TO.N,Net-(P64-Pin_1)*
X84225000Y25575000D03*
G04 #@! TD*
G04 #@! TO.P,P69,1,Pin_1*
G04 #@! TO.N,Net-(P69-Pin_1)*
X87446800Y30212600D03*
G04 #@! TD*
G04 #@! TO.P,P80,1,Pin_1*
G04 #@! TO.N,Net-(P80-Pin_1)*
X39000000Y28875000D03*
G04 #@! TD*
D76*
G04 #@! TO.P,D12,1,K*
G04 #@! TO.N,+12V_RAW*
X113303000Y42709400D03*
G04 #@! TO.P,D12,2,A*
G04 #@! TO.N,/OUT_IDLE*
X110003000Y42709400D03*
G04 #@! TD*
D77*
G04 #@! TO.P,J8,6,Pin_6*
G04 #@! TO.N,unconnected-(J8-Pin_6-Pad6)*
X13200000Y66250000D03*
G04 #@! TO.P,J8,5,Pin_5*
G04 #@! TO.N,Net-(J8-Pin_5)*
X13200000Y63710000D03*
G04 #@! TO.P,J8,4,Pin_4*
G04 #@! TO.N,Net-(J8-Pin_4)*
X13200000Y61170000D03*
G04 #@! TO.P,J8,3,Pin_3*
G04 #@! TO.N,GND*
X13200000Y58630000D03*
G04 #@! TO.P,J8,2,Pin_2*
G04 #@! TO.N,Net-(J8-Pin_2)*
X13200000Y56090000D03*
D78*
G04 #@! TO.P,J8,1,Pin_1*
G04 #@! TO.N,Net-(J8-Pin_1)*
X13200000Y53550000D03*
G04 #@! TD*
D76*
G04 #@! TO.P,D11,1,K*
G04 #@! TO.N,+12V_RAW*
X114981400Y42709400D03*
G04 #@! TO.P,D11,2,A*
G04 #@! TO.N,/OUT_VVT2_B1*
X118281400Y42709400D03*
G04 #@! TD*
G04 #@! TO.P,C10,1*
G04 #@! TO.N,GND*
G04 #@! TA.AperFunction,SMDPad,CuDef*
G36*
G01*
X142150000Y60850000D02*
X142150000Y59900000D01*
G75*
G02*
X141900000Y59650000I-250000J0D01*
G01*
X141400000Y59650000D01*
G75*
G02*
X141150000Y59900000I0J250000D01*
G01*
X141150000Y60850000D01*
G75*
G02*
X141400000Y61100000I250000J0D01*
G01*
X141900000Y61100000D01*
G75*
G02*
X142150000Y60850000I0J-250000D01*
G01*
G37*
G04 #@! TD.AperFunction*
G04 #@! TO.P,C10,2*
G04 #@! TO.N,+12V_RAW*
G04 #@! TA.AperFunction,SMDPad,CuDef*
G36*
G01*
X140250000Y60850000D02*
X140250000Y59900000D01*
G75*
G02*
X140000000Y59650000I-250000J0D01*
G01*
X139500000Y59650000D01*
G75*
G02*
X139250000Y59900000I0J250000D01*
G01*
X139250000Y60850000D01*
G75*
G02*
X139500000Y61100000I250000J0D01*
G01*
X140000000Y61100000D01*
G75*
G02*
X140250000Y60850000I0J-250000D01*
G01*
G37*
G04 #@! TD.AperFunction*
G04 #@! TD*
D52*
G04 #@! TO.P,G3,1*
G04 #@! TO.N,+12V*
X144900000Y104600000D03*
G04 #@! TO.P,G3,2*
G04 #@! TO.N,+5V*
X144900000Y102060000D03*
G04 #@! TO.P,G3,3*
G04 #@! TO.N,+3V3*
X144900000Y99520000D03*
G04 #@! TO.P,G3,4*
G04 #@! TO.N,GND*
X144900000Y96980000D03*
G04 #@! TO.P,G3,5*
X144900000Y94440000D03*
G04 #@! TO.P,G3,6*
G04 #@! TO.N,+12V*
X142360000Y104600000D03*
G04 #@! TO.P,G3,7*
G04 #@! TO.N,+5V*
X142360000Y102060000D03*
G04 #@! TO.P,G3,8*
G04 #@! TO.N,+3V3*
X142360000Y99520000D03*
G04 #@! TO.P,G3,9*
G04 #@! TO.N,GND*
X142360000Y96980000D03*
G04 #@! TO.P,G3,10*
X142360000Y94440000D03*
G04 #@! TO.P,G3,11*
G04 #@! TO.N,+12V*
X139820000Y104600000D03*
G04 #@! TO.P,G3,12*
G04 #@! TO.N,+5V*
X139820000Y102060000D03*
G04 #@! TO.P,G3,13*
G04 #@! TO.N,+3V3*
X139820000Y99520000D03*
G04 #@! TO.P,G3,14*
G04 #@! TO.N,GND*
X139820000Y96980000D03*
G04 #@! TO.P,G3,15*
X139820000Y94440000D03*
G04 #@! TD*
G04 #@! TO.P,P3,1,Pin_1*
G04 #@! TO.N,/IN_A4*
X47800000Y39175000D03*
G04 #@! TD*
D68*
G04 #@! TO.P,R2,1,1*
G04 #@! TO.N,Net-(P1-Pad21)*
X46325000Y26165000D03*
G04 #@! TA.AperFunction,SMDPad,CuDef*
G36*
G01*
X46950000Y26619999D02*
X45700000Y26619999D01*
G75*
G02*
X45600000Y26719999I0J100000D01*
G01*
X45600000Y27519999D01*
G75*
G02*
X45700000Y27619999I100000J0D01*
G01*
X46950000Y27619999D01*
G75*
G02*
X47050000Y27519999I0J-100000D01*
G01*
X47050000Y26719999D01*
G75*
G02*
X46950000Y26619999I-100000J0D01*
G01*
G37*
G04 #@! TD.AperFunction*
G04 #@! TO.P,R2,2,2*
G04 #@! TO.N,/OUT_MAIN_RELAY*
G04 #@! TA.AperFunction,SMDPad,CuDef*
G36*
G01*
X46950000Y28520021D02*
X45700000Y28520021D01*
G75*
G02*
X45600000Y28620021I0J100000D01*
G01*
X45600000Y29420021D01*
G75*
G02*
X45700000Y29520021I100000J0D01*
G01*
X46950000Y29520021D01*
G75*
G02*
X47050000Y29420021I0J-100000D01*
G01*
X47050000Y28620021D01*
G75*
G02*
X46950000Y28520021I-100000J0D01*
G01*
G37*
G04 #@! TD.AperFunction*
X46325000Y29975000D03*
G04 #@! TD*
D52*
G04 #@! TO.P,P41,1,Pin_1*
G04 #@! TO.N,Net-(P41-Pin_1)*
X43200000Y32675000D03*
G04 #@! TD*
D76*
G04 #@! TO.P,D14,1,K*
G04 #@! TO.N,+12V_RAW*
X104350000Y41175000D03*
G04 #@! TO.P,D14,2,A*
G04 #@! TO.N,/OUT_VVT1_1*
X101050000Y41175000D03*
G04 #@! TD*
D68*
G04 #@! TO.P,R12,1,1*
G04 #@! TO.N,Net-(P1-Pad70)*
X15600000Y31880021D03*
G04 #@! TA.AperFunction,SMDPad,CuDef*
G36*
G01*
X14975000Y31425022D02*
X16225000Y31425022D01*
G75*
G02*
X16325000Y31325022I0J-100000D01*
G01*
X16325000Y30525022D01*
G75*
G02*
X16225000Y30425022I-100000J0D01*
G01*
X14975000Y30425022D01*
G75*
G02*
X14875000Y30525022I0J100000D01*
G01*
X14875000Y31325022D01*
G75*
G02*
X14975000Y31425022I100000J0D01*
G01*
G37*
G04 #@! TD.AperFunction*
G04 #@! TO.P,R12,2,2*
G04 #@! TO.N,/LSU_SENSOR_U*
G04 #@! TA.AperFunction,SMDPad,CuDef*
G36*
G01*
X14975000Y29525000D02*
X16225000Y29525000D01*
G75*
G02*
X16325000Y29425000I0J-100000D01*
G01*
X16325000Y28625000D01*
G75*
G02*
X16225000Y28525000I-100000J0D01*
G01*
X14975000Y28525000D01*
G75*
G02*
X14875000Y28625000I0J100000D01*
G01*
X14875000Y29425000D01*
G75*
G02*
X14975000Y29525000I100000J0D01*
G01*
G37*
G04 #@! TD.AperFunction*
X15600000Y28070021D03*
G04 #@! TD*
G04 #@! TO.P,F2,1,1*
G04 #@! TO.N,Net-(F2-Pad1)*
X126975000Y26775000D03*
G04 #@! TA.AperFunction,SMDPad,CuDef*
G36*
G01*
X127875000Y28119990D02*
X127875000Y27429990D01*
G75*
G02*
X127645000Y27199990I-230000J0D01*
G01*
X126305000Y27199990D01*
G75*
G02*
X126075000Y27429990I0J230000D01*
G01*
X126075000Y28119990D01*
G75*
G02*
X126305000Y28349990I230000J0D01*
G01*
X127645000Y28349990D01*
G75*
G02*
X127875000Y28119990I0J-230000D01*
G01*
G37*
G04 #@! TD.AperFunction*
G04 #@! TO.P,F2,2,2*
G04 #@! TO.N,+12V_RAW*
G04 #@! TA.AperFunction,SMDPad,CuDef*
G36*
G01*
X127875000Y31020010D02*
X127875000Y30330010D01*
G75*
G02*
X127645000Y30100010I-230000J0D01*
G01*
X126305000Y30100010D01*
G75*
G02*
X126075000Y30330010I0J230000D01*
G01*
X126075000Y31020010D01*
G75*
G02*
X126305000Y31250010I230000J0D01*
G01*
X127645000Y31250010D01*
G75*
G02*
X127875000Y31020010I0J-230000D01*
G01*
G37*
G04 #@! TD.AperFunction*
X126975000Y31675000D03*
G04 #@! TD*
G04 #@! TO.P,C14,1*
G04 #@! TO.N,GND*
G04 #@! TA.AperFunction,SMDPad,CuDef*
G36*
G01*
X134362000Y28800000D02*
X134362000Y29750000D01*
G75*
G02*
X134612000Y30000000I250000J0D01*
G01*
X135112000Y30000000D01*
G75*
G02*
X135362000Y29750000I0J-250000D01*
G01*
X135362000Y28800000D01*
G75*
G02*
X135112000Y28550000I-250000J0D01*
G01*
X134612000Y28550000D01*
G75*
G02*
X134362000Y28800000I0J250000D01*
G01*
G37*
G04 #@! TD.AperFunction*
G04 #@! TO.P,C14,2*
G04 #@! TO.N,+12V_RAW*
G04 #@! TA.AperFunction,SMDPad,CuDef*
G36*
G01*
X136262000Y28800000D02*
X136262000Y29750000D01*
G75*
G02*
X136512000Y30000000I250000J0D01*
G01*
X137012000Y30000000D01*
G75*
G02*
X137262000Y29750000I0J-250000D01*
G01*
X137262000Y28800000D01*
G75*
G02*
X137012000Y28550000I-250000J0D01*
G01*
X136512000Y28550000D01*
G75*
G02*
X136262000Y28800000I0J250000D01*
G01*
G37*
G04 #@! TD.AperFunction*
G04 #@! TD*
D70*
G04 #@! TO.P,J4,1,Pin_1*
G04 #@! TO.N,+3V3*
X17962000Y79125000D03*
G04 #@! TD*
G04 #@! TO.P,C3,2*
G04 #@! TO.N,+12V_RAW*
G04 #@! TA.AperFunction,SMDPad,CuDef*
G36*
G01*
X140141999Y55132163D02*
X140141999Y54452163D01*
G75*
G02*
X140056999Y54367163I-85000J0D01*
G01*
X139376999Y54367163D01*
G75*
G02*
X139291999Y54452163I0J85000D01*
G01*
X139291999Y55132163D01*
G75*
G02*
X139376999Y55217163I85000J0D01*
G01*
X140056999Y55217163D01*
G75*
G02*
X140141999Y55132163I0J-85000D01*
G01*
G37*
G04 #@! TD.AperFunction*
G04 #@! TO.P,C3,1*
G04 #@! TO.N,Net-(D2-K)*
G04 #@! TA.AperFunction,SMDPad,CuDef*
G36*
G01*
X141722001Y55132163D02*
X141722001Y54452163D01*
G75*
G02*
X141637001Y54367163I-85000J0D01*
G01*
X140957001Y54367163D01*
G75*
G02*
X140872001Y54452163I0J85000D01*
G01*
X140872001Y55132163D01*
G75*
G02*
X140957001Y55217163I85000J0D01*
G01*
X141637001Y55217163D01*
G75*
G02*
X141722001Y55132163I0J-85000D01*
G01*
G37*
G04 #@! TD.AperFunction*
G04 #@! TD*
G04 #@! TO.P,C2,1*
G04 #@! TO.N,GND*
G04 #@! TA.AperFunction,SMDPad,CuDef*
G36*
G01*
X134856998Y32835000D02*
X134856998Y33515000D01*
G75*
G02*
X134941998Y33600000I85000J0D01*
G01*
X135621998Y33600000D01*
G75*
G02*
X135706998Y33515000I0J-85000D01*
G01*
X135706998Y32835000D01*
G75*
G02*
X135621998Y32750000I-85000J0D01*
G01*
X134941998Y32750000D01*
G75*
G02*
X134856998Y32835000I0J85000D01*
G01*
G37*
G04 #@! TD.AperFunction*
G04 #@! TO.P,C2,2*
G04 #@! TO.N,+12V_RAW*
G04 #@! TA.AperFunction,SMDPad,CuDef*
G36*
G01*
X136437000Y32835000D02*
X136437000Y33515000D01*
G75*
G02*
X136522000Y33600000I85000J0D01*
G01*
X137202000Y33600000D01*
G75*
G02*
X137287000Y33515000I0J-85000D01*
G01*
X137287000Y32835000D01*
G75*
G02*
X137202000Y32750000I-85000J0D01*
G01*
X136522000Y32750000D01*
G75*
G02*
X136437000Y32835000I0J85000D01*
G01*
G37*
G04 #@! TD.AperFunction*
G04 #@! TD*
D52*
G04 #@! TO.P,G1,1*
G04 #@! TO.N,Net-(G1-Pad1)*
X149860000Y59640000D03*
G04 #@! TO.P,G1,2*
G04 #@! TO.N,Net-(G1-Pad12)*
X149860000Y62180000D03*
G04 #@! TO.P,G1,3*
G04 #@! TO.N,Net-(G1-Pad13)*
X149860000Y64720000D03*
G04 #@! TO.P,G1,4*
G04 #@! TO.N,Net-(G1-Pad14)*
X149860000Y67260000D03*
G04 #@! TO.P,G1,5*
G04 #@! TO.N,Net-(G1-Pad10)*
X149860000Y69800000D03*
G04 #@! TO.P,G1,6*
G04 #@! TO.N,Net-(G1-Pad1)*
X152400000Y59640000D03*
G04 #@! TO.P,G1,7*
G04 #@! TO.N,Net-(G1-Pad12)*
X152400000Y62180000D03*
G04 #@! TO.P,G1,8*
G04 #@! TO.N,Net-(G1-Pad13)*
X152400000Y64720000D03*
G04 #@! TO.P,G1,9*
G04 #@! TO.N,Net-(G1-Pad14)*
X152400000Y67260000D03*
G04 #@! TO.P,G1,10*
G04 #@! TO.N,Net-(G1-Pad10)*
X152400000Y69800000D03*
G04 #@! TO.P,G1,11*
G04 #@! TO.N,Net-(G1-Pad1)*
X154940000Y59640000D03*
G04 #@! TO.P,G1,12*
G04 #@! TO.N,Net-(G1-Pad12)*
X154940000Y62180000D03*
G04 #@! TO.P,G1,13*
G04 #@! TO.N,Net-(G1-Pad13)*
X154940000Y64720000D03*
G04 #@! TO.P,G1,14*
G04 #@! TO.N,Net-(G1-Pad14)*
X154940000Y67260000D03*
G04 #@! TO.P,G1,15*
G04 #@! TO.N,Net-(G1-Pad10)*
X154940000Y69800000D03*
G04 #@! TD*
G04 #@! TO.P,P15,1,Pin_1*
G04 #@! TO.N,/IN_CRANK*
X77337600Y41363200D03*
G04 #@! TD*
G04 #@! TO.P,C12,1*
G04 #@! TO.N,GND*
G04 #@! TA.AperFunction,SMDPad,CuDef*
G36*
G01*
X134362000Y26700000D02*
X134362000Y27650000D01*
G75*
G02*
X134612000Y27900000I250000J0D01*
G01*
X135112000Y27900000D01*
G75*
G02*
X135362000Y27650000I0J-250000D01*
G01*
X135362000Y26700000D01*
G75*
G02*
X135112000Y26450000I-250000J0D01*
G01*
X134612000Y26450000D01*
G75*
G02*
X134362000Y26700000I0J250000D01*
G01*
G37*
G04 #@! TD.AperFunction*
G04 #@! TO.P,C12,2*
G04 #@! TO.N,+12V_RAW*
G04 #@! TA.AperFunction,SMDPad,CuDef*
G36*
G01*
X136262000Y26700000D02*
X136262000Y27650000D01*
G75*
G02*
X136512000Y27900000I250000J0D01*
G01*
X137012000Y27900000D01*
G75*
G02*
X137262000Y27650000I0J-250000D01*
G01*
X137262000Y26700000D01*
G75*
G02*
X137012000Y26450000I-250000J0D01*
G01*
X136512000Y26450000D01*
G75*
G02*
X136262000Y26700000I0J250000D01*
G01*
G37*
G04 #@! TD.AperFunction*
G04 #@! TD*
G04 #@! TO.P,J10,R*
G04 #@! TO.N,unconnected-(J10-PadR)*
G04 #@! TA.AperFunction,ComponentPad*
G36*
G01*
X93339340Y103360660D02*
X93339340Y103360660D01*
G75*
G02*
X95036396Y103360660I848528J-848528D01*
G01*
X95460660Y102936396D01*
G75*
G02*
X95460660Y101239340I-848528J-848528D01*
G01*
X95460660Y101239340D01*
G75*
G02*
X93763604Y101239340I-848528J848528D01*
G01*
X93339340Y101663604D01*
G75*
G02*
X93339340Y103360660I848528J848528D01*
G01*
G37*
G04 #@! TD.AperFunction*
G04 #@! TO.P,J10,RN*
G04 #@! TO.N,unconnected-(J10-PadRN)*
G04 #@! TA.AperFunction,ComponentPad*
G36*
G01*
X95239340Y105560660D02*
X95239340Y105560660D01*
G75*
G02*
X96936396Y105560660I848528J-848528D01*
G01*
X97360660Y105136396D01*
G75*
G02*
X97360660Y103439340I-848528J-848528D01*
G01*
X97360660Y103439340D01*
G75*
G02*
X95663604Y103439340I-848528J848528D01*
G01*
X95239340Y103863604D01*
G75*
G02*
X95239340Y105560660I848528J848528D01*
G01*
G37*
G04 #@! TD.AperFunction*
G04 #@! TO.P,J10,S*
G04 #@! TO.N,GND*
G04 #@! TA.AperFunction,ComponentPad*
G36*
G01*
X101439340Y105560660D02*
X101439340Y105560660D01*
G75*
G02*
X103136396Y105560660I848528J-848528D01*
G01*
X103560660Y105136396D01*
G75*
G02*
X103560660Y103439340I-848528J-848528D01*
G01*
X103560660Y103439340D01*
G75*
G02*
X101863604Y103439340I-848528J848528D01*
G01*
X101439340Y103863604D01*
G75*
G02*
X101439340Y105560660I848528J848528D01*
G01*
G37*
G04 #@! TD.AperFunction*
G04 #@! TO.P,J10,T*
G04 #@! TO.N,Net-(C17-Pad1)*
G04 #@! TA.AperFunction,ComponentPad*
G36*
G01*
X98939340Y103360660D02*
X98939340Y103360660D01*
G75*
G02*
X100636396Y103360660I848528J-848528D01*
G01*
X101060660Y102936396D01*
G75*
G02*
X101060660Y101239340I-848528J-848528D01*
G01*
X101060660Y101239340D01*
G75*
G02*
X99363604Y101239340I-848528J848528D01*
G01*
X98939340Y101663604D01*
G75*
G02*
X98939340Y103360660I848528J848528D01*
G01*
G37*
G04 #@! TD.AperFunction*
G04 #@! TO.P,J10,TN*
G04 #@! TO.N,unconnected-(J10-PadTN)*
G04 #@! TA.AperFunction,ComponentPad*
G36*
G01*
X89639340Y105560660D02*
X89639340Y105560660D01*
G75*
G02*
X91336396Y105560660I848528J-848528D01*
G01*
X91760660Y105136396D01*
G75*
G02*
X91760660Y103439340I-848528J-848528D01*
G01*
X91760660Y103439340D01*
G75*
G02*
X90063604Y103439340I-848528J848528D01*
G01*
X89639340Y103863604D01*
G75*
G02*
X89639340Y105560660I848528J848528D01*
G01*
G37*
G04 #@! TD.AperFunction*
G04 #@! TD*
G04 #@! TO.P,C7,1*
G04 #@! TO.N,GND*
G04 #@! TA.AperFunction,SMDPad,CuDef*
G36*
G01*
X135762000Y59912800D02*
X135762000Y60862800D01*
G75*
G02*
X136012000Y61112800I250000J0D01*
G01*
X136512000Y61112800D01*
G75*
G02*
X136762000Y60862800I0J-250000D01*
G01*
X136762000Y59912800D01*
G75*
G02*
X136512000Y59662800I-250000J0D01*
G01*
X136012000Y59662800D01*
G75*
G02*
X135762000Y59912800I0J250000D01*
G01*
G37*
G04 #@! TD.AperFunction*
G04 #@! TO.P,C7,2*
G04 #@! TO.N,+12V_RAW*
G04 #@! TA.AperFunction,SMDPad,CuDef*
G36*
G01*
X137662000Y59912800D02*
X137662000Y60862800D01*
G75*
G02*
X137912000Y61112800I250000J0D01*
G01*
X138412000Y61112800D01*
G75*
G02*
X138662000Y60862800I0J-250000D01*
G01*
X138662000Y59912800D01*
G75*
G02*
X138412000Y59662800I-250000J0D01*
G01*
X137912000Y59662800D01*
G75*
G02*
X137662000Y59912800I0J250000D01*
G01*
G37*
G04 #@! TD.AperFunction*
G04 #@! TD*
G04 #@! TO.P,P46,1,Pin_1*
G04 #@! TO.N,Net-(P46-Pin_1)*
X78875000Y25575000D03*
G04 #@! TD*
G04 #@! TO.P,P20,1,Pin_1*
G04 #@! TO.N,Net-(P20-Pin_1)*
X51350000Y32650000D03*
G04 #@! TD*
G04 #@! TO.P,P40,1,Pin_1*
G04 #@! TO.N,Net-(P40-Pin_1)*
X48650000Y32650000D03*
G04 #@! TD*
G04 #@! TO.P,C9,1*
G04 #@! TO.N,GND*
G04 #@! TA.AperFunction,SMDPad,CuDef*
G36*
G01*
X135762000Y55704000D02*
X135762000Y56654000D01*
G75*
G02*
X136012000Y56904000I250000J0D01*
G01*
X136512000Y56904000D01*
G75*
G02*
X136762000Y56654000I0J-250000D01*
G01*
X136762000Y55704000D01*
G75*
G02*
X136512000Y55454000I-250000J0D01*
G01*
X136012000Y55454000D01*
G75*
G02*
X135762000Y55704000I0J250000D01*
G01*
G37*
G04 #@! TD.AperFunction*
G04 #@! TO.P,C9,2*
G04 #@! TO.N,+12V_RAW*
G04 #@! TA.AperFunction,SMDPad,CuDef*
G36*
G01*
X137662000Y55704000D02*
X137662000Y56654000D01*
G75*
G02*
X137912000Y56904000I250000J0D01*
G01*
X138412000Y56904000D01*
G75*
G02*
X138662000Y56654000I0J-250000D01*
G01*
X138662000Y55704000D01*
G75*
G02*
X138412000Y55454000I-250000J0D01*
G01*
X137912000Y55454000D01*
G75*
G02*
X137662000Y55704000I0J250000D01*
G01*
G37*
G04 #@! TD.AperFunction*
G04 #@! TD*
G04 #@! TO.P,R20,2*
G04 #@! TO.N,GND*
G04 #@! TA.AperFunction,SMDPad,CuDef*
G36*
G01*
X8612000Y83790000D02*
X8612000Y83010000D01*
G75*
G02*
X8542000Y82940000I-70000J0D01*
G01*
X7982000Y82940000D01*
G75*
G02*
X7912000Y83010000I0J70000D01*
G01*
X7912000Y83790000D01*
G75*
G02*
X7982000Y83860000I70000J0D01*
G01*
X8542000Y83860000D01*
G75*
G02*
X8612000Y83790000I0J-70000D01*
G01*
G37*
G04 #@! TD.AperFunction*
G04 #@! TO.P,R20,1*
G04 #@! TO.N,Net-(D6-K)*
G04 #@! TA.AperFunction,SMDPad,CuDef*
G36*
G01*
X10212000Y83790000D02*
X10212000Y83010000D01*
G75*
G02*
X10142000Y82940000I-70000J0D01*
G01*
X9582000Y82940000D01*
G75*
G02*
X9512000Y83010000I0J70000D01*
G01*
X9512000Y83790000D01*
G75*
G02*
X9582000Y83860000I70000J0D01*
G01*
X10142000Y83860000D01*
G75*
G02*
X10212000Y83790000I0J-70000D01*
G01*
G37*
G04 #@! TD.AperFunction*
G04 #@! TD*
D78*
G04 #@! TO.P,J7,1,Pin_1*
G04 #@! TO.N,/SPI3_MOSI*
X73280000Y99500000D03*
D77*
G04 #@! TO.P,J7,2,Pin_2*
G04 #@! TO.N,/SPI3_MISO*
X70740000Y99500000D03*
G04 #@! TO.P,J7,3,Pin_3*
G04 #@! TO.N,/SPI3_SCK*
X68200000Y99500000D03*
G04 #@! TO.P,J7,4,Pin_4*
G04 #@! TO.N,/SPI3_CS*
X65660000Y99500000D03*
G04 #@! TO.P,J7,5,Pin_5*
G04 #@! TO.N,/RX2*
X63120000Y99500000D03*
G04 #@! TO.P,J7,6,Pin_6*
G04 #@! TO.N,/TX2*
X60580000Y99500000D03*
G04 #@! TO.P,J7,7,Pin_7*
G04 #@! TO.N,/RX1*
X58040000Y99500000D03*
G04 #@! TO.P,J7,8,Pin_8*
G04 #@! TO.N,/TX1*
X55500000Y99500000D03*
G04 #@! TD*
D52*
G04 #@! TO.P,P68,1,Pin_1*
G04 #@! TO.N,Net-(P68-Pin_1)*
X84754400Y30212600D03*
G04 #@! TD*
G04 #@! TO.P,R17,2*
G04 #@! TO.N,GND*
G04 #@! TA.AperFunction,SMDPad,CuDef*
G36*
G01*
X8612000Y93240000D02*
X8612000Y92460000D01*
G75*
G02*
X8542000Y92390000I-70000J0D01*
G01*
X7982000Y92390000D01*
G75*
G02*
X7912000Y92460000I0J70000D01*
G01*
X7912000Y93240000D01*
G75*
G02*
X7982000Y93310000I70000J0D01*
G01*
X8542000Y93310000D01*
G75*
G02*
X8612000Y93240000I0J-70000D01*
G01*
G37*
G04 #@! TD.AperFunction*
G04 #@! TO.P,R17,1*
G04 #@! TO.N,Net-(D5-A)*
G04 #@! TA.AperFunction,SMDPad,CuDef*
G36*
G01*
X10212000Y93240000D02*
X10212000Y92460000D01*
G75*
G02*
X10142000Y92390000I-70000J0D01*
G01*
X9582000Y92390000D01*
G75*
G02*
X9512000Y92460000I0J70000D01*
G01*
X9512000Y93240000D01*
G75*
G02*
X9582000Y93310000I70000J0D01*
G01*
X10142000Y93310000D01*
G75*
G02*
X10212000Y93240000I0J-70000D01*
G01*
G37*
G04 #@! TD.AperFunction*
G04 #@! TD*
D68*
G04 #@! TO.P,R3,1,1*
G04 #@! TO.N,/OUT_MAIN_RELAY*
X41800000Y29910000D03*
G04 #@! TA.AperFunction,SMDPad,CuDef*
G36*
G01*
X41175000Y29455001D02*
X42425000Y29455001D01*
G75*
G02*
X42525000Y29355001I0J-100000D01*
G01*
X42525000Y28555001D01*
G75*
G02*
X42425000Y28455001I-100000J0D01*
G01*
X41175000Y28455001D01*
G75*
G02*
X41075000Y28555001I0J100000D01*
G01*
X41075000Y29355001D01*
G75*
G02*
X41175000Y29455001I100000J0D01*
G01*
G37*
G04 #@! TD.AperFunction*
G04 #@! TO.P,R3,2,2*
G04 #@! TO.N,Net-(P1-Pad23)*
G04 #@! TA.AperFunction,SMDPad,CuDef*
G36*
G01*
X41175000Y27554979D02*
X42425000Y27554979D01*
G75*
G02*
X42525000Y27454979I0J-100000D01*
G01*
X42525000Y26654979D01*
G75*
G02*
X42425000Y26554979I-100000J0D01*
G01*
X41175000Y26554979D01*
G75*
G02*
X41075000Y26654979I0J100000D01*
G01*
X41075000Y27454979D01*
G75*
G02*
X41175000Y27554979I100000J0D01*
G01*
G37*
G04 #@! TD.AperFunction*
X41800000Y26100000D03*
G04 #@! TD*
D52*
G04 #@! TO.P,P8,1,Pin_1*
G04 #@! TO.N,Net-(M6C-OUT_LOW8_PULLUP)*
X80741200Y42785600D03*
G04 #@! TD*
G04 #@! TO.P,D7,2,K*
G04 #@! TO.N,Net-(D7-K)*
G04 #@! TA.AperFunction,SMDPad,CuDef*
G36*
G01*
X12411979Y78505000D02*
X12411979Y79745000D01*
G75*
G02*
X12541979Y79875000I130000J0D01*
G01*
X13581979Y79875000D01*
G75*
G02*
X13711979Y79745000I0J-130000D01*
G01*
X13711979Y78505000D01*
G75*
G02*
X13581979Y78375000I-130000J0D01*
G01*
X12541979Y78375000D01*
G75*
G02*
X12411979Y78505000I0J130000D01*
G01*
G37*
G04 #@! TD.AperFunction*
G04 #@! TO.P,D7,1,A*
G04 #@! TO.N,+3V3*
G04 #@! TA.AperFunction,SMDPad,CuDef*
G36*
G01*
X14312000Y78505000D02*
X14312000Y79745000D01*
G75*
G02*
X14442000Y79875000I130000J0D01*
G01*
X15482000Y79875000D01*
G75*
G02*
X15612000Y79745000I0J-130000D01*
G01*
X15612000Y78505000D01*
G75*
G02*
X15482000Y78375000I-130000J0D01*
G01*
X14442000Y78375000D01*
G75*
G02*
X14312000Y78505000I0J130000D01*
G01*
G37*
G04 #@! TD.AperFunction*
G04 #@! TD*
G04 #@! TO.P,P48,1,Pin_1*
G04 #@! TO.N,Net-(P48-Pin_1)*
X75375000Y25575000D03*
G04 #@! TD*
G04 #@! TO.P,C13,1*
G04 #@! TO.N,GND*
G04 #@! TA.AperFunction,SMDPad,CuDef*
G36*
G01*
X134362000Y24600000D02*
X134362000Y25550000D01*
G75*
G02*
X134612000Y25800000I250000J0D01*
G01*
X135112000Y25800000D01*
G75*
G02*
X135362000Y25550000I0J-250000D01*
G01*
X135362000Y24600000D01*
G75*
G02*
X135112000Y24350000I-250000J0D01*
G01*
X134612000Y24350000D01*
G75*
G02*
X134362000Y24600000I0J250000D01*
G01*
G37*
G04 #@! TD.AperFunction*
G04 #@! TO.P,C13,2*
G04 #@! TO.N,+12V_RAW*
G04 #@! TA.AperFunction,SMDPad,CuDef*
G36*
G01*
X136262000Y24600000D02*
X136262000Y25550000D01*
G75*
G02*
X136512000Y25800000I250000J0D01*
G01*
X137012000Y25800000D01*
G75*
G02*
X137262000Y25550000I0J-250000D01*
G01*
X137262000Y24600000D01*
G75*
G02*
X137012000Y24350000I-250000J0D01*
G01*
X136512000Y24350000D01*
G75*
G02*
X136262000Y24600000I0J250000D01*
G01*
G37*
G04 #@! TD.AperFunction*
G04 #@! TD*
D70*
G04 #@! TO.P,J3,1,Pin_1*
G04 #@! TO.N,+5V*
X17962000Y85125000D03*
G04 #@! TD*
D52*
G04 #@! TO.P,P45,1,Pin_1*
G04 #@! TO.N,Net-(P45-Pin_1)*
X81575000Y25575000D03*
G04 #@! TD*
G04 #@! TO.P,R1,2*
G04 #@! TO.N,Net-(C4-Pad2)*
G04 #@! TA.AperFunction,SMDPad,CuDef*
G36*
G01*
X141857000Y29498163D02*
X141857000Y30278163D01*
G75*
G02*
X141927000Y30348163I70000J0D01*
G01*
X142487000Y30348163D01*
G75*
G02*
X142557000Y30278163I0J-70000D01*
G01*
X142557000Y29498163D01*
G75*
G02*
X142487000Y29428163I-70000J0D01*
G01*
X141927000Y29428163D01*
G75*
G02*
X141857000Y29498163I0J70000D01*
G01*
G37*
G04 #@! TD.AperFunction*
G04 #@! TO.P,R1,1*
G04 #@! TO.N,Net-(D1-K)*
G04 #@! TA.AperFunction,SMDPad,CuDef*
G36*
G01*
X140257000Y29498163D02*
X140257000Y30278163D01*
G75*
G02*
X140327000Y30348163I70000J0D01*
G01*
X140887000Y30348163D01*
G75*
G02*
X140957000Y30278163I0J-70000D01*
G01*
X140957000Y29498163D01*
G75*
G02*
X140887000Y29428163I-70000J0D01*
G01*
X140327000Y29428163D01*
G75*
G02*
X140257000Y29498163I0J70000D01*
G01*
G37*
G04 #@! TD.AperFunction*
G04 #@! TD*
G04 #@! TO.P,D2,2,A*
G04 #@! TO.N,Net-(D1-K)*
G04 #@! TA.AperFunction,SMDPad,CuDef*
G36*
G01*
X140367000Y31588163D02*
X140847000Y31588163D01*
G75*
G02*
X140907000Y31528163I0J-60000D01*
G01*
X140907000Y31048163D01*
G75*
G02*
X140847000Y30988163I-60000J0D01*
G01*
X140367000Y30988163D01*
G75*
G02*
X140307000Y31048163I0J60000D01*
G01*
X140307000Y31528163D01*
G75*
G02*
X140367000Y31588163I60000J0D01*
G01*
G37*
G04 #@! TD.AperFunction*
G04 #@! TO.P,D2,1,K*
G04 #@! TO.N,Net-(D2-K)*
G04 #@! TA.AperFunction,SMDPad,CuDef*
G36*
G01*
X138167000Y31588163D02*
X138647000Y31588163D01*
G75*
G02*
X138707000Y31528163I0J-60000D01*
G01*
X138707000Y31048163D01*
G75*
G02*
X138647000Y30988163I-60000J0D01*
G01*
X138167000Y30988163D01*
G75*
G02*
X138107000Y31048163I0J60000D01*
G01*
X138107000Y31528163D01*
G75*
G02*
X138167000Y31588163I60000J0D01*
G01*
G37*
G04 #@! TD.AperFunction*
G04 #@! TD*
G04 #@! TO.P,D6,2,K*
G04 #@! TO.N,Net-(D6-K)*
G04 #@! TA.AperFunction,SMDPad,CuDef*
G36*
G01*
X12411979Y84505000D02*
X12411979Y85745000D01*
G75*
G02*
X12541979Y85875000I130000J0D01*
G01*
X13581979Y85875000D01*
G75*
G02*
X13711979Y85745000I0J-130000D01*
G01*
X13711979Y84505000D01*
G75*
G02*
X13581979Y84375000I-130000J0D01*
G01*
X12541979Y84375000D01*
G75*
G02*
X12411979Y84505000I0J130000D01*
G01*
G37*
G04 #@! TD.AperFunction*
G04 #@! TO.P,D6,1,A*
G04 #@! TO.N,+5V*
G04 #@! TA.AperFunction,SMDPad,CuDef*
G36*
G01*
X14312000Y84505000D02*
X14312000Y85745000D01*
G75*
G02*
X14442000Y85875000I130000J0D01*
G01*
X15482000Y85875000D01*
G75*
G02*
X15612000Y85745000I0J-130000D01*
G01*
X15612000Y84505000D01*
G75*
G02*
X15482000Y84375000I-130000J0D01*
G01*
X14442000Y84375000D01*
G75*
G02*
X14312000Y84505000I0J130000D01*
G01*
G37*
G04 #@! TD.AperFunction*
G04 #@! TD*
G04 #@! TO.P,C17,2*
G04 #@! TO.N,Net-(U3A--)*
G04 #@! TA.AperFunction,SMDPad,CuDef*
G36*
G01*
X85634999Y107040000D02*
X85634999Y106360000D01*
G75*
G02*
X85549999Y106275000I-85000J0D01*
G01*
X84869999Y106275000D01*
G75*
G02*
X84784999Y106360000I0J85000D01*
G01*
X84784999Y107040000D01*
G75*
G02*
X84869999Y107125000I85000J0D01*
G01*
X85549999Y107125000D01*
G75*
G02*
X85634999Y107040000I0J-85000D01*
G01*
G37*
G04 #@! TD.AperFunction*
G04 #@! TO.P,C17,1*
G04 #@! TO.N,Net-(C17-Pad1)*
G04 #@! TA.AperFunction,SMDPad,CuDef*
G36*
G01*
X87215001Y107040000D02*
X87215001Y106360000D01*
G75*
G02*
X87130001Y106275000I-85000J0D01*
G01*
X86450001Y106275000D01*
G75*
G02*
X86365001Y106360000I0J85000D01*
G01*
X86365001Y107040000D01*
G75*
G02*
X86450001Y107125000I85000J0D01*
G01*
X87130001Y107125000D01*
G75*
G02*
X87215001Y107040000I0J-85000D01*
G01*
G37*
G04 #@! TD.AperFunction*
G04 #@! TD*
G04 #@! TO.P,D1,2,A*
G04 #@! TO.N,+12V_RAW*
G04 #@! TA.AperFunction,SMDPad,CuDef*
G36*
G01*
X139507000Y27928163D02*
X139507000Y27448163D01*
G75*
G02*
X139447000Y27388163I-60000J0D01*
G01*
X138967000Y27388163D01*
G75*
G02*
X138907000Y27448163I0J60000D01*
G01*
X138907000Y27928163D01*
G75*
G02*
X138967000Y27988163I60000J0D01*
G01*
X139447000Y27988163D01*
G75*
G02*
X139507000Y27928163I0J-60000D01*
G01*
G37*
G04 #@! TD.AperFunction*
G04 #@! TO.P,D1,1,K*
G04 #@! TO.N,Net-(D1-K)*
G04 #@! TA.AperFunction,SMDPad,CuDef*
G36*
G01*
X139507000Y30128163D02*
X139507000Y29648163D01*
G75*
G02*
X139447000Y29588163I-60000J0D01*
G01*
X138967000Y29588163D01*
G75*
G02*
X138907000Y29648163I0J60000D01*
G01*
X138907000Y30128163D01*
G75*
G02*
X138967000Y30188163I60000J0D01*
G01*
X139447000Y30188163D01*
G75*
G02*
X139507000Y30128163I0J-60000D01*
G01*
G37*
G04 #@! TD.AperFunction*
G04 #@! TD*
G04 #@! TO.P,C4,2*
G04 #@! TO.N,Net-(C4-Pad2)*
G04 #@! TA.AperFunction,SMDPad,CuDef*
G36*
G01*
X141867000Y31733161D02*
X142547000Y31733161D01*
G75*
G02*
X142632000Y31648161I0J-85000D01*
G01*
X142632000Y30968161D01*
G75*
G02*
X142547000Y30883161I-85000J0D01*
G01*
X141867000Y30883161D01*
G75*
G02*
X141782000Y30968161I0J85000D01*
G01*
X141782000Y31648161D01*
G75*
G02*
X141867000Y31733161I85000J0D01*
G01*
G37*
G04 #@! TD.AperFunction*
G04 #@! TO.P,C4,1*
G04 #@! TO.N,Net-(U1-VCP)*
G04 #@! TA.AperFunction,SMDPad,CuDef*
G36*
G01*
X141867000Y33313163D02*
X142547000Y33313163D01*
G75*
G02*
X142632000Y33228163I0J-85000D01*
G01*
X142632000Y32548163D01*
G75*
G02*
X142547000Y32463163I-85000J0D01*
G01*
X141867000Y32463163D01*
G75*
G02*
X141782000Y32548163I0J85000D01*
G01*
X141782000Y33228163D01*
G75*
G02*
X141867000Y33313163I85000J0D01*
G01*
G37*
G04 #@! TD.AperFunction*
G04 #@! TD*
D79*
G04 #@! TO.P,J1,6,Shield*
G04 #@! TO.N,Net-(J1-GND)*
X86700000Y103175000D03*
X79400000Y103175000D03*
D80*
G04 #@! TO.P,J1,5,GND*
X84650000Y102300000D03*
G04 #@! TO.P,J1,4,ID*
G04 #@! TO.N,unconnected-(J1-ID-Pad4)*
X83850000Y104050000D03*
G04 #@! TO.P,J1,3,D+*
G04 #@! TO.N,/USBP*
X83050000Y102300000D03*
G04 #@! TO.P,J1,2,D-*
G04 #@! TO.N,/USBM*
X82250000Y104050000D03*
D81*
G04 #@! TO.P,J1,1,VBUS*
G04 #@! TO.N,/VBUS*
X81450000Y102300000D03*
G04 #@! TD*
D52*
G04 #@! TO.P,P11,1,Pin_1*
G04 #@! TO.N,Net-(P11-Pin_1)*
X66144800Y30212600D03*
G04 #@! TD*
G04 #@! TO.P,C1,1*
G04 #@! TO.N,GND*
G04 #@! TA.AperFunction,SMDPad,CuDef*
G36*
G01*
X136094998Y53739000D02*
X136094998Y54419000D01*
G75*
G02*
X136179998Y54504000I85000J0D01*
G01*
X136859998Y54504000D01*
G75*
G02*
X136944998Y54419000I0J-85000D01*
G01*
X136944998Y53739000D01*
G75*
G02*
X136859998Y53654000I-85000J0D01*
G01*
X136179998Y53654000D01*
G75*
G02*
X136094998Y53739000I0J85000D01*
G01*
G37*
G04 #@! TD.AperFunction*
G04 #@! TO.P,C1,2*
G04 #@! TO.N,+12V_RAW*
G04 #@! TA.AperFunction,SMDPad,CuDef*
G36*
G01*
X137675000Y53739000D02*
X137675000Y54419000D01*
G75*
G02*
X137760000Y54504000I85000J0D01*
G01*
X138440000Y54504000D01*
G75*
G02*
X138525000Y54419000I0J-85000D01*
G01*
X138525000Y53739000D01*
G75*
G02*
X138440000Y53654000I-85000J0D01*
G01*
X137760000Y53654000D01*
G75*
G02*
X137675000Y53739000I0J85000D01*
G01*
G37*
G04 #@! TD.AperFunction*
G04 #@! TD*
D70*
G04 #@! TO.P,J5,1,Pin_1*
G04 #@! TO.N,GND*
X17962000Y73125000D03*
G04 #@! TD*
D69*
G04 #@! TO.P,D13,1,K*
G04 #@! TO.N,+12V_RAW*
X95200000Y43125000D03*
G04 #@! TO.P,D13,2,A*
G04 #@! TO.N,/OUT_VVT1_2*
X95200000Y39825000D03*
G04 #@! TD*
G04 #@! TO.P,R23,2*
G04 #@! TO.N,GND*
G04 #@! TA.AperFunction,SMDPad,CuDef*
G36*
G01*
X77499000Y106837200D02*
X76719000Y106837200D01*
G75*
G02*
X76649000Y106907200I0J70000D01*
G01*
X76649000Y107467200D01*
G75*
G02*
X76719000Y107537200I70000J0D01*
G01*
X77499000Y107537200D01*
G75*
G02*
X77569000Y107467200I0J-70000D01*
G01*
X77569000Y106907200D01*
G75*
G02*
X77499000Y106837200I-70000J0D01*
G01*
G37*
G04 #@! TD.AperFunction*
G04 #@! TO.P,R23,1*
G04 #@! TO.N,Net-(J1-GND)*
G04 #@! TA.AperFunction,SMDPad,CuDef*
G36*
G01*
X77499000Y105237200D02*
X76719000Y105237200D01*
G75*
G02*
X76649000Y105307200I0J70000D01*
G01*
X76649000Y105867200D01*
G75*
G02*
X76719000Y105937200I70000J0D01*
G01*
X77499000Y105937200D01*
G75*
G02*
X77569000Y105867200I0J-70000D01*
G01*
X77569000Y105307200D01*
G75*
G02*
X77499000Y105237200I-70000J0D01*
G01*
G37*
G04 #@! TD.AperFunction*
G04 #@! TD*
D52*
G04 #@! TO.P,P43,1,Pin_1*
G04 #@! TO.N,Net-(P43-Pin_1)*
X39000000Y25875000D03*
G04 #@! TD*
D68*
G04 #@! TO.P,R11,1,1*
G04 #@! TO.N,Net-(P1-Pad52)*
X11000000Y31880000D03*
G04 #@! TA.AperFunction,SMDPad,CuDef*
G36*
G01*
X10375000Y31425001D02*
X11625000Y31425001D01*
G75*
G02*
X11725000Y31325001I0J-100000D01*
G01*
X11725000Y30525001D01*
G75*
G02*
X11625000Y30425001I-100000J0D01*
G01*
X10375000Y30425001D01*
G75*
G02*
X10275000Y30525001I0J100000D01*
G01*
X10275000Y31325001D01*
G75*
G02*
X10375000Y31425001I100000J0D01*
G01*
G37*
G04 #@! TD.AperFunction*
G04 #@! TO.P,R11,2,2*
G04 #@! TO.N,/LSU_PUMP_I*
G04 #@! TA.AperFunction,SMDPad,CuDef*
G36*
G01*
X10375000Y29524979D02*
X11625000Y29524979D01*
G75*
G02*
X11725000Y29424979I0J-100000D01*
G01*
X11725000Y28624979D01*
G75*
G02*
X11625000Y28524979I-100000J0D01*
G01*
X10375000Y28524979D01*
G75*
G02*
X10275000Y28624979I0J100000D01*
G01*
X10275000Y29424979D01*
G75*
G02*
X10375000Y29524979I100000J0D01*
G01*
G37*
G04 #@! TD.AperFunction*
X11000000Y28070000D03*
G04 #@! TD*
D82*
G04 #@! TO.N,+5V*
X32300000Y70100000D03*
G04 #@! TO.N,/IN_D1*
X69966725Y42558680D03*
G04 #@! TO.N,+5V*
X92748815Y61651215D03*
X25267600Y85279800D03*
G04 #@! TO.N,+3V3*
X20103400Y79125000D03*
X59125800Y105752200D03*
X59151200Y101866000D03*
X66225000Y96775000D03*
D83*
G04 #@! TO.N,GND*
X2600000Y30750000D03*
D82*
X25570000Y67065600D03*
X133762000Y28275000D03*
X56100000Y106300000D03*
D83*
X2600000Y21350000D03*
D82*
X115600000Y22575000D03*
X16750903Y27360103D03*
D83*
X2600000Y85725000D03*
D82*
X38200000Y63975000D03*
X43700000Y96675000D03*
X153112000Y36379000D03*
X106300000Y37475000D03*
X80975000Y48600000D03*
X95964600Y32286600D03*
X115465600Y26811600D03*
X130000000Y23575000D03*
X86500000Y87175000D03*
X124400000Y87300000D03*
D83*
X2600000Y72150000D03*
D82*
X95939800Y23211600D03*
X131744400Y43471400D03*
X144662000Y54629000D03*
X135012000Y60379000D03*
X65900000Y58775000D03*
D83*
X2600000Y96600000D03*
D82*
X51800000Y96975000D03*
X141500000Y59075000D03*
X28400000Y5975000D03*
X135112000Y56229000D03*
X133712000Y25175000D03*
X145162500Y33895600D03*
D83*
X114400000Y114950000D03*
D82*
X7386000Y80911000D03*
X134412000Y54029000D03*
D83*
X2750000Y14525000D03*
X103875000Y115000000D03*
D82*
X95300000Y86675000D03*
X24700000Y15275000D03*
X77425000Y98800000D03*
D83*
X160900000Y32225000D03*
D82*
X128050500Y94875000D03*
X28400000Y24725000D03*
D83*
X2600000Y40775000D03*
D82*
X136500000Y1575000D03*
X134012000Y33674500D03*
X134062000Y36779000D03*
D83*
X160900000Y42250000D03*
D82*
X152597800Y43623800D03*
X90200000Y99775000D03*
X86300000Y60075000D03*
X55798400Y103898000D03*
X32473500Y46544800D03*
X125200000Y100075000D03*
X50235800Y105549000D03*
X124500000Y49275000D03*
X89900000Y86475000D03*
X30500000Y66763200D03*
D83*
X26825000Y114975000D03*
D82*
X126100000Y42775000D03*
D83*
X70950000Y114975000D03*
D82*
X85500000Y99075000D03*
D83*
X48875000Y114975000D03*
X148025000Y115000000D03*
D82*
X135062000Y58329000D03*
X70600000Y51300000D03*
D83*
X160900000Y87200000D03*
D82*
X133762000Y27025000D03*
X111526000Y43552000D03*
D83*
X125950000Y115000000D03*
X160900000Y52775000D03*
D82*
X13200000Y47375000D03*
X7386000Y83451000D03*
X11704000Y74561000D03*
D83*
X160900000Y14850000D03*
D82*
X152800000Y54875000D03*
X148100000Y2575000D03*
X141200000Y85375000D03*
D83*
X160900000Y98075000D03*
D82*
X87300000Y98475000D03*
X38120000Y72783000D03*
D83*
X160900000Y62675000D03*
D82*
X7133000Y92850000D03*
X123799898Y57472498D03*
X48600000Y96675000D03*
X82300000Y45975000D03*
X132963600Y43471400D03*
X20100000Y21275000D03*
D83*
X15950000Y114975000D03*
D82*
X153867800Y43496800D03*
X26700000Y24725000D03*
X13300000Y38875000D03*
D83*
X60675000Y114975000D03*
D82*
X30100000Y1175000D03*
X152662000Y50529000D03*
X115412200Y36359400D03*
X91400000Y88275000D03*
X73603800Y106006200D03*
X86400000Y63975000D03*
X116254475Y43528671D03*
X18308000Y75069000D03*
X27220000Y26202800D03*
X125100000Y70375000D03*
D83*
X2600000Y51300000D03*
X160900000Y22825000D03*
D82*
X39150000Y101675000D03*
D83*
X81825000Y115000000D03*
X136475000Y114950000D03*
X92450000Y115000000D03*
D82*
X29966600Y97776600D03*
X94475000Y60300000D03*
X134123363Y50092163D03*
X37866000Y67703000D03*
X89000000Y64475000D03*
X92800000Y63975000D03*
X76000000Y58774503D03*
X109774994Y87564206D03*
D83*
X2600000Y61200000D03*
X37450000Y114975000D03*
D82*
X7143000Y95400000D03*
X94457200Y50812000D03*
D83*
X160900000Y73625000D03*
D82*
X123881300Y65812500D03*
X36473000Y62675000D03*
X36546989Y73075000D03*
X27550000Y24725000D03*
G04 #@! TO.N,unconnected-(M3-SWDIO-PadN7)*
X76400000Y101700000D03*
G04 #@! TO.N,/USBP*
X78850000Y99900000D03*
G04 #@! TO.N,Net-(F1-Pad1)*
X36640500Y24575000D03*
G04 #@! TO.N,/IN_VIGN*
X34355282Y78930282D03*
G04 #@! TO.N,/CAN-*
X38253011Y96880954D03*
X31350000Y75600000D03*
G04 #@! TO.N,/OUT_IGN8*
X34500000Y82675000D03*
G04 #@! TO.N,GNDA*
X58200000Y20325000D03*
G04 #@! TO.N,/VIGN*
X77540800Y46875000D03*
X71571800Y58101800D03*
G04 #@! TO.N,/VBAT*
X87800000Y89100000D03*
X96514600Y89953400D03*
X87750000Y60975000D03*
X67400000Y96720877D03*
G04 #@! TO.N,/OUT_IDLE*
X108250000Y42250000D03*
X107250000Y43250000D03*
X107750000Y42750000D03*
X122270200Y12102400D03*
G04 #@! TO.N,/FUEL_CONSUM*
X87050000Y71500000D03*
X87200000Y76700000D03*
G04 #@! TO.N,Net-(D2-K)*
X138887500Y32288163D03*
X141307000Y55792163D03*
G04 #@! TO.N,/IN_VSS*
X65122115Y39855108D03*
G04 #@! TO.N,/IN_KNOCK1*
X63500000Y40275000D03*
G04 #@! TO.N,/IN_AFR*
X62281004Y38254300D03*
G04 #@! TO.N,/IN_TPS1*
X74322437Y35977174D03*
G04 #@! TO.N,/IN_MAF*
X60853000Y20408200D03*
X60414493Y38254300D03*
G04 #@! TO.N,/IN_MAP2*
X94279400Y15480600D03*
X77001234Y36362856D03*
G04 #@! TO.N,/VREF2*
X59125000Y40198941D03*
G04 #@! TO.N,/IN_CLT*
X56821528Y39646633D03*
X76435900Y35797522D03*
G04 #@! TO.N,/IN_IAT*
X55874500Y39648941D03*
X62026500Y35174500D03*
G04 #@! TO.N,/IN_TPS2*
X75381800Y34774500D03*
G04 #@! TO.N,/IN_PPS2*
X59200000Y33975500D03*
X59925000Y20150000D03*
G04 #@! TO.N,/IN_CAM2*
X60934540Y33875000D03*
G04 #@! TO.N,/IN_RES1*
X46500000Y34874500D03*
G04 #@! TO.N,/IN_PPS1*
X38050000Y14625000D03*
X45700000Y35475000D03*
G04 #@! TO.N,/IN_RES2*
X43200000Y34874500D03*
G04 #@! TO.N,/IN_KNOCK1_RAW*
X37400000Y43377000D03*
G04 #@! TO.N,/OUT_VVT2_B1*
X119300000Y42275000D03*
X119300000Y41375000D03*
X119300000Y43075000D03*
G04 #@! TO.N,/OUT_FUEL_CONSUM*
X86800000Y2988500D03*
X109000000Y42925500D03*
X118138032Y3050468D03*
G04 #@! TO.N,/OUT_VVT1_1*
X101071545Y42217900D03*
G04 #@! TO.N,/OUT_INJ6*
X96260600Y38340600D03*
X95600200Y38315200D03*
G04 #@! TO.N,/OUT_INJ2*
X98826000Y41185400D03*
X98826000Y41896600D03*
G04 #@! TO.N,/OUT_INJ3*
X96971800Y40931400D03*
X96971800Y40169400D03*
G04 #@! TO.N,/OUT_INJ1*
X96299502Y39475000D03*
X95828800Y40880600D03*
G04 #@! TO.N,/OUT_VVT1_2*
X107258800Y13601000D03*
X109773400Y13601000D03*
X108401800Y13601000D03*
X94600000Y38575000D03*
X94558800Y40956800D03*
G04 #@! TO.N,/OUT_TACH*
X62732600Y32219200D03*
X62841872Y29877628D03*
G04 #@! TO.N,/OUT_INJ4*
X90700000Y41675000D03*
X90700000Y42275000D03*
G04 #@! TO.N,/OUT_INJ5*
X88285000Y41236200D03*
X88285000Y40372600D03*
G04 #@! TO.N,/OUT_INJ7*
X52275000Y24725000D03*
G04 #@! TO.N,/VR_ANALOG*
X70682800Y58213500D03*
G04 #@! TO.N,/VVT1_2*
X89974000Y76079000D03*
X90102033Y74247489D03*
G04 #@! TO.N,/VVT1_1*
X89374500Y74579000D03*
X89374500Y82725000D03*
G04 #@! TO.N,/TACH*
X86650000Y75500000D03*
X86227600Y71436800D03*
G04 #@! TO.N,Net-(P1-Pad37)*
X53986500Y20775000D03*
G04 #@! TO.N,Net-(P41-Pin_1)*
X44550000Y20275000D03*
G04 #@! TO.N,/CAN+*
X29103000Y75526200D03*
X39075000Y96640500D03*
G04 #@! TO.N,/V12_PERM*
X40329800Y34505200D03*
G04 #@! TO.N,/OUT_IGN7*
X33700000Y82675000D03*
X78929686Y5193137D03*
G04 #@! TO.N,/OUT_IGN6*
X112600000Y8275000D03*
X32600000Y82675000D03*
G04 #@! TO.N,/OUT_IGN5*
X31500000Y82675000D03*
G04 #@! TO.N,/OUT_IGN4*
X30700000Y82675000D03*
X114723911Y5451089D03*
G04 #@! TO.N,/OUT_IGN3*
X29800000Y82675000D03*
X115500000Y5775000D03*
G04 #@! TO.N,/OUT_IGN2*
X89000000Y3442020D03*
X28650000Y82675000D03*
G04 #@! TO.N,/OUT_IGN1*
X116234859Y5460061D03*
X27500000Y82675000D03*
D84*
G04 #@! TO.N,+12V_RAW*
X147162000Y35092163D03*
D82*
X138162000Y55179000D03*
X136762000Y30375000D03*
X128874200Y99884800D03*
D84*
X147142000Y52792163D03*
D82*
X127223200Y85254400D03*
D84*
X140887000Y32388163D03*
X140887000Y33188163D03*
X147162000Y34192163D03*
X140887000Y52592163D03*
X140887000Y53392163D03*
D82*
X136762000Y28275000D03*
D84*
X147142000Y51892163D03*
D82*
X138162000Y59379000D03*
X138162000Y57279000D03*
X136762000Y26175000D03*
X143116999Y54302162D03*
X143131500Y34192163D03*
G04 #@! TO.N,/ETB_EN*
X93060500Y80779000D03*
G04 #@! TO.N,/IN_D4*
X66522006Y40289682D03*
G04 #@! TO.N,/IN_D3*
X67115861Y39675000D03*
G04 #@! TO.N,/IN_D2*
X67721006Y40249370D03*
G04 #@! TO.N,/IN_D1*
X68400000Y39675000D03*
G04 #@! TO.N,Net-(P1-Pad51)*
X68760154Y3725602D03*
G04 #@! TO.N,Net-(P1-Pad52)*
X63500000Y3416960D03*
G04 #@! TO.N,Net-(P1-Pad70)*
X67600000Y4275000D03*
G04 #@! TO.N,Net-(P1-Pad71)*
X64900000Y3416960D03*
G04 #@! TO.N,/IN_CRANK+*
X116098000Y12483400D03*
G04 #@! TO.N,/+ETB*
X92461000Y80079000D03*
X144907000Y35092163D03*
X143607000Y51792163D03*
G04 #@! TO.N,/-ETB*
X144662000Y51792163D03*
X143888314Y35192152D03*
X91861500Y79379000D03*
G04 #@! TO.N,GND*
X36508941Y63473694D03*
G04 #@! TO.N,/OUT_WASTEGATE*
X104033000Y38213600D03*
X92044200Y38137400D03*
G04 #@! TO.N,/FUEL_PUMP_RELAY*
X86650000Y81900000D03*
X86354600Y84086000D03*
G04 #@! TO.N,/OUT_FUEL_PUMP_RELAY*
X104947400Y37654800D03*
X91968000Y12483400D03*
X94609600Y36486400D03*
G04 #@! TO.N,/OUT_CHECK_ENGINE*
X77591600Y23608600D03*
G04 #@! TO.N,/IDLE*
X88488200Y73545000D03*
X88488200Y83975873D03*
G04 #@! TO.N,/THRESHOLD_VR*
X91841000Y76999400D03*
X91764800Y60438600D03*
G04 #@! TO.N,unconnected-(M3-SWCLK-PadN8)*
X75026200Y102577200D03*
G04 #@! TO.N,unconnected-(M3-SWDIO-PadN7)*
X76125500Y99100000D03*
G04 #@! TO.N,Net-(M6C-OUT_LOW8_PULLUP)*
X102681783Y42155617D03*
G04 #@! TO.N,+5VP*
X76900000Y8775000D03*
X75700500Y8775000D03*
G04 #@! TD*
D85*
G04 #@! TO.N,+5V*
X94100000Y53675000D02*
X93837113Y53412113D01*
X94100000Y58775000D02*
X94100000Y53675000D01*
X92730000Y61632400D02*
X92748815Y61651215D01*
D86*
X106075001Y91949999D02*
X90024999Y91949999D01*
D87*
X32600000Y70100000D02*
X33275000Y70775000D01*
D85*
X92730000Y60145000D02*
X92730000Y61632400D01*
X92730000Y60145000D02*
X94100000Y58775000D01*
D86*
X14962000Y85125000D02*
X17962000Y85125000D01*
D87*
X33275000Y70775000D02*
X33995000Y70775000D01*
X34009999Y70789999D02*
X33995000Y70775000D01*
D86*
X25267600Y85279800D02*
X25266800Y85279000D01*
D87*
X32300000Y70100000D02*
X32600000Y70100000D01*
D86*
X25266800Y85279000D02*
X18116000Y85279000D01*
D85*
X93837113Y53412113D02*
X93090985Y53412113D01*
D87*
X34009999Y73100000D02*
X34009999Y70789999D01*
D86*
X18116000Y85279000D02*
X17962000Y85125000D01*
D87*
X139820000Y102060000D02*
X144900000Y102060000D01*
D88*
G04 #@! TO.N,+12V*
X128850009Y96725009D02*
X127107501Y96725009D01*
D89*
X139820000Y104600000D02*
X144900000Y104600000D01*
X91915984Y58839616D02*
X91915984Y57912112D01*
X128900000Y92117000D02*
X128033480Y91250480D01*
X136174982Y104600000D02*
X139820000Y104600000D01*
X90901544Y85876544D02*
X90901544Y72859544D01*
X128900000Y96775000D02*
X128900000Y92117000D01*
X128900000Y97325018D02*
X136174982Y104600000D01*
X90901544Y72859544D02*
X90600000Y72558000D01*
X128033480Y91250480D02*
X96275480Y91250480D01*
X128900000Y96775000D02*
X128900000Y97325018D01*
X90600000Y60155600D02*
X91915984Y58839616D01*
X96275480Y91250480D02*
X90901544Y85876544D01*
X90600000Y72558000D02*
X90600000Y60155600D01*
D88*
X128900000Y96775000D02*
X128850009Y96725009D01*
D86*
G04 #@! TO.N,+3V3*
X55375000Y107100000D02*
X56900000Y107100000D01*
X54700000Y106425000D02*
X55375000Y107100000D01*
D88*
X58260200Y100975000D02*
X54678800Y100975000D01*
D87*
X61462000Y101800000D02*
X59217200Y101800000D01*
D88*
X53461600Y97522600D02*
X54209200Y96775000D01*
X59151200Y101866000D02*
X58260200Y100975000D01*
X53461600Y99757800D02*
X53461600Y97522600D01*
D86*
X53624986Y101940001D02*
X54100000Y102415015D01*
D87*
X56900000Y107100000D02*
X57778000Y107100000D01*
D86*
X53465001Y104909999D02*
X53475000Y104900000D01*
X51700000Y104909999D02*
X53465001Y104909999D01*
X14962000Y79125000D02*
X17962000Y79125000D01*
D88*
X54678800Y100975000D02*
X53461600Y99757800D01*
D87*
X57778000Y107100000D02*
X59125800Y105752200D01*
D86*
X53475000Y104900000D02*
X53775000Y104900000D01*
X54700000Y106139738D02*
X54700000Y106425000D01*
X54100000Y102415015D02*
X54100000Y104575000D01*
X53775000Y104900000D02*
X54100000Y104575000D01*
X54100000Y104575000D02*
X54100000Y105539738D01*
D87*
X59217200Y101800000D02*
X59151200Y101866000D01*
X17962000Y79125000D02*
X20103400Y79125000D01*
D86*
X54100000Y105539738D02*
X54700000Y106139738D01*
D88*
X54209200Y96775000D02*
X66225000Y96775000D01*
D87*
G04 #@! TO.N,GND*
X136262000Y60387800D02*
X135020800Y60387800D01*
D90*
X25570000Y67669998D02*
X26050002Y68150000D01*
D88*
X37805000Y65825000D02*
X37805000Y67642000D01*
D87*
X135020800Y60387800D02*
X135012000Y60379000D01*
D90*
X96609400Y23211600D02*
X95939800Y23211600D01*
D87*
X135112000Y58279000D02*
X135062000Y58329000D01*
X135281998Y33293002D02*
X135281998Y33175000D01*
X134862000Y25075000D02*
X133812000Y25075000D01*
D86*
X36473000Y62675000D02*
X36237524Y62439524D01*
D87*
X148422000Y50092163D02*
X152225163Y50092163D01*
D88*
X51176801Y106490001D02*
X50235800Y105549000D01*
D90*
X70162499Y51191386D02*
X70491386Y51191386D01*
X94457200Y50812000D02*
X94457200Y46830299D01*
D87*
X141500000Y60225000D02*
X141650000Y60375000D01*
D86*
X128000508Y94825008D02*
X128050500Y94875000D01*
D88*
X77109000Y107187200D02*
X74784800Y107187200D01*
D90*
X39737499Y101394163D02*
X39430837Y101394163D01*
D88*
X53475000Y106100000D02*
X53084999Y106490001D01*
D87*
X144697001Y54593999D02*
X144662000Y54629000D01*
X133812000Y25075000D02*
X133712000Y25175000D01*
X134119000Y29275000D02*
X133762000Y28918000D01*
D88*
X17962000Y73125000D02*
X17962000Y74723000D01*
D87*
X134600000Y63400000D02*
X134600000Y60791000D01*
D90*
X17570000Y27030000D02*
X17081006Y27030000D01*
X31970000Y46530000D02*
X32470600Y46530000D01*
D87*
X148203600Y48272000D02*
X148422000Y48490400D01*
D88*
X8262000Y95400000D02*
X7143000Y95400000D01*
D90*
X39430837Y101394163D02*
X39150000Y101675000D01*
D87*
X133912000Y27175000D02*
X133762000Y27025000D01*
X134012000Y32225000D02*
X134862000Y31375000D01*
X136992000Y36892163D02*
X134175163Y36892163D01*
D90*
X70491386Y51191386D02*
X70600000Y51300000D01*
D88*
X53475000Y105500000D02*
X53475000Y106100000D01*
D90*
X111526000Y43552000D02*
X111526000Y43846502D01*
D88*
X8262000Y80850000D02*
X7447000Y80850000D01*
D86*
X36237524Y62439524D02*
X36237524Y61926574D01*
D87*
X144697001Y53592163D02*
X144697001Y54593999D01*
X145882000Y34615100D02*
X145162500Y33895600D01*
D88*
X71625000Y106000000D02*
X73597600Y106000000D01*
D87*
X135162000Y56179000D02*
X135112000Y56229000D01*
D88*
X55900000Y106100000D02*
X56100000Y106300000D01*
D87*
X134600000Y60791000D02*
X135012000Y60379000D01*
D90*
X109774994Y86847510D02*
X109774994Y87564206D01*
D88*
X35615001Y73075000D02*
X35590001Y73100000D01*
G04 #@! TO.N,unconnected-(M3-SWO-PadN6)*
X77200000Y100009999D02*
X77200000Y99025000D01*
G04 #@! TO.N,GND*
X7447000Y80850000D02*
X7386000Y80911000D01*
D87*
X145866800Y48551400D02*
X146146200Y48272000D01*
D88*
X8262000Y83400000D02*
X7437000Y83400000D01*
D90*
X123149984Y57472498D02*
X123799898Y57472498D01*
X80715988Y48859012D02*
X80975000Y48600000D01*
D87*
X145866800Y48947941D02*
X145866800Y48551400D01*
D88*
X37805000Y70775000D02*
X37805000Y72468000D01*
X55325000Y106100000D02*
X55900000Y106100000D01*
D87*
X148422000Y36892163D02*
X152598837Y36892163D01*
D88*
X8262000Y92850000D02*
X7133000Y92850000D01*
X7437000Y83400000D02*
X7386000Y83451000D01*
G04 #@! TO.N,unconnected-(M3-SWO-PadN6)*
X77200000Y99025000D02*
X77425000Y98800000D01*
D90*
G04 #@! TO.N,GND*
X30004887Y97738313D02*
X29966600Y97776600D01*
X114559400Y26811600D02*
X115465600Y26811600D01*
D87*
X152225163Y50092163D02*
X152662000Y50529000D01*
X134462000Y54079000D02*
X134412000Y54029000D01*
D88*
X53084999Y106490001D02*
X51700000Y106490001D01*
D87*
X145882000Y48963141D02*
X145866800Y48947941D01*
X145882000Y50092163D02*
X145882000Y48963141D01*
D88*
X73597600Y106000000D02*
X73603800Y106006200D01*
D90*
X94884873Y60709873D02*
X94475000Y60300000D01*
X94992699Y51347499D02*
X94457200Y50812000D01*
D87*
X141500000Y59075000D02*
X141500000Y58175000D01*
D90*
X32470600Y46530000D02*
X32470600Y46541900D01*
X115314400Y36261600D02*
X115412200Y36359400D01*
D87*
X136992000Y50092163D02*
X134123363Y50092163D01*
D88*
X37805000Y72468000D02*
X38120000Y72783000D01*
X55325000Y104371400D02*
X55798400Y103898000D01*
D87*
X136519998Y54079000D02*
X134462000Y54079000D01*
X133762000Y28918000D02*
X133762000Y28275000D01*
D90*
X94457200Y46830299D02*
X95249999Y46037500D01*
X25570000Y67065600D02*
X25570000Y67669998D01*
D87*
X152598837Y36892163D02*
X153112000Y36379000D01*
D90*
X25570000Y66030000D02*
X25570000Y67065600D01*
D87*
X134175163Y36892163D02*
X134062000Y36779000D01*
X134862000Y29275000D02*
X134119000Y29275000D01*
D88*
X55325000Y104900000D02*
X55325000Y104371400D01*
X17962000Y74723000D02*
X18308000Y75069000D01*
D87*
X146146200Y48272000D02*
X148203600Y48272000D01*
X134862000Y27175000D02*
X133912000Y27175000D01*
D90*
X32470600Y46541900D02*
X32473500Y46544800D01*
D88*
X36546989Y73075000D02*
X35615001Y73075000D01*
D90*
X96609400Y32286600D02*
X95964600Y32286600D01*
X80715988Y49137113D02*
X80715988Y48859012D01*
D87*
X148422000Y48490400D02*
X148422000Y50092163D01*
D90*
X95400014Y51347499D02*
X94992699Y51347499D01*
D87*
X136262000Y58279000D02*
X135112000Y58279000D01*
D90*
X95401551Y60709873D02*
X94884873Y60709873D01*
X30620000Y27030000D02*
X30620000Y26040000D01*
D87*
X141500000Y59075000D02*
X141500000Y60225000D01*
D90*
X111526000Y43846502D02*
X111100003Y44272499D01*
D87*
X134012000Y33674500D02*
X134012000Y32225000D01*
X136262000Y56179000D02*
X135162000Y56179000D01*
D88*
X51700000Y106490001D02*
X51176801Y106490001D01*
X37805000Y67642000D02*
X37866000Y67703000D01*
X74784800Y107187200D02*
X73603800Y106006200D01*
D87*
X134012000Y33674500D02*
X134900500Y33674500D01*
D90*
X17081006Y27030000D02*
X16750903Y27360103D01*
X114559400Y36261600D02*
X115314400Y36261600D01*
X30004887Y97189200D02*
X30004887Y97738313D01*
D87*
X134900500Y33674500D02*
X135281998Y33293002D01*
D86*
X127107496Y94825008D02*
X128000508Y94825008D01*
D87*
X145882000Y36892163D02*
X145882000Y34615100D01*
D90*
G04 #@! TO.N,unconnected-(M3-SWDIO-PadN7)*
X76509999Y101590001D02*
X76400000Y101700000D01*
X77200000Y101590001D02*
X76509999Y101590001D01*
X76300001Y101799999D02*
X71625000Y101799999D01*
X76400000Y101700000D02*
X76300001Y101799999D01*
G04 #@! TO.N,/USBP*
X78850000Y99900000D02*
X78074200Y100675800D01*
X78074200Y102221600D02*
X75864400Y104431400D01*
X75864400Y104431400D02*
X63030601Y104431400D01*
X78074200Y100675800D02*
X78074200Y102221600D01*
X63030601Y104431400D02*
X61462000Y106000001D01*
D91*
G04 #@! TO.N,Net-(F1-Pad1)*
X28648000Y12822000D02*
X28648000Y9776343D01*
X124075000Y7023800D02*
X124075000Y26775000D01*
D86*
X31197000Y12822000D02*
X28648000Y12822000D01*
X36813000Y18438000D02*
X31197000Y12822000D01*
D91*
X36824343Y1600000D02*
X118651200Y1600000D01*
D86*
X36813000Y24402500D02*
X36813000Y18438000D01*
D91*
X118651200Y1600000D02*
X124075000Y7023800D01*
D86*
X36640500Y24575000D02*
X36813000Y24402500D01*
D91*
X28648000Y9776343D02*
X36824343Y1600000D01*
G04 #@! TO.N,Net-(F2-Pad1)*
X138448000Y18622000D02*
X135484400Y15658400D01*
X126975000Y24161600D02*
X126975000Y26775000D01*
X129407600Y21729000D02*
X126975000Y24161600D01*
X135484400Y15658400D02*
X131363400Y15658400D01*
X129407600Y17614200D02*
X129407600Y21729000D01*
X131363400Y15658400D02*
X129407600Y17614200D01*
D86*
G04 #@! TO.N,/IN_VIGN*
X34355282Y78930282D02*
X32525000Y77100000D01*
X14056000Y94119000D02*
X15062000Y95125000D01*
X8987200Y77100000D02*
X6446200Y79641000D01*
X6446200Y79641000D02*
X6446200Y93382400D01*
D90*
X14962000Y97125000D02*
X14962000Y95225000D01*
D86*
X6446200Y93382400D02*
X7182800Y94119000D01*
X32525000Y77100000D02*
X8987200Y77100000D01*
X7182800Y94119000D02*
X14056000Y94119000D01*
D90*
X14962000Y95225000D02*
X15062000Y95125000D01*
G04 #@! TO.N,/CAN-*
X31350000Y75600000D02*
X31030000Y75280000D01*
X38253011Y96880954D02*
X38622057Y97250000D01*
X40125000Y97250000D02*
X40187501Y97312501D01*
X31030000Y75280000D02*
X31030000Y74994999D01*
X38622057Y97250000D02*
X40125000Y97250000D01*
X31030000Y74994999D02*
X31075001Y74949998D01*
X40187501Y97312501D02*
X40187501Y97581664D01*
X31075001Y74949998D02*
X31075001Y74699999D01*
G04 #@! TO.N,/OUT_IGN8*
X34517335Y82692335D02*
X34517335Y83814583D01*
X34500000Y82675000D02*
X34517335Y82692335D01*
D86*
G04 #@! TO.N,GNDA*
X65200000Y40818999D02*
X63716301Y39335300D01*
X59192748Y39335300D02*
X58441398Y38583950D01*
X58441398Y20566398D02*
X58200000Y20325000D01*
D90*
X66687512Y42412804D02*
X66687512Y41748925D01*
X53982503Y42412809D02*
X53982503Y41748930D01*
D86*
X63716301Y39335300D02*
X59192748Y39335300D01*
D90*
X55657503Y42412809D02*
X55657503Y41748930D01*
X45607516Y42412820D02*
X45607516Y41748941D01*
X46482515Y42412820D02*
X46482515Y41748941D01*
X50157504Y42412809D02*
X50157504Y41748930D01*
D86*
X58441398Y38575000D02*
X58441398Y20566398D01*
D90*
X54782501Y42412809D02*
X54782501Y41748930D01*
X63732498Y42366425D02*
X63732498Y41702546D01*
X53107501Y42412809D02*
X53107501Y41748930D01*
X48157544Y42412809D02*
X48157544Y41748930D01*
D86*
X65200000Y41673941D02*
X65200000Y40818999D01*
D90*
G04 #@! TO.N,/VIGN*
X77540800Y45833600D02*
X76934722Y45227522D01*
X70562019Y57092019D02*
X71571800Y58101800D01*
X76934722Y45227522D02*
X71747478Y45227522D01*
X71747478Y45227522D02*
X71312477Y45662523D01*
X71312477Y51462523D02*
X70562019Y52212981D01*
X71312477Y45662523D02*
X71312477Y51462523D01*
X77540800Y46875000D02*
X77540800Y45833600D01*
X70562019Y52212981D02*
X70562019Y57092019D01*
G04 #@! TO.N,/VBAT*
X129353400Y89953400D02*
X130550000Y91150000D01*
X84783795Y97250491D02*
X86524980Y95509306D01*
X86524980Y91259307D02*
X87800000Y89984287D01*
X96514600Y89953400D02*
X129353400Y89953400D01*
X87800000Y61025000D02*
X87750000Y60975000D01*
X87800000Y89984287D02*
X87800000Y89100000D01*
X86524980Y95509306D02*
X86524980Y91259307D01*
X67929614Y97250491D02*
X84783795Y97250491D01*
X67400000Y96720877D02*
X67929614Y97250491D01*
X130550000Y93350000D02*
X132300000Y95100000D01*
X87800000Y89100000D02*
X87800000Y61025000D01*
X130550000Y91150000D02*
X130550000Y93350000D01*
D87*
G04 #@! TO.N,/OUT_IDLE*
X108324000Y42176000D02*
X108250000Y42250000D01*
X109816400Y42176000D02*
X108324000Y42176000D01*
D89*
X107250000Y43250000D02*
X107750000Y42750000D01*
X107750000Y42750000D02*
X108250000Y42250000D01*
D90*
G04 #@! TO.N,/FUEL_CONSUM*
X87250000Y76700000D02*
X87250000Y71700000D01*
X87250000Y71700000D02*
X87050000Y71500000D01*
G04 #@! TO.N,/IN_CAM1*
X98272480Y7506130D02*
X100095529Y5683081D01*
X91028200Y14769400D02*
X98272480Y7525120D01*
X100095529Y5683081D02*
X109489081Y5683081D01*
X71902400Y37375000D02*
X75727400Y33550000D01*
X75727400Y33550000D02*
X87284400Y33550000D01*
X91028200Y29806200D02*
X91028200Y14769400D01*
X68000000Y37375000D02*
X71902400Y37375000D01*
X87284400Y33550000D02*
X91028200Y29806200D01*
X109489081Y5683081D02*
X111298000Y7492000D01*
X98272480Y7525120D02*
X98272480Y7506130D01*
G04 #@! TO.N,Net-(BT1-+)*
X134500000Y92800000D02*
X134600000Y92700000D01*
X134500000Y95100000D02*
X134500000Y92800000D01*
G04 #@! TO.N,Net-(D2-K)*
X138407000Y31807663D02*
X138887500Y32288163D01*
X138407000Y31288163D02*
X138407000Y31807663D01*
X141307000Y55792163D02*
X141307000Y54802162D01*
X141586520Y54502644D02*
X141297001Y54792163D01*
X141307000Y54802162D02*
X141297001Y54792163D01*
X140802000Y50092163D02*
X140802000Y51187163D01*
X140802000Y51187163D02*
X141586520Y51971683D01*
X141586520Y51971683D02*
X141586520Y54502644D01*
D86*
G04 #@! TO.N,Net-(D5-A)*
X9862000Y92850000D02*
X12587000Y92850000D01*
X12587000Y92850000D02*
X12862000Y93125000D01*
X12862000Y93125000D02*
X12862000Y91324979D01*
X12862000Y91324979D02*
X13061979Y91125000D01*
G04 #@! TO.N,/IN_VSS*
X60980000Y11315000D02*
X60980000Y19087400D01*
X60980000Y19087400D02*
X61589600Y19697000D01*
X61589600Y19697000D02*
X61589600Y22872000D01*
X60308040Y37183040D02*
X62006300Y38881300D01*
X60308040Y24153560D02*
X60308040Y37183040D01*
X59768000Y10032000D02*
X59768000Y10103000D01*
X59768000Y10103000D02*
X60980000Y11315000D01*
X61589600Y22872000D02*
X60308040Y24153560D01*
X64148307Y38881300D02*
X65122115Y39855108D01*
X62006300Y38881300D02*
X64148307Y38881300D01*
G04 #@! TO.N,/IN_KNOCK1*
X38400000Y62575000D02*
X38662000Y62313000D01*
X36937525Y61926574D02*
X36937525Y62212525D01*
X37178000Y65182000D02*
X37178000Y62697000D01*
X37178000Y62697000D02*
X37300000Y62575000D01*
X36535000Y65825000D02*
X37178000Y65182000D01*
X38662000Y42927941D02*
X40616000Y40973941D01*
X37178500Y62453500D02*
X37178500Y64110288D01*
X62801059Y40973941D02*
X63500000Y40275000D01*
X37300000Y62575000D02*
X38400000Y62575000D01*
X40616000Y40973941D02*
X62801059Y40973941D01*
X36937525Y62212525D02*
X37178500Y62453500D01*
X38662000Y62313000D02*
X38662000Y42927941D01*
G04 #@! TO.N,/IN_AFR*
X61399500Y34296752D02*
X61561540Y34134712D01*
X61561540Y27838460D02*
X63775000Y25625000D01*
X61399500Y37474500D02*
X61399500Y34296752D01*
X64848000Y18622000D02*
X64848000Y24552000D01*
X64848000Y24552000D02*
X63775000Y25625000D01*
X62179300Y38254300D02*
X61399500Y37474500D01*
X61561540Y34134712D02*
X61561540Y27838460D01*
X62281004Y38254300D02*
X62179300Y38254300D01*
D90*
G04 #@! TO.N,/IN_TPS1*
X76502540Y34883060D02*
X87157720Y34883060D01*
X105485983Y10032000D02*
X106218000Y10032000D01*
X96302609Y11577791D02*
X103940191Y11577791D01*
X74322437Y35977174D02*
X75408426Y35977174D01*
X75408426Y35977174D02*
X76502540Y34883060D01*
X103940191Y11577791D02*
X105485983Y10032000D01*
X87157720Y34883060D02*
X91881240Y30159540D01*
X91881240Y30159540D02*
X91881240Y15999160D01*
X91881240Y15999160D02*
X96302609Y11577791D01*
D86*
G04 #@! TO.N,/IN_MAF*
X59854040Y21407160D02*
X60853000Y20408200D01*
X60414493Y38254300D02*
X59854040Y37693847D01*
X59854040Y37693847D02*
X59854040Y21407160D01*
D90*
G04 #@! TO.N,/IN_MAP2*
X92748519Y16655881D02*
X93923800Y15480600D01*
X92748519Y30422273D02*
X92748519Y16655881D01*
X77001234Y36362856D02*
X77232544Y36362856D01*
X93923800Y15480600D02*
X94279400Y15480600D01*
X87487692Y35683100D02*
X92748519Y30422273D01*
X77912300Y35683100D02*
X87487692Y35683100D01*
X77232544Y36362856D02*
X77912300Y35683100D01*
D86*
G04 #@! TO.N,/VREF2*
X35625000Y40398941D02*
X58925000Y40398941D01*
X58925000Y40398941D02*
X59125000Y40198941D01*
X34987521Y41036420D02*
X35625000Y40398941D01*
X34987521Y44101576D02*
X34987521Y41036420D01*
D90*
G04 #@! TO.N,/IN_CLT*
X108173983Y10032000D02*
X108758000Y10032000D01*
X76864520Y35283080D02*
X87322706Y35283080D01*
X56821528Y39646633D02*
X57125000Y39343161D01*
X87322706Y35283080D02*
X92349000Y30256786D01*
X57125000Y39343161D02*
X57125000Y38898941D01*
X92349000Y30256786D02*
X92349000Y16096406D01*
X106128982Y12077000D02*
X108173983Y10032000D01*
X96368406Y12077000D02*
X106128982Y12077000D01*
X76435900Y35797522D02*
X76435900Y35711700D01*
X76435900Y35711700D02*
X76864520Y35283080D01*
X92349000Y16096406D02*
X96368406Y12077000D01*
D86*
G04 #@! TO.N,/IN_IAT*
X62026500Y35174500D02*
X63940400Y33260600D01*
X83890800Y19976400D02*
X83890800Y17344800D01*
X63940400Y33260600D02*
X64713800Y33260600D01*
X74848400Y32193800D02*
X75381800Y31660400D01*
X76838200Y27333800D02*
X79691200Y27333800D01*
X83890800Y17344800D02*
X82628000Y16082000D01*
X80175000Y26850000D02*
X80175000Y23692200D01*
X64713800Y33260600D02*
X65780600Y32193800D01*
X75381800Y31660400D02*
X75381800Y28790200D01*
X79691200Y27333800D02*
X80175000Y26850000D01*
X65780600Y32193800D02*
X74848400Y32193800D01*
D90*
X55725000Y39499441D02*
X55725000Y38898941D01*
X55874500Y39648941D02*
X55725000Y39499441D01*
D86*
X80175000Y23692200D02*
X83890800Y19976400D01*
X75381800Y28790200D02*
X76838200Y27333800D01*
D90*
G04 #@! TO.N,/IN_TPS2*
X105277600Y6082600D02*
X100299200Y6082600D01*
X106218000Y7492000D02*
X106218000Y7023000D01*
D86*
X98699000Y7682800D02*
X98699000Y7701790D01*
X87435570Y34002020D02*
X86822980Y34002020D01*
D90*
X106218000Y7023000D02*
X105277600Y6082600D01*
X75381800Y34774500D02*
X75544300Y34774500D01*
X75544300Y34774500D02*
X76316780Y34002020D01*
D86*
X91454720Y29982870D02*
X87435570Y34002020D01*
X98699000Y7701790D02*
X91454720Y14946070D01*
X91454720Y14946070D02*
X91454720Y29982870D01*
D90*
X100299200Y6082600D02*
X98699000Y7682800D01*
X76316780Y34002020D02*
X86822980Y34002020D01*
D86*
G04 #@! TO.N,/IN_PPS2*
X59291980Y33883520D02*
X59291980Y20783020D01*
X59291980Y20783020D02*
X59925000Y20150000D01*
X59200000Y33975500D02*
X59291980Y33883520D01*
D90*
G04 #@! TO.N,/IN_CAM2*
X65898000Y4977000D02*
X65898000Y16777000D01*
X98699000Y4355400D02*
X94711200Y8343200D01*
X60900000Y33840460D02*
X60934540Y33875000D01*
X64400000Y17475000D02*
X63600000Y18275000D01*
X94711200Y8343200D02*
X90452414Y8343200D01*
X84898214Y2789000D02*
X68086000Y2789000D01*
X113838000Y7492000D02*
X110701400Y4355400D01*
X90452414Y8343200D02*
X84898214Y2789000D01*
X110701400Y4355400D02*
X98699000Y4355400D01*
X68086000Y2789000D02*
X65898000Y4977000D01*
X63600000Y22875000D02*
X60900000Y25575000D01*
X65898000Y16777000D02*
X65200000Y17475000D01*
X65200000Y17475000D02*
X64400000Y17475000D01*
X60900000Y25575000D02*
X60900000Y33840460D01*
X63600000Y18275000D02*
X63600000Y22875000D01*
D86*
G04 #@! TO.N,/IN_RES1*
X47045500Y34329000D02*
X51977583Y34329000D01*
X53360000Y32946582D02*
X53360000Y17030000D01*
X53360000Y17030000D02*
X52412000Y16082000D01*
X51977583Y34329000D02*
X53360000Y32946582D01*
X52412000Y16082000D02*
X52148000Y16082000D01*
X46500000Y34874500D02*
X47045500Y34329000D01*
G04 #@! TO.N,/IN_PPS1*
X39013800Y35413800D02*
X39013800Y31957330D01*
X39013800Y31957330D02*
X40233000Y30738130D01*
X37721000Y14954000D02*
X38050000Y14625000D01*
X45673500Y35501500D02*
X39101500Y35501500D01*
X40233000Y27908000D02*
X39377000Y27052000D01*
X37721000Y26260530D02*
X37721000Y14954000D01*
X39377000Y27052000D02*
X38512470Y27052000D01*
X45700000Y35475000D02*
X45673500Y35501500D01*
X38512470Y27052000D02*
X37721000Y26260530D01*
X39101500Y35501500D02*
X39013800Y35413800D01*
X40233000Y30738130D02*
X40233000Y27908000D01*
G04 #@! TO.N,/IN_RES2*
X44199500Y33875000D02*
X51789530Y33875000D01*
X50685011Y18105034D02*
X50124966Y17544989D01*
X52581011Y33083519D02*
X52581011Y32031011D01*
X51850000Y31300000D02*
X50850000Y31300000D01*
X52581011Y32031011D02*
X51850000Y31300000D01*
X50401053Y24791894D02*
X50354020Y24744860D01*
X50401051Y30851051D02*
X50401051Y24979955D01*
X50354020Y24744860D02*
X50354020Y19469957D01*
X50401051Y24979955D02*
X50401053Y24791894D01*
X51789530Y33875000D02*
X52581011Y33083519D01*
X50100000Y16310000D02*
X49872000Y16082000D01*
X50850000Y31300000D02*
X50401051Y30851051D01*
X50124966Y17544989D02*
X50100000Y17544989D01*
X50100000Y17544989D02*
X50100000Y16310000D01*
X50354020Y19469957D02*
X50685011Y19138966D01*
X50685011Y19138966D02*
X50685011Y18105034D01*
X49872000Y16082000D02*
X49608000Y16082000D01*
X43200000Y34874500D02*
X44199500Y33875000D01*
G04 #@! TO.N,/IN_KNOCK1_RAW*
X37400000Y44089100D02*
X37387524Y44101576D01*
X37400000Y43377000D02*
X37400000Y44089100D01*
D90*
G04 #@! TO.N,Net-(C4-Pad2)*
X142207000Y29888163D02*
X142207000Y31308161D01*
D92*
G04 #@! TO.N,/OUT_VVT2_B1*
X119300000Y41375000D02*
X119300000Y42275000D01*
X118647000Y43075000D02*
X118281400Y42709400D01*
X119300000Y43075000D02*
X118647000Y43075000D01*
X119300000Y42275000D02*
X119300000Y43075000D01*
X118976566Y43398434D02*
X118976566Y44851221D01*
X119300000Y43075000D02*
X118976566Y43398434D01*
G04 #@! TO.N,/OUT_VVT2_B2*
X122372800Y42251200D02*
X125114100Y39509900D01*
X120232431Y44851221D02*
X120232431Y44034969D01*
X125114100Y37526900D02*
X129306000Y33335000D01*
X129306000Y33335000D02*
X129306000Y26690506D01*
X122016200Y42251200D02*
X122372800Y42251200D01*
X125114100Y39509900D02*
X125114100Y37526900D01*
X132557200Y23439306D02*
X132557200Y18631200D01*
X132557200Y18631200D02*
X132548000Y18622000D01*
X120232431Y44034969D02*
X122016200Y42251200D01*
X129306000Y26690506D02*
X132557200Y23439306D01*
D86*
G04 #@! TO.N,/OUT_FUEL_CONSUM*
X118138032Y3050468D02*
X117903084Y2815520D01*
X86972980Y2815520D02*
X86800000Y2988500D01*
X117903084Y2815520D02*
X86972980Y2815520D01*
D89*
G04 #@! TO.N,/OUT_VVT1_1*
X101071545Y41196545D02*
X101050000Y41175000D01*
X101071545Y42217900D02*
X101071545Y41196545D01*
D87*
G04 #@! TO.N,/OUT_INJ6*
X102356600Y39204200D02*
X117144106Y39204200D01*
X121197360Y23441360D02*
X116378000Y18622000D01*
X121197360Y35150946D02*
X121197360Y23441360D01*
X95600200Y38315200D02*
X96235200Y38315200D01*
X101467600Y38315200D02*
X102356600Y39204200D01*
X96286000Y38315200D02*
X101467600Y38315200D01*
X96235200Y38315200D02*
X96260600Y38340600D01*
X117144106Y39204200D02*
X121197360Y35150946D01*
X96260600Y38340600D02*
X96286000Y38315200D01*
D92*
G04 #@! TO.N,/OUT_VVT1_2*
X109786680Y13575600D02*
X109786680Y13587720D01*
X94558800Y39633800D02*
X95008800Y39633800D01*
X94558800Y38533800D02*
X93212600Y37187600D01*
X94558800Y31177800D02*
X94558800Y17842800D01*
X95008800Y39633800D02*
X95200000Y39825000D01*
X93212600Y32524000D02*
X94558800Y31177800D01*
X98826000Y13575600D02*
X109786680Y13575600D01*
X94558800Y17842800D02*
X98826000Y13575600D01*
X109786680Y13587720D02*
X109773400Y13601000D01*
X93212600Y37187600D02*
X93212600Y32524000D01*
X94558800Y39633800D02*
X94558800Y38533800D01*
X94558800Y40956800D02*
X94558800Y39633800D01*
D85*
G04 #@! TO.N,/OUT_TACH*
X62841872Y32109928D02*
X62732600Y32219200D01*
X62841872Y29877628D02*
X62841872Y32109928D01*
D89*
G04 #@! TO.N,/OUT_INJ5*
X88285000Y40372600D02*
X88285000Y41236200D01*
D87*
X97911600Y41795000D02*
X97632200Y42074400D01*
X121896880Y35440696D02*
X117340296Y39997280D01*
X121896880Y21600880D02*
X121896880Y35440696D01*
D89*
X88285000Y39585200D02*
X88920200Y38950000D01*
D87*
X97632200Y42074400D02*
X93415800Y42074400D01*
X92196600Y40855200D02*
X92196600Y39559800D01*
D89*
X88285000Y40372600D02*
X88285000Y39585200D01*
D87*
X118918000Y18622000D02*
X121896880Y21600880D01*
X92196600Y39559800D02*
X91586800Y38950000D01*
X98490120Y39997280D02*
X97911600Y40575800D01*
X93415800Y42074400D02*
X92196600Y40855200D01*
X97911600Y40575800D02*
X97911600Y41795000D01*
X117340296Y39997280D02*
X98490120Y39997280D01*
X91586800Y38950000D02*
X88920200Y38950000D01*
D85*
G04 #@! TO.N,/OUT_INJ7*
X52148000Y24598000D02*
X52275000Y24725000D01*
X52148000Y18622000D02*
X52148000Y24598000D01*
D90*
G04 #@! TO.N,/VVT1_2*
X89974000Y74375522D02*
X90102033Y74247489D01*
X89974000Y76079000D02*
X89974000Y74375522D01*
G04 #@! TO.N,/VVT1_1*
X89374500Y74579000D02*
X89374500Y82725000D01*
G04 #@! TO.N,/TACH*
X86162501Y75012501D02*
X86162501Y71527299D01*
X86162501Y71527299D02*
X86162501Y71501899D01*
X86162501Y75012501D02*
X86650000Y75500000D01*
X86162501Y71501899D02*
X86227600Y71436800D01*
G04 #@! TO.N,Net-(U1-VCP)*
X140802000Y34293163D02*
X142207000Y32888163D01*
X140802000Y36892163D02*
X140802000Y34293163D01*
D86*
G04 #@! TO.N,Net-(P10-Pin_1)*
X74134020Y24633061D02*
X73900000Y24867081D01*
X72255889Y26751511D02*
X68794800Y30212600D01*
X74134020Y19495980D02*
X74134020Y24633061D01*
X75008000Y18622000D02*
X74134020Y19495980D01*
X73900000Y26233400D02*
X73381889Y26751511D01*
X73900000Y24867081D02*
X73900000Y26233400D01*
X73381889Y26751511D02*
X72255889Y26751511D01*
G04 #@! TO.N,Net-(P11-Pin_1)*
X66144800Y29010200D02*
X66144800Y30212600D01*
X67380800Y27774200D02*
X66144800Y29010200D01*
X72468000Y20756600D02*
X71300000Y21924600D01*
X69819200Y27774200D02*
X67380800Y27774200D01*
X71300000Y24388400D02*
X71300000Y26293400D01*
X71300000Y26293400D02*
X69819200Y27774200D01*
X72468000Y18622000D02*
X72468000Y20756600D01*
X71300000Y21924600D02*
X71300000Y24388400D01*
G04 #@! TO.N,Net-(P12-Pin_1)*
X69362000Y19188000D02*
X69362000Y25563000D01*
X69928000Y18622000D02*
X69362000Y19188000D01*
X69362000Y25563000D02*
X69300000Y25625000D01*
G04 #@! TO.N,Net-(P13-Pin_1)*
X67388000Y24737000D02*
X66575000Y25550000D01*
X67388000Y18622000D02*
X67388000Y24737000D01*
G04 #@! TO.N,Net-(P17-Pin_1)*
X57228000Y18622000D02*
X57200000Y18650000D01*
X57200000Y18650000D02*
X57200000Y28275000D01*
G04 #@! TO.N,Net-(P20-Pin_1)*
X49947031Y24979950D02*
X49947031Y31247031D01*
X49608000Y18622000D02*
X49900000Y18914000D01*
X49900000Y18914000D02*
X49900000Y24932918D01*
X49947031Y31247031D02*
X51350000Y32650000D01*
X49900000Y24932918D02*
X49947031Y24979950D01*
G04 #@! TO.N,Net-(P1-Pad21)*
X48330000Y26165000D02*
X48350000Y26145000D01*
X47068000Y18622000D02*
X46325000Y19365000D01*
X46325000Y26165000D02*
X48330000Y26165000D01*
X46325000Y19365000D02*
X46325000Y26165000D01*
G04 #@! TO.N,Net-(P1-Pad23)*
X41988000Y18622000D02*
X41988000Y26497000D01*
G04 #@! TO.N,Net-(P1-Pad37)*
X54500000Y21288500D02*
X54500000Y26195000D01*
X53986500Y20775000D02*
X54500000Y21288500D01*
X54500000Y26195000D02*
X54600000Y26295000D01*
G04 #@! TO.N,Net-(P40-Pin_1)*
X48280000Y23955000D02*
X49493011Y25168011D01*
X47068000Y16082000D02*
X47332000Y16082000D01*
X47332000Y16082000D02*
X48280000Y17030000D01*
X49493011Y31806989D02*
X48650000Y32650000D01*
X48280000Y17030000D02*
X48280000Y23955000D01*
X49493011Y25168011D02*
X49493011Y31806989D01*
D90*
G04 #@! TO.N,Net-(D1-K)*
X140607000Y29888163D02*
X140607000Y31288163D01*
X139207000Y29888163D02*
X140607000Y29888163D01*
D86*
G04 #@! TO.N,Net-(P41-Pin_1)*
X44550000Y20275000D02*
X44063600Y20761400D01*
X44063600Y20761400D02*
X44063600Y31811400D01*
X44063600Y31811400D02*
X43200000Y32675000D01*
G04 #@! TO.N,Net-(P43-Pin_1)*
X38175000Y25050000D02*
X39000000Y25875000D01*
X38175000Y17300000D02*
X38175000Y25050000D01*
X39448000Y16082000D02*
X39393000Y16082000D01*
X39393000Y16082000D02*
X38175000Y17300000D01*
G04 #@! TO.N,Net-(P44-Pin_1)*
X82900000Y22550000D02*
X82900000Y25082000D01*
X85168000Y10032000D02*
X85807000Y10032000D01*
X86350000Y19100000D02*
X82900000Y22550000D01*
X85807000Y10032000D02*
X86350000Y10575000D01*
X81401600Y27977400D02*
X77642400Y27977400D01*
X82900000Y25082000D02*
X82900000Y26479000D01*
X76744800Y28875000D02*
X76744800Y30212600D01*
X77642400Y27977400D02*
X76744800Y28875000D01*
X82900000Y26479000D02*
X81401600Y27977400D01*
X86350000Y10575000D02*
X86350000Y19100000D01*
G04 #@! TO.N,Net-(P46-Pin_1)*
X80088000Y10032000D02*
X80088000Y10103000D01*
X81300000Y19375000D02*
X78875000Y21800000D01*
X81300000Y11315000D02*
X81300000Y19375000D01*
X78875000Y21800000D02*
X78875000Y25575000D01*
X80088000Y10103000D02*
X81300000Y11315000D01*
G04 #@! TO.N,Net-(P48-Pin_1)*
X75700000Y25250000D02*
X75375000Y25575000D01*
X76220000Y20128800D02*
X75700000Y20648800D01*
X76220000Y11315000D02*
X76220000Y20128800D01*
X75700000Y20648800D02*
X75700000Y25250000D01*
X75008000Y10103000D02*
X76220000Y11315000D01*
X75008000Y10032000D02*
X75008000Y10103000D01*
G04 #@! TO.N,Net-(P49-Pin_1)*
X73680000Y11315000D02*
X73680000Y20916200D01*
X73680000Y20916200D02*
X72625000Y21971200D01*
X72468000Y10103000D02*
X73680000Y11315000D01*
X72625000Y21971200D02*
X72625000Y25500000D01*
X72468000Y10032000D02*
X72468000Y10103000D01*
D90*
G04 #@! TO.N,/CAN+*
X30575000Y74949998D02*
X30575000Y74699999D01*
X29103000Y75526200D02*
X29998798Y75526200D01*
X40340480Y96840480D02*
X40687502Y97187502D01*
X39075000Y96640500D02*
X39274980Y96840480D01*
X39274980Y96840480D02*
X40340480Y96840480D01*
X29998798Y75526200D02*
X30575000Y74949998D01*
X40687502Y97187502D02*
X40687502Y97581664D01*
D86*
G04 #@! TO.N,Net-(P56-Pin_1)*
X54688000Y10103000D02*
X55900000Y11315000D01*
X54688000Y10032000D02*
X54688000Y10103000D01*
D90*
X55900000Y31558800D02*
X54782400Y32676400D01*
X55900000Y30593600D02*
X55900000Y31558800D01*
D86*
X55900000Y11315000D02*
X55900000Y30593600D01*
D90*
G04 #@! TO.N,Net-(J8-Pin_1)*
X16600000Y66600000D02*
X15800000Y65800000D01*
X18945000Y66255000D02*
X18600000Y66600000D01*
X18600000Y66600000D02*
X16600000Y66600000D01*
X15800000Y56150000D02*
X13200000Y53550000D01*
X18945000Y65805000D02*
X18945000Y66255000D01*
X15800000Y65800000D02*
X15800000Y56150000D01*
G04 #@! TO.N,Net-(J8-Pin_2)*
X15346480Y58236480D02*
X15346480Y65987854D01*
X20999039Y66200961D02*
X21045000Y66155000D01*
X15346480Y65987854D02*
X16358145Y66999519D01*
X19869027Y66200961D02*
X20999039Y66200961D01*
X19070469Y66999519D02*
X19869027Y66200961D01*
X13200000Y56090000D02*
X15346480Y58236480D01*
X21045000Y66155000D02*
X21045000Y65805000D01*
X16358145Y66999519D02*
X19070469Y66999519D01*
D86*
G04 #@! TO.N,Net-(P61-Pin_1)*
X41988000Y10103000D02*
X43200000Y11315000D01*
X41988000Y10032000D02*
X41988000Y10103000D01*
X43200000Y11315000D02*
X43200000Y30441200D01*
X43200000Y30441200D02*
X40966200Y32675000D01*
X40966200Y32675000D02*
X40675000Y32675000D01*
D90*
G04 #@! TO.N,/V12_PERM*
X40660000Y11315000D02*
X40660000Y30915000D01*
X39440800Y32134200D02*
X39440800Y33616200D01*
X39448000Y10032000D02*
X39448000Y10103000D01*
X39440800Y33616200D02*
X40329800Y34505200D01*
X40660000Y30915000D02*
X39440800Y32134200D01*
X39448000Y10103000D02*
X40660000Y11315000D01*
D86*
G04 #@! TO.N,Net-(P63-Pin_1)*
X87450000Y9210000D02*
X87450000Y24900000D01*
X87450000Y24900000D02*
X86775000Y25575000D01*
X85732000Y7492000D02*
X87450000Y9210000D01*
X85168000Y7492000D02*
X85732000Y7492000D01*
G04 #@! TO.N,Net-(P64-Pin_1)*
X84300000Y21792082D02*
X84225000Y21867082D01*
X85700000Y8775000D02*
X86840840Y9915840D01*
X82628000Y7563000D02*
X83840000Y8775000D01*
X86840840Y9915840D02*
X86840840Y10423758D01*
X86879020Y10461938D02*
X86879020Y19213062D01*
X84225000Y21867082D02*
X84225000Y25575000D01*
X86840840Y10423758D02*
X86879020Y10461938D01*
X82628000Y7492000D02*
X82628000Y7563000D01*
X86879020Y19213062D02*
X84300000Y21792082D01*
X83840000Y8775000D02*
X85700000Y8775000D01*
G04 #@! TO.N,Net-(P66-Pin_1)*
X88300000Y25925000D02*
X87300000Y26925000D01*
X83095374Y26925000D02*
X80388787Y29631587D01*
X78010000Y6350000D02*
X85700000Y6350000D01*
X85700000Y6350000D02*
X88300000Y8950000D01*
X77548000Y7492000D02*
X77548000Y6812000D01*
X87300000Y26925000D02*
X83095374Y26925000D01*
X77548000Y6812000D02*
X78010000Y6350000D01*
X88300000Y8950000D02*
X88300000Y25925000D01*
X80388787Y29631587D02*
X80000813Y29631587D01*
X80000813Y29631587D02*
X79419800Y30212600D01*
G04 #@! TO.N,Net-(P67-Pin_1)*
X82112800Y28891800D02*
X82112800Y30212600D01*
X87497600Y27494800D02*
X83509800Y27494800D01*
X76425000Y6075000D02*
X77566552Y6075000D01*
X83509800Y27494800D02*
X82112800Y28891800D01*
X77566552Y6075000D02*
X77799572Y5841980D01*
X77799572Y5841980D02*
X85910429Y5841981D01*
X89475000Y25517400D02*
X87497600Y27494800D01*
X85910429Y5841981D02*
X89475000Y9406552D01*
X89475000Y22436400D02*
X89475000Y25517400D01*
X89475000Y9406552D02*
X89475000Y22436400D01*
X75008000Y7492000D02*
X76425000Y6075000D01*
G04 #@! TO.N,Net-(P68-Pin_1)*
X72468000Y7492000D02*
X72468000Y5007000D01*
X90120724Y25582876D02*
X87755280Y27948320D01*
X87755280Y27948320D02*
X85316880Y27948320D01*
X84754400Y28510800D02*
X84754400Y30212600D01*
X85316880Y27948320D02*
X84754400Y28510800D01*
X89341038Y8572590D02*
X90120724Y9352276D01*
X72468000Y5007000D02*
X73805000Y3670000D01*
X90120724Y9352276D02*
X90120724Y25582876D01*
X84456896Y3670000D02*
X89341038Y8554142D01*
X89341038Y8554142D02*
X89341038Y8572590D01*
X73805000Y3670000D02*
X84456896Y3670000D01*
D90*
G04 #@! TO.N,/OUT_IGN7*
X33700000Y82675000D02*
X33724112Y82675000D01*
X33757356Y82708244D02*
X33757356Y83814583D01*
X33724112Y82675000D02*
X33757356Y82708244D01*
G04 #@! TO.N,/OUT_IGN6*
X32600000Y82675000D02*
X32582363Y82692637D01*
X32582363Y82692637D02*
X32582363Y83814583D01*
G04 #@! TO.N,/OUT_IGN5*
X31500000Y82675000D02*
X31407376Y82767624D01*
X31407376Y82767624D02*
X31407376Y83814583D01*
G04 #@! TO.N,/OUT_IGN4*
X114300000Y8975000D02*
X112355000Y8975000D01*
X114723911Y5451089D02*
X114900000Y5627178D01*
X114900000Y5627178D02*
X114900000Y8375000D01*
X30567464Y82807536D02*
X30567464Y83814583D01*
X30700000Y82675000D02*
X30567464Y82807536D01*
X112355000Y8975000D02*
X111298000Y10032000D01*
X114900000Y8375000D02*
X114300000Y8975000D01*
G04 #@! TO.N,/OUT_IGN3*
X29800000Y82675000D02*
X29817392Y82692392D01*
X29817392Y82692392D02*
X29817392Y83814583D01*
G04 #@! TO.N,/OUT_IGN2*
X28650000Y82675000D02*
X28642381Y82682619D01*
X28642381Y82682619D02*
X28642381Y83814583D01*
G04 #@! TO.N,/OUT_IGN1*
X27500000Y82675000D02*
X27467384Y82707616D01*
X115328000Y10723450D02*
X116798000Y12193450D01*
X116234859Y5460061D02*
X116234859Y6150216D01*
X116798000Y12777000D02*
X114895867Y14679133D01*
X114895867Y14679133D02*
X112700867Y14679133D01*
X116234859Y6150216D02*
X115328000Y7057075D01*
X27467384Y82707616D02*
X27467384Y83814583D01*
X116798000Y12193450D02*
X116798000Y12777000D01*
X112700867Y14679133D02*
X111298000Y16082000D01*
X115328000Y7057075D02*
X115328000Y10723450D01*
D86*
G04 #@! TO.N,Net-(P9-Pin_1)*
X72867200Y27393200D02*
X71444800Y28815600D01*
X75483400Y27393200D02*
X72867200Y27393200D01*
X71444800Y28815600D02*
X71444800Y30212600D01*
X76575000Y25259000D02*
X76575000Y26301600D01*
X77548000Y20299400D02*
X76575000Y21272400D01*
X76575000Y26301600D02*
X75483400Y27393200D01*
X76575000Y21272400D02*
X76575000Y25259000D01*
X77548000Y18622000D02*
X77548000Y20299400D01*
D87*
G04 #@! TO.N,+12V_RAW*
X29349320Y108716320D02*
X17962000Y97329000D01*
D90*
X142072000Y35251663D02*
X142072000Y36892163D01*
D93*
X136762000Y25075000D02*
X136762000Y26175000D01*
X140887000Y33188163D02*
X140887000Y32388163D01*
D87*
X121914600Y39001000D02*
X120797000Y37883400D01*
D93*
X136762000Y28275000D02*
X136762000Y29275000D01*
D92*
X117733600Y40946800D02*
X120797000Y37883400D01*
D87*
X139737200Y60387800D02*
X139750000Y60375000D01*
D90*
X143116999Y54982164D02*
X143107000Y54992163D01*
D87*
X147152000Y51882163D02*
X147142000Y51892163D01*
D92*
X94507600Y43217400D02*
X93005784Y44719216D01*
D87*
X127248600Y101510400D02*
X108859000Y101510400D01*
X101663880Y108705520D02*
X101155880Y108705520D01*
X128874200Y99884800D02*
X127248600Y101510400D01*
D90*
X17962000Y91125000D02*
X17962000Y97179000D01*
D87*
X114218400Y41038400D02*
X114310000Y40946800D01*
D86*
X14962000Y91125000D02*
X17962000Y91125000D01*
D90*
X29488520Y108705520D02*
X100483920Y108705520D01*
D93*
X147152000Y50092163D02*
X147152000Y51882163D01*
D92*
X103882600Y43217400D02*
X96457600Y43217400D01*
X95292400Y43217400D02*
X95200000Y43125000D01*
D87*
X130913443Y71658157D02*
X130913442Y82028600D01*
D92*
X104650000Y42450000D02*
X104650000Y41475000D01*
D87*
X130913442Y82028600D02*
X127687642Y85254400D01*
D93*
X136762000Y33075000D02*
X136862000Y33175000D01*
D90*
X143116999Y53592163D02*
X143116999Y54302162D01*
D87*
X114854400Y42836400D02*
X114981400Y42709400D01*
D90*
X143131500Y34192163D02*
X142072000Y35251663D01*
D87*
X147152000Y35102163D02*
X147162000Y35092163D01*
D92*
X120797000Y37883400D02*
X124075000Y34605400D01*
D93*
X139716999Y54792163D02*
X138162000Y54792163D01*
X139532000Y51237163D02*
X140887000Y52592163D01*
D87*
X101155880Y108705520D02*
X100483920Y108705520D01*
X127687642Y85254400D02*
X127223200Y85254400D01*
X138162000Y64409600D02*
X130913443Y71658157D01*
D92*
X114310000Y40946800D02*
X117733600Y40946800D01*
D93*
X139532000Y36892163D02*
X139532000Y34543163D01*
D87*
X101145080Y108716320D02*
X29349320Y108716320D01*
X17962000Y97329000D02*
X17962000Y91125000D01*
D92*
X93005784Y44719216D02*
X93005784Y47909548D01*
D94*
X131744400Y43471400D02*
X131765163Y43492163D01*
D90*
X142072000Y50092163D02*
X142072000Y52547164D01*
D92*
X96457600Y43217400D02*
X95292400Y43217400D01*
X107528200Y40946800D02*
X114310000Y40946800D01*
D93*
X138162000Y52379000D02*
X138162000Y60379000D01*
X147152000Y36892163D02*
X147152000Y35102163D01*
D94*
X153867800Y43496800D02*
X153863163Y43492163D01*
D93*
X147142000Y51892163D02*
X147142000Y52792163D01*
X139532000Y34543163D02*
X140887000Y33188163D01*
D92*
X104650000Y44802761D02*
X104601540Y44851221D01*
D93*
X136762000Y29275000D02*
X136762000Y30375000D01*
X136762000Y26175000D02*
X136762000Y27175000D01*
X136762000Y31375000D02*
X136762000Y33075000D01*
X138262000Y34575000D02*
X136862000Y33175000D01*
D87*
X114218400Y42836400D02*
X114218400Y41038400D01*
D92*
X104650000Y42450000D02*
X104650000Y44802761D01*
D93*
X139207000Y27688163D02*
X136762000Y27688163D01*
D87*
X138162000Y59379000D02*
X138162000Y60387800D01*
D93*
X147162000Y35092163D02*
X147162000Y34192163D01*
X138262000Y50092163D02*
X138262000Y52279000D01*
D87*
X101155880Y108705520D02*
X101145080Y108716320D01*
D93*
X138262000Y52279000D02*
X138162000Y52379000D01*
D92*
X96457600Y43217400D02*
X94507600Y43217400D01*
D87*
X138162000Y59379000D02*
X138162000Y64409600D01*
D94*
X131765163Y43492163D02*
X142707000Y43492163D01*
D92*
X124075000Y34605400D02*
X124075000Y31675000D01*
D93*
X138262000Y36892163D02*
X138262000Y34575000D01*
D92*
X104650000Y41475000D02*
X104350000Y41175000D01*
D93*
X136762000Y27175000D02*
X136762000Y28275000D01*
D86*
X15062000Y93125000D02*
X15062000Y91225000D01*
D90*
X143116999Y54302162D02*
X143116999Y54982164D01*
D87*
X108859000Y101510400D02*
X101663880Y108705520D01*
D92*
X104650000Y42450000D02*
X106025000Y42450000D01*
X104650000Y42450000D02*
X103882600Y43217400D01*
D90*
X17962000Y97179000D02*
X29488520Y108705520D01*
D93*
X140887000Y52592163D02*
X140887000Y53392163D01*
X139532000Y50092163D02*
X139532000Y51237163D01*
D92*
X106025000Y42450000D02*
X107528200Y40946800D01*
D87*
X114218400Y42836400D02*
X113430000Y42836400D01*
X114218400Y42836400D02*
X114854400Y42836400D01*
D94*
X153863163Y43492163D02*
X142707000Y43492163D01*
D93*
X136762000Y30375000D02*
X136762000Y31375000D01*
D87*
X138162000Y60387800D02*
X139737200Y60387800D01*
X113430000Y42836400D02*
X113303000Y42709400D01*
D86*
X15062000Y91225000D02*
X14962000Y91125000D01*
D90*
X142072000Y52547164D02*
X143116999Y53592163D01*
G04 #@! TO.N,/ETB_EN*
X131462962Y72347032D02*
X143107000Y60702994D01*
X93060500Y86057638D02*
X95533862Y88531000D01*
X125244994Y88531000D02*
X131462962Y82313032D01*
X143107000Y60702994D02*
X143107000Y56592163D01*
X95533862Y88531000D02*
X125244994Y88531000D01*
X131462962Y82313032D02*
X131462962Y72347032D01*
X93060500Y80779000D02*
X93060500Y86057638D01*
D86*
G04 #@! TO.N,Net-(P69-Pin_1)*
X69928000Y4647000D02*
X71359000Y3216000D01*
X87446800Y29044200D02*
X87446800Y30212600D01*
X69928000Y7492000D02*
X69928000Y4647000D01*
X71359000Y3216000D02*
X84721344Y3216000D01*
X90606948Y9120052D02*
X90574244Y9152756D01*
X89849057Y8362161D02*
X90606948Y9120052D01*
X84721344Y3216000D02*
X89849057Y8343713D01*
X90574244Y9152756D02*
X90574244Y25916756D01*
X89849057Y8343713D02*
X89849057Y8362161D01*
X90574244Y25916756D02*
X87446800Y29044200D01*
D95*
G04 #@! TO.N,/LSU_HEAT-*
X28245000Y21925000D02*
X31548000Y18622000D01*
X23845000Y22780000D02*
X24700000Y21925000D01*
X23845000Y28655000D02*
X23845000Y22780000D01*
X24700000Y21925000D02*
X28245000Y21925000D01*
D86*
G04 #@! TO.N,/LSU_CALIBR_RES*
X21695000Y27405000D02*
X19306640Y25016640D01*
X19306640Y25016640D02*
X11703360Y25016640D01*
X11703360Y25016640D02*
X8700000Y28020000D01*
G04 #@! TO.N,Net-(P74-Pin_1)*
X50739011Y10737092D02*
X45725000Y15751103D01*
X45181989Y31931989D02*
X45925000Y32675000D01*
X45725000Y15751103D02*
X45725000Y24875000D01*
X51624011Y8900989D02*
X50739011Y9785989D01*
X45725000Y24875000D02*
X45181989Y25418011D01*
X55819011Y8900989D02*
X51624011Y8900989D01*
X57228000Y7492000D02*
X55819011Y8900989D01*
X45181989Y25418011D02*
X45181989Y31931989D01*
X50739011Y9785989D02*
X50739011Y10737092D01*
G04 #@! TO.N,Net-(P80-Pin_1)*
X40660000Y8775000D02*
X38755000Y8775000D01*
X41943000Y7492000D02*
X40660000Y8775000D01*
X38755000Y8775000D02*
X37267000Y10263000D01*
X37267000Y27142000D02*
X39000000Y28875000D01*
X41988000Y7492000D02*
X41943000Y7492000D01*
X37267000Y10263000D02*
X37267000Y27142000D01*
D87*
G04 #@! TO.N,Net-(G1-Pad14)*
X154940000Y67260000D02*
X149860000Y67260000D01*
G04 #@! TO.N,Net-(G1-Pad13)*
X149860000Y64720000D02*
X154940000Y64720000D01*
D86*
G04 #@! TO.N,/LSU_PUMP_I*
X20695000Y27405000D02*
X18760160Y25470160D01*
X18760160Y25470160D02*
X13599840Y25470160D01*
X13599840Y25470160D02*
X11000000Y28070000D01*
G04 #@! TO.N,/LSU_SENSOR_U{slash}PUMP_I*
X19695000Y27405000D02*
X19695000Y27077918D01*
X18540762Y25923680D02*
X15446320Y25923680D01*
X19695000Y27077918D02*
X18540762Y25923680D01*
X15446320Y25923680D02*
X13300000Y28070000D01*
G04 #@! TO.N,/LSU_SENSOR_U*
X18695000Y27405000D02*
X18695000Y26720000D01*
X18695000Y26720000D02*
X18352200Y26377200D01*
X15600000Y26977000D02*
X15600000Y28070021D01*
X18352200Y26377200D02*
X16199800Y26377200D01*
X16199800Y26377200D02*
X15600000Y26977000D01*
G04 #@! TO.N,Net-(P1-Pad51)*
X68465011Y4020745D02*
X68465011Y8954989D01*
X68760154Y3725602D02*
X68465011Y4020745D01*
X68465011Y8954989D02*
X67388000Y10032000D01*
G04 #@! TO.N,Net-(P1-Pad52)*
X63500000Y3416960D02*
X63500000Y8684000D01*
X63500000Y8684000D02*
X64848000Y10032000D01*
G04 #@! TO.N,Net-(P1-Pad70)*
X67600000Y4275000D02*
X67388000Y4487000D01*
X67388000Y4487000D02*
X67388000Y7492000D01*
G04 #@! TO.N,Net-(P1-Pad71)*
X64900000Y7440000D02*
X64848000Y7492000D01*
X64900000Y3416960D02*
X64900000Y7440000D01*
D90*
G04 #@! TO.N,/IN_CRANK+*
X109908000Y9483000D02*
X109066511Y8641511D01*
X109066511Y8641511D02*
X102287511Y8641511D01*
X102287511Y8641511D02*
X101138000Y7492000D01*
X114719288Y11206288D02*
X110831288Y11206288D01*
X109908000Y10283000D02*
X109908000Y9483000D01*
X110831288Y11206288D02*
X109908000Y10283000D01*
X115996400Y12483400D02*
X114719288Y11206288D01*
X116098000Y12483400D02*
X115996400Y12483400D01*
D87*
G04 #@! TO.N,Net-(G1-Pad12)*
X154940000Y62180000D02*
X149860000Y62180000D01*
G04 #@! TO.N,Net-(G1-Pad10)*
X149860000Y69800000D02*
X154940000Y69800000D01*
G04 #@! TO.N,Net-(G1-Pad1)*
X149860000Y59640000D02*
X154940000Y59640000D01*
G04 #@! TO.N,Net-(G2-Pad10)*
X154940000Y96520000D02*
X149860000Y96520000D01*
G04 #@! TO.N,Net-(G2-Pad14)*
X149860000Y93980000D02*
X154940000Y93980000D01*
G04 #@! TO.N,Net-(G2-Pad13)*
X154940000Y91440000D02*
X149860000Y91440000D01*
G04 #@! TO.N,Net-(G2-Pad12)*
X149860000Y88900000D02*
X154940000Y88900000D01*
G04 #@! TO.N,Net-(G2-Pad1)*
X154940000Y86360000D02*
X149860000Y86360000D01*
D90*
G04 #@! TO.N,Net-(J8-Pin_4)*
X21440893Y66600481D02*
X20034513Y66600481D01*
X21545000Y65805000D02*
X21545000Y66496374D01*
X16116291Y67399039D02*
X14892960Y66175708D01*
X14892960Y66175708D02*
X14892960Y62862960D01*
X20034513Y66600481D02*
X19235955Y67399039D01*
X19235955Y67399039D02*
X16116291Y67399039D01*
X14892960Y62862960D02*
X13200000Y61170000D01*
X21545000Y66496374D02*
X21440893Y66600481D01*
G04 #@! TO.N,Net-(J8-Pin_5)*
X21682748Y67000000D02*
X20200000Y67000000D01*
X19401442Y67798558D02*
X15874436Y67798558D01*
X22045000Y65805000D02*
X22045000Y66637748D01*
X22045000Y66637748D02*
X21682748Y67000000D01*
X15874436Y67798558D02*
X14439440Y66363562D01*
X14439440Y66363562D02*
X14439440Y64949440D01*
X14439440Y64949440D02*
X13200000Y63710000D01*
X20200000Y67000000D02*
X19401442Y67798558D01*
G04 #@! TO.N,/+ETB*
X131862481Y82478519D02*
X131862481Y72512519D01*
D87*
X143342000Y51527163D02*
X143342000Y50092163D01*
D90*
X92461000Y86023144D02*
X95368376Y88930520D01*
X92461000Y80079000D02*
X92461000Y86023144D01*
D87*
X144907000Y35092163D02*
X144612000Y35387163D01*
D90*
X125410480Y88930520D02*
X131862481Y82478519D01*
D87*
X144612000Y35387163D02*
X144612000Y36892163D01*
D90*
X145507000Y58868000D02*
X145507000Y52992163D01*
X95368376Y88930520D02*
X125410480Y88930520D01*
X145507000Y52992163D02*
X144907000Y52392163D01*
D87*
X143607000Y51792163D02*
X143342000Y51527163D01*
D90*
X144207000Y52392163D02*
X143607000Y51792163D01*
X131862481Y72512519D02*
X145507000Y58868000D01*
X144907000Y52392163D02*
X144207000Y52392163D01*
G04 #@! TO.N,/-ETB*
X91861500Y85988650D02*
X95202890Y89330040D01*
X125575966Y89330040D02*
X132262000Y82644006D01*
D87*
X143342000Y35738466D02*
X143342000Y36892163D01*
D90*
X145906520Y52826677D02*
X144872006Y51792163D01*
X145906520Y59068480D02*
X145906520Y52826677D01*
X132262000Y72713000D02*
X145906520Y59068480D01*
X91861500Y79379000D02*
X91861500Y85988650D01*
D87*
X144662000Y51792163D02*
X144662000Y50142163D01*
D90*
X132262000Y82644006D02*
X132262000Y72713000D01*
X95202890Y89330040D02*
X125575966Y89330040D01*
D87*
X144662000Y50142163D02*
X144612000Y50092163D01*
D90*
X144872006Y51792163D02*
X144662000Y51792163D01*
D87*
X143888314Y35192152D02*
X143342000Y35738466D01*
D90*
G04 #@! TO.N,+5VA*
X59932509Y42877841D02*
X59932509Y43541720D01*
D86*
G04 #@! TO.N,GND*
X35998694Y63473694D02*
X35362524Y62837524D01*
D90*
G04 #@! TO.N,+5VA*
X51832504Y42856457D02*
X51832504Y43520336D01*
X62857496Y42877841D02*
X62857496Y43541720D01*
X47282541Y42877841D02*
X47282541Y43541720D01*
X61182496Y42877841D02*
X61182496Y43541720D01*
X50957502Y42877841D02*
X50957502Y43541720D01*
X59057507Y42877841D02*
X59057507Y43541720D01*
D86*
G04 #@! TO.N,GND*
X35362524Y62837524D02*
X35362524Y61926574D01*
D90*
G04 #@! TO.N,+5VA*
X62057498Y42877841D02*
X62057498Y43541720D01*
D86*
G04 #@! TO.N,GND*
X36508941Y63473694D02*
X35998694Y63473694D01*
D90*
G04 #@! TO.N,+5VA*
X49282502Y42877841D02*
X49282502Y43541720D01*
D86*
G04 #@! TO.N,Net-(D3-A)*
X12862000Y95125000D02*
X12862000Y96925021D01*
X9862000Y95400000D02*
X12587000Y95400000D01*
X12862000Y96925021D02*
X13061979Y97125000D01*
X12587000Y95400000D02*
X12862000Y95125000D01*
D87*
G04 #@! TO.N,Net-(G5-Pad10)*
X149860000Y83210000D02*
X154940000Y83210000D01*
D86*
G04 #@! TO.N,Net-(D6-K)*
X11336979Y83400000D02*
X13061979Y85125000D01*
X9862000Y83400000D02*
X11336979Y83400000D01*
G04 #@! TO.N,Net-(D7-K)*
X9862000Y80850000D02*
X11336979Y80850000D01*
X11336979Y80850000D02*
X13061979Y79125000D01*
D87*
G04 #@! TO.N,Net-(G5-Pad14)*
X154940000Y80670000D02*
X149860000Y80670000D01*
G04 #@! TO.N,Net-(G5-Pad13)*
X149860000Y78130000D02*
X154940000Y78130000D01*
G04 #@! TO.N,Net-(G5-Pad12)*
X154940000Y75590000D02*
X149860000Y75590000D01*
G04 #@! TO.N,Net-(G5-Pad1)*
X149860000Y73050000D02*
X154940000Y73050000D01*
D85*
G04 #@! TO.N,/OUT_WASTEGATE*
X115100000Y19283200D02*
X120547840Y24731040D01*
X104312400Y38493000D02*
X104033000Y38213600D01*
X116378000Y16082000D02*
X115100000Y17360000D01*
X115100000Y17360000D02*
X115100000Y19283200D01*
X120547840Y24731040D02*
X120547840Y34881906D01*
X120547840Y34881906D02*
X116936746Y38493000D01*
X116936746Y38493000D02*
X104312400Y38493000D01*
D86*
G04 #@! TO.N,Net-(U3A--)*
X35600000Y67200000D02*
X34930000Y67200000D01*
X85209999Y106700000D02*
X83770199Y108139800D01*
X35265000Y65825000D02*
X35265000Y66865000D01*
X37173489Y74124274D02*
X37173489Y68773489D01*
X35265000Y66865000D02*
X34930000Y67200000D01*
X41539800Y108139800D02*
X37626511Y104226511D01*
X37626511Y74577296D02*
X37173489Y74124274D01*
X37173489Y68773489D02*
X35600000Y67200000D01*
X34300000Y67200000D02*
X33995000Y66895000D01*
X34930000Y67200000D02*
X34300000Y67200000D01*
X37626511Y104226511D02*
X37626511Y74577296D01*
X33995000Y66895000D02*
X33995000Y65825000D01*
X83770199Y108139800D02*
X41539800Y108139800D01*
D90*
G04 #@! TO.N,Net-(C17-Pad1)*
X86990001Y106700000D02*
X96220642Y106700000D01*
X100000000Y102920642D02*
X100000000Y102300000D01*
X96220642Y106700000D02*
X100000000Y102920642D01*
D86*
G04 #@! TO.N,Net-(U3B--)*
X36300000Y69300000D02*
X36535000Y69535000D01*
X36535000Y69535000D02*
X36535000Y70775000D01*
X35500000Y69300000D02*
X36300000Y69300000D01*
X35265000Y70775000D02*
X35265000Y69535000D01*
X35265000Y69535000D02*
X35500000Y69300000D01*
G04 #@! TO.N,/FUEL_PUMP_RELAY*
X86325000Y84056400D02*
X86354600Y84086000D01*
D90*
X86949960Y82199960D02*
X86650000Y81900000D01*
X86325000Y84050000D02*
X86949960Y83425040D01*
D86*
X86325000Y84050000D02*
X86325000Y84056400D01*
D90*
X86949960Y83425040D02*
X86949960Y82199960D01*
D85*
G04 #@! TO.N,/OUT_FUEL_PUMP_RELAY*
X104769600Y37477000D02*
X95600200Y37477000D01*
X95600200Y37477000D02*
X94609600Y36486400D01*
X104947400Y37654800D02*
X104769600Y37477000D01*
G04 #@! TO.N,/OUT_CHECK_ENGINE*
X78163100Y21055900D02*
X78760000Y20459000D01*
X77591600Y21627400D02*
X77591600Y23608600D01*
X78760000Y11315000D02*
X77548000Y10103000D01*
X77548000Y10103000D02*
X77548000Y10032000D01*
X78163100Y21055900D02*
X77591600Y21627400D01*
X78760000Y20459000D02*
X78760000Y11315000D01*
D90*
G04 #@! TO.N,/IDLE*
X88488200Y73545000D02*
X88488200Y83959000D01*
G04 #@! TO.N,/THRESHOLD_VR*
X91764800Y60438600D02*
X91764800Y76923200D01*
X91764800Y76923200D02*
X91841000Y76999400D01*
D86*
G04 #@! TO.N,Net-(M9-PULL_UP2)*
X27345000Y58830000D02*
X28145000Y58830000D01*
G04 #@! TO.N,unconnected-(M3-SWCLK-PadN8)*
X55325000Y105500000D02*
X56900000Y105500000D01*
X56900000Y105500000D02*
X59111600Y103288400D01*
X74315000Y103288400D02*
X75026200Y102577200D01*
X59111600Y103288400D02*
X74315000Y103288400D01*
G04 #@! TO.N,unconnected-(M3-SWDIO-PadN7)*
X54700000Y104575000D02*
X54700000Y102464987D01*
X74365800Y100859700D02*
X76125500Y99100000D01*
X57701201Y101940001D02*
X58309680Y102548480D01*
X58309680Y102548480D02*
X66749120Y102548480D01*
X54700000Y102464987D02*
X55224986Y101940001D01*
X74365800Y100875400D02*
X74365800Y100859700D01*
X66749120Y102548480D02*
X68422200Y100875400D01*
X55224986Y101940001D02*
X57701201Y101940001D01*
X68422200Y100875400D02*
X74365800Y100875400D01*
D90*
G04 #@! TO.N,+5VP*
X62308000Y7492000D02*
X62308000Y10032000D01*
X76900000Y8775000D02*
X75700500Y8775000D01*
X59768000Y7492000D02*
X62308000Y7492000D01*
G04 #@! TD*
G04 #@! TA.AperFunction,Conductor*
G04 #@! TO.N,GND*
G36*
X31712121Y27042998D02*
G01*
X31758614Y26989342D01*
X31770000Y26937000D01*
X31770000Y24395000D01*
X31749998Y24326879D01*
X31696342Y24280386D01*
X31644000Y24269000D01*
X26054000Y24269000D01*
X25985879Y24289002D01*
X25939386Y24342658D01*
X25928000Y24395000D01*
X25928000Y26937000D01*
X25948002Y27005121D01*
X26001658Y27051614D01*
X26054000Y27063000D01*
X31644000Y27063000D01*
X31712121Y27042998D01*
G37*
G04 #@! TD.AperFunction*
G04 #@! TD*
G04 #@! TA.AperFunction,Conductor*
G04 #@! TO.N,Net-(J1-GND)*
G36*
X88227121Y105884598D02*
G01*
X88273614Y105830942D01*
X88285000Y105778600D01*
X88285000Y100315600D01*
X88264998Y100247479D01*
X88211342Y100200986D01*
X88159000Y100189600D01*
X79318859Y100189600D01*
X79250738Y100209602D01*
X79223634Y100233088D01*
X79181126Y100282145D01*
X79060053Y100359953D01*
X78921961Y100400500D01*
X78826661Y100400500D01*
X78758540Y100420502D01*
X78737566Y100437405D01*
X78411605Y100763366D01*
X78377579Y100825678D01*
X78374700Y100852461D01*
X78374700Y102261162D01*
X78374699Y102261166D01*
X78354222Y102337586D01*
X78354221Y102337587D01*
X78354221Y102337589D01*
X78314660Y102406111D01*
X78258711Y102462060D01*
X77851020Y102869751D01*
X80699500Y102869751D01*
X80699500Y101730250D01*
X80704326Y101705987D01*
X80711133Y101671769D01*
X80755448Y101605448D01*
X80821769Y101561133D01*
X80880252Y101549500D01*
X80880253Y101549500D01*
X82019747Y101549500D01*
X82019748Y101549500D01*
X82078231Y101561133D01*
X82144552Y101605448D01*
X82188867Y101671769D01*
X82200500Y101730252D01*
X82200500Y101803987D01*
X82220502Y101872108D01*
X82274158Y101918601D01*
X82344432Y101928705D01*
X82409012Y101899211D01*
X82433185Y101871026D01*
X82459523Y101829110D01*
X82459526Y101829107D01*
X82459526Y101829106D01*
X82579105Y101709527D01*
X82579107Y101709526D01*
X82579110Y101709523D01*
X82722310Y101619544D01*
X82881941Y101563687D01*
X83050000Y101544751D01*
X83218059Y101563687D01*
X83377690Y101619544D01*
X83520890Y101709523D01*
X83640477Y101829110D01*
X83730456Y101972310D01*
X83786313Y102131941D01*
X83805249Y102300000D01*
X83786313Y102468059D01*
X83730456Y102627690D01*
X83640477Y102770890D01*
X83640473Y102770894D01*
X83640473Y102770895D01*
X83520894Y102890474D01*
X83520891Y102890476D01*
X83520890Y102890477D01*
X83439700Y102941493D01*
X83377689Y102980457D01*
X83268485Y103018669D01*
X83218059Y103036313D01*
X83050000Y103055249D01*
X82881941Y103036313D01*
X82881938Y103036313D01*
X82881938Y103036312D01*
X82722310Y102980457D01*
X82625981Y102919929D01*
X82579110Y102890477D01*
X82579108Y102890476D01*
X82579106Y102890474D01*
X82579105Y102890474D01*
X82459523Y102770892D01*
X82433186Y102728976D01*
X82380007Y102681939D01*
X82309840Y102671120D01*
X82244962Y102699954D01*
X82205972Y102759286D01*
X82200500Y102796014D01*
X82200500Y102869747D01*
X82200499Y102869751D01*
X82196376Y102890477D01*
X82188867Y102928231D01*
X82144552Y102994552D01*
X82078231Y103038867D01*
X82078228Y103038868D01*
X82019750Y103050500D01*
X82019748Y103050500D01*
X80880252Y103050500D01*
X80880249Y103050500D01*
X80821771Y103038868D01*
X80821768Y103038867D01*
X80755448Y102994552D01*
X80711133Y102928232D01*
X80711132Y102928229D01*
X80699500Y102869751D01*
X77851020Y102869751D01*
X76670771Y104050000D01*
X81494751Y104050000D01*
X81513687Y103881941D01*
X81513688Y103881939D01*
X81569543Y103722311D01*
X81569544Y103722310D01*
X81659523Y103579110D01*
X81659526Y103579107D01*
X81659526Y103579106D01*
X81779105Y103459527D01*
X81779107Y103459526D01*
X81779110Y103459523D01*
X81922310Y103369544D01*
X82081941Y103313687D01*
X82250000Y103294751D01*
X82418059Y103313687D01*
X82577690Y103369544D01*
X82720890Y103459523D01*
X82840477Y103579110D01*
X82930456Y103722310D01*
X82931070Y103724066D01*
X82931773Y103725047D01*
X82933524Y103728681D01*
X82934160Y103728375D01*
X82972447Y103781758D01*
X83038446Y103807922D01*
X83108114Y103794251D01*
X83159331Y103745084D01*
X83168929Y103724066D01*
X83169544Y103722310D01*
X83259523Y103579110D01*
X83259526Y103579107D01*
X83259526Y103579106D01*
X83379105Y103459527D01*
X83379107Y103459526D01*
X83379110Y103459523D01*
X83522310Y103369544D01*
X83681941Y103313687D01*
X83850000Y103294751D01*
X84018059Y103313687D01*
X84177690Y103369544D01*
X84320890Y103459523D01*
X84440477Y103579110D01*
X84530456Y103722310D01*
X84586313Y103881941D01*
X84605249Y104050000D01*
X84586313Y104218059D01*
X84530456Y104377690D01*
X84440477Y104520890D01*
X84440473Y104520894D01*
X84440473Y104520895D01*
X84320894Y104640474D01*
X84320891Y104640476D01*
X84320890Y104640477D01*
X84207984Y104711421D01*
X84177689Y104730457D01*
X84068485Y104768669D01*
X84018059Y104786313D01*
X83850000Y104805249D01*
X83681941Y104786313D01*
X83681938Y104786313D01*
X83681938Y104786312D01*
X83522310Y104730457D01*
X83429055Y104671860D01*
X83379110Y104640477D01*
X83379108Y104640476D01*
X83379106Y104640474D01*
X83379105Y104640474D01*
X83259526Y104520895D01*
X83259526Y104520894D01*
X83169545Y104377692D01*
X83168929Y104375931D01*
X83168222Y104374947D01*
X83166476Y104371319D01*
X83165840Y104371626D01*
X83127550Y104318240D01*
X83061549Y104292078D01*
X82991882Y104305752D01*
X82940666Y104354921D01*
X82931071Y104375931D01*
X82930456Y104377690D01*
X82840477Y104520890D01*
X82840473Y104520894D01*
X82840473Y104520895D01*
X82720894Y104640474D01*
X82720891Y104640476D01*
X82720890Y104640477D01*
X82607984Y104711421D01*
X82577689Y104730457D01*
X82468485Y104768669D01*
X82418059Y104786313D01*
X82250000Y104805249D01*
X82081941Y104786313D01*
X82081938Y104786313D01*
X82081938Y104786312D01*
X81922310Y104730457D01*
X81829055Y104671860D01*
X81779110Y104640477D01*
X81779108Y104640476D01*
X81779106Y104640474D01*
X81779105Y104640474D01*
X81659526Y104520895D01*
X81659526Y104520894D01*
X81569543Y104377690D01*
X81539587Y104292078D01*
X81513687Y104218059D01*
X81494751Y104050000D01*
X76670771Y104050000D01*
X76307705Y104413066D01*
X76273679Y104475378D01*
X76270800Y104502161D01*
X76270800Y105778600D01*
X76290802Y105846721D01*
X76344458Y105893214D01*
X76396800Y105904600D01*
X88159000Y105904600D01*
X88227121Y105884598D01*
G37*
G04 #@! TD.AperFunction*
G04 #@! TD*
G04 #@! TA.AperFunction,Conductor*
G04 #@! TO.N,GND*
G36*
X149662602Y117788998D02*
G01*
X149683576Y117772095D01*
X150912095Y116543576D01*
X150946121Y116481264D01*
X150949000Y116454481D01*
X150949000Y114091859D01*
X150949001Y114091845D01*
X150949001Y113851150D01*
X150985274Y113274615D01*
X150985274Y113274614D01*
X151057675Y112701507D01*
X151057677Y112701494D01*
X151165924Y112134046D01*
X151165925Y112134038D01*
X151309582Y111574535D01*
X151309589Y111574511D01*
X151488098Y111025120D01*
X151700754Y110488012D01*
X151700762Y110487994D01*
X151946713Y109965323D01*
X151946717Y109965315D01*
X152225015Y109459092D01*
X152225016Y109459091D01*
X152225024Y109459077D01*
X152534548Y108971346D01*
X152534556Y108971334D01*
X152874092Y108504004D01*
X152874101Y108503992D01*
X153080068Y108255020D01*
X153242328Y108058880D01*
X153637773Y107637774D01*
X153861693Y107427500D01*
X154058883Y107242327D01*
X154058890Y107242321D01*
X154058899Y107242313D01*
X154351201Y107000500D01*
X154503991Y106874101D01*
X154503994Y106874099D01*
X154503995Y106874098D01*
X154504002Y106874093D01*
X154948137Y106551410D01*
X154971342Y106534551D01*
X155008164Y106511183D01*
X155434753Y106240461D01*
X155459091Y106225016D01*
X155965314Y105946718D01*
X156488012Y105700754D01*
X157025123Y105488097D01*
X157276675Y105406363D01*
X157574510Y105309590D01*
X157574534Y105309583D01*
X158134037Y105165926D01*
X158134043Y105165926D01*
X158134056Y105165922D01*
X158701501Y105057676D01*
X159106005Y105006576D01*
X159274614Y104985275D01*
X159274618Y104985275D01*
X159274624Y104985274D01*
X159851149Y104949002D01*
X159851151Y104949001D01*
X159851161Y104949001D01*
X160102008Y104949001D01*
X162454482Y104949001D01*
X162522603Y104928999D01*
X162543577Y104912096D01*
X163772095Y103683578D01*
X163806121Y103621266D01*
X163809000Y103594483D01*
X163809000Y80467001D01*
X163788998Y80398880D01*
X163735342Y80352387D01*
X163683000Y80341001D01*
X161649996Y80341001D01*
X161649976Y80340999D01*
X161573277Y80340999D01*
X161322662Y80303225D01*
X161322660Y80303225D01*
X161322651Y80303223D01*
X161080484Y80228525D01*
X161080472Y80228520D01*
X160852128Y80118554D01*
X160852120Y80118550D01*
X160642729Y79975789D01*
X160642724Y79975785D01*
X160457011Y79803468D01*
X160456934Y79803397D01*
X160445639Y79789233D01*
X160298910Y79605242D01*
X160172191Y79385759D01*
X160172188Y79385751D01*
X160079597Y79149832D01*
X160079596Y79149830D01*
X160023199Y78902741D01*
X160004259Y78650000D01*
X160023199Y78397260D01*
X160079596Y78150171D01*
X160079597Y78150169D01*
X160172188Y77914250D01*
X160172191Y77914242D01*
X160298910Y77694759D01*
X160298912Y77694756D01*
X160298913Y77694755D01*
X160456934Y77496603D01*
X160642723Y77324216D01*
X160642729Y77324212D01*
X160852120Y77181451D01*
X160852124Y77181449D01*
X160852130Y77181445D01*
X161080476Y77071479D01*
X161080479Y77071479D01*
X161080484Y77071476D01*
X161322651Y76996778D01*
X161322653Y76996778D01*
X161322662Y76996775D01*
X161573277Y76959001D01*
X161662008Y76959001D01*
X163683000Y76959001D01*
X163751121Y76938999D01*
X163797614Y76885343D01*
X163809000Y76833001D01*
X163809000Y14195519D01*
X163788998Y14127398D01*
X163772095Y14106424D01*
X162543576Y12877905D01*
X162481264Y12843879D01*
X162454481Y12841000D01*
X157926908Y12841000D01*
X157858787Y12861002D01*
X157812294Y12914658D01*
X157800908Y12967141D01*
X157900000Y99375000D01*
X156916662Y99473334D01*
X156884345Y99480964D01*
X152721003Y101066999D01*
X152683059Y101089769D01*
X149810006Y103594482D01*
X148814119Y104462691D01*
X148790072Y104490884D01*
X148526815Y104912095D01*
X146812510Y107654984D01*
X146795583Y107698188D01*
X146723809Y108075000D01*
X146000000Y111875000D01*
X18200000Y111875000D01*
X17503383Y108093368D01*
X17491434Y108058405D01*
X15913057Y105000299D01*
X15877331Y104957772D01*
X10923728Y101193034D01*
X10870708Y101169508D01*
X6100000Y100275000D01*
X6050448Y12966928D01*
X6030407Y12898819D01*
X5976725Y12852357D01*
X5924448Y12841000D01*
X1545520Y12841000D01*
X1477399Y12861002D01*
X1456425Y12877905D01*
X227905Y14106425D01*
X193879Y14168737D01*
X191000Y14195520D01*
X191000Y76833000D01*
X211002Y76901121D01*
X264658Y76947614D01*
X317000Y76959000D01*
X2299978Y76959000D01*
X2426704Y76958986D01*
X2426704Y76958987D01*
X2426710Y76958986D01*
X2677347Y76996737D01*
X2919558Y77071425D01*
X3147930Y77181380D01*
X3357362Y77324147D01*
X3543175Y77496535D01*
X3701217Y77694694D01*
X3827957Y77914196D01*
X3920564Y78150136D01*
X3976969Y78397245D01*
X3995912Y78650000D01*
X3976969Y78902755D01*
X3958757Y78982543D01*
X3920564Y79149865D01*
X3920563Y79149867D01*
X3827955Y79385809D01*
X3731119Y79553518D01*
X3701217Y79605306D01*
X3677774Y79634700D01*
X3543179Y79803461D01*
X3543173Y79803468D01*
X3357361Y79975854D01*
X3147934Y80118618D01*
X2919559Y80228575D01*
X2677351Y80303262D01*
X2677349Y80303263D01*
X2677347Y80303263D01*
X2426810Y80340999D01*
X2426704Y80341015D01*
X2299978Y80341000D01*
X317000Y80341000D01*
X248879Y80361002D01*
X202386Y80414658D01*
X191000Y80467000D01*
X191000Y103594482D01*
X211002Y103662603D01*
X227905Y103683577D01*
X1456424Y104912095D01*
X1518736Y104946121D01*
X1545519Y104949000D01*
X4148849Y104949000D01*
X4148849Y104949001D01*
X4725376Y104985273D01*
X4725382Y104985274D01*
X4725385Y104985274D01*
X4725386Y104985274D01*
X4873252Y105003954D01*
X5298499Y105057675D01*
X5865944Y105165921D01*
X5865957Y105165925D01*
X5865962Y105165925D01*
X6383901Y105298910D01*
X6425473Y105309584D01*
X6425483Y105309588D01*
X6425489Y105309589D01*
X6549436Y105349862D01*
X6974877Y105488096D01*
X7511988Y105700753D01*
X8034686Y105946717D01*
X8540909Y106225015D01*
X9028658Y106534550D01*
X9496009Y106874100D01*
X9941118Y107242326D01*
X10362227Y107637773D01*
X10757674Y108058882D01*
X11125900Y108503991D01*
X11465450Y108971342D01*
X11774985Y109459091D01*
X12053283Y109965314D01*
X12299247Y110488012D01*
X12511904Y111025123D01*
X12614041Y111339470D01*
X12690411Y111574510D01*
X12690418Y111574534D01*
X12834075Y112134037D01*
X12834076Y112134045D01*
X12834076Y112134046D01*
X12834079Y112134056D01*
X12942325Y112701501D01*
X13014727Y113274624D01*
X13050999Y113851149D01*
X13051000Y113851150D01*
X13051000Y116454481D01*
X13071002Y116522602D01*
X13087905Y116543576D01*
X14316423Y117772095D01*
X14378735Y117806120D01*
X14405518Y117809000D01*
X149594481Y117809000D01*
X149662602Y117788998D01*
G37*
G04 #@! TD.AperFunction*
G04 #@! TD*
M02*
