G04 #@! TF.GenerationSoftware,KiCad,Pcbnew,8.0.8*
G04 #@! TF.CreationDate,2025-12-13T23:59:38-05:00*
G04 #@! TF.ProjectId,hellen121vag,68656c6c-656e-4313-9231-7661672e6b69,d*
G04 #@! TF.SameCoordinates,PX2b953a0PY6943058*
G04 #@! TF.FileFunction,Soldermask,Bot*
G04 #@! TF.FilePolarity,Negative*
%FSLAX46Y46*%
G04 Gerber Fmt 4.6, Leading zero omitted, Abs format (unit mm)*
G04 Created by KiCad (PCBNEW 8.0.8) date 2025-12-13 23:59:38*
%MOMM*%
%LPD*%
G01*
G04 APERTURE LIST*
%ADD10C,0.600000*%
%ADD11C,1.500000*%
%ADD12C,2.600000*%
%ADD13C,3.700000*%
%ADD14C,2.200000*%
%ADD15C,1.700000*%
%ADD16C,0.599999*%
%ADD17O,0.399999X0.200000*%
%ADD18O,0.599999X0.399999*%
%ADD19O,0.800001X0.599999*%
%ADD20O,0.599999X0.800001*%
%ADD21O,0.399999X0.599999*%
%ADD22O,11.400000X1.100000*%
%ADD23O,1.000001X1.500000*%
%ADD24C,1.524000*%
%ADD25O,1.700000X1.700000*%
%ADD26R,1.700000X1.700000*%
%ADD27O,1.100000X2.400000*%
%ADD28C,1.100000*%
%ADD29R,1.100000X1.100000*%
%ADD30C,2.000000*%
G04 APERTURE END LIST*
D10*
G04 #@! TO.C,M11*
X99909400Y30011600D03*
X99909400Y31211600D03*
X99909400Y28811600D03*
X99909400Y27611600D03*
X114334400Y34071600D03*
X114334400Y35071600D03*
G04 #@! TD*
D11*
G04 #@! TO.C,M8*
X93615981Y62312109D03*
X93615981Y55912112D03*
X93615981Y54012109D03*
X93615981Y49712109D03*
D10*
X94065980Y47312112D03*
X94065980Y46312111D03*
D11*
X93615981Y43462109D03*
X78115984Y62762111D03*
X78115984Y60912112D03*
X78115984Y55962109D03*
X78115984Y43912111D03*
G04 #@! TD*
D10*
G04 #@! TO.C,M5*
X31800000Y34274998D03*
X31800000Y33324998D03*
X31800000Y32375000D03*
X23100000Y33374998D03*
X23100000Y34274998D03*
G04 #@! TD*
D12*
G04 #@! TO.C,P1*
X138448000Y18622000D03*
X132548000Y18622000D03*
X126748000Y18622000D03*
X135548000Y12822000D03*
X129648000Y12822000D03*
X138448000Y10492000D03*
X132548000Y10492000D03*
X126748000Y10492000D03*
D11*
X118918000Y18622000D03*
X116378000Y18622000D03*
X113838000Y18622000D03*
X111298000Y18622000D03*
X108758000Y18622000D03*
X106218000Y18622000D03*
X103678000Y18622000D03*
X101138000Y18622000D03*
X118918000Y16082000D03*
X116378000Y16082000D03*
X113838000Y16082000D03*
X111298000Y16082000D03*
X108758000Y16082000D03*
X106218000Y16082000D03*
X103678000Y16082000D03*
X101138000Y16082000D03*
X118918000Y10032000D03*
X116378000Y10032000D03*
X113838000Y10032000D03*
X111298000Y10032000D03*
X108758000Y10032000D03*
X106218000Y10032000D03*
X103678000Y10032000D03*
X101138000Y10032000D03*
X118918000Y7492000D03*
X116378000Y7492000D03*
X113838000Y7492000D03*
X111298000Y7492000D03*
X108758000Y7492000D03*
X106218000Y7492000D03*
X103678000Y7492000D03*
X101138000Y7492000D03*
X39448000Y7492000D03*
X41988000Y7492000D03*
X44528000Y7492000D03*
X47068000Y7492000D03*
X49608000Y7492000D03*
X52148000Y7492000D03*
X54688000Y7492000D03*
X57228000Y7492000D03*
X59768000Y7492000D03*
X62308000Y7492000D03*
X64848000Y7492000D03*
X67388000Y7492000D03*
X69928000Y7492000D03*
X72468000Y7492000D03*
X75008000Y7492000D03*
X77548000Y7492000D03*
X80088000Y7492000D03*
X82628000Y7492000D03*
X85168000Y7492000D03*
X39448000Y10032000D03*
X41988000Y10032000D03*
X44528000Y10032000D03*
X47068000Y10032000D03*
X49608000Y10032000D03*
X52148000Y10032000D03*
X54688000Y10032000D03*
X57228000Y10032000D03*
X59768000Y10032000D03*
X62308000Y10032000D03*
X64848000Y10032000D03*
X67388000Y10032000D03*
X69928000Y10032000D03*
X72468000Y10032000D03*
X75008000Y10032000D03*
X77548000Y10032000D03*
X80088000Y10032000D03*
X82628000Y10032000D03*
X85168000Y10032000D03*
X39448000Y16082000D03*
X41988000Y16082000D03*
X44528000Y16082000D03*
X47068000Y16082000D03*
X49608000Y16082000D03*
X52148000Y16082000D03*
X54688000Y16082000D03*
X57228000Y16082000D03*
X59768000Y16082000D03*
X62308000Y16082000D03*
X64848000Y16082000D03*
X67388000Y16082000D03*
X69928000Y16082000D03*
X72468000Y16082000D03*
X75008000Y16082000D03*
X77548000Y16082000D03*
X80088000Y16082000D03*
X82628000Y16082000D03*
X85168000Y16082000D03*
X39448000Y18622000D03*
X41988000Y18622000D03*
X44528000Y18622000D03*
X47068000Y18622000D03*
X49608000Y18622000D03*
X52148000Y18622000D03*
X54688000Y18622000D03*
X57228000Y18622000D03*
X59768000Y18622000D03*
X62308000Y18622000D03*
X64848000Y18622000D03*
X67388000Y18622000D03*
X69928000Y18622000D03*
X72468000Y18622000D03*
X75008000Y18622000D03*
X77548000Y18622000D03*
X80088000Y18622000D03*
X82628000Y18622000D03*
X85168000Y18622000D03*
D12*
X31548000Y18622000D03*
X25748000Y18622000D03*
X28648000Y12822000D03*
X31548000Y10492000D03*
X25748000Y10492000D03*
D13*
X145348000Y5492000D03*
D14*
X142898000Y13292000D03*
D13*
X93148000Y5492000D03*
D14*
X21098000Y13292000D03*
D13*
X18648000Y5492000D03*
G04 #@! TD*
D15*
G04 #@! TO.C,P2*
X44450000Y39198941D03*
G04 #@! TD*
G04 #@! TO.C,G5*
X149860000Y73050000D03*
X149860000Y75590000D03*
X149860000Y78130000D03*
X149860000Y80670000D03*
X149860000Y83210000D03*
X152400000Y73050000D03*
X152400000Y75590000D03*
X152400000Y78130000D03*
X152400000Y80670000D03*
X152400000Y83210000D03*
X154940000Y73050000D03*
X154940000Y75590000D03*
X154940000Y78130000D03*
X154940000Y80670000D03*
X154940000Y83210000D03*
G04 #@! TD*
G04 #@! TO.C,P17*
X57200000Y28275000D03*
G04 #@! TD*
D16*
G04 #@! TO.C,M7*
X32507387Y93914190D03*
X34342397Y93489182D03*
X32292389Y92939185D03*
X32507384Y92064226D03*
X32582391Y91214203D03*
X34342397Y90889187D03*
X33032397Y89589220D03*
X34342397Y88939203D03*
X28417382Y96114206D03*
X32492388Y95814204D03*
G04 #@! TD*
D17*
G04 #@! TO.C,M6*
X95346545Y84951214D03*
X95346545Y84511215D03*
X95346545Y84071213D03*
X95346545Y83631214D03*
X95346545Y83191215D03*
X95346545Y82751213D03*
X95346545Y82311214D03*
X95346545Y78906184D03*
X95346545Y78246186D03*
X95346545Y77586184D03*
X95346545Y76926186D03*
X95346545Y75801215D03*
X95346545Y75361216D03*
X95346545Y74921214D03*
X95346545Y74481215D03*
X95346545Y74041216D03*
X95346545Y73601214D03*
X95346545Y73161215D03*
X95346545Y72721216D03*
X95346545Y70526214D03*
X95346545Y69730378D03*
X95346545Y68930339D03*
X95346545Y68130300D03*
X95346545Y67426215D03*
X95346545Y66366187D03*
X95346545Y65706185D03*
D18*
X95451546Y61651215D03*
X95451546Y55801214D03*
D19*
X95546544Y54976222D03*
X95546544Y54101220D03*
X95546544Y53026216D03*
D18*
X95451546Y51826216D03*
X95451546Y51176214D03*
D19*
X95546544Y49901216D03*
D18*
X95451546Y48931451D03*
D19*
X95546544Y47626214D03*
D18*
X95451546Y46806452D03*
X95451546Y46126212D03*
X95451546Y45431453D03*
D20*
X96351547Y44501214D03*
X97526546Y44501214D03*
X98876545Y44501214D03*
X100051544Y44501214D03*
D21*
X101071545Y44401214D03*
X101781787Y44401214D03*
X102681783Y44401214D03*
X104756783Y44401214D03*
X105651546Y44401214D03*
X106381783Y44401214D03*
D20*
X107251540Y44501219D03*
D21*
X108226552Y44401214D03*
D22*
X114676544Y44701213D03*
D23*
X121120679Y44826214D03*
X122376544Y44826214D03*
G04 #@! TD*
D15*
G04 #@! TO.C,P5*
X50675000Y39173941D03*
G04 #@! TD*
G04 #@! TO.C,P61*
X40675000Y32675000D03*
G04 #@! TD*
G04 #@! TO.C,P44*
X76744800Y30212600D03*
G04 #@! TD*
G04 #@! TO.C,P16*
X68000000Y37375000D03*
G04 #@! TD*
G04 #@! TO.C,P6*
X116936200Y34225800D03*
G04 #@! TD*
G04 #@! TO.C,P66*
X79419800Y30212600D03*
G04 #@! TD*
G04 #@! TO.C,P12*
X69300000Y25625000D03*
G04 #@! TD*
G04 #@! TO.C,P13*
X66575000Y25550000D03*
G04 #@! TD*
D24*
G04 #@! TO.C,R13*
X8700000Y31830000D03*
X8700000Y28020000D03*
G04 #@! TD*
D15*
G04 #@! TO.C,G2*
X149860000Y86360000D03*
X149860000Y88900000D03*
X149860000Y91440000D03*
X149860000Y93980000D03*
X149860000Y96520000D03*
X152400000Y86360000D03*
X152400000Y88900000D03*
X152400000Y91440000D03*
X152400000Y93980000D03*
X152400000Y96520000D03*
X154940000Y86360000D03*
X154940000Y88900000D03*
X154940000Y91440000D03*
X154940000Y93980000D03*
X154940000Y96520000D03*
G04 #@! TD*
D24*
G04 #@! TO.C,R4*
X54600000Y26295000D03*
X54600000Y30105000D03*
G04 #@! TD*
D15*
G04 #@! TO.C,P63*
X86775000Y25575000D03*
G04 #@! TD*
G04 #@! TO.C,P4*
X53500000Y39173941D03*
G04 #@! TD*
G04 #@! TO.C,P28*
X74094800Y30212600D03*
G04 #@! TD*
G04 #@! TO.C,P74*
X45925000Y32675000D03*
G04 #@! TD*
D24*
G04 #@! TO.C,R8*
X48350000Y29955000D03*
X48350000Y26145000D03*
G04 #@! TD*
G04 #@! TO.C,F1*
X124075000Y26775000D03*
X124075000Y31675000D03*
G04 #@! TD*
D15*
G04 #@! TO.C,P67*
X82112800Y30212600D03*
G04 #@! TD*
G04 #@! TO.C,P9*
X71444800Y30212600D03*
G04 #@! TD*
G04 #@! TO.C,P7*
X90500000Y40325000D03*
G04 #@! TD*
G04 #@! TO.C,P49*
X72625000Y25575000D03*
G04 #@! TD*
D24*
G04 #@! TO.C,R10*
X13300000Y31880000D03*
X13300000Y28070000D03*
G04 #@! TD*
D15*
G04 #@! TO.C,P14*
X63775000Y25625000D03*
G04 #@! TD*
D24*
G04 #@! TO.C,R9*
X51600000Y26145000D03*
X51600000Y29955000D03*
G04 #@! TD*
D15*
G04 #@! TO.C,P56*
X54782400Y32676400D03*
G04 #@! TD*
G04 #@! TO.C,P10*
X68794800Y30212600D03*
G04 #@! TD*
G04 #@! TO.C,P64*
X84225000Y25575000D03*
G04 #@! TD*
G04 #@! TO.C,P69*
X87446800Y30212600D03*
G04 #@! TD*
G04 #@! TO.C,P80*
X39000000Y28875000D03*
G04 #@! TD*
D25*
G04 #@! TO.C,J8*
X13200000Y66250000D03*
X13200000Y63710000D03*
X13200000Y61170000D03*
X13200000Y58630000D03*
X13200000Y56090000D03*
D26*
X13200000Y53550000D03*
G04 #@! TD*
D15*
G04 #@! TO.C,G3*
X144900000Y104600000D03*
X144900000Y102060000D03*
X144900000Y99520000D03*
X144900000Y96980000D03*
X144900000Y94440000D03*
X142360000Y104600000D03*
X142360000Y102060000D03*
X142360000Y99520000D03*
X142360000Y96980000D03*
X142360000Y94440000D03*
X139820000Y104600000D03*
X139820000Y102060000D03*
X139820000Y99520000D03*
X139820000Y96980000D03*
X139820000Y94440000D03*
G04 #@! TD*
G04 #@! TO.C,P3*
X47800000Y39175000D03*
G04 #@! TD*
D24*
G04 #@! TO.C,R2*
X46325000Y26165000D03*
X46325000Y29975000D03*
G04 #@! TD*
D15*
G04 #@! TO.C,P41*
X43200000Y32675000D03*
G04 #@! TD*
D24*
G04 #@! TO.C,R12*
X15600000Y31880021D03*
X15600000Y28070021D03*
G04 #@! TD*
G04 #@! TO.C,F2*
X126975000Y26775000D03*
X126975000Y31675000D03*
G04 #@! TD*
D15*
G04 #@! TO.C,G1*
X149860000Y59640000D03*
X149860000Y62180000D03*
X149860000Y64720000D03*
X149860000Y67260000D03*
X149860000Y69800000D03*
X152400000Y59640000D03*
X152400000Y62180000D03*
X152400000Y64720000D03*
X152400000Y67260000D03*
X152400000Y69800000D03*
X154940000Y59640000D03*
X154940000Y62180000D03*
X154940000Y64720000D03*
X154940000Y67260000D03*
X154940000Y69800000D03*
G04 #@! TD*
G04 #@! TO.C,P15*
X77337600Y41363200D03*
G04 #@! TD*
G04 #@! TO.C,J10*
G36*
G01*
X93339340Y103360660D02*
X93339340Y103360660D01*
G75*
G02*
X95036396Y103360660I848528J-848528D01*
G01*
X95460660Y102936396D01*
G75*
G02*
X95460660Y101239340I-848528J-848528D01*
G01*
X95460660Y101239340D01*
G75*
G02*
X93763604Y101239340I-848528J848528D01*
G01*
X93339340Y101663604D01*
G75*
G02*
X93339340Y103360660I848528J848528D01*
G01*
G37*
G36*
G01*
X95239340Y105560660D02*
X95239340Y105560660D01*
G75*
G02*
X96936396Y105560660I848528J-848528D01*
G01*
X97360660Y105136396D01*
G75*
G02*
X97360660Y103439340I-848528J-848528D01*
G01*
X97360660Y103439340D01*
G75*
G02*
X95663604Y103439340I-848528J848528D01*
G01*
X95239340Y103863604D01*
G75*
G02*
X95239340Y105560660I848528J848528D01*
G01*
G37*
G36*
G01*
X101439340Y105560660D02*
X101439340Y105560660D01*
G75*
G02*
X103136396Y105560660I848528J-848528D01*
G01*
X103560660Y105136396D01*
G75*
G02*
X103560660Y103439340I-848528J-848528D01*
G01*
X103560660Y103439340D01*
G75*
G02*
X101863604Y103439340I-848528J848528D01*
G01*
X101439340Y103863604D01*
G75*
G02*
X101439340Y105560660I848528J848528D01*
G01*
G37*
G36*
G01*
X98939340Y103360660D02*
X98939340Y103360660D01*
G75*
G02*
X100636396Y103360660I848528J-848528D01*
G01*
X101060660Y102936396D01*
G75*
G02*
X101060660Y101239340I-848528J-848528D01*
G01*
X101060660Y101239340D01*
G75*
G02*
X99363604Y101239340I-848528J848528D01*
G01*
X98939340Y101663604D01*
G75*
G02*
X98939340Y103360660I848528J848528D01*
G01*
G37*
G36*
G01*
X89639340Y105560660D02*
X89639340Y105560660D01*
G75*
G02*
X91336396Y105560660I848528J-848528D01*
G01*
X91760660Y105136396D01*
G75*
G02*
X91760660Y103439340I-848528J-848528D01*
G01*
X91760660Y103439340D01*
G75*
G02*
X90063604Y103439340I-848528J848528D01*
G01*
X89639340Y103863604D01*
G75*
G02*
X89639340Y105560660I848528J848528D01*
G01*
G37*
G04 #@! TD*
G04 #@! TO.C,P46*
X78875000Y25575000D03*
G04 #@! TD*
G04 #@! TO.C,P20*
X51350000Y32650000D03*
G04 #@! TD*
G04 #@! TO.C,P40*
X48650000Y32650000D03*
G04 #@! TD*
D26*
G04 #@! TO.C,J7*
X73280000Y99500000D03*
D25*
X70740000Y99500000D03*
X68200000Y99500000D03*
X65660000Y99500000D03*
X63120000Y99500000D03*
X60580000Y99500000D03*
X58040000Y99500000D03*
X55500000Y99500000D03*
G04 #@! TD*
D15*
G04 #@! TO.C,P68*
X84754400Y30212600D03*
G04 #@! TD*
D24*
G04 #@! TO.C,R3*
X41800000Y29910000D03*
X41800000Y26100000D03*
G04 #@! TD*
D15*
G04 #@! TO.C,P8*
X80741200Y42785600D03*
G04 #@! TD*
G04 #@! TO.C,P48*
X75375000Y25575000D03*
G04 #@! TD*
G04 #@! TO.C,P45*
X81575000Y25575000D03*
G04 #@! TD*
D27*
G04 #@! TO.C,J1*
X86700000Y103175000D03*
X79400000Y103175000D03*
D28*
X84650000Y102300000D03*
X83850000Y104050000D03*
X83050000Y102300000D03*
X82250000Y104050000D03*
D29*
X81450000Y102300000D03*
G04 #@! TD*
D15*
G04 #@! TO.C,P11*
X66144800Y30212600D03*
G04 #@! TD*
G04 #@! TO.C,P43*
X39000000Y25875000D03*
G04 #@! TD*
D24*
G04 #@! TO.C,R11*
X11000000Y31880000D03*
X11000000Y28070000D03*
G04 #@! TD*
D30*
G04 #@! TO.C,J6*
X13662000Y73079000D03*
G04 #@! TD*
M02*
