G04 #@! TF.GenerationSoftware,KiCad,Pcbnew,8.0.8*
G04 #@! TF.CreationDate,2025-12-17T16:46:47-05:00*
G04 #@! TF.ProjectId,hellen121vag,68656c6c-656e-4313-9231-7661672e6b69,d*
G04 #@! TF.SameCoordinates,PX2b953a0PY6943058*
G04 #@! TF.FileFunction,Soldermask,Bot*
G04 #@! TF.FilePolarity,Negative*
%FSLAX46Y46*%
G04 Gerber Fmt 4.6, Leading zero omitted, Abs format (unit mm)*
G04 Created by KiCad (PCBNEW 8.0.8) date 2025-12-17 16:46:47*
%MOMM*%
%LPD*%
G01*
G04 APERTURE LIST*
%ADD10C,2.600000*%
%ADD11C,1.500000*%
%ADD12C,3.700000*%
%ADD13C,2.200000*%
%ADD14C,0.600000*%
%ADD15C,1.524000*%
%ADD16O,1.700000X1.850000*%
%ADD17R,1.100000X1.100000*%
%ADD18C,1.100000*%
%ADD19O,2.400000X1.100000*%
%ADD20C,0.599999*%
G04 APERTURE END LIST*
D10*
G04 #@! TO.C,P1*
X138448000Y18622000D03*
X132548000Y18622000D03*
X126748000Y18622000D03*
X135548000Y12822000D03*
X129648000Y12822000D03*
X138448000Y10492000D03*
X132548000Y10492000D03*
X126748000Y10492000D03*
D11*
X118918000Y18622000D03*
X116378000Y18622000D03*
X113838000Y18622000D03*
X111298000Y18622000D03*
X108758000Y18622000D03*
X106218000Y18622000D03*
X103678000Y18622000D03*
X101138000Y18622000D03*
X118918000Y16082000D03*
X116378000Y16082000D03*
X113838000Y16082000D03*
X111298000Y16082000D03*
X108758000Y16082000D03*
X106218000Y16082000D03*
X103678000Y16082000D03*
X101138000Y16082000D03*
X118918000Y10032000D03*
X116378000Y10032000D03*
X113838000Y10032000D03*
X111298000Y10032000D03*
X108758000Y10032000D03*
X106218000Y10032000D03*
X103678000Y10032000D03*
X101138000Y10032000D03*
X118918000Y7492000D03*
X116378000Y7492000D03*
X113838000Y7492000D03*
X111298000Y7492000D03*
X108758000Y7492000D03*
X106218000Y7492000D03*
X103678000Y7492000D03*
X101138000Y7492000D03*
X39448000Y7492000D03*
X41988000Y7492000D03*
X44528000Y7492000D03*
X47068000Y7492000D03*
X49608000Y7492000D03*
X52148000Y7492000D03*
X54688000Y7492000D03*
X57228000Y7492000D03*
X59768000Y7492000D03*
X62308000Y7492000D03*
X64848000Y7492000D03*
X67388000Y7492000D03*
X69928000Y7492000D03*
X72468000Y7492000D03*
X75008000Y7492000D03*
X77548000Y7492000D03*
X80088000Y7492000D03*
X82628000Y7492000D03*
X85168000Y7492000D03*
X39448000Y10032000D03*
X41988000Y10032000D03*
X44528000Y10032000D03*
X47068000Y10032000D03*
X49608000Y10032000D03*
X52148000Y10032000D03*
X54688000Y10032000D03*
X57228000Y10032000D03*
X59768000Y10032000D03*
X62308000Y10032000D03*
X64848000Y10032000D03*
X67388000Y10032000D03*
X69928000Y10032000D03*
X72468000Y10032000D03*
X75008000Y10032000D03*
X77548000Y10032000D03*
X80088000Y10032000D03*
X82628000Y10032000D03*
X85168000Y10032000D03*
X39448000Y16082000D03*
X41988000Y16082000D03*
X44528000Y16082000D03*
X47068000Y16082000D03*
X49608000Y16082000D03*
X52148000Y16082000D03*
X54688000Y16082000D03*
X57228000Y16082000D03*
X59768000Y16082000D03*
X62308000Y16082000D03*
X64848000Y16082000D03*
X67388000Y16082000D03*
X69928000Y16082000D03*
X72468000Y16082000D03*
X75008000Y16082000D03*
X77548000Y16082000D03*
X80088000Y16082000D03*
X82628000Y16082000D03*
X85168000Y16082000D03*
X39448000Y18622000D03*
X41988000Y18622000D03*
X44528000Y18622000D03*
X47068000Y18622000D03*
X49608000Y18622000D03*
X52148000Y18622000D03*
X54688000Y18622000D03*
X57228000Y18622000D03*
X59768000Y18622000D03*
X62308000Y18622000D03*
X64848000Y18622000D03*
X67388000Y18622000D03*
X69928000Y18622000D03*
X72468000Y18622000D03*
X75008000Y18622000D03*
X77548000Y18622000D03*
X80088000Y18622000D03*
X82628000Y18622000D03*
X85168000Y18622000D03*
D10*
X31548000Y18622000D03*
X25748000Y18622000D03*
X28648000Y12822000D03*
X31548000Y10492000D03*
X25748000Y10492000D03*
D12*
X145348000Y5492000D03*
D13*
X142898000Y13292000D03*
D12*
X93148000Y5492000D03*
D13*
X21098000Y13292000D03*
D12*
X18648000Y5492000D03*
G04 #@! TD*
D11*
G04 #@! TO.C,M1*
X128825004Y90000006D03*
X128825004Y77950008D03*
X128825004Y73000005D03*
X128825004Y71150006D03*
X113325007Y90450008D03*
D14*
X112875008Y87600006D03*
X112875008Y86600005D03*
D11*
X113325007Y84200008D03*
X113325007Y79900008D03*
X113325007Y78000005D03*
X113325007Y71600008D03*
G04 #@! TD*
D15*
G04 #@! TO.C,F3*
X50025005Y68100005D03*
X45125005Y68100005D03*
G04 #@! TD*
G04 #@! TO.C,F1*
X132575005Y49050005D03*
X132575005Y44150005D03*
G04 #@! TD*
D14*
G04 #@! TO.C,M3*
X73510005Y44000005D03*
X72510005Y44000005D03*
X66050005Y58425005D03*
X67250005Y58425005D03*
X69650005Y58425005D03*
X68450005Y58425005D03*
G04 #@! TD*
D15*
G04 #@! TO.C,F2*
X130075005Y49050005D03*
X130075005Y44150005D03*
G04 #@! TD*
D10*
G04 #@! TO.C,P2*
X138400000Y18505000D03*
X132500000Y18505000D03*
X126700000Y18505000D03*
X135500000Y12705000D03*
X129600000Y12705000D03*
X138400000Y10375000D03*
X132500000Y10375000D03*
X126700000Y10375000D03*
D11*
X118870000Y18505000D03*
X116330000Y18505000D03*
X113790000Y18505000D03*
X111250000Y18505000D03*
X108710000Y18505000D03*
X106170000Y18505000D03*
X103630000Y18505000D03*
X101090000Y18505000D03*
X118870000Y15965000D03*
X116330000Y15965000D03*
X113790000Y15965000D03*
X111250000Y15965000D03*
X108710000Y15965000D03*
X106170000Y15965000D03*
X103630000Y15965000D03*
X101090000Y15965000D03*
X118870000Y9915000D03*
X116330000Y9915000D03*
X113790000Y9915000D03*
X111250000Y9915000D03*
X108710000Y9915000D03*
X106170000Y9915000D03*
X103630000Y9915000D03*
X101090000Y9915000D03*
X118870000Y7375000D03*
X116330000Y7375000D03*
X113790000Y7375000D03*
X111250000Y7375000D03*
X108710000Y7375000D03*
X106170000Y7375000D03*
X103630000Y7375000D03*
X101090000Y7375000D03*
X39400000Y7375000D03*
X41940000Y7375000D03*
X44480000Y7375000D03*
X47020000Y7375000D03*
X49560000Y7375000D03*
X52100000Y7375000D03*
X54640000Y7375000D03*
X57180000Y7375000D03*
X59720000Y7375000D03*
X62260000Y7375000D03*
X64800000Y7375000D03*
X67340000Y7375000D03*
X69880000Y7375000D03*
X72420000Y7375000D03*
X74960000Y7375000D03*
X77500000Y7375000D03*
X80040000Y7375000D03*
X82580000Y7375000D03*
X85120000Y7375000D03*
X39400000Y9915000D03*
X41940000Y9915000D03*
X44480000Y9915000D03*
X47020000Y9915000D03*
X49560000Y9915000D03*
X52100000Y9915000D03*
X54640000Y9915000D03*
X57180000Y9915000D03*
X59720000Y9915000D03*
X62260000Y9915000D03*
X64800000Y9915000D03*
X67340000Y9915000D03*
X69880000Y9915000D03*
X72420000Y9915000D03*
X74960000Y9915000D03*
X77500000Y9915000D03*
X80040000Y9915000D03*
X82580000Y9915000D03*
X85120000Y9915000D03*
X39400000Y15965000D03*
X41940000Y15965000D03*
X44480000Y15965000D03*
X47020000Y15965000D03*
X49560000Y15965000D03*
X52100000Y15965000D03*
X54640000Y15965000D03*
X57180000Y15965000D03*
X59720000Y15965000D03*
X62260000Y15965000D03*
X64800000Y15965000D03*
X67340000Y15965000D03*
X69880000Y15965000D03*
X72420000Y15965000D03*
X74960000Y15965000D03*
X77500000Y15965000D03*
X80040000Y15965000D03*
X82580000Y15965000D03*
X85120000Y15965000D03*
X39400000Y18505000D03*
X41940000Y18505000D03*
X44480000Y18505000D03*
X47020000Y18505000D03*
X49560000Y18505000D03*
X52100000Y18505000D03*
X54640000Y18505000D03*
X57180000Y18505000D03*
X59720000Y18505000D03*
X62260000Y18505000D03*
X64800000Y18505000D03*
X67340000Y18505000D03*
X69880000Y18505000D03*
X72420000Y18505000D03*
X74960000Y18505000D03*
X77500000Y18505000D03*
X80040000Y18505000D03*
X82580000Y18505000D03*
X85120000Y18505000D03*
D10*
X31500000Y18505000D03*
X25700000Y18505000D03*
X28600000Y12705000D03*
X31500000Y10375000D03*
X25700000Y10375000D03*
D12*
X145300000Y5375000D03*
D13*
X142850000Y13175000D03*
D12*
X93100000Y5375000D03*
D13*
X21050000Y13175000D03*
D12*
X18600000Y5375000D03*
G04 #@! TD*
D15*
G04 #@! TO.C,R4*
X110575005Y95955006D03*
X110575005Y92145006D03*
G04 #@! TD*
D14*
G04 #@! TO.C,M4*
X63335005Y43812505D03*
X62335005Y43812505D03*
X55875005Y58237505D03*
X57075005Y58237505D03*
X59475005Y58237505D03*
X58275005Y58237505D03*
G04 #@! TD*
G04 #@! TO.C,M2*
X45350005Y46175004D03*
X45350005Y45275004D03*
X54050005Y44275006D03*
X54050005Y45225004D03*
X54050005Y46175004D03*
G04 #@! TD*
G04 #@! TO.C,R14*
G36*
G01*
X108185005Y62150005D02*
X108965005Y62150005D01*
G75*
G02*
X109035005Y62080005I0J-70000D01*
G01*
X109035005Y61520005D01*
G75*
G02*
X108965005Y61450005I-70000J0D01*
G01*
X108185005Y61450005D01*
G75*
G02*
X108115005Y61520005I0J70000D01*
G01*
X108115005Y62080005D01*
G75*
G02*
X108185005Y62150005I70000J0D01*
G01*
G37*
G36*
G01*
X108185005Y63750005D02*
X108965005Y63750005D01*
G75*
G02*
X109035005Y63680005I0J-70000D01*
G01*
X109035005Y63120005D01*
G75*
G02*
X108965005Y63050005I-70000J0D01*
G01*
X108185005Y63050005D01*
G75*
G02*
X108115005Y63120005I0J70000D01*
G01*
X108115005Y63680005D01*
G75*
G02*
X108185005Y63750005I70000J0D01*
G01*
G37*
G04 #@! TD*
G04 #@! TO.C,R47*
G36*
G01*
X102185005Y62150005D02*
X102965005Y62150005D01*
G75*
G02*
X103035005Y62080005I0J-70000D01*
G01*
X103035005Y61520005D01*
G75*
G02*
X102965005Y61450005I-70000J0D01*
G01*
X102185005Y61450005D01*
G75*
G02*
X102115005Y61520005I0J70000D01*
G01*
X102115005Y62080005D01*
G75*
G02*
X102185005Y62150005I70000J0D01*
G01*
G37*
G36*
G01*
X102185005Y63750005D02*
X102965005Y63750005D01*
G75*
G02*
X103035005Y63680005I0J-70000D01*
G01*
X103035005Y63120005D01*
G75*
G02*
X102965005Y63050005I-70000J0D01*
G01*
X102185005Y63050005D01*
G75*
G02*
X102115005Y63120005I0J70000D01*
G01*
X102115005Y63680005D01*
G75*
G02*
X102185005Y63750005I70000J0D01*
G01*
G37*
G04 #@! TD*
G04 #@! TO.C,R45*
G36*
G01*
X84185005Y62150005D02*
X84965005Y62150005D01*
G75*
G02*
X85035005Y62080005I0J-70000D01*
G01*
X85035005Y61520005D01*
G75*
G02*
X84965005Y61450005I-70000J0D01*
G01*
X84185005Y61450005D01*
G75*
G02*
X84115005Y61520005I0J70000D01*
G01*
X84115005Y62080005D01*
G75*
G02*
X84185005Y62150005I70000J0D01*
G01*
G37*
G36*
G01*
X84185005Y63750005D02*
X84965005Y63750005D01*
G75*
G02*
X85035005Y63680005I0J-70000D01*
G01*
X85035005Y63120005D01*
G75*
G02*
X84965005Y63050005I-70000J0D01*
G01*
X84185005Y63050005D01*
G75*
G02*
X84115005Y63120005I0J70000D01*
G01*
X84115005Y63680005D01*
G75*
G02*
X84185005Y63750005I70000J0D01*
G01*
G37*
G04 #@! TD*
G04 #@! TO.C,F9*
G36*
G01*
X112425005Y54843755D02*
X112425005Y55356255D01*
G75*
G02*
X112643755Y55575005I218750J0D01*
G01*
X113081255Y55575005D01*
G75*
G02*
X113300005Y55356255I0J-218750D01*
G01*
X113300005Y54843755D01*
G75*
G02*
X113081255Y54625005I-218750J0D01*
G01*
X112643755Y54625005D01*
G75*
G02*
X112425005Y54843755I0J218750D01*
G01*
G37*
G36*
G01*
X110850005Y54843755D02*
X110850005Y55356255D01*
G75*
G02*
X111068755Y55575005I218750J0D01*
G01*
X111506255Y55575005D01*
G75*
G02*
X111725005Y55356255I0J-218750D01*
G01*
X111725005Y54843755D01*
G75*
G02*
X111506255Y54625005I-218750J0D01*
G01*
X111068755Y54625005D01*
G75*
G02*
X110850005Y54843755I0J218750D01*
G01*
G37*
G04 #@! TD*
G04 #@! TO.C,R38*
G36*
G01*
X82685005Y62150005D02*
X83465005Y62150005D01*
G75*
G02*
X83535005Y62080005I0J-70000D01*
G01*
X83535005Y61520005D01*
G75*
G02*
X83465005Y61450005I-70000J0D01*
G01*
X82685005Y61450005D01*
G75*
G02*
X82615005Y61520005I0J70000D01*
G01*
X82615005Y62080005D01*
G75*
G02*
X82685005Y62150005I70000J0D01*
G01*
G37*
G36*
G01*
X82685005Y63750005D02*
X83465005Y63750005D01*
G75*
G02*
X83535005Y63680005I0J-70000D01*
G01*
X83535005Y63120005D01*
G75*
G02*
X83465005Y63050005I-70000J0D01*
G01*
X82685005Y63050005D01*
G75*
G02*
X82615005Y63120005I0J70000D01*
G01*
X82615005Y63680005D01*
G75*
G02*
X82685005Y63750005I70000J0D01*
G01*
G37*
G04 #@! TD*
G04 #@! TO.C,D2*
G36*
G01*
X85065005Y57250005D02*
X86085005Y57250005D01*
G75*
G02*
X86175005Y57160005I0J-90000D01*
G01*
X86175005Y56440005D01*
G75*
G02*
X86085005Y56350005I-90000J0D01*
G01*
X85065005Y56350005D01*
G75*
G02*
X84975005Y56440005I0J90000D01*
G01*
X84975005Y57160005D01*
G75*
G02*
X85065005Y57250005I90000J0D01*
G01*
G37*
G36*
G01*
X85065005Y60550005D02*
X86085005Y60550005D01*
G75*
G02*
X86175005Y60460005I0J-90000D01*
G01*
X86175005Y59740005D01*
G75*
G02*
X86085005Y59650005I-90000J0D01*
G01*
X85065005Y59650005D01*
G75*
G02*
X84975005Y59740005I0J90000D01*
G01*
X84975005Y60460005D01*
G75*
G02*
X85065005Y60550005I90000J0D01*
G01*
G37*
G04 #@! TD*
G04 #@! TO.C,R41*
G36*
G01*
X137185005Y94650005D02*
X137965005Y94650005D01*
G75*
G02*
X138035005Y94580005I0J-70000D01*
G01*
X138035005Y94020005D01*
G75*
G02*
X137965005Y93950005I-70000J0D01*
G01*
X137185005Y93950005D01*
G75*
G02*
X137115005Y94020005I0J70000D01*
G01*
X137115005Y94580005D01*
G75*
G02*
X137185005Y94650005I70000J0D01*
G01*
G37*
G36*
G01*
X137185005Y96250005D02*
X137965005Y96250005D01*
G75*
G02*
X138035005Y96180005I0J-70000D01*
G01*
X138035005Y95620005D01*
G75*
G02*
X137965005Y95550005I-70000J0D01*
G01*
X137185005Y95550005D01*
G75*
G02*
X137115005Y95620005I0J70000D01*
G01*
X137115005Y96180005D01*
G75*
G02*
X137185005Y96250005I70000J0D01*
G01*
G37*
G04 #@! TD*
G04 #@! TO.C,R34*
G36*
G01*
X88685005Y62150005D02*
X89465005Y62150005D01*
G75*
G02*
X89535005Y62080005I0J-70000D01*
G01*
X89535005Y61520005D01*
G75*
G02*
X89465005Y61450005I-70000J0D01*
G01*
X88685005Y61450005D01*
G75*
G02*
X88615005Y61520005I0J70000D01*
G01*
X88615005Y62080005D01*
G75*
G02*
X88685005Y62150005I70000J0D01*
G01*
G37*
G36*
G01*
X88685005Y63750005D02*
X89465005Y63750005D01*
G75*
G02*
X89535005Y63680005I0J-70000D01*
G01*
X89535005Y63120005D01*
G75*
G02*
X89465005Y63050005I-70000J0D01*
G01*
X88685005Y63050005D01*
G75*
G02*
X88615005Y63120005I0J70000D01*
G01*
X88615005Y63680005D01*
G75*
G02*
X88685005Y63750005I70000J0D01*
G01*
G37*
G04 #@! TD*
G04 #@! TO.C,R37*
G36*
G01*
X79685005Y62150005D02*
X80465005Y62150005D01*
G75*
G02*
X80535005Y62080005I0J-70000D01*
G01*
X80535005Y61520005D01*
G75*
G02*
X80465005Y61450005I-70000J0D01*
G01*
X79685005Y61450005D01*
G75*
G02*
X79615005Y61520005I0J70000D01*
G01*
X79615005Y62080005D01*
G75*
G02*
X79685005Y62150005I70000J0D01*
G01*
G37*
G36*
G01*
X79685005Y63750005D02*
X80465005Y63750005D01*
G75*
G02*
X80535005Y63680005I0J-70000D01*
G01*
X80535005Y63120005D01*
G75*
G02*
X80465005Y63050005I-70000J0D01*
G01*
X79685005Y63050005D01*
G75*
G02*
X79615005Y63120005I0J70000D01*
G01*
X79615005Y63680005D01*
G75*
G02*
X79685005Y63750005I70000J0D01*
G01*
G37*
G04 #@! TD*
G04 #@! TO.C,D4*
G36*
G01*
X77065005Y57400005D02*
X78085005Y57400005D01*
G75*
G02*
X78175005Y57310005I0J-90000D01*
G01*
X78175005Y56590005D01*
G75*
G02*
X78085005Y56500005I-90000J0D01*
G01*
X77065005Y56500005D01*
G75*
G02*
X76975005Y56590005I0J90000D01*
G01*
X76975005Y57310005D01*
G75*
G02*
X77065005Y57400005I90000J0D01*
G01*
G37*
G36*
G01*
X77065005Y60700005D02*
X78085005Y60700005D01*
G75*
G02*
X78175005Y60610005I0J-90000D01*
G01*
X78175005Y59890005D01*
G75*
G02*
X78085005Y59800005I-90000J0D01*
G01*
X77065005Y59800005D01*
G75*
G02*
X76975005Y59890005I0J90000D01*
G01*
X76975005Y60610005D01*
G75*
G02*
X77065005Y60700005I90000J0D01*
G01*
G37*
G04 #@! TD*
G04 #@! TO.C,R32*
G36*
G01*
X100685005Y62150005D02*
X101465005Y62150005D01*
G75*
G02*
X101535005Y62080005I0J-70000D01*
G01*
X101535005Y61520005D01*
G75*
G02*
X101465005Y61450005I-70000J0D01*
G01*
X100685005Y61450005D01*
G75*
G02*
X100615005Y61520005I0J70000D01*
G01*
X100615005Y62080005D01*
G75*
G02*
X100685005Y62150005I70000J0D01*
G01*
G37*
G36*
G01*
X100685005Y63750005D02*
X101465005Y63750005D01*
G75*
G02*
X101535005Y63680005I0J-70000D01*
G01*
X101535005Y63120005D01*
G75*
G02*
X101465005Y63050005I-70000J0D01*
G01*
X100685005Y63050005D01*
G75*
G02*
X100615005Y63120005I0J70000D01*
G01*
X100615005Y63680005D01*
G75*
G02*
X100685005Y63750005I70000J0D01*
G01*
G37*
G04 #@! TD*
G04 #@! TO.C,R39*
G36*
G01*
X76685005Y62150005D02*
X77465005Y62150005D01*
G75*
G02*
X77535005Y62080005I0J-70000D01*
G01*
X77535005Y61520005D01*
G75*
G02*
X77465005Y61450005I-70000J0D01*
G01*
X76685005Y61450005D01*
G75*
G02*
X76615005Y61520005I0J70000D01*
G01*
X76615005Y62080005D01*
G75*
G02*
X76685005Y62150005I70000J0D01*
G01*
G37*
G36*
G01*
X76685005Y63750005D02*
X77465005Y63750005D01*
G75*
G02*
X77535005Y63680005I0J-70000D01*
G01*
X77535005Y63120005D01*
G75*
G02*
X77465005Y63050005I-70000J0D01*
G01*
X76685005Y63050005D01*
G75*
G02*
X76615005Y63120005I0J70000D01*
G01*
X76615005Y63680005D01*
G75*
G02*
X76685005Y63750005I70000J0D01*
G01*
G37*
G04 #@! TD*
G04 #@! TO.C,R28*
G36*
G01*
X118845005Y45750005D02*
X121695005Y45750005D01*
G75*
G02*
X121945005Y45500005I0J-250000D01*
G01*
X121945005Y44775005D01*
G75*
G02*
X121695005Y44525005I-250000J0D01*
G01*
X118845005Y44525005D01*
G75*
G02*
X118595005Y44775005I0J250000D01*
G01*
X118595005Y45500005D01*
G75*
G02*
X118845005Y45750005I250000J0D01*
G01*
G37*
G36*
G01*
X118845005Y51675005D02*
X121695005Y51675005D01*
G75*
G02*
X121945005Y51425005I0J-250000D01*
G01*
X121945005Y50700005D01*
G75*
G02*
X121695005Y50450005I-250000J0D01*
G01*
X118845005Y50450005D01*
G75*
G02*
X118595005Y50700005I0J250000D01*
G01*
X118595005Y51425005D01*
G75*
G02*
X118845005Y51675005I250000J0D01*
G01*
G37*
G04 #@! TD*
G04 #@! TO.C,F5*
G36*
G01*
X79425005Y54843755D02*
X79425005Y55356255D01*
G75*
G02*
X79643755Y55575005I218750J0D01*
G01*
X80081255Y55575005D01*
G75*
G02*
X80300005Y55356255I0J-218750D01*
G01*
X80300005Y54843755D01*
G75*
G02*
X80081255Y54625005I-218750J0D01*
G01*
X79643755Y54625005D01*
G75*
G02*
X79425005Y54843755I0J218750D01*
G01*
G37*
G36*
G01*
X77850005Y54843755D02*
X77850005Y55356255D01*
G75*
G02*
X78068755Y55575005I218750J0D01*
G01*
X78506255Y55575005D01*
G75*
G02*
X78725005Y55356255I0J-218750D01*
G01*
X78725005Y54843755D01*
G75*
G02*
X78506255Y54625005I-218750J0D01*
G01*
X78068755Y54625005D01*
G75*
G02*
X77850005Y54843755I0J218750D01*
G01*
G37*
G04 #@! TD*
G04 #@! TO.C,R40*
G36*
G01*
X140185005Y94650005D02*
X140965005Y94650005D01*
G75*
G02*
X141035005Y94580005I0J-70000D01*
G01*
X141035005Y94020005D01*
G75*
G02*
X140965005Y93950005I-70000J0D01*
G01*
X140185005Y93950005D01*
G75*
G02*
X140115005Y94020005I0J70000D01*
G01*
X140115005Y94580005D01*
G75*
G02*
X140185005Y94650005I70000J0D01*
G01*
G37*
G36*
G01*
X140185005Y96250005D02*
X140965005Y96250005D01*
G75*
G02*
X141035005Y96180005I0J-70000D01*
G01*
X141035005Y95620005D01*
G75*
G02*
X140965005Y95550005I-70000J0D01*
G01*
X140185005Y95550005D01*
G75*
G02*
X140115005Y95620005I0J70000D01*
G01*
X140115005Y96180005D01*
G75*
G02*
X140185005Y96250005I70000J0D01*
G01*
G37*
G04 #@! TD*
G04 #@! TO.C,F8*
G36*
G01*
X104425005Y54843755D02*
X104425005Y55356255D01*
G75*
G02*
X104643755Y55575005I218750J0D01*
G01*
X105081255Y55575005D01*
G75*
G02*
X105300005Y55356255I0J-218750D01*
G01*
X105300005Y54843755D01*
G75*
G02*
X105081255Y54625005I-218750J0D01*
G01*
X104643755Y54625005D01*
G75*
G02*
X104425005Y54843755I0J218750D01*
G01*
G37*
G36*
G01*
X102850005Y54843755D02*
X102850005Y55356255D01*
G75*
G02*
X103068755Y55575005I218750J0D01*
G01*
X103506255Y55575005D01*
G75*
G02*
X103725005Y55356255I0J-218750D01*
G01*
X103725005Y54843755D01*
G75*
G02*
X103506255Y54625005I-218750J0D01*
G01*
X103068755Y54625005D01*
G75*
G02*
X102850005Y54843755I0J218750D01*
G01*
G37*
G04 #@! TD*
G04 #@! TO.C,R33*
G36*
G01*
X94685005Y62150005D02*
X95465005Y62150005D01*
G75*
G02*
X95535005Y62080005I0J-70000D01*
G01*
X95535005Y61520005D01*
G75*
G02*
X95465005Y61450005I-70000J0D01*
G01*
X94685005Y61450005D01*
G75*
G02*
X94615005Y61520005I0J70000D01*
G01*
X94615005Y62080005D01*
G75*
G02*
X94685005Y62150005I70000J0D01*
G01*
G37*
G36*
G01*
X94685005Y63750005D02*
X95465005Y63750005D01*
G75*
G02*
X95535005Y63680005I0J-70000D01*
G01*
X95535005Y63120005D01*
G75*
G02*
X95465005Y63050005I-70000J0D01*
G01*
X94685005Y63050005D01*
G75*
G02*
X94615005Y63120005I0J70000D01*
G01*
X94615005Y63680005D01*
G75*
G02*
X94685005Y63750005I70000J0D01*
G01*
G37*
G04 #@! TD*
G04 #@! TO.C,R16*
G36*
G01*
X85685005Y62150005D02*
X86465005Y62150005D01*
G75*
G02*
X86535005Y62080005I0J-70000D01*
G01*
X86535005Y61520005D01*
G75*
G02*
X86465005Y61450005I-70000J0D01*
G01*
X85685005Y61450005D01*
G75*
G02*
X85615005Y61520005I0J70000D01*
G01*
X85615005Y62080005D01*
G75*
G02*
X85685005Y62150005I70000J0D01*
G01*
G37*
G36*
G01*
X85685005Y63750005D02*
X86465005Y63750005D01*
G75*
G02*
X86535005Y63680005I0J-70000D01*
G01*
X86535005Y63120005D01*
G75*
G02*
X86465005Y63050005I-70000J0D01*
G01*
X85685005Y63050005D01*
G75*
G02*
X85615005Y63120005I0J70000D01*
G01*
X85615005Y63680005D01*
G75*
G02*
X85685005Y63750005I70000J0D01*
G01*
G37*
G04 #@! TD*
G04 #@! TO.C,F6*
G36*
G01*
X87925005Y54843755D02*
X87925005Y55356255D01*
G75*
G02*
X88143755Y55575005I218750J0D01*
G01*
X88581255Y55575005D01*
G75*
G02*
X88800005Y55356255I0J-218750D01*
G01*
X88800005Y54843755D01*
G75*
G02*
X88581255Y54625005I-218750J0D01*
G01*
X88143755Y54625005D01*
G75*
G02*
X87925005Y54843755I0J218750D01*
G01*
G37*
G36*
G01*
X86350005Y54843755D02*
X86350005Y55356255D01*
G75*
G02*
X86568755Y55575005I218750J0D01*
G01*
X87006255Y55575005D01*
G75*
G02*
X87225005Y55356255I0J-218750D01*
G01*
X87225005Y54843755D01*
G75*
G02*
X87006255Y54625005I-218750J0D01*
G01*
X86568755Y54625005D01*
G75*
G02*
X86350005Y54843755I0J218750D01*
G01*
G37*
G04 #@! TD*
G04 #@! TO.C,R22*
G36*
G01*
X94150005Y45750005D02*
X97000005Y45750005D01*
G75*
G02*
X97250005Y45500005I0J-250000D01*
G01*
X97250005Y44775005D01*
G75*
G02*
X97000005Y44525005I-250000J0D01*
G01*
X94150005Y44525005D01*
G75*
G02*
X93900005Y44775005I0J250000D01*
G01*
X93900005Y45500005D01*
G75*
G02*
X94150005Y45750005I250000J0D01*
G01*
G37*
G36*
G01*
X94150005Y51675005D02*
X97000005Y51675005D01*
G75*
G02*
X97250005Y51425005I0J-250000D01*
G01*
X97250005Y50700005D01*
G75*
G02*
X97000005Y50450005I-250000J0D01*
G01*
X94150005Y50450005D01*
G75*
G02*
X93900005Y50700005I0J250000D01*
G01*
X93900005Y51425005D01*
G75*
G02*
X94150005Y51675005I250000J0D01*
G01*
G37*
G04 #@! TD*
G04 #@! TO.C,F7*
G36*
G01*
X95925005Y54843755D02*
X95925005Y55356255D01*
G75*
G02*
X96143755Y55575005I218750J0D01*
G01*
X96581255Y55575005D01*
G75*
G02*
X96800005Y55356255I0J-218750D01*
G01*
X96800005Y54843755D01*
G75*
G02*
X96581255Y54625005I-218750J0D01*
G01*
X96143755Y54625005D01*
G75*
G02*
X95925005Y54843755I0J218750D01*
G01*
G37*
G36*
G01*
X94350005Y54843755D02*
X94350005Y55356255D01*
G75*
G02*
X94568755Y55575005I218750J0D01*
G01*
X95006255Y55575005D01*
G75*
G02*
X95225005Y55356255I0J-218750D01*
G01*
X95225005Y54843755D01*
G75*
G02*
X95006255Y54625005I-218750J0D01*
G01*
X94568755Y54625005D01*
G75*
G02*
X94350005Y54843755I0J218750D01*
G01*
G37*
G04 #@! TD*
G04 #@! TO.C,R46*
G36*
G01*
X105185005Y62150005D02*
X105965005Y62150005D01*
G75*
G02*
X106035005Y62080005I0J-70000D01*
G01*
X106035005Y61520005D01*
G75*
G02*
X105965005Y61450005I-70000J0D01*
G01*
X105185005Y61450005D01*
G75*
G02*
X105115005Y61520005I0J70000D01*
G01*
X105115005Y62080005D01*
G75*
G02*
X105185005Y62150005I70000J0D01*
G01*
G37*
G36*
G01*
X105185005Y63750005D02*
X105965005Y63750005D01*
G75*
G02*
X106035005Y63680005I0J-70000D01*
G01*
X106035005Y63120005D01*
G75*
G02*
X105965005Y63050005I-70000J0D01*
G01*
X105185005Y63050005D01*
G75*
G02*
X105115005Y63120005I0J70000D01*
G01*
X105115005Y63680005D01*
G75*
G02*
X105185005Y63750005I70000J0D01*
G01*
G37*
G04 #@! TD*
G04 #@! TO.C,R17*
G36*
G01*
X78625005Y53490005D02*
X78625005Y52710005D01*
G75*
G02*
X78555005Y52640005I-70000J0D01*
G01*
X77995005Y52640005D01*
G75*
G02*
X77925005Y52710005I0J70000D01*
G01*
X77925005Y53490005D01*
G75*
G02*
X77995005Y53560005I70000J0D01*
G01*
X78555005Y53560005D01*
G75*
G02*
X78625005Y53490005I0J-70000D01*
G01*
G37*
G36*
G01*
X80225005Y53490005D02*
X80225005Y52710005D01*
G75*
G02*
X80155005Y52640005I-70000J0D01*
G01*
X79595005Y52640005D01*
G75*
G02*
X79525005Y52710005I0J70000D01*
G01*
X79525005Y53490005D01*
G75*
G02*
X79595005Y53560005I70000J0D01*
G01*
X80155005Y53560005D01*
G75*
G02*
X80225005Y53490005I0J-70000D01*
G01*
G37*
G04 #@! TD*
G04 #@! TO.C,R42*
G36*
G01*
X81185005Y62150005D02*
X81965005Y62150005D01*
G75*
G02*
X82035005Y62080005I0J-70000D01*
G01*
X82035005Y61520005D01*
G75*
G02*
X81965005Y61450005I-70000J0D01*
G01*
X81185005Y61450005D01*
G75*
G02*
X81115005Y61520005I0J70000D01*
G01*
X81115005Y62080005D01*
G75*
G02*
X81185005Y62150005I70000J0D01*
G01*
G37*
G36*
G01*
X81185005Y63750005D02*
X81965005Y63750005D01*
G75*
G02*
X82035005Y63680005I0J-70000D01*
G01*
X82035005Y63120005D01*
G75*
G02*
X81965005Y63050005I-70000J0D01*
G01*
X81185005Y63050005D01*
G75*
G02*
X81115005Y63120005I0J70000D01*
G01*
X81115005Y63680005D01*
G75*
G02*
X81185005Y63750005I70000J0D01*
G01*
G37*
G04 #@! TD*
G04 #@! TO.C,D3*
G36*
G01*
X79565005Y57250005D02*
X80585005Y57250005D01*
G75*
G02*
X80675005Y57160005I0J-90000D01*
G01*
X80675005Y56440005D01*
G75*
G02*
X80585005Y56350005I-90000J0D01*
G01*
X79565005Y56350005D01*
G75*
G02*
X79475005Y56440005I0J90000D01*
G01*
X79475005Y57160005D01*
G75*
G02*
X79565005Y57250005I90000J0D01*
G01*
G37*
G36*
G01*
X79565005Y60550005D02*
X80585005Y60550005D01*
G75*
G02*
X80675005Y60460005I0J-90000D01*
G01*
X80675005Y59740005D01*
G75*
G02*
X80585005Y59650005I-90000J0D01*
G01*
X79565005Y59650005D01*
G75*
G02*
X79475005Y59740005I0J90000D01*
G01*
X79475005Y60460005D01*
G75*
G02*
X79565005Y60550005I90000J0D01*
G01*
G37*
G04 #@! TD*
G04 #@! TO.C,R18*
G36*
G01*
X87125005Y53490005D02*
X87125005Y52710005D01*
G75*
G02*
X87055005Y52640005I-70000J0D01*
G01*
X86495005Y52640005D01*
G75*
G02*
X86425005Y52710005I0J70000D01*
G01*
X86425005Y53490005D01*
G75*
G02*
X86495005Y53560005I70000J0D01*
G01*
X87055005Y53560005D01*
G75*
G02*
X87125005Y53490005I0J-70000D01*
G01*
G37*
G36*
G01*
X88725005Y53490005D02*
X88725005Y52710005D01*
G75*
G02*
X88655005Y52640005I-70000J0D01*
G01*
X88095005Y52640005D01*
G75*
G02*
X88025005Y52710005I0J70000D01*
G01*
X88025005Y53490005D01*
G75*
G02*
X88095005Y53560005I70000J0D01*
G01*
X88655005Y53560005D01*
G75*
G02*
X88725005Y53490005I0J-70000D01*
G01*
G37*
G04 #@! TD*
G04 #@! TO.C,R49*
G36*
G01*
X96185005Y62150005D02*
X96965005Y62150005D01*
G75*
G02*
X97035005Y62080005I0J-70000D01*
G01*
X97035005Y61520005D01*
G75*
G02*
X96965005Y61450005I-70000J0D01*
G01*
X96185005Y61450005D01*
G75*
G02*
X96115005Y61520005I0J70000D01*
G01*
X96115005Y62080005D01*
G75*
G02*
X96185005Y62150005I70000J0D01*
G01*
G37*
G36*
G01*
X96185005Y63750005D02*
X96965005Y63750005D01*
G75*
G02*
X97035005Y63680005I0J-70000D01*
G01*
X97035005Y63120005D01*
G75*
G02*
X96965005Y63050005I-70000J0D01*
G01*
X96185005Y63050005D01*
G75*
G02*
X96115005Y63120005I0J70000D01*
G01*
X96115005Y63680005D01*
G75*
G02*
X96185005Y63750005I70000J0D01*
G01*
G37*
G04 #@! TD*
G04 #@! TO.C,R36*
G36*
G01*
X109685005Y62150005D02*
X110465005Y62150005D01*
G75*
G02*
X110535005Y62080005I0J-70000D01*
G01*
X110535005Y61520005D01*
G75*
G02*
X110465005Y61450005I-70000J0D01*
G01*
X109685005Y61450005D01*
G75*
G02*
X109615005Y61520005I0J70000D01*
G01*
X109615005Y62080005D01*
G75*
G02*
X109685005Y62150005I70000J0D01*
G01*
G37*
G36*
G01*
X109685005Y63750005D02*
X110465005Y63750005D01*
G75*
G02*
X110535005Y63680005I0J-70000D01*
G01*
X110535005Y63120005D01*
G75*
G02*
X110465005Y63050005I-70000J0D01*
G01*
X109685005Y63050005D01*
G75*
G02*
X109615005Y63120005I0J70000D01*
G01*
X109615005Y63680005D01*
G75*
G02*
X109685005Y63750005I70000J0D01*
G01*
G37*
G04 #@! TD*
G04 #@! TO.C,R13*
G36*
G01*
X111185005Y62150005D02*
X111965005Y62150005D01*
G75*
G02*
X112035005Y62080005I0J-70000D01*
G01*
X112035005Y61520005D01*
G75*
G02*
X111965005Y61450005I-70000J0D01*
G01*
X111185005Y61450005D01*
G75*
G02*
X111115005Y61520005I0J70000D01*
G01*
X111115005Y62080005D01*
G75*
G02*
X111185005Y62150005I70000J0D01*
G01*
G37*
G36*
G01*
X111185005Y63750005D02*
X111965005Y63750005D01*
G75*
G02*
X112035005Y63680005I0J-70000D01*
G01*
X112035005Y63120005D01*
G75*
G02*
X111965005Y63050005I-70000J0D01*
G01*
X111185005Y63050005D01*
G75*
G02*
X111115005Y63120005I0J70000D01*
G01*
X111115005Y63680005D01*
G75*
G02*
X111185005Y63750005I70000J0D01*
G01*
G37*
G04 #@! TD*
G04 #@! TO.C,R35*
G36*
G01*
X106685005Y62150005D02*
X107465005Y62150005D01*
G75*
G02*
X107535005Y62080005I0J-70000D01*
G01*
X107535005Y61520005D01*
G75*
G02*
X107465005Y61450005I-70000J0D01*
G01*
X106685005Y61450005D01*
G75*
G02*
X106615005Y61520005I0J70000D01*
G01*
X106615005Y62080005D01*
G75*
G02*
X106685005Y62150005I70000J0D01*
G01*
G37*
G36*
G01*
X106685005Y63750005D02*
X107465005Y63750005D01*
G75*
G02*
X107535005Y63680005I0J-70000D01*
G01*
X107535005Y63120005D01*
G75*
G02*
X107465005Y63050005I-70000J0D01*
G01*
X106685005Y63050005D01*
G75*
G02*
X106615005Y63120005I0J70000D01*
G01*
X106615005Y63680005D01*
G75*
G02*
X106685005Y63750005I70000J0D01*
G01*
G37*
G04 #@! TD*
G04 #@! TO.C,R25*
G36*
G01*
X119625005Y53490005D02*
X119625005Y52710005D01*
G75*
G02*
X119555005Y52640005I-70000J0D01*
G01*
X118995005Y52640005D01*
G75*
G02*
X118925005Y52710005I0J70000D01*
G01*
X118925005Y53490005D01*
G75*
G02*
X118995005Y53560005I70000J0D01*
G01*
X119555005Y53560005D01*
G75*
G02*
X119625005Y53490005I0J-70000D01*
G01*
G37*
G36*
G01*
X121225005Y53490005D02*
X121225005Y52710005D01*
G75*
G02*
X121155005Y52640005I-70000J0D01*
G01*
X120595005Y52640005D01*
G75*
G02*
X120525005Y52710005I0J70000D01*
G01*
X120525005Y53490005D01*
G75*
G02*
X120595005Y53560005I70000J0D01*
G01*
X121155005Y53560005D01*
G75*
G02*
X121225005Y53490005I0J-70000D01*
G01*
G37*
G04 #@! TD*
G04 #@! TO.C,R2*
G36*
G01*
X127125005Y45490005D02*
X127125005Y44710005D01*
G75*
G02*
X127055005Y44640005I-70000J0D01*
G01*
X126495005Y44640005D01*
G75*
G02*
X126425005Y44710005I0J70000D01*
G01*
X126425005Y45490005D01*
G75*
G02*
X126495005Y45560005I70000J0D01*
G01*
X127055005Y45560005D01*
G75*
G02*
X127125005Y45490005I0J-70000D01*
G01*
G37*
G36*
G01*
X128725005Y45490005D02*
X128725005Y44710005D01*
G75*
G02*
X128655005Y44640005I-70000J0D01*
G01*
X128095005Y44640005D01*
G75*
G02*
X128025005Y44710005I0J70000D01*
G01*
X128025005Y45490005D01*
G75*
G02*
X128095005Y45560005I70000J0D01*
G01*
X128655005Y45560005D01*
G75*
G02*
X128725005Y45490005I0J-70000D01*
G01*
G37*
G04 #@! TD*
G04 #@! TO.C,R48*
G36*
G01*
X99185005Y62150005D02*
X99965005Y62150005D01*
G75*
G02*
X100035005Y62080005I0J-70000D01*
G01*
X100035005Y61520005D01*
G75*
G02*
X99965005Y61450005I-70000J0D01*
G01*
X99185005Y61450005D01*
G75*
G02*
X99115005Y61520005I0J70000D01*
G01*
X99115005Y62080005D01*
G75*
G02*
X99185005Y62150005I70000J0D01*
G01*
G37*
G36*
G01*
X99185005Y63750005D02*
X99965005Y63750005D01*
G75*
G02*
X100035005Y63680005I0J-70000D01*
G01*
X100035005Y63120005D01*
G75*
G02*
X99965005Y63050005I-70000J0D01*
G01*
X99185005Y63050005D01*
G75*
G02*
X99115005Y63120005I0J70000D01*
G01*
X99115005Y63680005D01*
G75*
G02*
X99185005Y63750005I70000J0D01*
G01*
G37*
G04 #@! TD*
G04 #@! TO.C,R31*
G36*
G01*
X91685005Y62150005D02*
X92465005Y62150005D01*
G75*
G02*
X92535005Y62080005I0J-70000D01*
G01*
X92535005Y61520005D01*
G75*
G02*
X92465005Y61450005I-70000J0D01*
G01*
X91685005Y61450005D01*
G75*
G02*
X91615005Y61520005I0J70000D01*
G01*
X91615005Y62080005D01*
G75*
G02*
X91685005Y62150005I70000J0D01*
G01*
G37*
G36*
G01*
X91685005Y63750005D02*
X92465005Y63750005D01*
G75*
G02*
X92535005Y63680005I0J-70000D01*
G01*
X92535005Y63120005D01*
G75*
G02*
X92465005Y63050005I-70000J0D01*
G01*
X91685005Y63050005D01*
G75*
G02*
X91615005Y63120005I0J70000D01*
G01*
X91615005Y63680005D01*
G75*
G02*
X91685005Y63750005I70000J0D01*
G01*
G37*
G04 #@! TD*
G04 #@! TO.C,D1*
G36*
G01*
X87565005Y57250005D02*
X88585005Y57250005D01*
G75*
G02*
X88675005Y57160005I0J-90000D01*
G01*
X88675005Y56440005D01*
G75*
G02*
X88585005Y56350005I-90000J0D01*
G01*
X87565005Y56350005D01*
G75*
G02*
X87475005Y56440005I0J90000D01*
G01*
X87475005Y57160005D01*
G75*
G02*
X87565005Y57250005I90000J0D01*
G01*
G37*
G36*
G01*
X87565005Y60550005D02*
X88585005Y60550005D01*
G75*
G02*
X88675005Y60460005I0J-90000D01*
G01*
X88675005Y59740005D01*
G75*
G02*
X88585005Y59650005I-90000J0D01*
G01*
X87565005Y59650005D01*
G75*
G02*
X87475005Y59740005I0J90000D01*
G01*
X87475005Y60460005D01*
G75*
G02*
X87565005Y60550005I90000J0D01*
G01*
G37*
G04 #@! TD*
G04 #@! TO.C,R3*
G36*
G01*
X128025005Y46210005D02*
X128025005Y46990005D01*
G75*
G02*
X128095005Y47060005I70000J0D01*
G01*
X128655005Y47060005D01*
G75*
G02*
X128725005Y46990005I0J-70000D01*
G01*
X128725005Y46210005D01*
G75*
G02*
X128655005Y46140005I-70000J0D01*
G01*
X128095005Y46140005D01*
G75*
G02*
X128025005Y46210005I0J70000D01*
G01*
G37*
G36*
G01*
X126425005Y46210005D02*
X126425005Y46990005D01*
G75*
G02*
X126495005Y47060005I70000J0D01*
G01*
X127055005Y47060005D01*
G75*
G02*
X127125005Y46990005I0J-70000D01*
G01*
X127125005Y46210005D01*
G75*
G02*
X127055005Y46140005I-70000J0D01*
G01*
X126495005Y46140005D01*
G75*
G02*
X126425005Y46210005I0J70000D01*
G01*
G37*
G04 #@! TD*
G04 #@! TO.C,R19*
G36*
G01*
X95125005Y53490005D02*
X95125005Y52710005D01*
G75*
G02*
X95055005Y52640005I-70000J0D01*
G01*
X94495005Y52640005D01*
G75*
G02*
X94425005Y52710005I0J70000D01*
G01*
X94425005Y53490005D01*
G75*
G02*
X94495005Y53560005I70000J0D01*
G01*
X95055005Y53560005D01*
G75*
G02*
X95125005Y53490005I0J-70000D01*
G01*
G37*
G36*
G01*
X96725005Y53490005D02*
X96725005Y52710005D01*
G75*
G02*
X96655005Y52640005I-70000J0D01*
G01*
X96095005Y52640005D01*
G75*
G02*
X96025005Y52710005I0J70000D01*
G01*
X96025005Y53490005D01*
G75*
G02*
X96095005Y53560005I70000J0D01*
G01*
X96655005Y53560005D01*
G75*
G02*
X96725005Y53490005I0J-70000D01*
G01*
G37*
G04 #@! TD*
G04 #@! TO.C,R50*
G36*
G01*
X93185005Y62150005D02*
X93965005Y62150005D01*
G75*
G02*
X94035005Y62080005I0J-70000D01*
G01*
X94035005Y61520005D01*
G75*
G02*
X93965005Y61450005I-70000J0D01*
G01*
X93185005Y61450005D01*
G75*
G02*
X93115005Y61520005I0J70000D01*
G01*
X93115005Y62080005D01*
G75*
G02*
X93185005Y62150005I70000J0D01*
G01*
G37*
G36*
G01*
X93185005Y63750005D02*
X93965005Y63750005D01*
G75*
G02*
X94035005Y63680005I0J-70000D01*
G01*
X94035005Y63120005D01*
G75*
G02*
X93965005Y63050005I-70000J0D01*
G01*
X93185005Y63050005D01*
G75*
G02*
X93115005Y63120005I0J70000D01*
G01*
X93115005Y63680005D01*
G75*
G02*
X93185005Y63750005I70000J0D01*
G01*
G37*
G04 #@! TD*
G04 #@! TO.C,R44*
G36*
G01*
X87185005Y62150005D02*
X87965005Y62150005D01*
G75*
G02*
X88035005Y62080005I0J-70000D01*
G01*
X88035005Y61520005D01*
G75*
G02*
X87965005Y61450005I-70000J0D01*
G01*
X87185005Y61450005D01*
G75*
G02*
X87115005Y61520005I0J70000D01*
G01*
X87115005Y62080005D01*
G75*
G02*
X87185005Y62150005I70000J0D01*
G01*
G37*
G36*
G01*
X87185005Y63750005D02*
X87965005Y63750005D01*
G75*
G02*
X88035005Y63680005I0J-70000D01*
G01*
X88035005Y63120005D01*
G75*
G02*
X87965005Y63050005I-70000J0D01*
G01*
X87185005Y63050005D01*
G75*
G02*
X87115005Y63120005I0J70000D01*
G01*
X87115005Y63680005D01*
G75*
G02*
X87185005Y63750005I70000J0D01*
G01*
G37*
G04 #@! TD*
G04 #@! TO.C,R43*
G36*
G01*
X78185005Y62150005D02*
X78965005Y62150005D01*
G75*
G02*
X79035005Y62080005I0J-70000D01*
G01*
X79035005Y61520005D01*
G75*
G02*
X78965005Y61450005I-70000J0D01*
G01*
X78185005Y61450005D01*
G75*
G02*
X78115005Y61520005I0J70000D01*
G01*
X78115005Y62080005D01*
G75*
G02*
X78185005Y62150005I70000J0D01*
G01*
G37*
G36*
G01*
X78185005Y63750005D02*
X78965005Y63750005D01*
G75*
G02*
X79035005Y63680005I0J-70000D01*
G01*
X79035005Y63120005D01*
G75*
G02*
X78965005Y63050005I-70000J0D01*
G01*
X78185005Y63050005D01*
G75*
G02*
X78115005Y63120005I0J70000D01*
G01*
X78115005Y63680005D01*
G75*
G02*
X78185005Y63750005I70000J0D01*
G01*
G37*
G04 #@! TD*
G04 #@! TO.C,F10*
G36*
G01*
X118850005Y54843755D02*
X118850005Y55356255D01*
G75*
G02*
X119068755Y55575005I218750J0D01*
G01*
X119506255Y55575005D01*
G75*
G02*
X119725005Y55356255I0J-218750D01*
G01*
X119725005Y54843755D01*
G75*
G02*
X119506255Y54625005I-218750J0D01*
G01*
X119068755Y54625005D01*
G75*
G02*
X118850005Y54843755I0J218750D01*
G01*
G37*
G36*
G01*
X120425005Y54843755D02*
X120425005Y55356255D01*
G75*
G02*
X120643755Y55575005I218750J0D01*
G01*
X121081255Y55575005D01*
G75*
G02*
X121300005Y55356255I0J-218750D01*
G01*
X121300005Y54843755D01*
G75*
G02*
X121081255Y54625005I-218750J0D01*
G01*
X120643755Y54625005D01*
G75*
G02*
X120425005Y54843755I0J218750D01*
G01*
G37*
G04 #@! TD*
G04 #@! TO.C,R51*
G36*
G01*
X90185005Y63750005D02*
X90965005Y63750005D01*
G75*
G02*
X91035005Y63680005I0J-70000D01*
G01*
X91035005Y63120005D01*
G75*
G02*
X90965005Y63050005I-70000J0D01*
G01*
X90185005Y63050005D01*
G75*
G02*
X90115005Y63120005I0J70000D01*
G01*
X90115005Y63680005D01*
G75*
G02*
X90185005Y63750005I70000J0D01*
G01*
G37*
G36*
G01*
X90185005Y62150005D02*
X90965005Y62150005D01*
G75*
G02*
X91035005Y62080005I0J-70000D01*
G01*
X91035005Y61520005D01*
G75*
G02*
X90965005Y61450005I-70000J0D01*
G01*
X90185005Y61450005D01*
G75*
G02*
X90115005Y61520005I0J70000D01*
G01*
X90115005Y62080005D01*
G75*
G02*
X90185005Y62150005I70000J0D01*
G01*
G37*
G04 #@! TD*
G04 #@! TO.C,R52*
G36*
G01*
X141685005Y96250005D02*
X142465005Y96250005D01*
G75*
G02*
X142535005Y96180005I0J-70000D01*
G01*
X142535005Y95620005D01*
G75*
G02*
X142465005Y95550005I-70000J0D01*
G01*
X141685005Y95550005D01*
G75*
G02*
X141615005Y95620005I0J70000D01*
G01*
X141615005Y96180005D01*
G75*
G02*
X141685005Y96250005I70000J0D01*
G01*
G37*
G36*
G01*
X141685005Y94650005D02*
X142465005Y94650005D01*
G75*
G02*
X142535005Y94580005I0J-70000D01*
G01*
X142535005Y94020005D01*
G75*
G02*
X142465005Y93950005I-70000J0D01*
G01*
X141685005Y93950005D01*
G75*
G02*
X141615005Y94020005I0J70000D01*
G01*
X141615005Y94580005D01*
G75*
G02*
X141685005Y94650005I70000J0D01*
G01*
G37*
G04 #@! TD*
G04 #@! TO.C,R53*
G36*
G01*
X138685005Y96250005D02*
X139465005Y96250005D01*
G75*
G02*
X139535005Y96180005I0J-70000D01*
G01*
X139535005Y95620005D01*
G75*
G02*
X139465005Y95550005I-70000J0D01*
G01*
X138685005Y95550005D01*
G75*
G02*
X138615005Y95620005I0J70000D01*
G01*
X138615005Y96180005D01*
G75*
G02*
X138685005Y96250005I70000J0D01*
G01*
G37*
G36*
G01*
X138685005Y94650005D02*
X139465005Y94650005D01*
G75*
G02*
X139535005Y94580005I0J-70000D01*
G01*
X139535005Y94020005D01*
G75*
G02*
X139465005Y93950005I-70000J0D01*
G01*
X138685005Y93950005D01*
G75*
G02*
X138615005Y94020005I0J70000D01*
G01*
X138615005Y94580005D01*
G75*
G02*
X138685005Y94650005I70000J0D01*
G01*
G37*
G04 #@! TD*
G04 #@! TO.C,J21*
G36*
G01*
X128925005Y105425005D02*
X128925005Y104075005D01*
G75*
G02*
X128675005Y103825005I-250000J0D01*
G01*
X127475005Y103825005D01*
G75*
G02*
X127225005Y104075005I0J250000D01*
G01*
X127225005Y105425005D01*
G75*
G02*
X127475005Y105675005I250000J0D01*
G01*
X128675005Y105675005D01*
G75*
G02*
X128925005Y105425005I0J-250000D01*
G01*
G37*
D16*
X125575005Y104750005D03*
X123075005Y104750005D03*
X120575005Y104750005D03*
X118075005Y104750005D03*
G04 #@! TD*
D17*
G04 #@! TO.C,J22*
X110700005Y104350005D03*
D18*
X112450005Y103550005D03*
X110700005Y102750005D03*
X112450005Y101950005D03*
X110700005Y101150005D03*
D19*
X111575005Y106400005D03*
X111575005Y99100005D03*
G04 #@! TD*
G04 #@! TO.C,R30*
G36*
G01*
X97685005Y63750005D02*
X98465005Y63750005D01*
G75*
G02*
X98535005Y63680005I0J-70000D01*
G01*
X98535005Y63120005D01*
G75*
G02*
X98465005Y63050005I-70000J0D01*
G01*
X97685005Y63050005D01*
G75*
G02*
X97615005Y63120005I0J70000D01*
G01*
X97615005Y63680005D01*
G75*
G02*
X97685005Y63750005I70000J0D01*
G01*
G37*
G36*
G01*
X97685005Y62150005D02*
X98465005Y62150005D01*
G75*
G02*
X98535005Y62080005I0J-70000D01*
G01*
X98535005Y61520005D01*
G75*
G02*
X98465005Y61450005I-70000J0D01*
G01*
X97685005Y61450005D01*
G75*
G02*
X97615005Y61520005I0J70000D01*
G01*
X97615005Y62080005D01*
G75*
G02*
X97685005Y62150005I70000J0D01*
G01*
G37*
G04 #@! TD*
G04 #@! TO.C,R29*
G36*
G01*
X103685005Y63750005D02*
X104465005Y63750005D01*
G75*
G02*
X104535005Y63680005I0J-70000D01*
G01*
X104535005Y63120005D01*
G75*
G02*
X104465005Y63050005I-70000J0D01*
G01*
X103685005Y63050005D01*
G75*
G02*
X103615005Y63120005I0J70000D01*
G01*
X103615005Y63680005D01*
G75*
G02*
X103685005Y63750005I70000J0D01*
G01*
G37*
G36*
G01*
X103685005Y62150005D02*
X104465005Y62150005D01*
G75*
G02*
X104535005Y62080005I0J-70000D01*
G01*
X104535005Y61520005D01*
G75*
G02*
X104465005Y61450005I-70000J0D01*
G01*
X103685005Y61450005D01*
G75*
G02*
X103615005Y61520005I0J70000D01*
G01*
X103615005Y62080005D01*
G75*
G02*
X103685005Y62150005I70000J0D01*
G01*
G37*
G04 #@! TD*
G04 #@! TO.C,R27*
G36*
G01*
X110650005Y51675005D02*
X113500005Y51675005D01*
G75*
G02*
X113750005Y51425005I0J-250000D01*
G01*
X113750005Y50700005D01*
G75*
G02*
X113500005Y50450005I-250000J0D01*
G01*
X110650005Y50450005D01*
G75*
G02*
X110400005Y50700005I0J250000D01*
G01*
X110400005Y51425005D01*
G75*
G02*
X110650005Y51675005I250000J0D01*
G01*
G37*
G36*
G01*
X110650005Y45750005D02*
X113500005Y45750005D01*
G75*
G02*
X113750005Y45500005I0J-250000D01*
G01*
X113750005Y44775005D01*
G75*
G02*
X113500005Y44525005I-250000J0D01*
G01*
X110650005Y44525005D01*
G75*
G02*
X110400005Y44775005I0J250000D01*
G01*
X110400005Y45500005D01*
G75*
G02*
X110650005Y45750005I250000J0D01*
G01*
G37*
G04 #@! TD*
G04 #@! TO.C,R26*
G36*
G01*
X102650005Y51675005D02*
X105500005Y51675005D01*
G75*
G02*
X105750005Y51425005I0J-250000D01*
G01*
X105750005Y50700005D01*
G75*
G02*
X105500005Y50450005I-250000J0D01*
G01*
X102650005Y50450005D01*
G75*
G02*
X102400005Y50700005I0J250000D01*
G01*
X102400005Y51425005D01*
G75*
G02*
X102650005Y51675005I250000J0D01*
G01*
G37*
G36*
G01*
X102650005Y45750005D02*
X105500005Y45750005D01*
G75*
G02*
X105750005Y45500005I0J-250000D01*
G01*
X105750005Y44775005D01*
G75*
G02*
X105500005Y44525005I-250000J0D01*
G01*
X102650005Y44525005D01*
G75*
G02*
X102400005Y44775005I0J250000D01*
G01*
X102400005Y45500005D01*
G75*
G02*
X102650005Y45750005I250000J0D01*
G01*
G37*
G04 #@! TD*
G04 #@! TO.C,R24*
G36*
G01*
X113225005Y53490005D02*
X113225005Y52710005D01*
G75*
G02*
X113155005Y52640005I-70000J0D01*
G01*
X112595005Y52640005D01*
G75*
G02*
X112525005Y52710005I0J70000D01*
G01*
X112525005Y53490005D01*
G75*
G02*
X112595005Y53560005I70000J0D01*
G01*
X113155005Y53560005D01*
G75*
G02*
X113225005Y53490005I0J-70000D01*
G01*
G37*
G36*
G01*
X111625005Y53490005D02*
X111625005Y52710005D01*
G75*
G02*
X111555005Y52640005I-70000J0D01*
G01*
X110995005Y52640005D01*
G75*
G02*
X110925005Y52710005I0J70000D01*
G01*
X110925005Y53490005D01*
G75*
G02*
X110995005Y53560005I70000J0D01*
G01*
X111555005Y53560005D01*
G75*
G02*
X111625005Y53490005I0J-70000D01*
G01*
G37*
G04 #@! TD*
G04 #@! TO.C,R23*
G36*
G01*
X105225005Y53490005D02*
X105225005Y52710005D01*
G75*
G02*
X105155005Y52640005I-70000J0D01*
G01*
X104595005Y52640005D01*
G75*
G02*
X104525005Y52710005I0J70000D01*
G01*
X104525005Y53490005D01*
G75*
G02*
X104595005Y53560005I70000J0D01*
G01*
X105155005Y53560005D01*
G75*
G02*
X105225005Y53490005I0J-70000D01*
G01*
G37*
G36*
G01*
X103625005Y53490005D02*
X103625005Y52710005D01*
G75*
G02*
X103555005Y52640005I-70000J0D01*
G01*
X102995005Y52640005D01*
G75*
G02*
X102925005Y52710005I0J70000D01*
G01*
X102925005Y53490005D01*
G75*
G02*
X102995005Y53560005I70000J0D01*
G01*
X103555005Y53560005D01*
G75*
G02*
X103625005Y53490005I0J-70000D01*
G01*
G37*
G04 #@! TD*
G04 #@! TO.C,R21*
G36*
G01*
X86150005Y51637505D02*
X89000005Y51637505D01*
G75*
G02*
X89250005Y51387505I0J-250000D01*
G01*
X89250005Y50662505D01*
G75*
G02*
X89000005Y50412505I-250000J0D01*
G01*
X86150005Y50412505D01*
G75*
G02*
X85900005Y50662505I0J250000D01*
G01*
X85900005Y51387505D01*
G75*
G02*
X86150005Y51637505I250000J0D01*
G01*
G37*
G36*
G01*
X86150005Y45712505D02*
X89000005Y45712505D01*
G75*
G02*
X89250005Y45462505I0J-250000D01*
G01*
X89250005Y44737505D01*
G75*
G02*
X89000005Y44487505I-250000J0D01*
G01*
X86150005Y44487505D01*
G75*
G02*
X85900005Y44737505I0J250000D01*
G01*
X85900005Y45462505D01*
G75*
G02*
X86150005Y45712505I250000J0D01*
G01*
G37*
G04 #@! TD*
G04 #@! TO.C,R20*
G36*
G01*
X78150005Y51712505D02*
X81000005Y51712505D01*
G75*
G02*
X81250005Y51462505I0J-250000D01*
G01*
X81250005Y50737505D01*
G75*
G02*
X81000005Y50487505I-250000J0D01*
G01*
X78150005Y50487505D01*
G75*
G02*
X77900005Y50737505I0J250000D01*
G01*
X77900005Y51462505D01*
G75*
G02*
X78150005Y51712505I250000J0D01*
G01*
G37*
G36*
G01*
X78150005Y45787505D02*
X81000005Y45787505D01*
G75*
G02*
X81250005Y45537505I0J-250000D01*
G01*
X81250005Y44812505D01*
G75*
G02*
X81000005Y44562505I-250000J0D01*
G01*
X78150005Y44562505D01*
G75*
G02*
X77900005Y44812505I0J250000D01*
G01*
X77900005Y45537505D01*
G75*
G02*
X78150005Y45787505I250000J0D01*
G01*
G37*
G04 #@! TD*
D20*
G04 #@! TO.C,M7*
X119937506Y98143343D03*
X120812508Y97618343D03*
X119637504Y96868345D03*
X119712507Y93318344D03*
G04 #@! TD*
M02*
