G04 #@! TF.GenerationSoftware,KiCad,Pcbnew,8.0.8*
G04 #@! TF.CreationDate,2025-12-17T16:31:39-05:00*
G04 #@! TF.ProjectId,hellen121vag,68656c6c-656e-4313-9231-7661672e6b69,d*
G04 #@! TF.SameCoordinates,PX2b953a0PY6943058*
G04 #@! TF.FileFunction,Legend,Top*
G04 #@! TF.FilePolarity,Positive*
%FSLAX46Y46*%
G04 Gerber Fmt 4.6, Leading zero omitted, Abs format (unit mm)*
G04 Created by KiCad (PCBNEW 8.0.8) date 2025-12-17 16:31:39*
%MOMM*%
%LPD*%
G01*
G04 APERTURE LIST*
%ADD10C,0.250000*%
%ADD11C,0.200000*%
%ADD12C,0.222250*%
%ADD13C,0.170000*%
%ADD14C,0.150000*%
%ADD15C,0.127000*%
%ADD16C,0.120000*%
%ADD17C,0.203200*%
%ADD18C,0.099060*%
%ADD19C,0.100000*%
%ADD20C,3.700000*%
%ADD21C,2.200000*%
%ADD22C,2.600000*%
%ADD23C,1.500000*%
G04 APERTURE END LIST*
D10*
X95841666Y18022762D02*
X94698809Y18022762D01*
X95270237Y18022762D02*
X95270237Y20022762D01*
X95270237Y20022762D02*
X95079761Y19737048D01*
X95079761Y19737048D02*
X94889285Y19546572D01*
X94889285Y19546572D02*
X94698809Y19451334D01*
X97079761Y20022762D02*
X97270238Y20022762D01*
X97270238Y20022762D02*
X97460714Y19927524D01*
X97460714Y19927524D02*
X97555952Y19832286D01*
X97555952Y19832286D02*
X97651190Y19641810D01*
X97651190Y19641810D02*
X97746428Y19260858D01*
X97746428Y19260858D02*
X97746428Y18784667D01*
X97746428Y18784667D02*
X97651190Y18403715D01*
X97651190Y18403715D02*
X97555952Y18213239D01*
X97555952Y18213239D02*
X97460714Y18118000D01*
X97460714Y18118000D02*
X97270238Y18022762D01*
X97270238Y18022762D02*
X97079761Y18022762D01*
X97079761Y18022762D02*
X96889285Y18118000D01*
X96889285Y18118000D02*
X96794047Y18213239D01*
X96794047Y18213239D02*
X96698809Y18403715D01*
X96698809Y18403715D02*
X96603571Y18784667D01*
X96603571Y18784667D02*
X96603571Y19260858D01*
X96603571Y19260858D02*
X96698809Y19641810D01*
X96698809Y19641810D02*
X96794047Y19832286D01*
X96794047Y19832286D02*
X96889285Y19927524D01*
X96889285Y19927524D02*
X97079761Y20022762D01*
X99460714Y20022762D02*
X99079761Y20022762D01*
X99079761Y20022762D02*
X98889285Y19927524D01*
X98889285Y19927524D02*
X98794047Y19832286D01*
X98794047Y19832286D02*
X98603571Y19546572D01*
X98603571Y19546572D02*
X98508333Y19165620D01*
X98508333Y19165620D02*
X98508333Y18403715D01*
X98508333Y18403715D02*
X98603571Y18213239D01*
X98603571Y18213239D02*
X98698809Y18118000D01*
X98698809Y18118000D02*
X98889285Y18022762D01*
X98889285Y18022762D02*
X99270238Y18022762D01*
X99270238Y18022762D02*
X99460714Y18118000D01*
X99460714Y18118000D02*
X99555952Y18213239D01*
X99555952Y18213239D02*
X99651190Y18403715D01*
X99651190Y18403715D02*
X99651190Y18879905D01*
X99651190Y18879905D02*
X99555952Y19070381D01*
X99555952Y19070381D02*
X99460714Y19165620D01*
X99460714Y19165620D02*
X99270238Y19260858D01*
X99270238Y19260858D02*
X98889285Y19260858D01*
X98889285Y19260858D02*
X98698809Y19165620D01*
X98698809Y19165620D02*
X98603571Y19070381D01*
X98603571Y19070381D02*
X98508333Y18879905D01*
X24530952Y21261096D02*
X24530952Y19927762D01*
X24054761Y22023000D02*
X23578571Y20594429D01*
X23578571Y20594429D02*
X24816666Y20594429D01*
X33516190Y21927762D02*
X32563809Y21927762D01*
X32563809Y21927762D02*
X32468571Y20975381D01*
X32468571Y20975381D02*
X32563809Y21070620D01*
X32563809Y21070620D02*
X32754285Y21165858D01*
X32754285Y21165858D02*
X33230476Y21165858D01*
X33230476Y21165858D02*
X33420952Y21070620D01*
X33420952Y21070620D02*
X33516190Y20975381D01*
X33516190Y20975381D02*
X33611428Y20784905D01*
X33611428Y20784905D02*
X33611428Y20308715D01*
X33611428Y20308715D02*
X33516190Y20118239D01*
X33516190Y20118239D02*
X33420952Y20023000D01*
X33420952Y20023000D02*
X33230476Y19927762D01*
X33230476Y19927762D02*
X32754285Y19927762D01*
X32754285Y19927762D02*
X32563809Y20023000D01*
X32563809Y20023000D02*
X32468571Y20118239D01*
X32468571Y14117286D02*
X32563809Y14212524D01*
X32563809Y14212524D02*
X32754285Y14307762D01*
X32754285Y14307762D02*
X33230476Y14307762D01*
X33230476Y14307762D02*
X33420952Y14212524D01*
X33420952Y14212524D02*
X33516190Y14117286D01*
X33516190Y14117286D02*
X33611428Y13926810D01*
X33611428Y13926810D02*
X33611428Y13736334D01*
X33611428Y13736334D02*
X33516190Y13450620D01*
X33516190Y13450620D02*
X32373333Y12307762D01*
X32373333Y12307762D02*
X33611428Y12307762D01*
X130240928Y7775002D02*
X130240928Y6917859D01*
X130240928Y7346430D02*
X128740928Y7346430D01*
X128740928Y7346430D02*
X128955214Y7203573D01*
X128955214Y7203573D02*
X129098071Y7060716D01*
X129098071Y7060716D02*
X129169500Y6917859D01*
X130240928Y9203573D02*
X130240928Y8346430D01*
X130240928Y8775001D02*
X128740928Y8775001D01*
X128740928Y8775001D02*
X128955214Y8632144D01*
X128955214Y8632144D02*
X129098071Y8489287D01*
X129098071Y8489287D02*
X129169500Y8346430D01*
X128740928Y9703572D02*
X128740928Y10703572D01*
X128740928Y10703572D02*
X130240928Y10060715D01*
X139130928Y21745002D02*
X139130928Y20887859D01*
X139130928Y21316430D02*
X137630928Y21316430D01*
X137630928Y21316430D02*
X137845214Y21173573D01*
X137845214Y21173573D02*
X137988071Y21030716D01*
X137988071Y21030716D02*
X138059500Y20887859D01*
X137773785Y22316430D02*
X137702357Y22387858D01*
X137702357Y22387858D02*
X137630928Y22530715D01*
X137630928Y22530715D02*
X137630928Y22887858D01*
X137630928Y22887858D02*
X137702357Y23030715D01*
X137702357Y23030715D02*
X137773785Y23102144D01*
X137773785Y23102144D02*
X137916642Y23173573D01*
X137916642Y23173573D02*
X138059500Y23173573D01*
X138059500Y23173573D02*
X138273785Y23102144D01*
X138273785Y23102144D02*
X139130928Y22245001D01*
X139130928Y22245001D02*
X139130928Y23173573D01*
X139130928Y24602144D02*
X139130928Y23745001D01*
X139130928Y24173572D02*
X137630928Y24173572D01*
X137630928Y24173572D02*
X137845214Y24030715D01*
X137845214Y24030715D02*
X137988071Y23887858D01*
X137988071Y23887858D02*
X138059500Y23745001D01*
D11*
X54082219Y4790477D02*
X54082219Y5457143D01*
X54082219Y5457143D02*
X55082219Y5028572D01*
X54082219Y6314286D02*
X54082219Y5838096D01*
X54082219Y5838096D02*
X54558409Y5790477D01*
X54558409Y5790477D02*
X54510790Y5838096D01*
X54510790Y5838096D02*
X54463171Y5933334D01*
X54463171Y5933334D02*
X54463171Y6171429D01*
X54463171Y6171429D02*
X54510790Y6266667D01*
X54510790Y6266667D02*
X54558409Y6314286D01*
X54558409Y6314286D02*
X54653647Y6361905D01*
X54653647Y6361905D02*
X54891742Y6361905D01*
X54891742Y6361905D02*
X54986980Y6314286D01*
X54986980Y6314286D02*
X55034600Y6266667D01*
X55034600Y6266667D02*
X55082219Y6171429D01*
X55082219Y6171429D02*
X55082219Y5933334D01*
X55082219Y5933334D02*
X55034600Y5838096D01*
X55034600Y5838096D02*
X54986980Y5790477D01*
X69322219Y5314286D02*
X69322219Y5123810D01*
X69322219Y5123810D02*
X69369838Y5028572D01*
X69369838Y5028572D02*
X69417457Y4980953D01*
X69417457Y4980953D02*
X69560314Y4885715D01*
X69560314Y4885715D02*
X69750790Y4838096D01*
X69750790Y4838096D02*
X70131742Y4838096D01*
X70131742Y4838096D02*
X70226980Y4885715D01*
X70226980Y4885715D02*
X70274600Y4933334D01*
X70274600Y4933334D02*
X70322219Y5028572D01*
X70322219Y5028572D02*
X70322219Y5219048D01*
X70322219Y5219048D02*
X70274600Y5314286D01*
X70274600Y5314286D02*
X70226980Y5361905D01*
X70226980Y5361905D02*
X70131742Y5409524D01*
X70131742Y5409524D02*
X69893647Y5409524D01*
X69893647Y5409524D02*
X69798409Y5361905D01*
X69798409Y5361905D02*
X69750790Y5314286D01*
X69750790Y5314286D02*
X69703171Y5219048D01*
X69703171Y5219048D02*
X69703171Y5028572D01*
X69703171Y5028572D02*
X69750790Y4933334D01*
X69750790Y4933334D02*
X69798409Y4885715D01*
X69798409Y4885715D02*
X69893647Y4838096D01*
X70322219Y5885715D02*
X70322219Y6076191D01*
X70322219Y6076191D02*
X70274600Y6171429D01*
X70274600Y6171429D02*
X70226980Y6219048D01*
X70226980Y6219048D02*
X70084123Y6314286D01*
X70084123Y6314286D02*
X69893647Y6361905D01*
X69893647Y6361905D02*
X69512695Y6361905D01*
X69512695Y6361905D02*
X69417457Y6314286D01*
X69417457Y6314286D02*
X69369838Y6266667D01*
X69369838Y6266667D02*
X69322219Y6171429D01*
X69322219Y6171429D02*
X69322219Y5980953D01*
X69322219Y5980953D02*
X69369838Y5885715D01*
X69369838Y5885715D02*
X69417457Y5838096D01*
X69417457Y5838096D02*
X69512695Y5790477D01*
X69512695Y5790477D02*
X69750790Y5790477D01*
X69750790Y5790477D02*
X69846028Y5838096D01*
X69846028Y5838096D02*
X69893647Y5885715D01*
X69893647Y5885715D02*
X69941266Y5980953D01*
X69941266Y5980953D02*
X69941266Y6171429D01*
X69941266Y6171429D02*
X69893647Y6266667D01*
X69893647Y6266667D02*
X69846028Y6314286D01*
X69846028Y6314286D02*
X69750790Y6361905D01*
D10*
X86761190Y16657286D02*
X86856428Y16752524D01*
X86856428Y16752524D02*
X87046904Y16847762D01*
X87046904Y16847762D02*
X87523095Y16847762D01*
X87523095Y16847762D02*
X87713571Y16752524D01*
X87713571Y16752524D02*
X87808809Y16657286D01*
X87808809Y16657286D02*
X87904047Y16466810D01*
X87904047Y16466810D02*
X87904047Y16276334D01*
X87904047Y16276334D02*
X87808809Y15990620D01*
X87808809Y15990620D02*
X86665952Y14847762D01*
X86665952Y14847762D02*
X87904047Y14847762D01*
X89713571Y16847762D02*
X88761190Y16847762D01*
X88761190Y16847762D02*
X88665952Y15895381D01*
X88665952Y15895381D02*
X88761190Y15990620D01*
X88761190Y15990620D02*
X88951666Y16085858D01*
X88951666Y16085858D02*
X89427857Y16085858D01*
X89427857Y16085858D02*
X89618333Y15990620D01*
X89618333Y15990620D02*
X89713571Y15895381D01*
X89713571Y15895381D02*
X89808809Y15704905D01*
X89808809Y15704905D02*
X89808809Y15228715D01*
X89808809Y15228715D02*
X89713571Y15038239D01*
X89713571Y15038239D02*
X89618333Y14943000D01*
X89618333Y14943000D02*
X89427857Y14847762D01*
X89427857Y14847762D02*
X88951666Y14847762D01*
X88951666Y14847762D02*
X88761190Y14943000D01*
X88761190Y14943000D02*
X88665952Y15038239D01*
X133415928Y5870002D02*
X133415928Y5012859D01*
X133415928Y5441430D02*
X131915928Y5441430D01*
X131915928Y5441430D02*
X132130214Y5298573D01*
X132130214Y5298573D02*
X132273071Y5155716D01*
X132273071Y5155716D02*
X132344500Y5012859D01*
X133415928Y7298573D02*
X133415928Y6441430D01*
X133415928Y6870001D02*
X131915928Y6870001D01*
X131915928Y6870001D02*
X132130214Y6727144D01*
X132130214Y6727144D02*
X132273071Y6584287D01*
X132273071Y6584287D02*
X132344500Y6441430D01*
X131915928Y8655715D02*
X131915928Y7941429D01*
X131915928Y7941429D02*
X132630214Y7870001D01*
X132630214Y7870001D02*
X132558785Y7941429D01*
X132558785Y7941429D02*
X132487357Y8084286D01*
X132487357Y8084286D02*
X132487357Y8441429D01*
X132487357Y8441429D02*
X132558785Y8584286D01*
X132558785Y8584286D02*
X132630214Y8655715D01*
X132630214Y8655715D02*
X132773071Y8727144D01*
X132773071Y8727144D02*
X133130214Y8727144D01*
X133130214Y8727144D02*
X133273071Y8655715D01*
X133273071Y8655715D02*
X133344500Y8584286D01*
X133344500Y8584286D02*
X133415928Y8441429D01*
X133415928Y8441429D02*
X133415928Y8084286D01*
X133415928Y8084286D02*
X133344500Y7941429D01*
X133344500Y7941429D02*
X133273071Y7870001D01*
X36278571Y16181096D02*
X36278571Y14847762D01*
X35802380Y16943000D02*
X35326190Y15514429D01*
X35326190Y15514429D02*
X36564285Y15514429D01*
X37135714Y16847762D02*
X38373809Y16847762D01*
X38373809Y16847762D02*
X37707142Y16085858D01*
X37707142Y16085858D02*
X37992857Y16085858D01*
X37992857Y16085858D02*
X38183333Y15990620D01*
X38183333Y15990620D02*
X38278571Y15895381D01*
X38278571Y15895381D02*
X38373809Y15704905D01*
X38373809Y15704905D02*
X38373809Y15228715D01*
X38373809Y15228715D02*
X38278571Y15038239D01*
X38278571Y15038239D02*
X38183333Y14943000D01*
X38183333Y14943000D02*
X37992857Y14847762D01*
X37992857Y14847762D02*
X37421428Y14847762D01*
X37421428Y14847762D02*
X37230952Y14943000D01*
X37230952Y14943000D02*
X37135714Y15038239D01*
D11*
X55082219Y20649524D02*
X55082219Y20078096D01*
X55082219Y20363810D02*
X54082219Y20363810D01*
X54082219Y20363810D02*
X54225076Y20268572D01*
X54225076Y20268572D02*
X54320314Y20173334D01*
X54320314Y20173334D02*
X54367933Y20078096D01*
X54510790Y21220953D02*
X54463171Y21125715D01*
X54463171Y21125715D02*
X54415552Y21078096D01*
X54415552Y21078096D02*
X54320314Y21030477D01*
X54320314Y21030477D02*
X54272695Y21030477D01*
X54272695Y21030477D02*
X54177457Y21078096D01*
X54177457Y21078096D02*
X54129838Y21125715D01*
X54129838Y21125715D02*
X54082219Y21220953D01*
X54082219Y21220953D02*
X54082219Y21411429D01*
X54082219Y21411429D02*
X54129838Y21506667D01*
X54129838Y21506667D02*
X54177457Y21554286D01*
X54177457Y21554286D02*
X54272695Y21601905D01*
X54272695Y21601905D02*
X54320314Y21601905D01*
X54320314Y21601905D02*
X54415552Y21554286D01*
X54415552Y21554286D02*
X54463171Y21506667D01*
X54463171Y21506667D02*
X54510790Y21411429D01*
X54510790Y21411429D02*
X54510790Y21220953D01*
X54510790Y21220953D02*
X54558409Y21125715D01*
X54558409Y21125715D02*
X54606028Y21078096D01*
X54606028Y21078096D02*
X54701266Y21030477D01*
X54701266Y21030477D02*
X54891742Y21030477D01*
X54891742Y21030477D02*
X54986980Y21078096D01*
X54986980Y21078096D02*
X55034600Y21125715D01*
X55034600Y21125715D02*
X55082219Y21220953D01*
X55082219Y21220953D02*
X55082219Y21411429D01*
X55082219Y21411429D02*
X55034600Y21506667D01*
X55034600Y21506667D02*
X54986980Y21554286D01*
X54986980Y21554286D02*
X54891742Y21601905D01*
X54891742Y21601905D02*
X54701266Y21601905D01*
X54701266Y21601905D02*
X54606028Y21554286D01*
X54606028Y21554286D02*
X54558409Y21506667D01*
X54558409Y21506667D02*
X54510790Y21411429D01*
D10*
X120606666Y9132762D02*
X120987618Y9132762D01*
X120987618Y9132762D02*
X121178095Y9228000D01*
X121178095Y9228000D02*
X121273333Y9323239D01*
X121273333Y9323239D02*
X121463809Y9608953D01*
X121463809Y9608953D02*
X121559047Y9989905D01*
X121559047Y9989905D02*
X121559047Y10751810D01*
X121559047Y10751810D02*
X121463809Y10942286D01*
X121463809Y10942286D02*
X121368571Y11037524D01*
X121368571Y11037524D02*
X121178095Y11132762D01*
X121178095Y11132762D02*
X120797142Y11132762D01*
X120797142Y11132762D02*
X120606666Y11037524D01*
X120606666Y11037524D02*
X120511428Y10942286D01*
X120511428Y10942286D02*
X120416190Y10751810D01*
X120416190Y10751810D02*
X120416190Y10275620D01*
X120416190Y10275620D02*
X120511428Y10085143D01*
X120511428Y10085143D02*
X120606666Y9989905D01*
X120606666Y9989905D02*
X120797142Y9894667D01*
X120797142Y9894667D02*
X121178095Y9894667D01*
X121178095Y9894667D02*
X121368571Y9989905D01*
X121368571Y9989905D02*
X121463809Y10085143D01*
X121463809Y10085143D02*
X121559047Y10275620D01*
X122225714Y11132762D02*
X123559047Y11132762D01*
X123559047Y11132762D02*
X122701904Y9132762D01*
X35326190Y19832286D02*
X35421428Y19927524D01*
X35421428Y19927524D02*
X35611904Y20022762D01*
X35611904Y20022762D02*
X36088095Y20022762D01*
X36088095Y20022762D02*
X36278571Y19927524D01*
X36278571Y19927524D02*
X36373809Y19832286D01*
X36373809Y19832286D02*
X36469047Y19641810D01*
X36469047Y19641810D02*
X36469047Y19451334D01*
X36469047Y19451334D02*
X36373809Y19165620D01*
X36373809Y19165620D02*
X35230952Y18022762D01*
X35230952Y18022762D02*
X36469047Y18022762D01*
X38183333Y19356096D02*
X38183333Y18022762D01*
X37707142Y20118000D02*
X37230952Y18689429D01*
X37230952Y18689429D02*
X38469047Y18689429D01*
X96476666Y14847762D02*
X96857618Y14847762D01*
X96857618Y14847762D02*
X97048095Y14943000D01*
X97048095Y14943000D02*
X97143333Y15038239D01*
X97143333Y15038239D02*
X97333809Y15323953D01*
X97333809Y15323953D02*
X97429047Y15704905D01*
X97429047Y15704905D02*
X97429047Y16466810D01*
X97429047Y16466810D02*
X97333809Y16657286D01*
X97333809Y16657286D02*
X97238571Y16752524D01*
X97238571Y16752524D02*
X97048095Y16847762D01*
X97048095Y16847762D02*
X96667142Y16847762D01*
X96667142Y16847762D02*
X96476666Y16752524D01*
X96476666Y16752524D02*
X96381428Y16657286D01*
X96381428Y16657286D02*
X96286190Y16466810D01*
X96286190Y16466810D02*
X96286190Y15990620D01*
X96286190Y15990620D02*
X96381428Y15800143D01*
X96381428Y15800143D02*
X96476666Y15704905D01*
X96476666Y15704905D02*
X96667142Y15609667D01*
X96667142Y15609667D02*
X97048095Y15609667D01*
X97048095Y15609667D02*
X97238571Y15704905D01*
X97238571Y15704905D02*
X97333809Y15800143D01*
X97333809Y15800143D02*
X97429047Y15990620D01*
X98571904Y15990620D02*
X98381428Y16085858D01*
X98381428Y16085858D02*
X98286190Y16181096D01*
X98286190Y16181096D02*
X98190952Y16371572D01*
X98190952Y16371572D02*
X98190952Y16466810D01*
X98190952Y16466810D02*
X98286190Y16657286D01*
X98286190Y16657286D02*
X98381428Y16752524D01*
X98381428Y16752524D02*
X98571904Y16847762D01*
X98571904Y16847762D02*
X98952857Y16847762D01*
X98952857Y16847762D02*
X99143333Y16752524D01*
X99143333Y16752524D02*
X99238571Y16657286D01*
X99238571Y16657286D02*
X99333809Y16466810D01*
X99333809Y16466810D02*
X99333809Y16371572D01*
X99333809Y16371572D02*
X99238571Y16181096D01*
X99238571Y16181096D02*
X99143333Y16085858D01*
X99143333Y16085858D02*
X98952857Y15990620D01*
X98952857Y15990620D02*
X98571904Y15990620D01*
X98571904Y15990620D02*
X98381428Y15895381D01*
X98381428Y15895381D02*
X98286190Y15800143D01*
X98286190Y15800143D02*
X98190952Y15609667D01*
X98190952Y15609667D02*
X98190952Y15228715D01*
X98190952Y15228715D02*
X98286190Y15038239D01*
X98286190Y15038239D02*
X98381428Y14943000D01*
X98381428Y14943000D02*
X98571904Y14847762D01*
X98571904Y14847762D02*
X98952857Y14847762D01*
X98952857Y14847762D02*
X99143333Y14943000D01*
X99143333Y14943000D02*
X99238571Y15038239D01*
X99238571Y15038239D02*
X99333809Y15228715D01*
X99333809Y15228715D02*
X99333809Y15609667D01*
X99333809Y15609667D02*
X99238571Y15800143D01*
X99238571Y15800143D02*
X99143333Y15895381D01*
X99143333Y15895381D02*
X98952857Y15990620D01*
X135955928Y7775002D02*
X135955928Y6917859D01*
X135955928Y7346430D02*
X134455928Y7346430D01*
X134455928Y7346430D02*
X134670214Y7203573D01*
X134670214Y7203573D02*
X134813071Y7060716D01*
X134813071Y7060716D02*
X134884500Y6917859D01*
X135955928Y9203573D02*
X135955928Y8346430D01*
X135955928Y8775001D02*
X134455928Y8775001D01*
X134455928Y8775001D02*
X134670214Y8632144D01*
X134670214Y8632144D02*
X134813071Y8489287D01*
X134813071Y8489287D02*
X134884500Y8346430D01*
X135098785Y10060715D02*
X135027357Y9917858D01*
X135027357Y9917858D02*
X134955928Y9846429D01*
X134955928Y9846429D02*
X134813071Y9775001D01*
X134813071Y9775001D02*
X134741642Y9775001D01*
X134741642Y9775001D02*
X134598785Y9846429D01*
X134598785Y9846429D02*
X134527357Y9917858D01*
X134527357Y9917858D02*
X134455928Y10060715D01*
X134455928Y10060715D02*
X134455928Y10346429D01*
X134455928Y10346429D02*
X134527357Y10489286D01*
X134527357Y10489286D02*
X134598785Y10560715D01*
X134598785Y10560715D02*
X134741642Y10632144D01*
X134741642Y10632144D02*
X134813071Y10632144D01*
X134813071Y10632144D02*
X134955928Y10560715D01*
X134955928Y10560715D02*
X135027357Y10489286D01*
X135027357Y10489286D02*
X135098785Y10346429D01*
X135098785Y10346429D02*
X135098785Y10060715D01*
X135098785Y10060715D02*
X135170214Y9917858D01*
X135170214Y9917858D02*
X135241642Y9846429D01*
X135241642Y9846429D02*
X135384500Y9775001D01*
X135384500Y9775001D02*
X135670214Y9775001D01*
X135670214Y9775001D02*
X135813071Y9846429D01*
X135813071Y9846429D02*
X135884500Y9917858D01*
X135884500Y9917858D02*
X135955928Y10060715D01*
X135955928Y10060715D02*
X135955928Y10346429D01*
X135955928Y10346429D02*
X135884500Y10489286D01*
X135884500Y10489286D02*
X135813071Y10560715D01*
X135813071Y10560715D02*
X135670214Y10632144D01*
X135670214Y10632144D02*
X135384500Y10632144D01*
X135384500Y10632144D02*
X135241642Y10560715D01*
X135241642Y10560715D02*
X135170214Y10489286D01*
X135170214Y10489286D02*
X135098785Y10346429D01*
X24721428Y12307762D02*
X23578571Y12307762D01*
X24149999Y12307762D02*
X24149999Y14307762D01*
X24149999Y14307762D02*
X23959523Y14022048D01*
X23959523Y14022048D02*
X23769047Y13831572D01*
X23769047Y13831572D02*
X23578571Y13736334D01*
X35707142Y7735620D02*
X35516666Y7830858D01*
X35516666Y7830858D02*
X35421428Y7926096D01*
X35421428Y7926096D02*
X35326190Y8116572D01*
X35326190Y8116572D02*
X35326190Y8211810D01*
X35326190Y8211810D02*
X35421428Y8402286D01*
X35421428Y8402286D02*
X35516666Y8497524D01*
X35516666Y8497524D02*
X35707142Y8592762D01*
X35707142Y8592762D02*
X36088095Y8592762D01*
X36088095Y8592762D02*
X36278571Y8497524D01*
X36278571Y8497524D02*
X36373809Y8402286D01*
X36373809Y8402286D02*
X36469047Y8211810D01*
X36469047Y8211810D02*
X36469047Y8116572D01*
X36469047Y8116572D02*
X36373809Y7926096D01*
X36373809Y7926096D02*
X36278571Y7830858D01*
X36278571Y7830858D02*
X36088095Y7735620D01*
X36088095Y7735620D02*
X35707142Y7735620D01*
X35707142Y7735620D02*
X35516666Y7640381D01*
X35516666Y7640381D02*
X35421428Y7545143D01*
X35421428Y7545143D02*
X35326190Y7354667D01*
X35326190Y7354667D02*
X35326190Y6973715D01*
X35326190Y6973715D02*
X35421428Y6783239D01*
X35421428Y6783239D02*
X35516666Y6688000D01*
X35516666Y6688000D02*
X35707142Y6592762D01*
X35707142Y6592762D02*
X36088095Y6592762D01*
X36088095Y6592762D02*
X36278571Y6688000D01*
X36278571Y6688000D02*
X36373809Y6783239D01*
X36373809Y6783239D02*
X36469047Y6973715D01*
X36469047Y6973715D02*
X36469047Y7354667D01*
X36469047Y7354667D02*
X36373809Y7545143D01*
X36373809Y7545143D02*
X36278571Y7640381D01*
X36278571Y7640381D02*
X36088095Y7735620D01*
X38373809Y6592762D02*
X37230952Y6592762D01*
X37802380Y6592762D02*
X37802380Y8592762D01*
X37802380Y8592762D02*
X37611904Y8307048D01*
X37611904Y8307048D02*
X37421428Y8116572D01*
X37421428Y8116572D02*
X37230952Y8021334D01*
X127065928Y21745002D02*
X127065928Y20887859D01*
X127065928Y21316430D02*
X125565928Y21316430D01*
X125565928Y21316430D02*
X125780214Y21173573D01*
X125780214Y21173573D02*
X125923071Y21030716D01*
X125923071Y21030716D02*
X125994500Y20887859D01*
X127065928Y23173573D02*
X127065928Y22316430D01*
X127065928Y22745001D02*
X125565928Y22745001D01*
X125565928Y22745001D02*
X125780214Y22602144D01*
X125780214Y22602144D02*
X125923071Y22459287D01*
X125923071Y22459287D02*
X125994500Y22316430D01*
X127065928Y23887858D02*
X127065928Y24173572D01*
X127065928Y24173572D02*
X126994500Y24316429D01*
X126994500Y24316429D02*
X126923071Y24387858D01*
X126923071Y24387858D02*
X126708785Y24530715D01*
X126708785Y24530715D02*
X126423071Y24602144D01*
X126423071Y24602144D02*
X125851642Y24602144D01*
X125851642Y24602144D02*
X125708785Y24530715D01*
X125708785Y24530715D02*
X125637357Y24459286D01*
X125637357Y24459286D02*
X125565928Y24316429D01*
X125565928Y24316429D02*
X125565928Y24030715D01*
X125565928Y24030715D02*
X125637357Y23887858D01*
X125637357Y23887858D02*
X125708785Y23816429D01*
X125708785Y23816429D02*
X125851642Y23745001D01*
X125851642Y23745001D02*
X126208785Y23745001D01*
X126208785Y23745001D02*
X126351642Y23816429D01*
X126351642Y23816429D02*
X126423071Y23887858D01*
X126423071Y23887858D02*
X126494500Y24030715D01*
X126494500Y24030715D02*
X126494500Y24316429D01*
X126494500Y24316429D02*
X126423071Y24459286D01*
X126423071Y24459286D02*
X126351642Y24530715D01*
X126351642Y24530715D02*
X126208785Y24602144D01*
X87713571Y10466096D02*
X87713571Y9132762D01*
X87237380Y11228000D02*
X86761190Y9799429D01*
X86761190Y9799429D02*
X87999285Y9799429D01*
X89618333Y10466096D02*
X89618333Y9132762D01*
X89142142Y11228000D02*
X88665952Y9799429D01*
X88665952Y9799429D02*
X89904047Y9799429D01*
X96667142Y7735620D02*
X96476666Y7830858D01*
X96476666Y7830858D02*
X96381428Y7926096D01*
X96381428Y7926096D02*
X96286190Y8116572D01*
X96286190Y8116572D02*
X96286190Y8211810D01*
X96286190Y8211810D02*
X96381428Y8402286D01*
X96381428Y8402286D02*
X96476666Y8497524D01*
X96476666Y8497524D02*
X96667142Y8592762D01*
X96667142Y8592762D02*
X97048095Y8592762D01*
X97048095Y8592762D02*
X97238571Y8497524D01*
X97238571Y8497524D02*
X97333809Y8402286D01*
X97333809Y8402286D02*
X97429047Y8211810D01*
X97429047Y8211810D02*
X97429047Y8116572D01*
X97429047Y8116572D02*
X97333809Y7926096D01*
X97333809Y7926096D02*
X97238571Y7830858D01*
X97238571Y7830858D02*
X97048095Y7735620D01*
X97048095Y7735620D02*
X96667142Y7735620D01*
X96667142Y7735620D02*
X96476666Y7640381D01*
X96476666Y7640381D02*
X96381428Y7545143D01*
X96381428Y7545143D02*
X96286190Y7354667D01*
X96286190Y7354667D02*
X96286190Y6973715D01*
X96286190Y6973715D02*
X96381428Y6783239D01*
X96381428Y6783239D02*
X96476666Y6688000D01*
X96476666Y6688000D02*
X96667142Y6592762D01*
X96667142Y6592762D02*
X97048095Y6592762D01*
X97048095Y6592762D02*
X97238571Y6688000D01*
X97238571Y6688000D02*
X97333809Y6783239D01*
X97333809Y6783239D02*
X97429047Y6973715D01*
X97429047Y6973715D02*
X97429047Y7354667D01*
X97429047Y7354667D02*
X97333809Y7545143D01*
X97333809Y7545143D02*
X97238571Y7640381D01*
X97238571Y7640381D02*
X97048095Y7735620D01*
X98190952Y8402286D02*
X98286190Y8497524D01*
X98286190Y8497524D02*
X98476666Y8592762D01*
X98476666Y8592762D02*
X98952857Y8592762D01*
X98952857Y8592762D02*
X99143333Y8497524D01*
X99143333Y8497524D02*
X99238571Y8402286D01*
X99238571Y8402286D02*
X99333809Y8211810D01*
X99333809Y8211810D02*
X99333809Y8021334D01*
X99333809Y8021334D02*
X99238571Y7735620D01*
X99238571Y7735620D02*
X98095714Y6592762D01*
X98095714Y6592762D02*
X99333809Y6592762D01*
X27928333Y16847762D02*
X29166428Y16847762D01*
X29166428Y16847762D02*
X28499761Y16085858D01*
X28499761Y16085858D02*
X28785476Y16085858D01*
X28785476Y16085858D02*
X28975952Y15990620D01*
X28975952Y15990620D02*
X29071190Y15895381D01*
X29071190Y15895381D02*
X29166428Y15704905D01*
X29166428Y15704905D02*
X29166428Y15228715D01*
X29166428Y15228715D02*
X29071190Y15038239D01*
X29071190Y15038239D02*
X28975952Y14943000D01*
X28975952Y14943000D02*
X28785476Y14847762D01*
X28785476Y14847762D02*
X28214047Y14847762D01*
X28214047Y14847762D02*
X28023571Y14943000D01*
X28023571Y14943000D02*
X27928333Y15038239D01*
X120797142Y7735620D02*
X120606666Y7830858D01*
X120606666Y7830858D02*
X120511428Y7926096D01*
X120511428Y7926096D02*
X120416190Y8116572D01*
X120416190Y8116572D02*
X120416190Y8211810D01*
X120416190Y8211810D02*
X120511428Y8402286D01*
X120511428Y8402286D02*
X120606666Y8497524D01*
X120606666Y8497524D02*
X120797142Y8592762D01*
X120797142Y8592762D02*
X121178095Y8592762D01*
X121178095Y8592762D02*
X121368571Y8497524D01*
X121368571Y8497524D02*
X121463809Y8402286D01*
X121463809Y8402286D02*
X121559047Y8211810D01*
X121559047Y8211810D02*
X121559047Y8116572D01*
X121559047Y8116572D02*
X121463809Y7926096D01*
X121463809Y7926096D02*
X121368571Y7830858D01*
X121368571Y7830858D02*
X121178095Y7735620D01*
X121178095Y7735620D02*
X120797142Y7735620D01*
X120797142Y7735620D02*
X120606666Y7640381D01*
X120606666Y7640381D02*
X120511428Y7545143D01*
X120511428Y7545143D02*
X120416190Y7354667D01*
X120416190Y7354667D02*
X120416190Y6973715D01*
X120416190Y6973715D02*
X120511428Y6783239D01*
X120511428Y6783239D02*
X120606666Y6688000D01*
X120606666Y6688000D02*
X120797142Y6592762D01*
X120797142Y6592762D02*
X121178095Y6592762D01*
X121178095Y6592762D02*
X121368571Y6688000D01*
X121368571Y6688000D02*
X121463809Y6783239D01*
X121463809Y6783239D02*
X121559047Y6973715D01*
X121559047Y6973715D02*
X121559047Y7354667D01*
X121559047Y7354667D02*
X121463809Y7545143D01*
X121463809Y7545143D02*
X121368571Y7640381D01*
X121368571Y7640381D02*
X121178095Y7735620D01*
X122511428Y6592762D02*
X122892380Y6592762D01*
X122892380Y6592762D02*
X123082857Y6688000D01*
X123082857Y6688000D02*
X123178095Y6783239D01*
X123178095Y6783239D02*
X123368571Y7068953D01*
X123368571Y7068953D02*
X123463809Y7449905D01*
X123463809Y7449905D02*
X123463809Y8211810D01*
X123463809Y8211810D02*
X123368571Y8402286D01*
X123368571Y8402286D02*
X123273333Y8497524D01*
X123273333Y8497524D02*
X123082857Y8592762D01*
X123082857Y8592762D02*
X122701904Y8592762D01*
X122701904Y8592762D02*
X122511428Y8497524D01*
X122511428Y8497524D02*
X122416190Y8402286D01*
X122416190Y8402286D02*
X122320952Y8211810D01*
X122320952Y8211810D02*
X122320952Y7735620D01*
X122320952Y7735620D02*
X122416190Y7545143D01*
X122416190Y7545143D02*
X122511428Y7449905D01*
X122511428Y7449905D02*
X122701904Y7354667D01*
X122701904Y7354667D02*
X123082857Y7354667D01*
X123082857Y7354667D02*
X123273333Y7449905D01*
X123273333Y7449905D02*
X123368571Y7545143D01*
X123368571Y7545143D02*
X123463809Y7735620D01*
X87713571Y8592762D02*
X87332618Y8592762D01*
X87332618Y8592762D02*
X87142142Y8497524D01*
X87142142Y8497524D02*
X87046904Y8402286D01*
X87046904Y8402286D02*
X86856428Y8116572D01*
X86856428Y8116572D02*
X86761190Y7735620D01*
X86761190Y7735620D02*
X86761190Y6973715D01*
X86761190Y6973715D02*
X86856428Y6783239D01*
X86856428Y6783239D02*
X86951666Y6688000D01*
X86951666Y6688000D02*
X87142142Y6592762D01*
X87142142Y6592762D02*
X87523095Y6592762D01*
X87523095Y6592762D02*
X87713571Y6688000D01*
X87713571Y6688000D02*
X87808809Y6783239D01*
X87808809Y6783239D02*
X87904047Y6973715D01*
X87904047Y6973715D02*
X87904047Y7449905D01*
X87904047Y7449905D02*
X87808809Y7640381D01*
X87808809Y7640381D02*
X87713571Y7735620D01*
X87713571Y7735620D02*
X87523095Y7830858D01*
X87523095Y7830858D02*
X87142142Y7830858D01*
X87142142Y7830858D02*
X86951666Y7735620D01*
X86951666Y7735620D02*
X86856428Y7640381D01*
X86856428Y7640381D02*
X86761190Y7449905D01*
X88570714Y8592762D02*
X89808809Y8592762D01*
X89808809Y8592762D02*
X89142142Y7830858D01*
X89142142Y7830858D02*
X89427857Y7830858D01*
X89427857Y7830858D02*
X89618333Y7735620D01*
X89618333Y7735620D02*
X89713571Y7640381D01*
X89713571Y7640381D02*
X89808809Y7449905D01*
X89808809Y7449905D02*
X89808809Y6973715D01*
X89808809Y6973715D02*
X89713571Y6783239D01*
X89713571Y6783239D02*
X89618333Y6688000D01*
X89618333Y6688000D02*
X89427857Y6592762D01*
X89427857Y6592762D02*
X88856428Y6592762D01*
X88856428Y6592762D02*
X88665952Y6688000D01*
X88665952Y6688000D02*
X88570714Y6783239D01*
X127065928Y5870002D02*
X127065928Y5012859D01*
X127065928Y5441430D02*
X125565928Y5441430D01*
X125565928Y5441430D02*
X125780214Y5298573D01*
X125780214Y5298573D02*
X125923071Y5155716D01*
X125923071Y5155716D02*
X125994500Y5012859D01*
X127065928Y7298573D02*
X127065928Y6441430D01*
X127065928Y6870001D02*
X125565928Y6870001D01*
X125565928Y6870001D02*
X125780214Y6727144D01*
X125780214Y6727144D02*
X125923071Y6584287D01*
X125923071Y6584287D02*
X125994500Y6441430D01*
X126065928Y8584286D02*
X127065928Y8584286D01*
X125494500Y8227144D02*
X126565928Y7870001D01*
X126565928Y7870001D02*
X126565928Y8798572D01*
X132780928Y21745002D02*
X132780928Y20887859D01*
X132780928Y21316430D02*
X131280928Y21316430D01*
X131280928Y21316430D02*
X131495214Y21173573D01*
X131495214Y21173573D02*
X131638071Y21030716D01*
X131638071Y21030716D02*
X131709500Y20887859D01*
X131423785Y22316430D02*
X131352357Y22387858D01*
X131352357Y22387858D02*
X131280928Y22530715D01*
X131280928Y22530715D02*
X131280928Y22887858D01*
X131280928Y22887858D02*
X131352357Y23030715D01*
X131352357Y23030715D02*
X131423785Y23102144D01*
X131423785Y23102144D02*
X131566642Y23173573D01*
X131566642Y23173573D02*
X131709500Y23173573D01*
X131709500Y23173573D02*
X131923785Y23102144D01*
X131923785Y23102144D02*
X132780928Y22245001D01*
X132780928Y22245001D02*
X132780928Y23173573D01*
X131280928Y24102144D02*
X131280928Y24245001D01*
X131280928Y24245001D02*
X131352357Y24387858D01*
X131352357Y24387858D02*
X131423785Y24459286D01*
X131423785Y24459286D02*
X131566642Y24530715D01*
X131566642Y24530715D02*
X131852357Y24602144D01*
X131852357Y24602144D02*
X132209500Y24602144D01*
X132209500Y24602144D02*
X132495214Y24530715D01*
X132495214Y24530715D02*
X132638071Y24459286D01*
X132638071Y24459286D02*
X132709500Y24387858D01*
X132709500Y24387858D02*
X132780928Y24245001D01*
X132780928Y24245001D02*
X132780928Y24102144D01*
X132780928Y24102144D02*
X132709500Y23959286D01*
X132709500Y23959286D02*
X132638071Y23887858D01*
X132638071Y23887858D02*
X132495214Y23816429D01*
X132495214Y23816429D02*
X132209500Y23745001D01*
X132209500Y23745001D02*
X131852357Y23745001D01*
X131852357Y23745001D02*
X131566642Y23816429D01*
X131566642Y23816429D02*
X131423785Y23887858D01*
X131423785Y23887858D02*
X131352357Y23959286D01*
X131352357Y23959286D02*
X131280928Y24102144D01*
X88030952Y20022762D02*
X87649999Y20022762D01*
X87649999Y20022762D02*
X87459523Y19927524D01*
X87459523Y19927524D02*
X87364285Y19832286D01*
X87364285Y19832286D02*
X87173809Y19546572D01*
X87173809Y19546572D02*
X87078571Y19165620D01*
X87078571Y19165620D02*
X87078571Y18403715D01*
X87078571Y18403715D02*
X87173809Y18213239D01*
X87173809Y18213239D02*
X87269047Y18118000D01*
X87269047Y18118000D02*
X87459523Y18022762D01*
X87459523Y18022762D02*
X87840476Y18022762D01*
X87840476Y18022762D02*
X88030952Y18118000D01*
X88030952Y18118000D02*
X88126190Y18213239D01*
X88126190Y18213239D02*
X88221428Y18403715D01*
X88221428Y18403715D02*
X88221428Y18879905D01*
X88221428Y18879905D02*
X88126190Y19070381D01*
X88126190Y19070381D02*
X88030952Y19165620D01*
X88030952Y19165620D02*
X87840476Y19260858D01*
X87840476Y19260858D02*
X87459523Y19260858D01*
X87459523Y19260858D02*
X87269047Y19165620D01*
X87269047Y19165620D02*
X87173809Y19070381D01*
X87173809Y19070381D02*
X87078571Y18879905D01*
X96476666Y9132762D02*
X96857618Y9132762D01*
X96857618Y9132762D02*
X97048095Y9228000D01*
X97048095Y9228000D02*
X97143333Y9323239D01*
X97143333Y9323239D02*
X97333809Y9608953D01*
X97333809Y9608953D02*
X97429047Y9989905D01*
X97429047Y9989905D02*
X97429047Y10751810D01*
X97429047Y10751810D02*
X97333809Y10942286D01*
X97333809Y10942286D02*
X97238571Y11037524D01*
X97238571Y11037524D02*
X97048095Y11132762D01*
X97048095Y11132762D02*
X96667142Y11132762D01*
X96667142Y11132762D02*
X96476666Y11037524D01*
X96476666Y11037524D02*
X96381428Y10942286D01*
X96381428Y10942286D02*
X96286190Y10751810D01*
X96286190Y10751810D02*
X96286190Y10275620D01*
X96286190Y10275620D02*
X96381428Y10085143D01*
X96381428Y10085143D02*
X96476666Y9989905D01*
X96476666Y9989905D02*
X96667142Y9894667D01*
X96667142Y9894667D02*
X97048095Y9894667D01*
X97048095Y9894667D02*
X97238571Y9989905D01*
X97238571Y9989905D02*
X97333809Y10085143D01*
X97333809Y10085143D02*
X97429047Y10275620D01*
X98667142Y11132762D02*
X98857619Y11132762D01*
X98857619Y11132762D02*
X99048095Y11037524D01*
X99048095Y11037524D02*
X99143333Y10942286D01*
X99143333Y10942286D02*
X99238571Y10751810D01*
X99238571Y10751810D02*
X99333809Y10370858D01*
X99333809Y10370858D02*
X99333809Y9894667D01*
X99333809Y9894667D02*
X99238571Y9513715D01*
X99238571Y9513715D02*
X99143333Y9323239D01*
X99143333Y9323239D02*
X99048095Y9228000D01*
X99048095Y9228000D02*
X98857619Y9132762D01*
X98857619Y9132762D02*
X98667142Y9132762D01*
X98667142Y9132762D02*
X98476666Y9228000D01*
X98476666Y9228000D02*
X98381428Y9323239D01*
X98381428Y9323239D02*
X98286190Y9513715D01*
X98286190Y9513715D02*
X98190952Y9894667D01*
X98190952Y9894667D02*
X98190952Y10370858D01*
X98190952Y10370858D02*
X98286190Y10751810D01*
X98286190Y10751810D02*
X98381428Y10942286D01*
X98381428Y10942286D02*
X98476666Y11037524D01*
X98476666Y11037524D02*
X98667142Y11132762D01*
X121241666Y18022762D02*
X120098809Y18022762D01*
X120670237Y18022762D02*
X120670237Y20022762D01*
X120670237Y20022762D02*
X120479761Y19737048D01*
X120479761Y19737048D02*
X120289285Y19546572D01*
X120289285Y19546572D02*
X120098809Y19451334D01*
X123146428Y18022762D02*
X122003571Y18022762D01*
X122574999Y18022762D02*
X122574999Y20022762D01*
X122574999Y20022762D02*
X122384523Y19737048D01*
X122384523Y19737048D02*
X122194047Y19546572D01*
X122194047Y19546572D02*
X122003571Y19451334D01*
X123813095Y20022762D02*
X125051190Y20022762D01*
X125051190Y20022762D02*
X124384523Y19260858D01*
X124384523Y19260858D02*
X124670238Y19260858D01*
X124670238Y19260858D02*
X124860714Y19165620D01*
X124860714Y19165620D02*
X124955952Y19070381D01*
X124955952Y19070381D02*
X125051190Y18879905D01*
X125051190Y18879905D02*
X125051190Y18403715D01*
X125051190Y18403715D02*
X124955952Y18213239D01*
X124955952Y18213239D02*
X124860714Y18118000D01*
X124860714Y18118000D02*
X124670238Y18022762D01*
X124670238Y18022762D02*
X124098809Y18022762D01*
X124098809Y18022762D02*
X123908333Y18118000D01*
X123908333Y18118000D02*
X123813095Y18213239D01*
X36278571Y11132762D02*
X35897618Y11132762D01*
X35897618Y11132762D02*
X35707142Y11037524D01*
X35707142Y11037524D02*
X35611904Y10942286D01*
X35611904Y10942286D02*
X35421428Y10656572D01*
X35421428Y10656572D02*
X35326190Y10275620D01*
X35326190Y10275620D02*
X35326190Y9513715D01*
X35326190Y9513715D02*
X35421428Y9323239D01*
X35421428Y9323239D02*
X35516666Y9228000D01*
X35516666Y9228000D02*
X35707142Y9132762D01*
X35707142Y9132762D02*
X36088095Y9132762D01*
X36088095Y9132762D02*
X36278571Y9228000D01*
X36278571Y9228000D02*
X36373809Y9323239D01*
X36373809Y9323239D02*
X36469047Y9513715D01*
X36469047Y9513715D02*
X36469047Y9989905D01*
X36469047Y9989905D02*
X36373809Y10180381D01*
X36373809Y10180381D02*
X36278571Y10275620D01*
X36278571Y10275620D02*
X36088095Y10370858D01*
X36088095Y10370858D02*
X35707142Y10370858D01*
X35707142Y10370858D02*
X35516666Y10275620D01*
X35516666Y10275620D02*
X35421428Y10180381D01*
X35421428Y10180381D02*
X35326190Y9989905D01*
X37230952Y10942286D02*
X37326190Y11037524D01*
X37326190Y11037524D02*
X37516666Y11132762D01*
X37516666Y11132762D02*
X37992857Y11132762D01*
X37992857Y11132762D02*
X38183333Y11037524D01*
X38183333Y11037524D02*
X38278571Y10942286D01*
X38278571Y10942286D02*
X38373809Y10751810D01*
X38373809Y10751810D02*
X38373809Y10561334D01*
X38373809Y10561334D02*
X38278571Y10275620D01*
X38278571Y10275620D02*
X37135714Y9132762D01*
X37135714Y9132762D02*
X38373809Y9132762D01*
X121241666Y14847762D02*
X120098809Y14847762D01*
X120670237Y14847762D02*
X120670237Y16847762D01*
X120670237Y16847762D02*
X120479761Y16562048D01*
X120479761Y16562048D02*
X120289285Y16371572D01*
X120289285Y16371572D02*
X120098809Y16276334D01*
X122479761Y16847762D02*
X122670238Y16847762D01*
X122670238Y16847762D02*
X122860714Y16752524D01*
X122860714Y16752524D02*
X122955952Y16657286D01*
X122955952Y16657286D02*
X123051190Y16466810D01*
X123051190Y16466810D02*
X123146428Y16085858D01*
X123146428Y16085858D02*
X123146428Y15609667D01*
X123146428Y15609667D02*
X123051190Y15228715D01*
X123051190Y15228715D02*
X122955952Y15038239D01*
X122955952Y15038239D02*
X122860714Y14943000D01*
X122860714Y14943000D02*
X122670238Y14847762D01*
X122670238Y14847762D02*
X122479761Y14847762D01*
X122479761Y14847762D02*
X122289285Y14943000D01*
X122289285Y14943000D02*
X122194047Y15038239D01*
X122194047Y15038239D02*
X122098809Y15228715D01*
X122098809Y15228715D02*
X122003571Y15609667D01*
X122003571Y15609667D02*
X122003571Y16085858D01*
X122003571Y16085858D02*
X122098809Y16466810D01*
X122098809Y16466810D02*
X122194047Y16657286D01*
X122194047Y16657286D02*
X122289285Y16752524D01*
X122289285Y16752524D02*
X122479761Y16847762D01*
X124955952Y16847762D02*
X124003571Y16847762D01*
X124003571Y16847762D02*
X123908333Y15895381D01*
X123908333Y15895381D02*
X124003571Y15990620D01*
X124003571Y15990620D02*
X124194047Y16085858D01*
X124194047Y16085858D02*
X124670238Y16085858D01*
X124670238Y16085858D02*
X124860714Y15990620D01*
X124860714Y15990620D02*
X124955952Y15895381D01*
X124955952Y15895381D02*
X125051190Y15704905D01*
X125051190Y15704905D02*
X125051190Y15228715D01*
X125051190Y15228715D02*
X124955952Y15038239D01*
X124955952Y15038239D02*
X124860714Y14943000D01*
X124860714Y14943000D02*
X124670238Y14847762D01*
X124670238Y14847762D02*
X124194047Y14847762D01*
X124194047Y14847762D02*
X124003571Y14943000D01*
X124003571Y14943000D02*
X123908333Y15038239D01*
X139130928Y5870002D02*
X139130928Y5012859D01*
X139130928Y5441430D02*
X137630928Y5441430D01*
X137630928Y5441430D02*
X137845214Y5298573D01*
X137845214Y5298573D02*
X137988071Y5155716D01*
X137988071Y5155716D02*
X138059500Y5012859D01*
X139130928Y7298573D02*
X139130928Y6441430D01*
X139130928Y6870001D02*
X137630928Y6870001D01*
X137630928Y6870001D02*
X137845214Y6727144D01*
X137845214Y6727144D02*
X137988071Y6584287D01*
X137988071Y6584287D02*
X138059500Y6441430D01*
X137630928Y8584286D02*
X137630928Y8298572D01*
X137630928Y8298572D02*
X137702357Y8155715D01*
X137702357Y8155715D02*
X137773785Y8084286D01*
X137773785Y8084286D02*
X137988071Y7941429D01*
X137988071Y7941429D02*
X138273785Y7870001D01*
X138273785Y7870001D02*
X138845214Y7870001D01*
X138845214Y7870001D02*
X138988071Y7941429D01*
X138988071Y7941429D02*
X139059500Y8012858D01*
X139059500Y8012858D02*
X139130928Y8155715D01*
X139130928Y8155715D02*
X139130928Y8441429D01*
X139130928Y8441429D02*
X139059500Y8584286D01*
X139059500Y8584286D02*
X138988071Y8655715D01*
X138988071Y8655715D02*
X138845214Y8727144D01*
X138845214Y8727144D02*
X138488071Y8727144D01*
X138488071Y8727144D02*
X138345214Y8655715D01*
X138345214Y8655715D02*
X138273785Y8584286D01*
X138273785Y8584286D02*
X138202357Y8441429D01*
X138202357Y8441429D02*
X138202357Y8155715D01*
X138202357Y8155715D02*
X138273785Y8012858D01*
X138273785Y8012858D02*
X138345214Y7941429D01*
X138345214Y7941429D02*
X138488071Y7870001D01*
D11*
X70322219Y20649524D02*
X70322219Y20078096D01*
X70322219Y20363810D02*
X69322219Y20363810D01*
X69322219Y20363810D02*
X69465076Y20268572D01*
X69465076Y20268572D02*
X69560314Y20173334D01*
X69560314Y20173334D02*
X69607933Y20078096D01*
X69417457Y21030477D02*
X69369838Y21078096D01*
X69369838Y21078096D02*
X69322219Y21173334D01*
X69322219Y21173334D02*
X69322219Y21411429D01*
X69322219Y21411429D02*
X69369838Y21506667D01*
X69369838Y21506667D02*
X69417457Y21554286D01*
X69417457Y21554286D02*
X69512695Y21601905D01*
X69512695Y21601905D02*
X69607933Y21601905D01*
X69607933Y21601905D02*
X69750790Y21554286D01*
X69750790Y21554286D02*
X70322219Y20982858D01*
X70322219Y20982858D02*
X70322219Y21601905D01*
D12*
X152897712Y8825834D02*
X152008712Y8825834D01*
X152008712Y8825834D02*
X152008712Y9164501D01*
X152008712Y9164501D02*
X152051045Y9249167D01*
X152051045Y9249167D02*
X152093379Y9291501D01*
X152093379Y9291501D02*
X152178045Y9333834D01*
X152178045Y9333834D02*
X152305045Y9333834D01*
X152305045Y9333834D02*
X152389712Y9291501D01*
X152389712Y9291501D02*
X152432045Y9249167D01*
X152432045Y9249167D02*
X152474379Y9164501D01*
X152474379Y9164501D02*
X152474379Y8825834D01*
X152897712Y10180501D02*
X152897712Y9672501D01*
X152897712Y9926501D02*
X152008712Y9926501D01*
X152008712Y9926501D02*
X152135712Y9841834D01*
X152135712Y9841834D02*
X152220379Y9757167D01*
X152220379Y9757167D02*
X152262712Y9672501D01*
D13*
X59413026Y63511853D02*
X59686360Y63121376D01*
X59881598Y63511853D02*
X59881598Y62691852D01*
X59881598Y62691852D02*
X59569217Y62691852D01*
X59569217Y62691852D02*
X59491122Y62730900D01*
X59491122Y62730900D02*
X59452074Y62769947D01*
X59452074Y62769947D02*
X59413026Y62848043D01*
X59413026Y62848043D02*
X59413026Y62965186D01*
X59413026Y62965186D02*
X59452074Y63043281D01*
X59452074Y63043281D02*
X59491122Y63082329D01*
X59491122Y63082329D02*
X59569217Y63121376D01*
X59569217Y63121376D02*
X59881598Y63121376D01*
X58944454Y63043281D02*
X59022550Y63004233D01*
X59022550Y63004233D02*
X59061597Y62965186D01*
X59061597Y62965186D02*
X59100645Y62887090D01*
X59100645Y62887090D02*
X59100645Y62848043D01*
X59100645Y62848043D02*
X59061597Y62769947D01*
X59061597Y62769947D02*
X59022550Y62730900D01*
X59022550Y62730900D02*
X58944454Y62691852D01*
X58944454Y62691852D02*
X58788264Y62691852D01*
X58788264Y62691852D02*
X58710168Y62730900D01*
X58710168Y62730900D02*
X58671121Y62769947D01*
X58671121Y62769947D02*
X58632073Y62848043D01*
X58632073Y62848043D02*
X58632073Y62887090D01*
X58632073Y62887090D02*
X58671121Y62965186D01*
X58671121Y62965186D02*
X58710168Y63004233D01*
X58710168Y63004233D02*
X58788264Y63043281D01*
X58788264Y63043281D02*
X58944454Y63043281D01*
X58944454Y63043281D02*
X59022550Y63082329D01*
X59022550Y63082329D02*
X59061597Y63121376D01*
X59061597Y63121376D02*
X59100645Y63199472D01*
X59100645Y63199472D02*
X59100645Y63355662D01*
X59100645Y63355662D02*
X59061597Y63433758D01*
X59061597Y63433758D02*
X59022550Y63472805D01*
X59022550Y63472805D02*
X58944454Y63511853D01*
X58944454Y63511853D02*
X58788264Y63511853D01*
X58788264Y63511853D02*
X58710168Y63472805D01*
X58710168Y63472805D02*
X58671121Y63433758D01*
X58671121Y63433758D02*
X58632073Y63355662D01*
X58632073Y63355662D02*
X58632073Y63199472D01*
X58632073Y63199472D02*
X58671121Y63121376D01*
X58671121Y63121376D02*
X58710168Y63082329D01*
X58710168Y63082329D02*
X58788264Y63043281D01*
X59413026Y66511853D02*
X59686360Y66121376D01*
X59881598Y66511853D02*
X59881598Y65691852D01*
X59881598Y65691852D02*
X59569217Y65691852D01*
X59569217Y65691852D02*
X59491122Y65730900D01*
X59491122Y65730900D02*
X59452074Y65769947D01*
X59452074Y65769947D02*
X59413026Y65848043D01*
X59413026Y65848043D02*
X59413026Y65965186D01*
X59413026Y65965186D02*
X59452074Y66043281D01*
X59452074Y66043281D02*
X59491122Y66082329D01*
X59491122Y66082329D02*
X59569217Y66121376D01*
X59569217Y66121376D02*
X59881598Y66121376D01*
X59022550Y66511853D02*
X58866359Y66511853D01*
X58866359Y66511853D02*
X58788264Y66472805D01*
X58788264Y66472805D02*
X58749216Y66433758D01*
X58749216Y66433758D02*
X58671121Y66316615D01*
X58671121Y66316615D02*
X58632073Y66160424D01*
X58632073Y66160424D02*
X58632073Y65848043D01*
X58632073Y65848043D02*
X58671121Y65769947D01*
X58671121Y65769947D02*
X58710168Y65730900D01*
X58710168Y65730900D02*
X58788264Y65691852D01*
X58788264Y65691852D02*
X58944454Y65691852D01*
X58944454Y65691852D02*
X59022550Y65730900D01*
X59022550Y65730900D02*
X59061597Y65769947D01*
X59061597Y65769947D02*
X59100645Y65848043D01*
X59100645Y65848043D02*
X59100645Y66043281D01*
X59100645Y66043281D02*
X59061597Y66121376D01*
X59061597Y66121376D02*
X59022550Y66160424D01*
X59022550Y66160424D02*
X58944454Y66199472D01*
X58944454Y66199472D02*
X58788264Y66199472D01*
X58788264Y66199472D02*
X58710168Y66160424D01*
X58710168Y66160424D02*
X58671121Y66121376D01*
X58671121Y66121376D02*
X58632073Y66043281D01*
D14*
X127529824Y42145839D02*
X127529824Y41669649D01*
X127529824Y41669649D02*
X126529824Y41669649D01*
X127529824Y43002982D02*
X127529824Y42431554D01*
X127529824Y42717268D02*
X126529824Y42717268D01*
X126529824Y42717268D02*
X126672681Y42622030D01*
X126672681Y42622030D02*
X126767919Y42526792D01*
X126767919Y42526792D02*
X126815538Y42431554D01*
X120529824Y60838101D02*
X121339347Y60838101D01*
X121339347Y60838101D02*
X121434585Y60885720D01*
X121434585Y60885720D02*
X121482205Y60933339D01*
X121482205Y60933339D02*
X121529824Y61028577D01*
X121529824Y61028577D02*
X121529824Y61219053D01*
X121529824Y61219053D02*
X121482205Y61314291D01*
X121482205Y61314291D02*
X121434585Y61361910D01*
X121434585Y61361910D02*
X121339347Y61409529D01*
X121339347Y61409529D02*
X120529824Y61409529D01*
X120958395Y62028577D02*
X120910776Y61933339D01*
X120910776Y61933339D02*
X120863157Y61885720D01*
X120863157Y61885720D02*
X120767919Y61838101D01*
X120767919Y61838101D02*
X120720300Y61838101D01*
X120720300Y61838101D02*
X120625062Y61885720D01*
X120625062Y61885720D02*
X120577443Y61933339D01*
X120577443Y61933339D02*
X120529824Y62028577D01*
X120529824Y62028577D02*
X120529824Y62219053D01*
X120529824Y62219053D02*
X120577443Y62314291D01*
X120577443Y62314291D02*
X120625062Y62361910D01*
X120625062Y62361910D02*
X120720300Y62409529D01*
X120720300Y62409529D02*
X120767919Y62409529D01*
X120767919Y62409529D02*
X120863157Y62361910D01*
X120863157Y62361910D02*
X120910776Y62314291D01*
X120910776Y62314291D02*
X120958395Y62219053D01*
X120958395Y62219053D02*
X120958395Y62028577D01*
X120958395Y62028577D02*
X121006014Y61933339D01*
X121006014Y61933339D02*
X121053633Y61885720D01*
X121053633Y61885720D02*
X121148871Y61838101D01*
X121148871Y61838101D02*
X121339347Y61838101D01*
X121339347Y61838101D02*
X121434585Y61885720D01*
X121434585Y61885720D02*
X121482205Y61933339D01*
X121482205Y61933339D02*
X121529824Y62028577D01*
X121529824Y62028577D02*
X121529824Y62219053D01*
X121529824Y62219053D02*
X121482205Y62314291D01*
X121482205Y62314291D02*
X121434585Y62361910D01*
X121434585Y62361910D02*
X121339347Y62409529D01*
X121339347Y62409529D02*
X121148871Y62409529D01*
X121148871Y62409529D02*
X121053633Y62361910D01*
X121053633Y62361910D02*
X121006014Y62314291D01*
X121006014Y62314291D02*
X120958395Y62219053D01*
D13*
X62913026Y66511853D02*
X63186360Y66121376D01*
X63381598Y66511853D02*
X63381598Y65691852D01*
X63381598Y65691852D02*
X63069217Y65691852D01*
X63069217Y65691852D02*
X62991122Y65730900D01*
X62991122Y65730900D02*
X62952074Y65769947D01*
X62952074Y65769947D02*
X62913026Y65848043D01*
X62913026Y65848043D02*
X62913026Y65965186D01*
X62913026Y65965186D02*
X62952074Y66043281D01*
X62952074Y66043281D02*
X62991122Y66082329D01*
X62991122Y66082329D02*
X63069217Y66121376D01*
X63069217Y66121376D02*
X63381598Y66121376D01*
X62132073Y66511853D02*
X62600645Y66511853D01*
X62366359Y66511853D02*
X62366359Y65691852D01*
X62366359Y65691852D02*
X62444454Y65808995D01*
X62444454Y65808995D02*
X62522550Y65887090D01*
X62522550Y65887090D02*
X62600645Y65926138D01*
X61819692Y65769947D02*
X61780644Y65730900D01*
X61780644Y65730900D02*
X61702549Y65691852D01*
X61702549Y65691852D02*
X61507311Y65691852D01*
X61507311Y65691852D02*
X61429215Y65730900D01*
X61429215Y65730900D02*
X61390168Y65769947D01*
X61390168Y65769947D02*
X61351120Y65848043D01*
X61351120Y65848043D02*
X61351120Y65926138D01*
X61351120Y65926138D02*
X61390168Y66043281D01*
X61390168Y66043281D02*
X61858740Y66511853D01*
X61858740Y66511853D02*
X61351120Y66511853D01*
D14*
X125529824Y42145839D02*
X125529824Y41669649D01*
X125529824Y41669649D02*
X124529824Y41669649D01*
X124625062Y42431554D02*
X124577443Y42479173D01*
X124577443Y42479173D02*
X124529824Y42574411D01*
X124529824Y42574411D02*
X124529824Y42812506D01*
X124529824Y42812506D02*
X124577443Y42907744D01*
X124577443Y42907744D02*
X124625062Y42955363D01*
X124625062Y42955363D02*
X124720300Y43002982D01*
X124720300Y43002982D02*
X124815538Y43002982D01*
X124815538Y43002982D02*
X124958395Y42955363D01*
X124958395Y42955363D02*
X125529824Y42383935D01*
X125529824Y42383935D02*
X125529824Y43002982D01*
X117834824Y59838101D02*
X118644347Y59838101D01*
X118644347Y59838101D02*
X118739585Y59885720D01*
X118739585Y59885720D02*
X118787205Y59933339D01*
X118787205Y59933339D02*
X118834824Y60028577D01*
X118834824Y60028577D02*
X118834824Y60219053D01*
X118834824Y60219053D02*
X118787205Y60314291D01*
X118787205Y60314291D02*
X118739585Y60361910D01*
X118739585Y60361910D02*
X118644347Y60409529D01*
X118644347Y60409529D02*
X117834824Y60409529D01*
X117834824Y60790482D02*
X117834824Y61457148D01*
X117834824Y61457148D02*
X118834824Y61028577D01*
X142429824Y87861911D02*
X143239347Y87861911D01*
X143239347Y87861911D02*
X143334585Y87909530D01*
X143334585Y87909530D02*
X143382205Y87957149D01*
X143382205Y87957149D02*
X143429824Y88052387D01*
X143429824Y88052387D02*
X143429824Y88242863D01*
X143429824Y88242863D02*
X143382205Y88338101D01*
X143382205Y88338101D02*
X143334585Y88385720D01*
X143334585Y88385720D02*
X143239347Y88433339D01*
X143239347Y88433339D02*
X142429824Y88433339D01*
X143429824Y89433339D02*
X143429824Y88861911D01*
X143429824Y89147625D02*
X142429824Y89147625D01*
X142429824Y89147625D02*
X142572681Y89052387D01*
X142572681Y89052387D02*
X142667919Y88957149D01*
X142667919Y88957149D02*
X142715538Y88861911D01*
X143429824Y90385720D02*
X143429824Y89814292D01*
X143429824Y90100006D02*
X142429824Y90100006D01*
X142429824Y90100006D02*
X142572681Y90004768D01*
X142572681Y90004768D02*
X142667919Y89909530D01*
X142667919Y89909530D02*
X142715538Y89814292D01*
D13*
X69465813Y63675657D02*
X69075337Y63402324D01*
X69465813Y63207086D02*
X68645813Y63207086D01*
X68645813Y63207086D02*
X68645813Y63519467D01*
X68645813Y63519467D02*
X68684861Y63597562D01*
X68684861Y63597562D02*
X68723908Y63636609D01*
X68723908Y63636609D02*
X68802004Y63675657D01*
X68802004Y63675657D02*
X68919146Y63675657D01*
X68919146Y63675657D02*
X68997242Y63636609D01*
X68997242Y63636609D02*
X69036289Y63597562D01*
X69036289Y63597562D02*
X69075337Y63519467D01*
X69075337Y63519467D02*
X69075337Y63207086D01*
X68645813Y64378514D02*
X68645813Y64222324D01*
X68645813Y64222324D02*
X68684861Y64144228D01*
X68684861Y64144228D02*
X68723908Y64105181D01*
X68723908Y64105181D02*
X68841051Y64027086D01*
X68841051Y64027086D02*
X68997242Y63988038D01*
X68997242Y63988038D02*
X69309623Y63988038D01*
X69309623Y63988038D02*
X69387718Y64027086D01*
X69387718Y64027086D02*
X69426766Y64066133D01*
X69426766Y64066133D02*
X69465813Y64144228D01*
X69465813Y64144228D02*
X69465813Y64300419D01*
X69465813Y64300419D02*
X69426766Y64378514D01*
X69426766Y64378514D02*
X69387718Y64417562D01*
X69387718Y64417562D02*
X69309623Y64456609D01*
X69309623Y64456609D02*
X69114385Y64456609D01*
X69114385Y64456609D02*
X69036289Y64417562D01*
X69036289Y64417562D02*
X68997242Y64378514D01*
X68997242Y64378514D02*
X68958194Y64300419D01*
X68958194Y64300419D02*
X68958194Y64144228D01*
X68958194Y64144228D02*
X68997242Y64066133D01*
X68997242Y64066133D02*
X69036289Y64027086D01*
X69036289Y64027086D02*
X69114385Y63988038D01*
D14*
X117125062Y48939767D02*
X117077443Y48844529D01*
X117077443Y48844529D02*
X116982205Y48749291D01*
X116982205Y48749291D02*
X116839347Y48606434D01*
X116839347Y48606434D02*
X116791728Y48511196D01*
X116791728Y48511196D02*
X116791728Y48415958D01*
X117029824Y48463577D02*
X116982205Y48368339D01*
X116982205Y48368339D02*
X116886966Y48273101D01*
X116886966Y48273101D02*
X116696490Y48225482D01*
X116696490Y48225482D02*
X116363157Y48225482D01*
X116363157Y48225482D02*
X116172681Y48273101D01*
X116172681Y48273101D02*
X116077443Y48368339D01*
X116077443Y48368339D02*
X116029824Y48463577D01*
X116029824Y48463577D02*
X116029824Y48654053D01*
X116029824Y48654053D02*
X116077443Y48749291D01*
X116077443Y48749291D02*
X116172681Y48844529D01*
X116172681Y48844529D02*
X116363157Y48892148D01*
X116363157Y48892148D02*
X116696490Y48892148D01*
X116696490Y48892148D02*
X116886966Y48844529D01*
X116886966Y48844529D02*
X116982205Y48749291D01*
X116982205Y48749291D02*
X117029824Y48654053D01*
X117029824Y48654053D02*
X117029824Y48463577D01*
X116029824Y49796910D02*
X116029824Y49320720D01*
X116029824Y49320720D02*
X116506014Y49273101D01*
X116506014Y49273101D02*
X116458395Y49320720D01*
X116458395Y49320720D02*
X116410776Y49415958D01*
X116410776Y49415958D02*
X116410776Y49654053D01*
X116410776Y49654053D02*
X116458395Y49749291D01*
X116458395Y49749291D02*
X116506014Y49796910D01*
X116506014Y49796910D02*
X116601252Y49844529D01*
X116601252Y49844529D02*
X116839347Y49844529D01*
X116839347Y49844529D02*
X116934585Y49796910D01*
X116934585Y49796910D02*
X116982205Y49749291D01*
X116982205Y49749291D02*
X117029824Y49654053D01*
X117029824Y49654053D02*
X117029824Y49415958D01*
X117029824Y49415958D02*
X116982205Y49320720D01*
X116982205Y49320720D02*
X116934585Y49273101D01*
D15*
X43521773Y67846006D02*
X43521773Y67592006D01*
X43920916Y67592006D02*
X43158916Y67592006D01*
X43158916Y67592006D02*
X43158916Y67954863D01*
X43158916Y68172578D02*
X43158916Y68644292D01*
X43158916Y68644292D02*
X43449202Y68390292D01*
X43449202Y68390292D02*
X43449202Y68499149D01*
X43449202Y68499149D02*
X43485488Y68571720D01*
X43485488Y68571720D02*
X43521773Y68608006D01*
X43521773Y68608006D02*
X43594345Y68644292D01*
X43594345Y68644292D02*
X43775773Y68644292D01*
X43775773Y68644292D02*
X43848345Y68608006D01*
X43848345Y68608006D02*
X43884631Y68571720D01*
X43884631Y68571720D02*
X43920916Y68499149D01*
X43920916Y68499149D02*
X43920916Y68281435D01*
X43920916Y68281435D02*
X43884631Y68208863D01*
X43884631Y68208863D02*
X43848345Y68172578D01*
D13*
X16311990Y42140098D02*
X15921514Y41866765D01*
X16311990Y41671527D02*
X15491990Y41671527D01*
X15491990Y41671527D02*
X15491990Y41983908D01*
X15491990Y41983908D02*
X15531038Y42062003D01*
X15531038Y42062003D02*
X15570085Y42101050D01*
X15570085Y42101050D02*
X15648181Y42140098D01*
X15648181Y42140098D02*
X15765323Y42140098D01*
X15765323Y42140098D02*
X15843419Y42101050D01*
X15843419Y42101050D02*
X15882466Y42062003D01*
X15882466Y42062003D02*
X15921514Y41983908D01*
X15921514Y41983908D02*
X15921514Y41671527D01*
X15491990Y42882003D02*
X15491990Y42491527D01*
X15491990Y42491527D02*
X15882466Y42452479D01*
X15882466Y42452479D02*
X15843419Y42491527D01*
X15843419Y42491527D02*
X15804371Y42569622D01*
X15804371Y42569622D02*
X15804371Y42764860D01*
X15804371Y42764860D02*
X15843419Y42842955D01*
X15843419Y42842955D02*
X15882466Y42882003D01*
X15882466Y42882003D02*
X15960562Y42921050D01*
X15960562Y42921050D02*
X16155800Y42921050D01*
X16155800Y42921050D02*
X16233895Y42882003D01*
X16233895Y42882003D02*
X16272943Y42842955D01*
X16272943Y42842955D02*
X16311990Y42764860D01*
X16311990Y42764860D02*
X16311990Y42569622D01*
X16311990Y42569622D02*
X16272943Y42491527D01*
X16272943Y42491527D02*
X16233895Y42452479D01*
X15765323Y43623907D02*
X16311990Y43623907D01*
X15452943Y43428669D02*
X16038657Y43233431D01*
X16038657Y43233431D02*
X16038657Y43741050D01*
X129762292Y63324353D02*
X129723245Y63363401D01*
X129723245Y63363401D02*
X129684197Y63480544D01*
X129684197Y63480544D02*
X129684197Y63558639D01*
X129684197Y63558639D02*
X129723245Y63675782D01*
X129723245Y63675782D02*
X129801340Y63753877D01*
X129801340Y63753877D02*
X129879435Y63792925D01*
X129879435Y63792925D02*
X130035626Y63831973D01*
X130035626Y63831973D02*
X130152769Y63831973D01*
X130152769Y63831973D02*
X130308960Y63792925D01*
X130308960Y63792925D02*
X130387055Y63753877D01*
X130387055Y63753877D02*
X130465150Y63675782D01*
X130465150Y63675782D02*
X130504198Y63558639D01*
X130504198Y63558639D02*
X130504198Y63480544D01*
X130504198Y63480544D02*
X130465150Y63363401D01*
X130465150Y63363401D02*
X130426103Y63324353D01*
X130504198Y63051019D02*
X130504198Y62543400D01*
X130504198Y62543400D02*
X130191817Y62816733D01*
X130191817Y62816733D02*
X130191817Y62699590D01*
X130191817Y62699590D02*
X130152769Y62621495D01*
X130152769Y62621495D02*
X130113721Y62582447D01*
X130113721Y62582447D02*
X130035626Y62543400D01*
X130035626Y62543400D02*
X129840388Y62543400D01*
X129840388Y62543400D02*
X129762292Y62582447D01*
X129762292Y62582447D02*
X129723245Y62621495D01*
X129723245Y62621495D02*
X129684197Y62699590D01*
X129684197Y62699590D02*
X129684197Y62933876D01*
X129684197Y62933876D02*
X129723245Y63011972D01*
X129723245Y63011972D02*
X129762292Y63051019D01*
X130426103Y62231019D02*
X130465150Y62191971D01*
X130465150Y62191971D02*
X130504198Y62113876D01*
X130504198Y62113876D02*
X130504198Y61918637D01*
X130504198Y61918637D02*
X130465150Y61840542D01*
X130465150Y61840542D02*
X130426103Y61801494D01*
X130426103Y61801494D02*
X130348007Y61762447D01*
X130348007Y61762447D02*
X130269912Y61762447D01*
X130269912Y61762447D02*
X130152769Y61801494D01*
X130152769Y61801494D02*
X129684197Y62270066D01*
X129684197Y62270066D02*
X129684197Y61762447D01*
X59413026Y60511853D02*
X59686360Y60121376D01*
X59881598Y60511853D02*
X59881598Y59691852D01*
X59881598Y59691852D02*
X59569217Y59691852D01*
X59569217Y59691852D02*
X59491122Y59730900D01*
X59491122Y59730900D02*
X59452074Y59769947D01*
X59452074Y59769947D02*
X59413026Y59848043D01*
X59413026Y59848043D02*
X59413026Y59965186D01*
X59413026Y59965186D02*
X59452074Y60043281D01*
X59452074Y60043281D02*
X59491122Y60082329D01*
X59491122Y60082329D02*
X59569217Y60121376D01*
X59569217Y60121376D02*
X59881598Y60121376D01*
X59139693Y59691852D02*
X58593025Y59691852D01*
X58593025Y59691852D02*
X58944454Y60511853D01*
D14*
X92540062Y48939767D02*
X92492443Y48844529D01*
X92492443Y48844529D02*
X92397205Y48749291D01*
X92397205Y48749291D02*
X92254347Y48606434D01*
X92254347Y48606434D02*
X92206728Y48511196D01*
X92206728Y48511196D02*
X92206728Y48415958D01*
X92444824Y48463577D02*
X92397205Y48368339D01*
X92397205Y48368339D02*
X92301966Y48273101D01*
X92301966Y48273101D02*
X92111490Y48225482D01*
X92111490Y48225482D02*
X91778157Y48225482D01*
X91778157Y48225482D02*
X91587681Y48273101D01*
X91587681Y48273101D02*
X91492443Y48368339D01*
X91492443Y48368339D02*
X91444824Y48463577D01*
X91444824Y48463577D02*
X91444824Y48654053D01*
X91444824Y48654053D02*
X91492443Y48749291D01*
X91492443Y48749291D02*
X91587681Y48844529D01*
X91587681Y48844529D02*
X91778157Y48892148D01*
X91778157Y48892148D02*
X92111490Y48892148D01*
X92111490Y48892148D02*
X92301966Y48844529D01*
X92301966Y48844529D02*
X92397205Y48749291D01*
X92397205Y48749291D02*
X92444824Y48654053D01*
X92444824Y48654053D02*
X92444824Y48463577D01*
X91540062Y49273101D02*
X91492443Y49320720D01*
X91492443Y49320720D02*
X91444824Y49415958D01*
X91444824Y49415958D02*
X91444824Y49654053D01*
X91444824Y49654053D02*
X91492443Y49749291D01*
X91492443Y49749291D02*
X91540062Y49796910D01*
X91540062Y49796910D02*
X91635300Y49844529D01*
X91635300Y49844529D02*
X91730538Y49844529D01*
X91730538Y49844529D02*
X91873395Y49796910D01*
X91873395Y49796910D02*
X92444824Y49225482D01*
X92444824Y49225482D02*
X92444824Y49844529D01*
X100735062Y48939767D02*
X100687443Y48844529D01*
X100687443Y48844529D02*
X100592205Y48749291D01*
X100592205Y48749291D02*
X100449347Y48606434D01*
X100449347Y48606434D02*
X100401728Y48511196D01*
X100401728Y48511196D02*
X100401728Y48415958D01*
X100639824Y48463577D02*
X100592205Y48368339D01*
X100592205Y48368339D02*
X100496966Y48273101D01*
X100496966Y48273101D02*
X100306490Y48225482D01*
X100306490Y48225482D02*
X99973157Y48225482D01*
X99973157Y48225482D02*
X99782681Y48273101D01*
X99782681Y48273101D02*
X99687443Y48368339D01*
X99687443Y48368339D02*
X99639824Y48463577D01*
X99639824Y48463577D02*
X99639824Y48654053D01*
X99639824Y48654053D02*
X99687443Y48749291D01*
X99687443Y48749291D02*
X99782681Y48844529D01*
X99782681Y48844529D02*
X99973157Y48892148D01*
X99973157Y48892148D02*
X100306490Y48892148D01*
X100306490Y48892148D02*
X100496966Y48844529D01*
X100496966Y48844529D02*
X100592205Y48749291D01*
X100592205Y48749291D02*
X100639824Y48654053D01*
X100639824Y48654053D02*
X100639824Y48463577D01*
X99639824Y49225482D02*
X99639824Y49844529D01*
X99639824Y49844529D02*
X100020776Y49511196D01*
X100020776Y49511196D02*
X100020776Y49654053D01*
X100020776Y49654053D02*
X100068395Y49749291D01*
X100068395Y49749291D02*
X100116014Y49796910D01*
X100116014Y49796910D02*
X100211252Y49844529D01*
X100211252Y49844529D02*
X100449347Y49844529D01*
X100449347Y49844529D02*
X100544585Y49796910D01*
X100544585Y49796910D02*
X100592205Y49749291D01*
X100592205Y49749291D02*
X100639824Y49654053D01*
X100639824Y49654053D02*
X100639824Y49368339D01*
X100639824Y49368339D02*
X100592205Y49273101D01*
X100592205Y49273101D02*
X100544585Y49225482D01*
X89429824Y59838101D02*
X90239347Y59838101D01*
X90239347Y59838101D02*
X90334585Y59885720D01*
X90334585Y59885720D02*
X90382205Y59933339D01*
X90382205Y59933339D02*
X90429824Y60028577D01*
X90429824Y60028577D02*
X90429824Y60219053D01*
X90429824Y60219053D02*
X90382205Y60314291D01*
X90382205Y60314291D02*
X90334585Y60361910D01*
X90334585Y60361910D02*
X90239347Y60409529D01*
X90239347Y60409529D02*
X89429824Y60409529D01*
X89429824Y60790482D02*
X89429824Y61409529D01*
X89429824Y61409529D02*
X89810776Y61076196D01*
X89810776Y61076196D02*
X89810776Y61219053D01*
X89810776Y61219053D02*
X89858395Y61314291D01*
X89858395Y61314291D02*
X89906014Y61361910D01*
X89906014Y61361910D02*
X90001252Y61409529D01*
X90001252Y61409529D02*
X90239347Y61409529D01*
X90239347Y61409529D02*
X90334585Y61361910D01*
X90334585Y61361910D02*
X90382205Y61314291D01*
X90382205Y61314291D02*
X90429824Y61219053D01*
X90429824Y61219053D02*
X90429824Y60933339D01*
X90429824Y60933339D02*
X90382205Y60838101D01*
X90382205Y60838101D02*
X90334585Y60790482D01*
X81929824Y59838101D02*
X82739347Y59838101D01*
X82739347Y59838101D02*
X82834585Y59885720D01*
X82834585Y59885720D02*
X82882205Y59933339D01*
X82882205Y59933339D02*
X82929824Y60028577D01*
X82929824Y60028577D02*
X82929824Y60219053D01*
X82929824Y60219053D02*
X82882205Y60314291D01*
X82882205Y60314291D02*
X82834585Y60361910D01*
X82834585Y60361910D02*
X82739347Y60409529D01*
X82739347Y60409529D02*
X81929824Y60409529D01*
X82929824Y60933339D02*
X82929824Y61123815D01*
X82929824Y61123815D02*
X82882205Y61219053D01*
X82882205Y61219053D02*
X82834585Y61266672D01*
X82834585Y61266672D02*
X82691728Y61361910D01*
X82691728Y61361910D02*
X82501252Y61409529D01*
X82501252Y61409529D02*
X82120300Y61409529D01*
X82120300Y61409529D02*
X82025062Y61361910D01*
X82025062Y61361910D02*
X81977443Y61314291D01*
X81977443Y61314291D02*
X81929824Y61219053D01*
X81929824Y61219053D02*
X81929824Y61028577D01*
X81929824Y61028577D02*
X81977443Y60933339D01*
X81977443Y60933339D02*
X82025062Y60885720D01*
X82025062Y60885720D02*
X82120300Y60838101D01*
X82120300Y60838101D02*
X82358395Y60838101D01*
X82358395Y60838101D02*
X82453633Y60885720D01*
X82453633Y60885720D02*
X82501252Y60933339D01*
X82501252Y60933339D02*
X82548871Y61028577D01*
X82548871Y61028577D02*
X82548871Y61219053D01*
X82548871Y61219053D02*
X82501252Y61314291D01*
X82501252Y61314291D02*
X82453633Y61361910D01*
X82453633Y61361910D02*
X82358395Y61409529D01*
X121125062Y43004767D02*
X121077443Y42909529D01*
X121077443Y42909529D02*
X120982205Y42814291D01*
X120982205Y42814291D02*
X120839347Y42671434D01*
X120839347Y42671434D02*
X120791728Y42576196D01*
X120791728Y42576196D02*
X120791728Y42480958D01*
X121029824Y42528577D02*
X120982205Y42433339D01*
X120982205Y42433339D02*
X120886966Y42338101D01*
X120886966Y42338101D02*
X120696490Y42290482D01*
X120696490Y42290482D02*
X120363157Y42290482D01*
X120363157Y42290482D02*
X120172681Y42338101D01*
X120172681Y42338101D02*
X120077443Y42433339D01*
X120077443Y42433339D02*
X120029824Y42528577D01*
X120029824Y42528577D02*
X120029824Y42719053D01*
X120029824Y42719053D02*
X120077443Y42814291D01*
X120077443Y42814291D02*
X120172681Y42909529D01*
X120172681Y42909529D02*
X120363157Y42957148D01*
X120363157Y42957148D02*
X120696490Y42957148D01*
X120696490Y42957148D02*
X120886966Y42909529D01*
X120886966Y42909529D02*
X120982205Y42814291D01*
X120982205Y42814291D02*
X121029824Y42719053D01*
X121029824Y42719053D02*
X121029824Y42528577D01*
X120029824Y43814291D02*
X120029824Y43623815D01*
X120029824Y43623815D02*
X120077443Y43528577D01*
X120077443Y43528577D02*
X120125062Y43480958D01*
X120125062Y43480958D02*
X120267919Y43385720D01*
X120267919Y43385720D02*
X120458395Y43338101D01*
X120458395Y43338101D02*
X120839347Y43338101D01*
X120839347Y43338101D02*
X120934585Y43385720D01*
X120934585Y43385720D02*
X120982205Y43433339D01*
X120982205Y43433339D02*
X121029824Y43528577D01*
X121029824Y43528577D02*
X121029824Y43719053D01*
X121029824Y43719053D02*
X120982205Y43814291D01*
X120982205Y43814291D02*
X120934585Y43861910D01*
X120934585Y43861910D02*
X120839347Y43909529D01*
X120839347Y43909529D02*
X120601252Y43909529D01*
X120601252Y43909529D02*
X120506014Y43861910D01*
X120506014Y43861910D02*
X120458395Y43814291D01*
X120458395Y43814291D02*
X120410776Y43719053D01*
X120410776Y43719053D02*
X120410776Y43528577D01*
X120410776Y43528577D02*
X120458395Y43433339D01*
X120458395Y43433339D02*
X120506014Y43385720D01*
X120506014Y43385720D02*
X120601252Y43338101D01*
X113854824Y101940482D02*
X114569109Y101940482D01*
X114569109Y101940482D02*
X114711966Y101892863D01*
X114711966Y101892863D02*
X114807205Y101797625D01*
X114807205Y101797625D02*
X114854824Y101654768D01*
X114854824Y101654768D02*
X114854824Y101559530D01*
X113950062Y102369054D02*
X113902443Y102416673D01*
X113902443Y102416673D02*
X113854824Y102511911D01*
X113854824Y102511911D02*
X113854824Y102750006D01*
X113854824Y102750006D02*
X113902443Y102845244D01*
X113902443Y102845244D02*
X113950062Y102892863D01*
X113950062Y102892863D02*
X114045300Y102940482D01*
X114045300Y102940482D02*
X114140538Y102940482D01*
X114140538Y102940482D02*
X114283395Y102892863D01*
X114283395Y102892863D02*
X114854824Y102321435D01*
X114854824Y102321435D02*
X114854824Y102940482D01*
X113950062Y103321435D02*
X113902443Y103369054D01*
X113902443Y103369054D02*
X113854824Y103464292D01*
X113854824Y103464292D02*
X113854824Y103702387D01*
X113854824Y103702387D02*
X113902443Y103797625D01*
X113902443Y103797625D02*
X113950062Y103845244D01*
X113950062Y103845244D02*
X114045300Y103892863D01*
X114045300Y103892863D02*
X114140538Y103892863D01*
X114140538Y103892863D02*
X114283395Y103845244D01*
X114283395Y103845244D02*
X114854824Y103273816D01*
X114854824Y103273816D02*
X114854824Y103892863D01*
D15*
X132321005Y42653237D02*
X132067005Y42653237D01*
X132067005Y42254094D02*
X132067005Y43016094D01*
X132067005Y43016094D02*
X132429862Y43016094D01*
X133119291Y42254094D02*
X132683862Y42254094D01*
X132901577Y42254094D02*
X132901577Y43016094D01*
X132901577Y43016094D02*
X132829005Y42907237D01*
X132829005Y42907237D02*
X132756434Y42834665D01*
X132756434Y42834665D02*
X132683862Y42798379D01*
D14*
X23029824Y32021911D02*
X23839347Y32021911D01*
X23839347Y32021911D02*
X23934585Y32069530D01*
X23934585Y32069530D02*
X23982205Y32117149D01*
X23982205Y32117149D02*
X24029824Y32212387D01*
X24029824Y32212387D02*
X24029824Y32402863D01*
X24029824Y32402863D02*
X23982205Y32498101D01*
X23982205Y32498101D02*
X23934585Y32545720D01*
X23934585Y32545720D02*
X23839347Y32593339D01*
X23839347Y32593339D02*
X23029824Y32593339D01*
X24029824Y33593339D02*
X24029824Y33021911D01*
X24029824Y33307625D02*
X23029824Y33307625D01*
X23029824Y33307625D02*
X23172681Y33212387D01*
X23172681Y33212387D02*
X23267919Y33117149D01*
X23267919Y33117149D02*
X23315538Y33021911D01*
X23029824Y34212387D02*
X23029824Y34307625D01*
X23029824Y34307625D02*
X23077443Y34402863D01*
X23077443Y34402863D02*
X23125062Y34450482D01*
X23125062Y34450482D02*
X23220300Y34498101D01*
X23220300Y34498101D02*
X23410776Y34545720D01*
X23410776Y34545720D02*
X23648871Y34545720D01*
X23648871Y34545720D02*
X23839347Y34498101D01*
X23839347Y34498101D02*
X23934585Y34450482D01*
X23934585Y34450482D02*
X23982205Y34402863D01*
X23982205Y34402863D02*
X24029824Y34307625D01*
X24029824Y34307625D02*
X24029824Y34212387D01*
X24029824Y34212387D02*
X23982205Y34117149D01*
X23982205Y34117149D02*
X23934585Y34069530D01*
X23934585Y34069530D02*
X23839347Y34021911D01*
X23839347Y34021911D02*
X23648871Y33974292D01*
X23648871Y33974292D02*
X23410776Y33974292D01*
X23410776Y33974292D02*
X23220300Y34021911D01*
X23220300Y34021911D02*
X23125062Y34069530D01*
X23125062Y34069530D02*
X23077443Y34117149D01*
X23077443Y34117149D02*
X23029824Y34212387D01*
X110429824Y59838101D02*
X111239347Y59838101D01*
X111239347Y59838101D02*
X111334585Y59885720D01*
X111334585Y59885720D02*
X111382205Y59933339D01*
X111382205Y59933339D02*
X111429824Y60028577D01*
X111429824Y60028577D02*
X111429824Y60219053D01*
X111429824Y60219053D02*
X111382205Y60314291D01*
X111382205Y60314291D02*
X111334585Y60361910D01*
X111334585Y60361910D02*
X111239347Y60409529D01*
X111239347Y60409529D02*
X110429824Y60409529D01*
X110763157Y61314291D02*
X111429824Y61314291D01*
X110382205Y61076196D02*
X111096490Y60838101D01*
X111096490Y60838101D02*
X111096490Y61457148D01*
D15*
X129821005Y42653237D02*
X129567005Y42653237D01*
X129567005Y42254094D02*
X129567005Y43016094D01*
X129567005Y43016094D02*
X129929862Y43016094D01*
X130183862Y42943522D02*
X130220148Y42979808D01*
X130220148Y42979808D02*
X130292720Y43016094D01*
X130292720Y43016094D02*
X130474148Y43016094D01*
X130474148Y43016094D02*
X130546720Y42979808D01*
X130546720Y42979808D02*
X130583005Y42943522D01*
X130583005Y42943522D02*
X130619291Y42870951D01*
X130619291Y42870951D02*
X130619291Y42798379D01*
X130619291Y42798379D02*
X130583005Y42689522D01*
X130583005Y42689522D02*
X130147577Y42254094D01*
X130147577Y42254094D02*
X130619291Y42254094D01*
D12*
X152849712Y8708834D02*
X151960712Y8708834D01*
X151960712Y8708834D02*
X151960712Y9047501D01*
X151960712Y9047501D02*
X152003045Y9132167D01*
X152003045Y9132167D02*
X152045379Y9174501D01*
X152045379Y9174501D02*
X152130045Y9216834D01*
X152130045Y9216834D02*
X152257045Y9216834D01*
X152257045Y9216834D02*
X152341712Y9174501D01*
X152341712Y9174501D02*
X152384045Y9132167D01*
X152384045Y9132167D02*
X152426379Y9047501D01*
X152426379Y9047501D02*
X152426379Y8708834D01*
X152045379Y9555501D02*
X152003045Y9597834D01*
X152003045Y9597834D02*
X151960712Y9682501D01*
X151960712Y9682501D02*
X151960712Y9894167D01*
X151960712Y9894167D02*
X152003045Y9978834D01*
X152003045Y9978834D02*
X152045379Y10021167D01*
X152045379Y10021167D02*
X152130045Y10063501D01*
X152130045Y10063501D02*
X152214712Y10063501D01*
X152214712Y10063501D02*
X152341712Y10021167D01*
X152341712Y10021167D02*
X152849712Y9513167D01*
X152849712Y9513167D02*
X152849712Y10063501D01*
D14*
X84345062Y48939767D02*
X84297443Y48844529D01*
X84297443Y48844529D02*
X84202205Y48749291D01*
X84202205Y48749291D02*
X84059347Y48606434D01*
X84059347Y48606434D02*
X84011728Y48511196D01*
X84011728Y48511196D02*
X84011728Y48415958D01*
X84249824Y48463577D02*
X84202205Y48368339D01*
X84202205Y48368339D02*
X84106966Y48273101D01*
X84106966Y48273101D02*
X83916490Y48225482D01*
X83916490Y48225482D02*
X83583157Y48225482D01*
X83583157Y48225482D02*
X83392681Y48273101D01*
X83392681Y48273101D02*
X83297443Y48368339D01*
X83297443Y48368339D02*
X83249824Y48463577D01*
X83249824Y48463577D02*
X83249824Y48654053D01*
X83249824Y48654053D02*
X83297443Y48749291D01*
X83297443Y48749291D02*
X83392681Y48844529D01*
X83392681Y48844529D02*
X83583157Y48892148D01*
X83583157Y48892148D02*
X83916490Y48892148D01*
X83916490Y48892148D02*
X84106966Y48844529D01*
X84106966Y48844529D02*
X84202205Y48749291D01*
X84202205Y48749291D02*
X84249824Y48654053D01*
X84249824Y48654053D02*
X84249824Y48463577D01*
X84249824Y49844529D02*
X84249824Y49273101D01*
X84249824Y49558815D02*
X83249824Y49558815D01*
X83249824Y49558815D02*
X83392681Y49463577D01*
X83392681Y49463577D02*
X83487919Y49368339D01*
X83487919Y49368339D02*
X83535538Y49273101D01*
X14029824Y35361911D02*
X13029824Y35361911D01*
X13029824Y35361911D02*
X13029824Y35600006D01*
X13029824Y35600006D02*
X13077443Y35742863D01*
X13077443Y35742863D02*
X13172681Y35838101D01*
X13172681Y35838101D02*
X13267919Y35885720D01*
X13267919Y35885720D02*
X13458395Y35933339D01*
X13458395Y35933339D02*
X13601252Y35933339D01*
X13601252Y35933339D02*
X13791728Y35885720D01*
X13791728Y35885720D02*
X13886966Y35838101D01*
X13886966Y35838101D02*
X13982205Y35742863D01*
X13982205Y35742863D02*
X14029824Y35600006D01*
X14029824Y35600006D02*
X14029824Y35361911D01*
X13029824Y36838101D02*
X13029824Y36361911D01*
X13029824Y36361911D02*
X13506014Y36314292D01*
X13506014Y36314292D02*
X13458395Y36361911D01*
X13458395Y36361911D02*
X13410776Y36457149D01*
X13410776Y36457149D02*
X13410776Y36695244D01*
X13410776Y36695244D02*
X13458395Y36790482D01*
X13458395Y36790482D02*
X13506014Y36838101D01*
X13506014Y36838101D02*
X13601252Y36885720D01*
X13601252Y36885720D02*
X13839347Y36885720D01*
X13839347Y36885720D02*
X13934585Y36838101D01*
X13934585Y36838101D02*
X13982205Y36790482D01*
X13982205Y36790482D02*
X14029824Y36695244D01*
X14029824Y36695244D02*
X14029824Y36457149D01*
X14029824Y36457149D02*
X13982205Y36361911D01*
X13982205Y36361911D02*
X13934585Y36314292D01*
D13*
X20534912Y45836991D02*
X20808245Y45446515D01*
X21003483Y45836991D02*
X21003483Y45016991D01*
X21003483Y45016991D02*
X20691102Y45016991D01*
X20691102Y45016991D02*
X20613007Y45056039D01*
X20613007Y45056039D02*
X20573960Y45095086D01*
X20573960Y45095086D02*
X20534912Y45173182D01*
X20534912Y45173182D02*
X20534912Y45290324D01*
X20534912Y45290324D02*
X20573960Y45368420D01*
X20573960Y45368420D02*
X20613007Y45407467D01*
X20613007Y45407467D02*
X20691102Y45446515D01*
X20691102Y45446515D02*
X21003483Y45446515D01*
X19753960Y45836991D02*
X20222531Y45836991D01*
X19988245Y45836991D02*
X19988245Y45016991D01*
X19988245Y45016991D02*
X20066341Y45134134D01*
X20066341Y45134134D02*
X20144436Y45212229D01*
X20144436Y45212229D02*
X20222531Y45251277D01*
X19012055Y45016991D02*
X19402531Y45016991D01*
X19402531Y45016991D02*
X19441579Y45407467D01*
X19441579Y45407467D02*
X19402531Y45368420D01*
X19402531Y45368420D02*
X19324436Y45329372D01*
X19324436Y45329372D02*
X19129198Y45329372D01*
X19129198Y45329372D02*
X19051103Y45368420D01*
X19051103Y45368420D02*
X19012055Y45407467D01*
X19012055Y45407467D02*
X18973008Y45485563D01*
X18973008Y45485563D02*
X18973008Y45680801D01*
X18973008Y45680801D02*
X19012055Y45758896D01*
X19012055Y45758896D02*
X19051103Y45797943D01*
X19051103Y45797943D02*
X19129198Y45836991D01*
X19129198Y45836991D02*
X19324436Y45836991D01*
X19324436Y45836991D02*
X19402531Y45797943D01*
X19402531Y45797943D02*
X19441579Y45758896D01*
X62913026Y63511853D02*
X63186360Y63121376D01*
X63381598Y63511853D02*
X63381598Y62691852D01*
X63381598Y62691852D02*
X63069217Y62691852D01*
X63069217Y62691852D02*
X62991122Y62730900D01*
X62991122Y62730900D02*
X62952074Y62769947D01*
X62952074Y62769947D02*
X62913026Y62848043D01*
X62913026Y62848043D02*
X62913026Y62965186D01*
X62913026Y62965186D02*
X62952074Y63043281D01*
X62952074Y63043281D02*
X62991122Y63082329D01*
X62991122Y63082329D02*
X63069217Y63121376D01*
X63069217Y63121376D02*
X63381598Y63121376D01*
X62132073Y63511853D02*
X62600645Y63511853D01*
X62366359Y63511853D02*
X62366359Y62691852D01*
X62366359Y62691852D02*
X62444454Y62808995D01*
X62444454Y62808995D02*
X62522550Y62887090D01*
X62522550Y62887090D02*
X62600645Y62926138D01*
X61351120Y63511853D02*
X61819692Y63511853D01*
X61585406Y63511853D02*
X61585406Y62691852D01*
X61585406Y62691852D02*
X61663501Y62808995D01*
X61663501Y62808995D02*
X61741597Y62887090D01*
X61741597Y62887090D02*
X61819692Y62926138D01*
X67465813Y63875657D02*
X67075337Y63602324D01*
X67465813Y63407086D02*
X66645813Y63407086D01*
X66645813Y63407086D02*
X66645813Y63719467D01*
X66645813Y63719467D02*
X66684861Y63797562D01*
X66684861Y63797562D02*
X66723908Y63836609D01*
X66723908Y63836609D02*
X66802004Y63875657D01*
X66802004Y63875657D02*
X66919146Y63875657D01*
X66919146Y63875657D02*
X66997242Y63836609D01*
X66997242Y63836609D02*
X67036289Y63797562D01*
X67036289Y63797562D02*
X67075337Y63719467D01*
X67075337Y63719467D02*
X67075337Y63407086D01*
X66645813Y64617562D02*
X66645813Y64227086D01*
X66645813Y64227086D02*
X67036289Y64188038D01*
X67036289Y64188038D02*
X66997242Y64227086D01*
X66997242Y64227086D02*
X66958194Y64305181D01*
X66958194Y64305181D02*
X66958194Y64500419D01*
X66958194Y64500419D02*
X66997242Y64578514D01*
X66997242Y64578514D02*
X67036289Y64617562D01*
X67036289Y64617562D02*
X67114385Y64656609D01*
X67114385Y64656609D02*
X67309623Y64656609D01*
X67309623Y64656609D02*
X67387718Y64617562D01*
X67387718Y64617562D02*
X67426766Y64578514D01*
X67426766Y64578514D02*
X67465813Y64500419D01*
X67465813Y64500419D02*
X67465813Y64305181D01*
X67465813Y64305181D02*
X67426766Y64227086D01*
X67426766Y64227086D02*
X67387718Y64188038D01*
D14*
X108930062Y48939767D02*
X108882443Y48844529D01*
X108882443Y48844529D02*
X108787205Y48749291D01*
X108787205Y48749291D02*
X108644347Y48606434D01*
X108644347Y48606434D02*
X108596728Y48511196D01*
X108596728Y48511196D02*
X108596728Y48415958D01*
X108834824Y48463577D02*
X108787205Y48368339D01*
X108787205Y48368339D02*
X108691966Y48273101D01*
X108691966Y48273101D02*
X108501490Y48225482D01*
X108501490Y48225482D02*
X108168157Y48225482D01*
X108168157Y48225482D02*
X107977681Y48273101D01*
X107977681Y48273101D02*
X107882443Y48368339D01*
X107882443Y48368339D02*
X107834824Y48463577D01*
X107834824Y48463577D02*
X107834824Y48654053D01*
X107834824Y48654053D02*
X107882443Y48749291D01*
X107882443Y48749291D02*
X107977681Y48844529D01*
X107977681Y48844529D02*
X108168157Y48892148D01*
X108168157Y48892148D02*
X108501490Y48892148D01*
X108501490Y48892148D02*
X108691966Y48844529D01*
X108691966Y48844529D02*
X108787205Y48749291D01*
X108787205Y48749291D02*
X108834824Y48654053D01*
X108834824Y48654053D02*
X108834824Y48463577D01*
X108168157Y49749291D02*
X108834824Y49749291D01*
X107787205Y49511196D02*
X108501490Y49273101D01*
X108501490Y49273101D02*
X108501490Y49892148D01*
D13*
X62913026Y60511853D02*
X63186360Y60121376D01*
X63381598Y60511853D02*
X63381598Y59691852D01*
X63381598Y59691852D02*
X63069217Y59691852D01*
X63069217Y59691852D02*
X62991122Y59730900D01*
X62991122Y59730900D02*
X62952074Y59769947D01*
X62952074Y59769947D02*
X62913026Y59848043D01*
X62913026Y59848043D02*
X62913026Y59965186D01*
X62913026Y59965186D02*
X62952074Y60043281D01*
X62952074Y60043281D02*
X62991122Y60082329D01*
X62991122Y60082329D02*
X63069217Y60121376D01*
X63069217Y60121376D02*
X63381598Y60121376D01*
X62132073Y60511853D02*
X62600645Y60511853D01*
X62366359Y60511853D02*
X62366359Y59691852D01*
X62366359Y59691852D02*
X62444454Y59808995D01*
X62444454Y59808995D02*
X62522550Y59887090D01*
X62522550Y59887090D02*
X62600645Y59926138D01*
X61624454Y59691852D02*
X61546358Y59691852D01*
X61546358Y59691852D02*
X61468263Y59730900D01*
X61468263Y59730900D02*
X61429215Y59769947D01*
X61429215Y59769947D02*
X61390168Y59848043D01*
X61390168Y59848043D02*
X61351120Y60004233D01*
X61351120Y60004233D02*
X61351120Y60199472D01*
X61351120Y60199472D02*
X61390168Y60355662D01*
X61390168Y60355662D02*
X61429215Y60433758D01*
X61429215Y60433758D02*
X61468263Y60472805D01*
X61468263Y60472805D02*
X61546358Y60511853D01*
X61546358Y60511853D02*
X61624454Y60511853D01*
X61624454Y60511853D02*
X61702549Y60472805D01*
X61702549Y60472805D02*
X61741597Y60433758D01*
X61741597Y60433758D02*
X61780644Y60355662D01*
X61780644Y60355662D02*
X61819692Y60199472D01*
X61819692Y60199472D02*
X61819692Y60004233D01*
X61819692Y60004233D02*
X61780644Y59848043D01*
X61780644Y59848043D02*
X61741597Y59769947D01*
X61741597Y59769947D02*
X61702549Y59730900D01*
X61702549Y59730900D02*
X61624454Y59691852D01*
X54338019Y48824354D02*
X54728495Y49097687D01*
X54338019Y49292925D02*
X55158019Y49292925D01*
X55158019Y49292925D02*
X55158019Y48980544D01*
X55158019Y48980544D02*
X55118971Y48902449D01*
X55118971Y48902449D02*
X55079924Y48863402D01*
X55079924Y48863402D02*
X55001828Y48824354D01*
X55001828Y48824354D02*
X54884686Y48824354D01*
X54884686Y48824354D02*
X54806590Y48863402D01*
X54806590Y48863402D02*
X54767543Y48902449D01*
X54767543Y48902449D02*
X54728495Y48980544D01*
X54728495Y48980544D02*
X54728495Y49292925D01*
X54338019Y48043402D02*
X54338019Y48511973D01*
X54338019Y48277687D02*
X55158019Y48277687D01*
X55158019Y48277687D02*
X55040876Y48355783D01*
X55040876Y48355783D02*
X54962781Y48433878D01*
X54962781Y48433878D02*
X54923733Y48511973D01*
D15*
X110448005Y90204095D02*
X110194005Y90566952D01*
X110012576Y90204095D02*
X110012576Y90966095D01*
X110012576Y90966095D02*
X110302862Y90966095D01*
X110302862Y90966095D02*
X110375433Y90929809D01*
X110375433Y90929809D02*
X110411719Y90893523D01*
X110411719Y90893523D02*
X110448005Y90820952D01*
X110448005Y90820952D02*
X110448005Y90712095D01*
X110448005Y90712095D02*
X110411719Y90639523D01*
X110411719Y90639523D02*
X110375433Y90603238D01*
X110375433Y90603238D02*
X110302862Y90566952D01*
X110302862Y90566952D02*
X110012576Y90566952D01*
X111101148Y90712095D02*
X111101148Y90204095D01*
X110919719Y91002380D02*
X110738290Y90458095D01*
X110738290Y90458095D02*
X111210005Y90458095D01*
D14*
X125629824Y52361911D02*
X124629824Y52361911D01*
X124629824Y52361911D02*
X124629824Y52600006D01*
X124629824Y52600006D02*
X124677443Y52742863D01*
X124677443Y52742863D02*
X124772681Y52838101D01*
X124772681Y52838101D02*
X124867919Y52885720D01*
X124867919Y52885720D02*
X125058395Y52933339D01*
X125058395Y52933339D02*
X125201252Y52933339D01*
X125201252Y52933339D02*
X125391728Y52885720D01*
X125391728Y52885720D02*
X125486966Y52838101D01*
X125486966Y52838101D02*
X125582205Y52742863D01*
X125582205Y52742863D02*
X125629824Y52600006D01*
X125629824Y52600006D02*
X125629824Y52361911D01*
X124629824Y53790482D02*
X124629824Y53600006D01*
X124629824Y53600006D02*
X124677443Y53504768D01*
X124677443Y53504768D02*
X124725062Y53457149D01*
X124725062Y53457149D02*
X124867919Y53361911D01*
X124867919Y53361911D02*
X125058395Y53314292D01*
X125058395Y53314292D02*
X125439347Y53314292D01*
X125439347Y53314292D02*
X125534585Y53361911D01*
X125534585Y53361911D02*
X125582205Y53409530D01*
X125582205Y53409530D02*
X125629824Y53504768D01*
X125629824Y53504768D02*
X125629824Y53695244D01*
X125629824Y53695244D02*
X125582205Y53790482D01*
X125582205Y53790482D02*
X125534585Y53838101D01*
X125534585Y53838101D02*
X125439347Y53885720D01*
X125439347Y53885720D02*
X125201252Y53885720D01*
X125201252Y53885720D02*
X125106014Y53838101D01*
X125106014Y53838101D02*
X125058395Y53790482D01*
X125058395Y53790482D02*
X125010776Y53695244D01*
X125010776Y53695244D02*
X125010776Y53504768D01*
X125010776Y53504768D02*
X125058395Y53409530D01*
X125058395Y53409530D02*
X125106014Y53361911D01*
X125106014Y53361911D02*
X125201252Y53314292D01*
D13*
X127642538Y57027423D02*
X127603490Y56988375D01*
X127603490Y56988375D02*
X127486347Y56949328D01*
X127486347Y56949328D02*
X127408252Y56949328D01*
X127408252Y56949328D02*
X127291109Y56988375D01*
X127291109Y56988375D02*
X127213014Y57066471D01*
X127213014Y57066471D02*
X127173966Y57144566D01*
X127173966Y57144566D02*
X127134918Y57300757D01*
X127134918Y57300757D02*
X127134918Y57417900D01*
X127134918Y57417900D02*
X127173966Y57574090D01*
X127173966Y57574090D02*
X127213014Y57652186D01*
X127213014Y57652186D02*
X127291109Y57730281D01*
X127291109Y57730281D02*
X127408252Y57769329D01*
X127408252Y57769329D02*
X127486347Y57769329D01*
X127486347Y57769329D02*
X127603490Y57730281D01*
X127603490Y57730281D02*
X127642538Y57691233D01*
X127954919Y57691233D02*
X127993967Y57730281D01*
X127993967Y57730281D02*
X128072062Y57769329D01*
X128072062Y57769329D02*
X128267301Y57769329D01*
X128267301Y57769329D02*
X128345396Y57730281D01*
X128345396Y57730281D02*
X128384444Y57691233D01*
X128384444Y57691233D02*
X128423491Y57613138D01*
X128423491Y57613138D02*
X128423491Y57535043D01*
X128423491Y57535043D02*
X128384444Y57417900D01*
X128384444Y57417900D02*
X127915872Y56949328D01*
X127915872Y56949328D02*
X128423491Y56949328D01*
X128813968Y56949328D02*
X128970158Y56949328D01*
X128970158Y56949328D02*
X129048254Y56988375D01*
X129048254Y56988375D02*
X129087301Y57027423D01*
X129087301Y57027423D02*
X129165397Y57144566D01*
X129165397Y57144566D02*
X129204444Y57300757D01*
X129204444Y57300757D02*
X129204444Y57613138D01*
X129204444Y57613138D02*
X129165397Y57691233D01*
X129165397Y57691233D02*
X129126349Y57730281D01*
X129126349Y57730281D02*
X129048254Y57769329D01*
X129048254Y57769329D02*
X128892063Y57769329D01*
X128892063Y57769329D02*
X128813968Y57730281D01*
X128813968Y57730281D02*
X128774920Y57691233D01*
X128774920Y57691233D02*
X128735872Y57613138D01*
X128735872Y57613138D02*
X128735872Y57417900D01*
X128735872Y57417900D02*
X128774920Y57339804D01*
X128774920Y57339804D02*
X128813968Y57300757D01*
X128813968Y57300757D02*
X128892063Y57261709D01*
X128892063Y57261709D02*
X129048254Y57261709D01*
X129048254Y57261709D02*
X129126349Y57300757D01*
X129126349Y57300757D02*
X129165397Y57339804D01*
X129165397Y57339804D02*
X129204444Y57417900D01*
D14*
X96794824Y59838101D02*
X97604347Y59838101D01*
X97604347Y59838101D02*
X97699585Y59885720D01*
X97699585Y59885720D02*
X97747205Y59933339D01*
X97747205Y59933339D02*
X97794824Y60028577D01*
X97794824Y60028577D02*
X97794824Y60219053D01*
X97794824Y60219053D02*
X97747205Y60314291D01*
X97747205Y60314291D02*
X97699585Y60361910D01*
X97699585Y60361910D02*
X97604347Y60409529D01*
X97604347Y60409529D02*
X96794824Y60409529D01*
X96794824Y61314291D02*
X96794824Y61123815D01*
X96794824Y61123815D02*
X96842443Y61028577D01*
X96842443Y61028577D02*
X96890062Y60980958D01*
X96890062Y60980958D02*
X97032919Y60885720D01*
X97032919Y60885720D02*
X97223395Y60838101D01*
X97223395Y60838101D02*
X97604347Y60838101D01*
X97604347Y60838101D02*
X97699585Y60885720D01*
X97699585Y60885720D02*
X97747205Y60933339D01*
X97747205Y60933339D02*
X97794824Y61028577D01*
X97794824Y61028577D02*
X97794824Y61219053D01*
X97794824Y61219053D02*
X97747205Y61314291D01*
X97747205Y61314291D02*
X97699585Y61361910D01*
X97699585Y61361910D02*
X97604347Y61409529D01*
X97604347Y61409529D02*
X97366252Y61409529D01*
X97366252Y61409529D02*
X97271014Y61361910D01*
X97271014Y61361910D02*
X97223395Y61314291D01*
X97223395Y61314291D02*
X97175776Y61219053D01*
X97175776Y61219053D02*
X97175776Y61028577D01*
X97175776Y61028577D02*
X97223395Y60933339D01*
X97223395Y60933339D02*
X97271014Y60885720D01*
X97271014Y60885720D02*
X97366252Y60838101D01*
X23025062Y42504767D02*
X22977443Y42409529D01*
X22977443Y42409529D02*
X22882205Y42314291D01*
X22882205Y42314291D02*
X22739347Y42171434D01*
X22739347Y42171434D02*
X22691728Y42076196D01*
X22691728Y42076196D02*
X22691728Y41980958D01*
X22929824Y42028577D02*
X22882205Y41933339D01*
X22882205Y41933339D02*
X22786966Y41838101D01*
X22786966Y41838101D02*
X22596490Y41790482D01*
X22596490Y41790482D02*
X22263157Y41790482D01*
X22263157Y41790482D02*
X22072681Y41838101D01*
X22072681Y41838101D02*
X21977443Y41933339D01*
X21977443Y41933339D02*
X21929824Y42028577D01*
X21929824Y42028577D02*
X21929824Y42219053D01*
X21929824Y42219053D02*
X21977443Y42314291D01*
X21977443Y42314291D02*
X22072681Y42409529D01*
X22072681Y42409529D02*
X22263157Y42457148D01*
X22263157Y42457148D02*
X22596490Y42457148D01*
X22596490Y42457148D02*
X22786966Y42409529D01*
X22786966Y42409529D02*
X22882205Y42314291D01*
X22882205Y42314291D02*
X22929824Y42219053D01*
X22929824Y42219053D02*
X22929824Y42028577D01*
X21929824Y42790482D02*
X21929824Y43457148D01*
X21929824Y43457148D02*
X22929824Y43028577D01*
X122265481Y100995186D02*
X122265481Y100280901D01*
X122265481Y100280901D02*
X122217862Y100138044D01*
X122217862Y100138044D02*
X122122624Y100042805D01*
X122122624Y100042805D02*
X121979767Y99995186D01*
X121979767Y99995186D02*
X121884529Y99995186D01*
X122694053Y100899948D02*
X122741672Y100947567D01*
X122741672Y100947567D02*
X122836910Y100995186D01*
X122836910Y100995186D02*
X123075005Y100995186D01*
X123075005Y100995186D02*
X123170243Y100947567D01*
X123170243Y100947567D02*
X123217862Y100899948D01*
X123217862Y100899948D02*
X123265481Y100804710D01*
X123265481Y100804710D02*
X123265481Y100709472D01*
X123265481Y100709472D02*
X123217862Y100566615D01*
X123217862Y100566615D02*
X122646434Y99995186D01*
X122646434Y99995186D02*
X123265481Y99995186D01*
X124217862Y99995186D02*
X123646434Y99995186D01*
X123932148Y99995186D02*
X123932148Y100995186D01*
X123932148Y100995186D02*
X123836910Y100852329D01*
X123836910Y100852329D02*
X123741672Y100757091D01*
X123741672Y100757091D02*
X123646434Y100709472D01*
X103929824Y59838101D02*
X104739347Y59838101D01*
X104739347Y59838101D02*
X104834585Y59885720D01*
X104834585Y59885720D02*
X104882205Y59933339D01*
X104882205Y59933339D02*
X104929824Y60028577D01*
X104929824Y60028577D02*
X104929824Y60219053D01*
X104929824Y60219053D02*
X104882205Y60314291D01*
X104882205Y60314291D02*
X104834585Y60361910D01*
X104834585Y60361910D02*
X104739347Y60409529D01*
X104739347Y60409529D02*
X103929824Y60409529D01*
X103929824Y61361910D02*
X103929824Y60885720D01*
X103929824Y60885720D02*
X104406014Y60838101D01*
X104406014Y60838101D02*
X104358395Y60885720D01*
X104358395Y60885720D02*
X104310776Y60980958D01*
X104310776Y60980958D02*
X104310776Y61219053D01*
X104310776Y61219053D02*
X104358395Y61314291D01*
X104358395Y61314291D02*
X104406014Y61361910D01*
X104406014Y61361910D02*
X104501252Y61409529D01*
X104501252Y61409529D02*
X104739347Y61409529D01*
X104739347Y61409529D02*
X104834585Y61361910D01*
X104834585Y61361910D02*
X104882205Y61314291D01*
X104882205Y61314291D02*
X104929824Y61219053D01*
X104929824Y61219053D02*
X104929824Y60980958D01*
X104929824Y60980958D02*
X104882205Y60885720D01*
X104882205Y60885720D02*
X104834585Y60838101D01*
D13*
X125799352Y47672588D02*
X125838400Y47711635D01*
X125838400Y47711635D02*
X125955543Y47750683D01*
X125955543Y47750683D02*
X126033638Y47750683D01*
X126033638Y47750683D02*
X126150781Y47711635D01*
X126150781Y47711635D02*
X126228877Y47633540D01*
X126228877Y47633540D02*
X126267924Y47555445D01*
X126267924Y47555445D02*
X126306972Y47399254D01*
X126306972Y47399254D02*
X126306972Y47282111D01*
X126306972Y47282111D02*
X126267924Y47125920D01*
X126267924Y47125920D02*
X126228877Y47047825D01*
X126228877Y47047825D02*
X126150781Y46969730D01*
X126150781Y46969730D02*
X126033638Y46930682D01*
X126033638Y46930682D02*
X125955543Y46930682D01*
X125955543Y46930682D02*
X125838400Y46969730D01*
X125838400Y46969730D02*
X125799352Y47008777D01*
X125486971Y47008777D02*
X125447923Y46969730D01*
X125447923Y46969730D02*
X125369828Y46930682D01*
X125369828Y46930682D02*
X125174590Y46930682D01*
X125174590Y46930682D02*
X125096494Y46969730D01*
X125096494Y46969730D02*
X125057447Y47008777D01*
X125057447Y47008777D02*
X125018399Y47086873D01*
X125018399Y47086873D02*
X125018399Y47164968D01*
X125018399Y47164968D02*
X125057447Y47282111D01*
X125057447Y47282111D02*
X125526019Y47750683D01*
X125526019Y47750683D02*
X125018399Y47750683D01*
X124549827Y47282111D02*
X124627923Y47243063D01*
X124627923Y47243063D02*
X124666970Y47204016D01*
X124666970Y47204016D02*
X124706018Y47125920D01*
X124706018Y47125920D02*
X124706018Y47086873D01*
X124706018Y47086873D02*
X124666970Y47008777D01*
X124666970Y47008777D02*
X124627923Y46969730D01*
X124627923Y46969730D02*
X124549827Y46930682D01*
X124549827Y46930682D02*
X124393637Y46930682D01*
X124393637Y46930682D02*
X124315541Y46969730D01*
X124315541Y46969730D02*
X124276494Y47008777D01*
X124276494Y47008777D02*
X124237446Y47086873D01*
X124237446Y47086873D02*
X124237446Y47125920D01*
X124237446Y47125920D02*
X124276494Y47204016D01*
X124276494Y47204016D02*
X124315541Y47243063D01*
X124315541Y47243063D02*
X124393637Y47282111D01*
X124393637Y47282111D02*
X124549827Y47282111D01*
X124549827Y47282111D02*
X124627923Y47321159D01*
X124627923Y47321159D02*
X124666970Y47360206D01*
X124666970Y47360206D02*
X124706018Y47438302D01*
X124706018Y47438302D02*
X124706018Y47594492D01*
X124706018Y47594492D02*
X124666970Y47672588D01*
X124666970Y47672588D02*
X124627923Y47711635D01*
X124627923Y47711635D02*
X124549827Y47750683D01*
X124549827Y47750683D02*
X124393637Y47750683D01*
X124393637Y47750683D02*
X124315541Y47711635D01*
X124315541Y47711635D02*
X124276494Y47672588D01*
X124276494Y47672588D02*
X124237446Y47594492D01*
X124237446Y47594492D02*
X124237446Y47438302D01*
X124237446Y47438302D02*
X124276494Y47360206D01*
X124276494Y47360206D02*
X124315541Y47321159D01*
X124315541Y47321159D02*
X124393637Y47282111D01*
X128299352Y48412718D02*
X128338400Y48451765D01*
X128338400Y48451765D02*
X128455543Y48490813D01*
X128455543Y48490813D02*
X128533638Y48490813D01*
X128533638Y48490813D02*
X128650781Y48451765D01*
X128650781Y48451765D02*
X128728877Y48373670D01*
X128728877Y48373670D02*
X128767924Y48295575D01*
X128767924Y48295575D02*
X128806972Y48139384D01*
X128806972Y48139384D02*
X128806972Y48022241D01*
X128806972Y48022241D02*
X128767924Y47866050D01*
X128767924Y47866050D02*
X128728877Y47787955D01*
X128728877Y47787955D02*
X128650781Y47709860D01*
X128650781Y47709860D02*
X128533638Y47670812D01*
X128533638Y47670812D02*
X128455543Y47670812D01*
X128455543Y47670812D02*
X128338400Y47709860D01*
X128338400Y47709860D02*
X128299352Y47748907D01*
X128026019Y47670812D02*
X127518399Y47670812D01*
X127518399Y47670812D02*
X127791733Y47983193D01*
X127791733Y47983193D02*
X127674590Y47983193D01*
X127674590Y47983193D02*
X127596494Y48022241D01*
X127596494Y48022241D02*
X127557447Y48061289D01*
X127557447Y48061289D02*
X127518399Y48139384D01*
X127518399Y48139384D02*
X127518399Y48334622D01*
X127518399Y48334622D02*
X127557447Y48412718D01*
X127557447Y48412718D02*
X127596494Y48451765D01*
X127596494Y48451765D02*
X127674590Y48490813D01*
X127674590Y48490813D02*
X127908876Y48490813D01*
X127908876Y48490813D02*
X127986971Y48451765D01*
X127986971Y48451765D02*
X128026019Y48412718D01*
X127010780Y47670812D02*
X126932684Y47670812D01*
X126932684Y47670812D02*
X126854589Y47709860D01*
X126854589Y47709860D02*
X126815541Y47748907D01*
X126815541Y47748907D02*
X126776494Y47827003D01*
X126776494Y47827003D02*
X126737446Y47983193D01*
X126737446Y47983193D02*
X126737446Y48178432D01*
X126737446Y48178432D02*
X126776494Y48334622D01*
X126776494Y48334622D02*
X126815541Y48412718D01*
X126815541Y48412718D02*
X126854589Y48451765D01*
X126854589Y48451765D02*
X126932684Y48490813D01*
X126932684Y48490813D02*
X127010780Y48490813D01*
X127010780Y48490813D02*
X127088875Y48451765D01*
X127088875Y48451765D02*
X127127923Y48412718D01*
X127127923Y48412718D02*
X127166970Y48334622D01*
X127166970Y48334622D02*
X127206018Y48178432D01*
X127206018Y48178432D02*
X127206018Y47983193D01*
X127206018Y47983193D02*
X127166970Y47827003D01*
X127166970Y47827003D02*
X127127923Y47748907D01*
X127127923Y47748907D02*
X127088875Y47709860D01*
X127088875Y47709860D02*
X127010780Y47670812D01*
X128262292Y63324353D02*
X128223245Y63363401D01*
X128223245Y63363401D02*
X128184197Y63480544D01*
X128184197Y63480544D02*
X128184197Y63558639D01*
X128184197Y63558639D02*
X128223245Y63675782D01*
X128223245Y63675782D02*
X128301340Y63753877D01*
X128301340Y63753877D02*
X128379435Y63792925D01*
X128379435Y63792925D02*
X128535626Y63831973D01*
X128535626Y63831973D02*
X128652769Y63831973D01*
X128652769Y63831973D02*
X128808960Y63792925D01*
X128808960Y63792925D02*
X128887055Y63753877D01*
X128887055Y63753877D02*
X128965150Y63675782D01*
X128965150Y63675782D02*
X129004198Y63558639D01*
X129004198Y63558639D02*
X129004198Y63480544D01*
X129004198Y63480544D02*
X128965150Y63363401D01*
X128965150Y63363401D02*
X128926103Y63324353D01*
X129004198Y63051019D02*
X129004198Y62543400D01*
X129004198Y62543400D02*
X128691817Y62816733D01*
X128691817Y62816733D02*
X128691817Y62699590D01*
X128691817Y62699590D02*
X128652769Y62621495D01*
X128652769Y62621495D02*
X128613721Y62582447D01*
X128613721Y62582447D02*
X128535626Y62543400D01*
X128535626Y62543400D02*
X128340388Y62543400D01*
X128340388Y62543400D02*
X128262292Y62582447D01*
X128262292Y62582447D02*
X128223245Y62621495D01*
X128223245Y62621495D02*
X128184197Y62699590D01*
X128184197Y62699590D02*
X128184197Y62933876D01*
X128184197Y62933876D02*
X128223245Y63011972D01*
X128223245Y63011972D02*
X128262292Y63051019D01*
X128184197Y61762447D02*
X128184197Y62231019D01*
X128184197Y61996733D02*
X129004198Y61996733D01*
X129004198Y61996733D02*
X128887055Y62074828D01*
X128887055Y62074828D02*
X128808960Y62152923D01*
X128808960Y62152923D02*
X128769912Y62231019D01*
D14*
X45191746Y47694433D02*
X45191746Y48294433D01*
X45191746Y48294433D02*
X45391746Y47865862D01*
X45391746Y47865862D02*
X45591746Y48294433D01*
X45591746Y48294433D02*
X45591746Y47694433D01*
X45848888Y48237290D02*
X45877460Y48265862D01*
X45877460Y48265862D02*
X45934603Y48294433D01*
X45934603Y48294433D02*
X46077460Y48294433D01*
X46077460Y48294433D02*
X46134603Y48265862D01*
X46134603Y48265862D02*
X46163174Y48237290D01*
X46163174Y48237290D02*
X46191745Y48180147D01*
X46191745Y48180147D02*
X46191745Y48123004D01*
X46191745Y48123004D02*
X46163174Y48037290D01*
X46163174Y48037290D02*
X45820317Y47694433D01*
X45820317Y47694433D02*
X46191745Y47694433D01*
D11*
G04 #@! TO.C,R8*
X59275005Y63950004D02*
X58875005Y63950004D01*
X59279394Y65252932D02*
X58879394Y65252932D01*
G04 #@! TO.C,R9*
X59275005Y66950004D02*
X58875005Y66950004D01*
X59279394Y68252932D02*
X58879394Y68252932D01*
D16*
G04 #@! TO.C,L1*
X126565005Y44937226D02*
X126565005Y45262784D01*
X127585005Y44937226D02*
X127585005Y45262784D01*
D11*
G04 #@! TO.C,M1*
X112675004Y70800006D02*
X112675004Y70500008D01*
X112675006Y89650008D02*
X112675001Y88100008D01*
X112675006Y86100006D02*
X112675006Y85000003D01*
X112675006Y83400008D02*
X112675006Y80700008D01*
X112675006Y77200006D02*
X112675006Y72400006D01*
X127975003Y70500010D02*
X112675004Y70500008D01*
X129475003Y91100008D02*
X114075003Y91100008D01*
X129475003Y91100008D02*
X129475003Y90800008D01*
X129475003Y89200008D02*
X129475003Y78800006D01*
X129475003Y77100008D02*
X129475003Y73900005D01*
G04 #@! TO.C,M6*
X73800000Y107124990D02*
X107600010Y107124990D01*
X73800000Y71325000D02*
X73800000Y107124990D01*
X73800000Y71325000D02*
X107600000Y71325000D01*
X107600010Y71325000D02*
X107600010Y107124990D01*
D16*
G04 #@! TO.C,U8*
X122015005Y61600005D02*
X122015005Y63550005D01*
X122015005Y61600005D02*
X122015005Y59650005D01*
X127135005Y61600005D02*
X127135005Y63550005D01*
X127135005Y61600005D02*
X127135005Y59650005D01*
X122110005Y58900005D02*
X121780005Y58660005D01*
X121780005Y59140005D01*
X122110005Y58900005D01*
G36*
X122110005Y58900005D02*
G01*
X121780005Y58660005D01*
X121780005Y59140005D01*
X122110005Y58900005D01*
G37*
D11*
G04 #@! TO.C,R12*
X62775005Y66950004D02*
X62375005Y66950004D01*
X62779394Y68252932D02*
X62379394Y68252932D01*
D16*
G04 #@! TO.C,L2*
X124565005Y44937226D02*
X124565005Y45262784D01*
X125585005Y44937226D02*
X125585005Y45262784D01*
G04 #@! TO.C,U7*
X112420005Y60600005D02*
X112420005Y62550005D01*
X112420005Y60600005D02*
X112420005Y58650005D01*
X117540005Y60600005D02*
X117540005Y62550005D01*
X117540005Y60600005D02*
X117540005Y58650005D01*
X117775005Y63060005D02*
X117445005Y63300005D01*
X117775005Y63540005D01*
X117775005Y63060005D01*
G36*
X117775005Y63060005D02*
G01*
X117445005Y63300005D01*
X117775005Y63540005D01*
X117775005Y63060005D01*
G37*
G04 #@! TO.C,U11*
X137015005Y89100005D02*
X137015005Y91050005D01*
X137015005Y89100005D02*
X137015005Y87150005D01*
X142135005Y89100005D02*
X142135005Y91050005D01*
X142135005Y89100005D02*
X142135005Y87150005D01*
X142370005Y91560005D02*
X142040005Y91800005D01*
X142370005Y92040005D01*
X142370005Y91560005D01*
G36*
X142370005Y91560005D02*
G01*
X142040005Y91800005D01*
X142370005Y92040005D01*
X142370005Y91560005D01*
G37*
D17*
G04 #@! TO.C,R6*
X68700010Y61200005D02*
X68700020Y61600005D01*
X69445845Y61198949D02*
X69445856Y61598948D01*
D16*
G04 #@! TO.C,Q5*
X108625005Y52345005D02*
X108895005Y52345005D01*
X108625005Y45925005D02*
X108625005Y52345005D01*
X115525005Y52345005D02*
X115255005Y52345005D01*
X115525005Y45925005D02*
X115525005Y52345005D01*
X115685005Y53735005D02*
X115215005Y54075005D01*
X115685005Y54415005D01*
X115685005Y53735005D01*
G36*
X115685005Y53735005D02*
G01*
X115215005Y54075005D01*
X115685005Y54415005D01*
X115685005Y53735005D01*
G37*
G04 #@! TO.C,F3*
X45175005Y69100005D02*
X50025005Y69100005D01*
X45175005Y67100005D02*
X50025005Y67100005D01*
X45125005Y67100005D02*
G75*
G02*
X45125005Y69100005I0J1000000D01*
G01*
X50025005Y69100005D02*
G75*
G02*
X50025005Y67100005I0J-1000000D01*
G01*
D17*
G04 #@! TO.C,R54*
X16700010Y42400005D02*
X16700020Y42800005D01*
X17445845Y42398949D02*
X17445856Y42798948D01*
D11*
G04 #@! TO.C,C32*
X130424991Y60100005D02*
X129675006Y60100005D01*
G04 #@! TO.C,R7*
X59275005Y60950004D02*
X58875005Y60950004D01*
X59279394Y62252932D02*
X58879394Y62252932D01*
D16*
G04 #@! TO.C,Q2*
X84040005Y52345005D02*
X84310005Y52345005D01*
X84040005Y45925005D02*
X84040005Y52345005D01*
X90940005Y52345005D02*
X90670005Y52345005D01*
X90940005Y45925005D02*
X90940005Y52345005D01*
X91100005Y53735005D02*
X90630005Y54075005D01*
X91100005Y54415005D01*
X91100005Y53735005D01*
G36*
X91100005Y53735005D02*
G01*
X90630005Y54075005D01*
X91100005Y54415005D01*
X91100005Y53735005D01*
G37*
G04 #@! TO.C,Q3*
X92235005Y52345005D02*
X92505005Y52345005D01*
X92235005Y45925005D02*
X92235005Y52345005D01*
X99135005Y52345005D02*
X98865005Y52345005D01*
X99135005Y45925005D02*
X99135005Y52345005D01*
X99295005Y53735005D02*
X98825005Y54075005D01*
X99295005Y54415005D01*
X99295005Y53735005D01*
G36*
X99295005Y53735005D02*
G01*
X98825005Y54075005D01*
X99295005Y54415005D01*
X99295005Y53735005D01*
G37*
G04 #@! TO.C,U3*
X84015005Y60600005D02*
X84015005Y62550005D01*
X84015005Y60600005D02*
X84015005Y58650005D01*
X89135005Y60600005D02*
X89135005Y62550005D01*
X89135005Y60600005D02*
X89135005Y58650005D01*
X89370005Y63060005D02*
X89040005Y63300005D01*
X89370005Y63540005D01*
X89370005Y63060005D01*
G36*
X89370005Y63060005D02*
G01*
X89040005Y63300005D01*
X89370005Y63540005D01*
X89370005Y63060005D01*
G37*
G04 #@! TO.C,U9*
X76515005Y60600005D02*
X76515005Y62550005D01*
X76515005Y60600005D02*
X76515005Y58650005D01*
X81635005Y60600005D02*
X81635005Y62550005D01*
X81635005Y60600005D02*
X81635005Y58650005D01*
X81870005Y63060005D02*
X81540005Y63300005D01*
X81870005Y63540005D01*
X81870005Y63060005D01*
G36*
X81870005Y63060005D02*
G01*
X81540005Y63300005D01*
X81870005Y63540005D01*
X81870005Y63060005D01*
G37*
G04 #@! TO.C,Q6*
X116820005Y52345005D02*
X117090005Y52345005D01*
X116820005Y45925005D02*
X116820005Y52345005D01*
X123720005Y52345005D02*
X123450005Y52345005D01*
X123720005Y45925005D02*
X123720005Y52345005D01*
X123880005Y53735005D02*
X123410005Y54075005D01*
X123880005Y54415005D01*
X123880005Y53735005D01*
G36*
X123880005Y53735005D02*
G01*
X123410005Y54075005D01*
X123880005Y54415005D01*
X123880005Y53735005D01*
G37*
G04 #@! TO.C,M5*
D11*
X40650005Y43225005D02*
X26750005Y43225005D01*
X26750005Y70725005D01*
X40650005Y70725005D01*
X40650005Y43225005D01*
D14*
G04 #@! TO.C,J22*
X109200005Y104850005D02*
X109200005Y103850005D01*
X109500005Y106650005D02*
X109500005Y98850005D01*
X109500005Y98850005D02*
X110100005Y98850005D01*
X110100005Y106650005D02*
X109500005Y106650005D01*
X113000005Y106650005D02*
X113600005Y106650005D01*
X113600005Y106650005D02*
X113600005Y98850005D01*
X113600005Y98850005D02*
X113000005Y98850005D01*
D16*
G04 #@! TO.C,F1*
X131575005Y44200005D02*
X131575005Y49050005D01*
X133575005Y44200005D02*
X133575005Y49050005D01*
X131575005Y49050005D02*
G75*
G02*
X133575005Y49050005I1000000J0D01*
G01*
X133575005Y44150005D02*
G75*
G02*
X131575005Y44150005I-1000000J0D01*
G01*
G04 #@! TO.C,U10*
X15625005Y36570005D02*
X16095005Y36570005D01*
X15625005Y30150005D02*
X15625005Y36570005D01*
X22525005Y36570005D02*
X22055005Y36570005D01*
X22525005Y30150005D02*
X22525005Y36570005D01*
X22485005Y37960005D02*
X22015005Y38300005D01*
X22485005Y38640005D01*
X22485005Y37960005D01*
G36*
X22485005Y37960005D02*
G01*
X22015005Y38300005D01*
X22485005Y38640005D01*
X22485005Y37960005D01*
G37*
G04 #@! TO.C,U4*
X105015005Y60600005D02*
X105015005Y62550005D01*
X105015005Y60600005D02*
X105015005Y58650005D01*
X110135005Y60600005D02*
X110135005Y62550005D01*
X110135005Y60600005D02*
X110135005Y58650005D01*
X110370005Y63060005D02*
X110040005Y63300005D01*
X110370005Y63540005D01*
X110370005Y63060005D01*
G36*
X110370005Y63060005D02*
G01*
X110040005Y63300005D01*
X110370005Y63540005D01*
X110370005Y63060005D01*
G37*
D11*
G04 #@! TO.C,M3*
X65650005Y58125005D02*
X65650005Y43725005D01*
X65650005Y43725005D02*
X72050005Y43725005D01*
X75250005Y58725005D02*
X70150005Y58725005D01*
X75250005Y43725005D02*
X73950005Y43725005D01*
X75250005Y43725005D02*
X75250005Y58725005D01*
D16*
G04 #@! TO.C,F2*
X129075005Y44200005D02*
X129075005Y49050005D01*
X131075005Y44200005D02*
X131075005Y49050005D01*
X129075005Y49050005D02*
G75*
G02*
X131075005Y49050005I1000000J0D01*
G01*
X131075005Y44150005D02*
G75*
G02*
X129075005Y44150005I-1000000J0D01*
G01*
G04 #@! TO.C,Q1*
X75845005Y52345005D02*
X76115005Y52345005D01*
X75845005Y45925005D02*
X75845005Y52345005D01*
X82745005Y52345005D02*
X82475005Y52345005D01*
X82745005Y45925005D02*
X82745005Y52345005D01*
X82905005Y53735005D02*
X82435005Y54075005D01*
X82905005Y54415005D01*
X82905005Y53735005D01*
G36*
X82905005Y53735005D02*
G01*
X82435005Y54075005D01*
X82905005Y54415005D01*
X82905005Y53735005D01*
G37*
D11*
G04 #@! TO.C,M7*
X116362506Y99418345D02*
X116362506Y92532016D01*
X127262500Y99418345D02*
X116362506Y99418345D01*
X127262502Y99418342D02*
X127262500Y99418345D01*
X127262502Y99418342D02*
X127262502Y98543348D01*
X127537506Y98268344D02*
X127262502Y98543348D01*
X127537506Y98268344D02*
X127537506Y92570863D01*
X127537506Y92570863D02*
X116362506Y92532016D01*
D16*
G04 #@! TO.C,D5*
X9425005Y39610005D02*
X9425005Y34100005D01*
X12725005Y39610005D02*
X9425005Y39610005D01*
X12725005Y39610005D02*
X12725005Y34100005D01*
D17*
G04 #@! TO.C,R15*
X20275005Y46225010D02*
X19875005Y46225020D01*
X20276061Y46970845D02*
X19876062Y46970856D01*
D11*
G04 #@! TO.C,R11*
X62775005Y63950004D02*
X62375005Y63950004D01*
X62779394Y65252932D02*
X62379394Y65252932D01*
D17*
G04 #@! TO.C,R5*
X66700010Y61200005D02*
X66700020Y61600005D01*
X67445845Y61198949D02*
X67445856Y61598948D01*
D16*
G04 #@! TO.C,Q4*
X100430005Y52345005D02*
X100700005Y52345005D01*
X100430005Y45925005D02*
X100430005Y52345005D01*
X107330005Y52345005D02*
X107060005Y52345005D01*
X107330005Y45925005D02*
X107330005Y52345005D01*
X107490005Y53735005D02*
X107020005Y54075005D01*
X107490005Y54415005D01*
X107490005Y53735005D01*
G36*
X107490005Y53735005D02*
G01*
X107020005Y54075005D01*
X107490005Y54415005D01*
X107490005Y53735005D01*
G37*
D11*
G04 #@! TO.C,R10*
X62775005Y60950004D02*
X62375005Y60950004D01*
X62779394Y62252932D02*
X62379394Y62252932D01*
D17*
G04 #@! TO.C,R1*
X53204165Y49301061D02*
X53204154Y48901062D01*
X53950000Y49300005D02*
X53949990Y48900005D01*
D18*
G04 #@! TO.C,R4*
X109775005Y94558006D02*
X109775005Y95574006D01*
X109775005Y92526006D02*
X109775005Y93542006D01*
X111375005Y95574006D02*
X111375005Y94558006D01*
X111375005Y93542006D02*
X111375005Y92526006D01*
D16*
X109775005Y95625006D02*
G75*
G02*
X111376643Y95629006I800000J330000D01*
G01*
X111378500Y92466404D02*
G75*
G02*
X109775005Y92475006I-803495J-321398D01*
G01*
G04 #@! TO.C,D6*
X126015005Y53100005D02*
X126015005Y53750005D01*
X126015005Y53100005D02*
X126015005Y52450005D01*
X129135005Y53100005D02*
X129135005Y53750005D01*
X129135005Y53100005D02*
X129135005Y52450005D01*
X126065005Y51937505D02*
X125735005Y51697505D01*
X125735005Y52177505D01*
X126065005Y51937505D01*
G36*
X126065005Y51937505D02*
G01*
X125735005Y51697505D01*
X125735005Y52177505D01*
X126065005Y51937505D01*
G37*
D11*
G04 #@! TO.C,C29*
X127575005Y56449991D02*
X127575005Y55700006D01*
G04 #@! TO.C,M4*
X55475005Y57937505D02*
X55475005Y43537505D01*
X55475005Y43537505D02*
X61875005Y43537505D01*
X65075005Y58537505D02*
X59975005Y58537505D01*
X65075005Y43537505D02*
X63775005Y43537505D01*
X65075005Y43537505D02*
X65075005Y58537505D01*
D16*
G04 #@! TO.C,U6*
X91380005Y60600005D02*
X91380005Y62550005D01*
X91380005Y60600005D02*
X91380005Y58650005D01*
X96500005Y60600005D02*
X96500005Y62550005D01*
X96500005Y60600005D02*
X96500005Y58650005D01*
X96735005Y63060005D02*
X96405005Y63300005D01*
X96735005Y63540005D01*
X96735005Y63060005D01*
G36*
X96735005Y63060005D02*
G01*
X96405005Y63300005D01*
X96735005Y63540005D01*
X96735005Y63060005D01*
G37*
G04 #@! TO.C,Q7*
X18515005Y42600005D02*
X18515005Y43250005D01*
X18515005Y42600005D02*
X18515005Y41950005D01*
X21635005Y42600005D02*
X21635005Y43250005D01*
X21635005Y42600005D02*
X21635005Y41950005D01*
X21915005Y43522505D02*
X21585005Y43762505D01*
X21915005Y44002505D01*
X21915005Y43522505D01*
G36*
X21915005Y43522505D02*
G01*
X21585005Y43762505D01*
X21915005Y44002505D01*
X21915005Y43522505D01*
G37*
G04 #@! TO.C,J21*
X115515005Y105660005D02*
X115515005Y101540005D01*
X115515005Y101540005D02*
X130635005Y101540005D01*
X116515005Y106660005D02*
X115515005Y105660005D01*
X130635005Y106660005D02*
X116515005Y106660005D01*
X130635005Y101540005D02*
X130635005Y106660005D01*
X130935005Y106960005D02*
X128525005Y106960005D01*
X130935005Y104550005D02*
X130935005Y106960005D01*
G04 #@! TO.C,U5*
X98515005Y60600005D02*
X98515005Y62550005D01*
X98515005Y60600005D02*
X98515005Y58650005D01*
X103635005Y60600005D02*
X103635005Y62550005D01*
X103635005Y60600005D02*
X103635005Y58650005D01*
X103870005Y63060005D02*
X103540005Y63300005D01*
X103870005Y63540005D01*
X103870005Y63060005D01*
G36*
X103870005Y63060005D02*
G01*
X103540005Y63300005D01*
X103870005Y63540005D01*
X103870005Y63060005D01*
G37*
D11*
G04 #@! TO.C,C28*
X125285004Y48250019D02*
X125285004Y49000004D01*
G04 #@! TO.C,M8*
D19*
X52150005Y62825005D02*
X42250005Y62825005D01*
X42250005Y49125005D01*
X52150005Y49125005D01*
X52150005Y62825005D01*
D11*
G04 #@! TO.C,C30*
X127365006Y49949991D02*
X127365006Y49200006D01*
G04 #@! TO.C,C31*
X128924991Y60100005D02*
X128175006Y60100005D01*
G04 #@! TO.C,M2*
X45150005Y46775007D02*
X54250005Y46775007D01*
X45150005Y43675004D02*
X45150005Y44675006D01*
X45150005Y43675004D02*
X54250005Y43675004D01*
G04 #@! TD*
D20*
G04 #@! TO.C,P1*
X18648000Y5492000D03*
D21*
X21098000Y13292000D03*
D20*
X93148000Y5492000D03*
D21*
X142898000Y13292000D03*
D20*
X145348000Y5492000D03*
D22*
X25748000Y10492000D03*
X31548000Y10492000D03*
X28648000Y12822000D03*
X25748000Y18622000D03*
X31548000Y18622000D03*
D23*
X85168000Y18622000D03*
X82628000Y18622000D03*
X80088000Y18622000D03*
X77548000Y18622000D03*
X75008000Y18622000D03*
X72468000Y18622000D03*
X69928000Y18622000D03*
X67388000Y18622000D03*
X64848000Y18622000D03*
X62308000Y18622000D03*
X59768000Y18622000D03*
X57228000Y18622000D03*
X54688000Y18622000D03*
X52148000Y18622000D03*
X49608000Y18622000D03*
X47068000Y18622000D03*
X44528000Y18622000D03*
X41988000Y18622000D03*
X39448000Y18622000D03*
X85168000Y16082000D03*
X82628000Y16082000D03*
X80088000Y16082000D03*
X77548000Y16082000D03*
X75008000Y16082000D03*
X72468000Y16082000D03*
X69928000Y16082000D03*
X67388000Y16082000D03*
X64848000Y16082000D03*
X62308000Y16082000D03*
X59768000Y16082000D03*
X57228000Y16082000D03*
X54688000Y16082000D03*
X52148000Y16082000D03*
X49608000Y16082000D03*
X47068000Y16082000D03*
X44528000Y16082000D03*
X41988000Y16082000D03*
X39448000Y16082000D03*
X85168000Y10032000D03*
X82628000Y10032000D03*
X80088000Y10032000D03*
X77548000Y10032000D03*
X75008000Y10032000D03*
X72468000Y10032000D03*
X69928000Y10032000D03*
X67388000Y10032000D03*
X64848000Y10032000D03*
X62308000Y10032000D03*
X59768000Y10032000D03*
X57228000Y10032000D03*
X54688000Y10032000D03*
X52148000Y10032000D03*
X49608000Y10032000D03*
X47068000Y10032000D03*
X44528000Y10032000D03*
X41988000Y10032000D03*
X39448000Y10032000D03*
X85168000Y7492000D03*
X82628000Y7492000D03*
X80088000Y7492000D03*
X77548000Y7492000D03*
X75008000Y7492000D03*
X72468000Y7492000D03*
X69928000Y7492000D03*
X67388000Y7492000D03*
X64848000Y7492000D03*
X62308000Y7492000D03*
X59768000Y7492000D03*
X57228000Y7492000D03*
X54688000Y7492000D03*
X52148000Y7492000D03*
X49608000Y7492000D03*
X47068000Y7492000D03*
X44528000Y7492000D03*
X41988000Y7492000D03*
X39448000Y7492000D03*
X101138000Y7492000D03*
X103678000Y7492000D03*
X106218000Y7492000D03*
X108758000Y7492000D03*
X111298000Y7492000D03*
X113838000Y7492000D03*
X116378000Y7492000D03*
X118918000Y7492000D03*
X101138000Y10032000D03*
X103678000Y10032000D03*
X106218000Y10032000D03*
X108758000Y10032000D03*
X111298000Y10032000D03*
X113838000Y10032000D03*
X116378000Y10032000D03*
X118918000Y10032000D03*
X101138000Y16082000D03*
X103678000Y16082000D03*
X106218000Y16082000D03*
X108758000Y16082000D03*
X111298000Y16082000D03*
X113838000Y16082000D03*
X116378000Y16082000D03*
X118918000Y16082000D03*
X101138000Y18622000D03*
X103678000Y18622000D03*
X106218000Y18622000D03*
X108758000Y18622000D03*
X111298000Y18622000D03*
X113838000Y18622000D03*
X116378000Y18622000D03*
X118918000Y18622000D03*
D22*
X126748000Y10492000D03*
X132548000Y10492000D03*
X138448000Y10492000D03*
X129648000Y12822000D03*
X135548000Y12822000D03*
X126748000Y18622000D03*
X132548000Y18622000D03*
X138448000Y18622000D03*
G04 #@! TD*
D20*
G04 #@! TO.C,P2*
X18600000Y5375000D03*
D21*
X21050000Y13175000D03*
D20*
X93100000Y5375000D03*
D21*
X142850000Y13175000D03*
D20*
X145300000Y5375000D03*
D22*
X25700000Y10375000D03*
X31500000Y10375000D03*
X28600000Y12705000D03*
X25700000Y18505000D03*
X31500000Y18505000D03*
D23*
X85120000Y18505000D03*
X82580000Y18505000D03*
X80040000Y18505000D03*
X77500000Y18505000D03*
X74960000Y18505000D03*
X72420000Y18505000D03*
X69880000Y18505000D03*
X67340000Y18505000D03*
X64800000Y18505000D03*
X62260000Y18505000D03*
X59720000Y18505000D03*
X57180000Y18505000D03*
X54640000Y18505000D03*
X52100000Y18505000D03*
X49560000Y18505000D03*
X47020000Y18505000D03*
X44480000Y18505000D03*
X41940000Y18505000D03*
X39400000Y18505000D03*
X85120000Y15965000D03*
X82580000Y15965000D03*
X80040000Y15965000D03*
X77500000Y15965000D03*
X74960000Y15965000D03*
X72420000Y15965000D03*
X69880000Y15965000D03*
X67340000Y15965000D03*
X64800000Y15965000D03*
X62260000Y15965000D03*
X59720000Y15965000D03*
X57180000Y15965000D03*
X54640000Y15965000D03*
X52100000Y15965000D03*
X49560000Y15965000D03*
X47020000Y15965000D03*
X44480000Y15965000D03*
X41940000Y15965000D03*
X39400000Y15965000D03*
X85120000Y9915000D03*
X82580000Y9915000D03*
X80040000Y9915000D03*
X77500000Y9915000D03*
X74960000Y9915000D03*
X72420000Y9915000D03*
X69880000Y9915000D03*
X67340000Y9915000D03*
X64800000Y9915000D03*
X62260000Y9915000D03*
X59720000Y9915000D03*
X57180000Y9915000D03*
X54640000Y9915000D03*
X52100000Y9915000D03*
X49560000Y9915000D03*
X47020000Y9915000D03*
X44480000Y9915000D03*
X41940000Y9915000D03*
X39400000Y9915000D03*
X85120000Y7375000D03*
X82580000Y7375000D03*
X80040000Y7375000D03*
X77500000Y7375000D03*
X74960000Y7375000D03*
X72420000Y7375000D03*
X69880000Y7375000D03*
X67340000Y7375000D03*
X64800000Y7375000D03*
X62260000Y7375000D03*
X59720000Y7375000D03*
X57180000Y7375000D03*
X54640000Y7375000D03*
X52100000Y7375000D03*
X49560000Y7375000D03*
X47020000Y7375000D03*
X44480000Y7375000D03*
X41940000Y7375000D03*
X39400000Y7375000D03*
X101090000Y7375000D03*
X103630000Y7375000D03*
X106170000Y7375000D03*
X108710000Y7375000D03*
X111250000Y7375000D03*
X113790000Y7375000D03*
X116330000Y7375000D03*
X118870000Y7375000D03*
X101090000Y9915000D03*
X103630000Y9915000D03*
X106170000Y9915000D03*
X108710000Y9915000D03*
X111250000Y9915000D03*
X113790000Y9915000D03*
X116330000Y9915000D03*
X118870000Y9915000D03*
X101090000Y15965000D03*
X103630000Y15965000D03*
X106170000Y15965000D03*
X108710000Y15965000D03*
X111250000Y15965000D03*
X113790000Y15965000D03*
X116330000Y15965000D03*
X118870000Y15965000D03*
X101090000Y18505000D03*
X103630000Y18505000D03*
X106170000Y18505000D03*
X108710000Y18505000D03*
X111250000Y18505000D03*
X113790000Y18505000D03*
X116330000Y18505000D03*
X118870000Y18505000D03*
D22*
X126700000Y10375000D03*
X132500000Y10375000D03*
X138400000Y10375000D03*
X129600000Y12705000D03*
X135500000Y12705000D03*
X126700000Y18505000D03*
X132500000Y18505000D03*
X138400000Y18505000D03*
G04 #@! TD*
M02*
