G04 #@! TF.GenerationSoftware,KiCad,Pcbnew,8.0.8*
G04 #@! TF.CreationDate,2025-12-17T16:31:38-05:00*
G04 #@! TF.ProjectId,hellen121vag,68656c6c-656e-4313-9231-7661672e6b69,d*
G04 #@! TF.SameCoordinates,PX2b953a0PY6943058*
G04 #@! TF.FileFunction,Copper,L1,Top*
G04 #@! TF.FilePolarity,Positive*
%FSLAX46Y46*%
G04 Gerber Fmt 4.6, Leading zero omitted, Abs format (unit mm)*
G04 Created by KiCad (PCBNEW 8.0.8) date 2025-12-17 16:31:38*
%MOMM*%
%LPD*%
G01*
G04 APERTURE LIST*
G04 #@! TA.AperFunction,ComponentPad*
%ADD10C,3.700000*%
G04 #@! TD*
G04 #@! TA.AperFunction,ComponentPad*
%ADD11C,2.200000*%
G04 #@! TD*
G04 #@! TA.AperFunction,ComponentPad*
%ADD12C,2.600000*%
G04 #@! TD*
G04 #@! TA.AperFunction,ComponentPad*
%ADD13C,1.500000*%
G04 #@! TD*
G04 #@! TA.AperFunction,ComponentPad*
%ADD14C,0.600000*%
G04 #@! TD*
G04 #@! TA.AperFunction,SMDPad,CuDef*
%ADD15O,0.200000X3.300000*%
G04 #@! TD*
G04 #@! TA.AperFunction,SMDPad,CuDef*
%ADD16O,0.200000X10.200000*%
G04 #@! TD*
G04 #@! TA.AperFunction,SMDPad,CuDef*
%ADD17O,0.200000X0.300000*%
G04 #@! TD*
G04 #@! TA.AperFunction,SMDPad,CuDef*
%ADD18O,17.000000X0.200000*%
G04 #@! TD*
G04 #@! TA.AperFunction,SMDPad,CuDef*
%ADD19O,15.400000X0.200000*%
G04 #@! TD*
G04 #@! TA.AperFunction,SMDPad,CuDef*
%ADD20O,0.200000X4.800000*%
G04 #@! TD*
G04 #@! TA.AperFunction,SMDPad,CuDef*
%ADD21O,0.200000X2.600000*%
G04 #@! TD*
G04 #@! TA.AperFunction,SMDPad,CuDef*
%ADD22O,0.200000X1.000000*%
G04 #@! TD*
G04 #@! TA.AperFunction,SMDPad,CuDef*
%ADD23O,0.200000X1.500000*%
G04 #@! TD*
G04 #@! TA.AperFunction,SMDPad,CuDef*
%ADD24R,0.200000X3.700000*%
G04 #@! TD*
G04 #@! TA.AperFunction,SMDPad,CuDef*
%ADD25R,0.200000X0.400000*%
G04 #@! TD*
G04 #@! TA.AperFunction,SMDPad,CuDef*
%ADD26R,0.200000X1.600000*%
G04 #@! TD*
G04 #@! TA.AperFunction,SMDPad,CuDef*
%ADD27R,0.200000X9.700000*%
G04 #@! TD*
G04 #@! TA.AperFunction,SMDPad,CuDef*
%ADD28R,0.200000X2.300000*%
G04 #@! TD*
G04 #@! TA.AperFunction,SMDPad,CuDef*
%ADD29R,1.400000X0.200000*%
G04 #@! TD*
G04 #@! TA.AperFunction,SMDPad,CuDef*
%ADD30R,6.400000X0.200000*%
G04 #@! TD*
G04 #@! TA.AperFunction,SMDPad,CuDef*
%ADD31R,1.700000X0.200000*%
G04 #@! TD*
G04 #@! TA.AperFunction,SMDPad,CuDef*
%ADD32R,3.300000X0.200000*%
G04 #@! TD*
G04 #@! TA.AperFunction,SMDPad,CuDef*
%ADD33R,0.200000X7.000000*%
G04 #@! TD*
G04 #@! TA.AperFunction,SMDPad,CuDef*
%ADD34R,0.200000X3.300000*%
G04 #@! TD*
G04 #@! TA.AperFunction,SMDPad,CuDef*
%ADD35R,0.200000X6.300000*%
G04 #@! TD*
G04 #@! TA.AperFunction,ComponentPad*
%ADD36C,1.524000*%
G04 #@! TD*
G04 #@! TA.AperFunction,ComponentPad*
%ADD37C,0.700000*%
G04 #@! TD*
G04 #@! TA.AperFunction,SMDPad,CuDef*
%ADD38C,3.000000*%
G04 #@! TD*
G04 #@! TA.AperFunction,SMDPad,CuDef*
%ADD39R,3.000000X0.250000*%
G04 #@! TD*
G04 #@! TA.AperFunction,SMDPad,CuDef*
%ADD40R,1.100000X0.250000*%
G04 #@! TD*
G04 #@! TA.AperFunction,SMDPad,CuDef*
%ADD41R,0.980000X0.250000*%
G04 #@! TD*
G04 #@! TA.AperFunction,SMDPad,CuDef*
%ADD42R,1.450000X0.250000*%
G04 #@! TD*
G04 #@! TA.AperFunction,SMDPad,CuDef*
%ADD43R,0.250000X27.600000*%
G04 #@! TD*
G04 #@! TA.AperFunction,SMDPad,CuDef*
%ADD44R,1.950000X0.250000*%
G04 #@! TD*
G04 #@! TA.AperFunction,SMDPad,CuDef*
%ADD45R,0.950000X0.250000*%
G04 #@! TD*
G04 #@! TA.AperFunction,ComponentPad*
%ADD46R,1.100000X1.100000*%
G04 #@! TD*
G04 #@! TA.AperFunction,ComponentPad*
%ADD47C,1.100000*%
G04 #@! TD*
G04 #@! TA.AperFunction,ComponentPad*
%ADD48O,2.400000X1.100000*%
G04 #@! TD*
G04 #@! TA.AperFunction,SMDPad,CuDef*
%ADD49R,6.185000X0.250000*%
G04 #@! TD*
G04 #@! TA.AperFunction,SMDPad,CuDef*
%ADD50R,1.115000X0.250000*%
G04 #@! TD*
G04 #@! TA.AperFunction,SMDPad,CuDef*
%ADD51R,0.250000X14.275000*%
G04 #@! TD*
G04 #@! TA.AperFunction,SMDPad,CuDef*
%ADD52R,0.250000X15.100000*%
G04 #@! TD*
G04 #@! TA.AperFunction,SMDPad,CuDef*
%ADD53R,5.175000X0.250000*%
G04 #@! TD*
G04 #@! TA.AperFunction,SMDPad,CuDef*
%ADD54O,0.200000X5.669999*%
G04 #@! TD*
G04 #@! TA.AperFunction,SMDPad,CuDef*
%ADD55O,11.100001X0.200000*%
G04 #@! TD*
G04 #@! TA.AperFunction,SMDPad,CuDef*
%ADD56O,9.800001X0.399999*%
G04 #@! TD*
G04 #@! TA.AperFunction,SMDPad,CuDef*
%ADD57O,0.499999X0.250000*%
G04 #@! TD*
G04 #@! TA.AperFunction,SMDPad,CuDef*
%ADD58O,0.200000X6.799999*%
G04 #@! TD*
G04 #@! TA.AperFunction,SMDPad,CuDef*
%ADD59O,0.250000X0.499999*%
G04 #@! TD*
G04 #@! TA.AperFunction,ComponentPad*
%ADD60C,0.599999*%
G04 #@! TD*
G04 #@! TA.AperFunction,ComponentPad*
%ADD61O,1.700000X1.850000*%
G04 #@! TD*
G04 #@! TA.AperFunction,SMDPad,CuDef*
%ADD62R,4.400000X0.200000*%
G04 #@! TD*
G04 #@! TA.AperFunction,SMDPad,CuDef*
%ADD63R,0.200000X1.200000*%
G04 #@! TD*
G04 #@! TA.AperFunction,SMDPad,CuDef*
%ADD64R,0.200000X6.800000*%
G04 #@! TD*
G04 #@! TA.AperFunction,SMDPad,CuDef*
%ADD65R,0.200000X4.000000*%
G04 #@! TD*
G04 #@! TA.AperFunction,SMDPad,CuDef*
%ADD66R,0.200000X1.800000*%
G04 #@! TD*
G04 #@! TA.AperFunction,SMDPad,CuDef*
%ADD67R,10.000000X0.200000*%
G04 #@! TD*
G04 #@! TA.AperFunction,ComponentPad*
%ADD68C,1.000000*%
G04 #@! TD*
G04 #@! TA.AperFunction,SMDPad,CuDef*
%ADD69O,0.200000X1.225000*%
G04 #@! TD*
G04 #@! TA.AperFunction,SMDPad,CuDef*
%ADD70O,9.300000X0.200000*%
G04 #@! TD*
G04 #@! TA.AperFunction,ViaPad*
%ADD71C,2.000000*%
G04 #@! TD*
G04 APERTURE END LIST*
D10*
G04 #@! TO.P,P1,*
G04 #@! TO.N,*
X18648000Y5492000D03*
D11*
X21098000Y13292000D03*
D10*
X93148000Y5492000D03*
D11*
X142898000Y13292000D03*
D10*
X145348000Y5492000D03*
D12*
G04 #@! TO.P,P1,1,1*
G04 #@! TO.N,PIN1*
X25748000Y10492000D03*
G04 #@! TO.P,P1,2,2*
G04 #@! TO.N,PIN2*
X31548000Y10492000D03*
G04 #@! TO.P,P1,3,3*
G04 #@! TO.N,PIN114*
X28648000Y12822000D03*
G04 #@! TO.P,P1,4,4*
G04 #@! TO.N,PIN4*
X25748000Y18622000D03*
G04 #@! TO.P,P1,5,5*
G04 #@! TO.N,PIN5*
X31548000Y18622000D03*
D13*
G04 #@! TO.P,P1,6*
G04 #@! TO.N,N/C*
X85168000Y18622000D03*
G04 #@! TO.P,P1,7*
X82628000Y18622000D03*
G04 #@! TO.P,P1,8*
X80088000Y18622000D03*
G04 #@! TO.P,P1,9*
X77548000Y18622000D03*
G04 #@! TO.P,P1,10*
X75008000Y18622000D03*
G04 #@! TO.P,P1,11*
X72468000Y18622000D03*
G04 #@! TO.P,P1,12*
X69928000Y18622000D03*
G04 #@! TO.P,P1,13*
X67388000Y18622000D03*
G04 #@! TO.P,P1,14*
X64848000Y18622000D03*
G04 #@! TO.P,P1,15*
X62308000Y18622000D03*
G04 #@! TO.P,P1,16*
X59768000Y18622000D03*
G04 #@! TO.P,P1,17*
X57228000Y18622000D03*
G04 #@! TO.P,P1,18*
X54688000Y18622000D03*
G04 #@! TO.P,P1,19*
X52148000Y18622000D03*
G04 #@! TO.P,P1,20*
X49608000Y18622000D03*
G04 #@! TO.P,P1,21*
X47068000Y18622000D03*
G04 #@! TO.P,P1,22*
X44528000Y18622000D03*
G04 #@! TO.P,P1,23*
X41988000Y18622000D03*
G04 #@! TO.P,P1,24*
X39448000Y18622000D03*
G04 #@! TO.P,P1,25*
X85168000Y16082000D03*
G04 #@! TO.P,P1,26*
X82628000Y16082000D03*
G04 #@! TO.P,P1,27*
X80088000Y16082000D03*
G04 #@! TO.P,P1,28*
X77548000Y16082000D03*
G04 #@! TO.P,P1,29*
X75008000Y16082000D03*
G04 #@! TO.P,P1,30*
X72468000Y16082000D03*
G04 #@! TO.P,P1,31*
X69928000Y16082000D03*
G04 #@! TO.P,P1,32*
X67388000Y16082000D03*
G04 #@! TO.P,P1,33*
X64848000Y16082000D03*
G04 #@! TO.P,P1,34*
X62308000Y16082000D03*
G04 #@! TO.P,P1,35*
X59768000Y16082000D03*
G04 #@! TO.P,P1,36*
X57228000Y16082000D03*
G04 #@! TO.P,P1,37*
X54688000Y16082000D03*
G04 #@! TO.P,P1,38*
X52148000Y16082000D03*
G04 #@! TO.P,P1,39*
X49608000Y16082000D03*
G04 #@! TO.P,P1,40*
X47068000Y16082000D03*
G04 #@! TO.P,P1,41*
X44528000Y16082000D03*
G04 #@! TO.P,P1,42*
X41988000Y16082000D03*
G04 #@! TO.P,P1,43*
X39448000Y16082000D03*
G04 #@! TO.P,P1,44*
X85168000Y10032000D03*
G04 #@! TO.P,P1,45*
X82628000Y10032000D03*
G04 #@! TO.P,P1,46*
X80088000Y10032000D03*
G04 #@! TO.P,P1,47*
X77548000Y10032000D03*
G04 #@! TO.P,P1,48*
X75008000Y10032000D03*
G04 #@! TO.P,P1,49*
X72468000Y10032000D03*
G04 #@! TO.P,P1,50*
X69928000Y10032000D03*
G04 #@! TO.P,P1,51*
X67388000Y10032000D03*
G04 #@! TO.P,P1,52*
X64848000Y10032000D03*
G04 #@! TO.P,P1,53*
X62308000Y10032000D03*
G04 #@! TO.P,P1,54*
X59768000Y10032000D03*
G04 #@! TO.P,P1,55*
X57228000Y10032000D03*
G04 #@! TO.P,P1,56*
X54688000Y10032000D03*
G04 #@! TO.P,P1,57*
X52148000Y10032000D03*
G04 #@! TO.P,P1,58*
X49608000Y10032000D03*
G04 #@! TO.P,P1,59*
X47068000Y10032000D03*
G04 #@! TO.P,P1,60*
X44528000Y10032000D03*
G04 #@! TO.P,P1,61*
X41988000Y10032000D03*
G04 #@! TO.P,P1,62*
X39448000Y10032000D03*
G04 #@! TO.P,P1,63*
X85168000Y7492000D03*
G04 #@! TO.P,P1,64*
X82628000Y7492000D03*
G04 #@! TO.P,P1,65*
X80088000Y7492000D03*
G04 #@! TO.P,P1,66*
X77548000Y7492000D03*
G04 #@! TO.P,P1,67*
X75008000Y7492000D03*
G04 #@! TO.P,P1,68*
X72468000Y7492000D03*
G04 #@! TO.P,P1,69*
X69928000Y7492000D03*
G04 #@! TO.P,P1,70*
X67388000Y7492000D03*
G04 #@! TO.P,P1,71*
X64848000Y7492000D03*
G04 #@! TO.P,P1,72*
X62308000Y7492000D03*
G04 #@! TO.P,P1,73*
X59768000Y7492000D03*
G04 #@! TO.P,P1,74*
X57228000Y7492000D03*
G04 #@! TO.P,P1,75*
X54688000Y7492000D03*
G04 #@! TO.P,P1,76*
X52148000Y7492000D03*
G04 #@! TO.P,P1,77*
X49608000Y7492000D03*
G04 #@! TO.P,P1,78*
X47068000Y7492000D03*
G04 #@! TO.P,P1,79*
X44528000Y7492000D03*
G04 #@! TO.P,P1,80*
X41988000Y7492000D03*
G04 #@! TO.P,P1,81*
X39448000Y7492000D03*
G04 #@! TO.P,P1,82*
X101138000Y7492000D03*
G04 #@! TO.P,P1,83*
X103678000Y7492000D03*
G04 #@! TO.P,P1,84*
X106218000Y7492000D03*
G04 #@! TO.P,P1,85*
X108758000Y7492000D03*
G04 #@! TO.P,P1,86*
X111298000Y7492000D03*
G04 #@! TO.P,P1,87*
X113838000Y7492000D03*
G04 #@! TO.P,P1,88*
X116378000Y7492000D03*
G04 #@! TO.P,P1,89*
X118918000Y7492000D03*
G04 #@! TO.P,P1,90*
X101138000Y10032000D03*
G04 #@! TO.P,P1,91*
X103678000Y10032000D03*
G04 #@! TO.P,P1,92*
X106218000Y10032000D03*
G04 #@! TO.P,P1,93*
X108758000Y10032000D03*
G04 #@! TO.P,P1,94*
X111298000Y10032000D03*
G04 #@! TO.P,P1,95*
X113838000Y10032000D03*
G04 #@! TO.P,P1,96*
X116378000Y10032000D03*
G04 #@! TO.P,P1,97*
X118918000Y10032000D03*
G04 #@! TO.P,P1,98*
X101138000Y16082000D03*
G04 #@! TO.P,P1,99*
X103678000Y16082000D03*
G04 #@! TO.P,P1,100*
X106218000Y16082000D03*
G04 #@! TO.P,P1,101*
X108758000Y16082000D03*
G04 #@! TO.P,P1,102*
X111298000Y16082000D03*
G04 #@! TO.P,P1,103*
X113838000Y16082000D03*
G04 #@! TO.P,P1,104*
X116378000Y16082000D03*
G04 #@! TO.P,P1,105*
X118918000Y16082000D03*
G04 #@! TO.P,P1,106*
X101138000Y18622000D03*
G04 #@! TO.P,P1,107*
X103678000Y18622000D03*
G04 #@! TO.P,P1,108*
X106218000Y18622000D03*
G04 #@! TO.P,P1,109*
X108758000Y18622000D03*
G04 #@! TO.P,P1,110*
X111298000Y18622000D03*
G04 #@! TO.P,P1,111*
X113838000Y18622000D03*
G04 #@! TO.P,P1,112*
X116378000Y18622000D03*
G04 #@! TO.P,P1,113*
X118918000Y18622000D03*
D12*
G04 #@! TO.P,P1,114,114*
G04 #@! TO.N,PIN114*
X126748000Y10492000D03*
G04 #@! TO.P,P1,115,115*
X132548000Y10492000D03*
G04 #@! TO.P,P1,116,116*
G04 #@! TO.N,PIN116*
X138448000Y10492000D03*
G04 #@! TO.P,P1,117,117*
G04 #@! TO.N,PIN117*
X129648000Y12822000D03*
G04 #@! TO.P,P1,118,118*
G04 #@! TO.N,PIN118*
X135548000Y12822000D03*
G04 #@! TO.P,P1,119,119*
G04 #@! TO.N,PIN119*
X126748000Y18622000D03*
G04 #@! TO.P,P1,120,120*
G04 #@! TO.N,PIN120*
X132548000Y18622000D03*
G04 #@! TO.P,P1,121,121*
G04 #@! TO.N,PIN121*
X138448000Y18622000D03*
G04 #@! TD*
G04 #@! TO.P,R8,1*
G04 #@! TO.N,PIN85*
G04 #@! TA.AperFunction,SMDPad,CuDef*
G36*
G01*
X60525006Y65225005D02*
X60525006Y63975005D01*
G75*
G02*
X60425006Y63875005I-100000J0D01*
G01*
X59625006Y63875005D01*
G75*
G02*
X59525006Y63975005I0J100000D01*
G01*
X59525006Y65225005D01*
G75*
G02*
X59625006Y65325005I100000J0D01*
G01*
X60425006Y65325005D01*
G75*
G02*
X60525006Y65225005I0J-100000D01*
G01*
G37*
G04 #@! TD.AperFunction*
G04 #@! TO.P,R8,2*
G04 #@! TO.N,+5VA*
G04 #@! TA.AperFunction,SMDPad,CuDef*
G36*
G01*
X58624984Y65225005D02*
X58624984Y63975005D01*
G75*
G02*
X58524984Y63875005I-100000J0D01*
G01*
X57724984Y63875005D01*
G75*
G02*
X57624984Y63975005I0J100000D01*
G01*
X57624984Y65225005D01*
G75*
G02*
X57724984Y65325005I100000J0D01*
G01*
X58524984Y65325005D01*
G75*
G02*
X58624984Y65225005I0J-100000D01*
G01*
G37*
G04 #@! TD.AperFunction*
G04 #@! TD*
G04 #@! TO.P,R9,1*
G04 #@! TO.N,PIN89*
G04 #@! TA.AperFunction,SMDPad,CuDef*
G36*
G01*
X60525006Y68225005D02*
X60525006Y66975005D01*
G75*
G02*
X60425006Y66875005I-100000J0D01*
G01*
X59625006Y66875005D01*
G75*
G02*
X59525006Y66975005I0J100000D01*
G01*
X59525006Y68225005D01*
G75*
G02*
X59625006Y68325005I100000J0D01*
G01*
X60425006Y68325005D01*
G75*
G02*
X60525006Y68225005I0J-100000D01*
G01*
G37*
G04 #@! TD.AperFunction*
G04 #@! TO.P,R9,2*
G04 #@! TO.N,+5VA*
G04 #@! TA.AperFunction,SMDPad,CuDef*
G36*
G01*
X58624984Y68225005D02*
X58624984Y66975005D01*
G75*
G02*
X58524984Y66875005I-100000J0D01*
G01*
X57724984Y66875005D01*
G75*
G02*
X57624984Y66975005I0J100000D01*
G01*
X57624984Y68225005D01*
G75*
G02*
X57724984Y68325005I100000J0D01*
G01*
X58524984Y68325005D01*
G75*
G02*
X58624984Y68225005I0J-100000D01*
G01*
G37*
G04 #@! TD.AperFunction*
G04 #@! TD*
G04 #@! TO.P,L1,1,1*
G04 #@! TO.N,PIN21*
G04 #@! TA.AperFunction,SMDPad,CuDef*
G36*
G01*
X127331255Y43875005D02*
X126818755Y43875005D01*
G75*
G02*
X126600005Y44093755I0J218750D01*
G01*
X126600005Y44531255D01*
G75*
G02*
X126818755Y44750005I218750J0D01*
G01*
X127331255Y44750005D01*
G75*
G02*
X127550005Y44531255I0J-218750D01*
G01*
X127550005Y44093755D01*
G75*
G02*
X127331255Y43875005I-218750J0D01*
G01*
G37*
G04 #@! TD.AperFunction*
G04 #@! TO.P,L1,2,2*
G04 #@! TO.N,N/C*
G04 #@! TA.AperFunction,SMDPad,CuDef*
G36*
G01*
X127331255Y45450005D02*
X126818755Y45450005D01*
G75*
G02*
X126600005Y45668755I0J218750D01*
G01*
X126600005Y46106255D01*
G75*
G02*
X126818755Y46325005I218750J0D01*
G01*
X127331255Y46325005D01*
G75*
G02*
X127550005Y46106255I0J-218750D01*
G01*
X127550005Y45668755D01*
G75*
G02*
X127331255Y45450005I-218750J0D01*
G01*
G37*
G04 #@! TD.AperFunction*
G04 #@! TD*
D13*
G04 #@! TO.P,M1,E1,VBAT*
G04 #@! TO.N,/VBAT*
X113325007Y71600008D03*
G04 #@! TO.P,M1,E2,V12*
G04 #@! TO.N,unconnected-(M1-V12-PadE2)*
X113325007Y78000005D03*
G04 #@! TO.P,M1,E3,VIGN*
G04 #@! TO.N,/VIGN*
X113325007Y79900008D03*
G04 #@! TO.P,M1,E4,V5*
G04 #@! TO.N,+5V*
X113325007Y84200008D03*
D14*
G04 #@! TO.P,M1,E5,EN_5VP*
G04 #@! TO.N,/PWR_EN*
X112875008Y86600005D03*
G04 #@! TO.P,M1,E6,PG_5VP*
G04 #@! TO.N,Net-(M1-PG_5VP)*
X112875008Y87600006D03*
D15*
G04 #@! TO.P,M1,S1,GND*
G04 #@! TO.N,PIN114*
X129475003Y75450008D03*
D16*
X129475003Y83950006D03*
D17*
X129475003Y91050008D03*
D18*
X121075005Y91100008D03*
D19*
X120275004Y70500008D03*
D13*
X113325007Y90450008D03*
D17*
X112675006Y70550008D03*
D20*
X112675006Y74750006D03*
D21*
X112675006Y82100008D03*
D22*
X112675006Y85600005D03*
D23*
X112675006Y88900006D03*
D13*
G04 #@! TO.P,M1,V1,V12_PERM*
G04 #@! TO.N,PIN116*
X128825004Y71150006D03*
G04 #@! TO.P,M1,V2,IN_VIGN*
G04 #@! TO.N,/IN_VIGN*
X128825004Y73000005D03*
G04 #@! TO.P,M1,V3,V12_RAW*
G04 #@! TO.N,PIN117*
X128825004Y77950008D03*
G04 #@! TO.P,M1,V4,5VP*
G04 #@! TO.N,PIN106*
X128825004Y90000006D03*
G04 #@! TD*
D14*
G04 #@! TO.P,M6,E1,V5A_SWITCHABLE*
G04 #@! TO.N,+5VA*
X107400000Y78025000D03*
G04 #@! TO.P,M6,E2,GNDA*
G04 #@! TO.N,N/C*
X107400010Y82325000D03*
G04 #@! TO.P,M6,E3,I2C_SCL_(PB10)*
X107400010Y83124990D03*
G04 #@! TO.P,M6,E4,I2C_SDA_(PB11)*
X107400010Y83925000D03*
G04 #@! TO.P,M6,E5,IN_VIGN_(PA5)*
G04 #@! TO.N,/VIGN*
X107400010Y84725000D03*
G04 #@! TO.P,M6,E6,SPI2_CS_/_CAN2_RX_(PB12)*
G04 #@! TO.N,E6INJ7CANRX*
X107400010Y85525000D03*
G04 #@! TO.P,M6,E7,SPI2_SCK_/_CAN2_TX_(PB13)*
G04 #@! TO.N,E7INJ8CANTX*
X107400010Y86325000D03*
G04 #@! TO.P,M6,E8,SPI2_MISO_(PB14)*
G04 #@! TO.N,DC1_DIS_W1*
X107400010Y87125000D03*
G04 #@! TO.P,M6,E9,SPI2_MOSI_(PB15)*
G04 #@! TO.N,/DC2_DIR*
X107400010Y87925000D03*
G04 #@! TO.P,M6,E10,OUT_INJ8_(PD12)*
G04 #@! TO.N,/LS2*
X107400010Y88725000D03*
G04 #@! TO.P,M6,E11,OUT_INJ7_(PD15)*
G04 #@! TO.N,/LS1*
X107400010Y89525000D03*
G04 #@! TO.P,M6,E12,OUT_INJ6_(PA8)*
G04 #@! TO.N,/INJ6*
X107400010Y90325000D03*
G04 #@! TO.P,M6,E13,OUT_INJ5_(PD2)*
G04 #@! TO.N,/INJ5*
X107400010Y91125000D03*
G04 #@! TO.P,M6,E14,OUT_INJ4_(PD10)*
G04 #@! TO.N,/INJ4*
X107400010Y91925000D03*
G04 #@! TO.P,M6,E15,OUT_INJ3_(PD11)*
G04 #@! TO.N,/INJ3*
X107400010Y92725000D03*
G04 #@! TO.P,M6,E16,OUT_INJ2_(PA9)*
G04 #@! TO.N,/INJ2*
X107400000Y93524990D03*
G04 #@! TO.P,M6,E17,OUT_INJ1_(PD3)*
G04 #@! TO.N,/INJ1*
X107400010Y94325000D03*
G04 #@! TO.P,M6,E18,OUT_PWM1_(PD13)*
G04 #@! TO.N,/LS3*
X107400010Y95725000D03*
G04 #@! TO.P,M6,E19,OUT_PWM2_(PC6)*
G04 #@! TO.N,/LS4*
X107400010Y96524990D03*
G04 #@! TO.P,M6,E20,OUT_PWM3_(PC7)*
G04 #@! TO.N,/DC1_PWM*
X107400010Y97324990D03*
G04 #@! TO.P,M6,E21,OUT_PWM4_(PC8)*
G04 #@! TO.N,/DC1_DIR*
X107400010Y98124990D03*
G04 #@! TO.P,M6,E22,OUT_PWM5_(PC9)*
G04 #@! TO.N,/DC2_PWM*
X107400010Y98924990D03*
G04 #@! TO.P,M6,E23,OUT_PWM6_(PD14)*
G04 #@! TO.N,/VR_DISCRETE_THR*
X107400010Y99725000D03*
D24*
G04 #@! TO.P,M6,G,GND*
G04 #@! TO.N,PIN114*
X73800000Y104574990D03*
D25*
X73800000Y101525000D03*
D24*
X73800000Y98474990D03*
D26*
X73800000Y94025000D03*
D27*
X73800000Y80375000D03*
D28*
X73800000Y72375000D03*
D29*
X75600010Y71324990D03*
D30*
X77700000Y107124990D03*
D31*
X83750000Y107124990D03*
D32*
X87250000Y107124990D03*
D29*
X97000000Y107124990D03*
D30*
X104500000Y71324990D03*
D33*
X107600010Y103725010D03*
D25*
X107600010Y95024990D03*
D34*
X107600010Y80174990D03*
D35*
X107600010Y74374990D03*
D14*
G04 #@! TO.P,M6,N1,VBUS*
G04 #@! TO.N,/VBUS*
X107000010Y106925000D03*
G04 #@! TO.P,M6,N2,USBM_(PA11)*
G04 #@! TO.N,/USB-*
X106200010Y106925000D03*
G04 #@! TO.P,M6,N3,USBP_(PA12)*
G04 #@! TO.N,/USB+*
X105400010Y106925000D03*
G04 #@! TO.P,M6,N4,USBID_(PA10)*
G04 #@! TO.N,/DC2_DIS*
X104600000Y106925000D03*
G04 #@! TO.P,M6,N5,SWDIO_(PA13)*
G04 #@! TO.N,N/C*
X103800010Y106925000D03*
G04 #@! TO.P,M6,N6,SWCLK_(PA14)*
X103000010Y106925000D03*
G04 #@! TO.P,M6,N7,nReset*
X102200010Y106925000D03*
G04 #@! TO.P,M6,N8,SWO_(PB3)*
X101400000Y106925000D03*
G04 #@! TO.P,M6,N9,SPI3_CS_(PA15)*
G04 #@! TO.N,/EGT/SPI_CS*
X100600010Y106924990D03*
G04 #@! TO.P,M6,N10,SPI3_SCK_(PC10)*
G04 #@! TO.N,/SCK3*
X99800010Y106924990D03*
G04 #@! TO.P,M6,N11,SPI3_MISO_(PC11)*
G04 #@! TO.N,/MISO3*
X99000010Y106924990D03*
G04 #@! TO.P,M6,N12,SPI3_MOSI_(PC12)*
G04 #@! TO.N,/PG_5VP*
X98200010Y106924990D03*
G04 #@! TO.P,M6,N13,UART2_TX_(PD5)*
G04 #@! TO.N,PIN7*
X95800000Y106924990D03*
G04 #@! TO.P,M6,N14,UART2_RX_(PD6)*
G04 #@! TO.N,PIN6*
X95000000Y106924990D03*
G04 #@! TO.P,M6,N14a,LED_GREEN*
G04 #@! TO.N,N/C*
X94200010Y106925000D03*
G04 #@! TO.P,M6,N14b,LED_YELLOW*
X93400000Y106925000D03*
G04 #@! TO.P,M6,N15,V33_SWITCHABLE*
G04 #@! TO.N,+3.3VA*
X92600000Y106925000D03*
G04 #@! TO.P,M6,N16,BOOT0*
G04 #@! TO.N,N/C*
X91800000Y106925000D03*
G04 #@! TO.P,M6,N17,VBAT*
G04 #@! TO.N,/VBAT*
X91000000Y106925000D03*
G04 #@! TO.P,M6,N18,UART8_RX_(PE0)*
G04 #@! TO.N,/VR_DISCRETE*
X90200000Y106924990D03*
G04 #@! TO.P,M6,N19,UART8_TX_(PE1)*
G04 #@! TO.N,/VR_MAX9924*
X89400000Y106924990D03*
G04 #@! TO.P,M6,N20,OUT_PWR_EN_(PE10)*
G04 #@! TO.N,/PWR_EN*
X85100000Y106924990D03*
G04 #@! TO.P,M6,N21,V33*
G04 #@! TO.N,+3.3V*
X82400000Y106924990D03*
G04 #@! TO.P,M6,N22,VCC*
G04 #@! TO.N,+5V*
X81400010Y106924990D03*
G04 #@! TO.P,M6,N23,V33*
G04 #@! TO.N,N/C*
X74000000Y106924990D03*
G04 #@! TO.P,M6,S1,IN_D4_(PE15)*
G04 #@! TO.N,PIN89*
X100800020Y71524990D03*
G04 #@! TO.P,M6,S2,IN_D3_(PE14)*
G04 #@! TO.N,PIN34*
X99600010Y71524990D03*
G04 #@! TO.P,M6,S3,IN_D2_(PE13)*
G04 #@! TO.N,PIN35*
X98400010Y71524990D03*
G04 #@! TO.P,M6,S4,IN_D1_(PE12)*
G04 #@! TO.N,PIN36*
X97200010Y71524990D03*
G04 #@! TO.P,M6,S5,VREF2*
G04 #@! TO.N,N/C*
X96000010Y71524990D03*
G04 #@! TO.P,M6,S6,IN_AUX4_(PC5)*
G04 #@! TO.N,/IN_VMAIN*
X94800010Y71524990D03*
G04 #@! TO.P,M6,S7,IN_AUX3_(PA7)*
G04 #@! TO.N,/IN_AUX3*
X93600010Y71524990D03*
G04 #@! TO.P,M6,S8,IN_AUX2_(PC4/PE9)*
G04 #@! TO.N,PIN91*
X92400010Y71524990D03*
G04 #@! TO.P,M6,S9,IN_AUX1_(PB0)*
G04 #@! TO.N,PIN39*
X91200010Y71524990D03*
G04 #@! TO.P,M6,S10,IN_O2S2_(PA1)*
G04 #@! TO.N,PIN41*
X90000010Y71524990D03*
G04 #@! TO.P,M6,S11,IN_O2S_/_CAN_WAKEUP_(PA0)*
G04 #@! TO.N,PIN40*
X88800010Y71524990D03*
G04 #@! TO.P,M6,S12,IN_MAP2_(PC1)*
G04 #@! TO.N,/INTERNAL_MAP*
X87600010Y71524990D03*
G04 #@! TO.P,M6,S13,IN_MAP1_(PC0)*
G04 #@! TO.N,PIN37*
X86400010Y71524990D03*
G04 #@! TO.P,M6,S14,IN_CRANK_(PB1)*
G04 #@! TO.N,PIN84*
X85200010Y71524990D03*
G04 #@! TO.P,M6,S15,IN_KNOCK_(PA2)*
G04 #@! TO.N,/ADC3*
X84000010Y71524990D03*
G04 #@! TO.P,M6,S16,IN_CAM_(PA6)*
G04 #@! TO.N,PIN85*
X82800010Y71524990D03*
G04 #@! TO.P,M6,S17,IN_VSS_(PE11)*
G04 #@! TO.N,PIN42*
X81600010Y71524990D03*
G04 #@! TO.P,M6,S18,IN_TPS_(PA4)*
G04 #@! TO.N,PIN38*
X80400000Y71524990D03*
G04 #@! TO.P,M6,S19,IN_PPS_(PA3)*
G04 #@! TO.N,PIN90*
X79200000Y71524990D03*
G04 #@! TO.P,M6,S20,IN_IAT_(PC3)*
G04 #@! TO.N,PIN63*
X78000000Y71524990D03*
G04 #@! TO.P,M6,S21,IN_CLT_(PC2)*
G04 #@! TO.N,PIN65*
X76800000Y71524990D03*
G04 #@! TO.P,M6,S22,VREF1*
G04 #@! TO.N,/VREF1*
X74400000Y71524990D03*
G04 #@! TO.P,M6,W1,GNDA*
G04 #@! TO.N,PIN113*
X74000000Y74025000D03*
G04 #@! TO.P,M6,W2,V5A_SWITCHABLE*
G04 #@! TO.N,+5VA*
X74000000Y75025000D03*
G04 #@! TO.P,M6,W3,IGN8_(PE6)*
G04 #@! TO.N,/LS_HOT2*
X74000000Y85724990D03*
G04 #@! TO.P,M6,W4,IGN7_(PB9)*
G04 #@! TO.N,/LS_HOT1*
X74000000Y86725000D03*
G04 #@! TO.P,M6,W5,IGN6_(PB8)*
G04 #@! TO.N,/IGN6*
X74000000Y87724990D03*
G04 #@! TO.P,M6,W6,IGN5_(PE2)*
G04 #@! TO.N,/IGN5*
X74000000Y88724990D03*
G04 #@! TO.P,M6,W7,IGN4_(PE3)*
G04 #@! TO.N,/IGN4*
X74000000Y89724990D03*
G04 #@! TO.P,M6,W8,IGN3_(PE4)*
G04 #@! TO.N,/IGN3*
X74000000Y90724990D03*
G04 #@! TO.P,M6,W9,IGN2_(PE5)*
G04 #@! TO.N,/IGN2*
X74000000Y91724990D03*
G04 #@! TO.P,M6,W10,IGN1_(PC13)*
G04 #@! TO.N,/IGN1*
X74000000Y92724990D03*
G04 #@! TO.P,M6,W11,CANH*
G04 #@! TO.N,PIN82*
X74000000Y95324990D03*
G04 #@! TO.P,M6,W12,CANL*
G04 #@! TO.N,PIN83*
X74000000Y96124990D03*
G04 #@! TO.P,M6,W13,V33_REF*
G04 #@! TO.N,N/C*
X74000000Y100825000D03*
G04 #@! TO.P,M6,W14,V5A_SWITCHABLE*
X74000000Y102224990D03*
G04 #@! TD*
G04 #@! TO.P,U8,1,GND*
G04 #@! TO.N,PIN114*
G04 #@! TA.AperFunction,SMDPad,CuDef*
G36*
G01*
X122820005Y58150005D02*
X122520005Y58150005D01*
G75*
G02*
X122370005Y58300005I0J150000D01*
G01*
X122370005Y59950005D01*
G75*
G02*
X122520005Y60100005I150000J0D01*
G01*
X122820005Y60100005D01*
G75*
G02*
X122970005Y59950005I0J-150000D01*
G01*
X122970005Y58300005D01*
G75*
G02*
X122820005Y58150005I-150000J0D01*
G01*
G37*
G04 #@! TD.AperFunction*
G04 #@! TO.P,U8,2,T-*
G04 #@! TO.N,N/C*
G04 #@! TA.AperFunction,SMDPad,CuDef*
G36*
G01*
X124090005Y58150005D02*
X123790005Y58150005D01*
G75*
G02*
X123640005Y58300005I0J150000D01*
G01*
X123640005Y59950005D01*
G75*
G02*
X123790005Y60100005I150000J0D01*
G01*
X124090005Y60100005D01*
G75*
G02*
X124240005Y59950005I0J-150000D01*
G01*
X124240005Y58300005D01*
G75*
G02*
X124090005Y58150005I-150000J0D01*
G01*
G37*
G04 #@! TD.AperFunction*
G04 #@! TO.P,U8,3,T+*
G04 #@! TA.AperFunction,SMDPad,CuDef*
G36*
G01*
X125360005Y58150005D02*
X125060005Y58150005D01*
G75*
G02*
X124910005Y58300005I0J150000D01*
G01*
X124910005Y59950005D01*
G75*
G02*
X125060005Y60100005I150000J0D01*
G01*
X125360005Y60100005D01*
G75*
G02*
X125510005Y59950005I0J-150000D01*
G01*
X125510005Y58300005D01*
G75*
G02*
X125360005Y58150005I-150000J0D01*
G01*
G37*
G04 #@! TD.AperFunction*
G04 #@! TO.P,U8,4,V_CC*
G04 #@! TO.N,+3.3VA*
G04 #@! TA.AperFunction,SMDPad,CuDef*
G36*
G01*
X126630005Y58150005D02*
X126330005Y58150005D01*
G75*
G02*
X126180005Y58300005I0J150000D01*
G01*
X126180005Y59950005D01*
G75*
G02*
X126330005Y60100005I150000J0D01*
G01*
X126630005Y60100005D01*
G75*
G02*
X126780005Y59950005I0J-150000D01*
G01*
X126780005Y58300005D01*
G75*
G02*
X126630005Y58150005I-150000J0D01*
G01*
G37*
G04 #@! TD.AperFunction*
G04 #@! TO.P,U8,5,SCK*
G04 #@! TO.N,/SCK3*
G04 #@! TA.AperFunction,SMDPad,CuDef*
G36*
G01*
X126630005Y63100005D02*
X126330005Y63100005D01*
G75*
G02*
X126180005Y63250005I0J150000D01*
G01*
X126180005Y64900005D01*
G75*
G02*
X126330005Y65050005I150000J0D01*
G01*
X126630005Y65050005D01*
G75*
G02*
X126780005Y64900005I0J-150000D01*
G01*
X126780005Y63250005D01*
G75*
G02*
X126630005Y63100005I-150000J0D01*
G01*
G37*
G04 #@! TD.AperFunction*
G04 #@! TO.P,U8,6,~{CS}*
G04 #@! TO.N,/EGT/SPI_CS*
G04 #@! TA.AperFunction,SMDPad,CuDef*
G36*
G01*
X125360005Y63100005D02*
X125060005Y63100005D01*
G75*
G02*
X124910005Y63250005I0J150000D01*
G01*
X124910005Y64900005D01*
G75*
G02*
X125060005Y65050005I150000J0D01*
G01*
X125360005Y65050005D01*
G75*
G02*
X125510005Y64900005I0J-150000D01*
G01*
X125510005Y63250005D01*
G75*
G02*
X125360005Y63100005I-150000J0D01*
G01*
G37*
G04 #@! TD.AperFunction*
G04 #@! TO.P,U8,7,SO*
G04 #@! TO.N,/MISO3*
G04 #@! TA.AperFunction,SMDPad,CuDef*
G36*
G01*
X124090005Y63100005D02*
X123790005Y63100005D01*
G75*
G02*
X123640005Y63250005I0J150000D01*
G01*
X123640005Y64900005D01*
G75*
G02*
X123790005Y65050005I150000J0D01*
G01*
X124090005Y65050005D01*
G75*
G02*
X124240005Y64900005I0J-150000D01*
G01*
X124240005Y63250005D01*
G75*
G02*
X124090005Y63100005I-150000J0D01*
G01*
G37*
G04 #@! TD.AperFunction*
G04 #@! TO.P,U8,8*
G04 #@! TO.N,N/C*
G04 #@! TA.AperFunction,SMDPad,CuDef*
G36*
G01*
X122820005Y63100005D02*
X122520005Y63100005D01*
G75*
G02*
X122370005Y63250005I0J150000D01*
G01*
X122370005Y64900005D01*
G75*
G02*
X122520005Y65050005I150000J0D01*
G01*
X122820005Y65050005D01*
G75*
G02*
X122970005Y64900005I0J-150000D01*
G01*
X122970005Y63250005D01*
G75*
G02*
X122820005Y63100005I-150000J0D01*
G01*
G37*
G04 #@! TD.AperFunction*
G04 #@! TD*
G04 #@! TO.P,R12,1*
G04 #@! TO.N,PIN113*
G04 #@! TA.AperFunction,SMDPad,CuDef*
G36*
G01*
X64025006Y68225005D02*
X64025006Y66975005D01*
G75*
G02*
X63925006Y66875005I-100000J0D01*
G01*
X63125006Y66875005D01*
G75*
G02*
X63025006Y66975005I0J100000D01*
G01*
X63025006Y68225005D01*
G75*
G02*
X63125006Y68325005I100000J0D01*
G01*
X63925006Y68325005D01*
G75*
G02*
X64025006Y68225005I0J-100000D01*
G01*
G37*
G04 #@! TD.AperFunction*
G04 #@! TO.P,R12,2*
G04 #@! TO.N,PIN89*
G04 #@! TA.AperFunction,SMDPad,CuDef*
G36*
G01*
X62124984Y68225005D02*
X62124984Y66975005D01*
G75*
G02*
X62024984Y66875005I-100000J0D01*
G01*
X61224984Y66875005D01*
G75*
G02*
X61124984Y66975005I0J100000D01*
G01*
X61124984Y68225005D01*
G75*
G02*
X61224984Y68325005I100000J0D01*
G01*
X62024984Y68325005D01*
G75*
G02*
X62124984Y68225005I0J-100000D01*
G01*
G37*
G04 #@! TD.AperFunction*
G04 #@! TD*
G04 #@! TO.P,L2,1,1*
G04 #@! TO.N,PIN22*
G04 #@! TA.AperFunction,SMDPad,CuDef*
G36*
G01*
X125331255Y43875005D02*
X124818755Y43875005D01*
G75*
G02*
X124600005Y44093755I0J218750D01*
G01*
X124600005Y44531255D01*
G75*
G02*
X124818755Y44750005I218750J0D01*
G01*
X125331255Y44750005D01*
G75*
G02*
X125550005Y44531255I0J-218750D01*
G01*
X125550005Y44093755D01*
G75*
G02*
X125331255Y43875005I-218750J0D01*
G01*
G37*
G04 #@! TD.AperFunction*
G04 #@! TO.P,L2,2,2*
G04 #@! TO.N,N/C*
G04 #@! TA.AperFunction,SMDPad,CuDef*
G36*
G01*
X125331255Y45450005D02*
X124818755Y45450005D01*
G75*
G02*
X124600005Y45668755I0J218750D01*
G01*
X124600005Y46106255D01*
G75*
G02*
X124818755Y46325005I218750J0D01*
G01*
X125331255Y46325005D01*
G75*
G02*
X125550005Y46106255I0J-218750D01*
G01*
X125550005Y45668755D01*
G75*
G02*
X125331255Y45450005I-218750J0D01*
G01*
G37*
G04 #@! TD.AperFunction*
G04 #@! TD*
G04 #@! TO.P,U7,1,IN1*
G04 #@! TO.N,Net-(U7-IN1)*
G04 #@! TA.AperFunction,SMDPad,CuDef*
G36*
G01*
X116735005Y64050005D02*
X117035005Y64050005D01*
G75*
G02*
X117185005Y63900005I0J-150000D01*
G01*
X117185005Y62250005D01*
G75*
G02*
X117035005Y62100005I-150000J0D01*
G01*
X116735005Y62100005D01*
G75*
G02*
X116585005Y62250005I0J150000D01*
G01*
X116585005Y63900005D01*
G75*
G02*
X116735005Y64050005I150000J0D01*
G01*
G37*
G04 #@! TD.AperFunction*
G04 #@! TO.P,U7,2,STATUS1*
G04 #@! TO.N,unconnected-(U7-STATUS1-Pad2)*
G04 #@! TA.AperFunction,SMDPad,CuDef*
G36*
G01*
X115465005Y64050005D02*
X115765005Y64050005D01*
G75*
G02*
X115915005Y63900005I0J-150000D01*
G01*
X115915005Y62250005D01*
G75*
G02*
X115765005Y62100005I-150000J0D01*
G01*
X115465005Y62100005D01*
G75*
G02*
X115315005Y62250005I0J150000D01*
G01*
X115315005Y63900005D01*
G75*
G02*
X115465005Y64050005I150000J0D01*
G01*
G37*
G04 #@! TD.AperFunction*
G04 #@! TO.P,U7,3,IN2*
G04 #@! TO.N,Net-(U7-IN2)*
G04 #@! TA.AperFunction,SMDPad,CuDef*
G36*
G01*
X114195005Y64050005D02*
X114495005Y64050005D01*
G75*
G02*
X114645005Y63900005I0J-150000D01*
G01*
X114645005Y62250005D01*
G75*
G02*
X114495005Y62100005I-150000J0D01*
G01*
X114195005Y62100005D01*
G75*
G02*
X114045005Y62250005I0J150000D01*
G01*
X114045005Y63900005D01*
G75*
G02*
X114195005Y64050005I150000J0D01*
G01*
G37*
G04 #@! TD.AperFunction*
G04 #@! TO.P,U7,4,STATUS2*
G04 #@! TO.N,unconnected-(U7-STATUS2-Pad4)*
G04 #@! TA.AperFunction,SMDPad,CuDef*
G36*
G01*
X112925005Y64050005D02*
X113225005Y64050005D01*
G75*
G02*
X113375005Y63900005I0J-150000D01*
G01*
X113375005Y62250005D01*
G75*
G02*
X113225005Y62100005I-150000J0D01*
G01*
X112925005Y62100005D01*
G75*
G02*
X112775005Y62250005I0J150000D01*
G01*
X112775005Y63900005D01*
G75*
G02*
X112925005Y64050005I150000J0D01*
G01*
G37*
G04 #@! TD.AperFunction*
G04 #@! TO.P,U7,5,S2*
G04 #@! TO.N,PIN114*
G04 #@! TA.AperFunction,SMDPad,CuDef*
G36*
G01*
X112925005Y59100005D02*
X113225005Y59100005D01*
G75*
G02*
X113375005Y58950005I0J-150000D01*
G01*
X113375005Y57300005D01*
G75*
G02*
X113225005Y57150005I-150000J0D01*
G01*
X112925005Y57150005D01*
G75*
G02*
X112775005Y57300005I0J150000D01*
G01*
X112775005Y58950005D01*
G75*
G02*
X112925005Y59100005I150000J0D01*
G01*
G37*
G04 #@! TD.AperFunction*
G04 #@! TO.P,U7,6,D2*
G04 #@! TO.N,PIN86*
G04 #@! TA.AperFunction,SMDPad,CuDef*
G36*
G01*
X114195005Y59100005D02*
X114495005Y59100005D01*
G75*
G02*
X114645005Y58950005I0J-150000D01*
G01*
X114645005Y57300005D01*
G75*
G02*
X114495005Y57150005I-150000J0D01*
G01*
X114195005Y57150005D01*
G75*
G02*
X114045005Y57300005I0J150000D01*
G01*
X114045005Y58950005D01*
G75*
G02*
X114195005Y59100005I150000J0D01*
G01*
G37*
G04 #@! TD.AperFunction*
G04 #@! TO.P,U7,7,S1*
G04 #@! TO.N,PIN114*
G04 #@! TA.AperFunction,SMDPad,CuDef*
G36*
G01*
X115465005Y59100005D02*
X115765005Y59100005D01*
G75*
G02*
X115915005Y58950005I0J-150000D01*
G01*
X115915005Y57300005D01*
G75*
G02*
X115765005Y57150005I-150000J0D01*
G01*
X115465005Y57150005D01*
G75*
G02*
X115315005Y57300005I0J150000D01*
G01*
X115315005Y58950005D01*
G75*
G02*
X115465005Y59100005I150000J0D01*
G01*
G37*
G04 #@! TD.AperFunction*
G04 #@! TO.P,U7,8,D1*
G04 #@! TO.N,PIN87*
G04 #@! TA.AperFunction,SMDPad,CuDef*
G36*
G01*
X116735005Y59100005D02*
X117035005Y59100005D01*
G75*
G02*
X117185005Y58950005I0J-150000D01*
G01*
X117185005Y57300005D01*
G75*
G02*
X117035005Y57150005I-150000J0D01*
G01*
X116735005Y57150005D01*
G75*
G02*
X116585005Y57300005I0J150000D01*
G01*
X116585005Y58950005D01*
G75*
G02*
X116735005Y59100005I150000J0D01*
G01*
G37*
G04 #@! TD.AperFunction*
G04 #@! TD*
G04 #@! TO.P,U11,1,IN1*
G04 #@! TO.N,N/C*
G04 #@! TA.AperFunction,SMDPad,CuDef*
G36*
G01*
X141330005Y92550005D02*
X141630005Y92550005D01*
G75*
G02*
X141780005Y92400005I0J-150000D01*
G01*
X141780005Y90750005D01*
G75*
G02*
X141630005Y90600005I-150000J0D01*
G01*
X141330005Y90600005D01*
G75*
G02*
X141180005Y90750005I0J150000D01*
G01*
X141180005Y92400005D01*
G75*
G02*
X141330005Y92550005I150000J0D01*
G01*
G37*
G04 #@! TD.AperFunction*
G04 #@! TO.P,U11,2,STATUS1*
G04 #@! TA.AperFunction,SMDPad,CuDef*
G36*
G01*
X140060005Y92550005D02*
X140360005Y92550005D01*
G75*
G02*
X140510005Y92400005I0J-150000D01*
G01*
X140510005Y90750005D01*
G75*
G02*
X140360005Y90600005I-150000J0D01*
G01*
X140060005Y90600005D01*
G75*
G02*
X139910005Y90750005I0J150000D01*
G01*
X139910005Y92400005D01*
G75*
G02*
X140060005Y92550005I150000J0D01*
G01*
G37*
G04 #@! TD.AperFunction*
G04 #@! TO.P,U11,3,IN2*
G04 #@! TA.AperFunction,SMDPad,CuDef*
G36*
G01*
X138790005Y92550005D02*
X139090005Y92550005D01*
G75*
G02*
X139240005Y92400005I0J-150000D01*
G01*
X139240005Y90750005D01*
G75*
G02*
X139090005Y90600005I-150000J0D01*
G01*
X138790005Y90600005D01*
G75*
G02*
X138640005Y90750005I0J150000D01*
G01*
X138640005Y92400005D01*
G75*
G02*
X138790005Y92550005I150000J0D01*
G01*
G37*
G04 #@! TD.AperFunction*
G04 #@! TO.P,U11,4,STATUS2*
G04 #@! TA.AperFunction,SMDPad,CuDef*
G36*
G01*
X137520005Y92550005D02*
X137820005Y92550005D01*
G75*
G02*
X137970005Y92400005I0J-150000D01*
G01*
X137970005Y90750005D01*
G75*
G02*
X137820005Y90600005I-150000J0D01*
G01*
X137520005Y90600005D01*
G75*
G02*
X137370005Y90750005I0J150000D01*
G01*
X137370005Y92400005D01*
G75*
G02*
X137520005Y92550005I150000J0D01*
G01*
G37*
G04 #@! TD.AperFunction*
G04 #@! TO.P,U11,5,S2*
G04 #@! TO.N,PIN114*
G04 #@! TA.AperFunction,SMDPad,CuDef*
G36*
G01*
X137520005Y87600005D02*
X137820005Y87600005D01*
G75*
G02*
X137970005Y87450005I0J-150000D01*
G01*
X137970005Y85800005D01*
G75*
G02*
X137820005Y85650005I-150000J0D01*
G01*
X137520005Y85650005D01*
G75*
G02*
X137370005Y85800005I0J150000D01*
G01*
X137370005Y87450005D01*
G75*
G02*
X137520005Y87600005I150000J0D01*
G01*
G37*
G04 #@! TD.AperFunction*
G04 #@! TO.P,U11,6,D2*
G04 #@! TO.N,PIN51*
G04 #@! TA.AperFunction,SMDPad,CuDef*
G36*
G01*
X138790005Y87600005D02*
X139090005Y87600005D01*
G75*
G02*
X139240005Y87450005I0J-150000D01*
G01*
X139240005Y85800005D01*
G75*
G02*
X139090005Y85650005I-150000J0D01*
G01*
X138790005Y85650005D01*
G75*
G02*
X138640005Y85800005I0J150000D01*
G01*
X138640005Y87450005D01*
G75*
G02*
X138790005Y87600005I150000J0D01*
G01*
G37*
G04 #@! TD.AperFunction*
G04 #@! TO.P,U11,7,S1*
G04 #@! TO.N,PIN114*
G04 #@! TA.AperFunction,SMDPad,CuDef*
G36*
G01*
X140060005Y87600005D02*
X140360005Y87600005D01*
G75*
G02*
X140510005Y87450005I0J-150000D01*
G01*
X140510005Y85800005D01*
G75*
G02*
X140360005Y85650005I-150000J0D01*
G01*
X140060005Y85650005D01*
G75*
G02*
X139910005Y85800005I0J150000D01*
G01*
X139910005Y87450005D01*
G75*
G02*
X140060005Y87600005I150000J0D01*
G01*
G37*
G04 #@! TD.AperFunction*
G04 #@! TO.P,U11,8,D1*
G04 #@! TO.N,PIN50*
G04 #@! TA.AperFunction,SMDPad,CuDef*
G36*
G01*
X141330005Y87600005D02*
X141630005Y87600005D01*
G75*
G02*
X141780005Y87450005I0J-150000D01*
G01*
X141780005Y85800005D01*
G75*
G02*
X141630005Y85650005I-150000J0D01*
G01*
X141330005Y85650005D01*
G75*
G02*
X141180005Y85800005I0J150000D01*
G01*
X141180005Y87450005D01*
G75*
G02*
X141330005Y87600005I150000J0D01*
G01*
G37*
G04 #@! TD.AperFunction*
G04 #@! TD*
G04 #@! TO.P,R6,1*
G04 #@! TO.N,/VR_DISCRETE_A*
G04 #@! TA.AperFunction,SMDPad,CuDef*
G36*
G01*
X69465005Y60250005D02*
X68685005Y60250005D01*
G75*
G02*
X68615005Y60320005I0J70000D01*
G01*
X68615005Y60880005D01*
G75*
G02*
X68685005Y60950005I70000J0D01*
G01*
X69465005Y60950005D01*
G75*
G02*
X69535005Y60880005I0J-70000D01*
G01*
X69535005Y60320005D01*
G75*
G02*
X69465005Y60250005I-70000J0D01*
G01*
G37*
G04 #@! TD.AperFunction*
G04 #@! TO.P,R6,2*
G04 #@! TO.N,/ADC3*
G04 #@! TA.AperFunction,SMDPad,CuDef*
G36*
G01*
X69465005Y61850005D02*
X68685005Y61850005D01*
G75*
G02*
X68615005Y61920005I0J70000D01*
G01*
X68615005Y62480005D01*
G75*
G02*
X68685005Y62550005I70000J0D01*
G01*
X69465005Y62550005D01*
G75*
G02*
X69535005Y62480005I0J-70000D01*
G01*
X69535005Y61920005D01*
G75*
G02*
X69465005Y61850005I-70000J0D01*
G01*
G37*
G04 #@! TD.AperFunction*
G04 #@! TD*
G04 #@! TO.P,Q5,1,G*
G04 #@! TO.N,Net-(Q5-G)*
G04 #@! TA.AperFunction,SMDPad,CuDef*
G36*
G01*
X114005005Y55175005D02*
X114705005Y55175005D01*
G75*
G02*
X114955005Y54925005I0J-250000D01*
G01*
X114955005Y53225005D01*
G75*
G02*
X114705005Y52975005I-250000J0D01*
G01*
X114005005Y52975005D01*
G75*
G02*
X113755005Y53225005I0J250000D01*
G01*
X113755005Y54925005D01*
G75*
G02*
X114005005Y55175005I250000J0D01*
G01*
G37*
G04 #@! TD.AperFunction*
G04 #@! TO.P,Q5,2,C*
G04 #@! TO.N,PIN11*
G04 #@! TA.AperFunction,SMDPad,CuDef*
G36*
G01*
X112475005Y50975005D02*
X114725005Y50975005D01*
G75*
G02*
X114975005Y50725005I0J-250000D01*
G01*
X114975005Y48175005D01*
G75*
G02*
X114725005Y47925005I-250000J0D01*
G01*
X112475005Y47925005D01*
G75*
G02*
X112225005Y48175005I0J250000D01*
G01*
X112225005Y50725005D01*
G75*
G02*
X112475005Y50975005I250000J0D01*
G01*
G37*
G04 #@! TD.AperFunction*
G04 #@! TA.AperFunction,SMDPad,CuDef*
G36*
G01*
X109425005Y50975005D02*
X111675005Y50975005D01*
G75*
G02*
X111925005Y50725005I0J-250000D01*
G01*
X111925005Y48175005D01*
G75*
G02*
X111675005Y47925005I-250000J0D01*
G01*
X109425005Y47925005D01*
G75*
G02*
X109175005Y48175005I0J250000D01*
G01*
X109175005Y50725005D01*
G75*
G02*
X109425005Y50975005I250000J0D01*
G01*
G37*
G04 #@! TD.AperFunction*
G04 #@! TA.AperFunction,SMDPad,CuDef*
G36*
G01*
X109425002Y50975005D02*
X114725008Y50975005D01*
G75*
G02*
X114975005Y50725008I0J-249997D01*
G01*
X114975005Y44825002D01*
G75*
G02*
X114725008Y44575005I-249997J0D01*
G01*
X109425002Y44575005D01*
G75*
G02*
X109175005Y44825002I0J249997D01*
G01*
X109175005Y50725008D01*
G75*
G02*
X109425002Y50975005I249997J0D01*
G01*
G37*
G04 #@! TD.AperFunction*
G04 #@! TA.AperFunction,SMDPad,CuDef*
G36*
G01*
X112475005Y47625005D02*
X114725005Y47625005D01*
G75*
G02*
X114975005Y47375005I0J-250000D01*
G01*
X114975005Y44825005D01*
G75*
G02*
X114725005Y44575005I-250000J0D01*
G01*
X112475005Y44575005D01*
G75*
G02*
X112225005Y44825005I0J250000D01*
G01*
X112225005Y47375005D01*
G75*
G02*
X112475005Y47625005I250000J0D01*
G01*
G37*
G04 #@! TD.AperFunction*
G04 #@! TA.AperFunction,SMDPad,CuDef*
G36*
G01*
X109425005Y47625005D02*
X111675005Y47625005D01*
G75*
G02*
X111925005Y47375005I0J-250000D01*
G01*
X111925005Y44825005D01*
G75*
G02*
X111675005Y44575005I-250000J0D01*
G01*
X109425005Y44575005D01*
G75*
G02*
X109175005Y44825005I0J250000D01*
G01*
X109175005Y47375005D01*
G75*
G02*
X109425005Y47625005I250000J0D01*
G01*
G37*
G04 #@! TD.AperFunction*
G04 #@! TO.P,Q5,3,E*
G04 #@! TO.N,PIN114*
G04 #@! TA.AperFunction,SMDPad,CuDef*
G36*
G01*
X109445005Y55175005D02*
X110145005Y55175005D01*
G75*
G02*
X110395005Y54925005I0J-250000D01*
G01*
X110395005Y53225005D01*
G75*
G02*
X110145005Y52975005I-250000J0D01*
G01*
X109445005Y52975005D01*
G75*
G02*
X109195005Y53225005I0J250000D01*
G01*
X109195005Y54925005D01*
G75*
G02*
X109445005Y55175005I250000J0D01*
G01*
G37*
G04 #@! TD.AperFunction*
G04 #@! TD*
D36*
G04 #@! TO.P,F3,1,1*
G04 #@! TO.N,PIN120*
X45125005Y68100005D03*
G04 #@! TA.AperFunction,SMDPad,CuDef*
G36*
G01*
X46469995Y67200005D02*
X45779995Y67200005D01*
G75*
G02*
X45549995Y67430005I0J230000D01*
G01*
X45549995Y68770005D01*
G75*
G02*
X45779995Y69000005I230000J0D01*
G01*
X46469995Y69000005D01*
G75*
G02*
X46699995Y68770005I0J-230000D01*
G01*
X46699995Y67430005D01*
G75*
G02*
X46469995Y67200005I-230000J0D01*
G01*
G37*
G04 #@! TD.AperFunction*
G04 #@! TO.P,F3,2,2*
G04 #@! TO.N,Net-(F3-Pad2)*
G04 #@! TA.AperFunction,SMDPad,CuDef*
G36*
G01*
X49370015Y67200005D02*
X48680015Y67200005D01*
G75*
G02*
X48450015Y67430005I0J230000D01*
G01*
X48450015Y68770005D01*
G75*
G02*
X48680015Y69000005I230000J0D01*
G01*
X49370015Y69000005D01*
G75*
G02*
X49600015Y68770005I0J-230000D01*
G01*
X49600015Y67430005D01*
G75*
G02*
X49370015Y67200005I-230000J0D01*
G01*
G37*
G04 #@! TD.AperFunction*
X50025005Y68100005D03*
G04 #@! TD*
G04 #@! TO.P,R54,1*
G04 #@! TO.N,N/C*
G04 #@! TA.AperFunction,SMDPad,CuDef*
G36*
G01*
X17465005Y41450005D02*
X16685005Y41450005D01*
G75*
G02*
X16615005Y41520005I0J70000D01*
G01*
X16615005Y42080005D01*
G75*
G02*
X16685005Y42150005I70000J0D01*
G01*
X17465005Y42150005D01*
G75*
G02*
X17535005Y42080005I0J-70000D01*
G01*
X17535005Y41520005D01*
G75*
G02*
X17465005Y41450005I-70000J0D01*
G01*
G37*
G04 #@! TD.AperFunction*
G04 #@! TO.P,R54,2*
G04 #@! TO.N,PIN114*
G04 #@! TA.AperFunction,SMDPad,CuDef*
G36*
G01*
X17465005Y43050005D02*
X16685005Y43050005D01*
G75*
G02*
X16615005Y43120005I0J70000D01*
G01*
X16615005Y43680005D01*
G75*
G02*
X16685005Y43750005I70000J0D01*
G01*
X17465005Y43750005D01*
G75*
G02*
X17535005Y43680005I0J-70000D01*
G01*
X17535005Y43120005D01*
G75*
G02*
X17465005Y43050005I-70000J0D01*
G01*
G37*
G04 #@! TD.AperFunction*
G04 #@! TD*
G04 #@! TO.P,C32,1*
G04 #@! TO.N,PIN114*
G04 #@! TA.AperFunction,SMDPad,CuDef*
G36*
G01*
X129735005Y61315006D02*
X130415005Y61315006D01*
G75*
G02*
X130500005Y61230006I0J-85000D01*
G01*
X130500005Y60550006D01*
G75*
G02*
X130415005Y60465006I-85000J0D01*
G01*
X129735005Y60465006D01*
G75*
G02*
X129650005Y60550006I0J85000D01*
G01*
X129650005Y61230006D01*
G75*
G02*
X129735005Y61315006I85000J0D01*
G01*
G37*
G04 #@! TD.AperFunction*
G04 #@! TO.P,C32,2*
G04 #@! TO.N,+3.3VA*
G04 #@! TA.AperFunction,SMDPad,CuDef*
G36*
G01*
X129735005Y59735004D02*
X130415005Y59735004D01*
G75*
G02*
X130500005Y59650004I0J-85000D01*
G01*
X130500005Y58970004D01*
G75*
G02*
X130415005Y58885004I-85000J0D01*
G01*
X129735005Y58885004D01*
G75*
G02*
X129650005Y58970004I0J85000D01*
G01*
X129650005Y59650004D01*
G75*
G02*
X129735005Y59735004I85000J0D01*
G01*
G37*
G04 #@! TD.AperFunction*
G04 #@! TD*
G04 #@! TO.P,R7,1*
G04 #@! TO.N,PIN84*
G04 #@! TA.AperFunction,SMDPad,CuDef*
G36*
G01*
X60525006Y62225005D02*
X60525006Y60975005D01*
G75*
G02*
X60425006Y60875005I-100000J0D01*
G01*
X59625006Y60875005D01*
G75*
G02*
X59525006Y60975005I0J100000D01*
G01*
X59525006Y62225005D01*
G75*
G02*
X59625006Y62325005I100000J0D01*
G01*
X60425006Y62325005D01*
G75*
G02*
X60525006Y62225005I0J-100000D01*
G01*
G37*
G04 #@! TD.AperFunction*
G04 #@! TO.P,R7,2*
G04 #@! TO.N,+5VA*
G04 #@! TA.AperFunction,SMDPad,CuDef*
G36*
G01*
X58624984Y62225005D02*
X58624984Y60975005D01*
G75*
G02*
X58524984Y60875005I-100000J0D01*
G01*
X57724984Y60875005D01*
G75*
G02*
X57624984Y60975005I0J100000D01*
G01*
X57624984Y62225005D01*
G75*
G02*
X57724984Y62325005I100000J0D01*
G01*
X58524984Y62325005D01*
G75*
G02*
X58624984Y62225005I0J-100000D01*
G01*
G37*
G04 #@! TD.AperFunction*
G04 #@! TD*
G04 #@! TO.P,Q2,1,G*
G04 #@! TO.N,Net-(Q2-G)*
G04 #@! TA.AperFunction,SMDPad,CuDef*
G36*
G01*
X89420005Y55175005D02*
X90120005Y55175005D01*
G75*
G02*
X90370005Y54925005I0J-250000D01*
G01*
X90370005Y53225005D01*
G75*
G02*
X90120005Y52975005I-250000J0D01*
G01*
X89420005Y52975005D01*
G75*
G02*
X89170005Y53225005I0J250000D01*
G01*
X89170005Y54925005D01*
G75*
G02*
X89420005Y55175005I250000J0D01*
G01*
G37*
G04 #@! TD.AperFunction*
G04 #@! TO.P,Q2,2,C*
G04 #@! TO.N,PIN12*
G04 #@! TA.AperFunction,SMDPad,CuDef*
G36*
G01*
X87890005Y50975005D02*
X90140005Y50975005D01*
G75*
G02*
X90390005Y50725005I0J-250000D01*
G01*
X90390005Y48175005D01*
G75*
G02*
X90140005Y47925005I-250000J0D01*
G01*
X87890005Y47925005D01*
G75*
G02*
X87640005Y48175005I0J250000D01*
G01*
X87640005Y50725005D01*
G75*
G02*
X87890005Y50975005I250000J0D01*
G01*
G37*
G04 #@! TD.AperFunction*
G04 #@! TA.AperFunction,SMDPad,CuDef*
G36*
G01*
X84840005Y50975005D02*
X87090005Y50975005D01*
G75*
G02*
X87340005Y50725005I0J-250000D01*
G01*
X87340005Y48175005D01*
G75*
G02*
X87090005Y47925005I-250000J0D01*
G01*
X84840005Y47925005D01*
G75*
G02*
X84590005Y48175005I0J250000D01*
G01*
X84590005Y50725005D01*
G75*
G02*
X84840005Y50975005I250000J0D01*
G01*
G37*
G04 #@! TD.AperFunction*
G04 #@! TA.AperFunction,SMDPad,CuDef*
G36*
G01*
X84840002Y50975005D02*
X90140008Y50975005D01*
G75*
G02*
X90390005Y50725008I0J-249997D01*
G01*
X90390005Y44825002D01*
G75*
G02*
X90140008Y44575005I-249997J0D01*
G01*
X84840002Y44575005D01*
G75*
G02*
X84590005Y44825002I0J249997D01*
G01*
X84590005Y50725008D01*
G75*
G02*
X84840002Y50975005I249997J0D01*
G01*
G37*
G04 #@! TD.AperFunction*
G04 #@! TA.AperFunction,SMDPad,CuDef*
G36*
G01*
X87890005Y47625005D02*
X90140005Y47625005D01*
G75*
G02*
X90390005Y47375005I0J-250000D01*
G01*
X90390005Y44825005D01*
G75*
G02*
X90140005Y44575005I-250000J0D01*
G01*
X87890005Y44575005D01*
G75*
G02*
X87640005Y44825005I0J250000D01*
G01*
X87640005Y47375005D01*
G75*
G02*
X87890005Y47625005I250000J0D01*
G01*
G37*
G04 #@! TD.AperFunction*
G04 #@! TA.AperFunction,SMDPad,CuDef*
G36*
G01*
X84840005Y47625005D02*
X87090005Y47625005D01*
G75*
G02*
X87340005Y47375005I0J-250000D01*
G01*
X87340005Y44825005D01*
G75*
G02*
X87090005Y44575005I-250000J0D01*
G01*
X84840005Y44575005D01*
G75*
G02*
X84590005Y44825005I0J250000D01*
G01*
X84590005Y47375005D01*
G75*
G02*
X84840005Y47625005I250000J0D01*
G01*
G37*
G04 #@! TD.AperFunction*
G04 #@! TO.P,Q2,3,E*
G04 #@! TO.N,PIN114*
G04 #@! TA.AperFunction,SMDPad,CuDef*
G36*
G01*
X84860005Y55175005D02*
X85560005Y55175005D01*
G75*
G02*
X85810005Y54925005I0J-250000D01*
G01*
X85810005Y53225005D01*
G75*
G02*
X85560005Y52975005I-250000J0D01*
G01*
X84860005Y52975005D01*
G75*
G02*
X84610005Y53225005I0J250000D01*
G01*
X84610005Y54925005D01*
G75*
G02*
X84860005Y55175005I250000J0D01*
G01*
G37*
G04 #@! TD.AperFunction*
G04 #@! TD*
G04 #@! TO.P,Q3,1,G*
G04 #@! TO.N,Net-(Q3-G)*
G04 #@! TA.AperFunction,SMDPad,CuDef*
G36*
G01*
X97615005Y55175005D02*
X98315005Y55175005D01*
G75*
G02*
X98565005Y54925005I0J-250000D01*
G01*
X98565005Y53225005D01*
G75*
G02*
X98315005Y52975005I-250000J0D01*
G01*
X97615005Y52975005D01*
G75*
G02*
X97365005Y53225005I0J250000D01*
G01*
X97365005Y54925005D01*
G75*
G02*
X97615005Y55175005I250000J0D01*
G01*
G37*
G04 #@! TD.AperFunction*
G04 #@! TO.P,Q3,2,C*
G04 #@! TO.N,PIN10*
G04 #@! TA.AperFunction,SMDPad,CuDef*
G36*
G01*
X96085005Y50975005D02*
X98335005Y50975005D01*
G75*
G02*
X98585005Y50725005I0J-250000D01*
G01*
X98585005Y48175005D01*
G75*
G02*
X98335005Y47925005I-250000J0D01*
G01*
X96085005Y47925005D01*
G75*
G02*
X95835005Y48175005I0J250000D01*
G01*
X95835005Y50725005D01*
G75*
G02*
X96085005Y50975005I250000J0D01*
G01*
G37*
G04 #@! TD.AperFunction*
G04 #@! TA.AperFunction,SMDPad,CuDef*
G36*
G01*
X93035005Y50975005D02*
X95285005Y50975005D01*
G75*
G02*
X95535005Y50725005I0J-250000D01*
G01*
X95535005Y48175005D01*
G75*
G02*
X95285005Y47925005I-250000J0D01*
G01*
X93035005Y47925005D01*
G75*
G02*
X92785005Y48175005I0J250000D01*
G01*
X92785005Y50725005D01*
G75*
G02*
X93035005Y50975005I250000J0D01*
G01*
G37*
G04 #@! TD.AperFunction*
G04 #@! TA.AperFunction,SMDPad,CuDef*
G36*
G01*
X93035002Y50975005D02*
X98335008Y50975005D01*
G75*
G02*
X98585005Y50725008I0J-249997D01*
G01*
X98585005Y44825002D01*
G75*
G02*
X98335008Y44575005I-249997J0D01*
G01*
X93035002Y44575005D01*
G75*
G02*
X92785005Y44825002I0J249997D01*
G01*
X92785005Y50725008D01*
G75*
G02*
X93035002Y50975005I249997J0D01*
G01*
G37*
G04 #@! TD.AperFunction*
G04 #@! TA.AperFunction,SMDPad,CuDef*
G36*
G01*
X96085005Y47625005D02*
X98335005Y47625005D01*
G75*
G02*
X98585005Y47375005I0J-250000D01*
G01*
X98585005Y44825005D01*
G75*
G02*
X98335005Y44575005I-250000J0D01*
G01*
X96085005Y44575005D01*
G75*
G02*
X95835005Y44825005I0J250000D01*
G01*
X95835005Y47375005D01*
G75*
G02*
X96085005Y47625005I250000J0D01*
G01*
G37*
G04 #@! TD.AperFunction*
G04 #@! TA.AperFunction,SMDPad,CuDef*
G36*
G01*
X93035005Y47625005D02*
X95285005Y47625005D01*
G75*
G02*
X95535005Y47375005I0J-250000D01*
G01*
X95535005Y44825005D01*
G75*
G02*
X95285005Y44575005I-250000J0D01*
G01*
X93035005Y44575005D01*
G75*
G02*
X92785005Y44825005I0J250000D01*
G01*
X92785005Y47375005D01*
G75*
G02*
X93035005Y47625005I250000J0D01*
G01*
G37*
G04 #@! TD.AperFunction*
G04 #@! TO.P,Q3,3,E*
G04 #@! TO.N,PIN114*
G04 #@! TA.AperFunction,SMDPad,CuDef*
G36*
G01*
X93055005Y55175005D02*
X93755005Y55175005D01*
G75*
G02*
X94005005Y54925005I0J-250000D01*
G01*
X94005005Y53225005D01*
G75*
G02*
X93755005Y52975005I-250000J0D01*
G01*
X93055005Y52975005D01*
G75*
G02*
X92805005Y53225005I0J250000D01*
G01*
X92805005Y54925005D01*
G75*
G02*
X93055005Y55175005I250000J0D01*
G01*
G37*
G04 #@! TD.AperFunction*
G04 #@! TD*
G04 #@! TO.P,U3,1,IN1*
G04 #@! TO.N,Net-(U3-IN1)*
G04 #@! TA.AperFunction,SMDPad,CuDef*
G36*
G01*
X88330005Y64050005D02*
X88630005Y64050005D01*
G75*
G02*
X88780005Y63900005I0J-150000D01*
G01*
X88780005Y62250005D01*
G75*
G02*
X88630005Y62100005I-150000J0D01*
G01*
X88330005Y62100005D01*
G75*
G02*
X88180005Y62250005I0J150000D01*
G01*
X88180005Y63900005D01*
G75*
G02*
X88330005Y64050005I150000J0D01*
G01*
G37*
G04 #@! TD.AperFunction*
G04 #@! TO.P,U3,2,STATUS1*
G04 #@! TO.N,unconnected-(U3-STATUS1-Pad2)*
G04 #@! TA.AperFunction,SMDPad,CuDef*
G36*
G01*
X87060005Y64050005D02*
X87360005Y64050005D01*
G75*
G02*
X87510005Y63900005I0J-150000D01*
G01*
X87510005Y62250005D01*
G75*
G02*
X87360005Y62100005I-150000J0D01*
G01*
X87060005Y62100005D01*
G75*
G02*
X86910005Y62250005I0J150000D01*
G01*
X86910005Y63900005D01*
G75*
G02*
X87060005Y64050005I150000J0D01*
G01*
G37*
G04 #@! TD.AperFunction*
G04 #@! TO.P,U3,3,IN2*
G04 #@! TO.N,Net-(U3-IN2)*
G04 #@! TA.AperFunction,SMDPad,CuDef*
G36*
G01*
X85790005Y64050005D02*
X86090005Y64050005D01*
G75*
G02*
X86240005Y63900005I0J-150000D01*
G01*
X86240005Y62250005D01*
G75*
G02*
X86090005Y62100005I-150000J0D01*
G01*
X85790005Y62100005D01*
G75*
G02*
X85640005Y62250005I0J150000D01*
G01*
X85640005Y63900005D01*
G75*
G02*
X85790005Y64050005I150000J0D01*
G01*
G37*
G04 #@! TD.AperFunction*
G04 #@! TO.P,U3,4,STATUS2*
G04 #@! TO.N,unconnected-(U3-STATUS2-Pad4)*
G04 #@! TA.AperFunction,SMDPad,CuDef*
G36*
G01*
X84520005Y64050005D02*
X84820005Y64050005D01*
G75*
G02*
X84970005Y63900005I0J-150000D01*
G01*
X84970005Y62250005D01*
G75*
G02*
X84820005Y62100005I-150000J0D01*
G01*
X84520005Y62100005D01*
G75*
G02*
X84370005Y62250005I0J150000D01*
G01*
X84370005Y63900005D01*
G75*
G02*
X84520005Y64050005I150000J0D01*
G01*
G37*
G04 #@! TD.AperFunction*
G04 #@! TO.P,U3,5,S2*
G04 #@! TO.N,PIN114*
G04 #@! TA.AperFunction,SMDPad,CuDef*
G36*
G01*
X84520005Y59100005D02*
X84820005Y59100005D01*
G75*
G02*
X84970005Y58950005I0J-150000D01*
G01*
X84970005Y57300005D01*
G75*
G02*
X84820005Y57150005I-150000J0D01*
G01*
X84520005Y57150005D01*
G75*
G02*
X84370005Y57300005I0J150000D01*
G01*
X84370005Y58950005D01*
G75*
G02*
X84520005Y59100005I150000J0D01*
G01*
G37*
G04 #@! TD.AperFunction*
G04 #@! TO.P,U3,6,D2*
G04 #@! TO.N,PIN15*
G04 #@! TA.AperFunction,SMDPad,CuDef*
G36*
G01*
X85790005Y59100005D02*
X86090005Y59100005D01*
G75*
G02*
X86240005Y58950005I0J-150000D01*
G01*
X86240005Y57300005D01*
G75*
G02*
X86090005Y57150005I-150000J0D01*
G01*
X85790005Y57150005D01*
G75*
G02*
X85640005Y57300005I0J150000D01*
G01*
X85640005Y58950005D01*
G75*
G02*
X85790005Y59100005I150000J0D01*
G01*
G37*
G04 #@! TD.AperFunction*
G04 #@! TO.P,U3,7,S1*
G04 #@! TO.N,PIN114*
G04 #@! TA.AperFunction,SMDPad,CuDef*
G36*
G01*
X87060005Y59100005D02*
X87360005Y59100005D01*
G75*
G02*
X87510005Y58950005I0J-150000D01*
G01*
X87510005Y57300005D01*
G75*
G02*
X87360005Y57150005I-150000J0D01*
G01*
X87060005Y57150005D01*
G75*
G02*
X86910005Y57300005I0J150000D01*
G01*
X86910005Y58950005D01*
G75*
G02*
X87060005Y59100005I150000J0D01*
G01*
G37*
G04 #@! TD.AperFunction*
G04 #@! TO.P,U3,8,D1*
G04 #@! TO.N,PIN14*
G04 #@! TA.AperFunction,SMDPad,CuDef*
G36*
G01*
X88330005Y59100005D02*
X88630005Y59100005D01*
G75*
G02*
X88780005Y58950005I0J-150000D01*
G01*
X88780005Y57300005D01*
G75*
G02*
X88630005Y57150005I-150000J0D01*
G01*
X88330005Y57150005D01*
G75*
G02*
X88180005Y57300005I0J150000D01*
G01*
X88180005Y58950005D01*
G75*
G02*
X88330005Y59100005I150000J0D01*
G01*
G37*
G04 #@! TD.AperFunction*
G04 #@! TD*
G04 #@! TO.P,U9,1,IN1*
G04 #@! TO.N,N/C*
G04 #@! TA.AperFunction,SMDPad,CuDef*
G36*
G01*
X80830005Y64050005D02*
X81130005Y64050005D01*
G75*
G02*
X81280005Y63900005I0J-150000D01*
G01*
X81280005Y62250005D01*
G75*
G02*
X81130005Y62100005I-150000J0D01*
G01*
X80830005Y62100005D01*
G75*
G02*
X80680005Y62250005I0J150000D01*
G01*
X80680005Y63900005D01*
G75*
G02*
X80830005Y64050005I150000J0D01*
G01*
G37*
G04 #@! TD.AperFunction*
G04 #@! TO.P,U9,2,STATUS1*
G04 #@! TA.AperFunction,SMDPad,CuDef*
G36*
G01*
X79560005Y64050005D02*
X79860005Y64050005D01*
G75*
G02*
X80010005Y63900005I0J-150000D01*
G01*
X80010005Y62250005D01*
G75*
G02*
X79860005Y62100005I-150000J0D01*
G01*
X79560005Y62100005D01*
G75*
G02*
X79410005Y62250005I0J150000D01*
G01*
X79410005Y63900005D01*
G75*
G02*
X79560005Y64050005I150000J0D01*
G01*
G37*
G04 #@! TD.AperFunction*
G04 #@! TO.P,U9,3,IN2*
G04 #@! TA.AperFunction,SMDPad,CuDef*
G36*
G01*
X78290005Y64050005D02*
X78590005Y64050005D01*
G75*
G02*
X78740005Y63900005I0J-150000D01*
G01*
X78740005Y62250005D01*
G75*
G02*
X78590005Y62100005I-150000J0D01*
G01*
X78290005Y62100005D01*
G75*
G02*
X78140005Y62250005I0J150000D01*
G01*
X78140005Y63900005D01*
G75*
G02*
X78290005Y64050005I150000J0D01*
G01*
G37*
G04 #@! TD.AperFunction*
G04 #@! TO.P,U9,4,STATUS2*
G04 #@! TA.AperFunction,SMDPad,CuDef*
G36*
G01*
X77020005Y64050005D02*
X77320005Y64050005D01*
G75*
G02*
X77470005Y63900005I0J-150000D01*
G01*
X77470005Y62250005D01*
G75*
G02*
X77320005Y62100005I-150000J0D01*
G01*
X77020005Y62100005D01*
G75*
G02*
X76870005Y62250005I0J150000D01*
G01*
X76870005Y63900005D01*
G75*
G02*
X77020005Y64050005I150000J0D01*
G01*
G37*
G04 #@! TD.AperFunction*
G04 #@! TO.P,U9,5,S2*
G04 #@! TO.N,PIN114*
G04 #@! TA.AperFunction,SMDPad,CuDef*
G36*
G01*
X77020005Y59100005D02*
X77320005Y59100005D01*
G75*
G02*
X77470005Y58950005I0J-150000D01*
G01*
X77470005Y57300005D01*
G75*
G02*
X77320005Y57150005I-150000J0D01*
G01*
X77020005Y57150005D01*
G75*
G02*
X76870005Y57300005I0J150000D01*
G01*
X76870005Y58950005D01*
G75*
G02*
X77020005Y59100005I150000J0D01*
G01*
G37*
G04 #@! TD.AperFunction*
G04 #@! TO.P,U9,6,D2*
G04 #@! TO.N,PIN88*
G04 #@! TA.AperFunction,SMDPad,CuDef*
G36*
G01*
X78290005Y59100005D02*
X78590005Y59100005D01*
G75*
G02*
X78740005Y58950005I0J-150000D01*
G01*
X78740005Y57300005D01*
G75*
G02*
X78590005Y57150005I-150000J0D01*
G01*
X78290005Y57150005D01*
G75*
G02*
X78140005Y57300005I0J150000D01*
G01*
X78140005Y58950005D01*
G75*
G02*
X78290005Y59100005I150000J0D01*
G01*
G37*
G04 #@! TD.AperFunction*
G04 #@! TO.P,U9,7,S1*
G04 #@! TO.N,PIN114*
G04 #@! TA.AperFunction,SMDPad,CuDef*
G36*
G01*
X79560005Y59100005D02*
X79860005Y59100005D01*
G75*
G02*
X80010005Y58950005I0J-150000D01*
G01*
X80010005Y57300005D01*
G75*
G02*
X79860005Y57150005I-150000J0D01*
G01*
X79560005Y57150005D01*
G75*
G02*
X79410005Y57300005I0J150000D01*
G01*
X79410005Y58950005D01*
G75*
G02*
X79560005Y59100005I150000J0D01*
G01*
G37*
G04 #@! TD.AperFunction*
G04 #@! TO.P,U9,8,D1*
G04 #@! TO.N,PIN16*
G04 #@! TA.AperFunction,SMDPad,CuDef*
G36*
G01*
X80830005Y59100005D02*
X81130005Y59100005D01*
G75*
G02*
X81280005Y58950005I0J-150000D01*
G01*
X81280005Y57300005D01*
G75*
G02*
X81130005Y57150005I-150000J0D01*
G01*
X80830005Y57150005D01*
G75*
G02*
X80680005Y57300005I0J150000D01*
G01*
X80680005Y58950005D01*
G75*
G02*
X80830005Y59100005I150000J0D01*
G01*
G37*
G04 #@! TD.AperFunction*
G04 #@! TD*
G04 #@! TO.P,Q6,1,G*
G04 #@! TO.N,Net-(Q6-G)*
G04 #@! TA.AperFunction,SMDPad,CuDef*
G36*
G01*
X122200005Y55175005D02*
X122900005Y55175005D01*
G75*
G02*
X123150005Y54925005I0J-250000D01*
G01*
X123150005Y53225005D01*
G75*
G02*
X122900005Y52975005I-250000J0D01*
G01*
X122200005Y52975005D01*
G75*
G02*
X121950005Y53225005I0J250000D01*
G01*
X121950005Y54925005D01*
G75*
G02*
X122200005Y55175005I250000J0D01*
G01*
G37*
G04 #@! TD.AperFunction*
G04 #@! TO.P,Q6,2,C*
G04 #@! TO.N,PIN8*
G04 #@! TA.AperFunction,SMDPad,CuDef*
G36*
G01*
X120670005Y50975005D02*
X122920005Y50975005D01*
G75*
G02*
X123170005Y50725005I0J-250000D01*
G01*
X123170005Y48175005D01*
G75*
G02*
X122920005Y47925005I-250000J0D01*
G01*
X120670005Y47925005D01*
G75*
G02*
X120420005Y48175005I0J250000D01*
G01*
X120420005Y50725005D01*
G75*
G02*
X120670005Y50975005I250000J0D01*
G01*
G37*
G04 #@! TD.AperFunction*
G04 #@! TA.AperFunction,SMDPad,CuDef*
G36*
G01*
X117620005Y50975005D02*
X119870005Y50975005D01*
G75*
G02*
X120120005Y50725005I0J-250000D01*
G01*
X120120005Y48175005D01*
G75*
G02*
X119870005Y47925005I-250000J0D01*
G01*
X117620005Y47925005D01*
G75*
G02*
X117370005Y48175005I0J250000D01*
G01*
X117370005Y50725005D01*
G75*
G02*
X117620005Y50975005I250000J0D01*
G01*
G37*
G04 #@! TD.AperFunction*
G04 #@! TA.AperFunction,SMDPad,CuDef*
G36*
G01*
X117620002Y50975005D02*
X122920008Y50975005D01*
G75*
G02*
X123170005Y50725008I0J-249997D01*
G01*
X123170005Y44825002D01*
G75*
G02*
X122920008Y44575005I-249997J0D01*
G01*
X117620002Y44575005D01*
G75*
G02*
X117370005Y44825002I0J249997D01*
G01*
X117370005Y50725008D01*
G75*
G02*
X117620002Y50975005I249997J0D01*
G01*
G37*
G04 #@! TD.AperFunction*
G04 #@! TA.AperFunction,SMDPad,CuDef*
G36*
G01*
X120670005Y47625005D02*
X122920005Y47625005D01*
G75*
G02*
X123170005Y47375005I0J-250000D01*
G01*
X123170005Y44825005D01*
G75*
G02*
X122920005Y44575005I-250000J0D01*
G01*
X120670005Y44575005D01*
G75*
G02*
X120420005Y44825005I0J250000D01*
G01*
X120420005Y47375005D01*
G75*
G02*
X120670005Y47625005I250000J0D01*
G01*
G37*
G04 #@! TD.AperFunction*
G04 #@! TA.AperFunction,SMDPad,CuDef*
G36*
G01*
X117620005Y47625005D02*
X119870005Y47625005D01*
G75*
G02*
X120120005Y47375005I0J-250000D01*
G01*
X120120005Y44825005D01*
G75*
G02*
X119870005Y44575005I-250000J0D01*
G01*
X117620005Y44575005D01*
G75*
G02*
X117370005Y44825005I0J250000D01*
G01*
X117370005Y47375005D01*
G75*
G02*
X117620005Y47625005I250000J0D01*
G01*
G37*
G04 #@! TD.AperFunction*
G04 #@! TO.P,Q6,3,E*
G04 #@! TO.N,PIN114*
G04 #@! TA.AperFunction,SMDPad,CuDef*
G36*
G01*
X117640005Y55175005D02*
X118340005Y55175005D01*
G75*
G02*
X118590005Y54925005I0J-250000D01*
G01*
X118590005Y53225005D01*
G75*
G02*
X118340005Y52975005I-250000J0D01*
G01*
X117640005Y52975005D01*
G75*
G02*
X117390005Y53225005I0J250000D01*
G01*
X117390005Y54925005D01*
G75*
G02*
X117640005Y55175005I250000J0D01*
G01*
G37*
G04 #@! TD.AperFunction*
G04 #@! TD*
D37*
G04 #@! TO.P,M5,E1,LSU_Un*
G04 #@! TO.N,PIN105*
X28300005Y43675005D03*
G04 #@! TO.P,M5,E2,LSU_Vm*
G04 #@! TO.N,PIN104*
X31300005Y43675005D03*
G04 #@! TO.P,M5,E3,LSU_Ip*
G04 #@! TO.N,PIN103*
X30300005Y43675005D03*
G04 #@! TO.P,M5,E4,LSU_Rtrim*
G04 #@! TO.N,PIN102*
X29300005Y43675005D03*
D38*
G04 #@! TO.P,M5,E5,LSU_H+*
G04 #@! TO.N,PIN119*
X33450005Y44925005D03*
D39*
G04 #@! TO.P,M5,E6,LSU_H-*
G04 #@! TO.N,PIN114*
X36950005Y43300005D03*
D40*
G04 #@! TO.P,M5,G,GND*
X40150005Y70650005D03*
D41*
X35810005Y70650005D03*
X32510005Y70650005D03*
D42*
X27425005Y70650005D03*
D43*
X40575005Y56975005D03*
X26825005Y56975005D03*
D44*
X39725005Y43300005D03*
D45*
X27175005Y43300005D03*
G04 #@! TO.P,M5,J1,SEL1*
G04 #@! TO.N,N/C*
G04 #@! TA.AperFunction,SMDPad,CuDef*
G36*
G01*
X39550005Y61225005D02*
X38300005Y61225005D01*
G75*
G02*
X38175005Y61350005I0J125000D01*
G01*
X38175005Y61600005D01*
G75*
G02*
X38300005Y61725005I125000J0D01*
G01*
X39550005Y61725005D01*
G75*
G02*
X39675005Y61600005I0J-125000D01*
G01*
X39675005Y61350005D01*
G75*
G02*
X39550005Y61225005I-125000J0D01*
G01*
G37*
G04 #@! TD.AperFunction*
G04 #@! TO.P,M5,J2,SEL2*
G04 #@! TA.AperFunction,SMDPad,CuDef*
G36*
G01*
X36875005Y62900005D02*
X36625005Y62900005D01*
G75*
G02*
X36500005Y63025005I0J125000D01*
G01*
X36500005Y64275005D01*
G75*
G02*
X36625005Y64400005I125000J0D01*
G01*
X36875005Y64400005D01*
G75*
G02*
X37000005Y64275005I0J-125000D01*
G01*
X37000005Y63025005D01*
G75*
G02*
X36875005Y62900005I-125000J0D01*
G01*
G37*
G04 #@! TD.AperFunction*
G04 #@! TO.P,M5,J_GND1,PULL_DOWN1*
G04 #@! TA.AperFunction,SMDPad,CuDef*
G36*
G01*
X39550005Y62025005D02*
X38300005Y62025005D01*
G75*
G02*
X38175005Y62150005I0J125000D01*
G01*
X38175005Y62400005D01*
G75*
G02*
X38300005Y62525005I125000J0D01*
G01*
X39550005Y62525005D01*
G75*
G02*
X39675005Y62400005I0J-125000D01*
G01*
X39675005Y62150005D01*
G75*
G02*
X39550005Y62025005I-125000J0D01*
G01*
G37*
G04 #@! TD.AperFunction*
G04 #@! TO.P,M5,J_GND2,PULL_DOWN2*
G04 #@! TA.AperFunction,SMDPad,CuDef*
G36*
G01*
X37000005Y62350005D02*
X37000005Y62100005D01*
G75*
G02*
X36875005Y61975005I-125000J0D01*
G01*
X36625005Y61975005D01*
G75*
G02*
X36500005Y62100005I0J125000D01*
G01*
X36500005Y62350005D01*
G75*
G02*
X36625005Y62475005I125000J0D01*
G01*
X36875005Y62475005D01*
G75*
G02*
X37000005Y62350005I0J-125000D01*
G01*
G37*
G04 #@! TD.AperFunction*
G04 #@! TO.P,M5,J_VCC1,PULL_UP1*
G04 #@! TA.AperFunction,SMDPad,CuDef*
G36*
G01*
X37675005Y61225005D02*
X37425005Y61225005D01*
G75*
G02*
X37300005Y61350005I0J125000D01*
G01*
X37300005Y61600005D01*
G75*
G02*
X37425005Y61725005I125000J0D01*
G01*
X37675005Y61725005D01*
G75*
G02*
X37800005Y61600005I0J-125000D01*
G01*
X37800005Y61350005D01*
G75*
G02*
X37675005Y61225005I-125000J0D01*
G01*
G37*
G04 #@! TD.AperFunction*
G04 #@! TO.P,M5,J_VCC2,PULL_UP2*
G04 #@! TA.AperFunction,SMDPad,CuDef*
G36*
G01*
X37675005Y62900005D02*
X37425005Y62900005D01*
G75*
G02*
X37300005Y63025005I0J125000D01*
G01*
X37300005Y64275005D01*
G75*
G02*
X37425005Y64400005I125000J0D01*
G01*
X37675005Y64400005D01*
G75*
G02*
X37800005Y64275005I0J-125000D01*
G01*
X37800005Y63025005D01*
G75*
G02*
X37675005Y62900005I-125000J0D01*
G01*
G37*
G04 #@! TD.AperFunction*
D37*
G04 #@! TO.P,M5,W1,V5_IN*
G04 #@! TO.N,+5VA*
X37950005Y70266205D03*
G04 #@! TO.P,M5,W2,CAN_VIO*
G04 #@! TO.N,N/C*
X36950005Y70266205D03*
G04 #@! TO.P,M5,W3,CANL*
G04 #@! TO.N,PIN83*
X33654005Y70266205D03*
G04 #@! TO.P,M5,W4,CANH*
G04 #@! TO.N,PIN82*
X34670005Y70266205D03*
G04 #@! TO.P,M5,W5,nReset*
G04 #@! TO.N,N/C*
G04 #@! TA.AperFunction,SMDPad,CuDef*
G36*
G01*
X31650005Y70775005D02*
X31650005Y70775005D01*
G75*
G02*
X31775005Y70650005I0J-125000D01*
G01*
X31775005Y70400005D01*
G75*
G02*
X31650005Y70275005I-125000J0D01*
G01*
X31650005Y70275005D01*
G75*
G02*
X31525005Y70400005I0J125000D01*
G01*
X31525005Y70650005D01*
G75*
G02*
X31650005Y70775005I125000J0D01*
G01*
G37*
G04 #@! TD.AperFunction*
G04 #@! TO.P,M5,W6,SWDIO*
G04 #@! TA.AperFunction,SMDPad,CuDef*
G36*
G01*
X31150005Y70775005D02*
X31150005Y70775005D01*
G75*
G02*
X31275005Y70650005I0J-125000D01*
G01*
X31275005Y70400005D01*
G75*
G02*
X31150005Y70275005I-125000J0D01*
G01*
X31150005Y70275005D01*
G75*
G02*
X31025005Y70400005I0J125000D01*
G01*
X31025005Y70650005D01*
G75*
G02*
X31150005Y70775005I125000J0D01*
G01*
G37*
G04 #@! TD.AperFunction*
G04 #@! TO.P,M5,W7,SWCLK*
G04 #@! TA.AperFunction,SMDPad,CuDef*
G36*
G01*
X30650005Y70775005D02*
X30650005Y70775005D01*
G75*
G02*
X30775005Y70650005I0J-125000D01*
G01*
X30775005Y70400005D01*
G75*
G02*
X30650005Y70275005I-125000J0D01*
G01*
X30650005Y70275005D01*
G75*
G02*
X30525005Y70400005I0J125000D01*
G01*
X30525005Y70650005D01*
G75*
G02*
X30650005Y70775005I125000J0D01*
G01*
G37*
G04 #@! TD.AperFunction*
G04 #@! TO.P,M5,W8,V33_OUT*
G04 #@! TA.AperFunction,SMDPad,CuDef*
G36*
G01*
X28550005Y70775005D02*
X28550005Y70775005D01*
G75*
G02*
X28675005Y70650005I0J-125000D01*
G01*
X28675005Y70400005D01*
G75*
G02*
X28550005Y70275005I-125000J0D01*
G01*
X28550005Y70275005D01*
G75*
G02*
X28425005Y70400005I0J125000D01*
G01*
X28425005Y70650005D01*
G75*
G02*
X28550005Y70775005I125000J0D01*
G01*
G37*
G04 #@! TD.AperFunction*
G04 #@! TO.P,M5,W9,VDDA*
X38950005Y70266205D03*
G04 #@! TD*
D46*
G04 #@! TO.P,J22,1,VBUS*
G04 #@! TO.N,/VBUS*
X110700005Y104350005D03*
D47*
G04 #@! TO.P,J22,2,D-*
G04 #@! TO.N,/USB-*
X112450005Y103550005D03*
G04 #@! TO.P,J22,3,D+*
G04 #@! TO.N,/USB+*
X110700005Y102750005D03*
G04 #@! TO.P,J22,4,ID*
G04 #@! TO.N,N/C*
X112450005Y101950005D03*
G04 #@! TO.P,J22,5,GND*
G04 #@! TO.N,PIN114*
X110700005Y101150005D03*
D48*
G04 #@! TO.P,J22,6,Shield*
X111575005Y106400005D03*
X111575005Y99100005D03*
G04 #@! TD*
D36*
G04 #@! TO.P,F1,1,1*
G04 #@! TO.N,PIN108*
X132575005Y44150005D03*
G04 #@! TA.AperFunction,SMDPad,CuDef*
G36*
G01*
X133475005Y45494995D02*
X133475005Y44804995D01*
G75*
G02*
X133245005Y44574995I-230000J0D01*
G01*
X131905005Y44574995D01*
G75*
G02*
X131675005Y44804995I0J230000D01*
G01*
X131675005Y45494995D01*
G75*
G02*
X131905005Y45724995I230000J0D01*
G01*
X133245005Y45724995D01*
G75*
G02*
X133475005Y45494995I0J-230000D01*
G01*
G37*
G04 #@! TD.AperFunction*
G04 #@! TO.P,F1,2,2*
G04 #@! TO.N,/IN_VIGN*
G04 #@! TA.AperFunction,SMDPad,CuDef*
G36*
G01*
X133475005Y48395015D02*
X133475005Y47705015D01*
G75*
G02*
X133245005Y47475015I-230000J0D01*
G01*
X131905005Y47475015D01*
G75*
G02*
X131675005Y47705015I0J230000D01*
G01*
X131675005Y48395015D01*
G75*
G02*
X131905005Y48625015I230000J0D01*
G01*
X133245005Y48625015D01*
G75*
G02*
X133475005Y48395015I0J-230000D01*
G01*
G37*
G04 #@! TD.AperFunction*
X132575005Y49050005D03*
G04 #@! TD*
G04 #@! TO.P,U10,1,OUT*
G04 #@! TO.N,PIN43*
G04 #@! TA.AperFunction,SMDPad,CuDef*
G36*
G01*
X21155005Y39400005D02*
X21555005Y39400005D01*
G75*
G02*
X21755005Y39200005I0J-200000D01*
G01*
X21755005Y37400005D01*
G75*
G02*
X21555005Y37200005I-200000J0D01*
G01*
X21155005Y37200005D01*
G75*
G02*
X20955005Y37400005I0J200000D01*
G01*
X20955005Y39200005D01*
G75*
G02*
X21155005Y39400005I200000J0D01*
G01*
G37*
G04 #@! TD.AperFunction*
G04 #@! TO.P,U10,2,IN*
G04 #@! TO.N,N/C*
G04 #@! TA.AperFunction,SMDPad,CuDef*
G36*
G01*
X20015005Y39400005D02*
X20415005Y39400005D01*
G75*
G02*
X20615005Y39200005I0J-200000D01*
G01*
X20615005Y37400005D01*
G75*
G02*
X20415005Y37200005I-200000J0D01*
G01*
X20015005Y37200005D01*
G75*
G02*
X19815005Y37400005I0J200000D01*
G01*
X19815005Y39200005D01*
G75*
G02*
X20015005Y39400005I200000J0D01*
G01*
G37*
G04 #@! TD.AperFunction*
G04 #@! TO.P,U10,3,Vbb*
G04 #@! TO.N,PIN120*
G04 #@! TA.AperFunction,SMDPad,CuDef*
G36*
G01*
X19475005Y35200005D02*
X21725005Y35200005D01*
G75*
G02*
X21975005Y34950005I0J-250000D01*
G01*
X21975005Y32400005D01*
G75*
G02*
X21725005Y32150005I-250000J0D01*
G01*
X19475005Y32150005D01*
G75*
G02*
X19225005Y32400005I0J250000D01*
G01*
X19225005Y34950005D01*
G75*
G02*
X19475005Y35200005I250000J0D01*
G01*
G37*
G04 #@! TD.AperFunction*
G04 #@! TA.AperFunction,SMDPad,CuDef*
G36*
G01*
X16425005Y35200005D02*
X18675005Y35200005D01*
G75*
G02*
X18925005Y34950005I0J-250000D01*
G01*
X18925005Y32400005D01*
G75*
G02*
X18675005Y32150005I-250000J0D01*
G01*
X16425005Y32150005D01*
G75*
G02*
X16175005Y32400005I0J250000D01*
G01*
X16175005Y34950005D01*
G75*
G02*
X16425005Y35200005I250000J0D01*
G01*
G37*
G04 #@! TD.AperFunction*
G04 #@! TA.AperFunction,SMDPad,CuDef*
G36*
G01*
X16425002Y35200005D02*
X21725008Y35200005D01*
G75*
G02*
X21975005Y34950008I0J-249997D01*
G01*
X21975005Y29050002D01*
G75*
G02*
X21725008Y28800005I-249997J0D01*
G01*
X16425002Y28800005D01*
G75*
G02*
X16175005Y29050002I0J249997D01*
G01*
X16175005Y34950008D01*
G75*
G02*
X16425002Y35200005I249997J0D01*
G01*
G37*
G04 #@! TD.AperFunction*
G04 #@! TA.AperFunction,SMDPad,CuDef*
G36*
G01*
X19475005Y31850005D02*
X21725005Y31850005D01*
G75*
G02*
X21975005Y31600005I0J-250000D01*
G01*
X21975005Y29050005D01*
G75*
G02*
X21725005Y28800005I-250000J0D01*
G01*
X19475005Y28800005D01*
G75*
G02*
X19225005Y29050005I0J250000D01*
G01*
X19225005Y31600005D01*
G75*
G02*
X19475005Y31850005I250000J0D01*
G01*
G37*
G04 #@! TD.AperFunction*
G04 #@! TA.AperFunction,SMDPad,CuDef*
G36*
G01*
X16425005Y31850005D02*
X18675005Y31850005D01*
G75*
G02*
X18925005Y31600005I0J-250000D01*
G01*
X18925005Y29050005D01*
G75*
G02*
X18675005Y28800005I-250000J0D01*
G01*
X16425005Y28800005D01*
G75*
G02*
X16175005Y29050005I0J250000D01*
G01*
X16175005Y31600005D01*
G75*
G02*
X16425005Y31850005I250000J0D01*
G01*
G37*
G04 #@! TD.AperFunction*
G04 #@! TO.P,U10,4,IS*
G04 #@! TO.N,N/C*
G04 #@! TA.AperFunction,SMDPad,CuDef*
G36*
G01*
X17735005Y39400005D02*
X18135005Y39400005D01*
G75*
G02*
X18335005Y39200005I0J-200000D01*
G01*
X18335005Y37400005D01*
G75*
G02*
X18135005Y37200005I-200000J0D01*
G01*
X17735005Y37200005D01*
G75*
G02*
X17535005Y37400005I0J200000D01*
G01*
X17535005Y39200005D01*
G75*
G02*
X17735005Y39400005I200000J0D01*
G01*
G37*
G04 #@! TD.AperFunction*
G04 #@! TO.P,U10,5,OUT*
G04 #@! TO.N,PIN43*
G04 #@! TA.AperFunction,SMDPad,CuDef*
G36*
G01*
X16595005Y39400005D02*
X16995005Y39400005D01*
G75*
G02*
X17195005Y39200005I0J-200000D01*
G01*
X17195005Y37400005D01*
G75*
G02*
X16995005Y37200005I-200000J0D01*
G01*
X16595005Y37200005D01*
G75*
G02*
X16395005Y37400005I0J200000D01*
G01*
X16395005Y39200005D01*
G75*
G02*
X16595005Y39400005I200000J0D01*
G01*
G37*
G04 #@! TD.AperFunction*
G04 #@! TD*
G04 #@! TO.P,U4,1,IN1*
G04 #@! TO.N,Net-(U4-IN1)*
G04 #@! TA.AperFunction,SMDPad,CuDef*
G36*
G01*
X109330005Y64050005D02*
X109630005Y64050005D01*
G75*
G02*
X109780005Y63900005I0J-150000D01*
G01*
X109780005Y62250005D01*
G75*
G02*
X109630005Y62100005I-150000J0D01*
G01*
X109330005Y62100005D01*
G75*
G02*
X109180005Y62250005I0J150000D01*
G01*
X109180005Y63900005D01*
G75*
G02*
X109330005Y64050005I150000J0D01*
G01*
G37*
G04 #@! TD.AperFunction*
G04 #@! TO.P,U4,2,STATUS1*
G04 #@! TO.N,unconnected-(U4-STATUS1-Pad2)*
G04 #@! TA.AperFunction,SMDPad,CuDef*
G36*
G01*
X108060005Y64050005D02*
X108360005Y64050005D01*
G75*
G02*
X108510005Y63900005I0J-150000D01*
G01*
X108510005Y62250005D01*
G75*
G02*
X108360005Y62100005I-150000J0D01*
G01*
X108060005Y62100005D01*
G75*
G02*
X107910005Y62250005I0J150000D01*
G01*
X107910005Y63900005D01*
G75*
G02*
X108060005Y64050005I150000J0D01*
G01*
G37*
G04 #@! TD.AperFunction*
G04 #@! TO.P,U4,3,IN2*
G04 #@! TO.N,Net-(U4-IN2)*
G04 #@! TA.AperFunction,SMDPad,CuDef*
G36*
G01*
X106790005Y64050005D02*
X107090005Y64050005D01*
G75*
G02*
X107240005Y63900005I0J-150000D01*
G01*
X107240005Y62250005D01*
G75*
G02*
X107090005Y62100005I-150000J0D01*
G01*
X106790005Y62100005D01*
G75*
G02*
X106640005Y62250005I0J150000D01*
G01*
X106640005Y63900005D01*
G75*
G02*
X106790005Y64050005I150000J0D01*
G01*
G37*
G04 #@! TD.AperFunction*
G04 #@! TO.P,U4,4,STATUS2*
G04 #@! TO.N,unconnected-(U4-STATUS2-Pad4)*
G04 #@! TA.AperFunction,SMDPad,CuDef*
G36*
G01*
X105520005Y64050005D02*
X105820005Y64050005D01*
G75*
G02*
X105970005Y63900005I0J-150000D01*
G01*
X105970005Y62250005D01*
G75*
G02*
X105820005Y62100005I-150000J0D01*
G01*
X105520005Y62100005D01*
G75*
G02*
X105370005Y62250005I0J150000D01*
G01*
X105370005Y63900005D01*
G75*
G02*
X105520005Y64050005I150000J0D01*
G01*
G37*
G04 #@! TD.AperFunction*
G04 #@! TO.P,U4,5,S2*
G04 #@! TO.N,PIN114*
G04 #@! TA.AperFunction,SMDPad,CuDef*
G36*
G01*
X105520005Y59100005D02*
X105820005Y59100005D01*
G75*
G02*
X105970005Y58950005I0J-150000D01*
G01*
X105970005Y57300005D01*
G75*
G02*
X105820005Y57150005I-150000J0D01*
G01*
X105520005Y57150005D01*
G75*
G02*
X105370005Y57300005I0J150000D01*
G01*
X105370005Y58950005D01*
G75*
G02*
X105520005Y59100005I150000J0D01*
G01*
G37*
G04 #@! TD.AperFunction*
G04 #@! TO.P,U4,6,D2*
G04 #@! TO.N,PIN45*
G04 #@! TA.AperFunction,SMDPad,CuDef*
G36*
G01*
X106790005Y59100005D02*
X107090005Y59100005D01*
G75*
G02*
X107240005Y58950005I0J-150000D01*
G01*
X107240005Y57300005D01*
G75*
G02*
X107090005Y57150005I-150000J0D01*
G01*
X106790005Y57150005D01*
G75*
G02*
X106640005Y57300005I0J150000D01*
G01*
X106640005Y58950005D01*
G75*
G02*
X106790005Y59100005I150000J0D01*
G01*
G37*
G04 #@! TD.AperFunction*
G04 #@! TO.P,U4,7,S1*
G04 #@! TO.N,PIN114*
G04 #@! TA.AperFunction,SMDPad,CuDef*
G36*
G01*
X108060005Y59100005D02*
X108360005Y59100005D01*
G75*
G02*
X108510005Y58950005I0J-150000D01*
G01*
X108510005Y57300005D01*
G75*
G02*
X108360005Y57150005I-150000J0D01*
G01*
X108060005Y57150005D01*
G75*
G02*
X107910005Y57300005I0J150000D01*
G01*
X107910005Y58950005D01*
G75*
G02*
X108060005Y59100005I150000J0D01*
G01*
G37*
G04 #@! TD.AperFunction*
G04 #@! TO.P,U4,8,D1*
G04 #@! TO.N,PIN44*
G04 #@! TA.AperFunction,SMDPad,CuDef*
G36*
G01*
X109330005Y59100005D02*
X109630005Y59100005D01*
G75*
G02*
X109780005Y58950005I0J-150000D01*
G01*
X109780005Y57300005D01*
G75*
G02*
X109630005Y57150005I-150000J0D01*
G01*
X109330005Y57150005D01*
G75*
G02*
X109180005Y57300005I0J150000D01*
G01*
X109180005Y58950005D01*
G75*
G02*
X109330005Y59100005I150000J0D01*
G01*
G37*
G04 #@! TD.AperFunction*
G04 #@! TD*
D14*
G04 #@! TO.P,M3,E1,Thresh_IN*
G04 #@! TO.N,/VR_DISCRETE_THR*
X68450005Y58425005D03*
G04 #@! TO.P,M3,E2,OUT_A*
G04 #@! TO.N,/VR_DISCRETE_A*
X69650005Y58425005D03*
G04 #@! TO.P,M3,E3,OUT*
G04 #@! TO.N,/VR_DISCRETE*
X67250005Y58425005D03*
G04 #@! TO.P,M3,E4,V5_IN*
G04 #@! TO.N,+5VA*
X66050005Y58425005D03*
D49*
G04 #@! TO.P,M3,G,GND*
G04 #@! TO.N,PIN114*
X68717505Y43775005D03*
D50*
X74767505Y43775005D03*
D51*
X65750005Y50787505D03*
D52*
X75200005Y51200005D03*
D53*
X72737505Y58625005D03*
D14*
G04 #@! TO.P,M3,W1,VR-*
G04 #@! TO.N,PIN18*
X72510005Y44000005D03*
G04 #@! TO.P,M3,W2,VR+*
G04 #@! TO.N,PIN17*
X73510005Y44000005D03*
G04 #@! TD*
D36*
G04 #@! TO.P,F2,1,1*
G04 #@! TO.N,PIN120*
X130075005Y44150005D03*
G04 #@! TA.AperFunction,SMDPad,CuDef*
G36*
G01*
X130975005Y45494995D02*
X130975005Y44804995D01*
G75*
G02*
X130745005Y44574995I-230000J0D01*
G01*
X129405005Y44574995D01*
G75*
G02*
X129175005Y44804995I0J230000D01*
G01*
X129175005Y45494995D01*
G75*
G02*
X129405005Y45724995I230000J0D01*
G01*
X130745005Y45724995D01*
G75*
G02*
X130975005Y45494995I0J-230000D01*
G01*
G37*
G04 #@! TD.AperFunction*
G04 #@! TO.P,F2,2,2*
G04 #@! TO.N,PIN117*
G04 #@! TA.AperFunction,SMDPad,CuDef*
G36*
G01*
X130975005Y48395015D02*
X130975005Y47705015D01*
G75*
G02*
X130745005Y47475015I-230000J0D01*
G01*
X129405005Y47475015D01*
G75*
G02*
X129175005Y47705015I0J230000D01*
G01*
X129175005Y48395015D01*
G75*
G02*
X129405005Y48625015I230000J0D01*
G01*
X130745005Y48625015D01*
G75*
G02*
X130975005Y48395015I0J-230000D01*
G01*
G37*
G04 #@! TD.AperFunction*
X130075005Y49050005D03*
G04 #@! TD*
D10*
G04 #@! TO.P,P2,*
G04 #@! TO.N,*
X18600000Y5375000D03*
D11*
X21050000Y13175000D03*
D10*
X93100000Y5375000D03*
D11*
X142850000Y13175000D03*
D10*
X145300000Y5375000D03*
D12*
G04 #@! TO.P,P2,1*
G04 #@! TO.N,N/C*
X25700000Y10375000D03*
G04 #@! TO.P,P2,2*
X31500000Y10375000D03*
G04 #@! TO.P,P2,3*
X28600000Y12705000D03*
G04 #@! TO.P,P2,4*
X25700000Y18505000D03*
G04 #@! TO.P,P2,5*
X31500000Y18505000D03*
D13*
G04 #@! TO.P,P2,6,6*
G04 #@! TO.N,PIN6*
X85120000Y18505000D03*
G04 #@! TO.P,P2,7,7*
G04 #@! TO.N,PIN7*
X82580000Y18505000D03*
G04 #@! TO.P,P2,8,8*
G04 #@! TO.N,PIN8*
X80040000Y18505000D03*
G04 #@! TO.P,P2,9,9*
G04 #@! TO.N,PIN9*
X77500000Y18505000D03*
G04 #@! TO.P,P2,10,10*
G04 #@! TO.N,PIN10*
X74960000Y18505000D03*
G04 #@! TO.P,P2,11,11*
G04 #@! TO.N,PIN11*
X72420000Y18505000D03*
G04 #@! TO.P,P2,12,12*
G04 #@! TO.N,PIN12*
X69880000Y18505000D03*
G04 #@! TO.P,P2,13,13*
G04 #@! TO.N,PIN13*
X67340000Y18505000D03*
G04 #@! TO.P,P2,14,14*
G04 #@! TO.N,PIN14*
X64800000Y18505000D03*
G04 #@! TO.P,P2,15,15*
G04 #@! TO.N,PIN15*
X62260000Y18505000D03*
G04 #@! TO.P,P2,16,16*
G04 #@! TO.N,PIN16*
X59720000Y18505000D03*
G04 #@! TO.P,P2,17,17*
G04 #@! TO.N,PIN17*
X57180000Y18505000D03*
G04 #@! TO.P,P2,18,18*
G04 #@! TO.N,PIN18*
X54640000Y18505000D03*
G04 #@! TO.P,P2,19,19*
G04 #@! TO.N,PIN19*
X52100000Y18505000D03*
G04 #@! TO.P,P2,20,20*
G04 #@! TO.N,PIN20*
X49560000Y18505000D03*
G04 #@! TO.P,P2,21,21*
G04 #@! TO.N,PIN21*
X47020000Y18505000D03*
G04 #@! TO.P,P2,22,22*
G04 #@! TO.N,PIN22*
X44480000Y18505000D03*
G04 #@! TO.P,P2,23,23*
G04 #@! TO.N,PIN120*
X41940000Y18505000D03*
G04 #@! TO.P,P2,24,24*
X39400000Y18505000D03*
G04 #@! TO.P,P2,25,25*
G04 #@! TO.N,PIN25*
X85120000Y15965000D03*
G04 #@! TO.P,P2,26,26*
G04 #@! TO.N,PIN26*
X82580000Y15965000D03*
G04 #@! TO.P,P2,27,27*
G04 #@! TO.N,PIN27*
X80040000Y15965000D03*
G04 #@! TO.P,P2,28,28*
G04 #@! TO.N,PIN28*
X77500000Y15965000D03*
G04 #@! TO.P,P2,29,29*
G04 #@! TO.N,PIN29*
X74960000Y15965000D03*
G04 #@! TO.P,P2,30,30*
G04 #@! TO.N,PIN30*
X72420000Y15965000D03*
G04 #@! TO.P,P2,31,31*
G04 #@! TO.N,PIN31*
X69880000Y15965000D03*
G04 #@! TO.P,P2,32,32*
G04 #@! TO.N,PIN32*
X67340000Y15965000D03*
G04 #@! TO.P,P2,33,33*
G04 #@! TO.N,PIN33*
X64800000Y15965000D03*
G04 #@! TO.P,P2,34,34*
G04 #@! TO.N,PIN34*
X62260000Y15965000D03*
G04 #@! TO.P,P2,35,35*
G04 #@! TO.N,PIN35*
X59720000Y15965000D03*
G04 #@! TO.P,P2,36,36*
G04 #@! TO.N,PIN36*
X57180000Y15965000D03*
G04 #@! TO.P,P2,37,37*
G04 #@! TO.N,PIN37*
X54640000Y15965000D03*
G04 #@! TO.P,P2,38,38*
G04 #@! TO.N,PIN38*
X52100000Y15965000D03*
G04 #@! TO.P,P2,39,39*
G04 #@! TO.N,PIN39*
X49560000Y15965000D03*
G04 #@! TO.P,P2,40,40*
G04 #@! TO.N,PIN40*
X47020000Y15965000D03*
G04 #@! TO.P,P2,41,41*
G04 #@! TO.N,PIN41*
X44480000Y15965000D03*
G04 #@! TO.P,P2,42,42*
G04 #@! TO.N,PIN42*
X41940000Y15965000D03*
G04 #@! TO.P,P2,43,43*
G04 #@! TO.N,PIN43*
X39400000Y15965000D03*
G04 #@! TO.P,P2,44,44*
G04 #@! TO.N,PIN44*
X85120000Y9915000D03*
G04 #@! TO.P,P2,45,45*
G04 #@! TO.N,PIN45*
X82580000Y9915000D03*
G04 #@! TO.P,P2,46,46*
G04 #@! TO.N,PIN46*
X80040000Y9915000D03*
G04 #@! TO.P,P2,47,47*
G04 #@! TO.N,PIN47*
X77500000Y9915000D03*
G04 #@! TO.P,P2,48,48*
G04 #@! TO.N,PIN48*
X74960000Y9915000D03*
G04 #@! TO.P,P2,49,49*
G04 #@! TO.N,PIN49*
X72420000Y9915000D03*
G04 #@! TO.P,P2,50,50*
G04 #@! TO.N,PIN50*
X69880000Y9915000D03*
G04 #@! TO.P,P2,51,51*
G04 #@! TO.N,PIN51*
X67340000Y9915000D03*
G04 #@! TO.P,P2,52,52*
G04 #@! TO.N,PIN113*
X64800000Y9915000D03*
G04 #@! TO.P,P2,53,53*
X62260000Y9915000D03*
G04 #@! TO.P,P2,54,54*
X59720000Y9915000D03*
G04 #@! TO.P,P2,55,55*
X57180000Y9915000D03*
G04 #@! TO.P,P2,56,56*
X54640000Y9915000D03*
G04 #@! TO.P,P2,57,57*
X52100000Y9915000D03*
G04 #@! TO.P,P2,58,58*
X49560000Y9915000D03*
G04 #@! TO.P,P2,59,59*
X47020000Y9915000D03*
G04 #@! TO.P,P2,60,60*
X44480000Y9915000D03*
G04 #@! TO.P,P2,61,61*
X41940000Y9915000D03*
G04 #@! TO.P,P2,62,62*
X39400000Y9915000D03*
G04 #@! TO.P,P2,63,63*
G04 #@! TO.N,PIN63*
X85120000Y7375000D03*
G04 #@! TO.P,P2,64,64*
G04 #@! TO.N,PIN113*
X82580000Y7375000D03*
G04 #@! TO.P,P2,65,65*
G04 #@! TO.N,PIN65*
X80040000Y7375000D03*
G04 #@! TO.P,P2,66,66*
G04 #@! TO.N,PIN113*
X77500000Y7375000D03*
G04 #@! TO.P,P2,67,67*
G04 #@! TO.N,PIN67*
X74960000Y7375000D03*
G04 #@! TO.P,P2,68,68*
G04 #@! TO.N,PIN113*
X72420000Y7375000D03*
G04 #@! TO.P,P2,69,69*
G04 #@! TO.N,PIN69*
X69880000Y7375000D03*
G04 #@! TO.P,P2,70,70*
G04 #@! TO.N,PIN70*
X67340000Y7375000D03*
G04 #@! TO.P,P2,71,71*
G04 #@! TO.N,PIN106*
X64800000Y7375000D03*
G04 #@! TO.P,P2,72,72*
X62260000Y7375000D03*
G04 #@! TO.P,P2,73,73*
X59720000Y7375000D03*
G04 #@! TO.P,P2,74,74*
X57180000Y7375000D03*
G04 #@! TO.P,P2,75,75*
X54640000Y7375000D03*
G04 #@! TO.P,P2,76,76*
X52100000Y7375000D03*
G04 #@! TO.P,P2,77,77*
X49560000Y7375000D03*
G04 #@! TO.P,P2,78,78*
X47020000Y7375000D03*
G04 #@! TO.P,P2,79,79*
X44480000Y7375000D03*
G04 #@! TO.P,P2,80,80*
X41940000Y7375000D03*
G04 #@! TO.P,P2,81,81*
G04 #@! TO.N,PIN81*
X39400000Y7375000D03*
G04 #@! TO.P,P2,82,82*
G04 #@! TO.N,PIN82*
X101090000Y7375000D03*
G04 #@! TO.P,P2,83,83*
G04 #@! TO.N,PIN83*
X103630000Y7375000D03*
G04 #@! TO.P,P2,84,84*
G04 #@! TO.N,PIN84*
X106170000Y7375000D03*
G04 #@! TO.P,P2,85,85*
G04 #@! TO.N,PIN85*
X108710000Y7375000D03*
G04 #@! TO.P,P2,86,86*
G04 #@! TO.N,PIN86*
X111250000Y7375000D03*
G04 #@! TO.P,P2,87,87*
G04 #@! TO.N,PIN87*
X113790000Y7375000D03*
G04 #@! TO.P,P2,88,88*
G04 #@! TO.N,PIN88*
X116330000Y7375000D03*
G04 #@! TO.P,P2,89,89*
G04 #@! TO.N,PIN89*
X118870000Y7375000D03*
G04 #@! TO.P,P2,90,90*
G04 #@! TO.N,PIN90*
X101090000Y9915000D03*
G04 #@! TO.P,P2,91,91*
G04 #@! TO.N,PIN91*
X103630000Y9915000D03*
G04 #@! TO.P,P2,92,92*
G04 #@! TO.N,PIN92*
X106170000Y9915000D03*
G04 #@! TO.P,P2,93,93*
G04 #@! TO.N,PIN93*
X108710000Y9915000D03*
G04 #@! TO.P,P2,94,94*
G04 #@! TO.N,PIN94*
X111250000Y9915000D03*
G04 #@! TO.P,P2,95,95*
G04 #@! TO.N,PIN95*
X113790000Y9915000D03*
G04 #@! TO.P,P2,96,96*
G04 #@! TO.N,PIN96*
X116330000Y9915000D03*
G04 #@! TO.P,P2,97,97*
G04 #@! TO.N,PIN97*
X118870000Y9915000D03*
G04 #@! TO.P,P2,98,98*
G04 #@! TO.N,PIN113*
X101090000Y15965000D03*
G04 #@! TO.P,P2,99,99*
X103630000Y15965000D03*
G04 #@! TO.P,P2,100,100*
G04 #@! TO.N,PIN100*
X106170000Y15965000D03*
G04 #@! TO.P,P2,101,101*
G04 #@! TO.N,PIN101*
X108710000Y15965000D03*
G04 #@! TO.P,P2,102,102*
G04 #@! TO.N,PIN102*
X111250000Y15965000D03*
G04 #@! TO.P,P2,103,103*
G04 #@! TO.N,PIN103*
X113790000Y15965000D03*
G04 #@! TO.P,P2,104,104*
G04 #@! TO.N,PIN104*
X116330000Y15965000D03*
G04 #@! TO.P,P2,105,105*
G04 #@! TO.N,PIN105*
X118870000Y15965000D03*
G04 #@! TO.P,P2,106,106*
G04 #@! TO.N,PIN106*
X101090000Y18505000D03*
G04 #@! TO.P,P2,107,107*
X103630000Y18505000D03*
G04 #@! TO.P,P2,108,108*
G04 #@! TO.N,PIN108*
X106170000Y18505000D03*
G04 #@! TO.P,P2,109,109*
G04 #@! TO.N,PIN109*
X108710000Y18505000D03*
G04 #@! TO.P,P2,110,110*
G04 #@! TO.N,PIN110*
X111250000Y18505000D03*
G04 #@! TO.P,P2,111,111*
G04 #@! TO.N,PIN111*
X113790000Y18505000D03*
G04 #@! TO.P,P2,112,112*
G04 #@! TO.N,PIN112*
X116330000Y18505000D03*
G04 #@! TO.P,P2,113,113*
G04 #@! TO.N,PIN113*
X118870000Y18505000D03*
D12*
G04 #@! TO.P,P2,114*
G04 #@! TO.N,N/C*
X126700000Y10375000D03*
G04 #@! TO.P,P2,115*
X132500000Y10375000D03*
G04 #@! TO.P,P2,116*
X138400000Y10375000D03*
G04 #@! TO.P,P2,117*
X129600000Y12705000D03*
G04 #@! TO.P,P2,118*
X135500000Y12705000D03*
G04 #@! TO.P,P2,119*
X126700000Y18505000D03*
G04 #@! TO.P,P2,120*
X132500000Y18505000D03*
G04 #@! TO.P,P2,121*
X138400000Y18505000D03*
G04 #@! TD*
G04 #@! TO.P,Q1,1,G*
G04 #@! TO.N,N/C*
G04 #@! TA.AperFunction,SMDPad,CuDef*
G36*
G01*
X81225005Y55175005D02*
X81925005Y55175005D01*
G75*
G02*
X82175005Y54925005I0J-250000D01*
G01*
X82175005Y53225005D01*
G75*
G02*
X81925005Y52975005I-250000J0D01*
G01*
X81225005Y52975005D01*
G75*
G02*
X80975005Y53225005I0J250000D01*
G01*
X80975005Y54925005D01*
G75*
G02*
X81225005Y55175005I250000J0D01*
G01*
G37*
G04 #@! TD.AperFunction*
G04 #@! TO.P,Q1,2,C*
G04 #@! TO.N,PIN13*
G04 #@! TA.AperFunction,SMDPad,CuDef*
G36*
G01*
X79695005Y50975005D02*
X81945005Y50975005D01*
G75*
G02*
X82195005Y50725005I0J-250000D01*
G01*
X82195005Y48175005D01*
G75*
G02*
X81945005Y47925005I-250000J0D01*
G01*
X79695005Y47925005D01*
G75*
G02*
X79445005Y48175005I0J250000D01*
G01*
X79445005Y50725005D01*
G75*
G02*
X79695005Y50975005I250000J0D01*
G01*
G37*
G04 #@! TD.AperFunction*
G04 #@! TA.AperFunction,SMDPad,CuDef*
G36*
G01*
X76645005Y50975005D02*
X78895005Y50975005D01*
G75*
G02*
X79145005Y50725005I0J-250000D01*
G01*
X79145005Y48175005D01*
G75*
G02*
X78895005Y47925005I-250000J0D01*
G01*
X76645005Y47925005D01*
G75*
G02*
X76395005Y48175005I0J250000D01*
G01*
X76395005Y50725005D01*
G75*
G02*
X76645005Y50975005I250000J0D01*
G01*
G37*
G04 #@! TD.AperFunction*
G04 #@! TA.AperFunction,SMDPad,CuDef*
G36*
G01*
X76645002Y50975005D02*
X81945008Y50975005D01*
G75*
G02*
X82195005Y50725008I0J-249997D01*
G01*
X82195005Y44825002D01*
G75*
G02*
X81945008Y44575005I-249997J0D01*
G01*
X76645002Y44575005D01*
G75*
G02*
X76395005Y44825002I0J249997D01*
G01*
X76395005Y50725008D01*
G75*
G02*
X76645002Y50975005I249997J0D01*
G01*
G37*
G04 #@! TD.AperFunction*
G04 #@! TA.AperFunction,SMDPad,CuDef*
G36*
G01*
X79695005Y47625005D02*
X81945005Y47625005D01*
G75*
G02*
X82195005Y47375005I0J-250000D01*
G01*
X82195005Y44825005D01*
G75*
G02*
X81945005Y44575005I-250000J0D01*
G01*
X79695005Y44575005D01*
G75*
G02*
X79445005Y44825005I0J250000D01*
G01*
X79445005Y47375005D01*
G75*
G02*
X79695005Y47625005I250000J0D01*
G01*
G37*
G04 #@! TD.AperFunction*
G04 #@! TA.AperFunction,SMDPad,CuDef*
G36*
G01*
X76645005Y47625005D02*
X78895005Y47625005D01*
G75*
G02*
X79145005Y47375005I0J-250000D01*
G01*
X79145005Y44825005D01*
G75*
G02*
X78895005Y44575005I-250000J0D01*
G01*
X76645005Y44575005D01*
G75*
G02*
X76395005Y44825005I0J250000D01*
G01*
X76395005Y47375005D01*
G75*
G02*
X76645005Y47625005I250000J0D01*
G01*
G37*
G04 #@! TD.AperFunction*
G04 #@! TO.P,Q1,3,E*
G04 #@! TO.N,PIN114*
G04 #@! TA.AperFunction,SMDPad,CuDef*
G36*
G01*
X76665005Y55175005D02*
X77365005Y55175005D01*
G75*
G02*
X77615005Y54925005I0J-250000D01*
G01*
X77615005Y53225005D01*
G75*
G02*
X77365005Y52975005I-250000J0D01*
G01*
X76665005Y52975005D01*
G75*
G02*
X76415005Y53225005I0J250000D01*
G01*
X76415005Y54925005D01*
G75*
G02*
X76665005Y55175005I250000J0D01*
G01*
G37*
G04 #@! TD.AperFunction*
G04 #@! TD*
D54*
G04 #@! TO.P,M7,E1,GND*
G04 #@! TO.N,PIN114*
X127437506Y95380842D03*
D55*
X121962505Y92643342D03*
D56*
X121262504Y99243339D03*
D57*
X116637510Y99243339D03*
D58*
X116462506Y95980841D03*
D59*
G04 #@! TO.P,M7,S1,CANL*
G04 #@! TO.N,N/C*
X126987504Y99193341D03*
G04 #@! TO.P,M7,S2,CANH*
X126487503Y99193341D03*
D60*
G04 #@! TO.P,M7,V1,V5*
G04 #@! TO.N,+5VA*
X119937506Y98143343D03*
G04 #@! TO.P,M7,V2,CAN_VIO*
G04 #@! TO.N,+3.3VA*
X120812508Y97618343D03*
G04 #@! TO.P,M7,V5,CAN_TX*
G04 #@! TO.N,E7INJ8CANTX*
X119637504Y96868345D03*
G04 #@! TO.P,M7,V6,CAN_RX*
G04 #@! TO.N,E6INJ7CANRX*
X119712507Y93318344D03*
G04 #@! TD*
G04 #@! TO.P,D5,1,K*
G04 #@! TO.N,PIN43*
G04 #@! TA.AperFunction,SMDPad,CuDef*
G36*
G01*
X10425005Y39350005D02*
X11725005Y39350005D01*
G75*
G02*
X11975005Y39100005I0J-250000D01*
G01*
X11975005Y37100005D01*
G75*
G02*
X11725005Y36850005I-250000J0D01*
G01*
X10425005Y36850005D01*
G75*
G02*
X10175005Y37100005I0J250000D01*
G01*
X10175005Y39100005D01*
G75*
G02*
X10425005Y39350005I250000J0D01*
G01*
G37*
G04 #@! TD.AperFunction*
G04 #@! TO.P,D5,2,A*
G04 #@! TO.N,PIN114*
G04 #@! TA.AperFunction,SMDPad,CuDef*
G36*
G01*
X10425005Y35350005D02*
X11725005Y35350005D01*
G75*
G02*
X11975005Y35100005I0J-250000D01*
G01*
X11975005Y33100005D01*
G75*
G02*
X11725005Y32850005I-250000J0D01*
G01*
X10425005Y32850005D01*
G75*
G02*
X10175005Y33100005I0J250000D01*
G01*
X10175005Y35100005D01*
G75*
G02*
X10425005Y35350005I250000J0D01*
G01*
G37*
G04 #@! TD.AperFunction*
G04 #@! TD*
G04 #@! TO.P,R15,1*
G04 #@! TO.N,N/C*
G04 #@! TA.AperFunction,SMDPad,CuDef*
G36*
G01*
X21225005Y46990005D02*
X21225005Y46210005D01*
G75*
G02*
X21155005Y46140005I-70000J0D01*
G01*
X20595005Y46140005D01*
G75*
G02*
X20525005Y46210005I0J70000D01*
G01*
X20525005Y46990005D01*
G75*
G02*
X20595005Y47060005I70000J0D01*
G01*
X21155005Y47060005D01*
G75*
G02*
X21225005Y46990005I0J-70000D01*
G01*
G37*
G04 #@! TD.AperFunction*
G04 #@! TO.P,R15,2*
G04 #@! TO.N,PIN114*
G04 #@! TA.AperFunction,SMDPad,CuDef*
G36*
G01*
X19625005Y46990005D02*
X19625005Y46210005D01*
G75*
G02*
X19555005Y46140005I-70000J0D01*
G01*
X18995005Y46140005D01*
G75*
G02*
X18925005Y46210005I0J70000D01*
G01*
X18925005Y46990005D01*
G75*
G02*
X18995005Y47060005I70000J0D01*
G01*
X19555005Y47060005D01*
G75*
G02*
X19625005Y46990005I0J-70000D01*
G01*
G37*
G04 #@! TD.AperFunction*
G04 #@! TD*
G04 #@! TO.P,R11,1*
G04 #@! TO.N,PIN113*
G04 #@! TA.AperFunction,SMDPad,CuDef*
G36*
G01*
X64025006Y65225005D02*
X64025006Y63975005D01*
G75*
G02*
X63925006Y63875005I-100000J0D01*
G01*
X63125006Y63875005D01*
G75*
G02*
X63025006Y63975005I0J100000D01*
G01*
X63025006Y65225005D01*
G75*
G02*
X63125006Y65325005I100000J0D01*
G01*
X63925006Y65325005D01*
G75*
G02*
X64025006Y65225005I0J-100000D01*
G01*
G37*
G04 #@! TD.AperFunction*
G04 #@! TO.P,R11,2*
G04 #@! TO.N,PIN85*
G04 #@! TA.AperFunction,SMDPad,CuDef*
G36*
G01*
X62124984Y65225005D02*
X62124984Y63975005D01*
G75*
G02*
X62024984Y63875005I-100000J0D01*
G01*
X61224984Y63875005D01*
G75*
G02*
X61124984Y63975005I0J100000D01*
G01*
X61124984Y65225005D01*
G75*
G02*
X61224984Y65325005I100000J0D01*
G01*
X62024984Y65325005D01*
G75*
G02*
X62124984Y65225005I0J-100000D01*
G01*
G37*
G04 #@! TD.AperFunction*
G04 #@! TD*
G04 #@! TO.P,R5,1*
G04 #@! TO.N,/IN_KNOCK*
G04 #@! TA.AperFunction,SMDPad,CuDef*
G36*
G01*
X67465005Y60250005D02*
X66685005Y60250005D01*
G75*
G02*
X66615005Y60320005I0J70000D01*
G01*
X66615005Y60880005D01*
G75*
G02*
X66685005Y60950005I70000J0D01*
G01*
X67465005Y60950005D01*
G75*
G02*
X67535005Y60880005I0J-70000D01*
G01*
X67535005Y60320005D01*
G75*
G02*
X67465005Y60250005I-70000J0D01*
G01*
G37*
G04 #@! TD.AperFunction*
G04 #@! TO.P,R5,2*
G04 #@! TO.N,/ADC3*
G04 #@! TA.AperFunction,SMDPad,CuDef*
G36*
G01*
X67465005Y61850005D02*
X66685005Y61850005D01*
G75*
G02*
X66615005Y61920005I0J70000D01*
G01*
X66615005Y62480005D01*
G75*
G02*
X66685005Y62550005I70000J0D01*
G01*
X67465005Y62550005D01*
G75*
G02*
X67535005Y62480005I0J-70000D01*
G01*
X67535005Y61920005D01*
G75*
G02*
X67465005Y61850005I-70000J0D01*
G01*
G37*
G04 #@! TD.AperFunction*
G04 #@! TD*
G04 #@! TO.P,Q4,1,G*
G04 #@! TO.N,Net-(Q4-G)*
G04 #@! TA.AperFunction,SMDPad,CuDef*
G36*
G01*
X105810005Y55175005D02*
X106510005Y55175005D01*
G75*
G02*
X106760005Y54925005I0J-250000D01*
G01*
X106760005Y53225005D01*
G75*
G02*
X106510005Y52975005I-250000J0D01*
G01*
X105810005Y52975005D01*
G75*
G02*
X105560005Y53225005I0J250000D01*
G01*
X105560005Y54925005D01*
G75*
G02*
X105810005Y55175005I250000J0D01*
G01*
G37*
G04 #@! TD.AperFunction*
G04 #@! TO.P,Q4,2,C*
G04 #@! TO.N,PIN9*
G04 #@! TA.AperFunction,SMDPad,CuDef*
G36*
G01*
X104280005Y50975005D02*
X106530005Y50975005D01*
G75*
G02*
X106780005Y50725005I0J-250000D01*
G01*
X106780005Y48175005D01*
G75*
G02*
X106530005Y47925005I-250000J0D01*
G01*
X104280005Y47925005D01*
G75*
G02*
X104030005Y48175005I0J250000D01*
G01*
X104030005Y50725005D01*
G75*
G02*
X104280005Y50975005I250000J0D01*
G01*
G37*
G04 #@! TD.AperFunction*
G04 #@! TA.AperFunction,SMDPad,CuDef*
G36*
G01*
X101230005Y50975005D02*
X103480005Y50975005D01*
G75*
G02*
X103730005Y50725005I0J-250000D01*
G01*
X103730005Y48175005D01*
G75*
G02*
X103480005Y47925005I-250000J0D01*
G01*
X101230005Y47925005D01*
G75*
G02*
X100980005Y48175005I0J250000D01*
G01*
X100980005Y50725005D01*
G75*
G02*
X101230005Y50975005I250000J0D01*
G01*
G37*
G04 #@! TD.AperFunction*
G04 #@! TA.AperFunction,SMDPad,CuDef*
G36*
G01*
X101230002Y50975005D02*
X106530008Y50975005D01*
G75*
G02*
X106780005Y50725008I0J-249997D01*
G01*
X106780005Y44825002D01*
G75*
G02*
X106530008Y44575005I-249997J0D01*
G01*
X101230002Y44575005D01*
G75*
G02*
X100980005Y44825002I0J249997D01*
G01*
X100980005Y50725008D01*
G75*
G02*
X101230002Y50975005I249997J0D01*
G01*
G37*
G04 #@! TD.AperFunction*
G04 #@! TA.AperFunction,SMDPad,CuDef*
G36*
G01*
X104280005Y47625005D02*
X106530005Y47625005D01*
G75*
G02*
X106780005Y47375005I0J-250000D01*
G01*
X106780005Y44825005D01*
G75*
G02*
X106530005Y44575005I-250000J0D01*
G01*
X104280005Y44575005D01*
G75*
G02*
X104030005Y44825005I0J250000D01*
G01*
X104030005Y47375005D01*
G75*
G02*
X104280005Y47625005I250000J0D01*
G01*
G37*
G04 #@! TD.AperFunction*
G04 #@! TA.AperFunction,SMDPad,CuDef*
G36*
G01*
X101230005Y47625005D02*
X103480005Y47625005D01*
G75*
G02*
X103730005Y47375005I0J-250000D01*
G01*
X103730005Y44825005D01*
G75*
G02*
X103480005Y44575005I-250000J0D01*
G01*
X101230005Y44575005D01*
G75*
G02*
X100980005Y44825005I0J250000D01*
G01*
X100980005Y47375005D01*
G75*
G02*
X101230005Y47625005I250000J0D01*
G01*
G37*
G04 #@! TD.AperFunction*
G04 #@! TO.P,Q4,3,E*
G04 #@! TO.N,PIN114*
G04 #@! TA.AperFunction,SMDPad,CuDef*
G36*
G01*
X101250005Y55175005D02*
X101950005Y55175005D01*
G75*
G02*
X102200005Y54925005I0J-250000D01*
G01*
X102200005Y53225005D01*
G75*
G02*
X101950005Y52975005I-250000J0D01*
G01*
X101250005Y52975005D01*
G75*
G02*
X101000005Y53225005I0J250000D01*
G01*
X101000005Y54925005D01*
G75*
G02*
X101250005Y55175005I250000J0D01*
G01*
G37*
G04 #@! TD.AperFunction*
G04 #@! TD*
G04 #@! TO.P,R10,1*
G04 #@! TO.N,PIN113*
G04 #@! TA.AperFunction,SMDPad,CuDef*
G36*
G01*
X64025006Y62225005D02*
X64025006Y60975005D01*
G75*
G02*
X63925006Y60875005I-100000J0D01*
G01*
X63125006Y60875005D01*
G75*
G02*
X63025006Y60975005I0J100000D01*
G01*
X63025006Y62225005D01*
G75*
G02*
X63125006Y62325005I100000J0D01*
G01*
X63925006Y62325005D01*
G75*
G02*
X64025006Y62225005I0J-100000D01*
G01*
G37*
G04 #@! TD.AperFunction*
G04 #@! TO.P,R10,2*
G04 #@! TO.N,PIN84*
G04 #@! TA.AperFunction,SMDPad,CuDef*
G36*
G01*
X62124984Y62225005D02*
X62124984Y60975005D01*
G75*
G02*
X62024984Y60875005I-100000J0D01*
G01*
X61224984Y60875005D01*
G75*
G02*
X61124984Y60975005I0J100000D01*
G01*
X61124984Y62225005D01*
G75*
G02*
X61224984Y62325005I100000J0D01*
G01*
X62024984Y62325005D01*
G75*
G02*
X62124984Y62225005I0J-100000D01*
G01*
G37*
G04 #@! TD.AperFunction*
G04 #@! TD*
G04 #@! TO.P,R1,1*
G04 #@! TO.N,PIN106*
G04 #@! TA.AperFunction,SMDPad,CuDef*
G36*
G01*
X53185005Y50250005D02*
X53965005Y50250005D01*
G75*
G02*
X54035005Y50180005I0J-70000D01*
G01*
X54035005Y49620005D01*
G75*
G02*
X53965005Y49550005I-70000J0D01*
G01*
X53185005Y49550005D01*
G75*
G02*
X53115005Y49620005I0J70000D01*
G01*
X53115005Y50180005D01*
G75*
G02*
X53185005Y50250005I70000J0D01*
G01*
G37*
G04 #@! TD.AperFunction*
G04 #@! TO.P,R1,2*
G04 #@! TO.N,PIN20*
G04 #@! TA.AperFunction,SMDPad,CuDef*
G36*
G01*
X53185005Y48650005D02*
X53965005Y48650005D01*
G75*
G02*
X54035005Y48580005I0J-70000D01*
G01*
X54035005Y48020005D01*
G75*
G02*
X53965005Y47950005I-70000J0D01*
G01*
X53185005Y47950005D01*
G75*
G02*
X53115005Y48020005I0J70000D01*
G01*
X53115005Y48580005D01*
G75*
G02*
X53185005Y48650005I70000J0D01*
G01*
G37*
G04 #@! TD.AperFunction*
G04 #@! TD*
D36*
G04 #@! TO.P,R4,1,1*
G04 #@! TO.N,Net-(M1-PG_5VP)*
X110575005Y92145006D03*
G04 #@! TA.AperFunction,SMDPad,CuDef*
G36*
G01*
X111200005Y92600005D02*
X109950005Y92600005D01*
G75*
G02*
X109850005Y92700005I0J100000D01*
G01*
X109850005Y93500005D01*
G75*
G02*
X109950005Y93600005I100000J0D01*
G01*
X111200005Y93600005D01*
G75*
G02*
X111300005Y93500005I0J-100000D01*
G01*
X111300005Y92700005D01*
G75*
G02*
X111200005Y92600005I-100000J0D01*
G01*
G37*
G04 #@! TD.AperFunction*
G04 #@! TO.P,R4,2,2*
G04 #@! TO.N,/PG_5VP*
G04 #@! TA.AperFunction,SMDPad,CuDef*
G36*
G01*
X111200005Y94500027D02*
X109950005Y94500027D01*
G75*
G02*
X109850005Y94600027I0J100000D01*
G01*
X109850005Y95400027D01*
G75*
G02*
X109950005Y95500027I100000J0D01*
G01*
X111200005Y95500027D01*
G75*
G02*
X111300005Y95400027I0J-100000D01*
G01*
X111300005Y94600027D01*
G75*
G02*
X111200005Y94500027I-100000J0D01*
G01*
G37*
G04 #@! TD.AperFunction*
X110575005Y95955006D03*
G04 #@! TD*
G04 #@! TO.P,D6,1,K*
G04 #@! TO.N,N/C*
G04 #@! TA.AperFunction,SMDPad,CuDef*
G36*
G01*
X126775005Y51425005D02*
X126475005Y51425005D01*
G75*
G02*
X126325005Y51575005I0J150000D01*
G01*
X126325005Y52750005D01*
G75*
G02*
X126475005Y52900005I150000J0D01*
G01*
X126775005Y52900005D01*
G75*
G02*
X126925005Y52750005I0J-150000D01*
G01*
X126925005Y51575005D01*
G75*
G02*
X126775005Y51425005I-150000J0D01*
G01*
G37*
G04 #@! TD.AperFunction*
G04 #@! TO.P,D6,2,K*
G04 #@! TA.AperFunction,SMDPad,CuDef*
G36*
G01*
X128675005Y51425005D02*
X128375005Y51425005D01*
G75*
G02*
X128225005Y51575005I0J150000D01*
G01*
X128225005Y52750005D01*
G75*
G02*
X128375005Y52900005I150000J0D01*
G01*
X128675005Y52900005D01*
G75*
G02*
X128825005Y52750005I0J-150000D01*
G01*
X128825005Y51575005D01*
G75*
G02*
X128675005Y51425005I-150000J0D01*
G01*
G37*
G04 #@! TD.AperFunction*
G04 #@! TO.P,D6,3,A*
G04 #@! TO.N,PIN114*
G04 #@! TA.AperFunction,SMDPad,CuDef*
G36*
G01*
X127725005Y53300005D02*
X127425005Y53300005D01*
G75*
G02*
X127275005Y53450005I0J150000D01*
G01*
X127275005Y54625005D01*
G75*
G02*
X127425005Y54775005I150000J0D01*
G01*
X127725005Y54775005D01*
G75*
G02*
X127875005Y54625005I0J-150000D01*
G01*
X127875005Y53450005D01*
G75*
G02*
X127725005Y53300005I-150000J0D01*
G01*
G37*
G04 #@! TD.AperFunction*
G04 #@! TD*
G04 #@! TO.P,C29,1*
G04 #@! TO.N,N/C*
G04 #@! TA.AperFunction,SMDPad,CuDef*
G36*
G01*
X126360004Y55760005D02*
X126360004Y56440005D01*
G75*
G02*
X126445004Y56525005I85000J0D01*
G01*
X127125004Y56525005D01*
G75*
G02*
X127210004Y56440005I0J-85000D01*
G01*
X127210004Y55760005D01*
G75*
G02*
X127125004Y55675005I-85000J0D01*
G01*
X126445004Y55675005D01*
G75*
G02*
X126360004Y55760005I0J85000D01*
G01*
G37*
G04 #@! TD.AperFunction*
G04 #@! TO.P,C29,2*
G04 #@! TA.AperFunction,SMDPad,CuDef*
G36*
G01*
X127940006Y55760005D02*
X127940006Y56440005D01*
G75*
G02*
X128025006Y56525005I85000J0D01*
G01*
X128705006Y56525005D01*
G75*
G02*
X128790006Y56440005I0J-85000D01*
G01*
X128790006Y55760005D01*
G75*
G02*
X128705006Y55675005I-85000J0D01*
G01*
X128025006Y55675005D01*
G75*
G02*
X127940006Y55760005I0J85000D01*
G01*
G37*
G04 #@! TD.AperFunction*
G04 #@! TD*
D14*
G04 #@! TO.P,M4,E1,NC*
G04 #@! TO.N,unconnected-(M4-NC-PadE1)*
X58275005Y58237505D03*
G04 #@! TO.P,M4,E2,NC*
G04 #@! TO.N,unconnected-(M4-NC-PadE2)*
X59475005Y58237505D03*
G04 #@! TO.P,M4,E3,OUT*
G04 #@! TO.N,/VR_MAX9924*
X57075005Y58237505D03*
G04 #@! TO.P,M4,E4,V5_IN*
G04 #@! TO.N,+5VA*
X55875005Y58237505D03*
D49*
G04 #@! TO.P,M4,G,GND*
G04 #@! TO.N,PIN114*
X58542505Y43587505D03*
D50*
X64592505Y43587505D03*
D51*
X55575005Y50600005D03*
D52*
X65025005Y51012505D03*
D53*
X62562505Y58437505D03*
D14*
G04 #@! TO.P,M4,W1,VR-*
G04 #@! TO.N,PIN20*
X62335005Y43812505D03*
G04 #@! TO.P,M4,W2,VR+*
G04 #@! TO.N,PIN19*
X63335005Y43812505D03*
G04 #@! TD*
G04 #@! TO.P,U6,1,IN1*
G04 #@! TO.N,Net-(U6-IN1)*
G04 #@! TA.AperFunction,SMDPad,CuDef*
G36*
G01*
X95695005Y64050005D02*
X95995005Y64050005D01*
G75*
G02*
X96145005Y63900005I0J-150000D01*
G01*
X96145005Y62250005D01*
G75*
G02*
X95995005Y62100005I-150000J0D01*
G01*
X95695005Y62100005D01*
G75*
G02*
X95545005Y62250005I0J150000D01*
G01*
X95545005Y63900005D01*
G75*
G02*
X95695005Y64050005I150000J0D01*
G01*
G37*
G04 #@! TD.AperFunction*
G04 #@! TO.P,U6,2,STATUS1*
G04 #@! TO.N,unconnected-(U6-STATUS1-Pad2)*
G04 #@! TA.AperFunction,SMDPad,CuDef*
G36*
G01*
X94425005Y64050005D02*
X94725005Y64050005D01*
G75*
G02*
X94875005Y63900005I0J-150000D01*
G01*
X94875005Y62250005D01*
G75*
G02*
X94725005Y62100005I-150000J0D01*
G01*
X94425005Y62100005D01*
G75*
G02*
X94275005Y62250005I0J150000D01*
G01*
X94275005Y63900005D01*
G75*
G02*
X94425005Y64050005I150000J0D01*
G01*
G37*
G04 #@! TD.AperFunction*
G04 #@! TO.P,U6,3,IN2*
G04 #@! TO.N,Net-(U6-IN2)*
G04 #@! TA.AperFunction,SMDPad,CuDef*
G36*
G01*
X93155005Y64050005D02*
X93455005Y64050005D01*
G75*
G02*
X93605005Y63900005I0J-150000D01*
G01*
X93605005Y62250005D01*
G75*
G02*
X93455005Y62100005I-150000J0D01*
G01*
X93155005Y62100005D01*
G75*
G02*
X93005005Y62250005I0J150000D01*
G01*
X93005005Y63900005D01*
G75*
G02*
X93155005Y64050005I150000J0D01*
G01*
G37*
G04 #@! TD.AperFunction*
G04 #@! TO.P,U6,4,STATUS2*
G04 #@! TO.N,unconnected-(U6-STATUS2-Pad4)*
G04 #@! TA.AperFunction,SMDPad,CuDef*
G36*
G01*
X91885005Y64050005D02*
X92185005Y64050005D01*
G75*
G02*
X92335005Y63900005I0J-150000D01*
G01*
X92335005Y62250005D01*
G75*
G02*
X92185005Y62100005I-150000J0D01*
G01*
X91885005Y62100005D01*
G75*
G02*
X91735005Y62250005I0J150000D01*
G01*
X91735005Y63900005D01*
G75*
G02*
X91885005Y64050005I150000J0D01*
G01*
G37*
G04 #@! TD.AperFunction*
G04 #@! TO.P,U6,5,S2*
G04 #@! TO.N,PIN114*
G04 #@! TA.AperFunction,SMDPad,CuDef*
G36*
G01*
X91885005Y59100005D02*
X92185005Y59100005D01*
G75*
G02*
X92335005Y58950005I0J-150000D01*
G01*
X92335005Y57300005D01*
G75*
G02*
X92185005Y57150005I-150000J0D01*
G01*
X91885005Y57150005D01*
G75*
G02*
X91735005Y57300005I0J150000D01*
G01*
X91735005Y58950005D01*
G75*
G02*
X91885005Y59100005I150000J0D01*
G01*
G37*
G04 #@! TD.AperFunction*
G04 #@! TO.P,U6,6,D2*
G04 #@! TO.N,PIN49*
G04 #@! TA.AperFunction,SMDPad,CuDef*
G36*
G01*
X93155005Y59100005D02*
X93455005Y59100005D01*
G75*
G02*
X93605005Y58950005I0J-150000D01*
G01*
X93605005Y57300005D01*
G75*
G02*
X93455005Y57150005I-150000J0D01*
G01*
X93155005Y57150005D01*
G75*
G02*
X93005005Y57300005I0J150000D01*
G01*
X93005005Y58950005D01*
G75*
G02*
X93155005Y59100005I150000J0D01*
G01*
G37*
G04 #@! TD.AperFunction*
G04 #@! TO.P,U6,7,S1*
G04 #@! TO.N,PIN114*
G04 #@! TA.AperFunction,SMDPad,CuDef*
G36*
G01*
X94425005Y59100005D02*
X94725005Y59100005D01*
G75*
G02*
X94875005Y58950005I0J-150000D01*
G01*
X94875005Y57300005D01*
G75*
G02*
X94725005Y57150005I-150000J0D01*
G01*
X94425005Y57150005D01*
G75*
G02*
X94275005Y57300005I0J150000D01*
G01*
X94275005Y58950005D01*
G75*
G02*
X94425005Y59100005I150000J0D01*
G01*
G37*
G04 #@! TD.AperFunction*
G04 #@! TO.P,U6,8,D1*
G04 #@! TO.N,PIN48*
G04 #@! TA.AperFunction,SMDPad,CuDef*
G36*
G01*
X95695005Y59100005D02*
X95995005Y59100005D01*
G75*
G02*
X96145005Y58950005I0J-150000D01*
G01*
X96145005Y57300005D01*
G75*
G02*
X95995005Y57150005I-150000J0D01*
G01*
X95695005Y57150005D01*
G75*
G02*
X95545005Y57300005I0J150000D01*
G01*
X95545005Y58950005D01*
G75*
G02*
X95695005Y59100005I150000J0D01*
G01*
G37*
G04 #@! TD.AperFunction*
G04 #@! TD*
G04 #@! TO.P,Q7,1,G*
G04 #@! TO.N,N/C*
G04 #@! TA.AperFunction,SMDPad,CuDef*
G36*
G01*
X20875005Y44275005D02*
X21175005Y44275005D01*
G75*
G02*
X21325005Y44125005I0J-150000D01*
G01*
X21325005Y42950005D01*
G75*
G02*
X21175005Y42800005I-150000J0D01*
G01*
X20875005Y42800005D01*
G75*
G02*
X20725005Y42950005I0J150000D01*
G01*
X20725005Y44125005D01*
G75*
G02*
X20875005Y44275005I150000J0D01*
G01*
G37*
G04 #@! TD.AperFunction*
G04 #@! TO.P,Q7,2,S*
G04 #@! TO.N,PIN114*
G04 #@! TA.AperFunction,SMDPad,CuDef*
G36*
G01*
X18975005Y44275005D02*
X19275005Y44275005D01*
G75*
G02*
X19425005Y44125005I0J-150000D01*
G01*
X19425005Y42950005D01*
G75*
G02*
X19275005Y42800005I-150000J0D01*
G01*
X18975005Y42800005D01*
G75*
G02*
X18825005Y42950005I0J150000D01*
G01*
X18825005Y44125005D01*
G75*
G02*
X18975005Y44275005I150000J0D01*
G01*
G37*
G04 #@! TD.AperFunction*
G04 #@! TO.P,Q7,3,D*
G04 #@! TO.N,N/C*
G04 #@! TA.AperFunction,SMDPad,CuDef*
G36*
G01*
X19925005Y42400005D02*
X20225005Y42400005D01*
G75*
G02*
X20375005Y42250005I0J-150000D01*
G01*
X20375005Y41075005D01*
G75*
G02*
X20225005Y40925005I-150000J0D01*
G01*
X19925005Y40925005D01*
G75*
G02*
X19775005Y41075005I0J150000D01*
G01*
X19775005Y42250005D01*
G75*
G02*
X19925005Y42400005I150000J0D01*
G01*
G37*
G04 #@! TD.AperFunction*
G04 #@! TD*
G04 #@! TO.P,J21,1,Pin_1*
G04 #@! TO.N,/VBUS*
G04 #@! TA.AperFunction,ComponentPad*
G36*
G01*
X128925005Y105425005D02*
X128925005Y104075005D01*
G75*
G02*
X128675005Y103825005I-250000J0D01*
G01*
X127475005Y103825005D01*
G75*
G02*
X127225005Y104075005I0J250000D01*
G01*
X127225005Y105425005D01*
G75*
G02*
X127475005Y105675005I250000J0D01*
G01*
X128675005Y105675005D01*
G75*
G02*
X128925005Y105425005I0J-250000D01*
G01*
G37*
G04 #@! TD.AperFunction*
D61*
G04 #@! TO.P,J21,2,Pin_2*
G04 #@! TO.N,/USB-*
X125575005Y104750005D03*
G04 #@! TO.P,J21,3,Pin_3*
G04 #@! TO.N,/USB+*
X123075005Y104750005D03*
G04 #@! TO.P,J21,4,Pin_4*
G04 #@! TO.N,PIN114*
X120575005Y104750005D03*
G04 #@! TO.P,J21,5,Pin_5*
X118075005Y104750005D03*
G04 #@! TD*
G04 #@! TO.P,U5,1,IN1*
G04 #@! TO.N,Net-(U5-IN1)*
G04 #@! TA.AperFunction,SMDPad,CuDef*
G36*
G01*
X102830005Y64050005D02*
X103130005Y64050005D01*
G75*
G02*
X103280005Y63900005I0J-150000D01*
G01*
X103280005Y62250005D01*
G75*
G02*
X103130005Y62100005I-150000J0D01*
G01*
X102830005Y62100005D01*
G75*
G02*
X102680005Y62250005I0J150000D01*
G01*
X102680005Y63900005D01*
G75*
G02*
X102830005Y64050005I150000J0D01*
G01*
G37*
G04 #@! TD.AperFunction*
G04 #@! TO.P,U5,2,STATUS1*
G04 #@! TO.N,unconnected-(U5-STATUS1-Pad2)*
G04 #@! TA.AperFunction,SMDPad,CuDef*
G36*
G01*
X101560005Y64050005D02*
X101860005Y64050005D01*
G75*
G02*
X102010005Y63900005I0J-150000D01*
G01*
X102010005Y62250005D01*
G75*
G02*
X101860005Y62100005I-150000J0D01*
G01*
X101560005Y62100005D01*
G75*
G02*
X101410005Y62250005I0J150000D01*
G01*
X101410005Y63900005D01*
G75*
G02*
X101560005Y64050005I150000J0D01*
G01*
G37*
G04 #@! TD.AperFunction*
G04 #@! TO.P,U5,3,IN2*
G04 #@! TO.N,Net-(U5-IN2)*
G04 #@! TA.AperFunction,SMDPad,CuDef*
G36*
G01*
X100290005Y64050005D02*
X100590005Y64050005D01*
G75*
G02*
X100740005Y63900005I0J-150000D01*
G01*
X100740005Y62250005D01*
G75*
G02*
X100590005Y62100005I-150000J0D01*
G01*
X100290005Y62100005D01*
G75*
G02*
X100140005Y62250005I0J150000D01*
G01*
X100140005Y63900005D01*
G75*
G02*
X100290005Y64050005I150000J0D01*
G01*
G37*
G04 #@! TD.AperFunction*
G04 #@! TO.P,U5,4,STATUS2*
G04 #@! TO.N,unconnected-(U5-STATUS2-Pad4)*
G04 #@! TA.AperFunction,SMDPad,CuDef*
G36*
G01*
X99020005Y64050005D02*
X99320005Y64050005D01*
G75*
G02*
X99470005Y63900005I0J-150000D01*
G01*
X99470005Y62250005D01*
G75*
G02*
X99320005Y62100005I-150000J0D01*
G01*
X99020005Y62100005D01*
G75*
G02*
X98870005Y62250005I0J150000D01*
G01*
X98870005Y63900005D01*
G75*
G02*
X99020005Y64050005I150000J0D01*
G01*
G37*
G04 #@! TD.AperFunction*
G04 #@! TO.P,U5,5,S2*
G04 #@! TO.N,PIN114*
G04 #@! TA.AperFunction,SMDPad,CuDef*
G36*
G01*
X99020005Y59100005D02*
X99320005Y59100005D01*
G75*
G02*
X99470005Y58950005I0J-150000D01*
G01*
X99470005Y57300005D01*
G75*
G02*
X99320005Y57150005I-150000J0D01*
G01*
X99020005Y57150005D01*
G75*
G02*
X98870005Y57300005I0J150000D01*
G01*
X98870005Y58950005D01*
G75*
G02*
X99020005Y59100005I150000J0D01*
G01*
G37*
G04 #@! TD.AperFunction*
G04 #@! TO.P,U5,6,D2*
G04 #@! TO.N,PIN47*
G04 #@! TA.AperFunction,SMDPad,CuDef*
G36*
G01*
X100290005Y59100005D02*
X100590005Y59100005D01*
G75*
G02*
X100740005Y58950005I0J-150000D01*
G01*
X100740005Y57300005D01*
G75*
G02*
X100590005Y57150005I-150000J0D01*
G01*
X100290005Y57150005D01*
G75*
G02*
X100140005Y57300005I0J150000D01*
G01*
X100140005Y58950005D01*
G75*
G02*
X100290005Y59100005I150000J0D01*
G01*
G37*
G04 #@! TD.AperFunction*
G04 #@! TO.P,U5,7,S1*
G04 #@! TO.N,PIN114*
G04 #@! TA.AperFunction,SMDPad,CuDef*
G36*
G01*
X101560005Y59100005D02*
X101860005Y59100005D01*
G75*
G02*
X102010005Y58950005I0J-150000D01*
G01*
X102010005Y57300005D01*
G75*
G02*
X101860005Y57150005I-150000J0D01*
G01*
X101560005Y57150005D01*
G75*
G02*
X101410005Y57300005I0J150000D01*
G01*
X101410005Y58950005D01*
G75*
G02*
X101560005Y59100005I150000J0D01*
G01*
G37*
G04 #@! TD.AperFunction*
G04 #@! TO.P,U5,8,D1*
G04 #@! TO.N,PIN46*
G04 #@! TA.AperFunction,SMDPad,CuDef*
G36*
G01*
X102830005Y59100005D02*
X103130005Y59100005D01*
G75*
G02*
X103280005Y58950005I0J-150000D01*
G01*
X103280005Y57300005D01*
G75*
G02*
X103130005Y57150005I-150000J0D01*
G01*
X102830005Y57150005D01*
G75*
G02*
X102680005Y57300005I0J150000D01*
G01*
X102680005Y58950005D01*
G75*
G02*
X102830005Y59100005I150000J0D01*
G01*
G37*
G04 #@! TD.AperFunction*
G04 #@! TD*
G04 #@! TO.P,C28,1*
G04 #@! TO.N,PIN114*
G04 #@! TA.AperFunction,SMDPad,CuDef*
G36*
G01*
X126500005Y48940005D02*
X126500005Y48260005D01*
G75*
G02*
X126415005Y48175005I-85000J0D01*
G01*
X125735005Y48175005D01*
G75*
G02*
X125650005Y48260005I0J85000D01*
G01*
X125650005Y48940005D01*
G75*
G02*
X125735005Y49025005I85000J0D01*
G01*
X126415005Y49025005D01*
G75*
G02*
X126500005Y48940005I0J-85000D01*
G01*
G37*
G04 #@! TD.AperFunction*
G04 #@! TO.P,C28,2*
G04 #@! TO.N,N/C*
G04 #@! TA.AperFunction,SMDPad,CuDef*
G36*
G01*
X124920003Y48940005D02*
X124920003Y48260005D01*
G75*
G02*
X124835003Y48175005I-85000J0D01*
G01*
X124155003Y48175005D01*
G75*
G02*
X124070003Y48260005I0J85000D01*
G01*
X124070003Y48940005D01*
G75*
G02*
X124155003Y49025005I85000J0D01*
G01*
X124835003Y49025005D01*
G75*
G02*
X124920003Y48940005I0J-85000D01*
G01*
G37*
G04 #@! TD.AperFunction*
G04 #@! TD*
D62*
G04 #@! TO.P,M8,G,GND*
G04 #@! TO.N,PIN114*
X44400005Y62775005D03*
D63*
X42300005Y62275005D03*
D64*
X52100005Y57875005D03*
X42300005Y55675005D03*
D65*
X52100005Y51075005D03*
D66*
X42300005Y49975005D03*
D67*
X47200005Y49175005D03*
D14*
G04 #@! TO.P,M8,N1,MOSI*
G04 #@! TO.N,N/C*
X51900005Y61775005D03*
D68*
G04 #@! TO.P,M8,N2,12V_IN*
G04 #@! TO.N,Net-(F3-Pad2)*
X51700005Y53775005D03*
G04 #@! TO.P,M8,S1,12V_IN*
X42700005Y60975005D03*
G04 #@! TO.P,M8,S2,OUT-*
G04 #@! TO.N,PIN2*
X42700005Y59775005D03*
G04 #@! TO.P,M8,S3,OUT+*
G04 #@! TO.N,PIN1*
X42700005Y51575005D03*
D14*
G04 #@! TO.P,M8,W1,DIS*
G04 #@! TO.N,DC1_DIS_W1*
X51900005Y62575005D03*
G04 #@! TO.P,M8,W2,PWM*
G04 #@! TO.N,/DC1_PWM*
X51100005Y62575005D03*
G04 #@! TO.P,M8,W3,SCLK*
G04 #@! TO.N,N/C*
X50300005Y62575005D03*
G04 #@! TO.P,M8,W4,DIR*
G04 #@! TO.N,/DC1_DIR*
X49500005Y62575005D03*
G04 #@! TO.P,M8,W5,3V3_IN*
G04 #@! TO.N,+3.3V*
X48700005Y62575005D03*
G04 #@! TO.P,M8,W6,MISO*
G04 #@! TO.N,N/C*
X47900005Y62575005D03*
G04 #@! TO.P,M8,W7,~CS*
X47100005Y62575005D03*
G04 #@! TD*
G04 #@! TO.P,C30,1*
G04 #@! TO.N,PIN114*
G04 #@! TA.AperFunction,SMDPad,CuDef*
G36*
G01*
X126150005Y49260005D02*
X126150005Y49940005D01*
G75*
G02*
X126235005Y50025005I85000J0D01*
G01*
X126915005Y50025005D01*
G75*
G02*
X127000005Y49940005I0J-85000D01*
G01*
X127000005Y49260005D01*
G75*
G02*
X126915005Y49175005I-85000J0D01*
G01*
X126235005Y49175005D01*
G75*
G02*
X126150005Y49260005I0J85000D01*
G01*
G37*
G04 #@! TD.AperFunction*
G04 #@! TO.P,C30,2*
G04 #@! TO.N,N/C*
G04 #@! TA.AperFunction,SMDPad,CuDef*
G36*
G01*
X127730007Y49260005D02*
X127730007Y49940005D01*
G75*
G02*
X127815007Y50025005I85000J0D01*
G01*
X128495007Y50025005D01*
G75*
G02*
X128580007Y49940005I0J-85000D01*
G01*
X128580007Y49260005D01*
G75*
G02*
X128495007Y49175005I-85000J0D01*
G01*
X127815007Y49175005D01*
G75*
G02*
X127730007Y49260005I0J85000D01*
G01*
G37*
G04 #@! TD.AperFunction*
G04 #@! TD*
G04 #@! TO.P,C31,1*
G04 #@! TO.N,PIN114*
G04 #@! TA.AperFunction,SMDPad,CuDef*
G36*
G01*
X128235005Y61315006D02*
X128915005Y61315006D01*
G75*
G02*
X129000005Y61230006I0J-85000D01*
G01*
X129000005Y60550006D01*
G75*
G02*
X128915005Y60465006I-85000J0D01*
G01*
X128235005Y60465006D01*
G75*
G02*
X128150005Y60550006I0J85000D01*
G01*
X128150005Y61230006D01*
G75*
G02*
X128235005Y61315006I85000J0D01*
G01*
G37*
G04 #@! TD.AperFunction*
G04 #@! TO.P,C31,2*
G04 #@! TO.N,+3.3VA*
G04 #@! TA.AperFunction,SMDPad,CuDef*
G36*
G01*
X128235005Y59735004D02*
X128915005Y59735004D01*
G75*
G02*
X129000005Y59650004I0J-85000D01*
G01*
X129000005Y58970004D01*
G75*
G02*
X128915005Y58885004I-85000J0D01*
G01*
X128235005Y58885004D01*
G75*
G02*
X128150005Y58970004I0J85000D01*
G01*
X128150005Y59650004D01*
G75*
G02*
X128235005Y59735004I85000J0D01*
G01*
G37*
G04 #@! TD.AperFunction*
G04 #@! TD*
G04 #@! TO.P,M2,E1,V5A*
G04 #@! TO.N,+5VA*
X54050005Y46175004D03*
D69*
G04 #@! TO.P,M2,E2,GND*
G04 #@! TO.N,PIN114*
X45150005Y44200004D03*
D70*
X49700005Y46775004D03*
X49700005Y43675004D03*
D14*
X54050005Y45225004D03*
G04 #@! TO.P,M2,E3,OUT_KNOCK*
G04 #@! TO.N,/IN_KNOCK*
X54050005Y44275006D03*
G04 #@! TO.P,M2,W1,IN_KNOCK*
G04 #@! TO.N,PIN81*
X45350005Y45275004D03*
G04 #@! TO.P,M2,W2,VREF*
G04 #@! TO.N,/VREF1*
X45350005Y46175004D03*
G04 #@! TD*
D71*
G04 #@! TO.N,PIN114*
X2600000Y30750000D03*
X2600000Y21350000D03*
X2600000Y85725000D03*
X2600000Y72150000D03*
X2600000Y96600000D03*
X114400000Y114950000D03*
X2750000Y14525000D03*
X103875000Y115000000D03*
X160900000Y32225000D03*
X2600000Y40775000D03*
X160900000Y42250000D03*
X26825000Y114975000D03*
X70950000Y114975000D03*
X48875000Y114975000D03*
X148025000Y115000000D03*
X160900000Y87200000D03*
X125950000Y115000000D03*
X160900000Y52775000D03*
X160900000Y14850000D03*
X160900000Y98075000D03*
X160900000Y62675000D03*
X15950000Y114975000D03*
X60675000Y114975000D03*
X2600000Y51300000D03*
X160900000Y22825000D03*
X81825000Y115000000D03*
X136475000Y114950000D03*
X92450000Y115000000D03*
X2600000Y61200000D03*
X37450000Y114975000D03*
X160900000Y73625000D03*
G04 #@! TD*
G04 #@! TA.AperFunction,Conductor*
G04 #@! TO.N,PIN114*
G36*
X149662602Y117788998D02*
G01*
X149683576Y117772095D01*
X150912095Y116543576D01*
X150946121Y116481264D01*
X150949000Y116454481D01*
X150949000Y114091859D01*
X150949001Y114091845D01*
X150949001Y113851150D01*
X150985274Y113274615D01*
X150985274Y113274614D01*
X151057675Y112701507D01*
X151057677Y112701494D01*
X151165924Y112134046D01*
X151165925Y112134038D01*
X151309582Y111574535D01*
X151309589Y111574511D01*
X151488098Y111025120D01*
X151700754Y110488012D01*
X151700762Y110487994D01*
X151946713Y109965323D01*
X151946717Y109965315D01*
X152225015Y109459092D01*
X152225016Y109459091D01*
X152225024Y109459077D01*
X152534548Y108971346D01*
X152534556Y108971334D01*
X152874092Y108504004D01*
X152874101Y108503992D01*
X153132686Y108191415D01*
X153242328Y108058880D01*
X153637773Y107637774D01*
X153863823Y107425500D01*
X154058883Y107242327D01*
X154058890Y107242321D01*
X154058899Y107242313D01*
X154270276Y107067447D01*
X154503991Y106874101D01*
X154503994Y106874099D01*
X154503995Y106874098D01*
X154504002Y106874093D01*
X154959923Y106542847D01*
X154971342Y106534551D01*
X155459091Y106225016D01*
X155965314Y105946718D01*
X156488012Y105700754D01*
X157025123Y105488097D01*
X157276675Y105406363D01*
X157574510Y105309590D01*
X157574534Y105309583D01*
X158134037Y105165926D01*
X158134043Y105165926D01*
X158134056Y105165922D01*
X158701501Y105057676D01*
X159106005Y105006576D01*
X159274614Y104985275D01*
X159274618Y104985275D01*
X159274624Y104985274D01*
X159851149Y104949002D01*
X159851151Y104949001D01*
X159851161Y104949001D01*
X160102008Y104949001D01*
X162454482Y104949001D01*
X162522603Y104928999D01*
X162543577Y104912096D01*
X163772095Y103683578D01*
X163806121Y103621266D01*
X163809000Y103594483D01*
X163809000Y80467001D01*
X163788998Y80398880D01*
X163735342Y80352387D01*
X163683000Y80341001D01*
X161649996Y80341001D01*
X161649976Y80340999D01*
X161573277Y80340999D01*
X161322662Y80303225D01*
X161322660Y80303225D01*
X161322651Y80303223D01*
X161080484Y80228525D01*
X161080472Y80228520D01*
X160852128Y80118554D01*
X160852120Y80118550D01*
X160642729Y79975789D01*
X160642724Y79975785D01*
X160456935Y79803398D01*
X160298910Y79605242D01*
X160172191Y79385759D01*
X160172188Y79385751D01*
X160079597Y79149832D01*
X160079596Y79149830D01*
X160023199Y78902741D01*
X160004259Y78650000D01*
X160023199Y78397260D01*
X160079596Y78150171D01*
X160079597Y78150169D01*
X160172188Y77914250D01*
X160172191Y77914242D01*
X160298910Y77694759D01*
X160298912Y77694756D01*
X160298913Y77694755D01*
X160456934Y77496603D01*
X160642723Y77324216D01*
X160642729Y77324212D01*
X160852120Y77181451D01*
X160852124Y77181449D01*
X160852130Y77181445D01*
X161080476Y77071479D01*
X161080479Y77071479D01*
X161080484Y77071476D01*
X161322651Y76996778D01*
X161322653Y76996778D01*
X161322662Y76996775D01*
X161573277Y76959001D01*
X161662008Y76959001D01*
X163683000Y76959001D01*
X163751121Y76938999D01*
X163797614Y76885343D01*
X163809000Y76833001D01*
X163809000Y14195519D01*
X163788998Y14127398D01*
X163772095Y14106424D01*
X162543576Y12877905D01*
X162481264Y12843879D01*
X162454481Y12841000D01*
X157926908Y12841000D01*
X157858787Y12861002D01*
X157812294Y12914658D01*
X157800908Y12967141D01*
X157900000Y99375000D01*
X156916662Y99473334D01*
X156884345Y99480964D01*
X152721003Y101066999D01*
X152683059Y101089769D01*
X149810006Y103594482D01*
X148814119Y104462691D01*
X148790072Y104490884D01*
X148526815Y104912095D01*
X146812510Y107654984D01*
X146795583Y107698188D01*
X146723809Y108075000D01*
X146000000Y111875000D01*
X18200000Y111875000D01*
X17503383Y108093368D01*
X17491434Y108058405D01*
X15913057Y105000299D01*
X15877331Y104957772D01*
X10923728Y101193034D01*
X10870708Y101169508D01*
X6100000Y100275000D01*
X6050448Y12966928D01*
X6030407Y12898819D01*
X5976725Y12852357D01*
X5924448Y12841000D01*
X1545520Y12841000D01*
X1477399Y12861002D01*
X1456425Y12877905D01*
X227905Y14106425D01*
X193879Y14168737D01*
X191000Y14195520D01*
X191000Y76833000D01*
X211002Y76901121D01*
X264658Y76947614D01*
X317000Y76959000D01*
X2299978Y76959000D01*
X2426704Y76958986D01*
X2426704Y76958987D01*
X2426710Y76958986D01*
X2677347Y76996737D01*
X2919558Y77071425D01*
X3147930Y77181380D01*
X3357362Y77324147D01*
X3543175Y77496535D01*
X3701217Y77694694D01*
X3827957Y77914196D01*
X3920564Y78150136D01*
X3976969Y78397245D01*
X3995912Y78650000D01*
X3976969Y78902755D01*
X3920572Y79149830D01*
X3920564Y79149865D01*
X3920563Y79149867D01*
X3827955Y79385809D01*
X3740880Y79536613D01*
X3701217Y79605306D01*
X3544958Y79801230D01*
X3543179Y79803461D01*
X3543173Y79803468D01*
X3357361Y79975854D01*
X3147934Y80118618D01*
X2919559Y80228575D01*
X2677351Y80303262D01*
X2677349Y80303263D01*
X2677347Y80303263D01*
X2426810Y80340999D01*
X2426704Y80341015D01*
X2299978Y80341000D01*
X317000Y80341000D01*
X248879Y80361002D01*
X202386Y80414658D01*
X191000Y80467000D01*
X191000Y103594482D01*
X211002Y103662603D01*
X227905Y103683577D01*
X1456424Y104912095D01*
X1518736Y104946121D01*
X1545519Y104949000D01*
X4148849Y104949000D01*
X4148849Y104949001D01*
X4725376Y104985273D01*
X4725382Y104985274D01*
X4725385Y104985274D01*
X4725386Y104985274D01*
X4873137Y105003940D01*
X5298499Y105057675D01*
X5865944Y105165921D01*
X5865957Y105165925D01*
X5865962Y105165925D01*
X6380703Y105298090D01*
X6425473Y105309584D01*
X6425483Y105309588D01*
X6425489Y105309589D01*
X6549436Y105349862D01*
X6974877Y105488096D01*
X7511988Y105700753D01*
X8034686Y105946717D01*
X8540909Y106225015D01*
X9028658Y106534550D01*
X9496009Y106874100D01*
X9941118Y107242326D01*
X10362227Y107637773D01*
X10757674Y108058882D01*
X11125900Y108503991D01*
X11465450Y108971342D01*
X11774985Y109459091D01*
X12053283Y109965314D01*
X12299247Y110488012D01*
X12511904Y111025123D01*
X12614041Y111339470D01*
X12690411Y111574510D01*
X12690418Y111574534D01*
X12834075Y112134037D01*
X12834076Y112134045D01*
X12834076Y112134046D01*
X12834079Y112134056D01*
X12942325Y112701501D01*
X13014727Y113274624D01*
X13050999Y113851149D01*
X13051000Y113851150D01*
X13051000Y116454481D01*
X13071002Y116522602D01*
X13087905Y116543576D01*
X14316423Y117772095D01*
X14378735Y117806120D01*
X14405518Y117809000D01*
X149594481Y117809000D01*
X149662602Y117788998D01*
G37*
G04 #@! TD.AperFunction*
G04 #@! TD*
M02*
