G04 #@! TF.GenerationSoftware,KiCad,Pcbnew,8.0.8*
G04 #@! TF.CreationDate,2025-12-14T22:00:41-05:00*
G04 #@! TF.ProjectId,hellen121vag,68656c6c-656e-4313-9231-7661672e6b69,d*
G04 #@! TF.SameCoordinates,PX2b953a0PY6943058*
G04 #@! TF.FileFunction,Soldermask,Top*
G04 #@! TF.FilePolarity,Negative*
%FSLAX46Y46*%
G04 Gerber Fmt 4.6, Leading zero omitted, Abs format (unit mm)*
G04 Created by KiCad (PCBNEW 8.0.8) date 2025-12-14 22:00:41*
%MOMM*%
%LPD*%
G01*
G04 APERTURE LIST*
%ADD10C,2.200000*%
%ADD11C,3.700000*%
%ADD12C,2.600000*%
%ADD13C,1.500000*%
%ADD14C,1.524000*%
%ADD15O,0.499999X0.250000*%
%ADD16O,0.250000X0.499999*%
%ADD17C,0.599999*%
%ADD18C,0.600000*%
%ADD19O,1.700000X1.850000*%
%ADD20R,1.100000X1.100000*%
%ADD21C,1.100000*%
%ADD22O,1.100000X2.400000*%
G04 APERTURE END LIST*
D10*
G04 #@! TO.C,P2*
X21050000Y13175000D03*
X142850000Y13175000D03*
D11*
X145300000Y5375000D03*
X93100000Y5375000D03*
X18600000Y5375000D03*
D12*
X25700000Y10375000D03*
X31500000Y10375000D03*
X28600000Y12705000D03*
X25700000Y18505000D03*
X31500000Y18505000D03*
D13*
X85120000Y18505000D03*
X82580000Y18505000D03*
X80040000Y18505000D03*
X77500000Y18505000D03*
X74960000Y18505000D03*
X72420000Y18505000D03*
X69880000Y18505000D03*
X67340000Y18505000D03*
X64800000Y18505000D03*
X62260000Y18505000D03*
X59720000Y18505000D03*
X57180000Y18505000D03*
X54640000Y18505000D03*
X52100000Y18505000D03*
X49560000Y18505000D03*
X47020000Y18505000D03*
X44480000Y18505000D03*
X41940000Y18505000D03*
X39400000Y18505000D03*
X85120000Y15965000D03*
X82580000Y15965000D03*
X80040000Y15965000D03*
X77500000Y15965000D03*
X74960000Y15965000D03*
X72420000Y15965000D03*
X69880000Y15965000D03*
X67340000Y15965000D03*
X64800000Y15965000D03*
X62260000Y15965000D03*
X59720000Y15965000D03*
X57180000Y15965000D03*
X54640000Y15965000D03*
X52100000Y15965000D03*
X49560000Y15965000D03*
X47020000Y15965000D03*
X44480000Y15965000D03*
X41940000Y15965000D03*
X39400000Y15965000D03*
X85120000Y9915000D03*
X82580000Y9915000D03*
X80040000Y9915000D03*
X77500000Y9915000D03*
X74960000Y9915000D03*
X72420000Y9915000D03*
X69880000Y9915000D03*
X67340000Y9915000D03*
X64800000Y9915000D03*
X62260000Y9915000D03*
X59720000Y9915000D03*
X57180000Y9915000D03*
X54640000Y9915000D03*
X52100000Y9915000D03*
X49560000Y9915000D03*
X47020000Y9915000D03*
X44480000Y9915000D03*
X41940000Y9915000D03*
X39400000Y9915000D03*
X85120000Y7375000D03*
X82580000Y7375000D03*
X80040000Y7375000D03*
X77500000Y7375000D03*
X74960000Y7375000D03*
X72420000Y7375000D03*
X69880000Y7375000D03*
X67340000Y7375000D03*
X64800000Y7375000D03*
X62260000Y7375000D03*
X59720000Y7375000D03*
X57180000Y7375000D03*
X54640000Y7375000D03*
X52100000Y7375000D03*
X49560000Y7375000D03*
X47020000Y7375000D03*
X44480000Y7375000D03*
X41940000Y7375000D03*
X39400000Y7375000D03*
X101090000Y7375000D03*
X103630000Y7375000D03*
X106170000Y7375000D03*
X108710000Y7375000D03*
X111250000Y7375000D03*
X113790000Y7375000D03*
X116330000Y7375000D03*
X118870000Y7375000D03*
X101090000Y9915000D03*
X103630000Y9915000D03*
X106170000Y9915000D03*
X108710000Y9915000D03*
X111250000Y9915000D03*
X113790000Y9915000D03*
X116330000Y9915000D03*
X118870000Y9915000D03*
X101090000Y15965000D03*
X103630000Y15965000D03*
X106170000Y15965000D03*
X108710000Y15965000D03*
X111250000Y15965000D03*
X113790000Y15965000D03*
X116330000Y15965000D03*
X118870000Y15965000D03*
X101090000Y18505000D03*
X103630000Y18505000D03*
X106170000Y18505000D03*
X108710000Y18505000D03*
X111250000Y18505000D03*
X113790000Y18505000D03*
X116330000Y18505000D03*
X118870000Y18505000D03*
D12*
X126700000Y10375000D03*
X132500000Y10375000D03*
X138400000Y10375000D03*
X129600000Y12705000D03*
X135500000Y12705000D03*
X126700000Y18505000D03*
X132500000Y18505000D03*
X138400000Y18505000D03*
G04 #@! TD*
D10*
G04 #@! TO.C,P1*
X21098000Y13292000D03*
X142898000Y13292000D03*
D11*
X145348000Y5492000D03*
X93148000Y5492000D03*
X18648000Y5492000D03*
D12*
X25748000Y10492000D03*
X31548000Y10492000D03*
X28648000Y12822000D03*
X25748000Y18622000D03*
X31548000Y18622000D03*
D13*
X85168000Y18622000D03*
X82628000Y18622000D03*
X80088000Y18622000D03*
X77548000Y18622000D03*
X75008000Y18622000D03*
X72468000Y18622000D03*
X69928000Y18622000D03*
X67388000Y18622000D03*
X64848000Y18622000D03*
X62308000Y18622000D03*
X59768000Y18622000D03*
X57228000Y18622000D03*
X54688000Y18622000D03*
X52148000Y18622000D03*
X49608000Y18622000D03*
X47068000Y18622000D03*
X44528000Y18622000D03*
X41988000Y18622000D03*
X39448000Y18622000D03*
X85168000Y16082000D03*
X82628000Y16082000D03*
X80088000Y16082000D03*
X77548000Y16082000D03*
X75008000Y16082000D03*
X72468000Y16082000D03*
X69928000Y16082000D03*
X67388000Y16082000D03*
X64848000Y16082000D03*
X62308000Y16082000D03*
X59768000Y16082000D03*
X57228000Y16082000D03*
X54688000Y16082000D03*
X52148000Y16082000D03*
X49608000Y16082000D03*
X47068000Y16082000D03*
X44528000Y16082000D03*
X41988000Y16082000D03*
X39448000Y16082000D03*
X85168000Y10032000D03*
X82628000Y10032000D03*
X80088000Y10032000D03*
X77548000Y10032000D03*
X75008000Y10032000D03*
X72468000Y10032000D03*
X69928000Y10032000D03*
X67388000Y10032000D03*
X64848000Y10032000D03*
X62308000Y10032000D03*
X59768000Y10032000D03*
X57228000Y10032000D03*
X54688000Y10032000D03*
X52148000Y10032000D03*
X49608000Y10032000D03*
X47068000Y10032000D03*
X44528000Y10032000D03*
X41988000Y10032000D03*
X39448000Y10032000D03*
X85168000Y7492000D03*
X82628000Y7492000D03*
X80088000Y7492000D03*
X77548000Y7492000D03*
X75008000Y7492000D03*
X72468000Y7492000D03*
X69928000Y7492000D03*
X67388000Y7492000D03*
X64848000Y7492000D03*
X62308000Y7492000D03*
X59768000Y7492000D03*
X57228000Y7492000D03*
X54688000Y7492000D03*
X52148000Y7492000D03*
X49608000Y7492000D03*
X47068000Y7492000D03*
X44528000Y7492000D03*
X41988000Y7492000D03*
X39448000Y7492000D03*
X101138000Y7492000D03*
X103678000Y7492000D03*
X106218000Y7492000D03*
X108758000Y7492000D03*
X111298000Y7492000D03*
X113838000Y7492000D03*
X116378000Y7492000D03*
X118918000Y7492000D03*
X101138000Y10032000D03*
X103678000Y10032000D03*
X106218000Y10032000D03*
X108758000Y10032000D03*
X111298000Y10032000D03*
X113838000Y10032000D03*
X116378000Y10032000D03*
X118918000Y10032000D03*
X101138000Y16082000D03*
X103678000Y16082000D03*
X106218000Y16082000D03*
X108758000Y16082000D03*
X111298000Y16082000D03*
X113838000Y16082000D03*
X116378000Y16082000D03*
X118918000Y16082000D03*
X101138000Y18622000D03*
X103678000Y18622000D03*
X106218000Y18622000D03*
X108758000Y18622000D03*
X111298000Y18622000D03*
X113838000Y18622000D03*
X116378000Y18622000D03*
X118918000Y18622000D03*
D12*
X126748000Y10492000D03*
X132548000Y10492000D03*
X138448000Y10492000D03*
X129648000Y12822000D03*
X135548000Y12822000D03*
X126748000Y18622000D03*
X132548000Y18622000D03*
X138448000Y18622000D03*
G04 #@! TD*
G04 #@! TO.C,U8*
G36*
G01*
X54905000Y38418733D02*
X54905000Y38718733D01*
G75*
G02*
X55055000Y38868733I150000J0D01*
G01*
X56705000Y38868733D01*
G75*
G02*
X56855000Y38718733I0J-150000D01*
G01*
X56855000Y38418733D01*
G75*
G02*
X56705000Y38268733I-150000J0D01*
G01*
X55055000Y38268733D01*
G75*
G02*
X54905000Y38418733I0J150000D01*
G01*
G37*
G36*
G01*
X54905000Y37148733D02*
X54905000Y37448733D01*
G75*
G02*
X55055000Y37598733I150000J0D01*
G01*
X56705000Y37598733D01*
G75*
G02*
X56855000Y37448733I0J-150000D01*
G01*
X56855000Y37148733D01*
G75*
G02*
X56705000Y36998733I-150000J0D01*
G01*
X55055000Y36998733D01*
G75*
G02*
X54905000Y37148733I0J150000D01*
G01*
G37*
G36*
G01*
X54905000Y35878733D02*
X54905000Y36178733D01*
G75*
G02*
X55055000Y36328733I150000J0D01*
G01*
X56705000Y36328733D01*
G75*
G02*
X56855000Y36178733I0J-150000D01*
G01*
X56855000Y35878733D01*
G75*
G02*
X56705000Y35728733I-150000J0D01*
G01*
X55055000Y35728733D01*
G75*
G02*
X54905000Y35878733I0J150000D01*
G01*
G37*
G36*
G01*
X54905000Y34608733D02*
X54905000Y34908733D01*
G75*
G02*
X55055000Y35058733I150000J0D01*
G01*
X56705000Y35058733D01*
G75*
G02*
X56855000Y34908733I0J-150000D01*
G01*
X56855000Y34608733D01*
G75*
G02*
X56705000Y34458733I-150000J0D01*
G01*
X55055000Y34458733D01*
G75*
G02*
X54905000Y34608733I0J150000D01*
G01*
G37*
G36*
G01*
X59855000Y34608733D02*
X59855000Y34908733D01*
G75*
G02*
X60005000Y35058733I150000J0D01*
G01*
X61655000Y35058733D01*
G75*
G02*
X61805000Y34908733I0J-150000D01*
G01*
X61805000Y34608733D01*
G75*
G02*
X61655000Y34458733I-150000J0D01*
G01*
X60005000Y34458733D01*
G75*
G02*
X59855000Y34608733I0J150000D01*
G01*
G37*
G36*
G01*
X59855000Y35878733D02*
X59855000Y36178733D01*
G75*
G02*
X60005000Y36328733I150000J0D01*
G01*
X61655000Y36328733D01*
G75*
G02*
X61805000Y36178733I0J-150000D01*
G01*
X61805000Y35878733D01*
G75*
G02*
X61655000Y35728733I-150000J0D01*
G01*
X60005000Y35728733D01*
G75*
G02*
X59855000Y35878733I0J150000D01*
G01*
G37*
G36*
G01*
X59855000Y37148733D02*
X59855000Y37448733D01*
G75*
G02*
X60005000Y37598733I150000J0D01*
G01*
X61655000Y37598733D01*
G75*
G02*
X61805000Y37448733I0J-150000D01*
G01*
X61805000Y37148733D01*
G75*
G02*
X61655000Y36998733I-150000J0D01*
G01*
X60005000Y36998733D01*
G75*
G02*
X59855000Y37148733I0J150000D01*
G01*
G37*
G36*
G01*
X59855000Y38418733D02*
X59855000Y38718733D01*
G75*
G02*
X60005000Y38868733I150000J0D01*
G01*
X61655000Y38868733D01*
G75*
G02*
X61805000Y38718733I0J-150000D01*
G01*
X61805000Y38418733D01*
G75*
G02*
X61655000Y38268733I-150000J0D01*
G01*
X60005000Y38268733D01*
G75*
G02*
X59855000Y38418733I0J150000D01*
G01*
G37*
G04 #@! TD*
G04 #@! TO.C,U7*
G36*
G01*
X100575000Y31858733D02*
X100575000Y32158733D01*
G75*
G02*
X100725000Y32308733I150000J0D01*
G01*
X102375000Y32308733D01*
G75*
G02*
X102525000Y32158733I0J-150000D01*
G01*
X102525000Y31858733D01*
G75*
G02*
X102375000Y31708733I-150000J0D01*
G01*
X100725000Y31708733D01*
G75*
G02*
X100575000Y31858733I0J150000D01*
G01*
G37*
G36*
G01*
X100575000Y30588733D02*
X100575000Y30888733D01*
G75*
G02*
X100725000Y31038733I150000J0D01*
G01*
X102375000Y31038733D01*
G75*
G02*
X102525000Y30888733I0J-150000D01*
G01*
X102525000Y30588733D01*
G75*
G02*
X102375000Y30438733I-150000J0D01*
G01*
X100725000Y30438733D01*
G75*
G02*
X100575000Y30588733I0J150000D01*
G01*
G37*
G36*
G01*
X100575000Y29318733D02*
X100575000Y29618733D01*
G75*
G02*
X100725000Y29768733I150000J0D01*
G01*
X102375000Y29768733D01*
G75*
G02*
X102525000Y29618733I0J-150000D01*
G01*
X102525000Y29318733D01*
G75*
G02*
X102375000Y29168733I-150000J0D01*
G01*
X100725000Y29168733D01*
G75*
G02*
X100575000Y29318733I0J150000D01*
G01*
G37*
G36*
G01*
X100575000Y28048733D02*
X100575000Y28348733D01*
G75*
G02*
X100725000Y28498733I150000J0D01*
G01*
X102375000Y28498733D01*
G75*
G02*
X102525000Y28348733I0J-150000D01*
G01*
X102525000Y28048733D01*
G75*
G02*
X102375000Y27898733I-150000J0D01*
G01*
X100725000Y27898733D01*
G75*
G02*
X100575000Y28048733I0J150000D01*
G01*
G37*
G36*
G01*
X105525000Y28048733D02*
X105525000Y28348733D01*
G75*
G02*
X105675000Y28498733I150000J0D01*
G01*
X107325000Y28498733D01*
G75*
G02*
X107475000Y28348733I0J-150000D01*
G01*
X107475000Y28048733D01*
G75*
G02*
X107325000Y27898733I-150000J0D01*
G01*
X105675000Y27898733D01*
G75*
G02*
X105525000Y28048733I0J150000D01*
G01*
G37*
G36*
G01*
X105525000Y29318733D02*
X105525000Y29618733D01*
G75*
G02*
X105675000Y29768733I150000J0D01*
G01*
X107325000Y29768733D01*
G75*
G02*
X107475000Y29618733I0J-150000D01*
G01*
X107475000Y29318733D01*
G75*
G02*
X107325000Y29168733I-150000J0D01*
G01*
X105675000Y29168733D01*
G75*
G02*
X105525000Y29318733I0J150000D01*
G01*
G37*
G36*
G01*
X105525000Y30588733D02*
X105525000Y30888733D01*
G75*
G02*
X105675000Y31038733I150000J0D01*
G01*
X107325000Y31038733D01*
G75*
G02*
X107475000Y30888733I0J-150000D01*
G01*
X107475000Y30588733D01*
G75*
G02*
X107325000Y30438733I-150000J0D01*
G01*
X105675000Y30438733D01*
G75*
G02*
X105525000Y30588733I0J150000D01*
G01*
G37*
G36*
G01*
X105525000Y31858733D02*
X105525000Y32158733D01*
G75*
G02*
X105675000Y32308733I150000J0D01*
G01*
X107325000Y32308733D01*
G75*
G02*
X107475000Y32158733I0J-150000D01*
G01*
X107475000Y31858733D01*
G75*
G02*
X107325000Y31708733I-150000J0D01*
G01*
X105675000Y31708733D01*
G75*
G02*
X105525000Y31858733I0J150000D01*
G01*
G37*
G04 #@! TD*
G04 #@! TO.C,U6*
G36*
G01*
X100575000Y38438733D02*
X100575000Y38738733D01*
G75*
G02*
X100725000Y38888733I150000J0D01*
G01*
X102375000Y38888733D01*
G75*
G02*
X102525000Y38738733I0J-150000D01*
G01*
X102525000Y38438733D01*
G75*
G02*
X102375000Y38288733I-150000J0D01*
G01*
X100725000Y38288733D01*
G75*
G02*
X100575000Y38438733I0J150000D01*
G01*
G37*
G36*
G01*
X100575000Y37168733D02*
X100575000Y37468733D01*
G75*
G02*
X100725000Y37618733I150000J0D01*
G01*
X102375000Y37618733D01*
G75*
G02*
X102525000Y37468733I0J-150000D01*
G01*
X102525000Y37168733D01*
G75*
G02*
X102375000Y37018733I-150000J0D01*
G01*
X100725000Y37018733D01*
G75*
G02*
X100575000Y37168733I0J150000D01*
G01*
G37*
G36*
G01*
X100575000Y35898733D02*
X100575000Y36198733D01*
G75*
G02*
X100725000Y36348733I150000J0D01*
G01*
X102375000Y36348733D01*
G75*
G02*
X102525000Y36198733I0J-150000D01*
G01*
X102525000Y35898733D01*
G75*
G02*
X102375000Y35748733I-150000J0D01*
G01*
X100725000Y35748733D01*
G75*
G02*
X100575000Y35898733I0J150000D01*
G01*
G37*
G36*
G01*
X100575000Y34628733D02*
X100575000Y34928733D01*
G75*
G02*
X100725000Y35078733I150000J0D01*
G01*
X102375000Y35078733D01*
G75*
G02*
X102525000Y34928733I0J-150000D01*
G01*
X102525000Y34628733D01*
G75*
G02*
X102375000Y34478733I-150000J0D01*
G01*
X100725000Y34478733D01*
G75*
G02*
X100575000Y34628733I0J150000D01*
G01*
G37*
G36*
G01*
X105525000Y34628733D02*
X105525000Y34928733D01*
G75*
G02*
X105675000Y35078733I150000J0D01*
G01*
X107325000Y35078733D01*
G75*
G02*
X107475000Y34928733I0J-150000D01*
G01*
X107475000Y34628733D01*
G75*
G02*
X107325000Y34478733I-150000J0D01*
G01*
X105675000Y34478733D01*
G75*
G02*
X105525000Y34628733I0J150000D01*
G01*
G37*
G36*
G01*
X105525000Y35898733D02*
X105525000Y36198733D01*
G75*
G02*
X105675000Y36348733I150000J0D01*
G01*
X107325000Y36348733D01*
G75*
G02*
X107475000Y36198733I0J-150000D01*
G01*
X107475000Y35898733D01*
G75*
G02*
X107325000Y35748733I-150000J0D01*
G01*
X105675000Y35748733D01*
G75*
G02*
X105525000Y35898733I0J150000D01*
G01*
G37*
G36*
G01*
X105525000Y37168733D02*
X105525000Y37468733D01*
G75*
G02*
X105675000Y37618733I150000J0D01*
G01*
X107325000Y37618733D01*
G75*
G02*
X107475000Y37468733I0J-150000D01*
G01*
X107475000Y37168733D01*
G75*
G02*
X107325000Y37018733I-150000J0D01*
G01*
X105675000Y37018733D01*
G75*
G02*
X105525000Y37168733I0J150000D01*
G01*
G37*
G36*
G01*
X105525000Y38438733D02*
X105525000Y38738733D01*
G75*
G02*
X105675000Y38888733I150000J0D01*
G01*
X107325000Y38888733D01*
G75*
G02*
X107475000Y38738733I0J-150000D01*
G01*
X107475000Y38438733D01*
G75*
G02*
X107325000Y38288733I-150000J0D01*
G01*
X105675000Y38288733D01*
G75*
G02*
X105525000Y38438733I0J150000D01*
G01*
G37*
G04 #@! TD*
G04 #@! TO.C,U5*
G36*
G01*
X100575000Y45018733D02*
X100575000Y45318733D01*
G75*
G02*
X100725000Y45468733I150000J0D01*
G01*
X102375000Y45468733D01*
G75*
G02*
X102525000Y45318733I0J-150000D01*
G01*
X102525000Y45018733D01*
G75*
G02*
X102375000Y44868733I-150000J0D01*
G01*
X100725000Y44868733D01*
G75*
G02*
X100575000Y45018733I0J150000D01*
G01*
G37*
G36*
G01*
X100575000Y43748733D02*
X100575000Y44048733D01*
G75*
G02*
X100725000Y44198733I150000J0D01*
G01*
X102375000Y44198733D01*
G75*
G02*
X102525000Y44048733I0J-150000D01*
G01*
X102525000Y43748733D01*
G75*
G02*
X102375000Y43598733I-150000J0D01*
G01*
X100725000Y43598733D01*
G75*
G02*
X100575000Y43748733I0J150000D01*
G01*
G37*
G36*
G01*
X100575000Y42478733D02*
X100575000Y42778733D01*
G75*
G02*
X100725000Y42928733I150000J0D01*
G01*
X102375000Y42928733D01*
G75*
G02*
X102525000Y42778733I0J-150000D01*
G01*
X102525000Y42478733D01*
G75*
G02*
X102375000Y42328733I-150000J0D01*
G01*
X100725000Y42328733D01*
G75*
G02*
X100575000Y42478733I0J150000D01*
G01*
G37*
G36*
G01*
X100575000Y41208733D02*
X100575000Y41508733D01*
G75*
G02*
X100725000Y41658733I150000J0D01*
G01*
X102375000Y41658733D01*
G75*
G02*
X102525000Y41508733I0J-150000D01*
G01*
X102525000Y41208733D01*
G75*
G02*
X102375000Y41058733I-150000J0D01*
G01*
X100725000Y41058733D01*
G75*
G02*
X100575000Y41208733I0J150000D01*
G01*
G37*
G36*
G01*
X105525000Y41208733D02*
X105525000Y41508733D01*
G75*
G02*
X105675000Y41658733I150000J0D01*
G01*
X107325000Y41658733D01*
G75*
G02*
X107475000Y41508733I0J-150000D01*
G01*
X107475000Y41208733D01*
G75*
G02*
X107325000Y41058733I-150000J0D01*
G01*
X105675000Y41058733D01*
G75*
G02*
X105525000Y41208733I0J150000D01*
G01*
G37*
G36*
G01*
X105525000Y42478733D02*
X105525000Y42778733D01*
G75*
G02*
X105675000Y42928733I150000J0D01*
G01*
X107325000Y42928733D01*
G75*
G02*
X107475000Y42778733I0J-150000D01*
G01*
X107475000Y42478733D01*
G75*
G02*
X107325000Y42328733I-150000J0D01*
G01*
X105675000Y42328733D01*
G75*
G02*
X105525000Y42478733I0J150000D01*
G01*
G37*
G36*
G01*
X105525000Y43748733D02*
X105525000Y44048733D01*
G75*
G02*
X105675000Y44198733I150000J0D01*
G01*
X107325000Y44198733D01*
G75*
G02*
X107475000Y44048733I0J-150000D01*
G01*
X107475000Y43748733D01*
G75*
G02*
X107325000Y43598733I-150000J0D01*
G01*
X105675000Y43598733D01*
G75*
G02*
X105525000Y43748733I0J150000D01*
G01*
G37*
G36*
G01*
X105525000Y45018733D02*
X105525000Y45318733D01*
G75*
G02*
X105675000Y45468733I150000J0D01*
G01*
X107325000Y45468733D01*
G75*
G02*
X107475000Y45318733I0J-150000D01*
G01*
X107475000Y45018733D01*
G75*
G02*
X107325000Y44868733I-150000J0D01*
G01*
X105675000Y44868733D01*
G75*
G02*
X105525000Y45018733I0J150000D01*
G01*
G37*
G04 #@! TD*
G04 #@! TO.C,U4*
G36*
G01*
X100575000Y51598733D02*
X100575000Y51898733D01*
G75*
G02*
X100725000Y52048733I150000J0D01*
G01*
X102375000Y52048733D01*
G75*
G02*
X102525000Y51898733I0J-150000D01*
G01*
X102525000Y51598733D01*
G75*
G02*
X102375000Y51448733I-150000J0D01*
G01*
X100725000Y51448733D01*
G75*
G02*
X100575000Y51598733I0J150000D01*
G01*
G37*
G36*
G01*
X100575000Y50328733D02*
X100575000Y50628733D01*
G75*
G02*
X100725000Y50778733I150000J0D01*
G01*
X102375000Y50778733D01*
G75*
G02*
X102525000Y50628733I0J-150000D01*
G01*
X102525000Y50328733D01*
G75*
G02*
X102375000Y50178733I-150000J0D01*
G01*
X100725000Y50178733D01*
G75*
G02*
X100575000Y50328733I0J150000D01*
G01*
G37*
G36*
G01*
X100575000Y49058733D02*
X100575000Y49358733D01*
G75*
G02*
X100725000Y49508733I150000J0D01*
G01*
X102375000Y49508733D01*
G75*
G02*
X102525000Y49358733I0J-150000D01*
G01*
X102525000Y49058733D01*
G75*
G02*
X102375000Y48908733I-150000J0D01*
G01*
X100725000Y48908733D01*
G75*
G02*
X100575000Y49058733I0J150000D01*
G01*
G37*
G36*
G01*
X100575000Y47788733D02*
X100575000Y48088733D01*
G75*
G02*
X100725000Y48238733I150000J0D01*
G01*
X102375000Y48238733D01*
G75*
G02*
X102525000Y48088733I0J-150000D01*
G01*
X102525000Y47788733D01*
G75*
G02*
X102375000Y47638733I-150000J0D01*
G01*
X100725000Y47638733D01*
G75*
G02*
X100575000Y47788733I0J150000D01*
G01*
G37*
G36*
G01*
X105525000Y47788733D02*
X105525000Y48088733D01*
G75*
G02*
X105675000Y48238733I150000J0D01*
G01*
X107325000Y48238733D01*
G75*
G02*
X107475000Y48088733I0J-150000D01*
G01*
X107475000Y47788733D01*
G75*
G02*
X107325000Y47638733I-150000J0D01*
G01*
X105675000Y47638733D01*
G75*
G02*
X105525000Y47788733I0J150000D01*
G01*
G37*
G36*
G01*
X105525000Y49058733D02*
X105525000Y49358733D01*
G75*
G02*
X105675000Y49508733I150000J0D01*
G01*
X107325000Y49508733D01*
G75*
G02*
X107475000Y49358733I0J-150000D01*
G01*
X107475000Y49058733D01*
G75*
G02*
X107325000Y48908733I-150000J0D01*
G01*
X105675000Y48908733D01*
G75*
G02*
X105525000Y49058733I0J150000D01*
G01*
G37*
G36*
G01*
X105525000Y50328733D02*
X105525000Y50628733D01*
G75*
G02*
X105675000Y50778733I150000J0D01*
G01*
X107325000Y50778733D01*
G75*
G02*
X107475000Y50628733I0J-150000D01*
G01*
X107475000Y50328733D01*
G75*
G02*
X107325000Y50178733I-150000J0D01*
G01*
X105675000Y50178733D01*
G75*
G02*
X105525000Y50328733I0J150000D01*
G01*
G37*
G36*
G01*
X105525000Y51598733D02*
X105525000Y51898733D01*
G75*
G02*
X105675000Y52048733I150000J0D01*
G01*
X107325000Y52048733D01*
G75*
G02*
X107475000Y51898733I0J-150000D01*
G01*
X107475000Y51598733D01*
G75*
G02*
X107325000Y51448733I-150000J0D01*
G01*
X105675000Y51448733D01*
G75*
G02*
X105525000Y51598733I0J150000D01*
G01*
G37*
G04 #@! TD*
G04 #@! TO.C,U3*
G36*
G01*
X65355000Y38418733D02*
X65355000Y38718733D01*
G75*
G02*
X65505000Y38868733I150000J0D01*
G01*
X67155000Y38868733D01*
G75*
G02*
X67305000Y38718733I0J-150000D01*
G01*
X67305000Y38418733D01*
G75*
G02*
X67155000Y38268733I-150000J0D01*
G01*
X65505000Y38268733D01*
G75*
G02*
X65355000Y38418733I0J150000D01*
G01*
G37*
G36*
G01*
X65355000Y37148733D02*
X65355000Y37448733D01*
G75*
G02*
X65505000Y37598733I150000J0D01*
G01*
X67155000Y37598733D01*
G75*
G02*
X67305000Y37448733I0J-150000D01*
G01*
X67305000Y37148733D01*
G75*
G02*
X67155000Y36998733I-150000J0D01*
G01*
X65505000Y36998733D01*
G75*
G02*
X65355000Y37148733I0J150000D01*
G01*
G37*
G36*
G01*
X65355000Y35878733D02*
X65355000Y36178733D01*
G75*
G02*
X65505000Y36328733I150000J0D01*
G01*
X67155000Y36328733D01*
G75*
G02*
X67305000Y36178733I0J-150000D01*
G01*
X67305000Y35878733D01*
G75*
G02*
X67155000Y35728733I-150000J0D01*
G01*
X65505000Y35728733D01*
G75*
G02*
X65355000Y35878733I0J150000D01*
G01*
G37*
G36*
G01*
X65355000Y34608733D02*
X65355000Y34908733D01*
G75*
G02*
X65505000Y35058733I150000J0D01*
G01*
X67155000Y35058733D01*
G75*
G02*
X67305000Y34908733I0J-150000D01*
G01*
X67305000Y34608733D01*
G75*
G02*
X67155000Y34458733I-150000J0D01*
G01*
X65505000Y34458733D01*
G75*
G02*
X65355000Y34608733I0J150000D01*
G01*
G37*
G36*
G01*
X70305000Y34608733D02*
X70305000Y34908733D01*
G75*
G02*
X70455000Y35058733I150000J0D01*
G01*
X72105000Y35058733D01*
G75*
G02*
X72255000Y34908733I0J-150000D01*
G01*
X72255000Y34608733D01*
G75*
G02*
X72105000Y34458733I-150000J0D01*
G01*
X70455000Y34458733D01*
G75*
G02*
X70305000Y34608733I0J150000D01*
G01*
G37*
G36*
G01*
X70305000Y35878733D02*
X70305000Y36178733D01*
G75*
G02*
X70455000Y36328733I150000J0D01*
G01*
X72105000Y36328733D01*
G75*
G02*
X72255000Y36178733I0J-150000D01*
G01*
X72255000Y35878733D01*
G75*
G02*
X72105000Y35728733I-150000J0D01*
G01*
X70455000Y35728733D01*
G75*
G02*
X70305000Y35878733I0J150000D01*
G01*
G37*
G36*
G01*
X70305000Y37148733D02*
X70305000Y37448733D01*
G75*
G02*
X70455000Y37598733I150000J0D01*
G01*
X72105000Y37598733D01*
G75*
G02*
X72255000Y37448733I0J-150000D01*
G01*
X72255000Y37148733D01*
G75*
G02*
X72105000Y36998733I-150000J0D01*
G01*
X70455000Y36998733D01*
G75*
G02*
X70305000Y37148733I0J150000D01*
G01*
G37*
G36*
G01*
X70305000Y38418733D02*
X70305000Y38718733D01*
G75*
G02*
X70455000Y38868733I150000J0D01*
G01*
X72105000Y38868733D01*
G75*
G02*
X72255000Y38718733I0J-150000D01*
G01*
X72255000Y38418733D01*
G75*
G02*
X72105000Y38268733I-150000J0D01*
G01*
X70455000Y38268733D01*
G75*
G02*
X70305000Y38418733I0J150000D01*
G01*
G37*
G04 #@! TD*
G04 #@! TO.C,U2*
G36*
G01*
X41155000Y38418733D02*
X41155000Y38718733D01*
G75*
G02*
X41305000Y38868733I150000J0D01*
G01*
X42955000Y38868733D01*
G75*
G02*
X43105000Y38718733I0J-150000D01*
G01*
X43105000Y38418733D01*
G75*
G02*
X42955000Y38268733I-150000J0D01*
G01*
X41305000Y38268733D01*
G75*
G02*
X41155000Y38418733I0J150000D01*
G01*
G37*
G36*
G01*
X41155000Y37148733D02*
X41155000Y37448733D01*
G75*
G02*
X41305000Y37598733I150000J0D01*
G01*
X42955000Y37598733D01*
G75*
G02*
X43105000Y37448733I0J-150000D01*
G01*
X43105000Y37148733D01*
G75*
G02*
X42955000Y36998733I-150000J0D01*
G01*
X41305000Y36998733D01*
G75*
G02*
X41155000Y37148733I0J150000D01*
G01*
G37*
G36*
G01*
X41155000Y35878733D02*
X41155000Y36178733D01*
G75*
G02*
X41305000Y36328733I150000J0D01*
G01*
X42955000Y36328733D01*
G75*
G02*
X43105000Y36178733I0J-150000D01*
G01*
X43105000Y35878733D01*
G75*
G02*
X42955000Y35728733I-150000J0D01*
G01*
X41305000Y35728733D01*
G75*
G02*
X41155000Y35878733I0J150000D01*
G01*
G37*
G36*
G01*
X41155000Y34608733D02*
X41155000Y34908733D01*
G75*
G02*
X41305000Y35058733I150000J0D01*
G01*
X42955000Y35058733D01*
G75*
G02*
X43105000Y34908733I0J-150000D01*
G01*
X43105000Y34608733D01*
G75*
G02*
X42955000Y34458733I-150000J0D01*
G01*
X41305000Y34458733D01*
G75*
G02*
X41155000Y34608733I0J150000D01*
G01*
G37*
G36*
G01*
X46105000Y34608733D02*
X46105000Y34908733D01*
G75*
G02*
X46255000Y35058733I150000J0D01*
G01*
X47905000Y35058733D01*
G75*
G02*
X48055000Y34908733I0J-150000D01*
G01*
X48055000Y34608733D01*
G75*
G02*
X47905000Y34458733I-150000J0D01*
G01*
X46255000Y34458733D01*
G75*
G02*
X46105000Y34608733I0J150000D01*
G01*
G37*
G36*
G01*
X46105000Y35878733D02*
X46105000Y36178733D01*
G75*
G02*
X46255000Y36328733I150000J0D01*
G01*
X47905000Y36328733D01*
G75*
G02*
X48055000Y36178733I0J-150000D01*
G01*
X48055000Y35878733D01*
G75*
G02*
X47905000Y35728733I-150000J0D01*
G01*
X46255000Y35728733D01*
G75*
G02*
X46105000Y35878733I0J150000D01*
G01*
G37*
G36*
G01*
X46105000Y37148733D02*
X46105000Y37448733D01*
G75*
G02*
X46255000Y37598733I150000J0D01*
G01*
X47905000Y37598733D01*
G75*
G02*
X48055000Y37448733I0J-150000D01*
G01*
X48055000Y37148733D01*
G75*
G02*
X47905000Y36998733I-150000J0D01*
G01*
X46255000Y36998733D01*
G75*
G02*
X46105000Y37148733I0J150000D01*
G01*
G37*
G36*
G01*
X46105000Y38418733D02*
X46105000Y38718733D01*
G75*
G02*
X46255000Y38868733I150000J0D01*
G01*
X47905000Y38868733D01*
G75*
G02*
X48055000Y38718733I0J-150000D01*
G01*
X48055000Y38418733D01*
G75*
G02*
X47905000Y38268733I-150000J0D01*
G01*
X46255000Y38268733D01*
G75*
G02*
X46105000Y38418733I0J150000D01*
G01*
G37*
G04 #@! TD*
G04 #@! TO.C,U1*
G36*
G01*
X50345000Y49823733D02*
X50345000Y50223733D01*
G75*
G02*
X50545000Y50423733I200000J0D01*
G01*
X52345000Y50423733D01*
G75*
G02*
X52545000Y50223733I0J-200000D01*
G01*
X52545000Y49823733D01*
G75*
G02*
X52345000Y49623733I-200000J0D01*
G01*
X50545000Y49623733D01*
G75*
G02*
X50345000Y49823733I0J200000D01*
G01*
G37*
G36*
G01*
X50345000Y48683733D02*
X50345000Y49083733D01*
G75*
G02*
X50545000Y49283733I200000J0D01*
G01*
X52345000Y49283733D01*
G75*
G02*
X52545000Y49083733I0J-200000D01*
G01*
X52545000Y48683733D01*
G75*
G02*
X52345000Y48483733I-200000J0D01*
G01*
X50545000Y48483733D01*
G75*
G02*
X50345000Y48683733I0J200000D01*
G01*
G37*
G36*
G01*
X54545000Y45093730D02*
X54545000Y50393736D01*
G75*
G02*
X54794997Y50643733I249997J0D01*
G01*
X60695003Y50643733D01*
G75*
G02*
X60945000Y50393736I0J-249997D01*
G01*
X60945000Y45093730D01*
G75*
G02*
X60695003Y44843733I-249997J0D01*
G01*
X54794997Y44843733D01*
G75*
G02*
X54545000Y45093730I0J249997D01*
G01*
G37*
G36*
G01*
X50345000Y46403733D02*
X50345000Y46803733D01*
G75*
G02*
X50545000Y47003733I200000J0D01*
G01*
X52345000Y47003733D01*
G75*
G02*
X52545000Y46803733I0J-200000D01*
G01*
X52545000Y46403733D01*
G75*
G02*
X52345000Y46203733I-200000J0D01*
G01*
X50545000Y46203733D01*
G75*
G02*
X50345000Y46403733I0J200000D01*
G01*
G37*
G36*
G01*
X50345000Y45263733D02*
X50345000Y45663733D01*
G75*
G02*
X50545000Y45863733I200000J0D01*
G01*
X52345000Y45863733D01*
G75*
G02*
X52545000Y45663733I0J-200000D01*
G01*
X52545000Y45263733D01*
G75*
G02*
X52345000Y45063733I-200000J0D01*
G01*
X50545000Y45063733D01*
G75*
G02*
X50345000Y45263733I0J200000D01*
G01*
G37*
G04 #@! TD*
G04 #@! TO.C,R50*
G36*
G01*
X51330000Y32805000D02*
X51330000Y33585000D01*
G75*
G02*
X51400000Y33655000I70000J0D01*
G01*
X51960000Y33655000D01*
G75*
G02*
X52030000Y33585000I0J-70000D01*
G01*
X52030000Y32805000D01*
G75*
G02*
X51960000Y32735000I-70000J0D01*
G01*
X51400000Y32735000D01*
G75*
G02*
X51330000Y32805000I0J70000D01*
G01*
G37*
G36*
G01*
X52930000Y32805000D02*
X52930000Y33585000D01*
G75*
G02*
X53000000Y33655000I70000J0D01*
G01*
X53560000Y33655000D01*
G75*
G02*
X53630000Y33585000I0J-70000D01*
G01*
X53630000Y32805000D01*
G75*
G02*
X53560000Y32735000I-70000J0D01*
G01*
X53000000Y32735000D01*
G75*
G02*
X52930000Y32805000I0J70000D01*
G01*
G37*
G04 #@! TD*
G04 #@! TO.C,R49*
G36*
G01*
X51330000Y34754046D02*
X51330000Y35534046D01*
G75*
G02*
X51400000Y35604046I70000J0D01*
G01*
X51960000Y35604046D01*
G75*
G02*
X52030000Y35534046I0J-70000D01*
G01*
X52030000Y34754046D01*
G75*
G02*
X51960000Y34684046I-70000J0D01*
G01*
X51400000Y34684046D01*
G75*
G02*
X51330000Y34754046I0J70000D01*
G01*
G37*
G36*
G01*
X52930000Y34754046D02*
X52930000Y35534046D01*
G75*
G02*
X53000000Y35604046I70000J0D01*
G01*
X53560000Y35604046D01*
G75*
G02*
X53630000Y35534046I0J-70000D01*
G01*
X53630000Y34754046D01*
G75*
G02*
X53560000Y34684046I-70000J0D01*
G01*
X53000000Y34684046D01*
G75*
G02*
X52930000Y34754046I0J70000D01*
G01*
G37*
G04 #@! TD*
G04 #@! TO.C,R48*
G36*
G01*
X51330000Y36703092D02*
X51330000Y37483092D01*
G75*
G02*
X51400000Y37553092I70000J0D01*
G01*
X51960000Y37553092D01*
G75*
G02*
X52030000Y37483092I0J-70000D01*
G01*
X52030000Y36703092D01*
G75*
G02*
X51960000Y36633092I-70000J0D01*
G01*
X51400000Y36633092D01*
G75*
G02*
X51330000Y36703092I0J70000D01*
G01*
G37*
G36*
G01*
X52930000Y36703092D02*
X52930000Y37483092D01*
G75*
G02*
X53000000Y37553092I70000J0D01*
G01*
X53560000Y37553092D01*
G75*
G02*
X53630000Y37483092I0J-70000D01*
G01*
X53630000Y36703092D01*
G75*
G02*
X53560000Y36633092I-70000J0D01*
G01*
X53000000Y36633092D01*
G75*
G02*
X52930000Y36703092I0J70000D01*
G01*
G37*
G04 #@! TD*
G04 #@! TO.C,R47*
G36*
G01*
X51330000Y38652138D02*
X51330000Y39432138D01*
G75*
G02*
X51400000Y39502138I70000J0D01*
G01*
X51960000Y39502138D01*
G75*
G02*
X52030000Y39432138I0J-70000D01*
G01*
X52030000Y38652138D01*
G75*
G02*
X51960000Y38582138I-70000J0D01*
G01*
X51400000Y38582138D01*
G75*
G02*
X51330000Y38652138I0J70000D01*
G01*
G37*
G36*
G01*
X52930000Y38652138D02*
X52930000Y39432138D01*
G75*
G02*
X53000000Y39502138I70000J0D01*
G01*
X53560000Y39502138D01*
G75*
G02*
X53630000Y39432138I0J-70000D01*
G01*
X53630000Y38652138D01*
G75*
G02*
X53560000Y38582138I-70000J0D01*
G01*
X53000000Y38582138D01*
G75*
G02*
X52930000Y38652138I0J70000D01*
G01*
G37*
G04 #@! TD*
G04 #@! TO.C,R46*
G36*
G01*
X115350000Y45985000D02*
X115350000Y46765000D01*
G75*
G02*
X115420000Y46835000I70000J0D01*
G01*
X115980000Y46835000D01*
G75*
G02*
X116050000Y46765000I0J-70000D01*
G01*
X116050000Y45985000D01*
G75*
G02*
X115980000Y45915000I-70000J0D01*
G01*
X115420000Y45915000D01*
G75*
G02*
X115350000Y45985000I0J70000D01*
G01*
G37*
G36*
G01*
X116950000Y45985000D02*
X116950000Y46765000D01*
G75*
G02*
X117020000Y46835000I70000J0D01*
G01*
X117580000Y46835000D01*
G75*
G02*
X117650000Y46765000I0J-70000D01*
G01*
X117650000Y45985000D01*
G75*
G02*
X117580000Y45915000I-70000J0D01*
G01*
X117020000Y45915000D01*
G75*
G02*
X116950000Y45985000I0J70000D01*
G01*
G37*
G04 #@! TD*
G04 #@! TO.C,R45*
G36*
G01*
X115350000Y47934046D02*
X115350000Y48714046D01*
G75*
G02*
X115420000Y48784046I70000J0D01*
G01*
X115980000Y48784046D01*
G75*
G02*
X116050000Y48714046I0J-70000D01*
G01*
X116050000Y47934046D01*
G75*
G02*
X115980000Y47864046I-70000J0D01*
G01*
X115420000Y47864046D01*
G75*
G02*
X115350000Y47934046I0J70000D01*
G01*
G37*
G36*
G01*
X116950000Y47934046D02*
X116950000Y48714046D01*
G75*
G02*
X117020000Y48784046I70000J0D01*
G01*
X117580000Y48784046D01*
G75*
G02*
X117650000Y48714046I0J-70000D01*
G01*
X117650000Y47934046D01*
G75*
G02*
X117580000Y47864046I-70000J0D01*
G01*
X117020000Y47864046D01*
G75*
G02*
X116950000Y47934046I0J70000D01*
G01*
G37*
G04 #@! TD*
G04 #@! TO.C,R44*
G36*
G01*
X115350000Y49883092D02*
X115350000Y50663092D01*
G75*
G02*
X115420000Y50733092I70000J0D01*
G01*
X115980000Y50733092D01*
G75*
G02*
X116050000Y50663092I0J-70000D01*
G01*
X116050000Y49883092D01*
G75*
G02*
X115980000Y49813092I-70000J0D01*
G01*
X115420000Y49813092D01*
G75*
G02*
X115350000Y49883092I0J70000D01*
G01*
G37*
G36*
G01*
X116950000Y49883092D02*
X116950000Y50663092D01*
G75*
G02*
X117020000Y50733092I70000J0D01*
G01*
X117580000Y50733092D01*
G75*
G02*
X117650000Y50663092I0J-70000D01*
G01*
X117650000Y49883092D01*
G75*
G02*
X117580000Y49813092I-70000J0D01*
G01*
X117020000Y49813092D01*
G75*
G02*
X116950000Y49883092I0J70000D01*
G01*
G37*
G04 #@! TD*
G04 #@! TO.C,R43*
G36*
G01*
X115350000Y51832138D02*
X115350000Y52612138D01*
G75*
G02*
X115420000Y52682138I70000J0D01*
G01*
X115980000Y52682138D01*
G75*
G02*
X116050000Y52612138I0J-70000D01*
G01*
X116050000Y51832138D01*
G75*
G02*
X115980000Y51762138I-70000J0D01*
G01*
X115420000Y51762138D01*
G75*
G02*
X115350000Y51832138I0J70000D01*
G01*
G37*
G36*
G01*
X116950000Y51832138D02*
X116950000Y52612138D01*
G75*
G02*
X117020000Y52682138I70000J0D01*
G01*
X117580000Y52682138D01*
G75*
G02*
X117650000Y52612138I0J-70000D01*
G01*
X117650000Y51832138D01*
G75*
G02*
X117580000Y51762138I-70000J0D01*
G01*
X117020000Y51762138D01*
G75*
G02*
X116950000Y51832138I0J70000D01*
G01*
G37*
G04 #@! TD*
G04 #@! TO.C,R42*
G36*
G01*
X112050000Y42086908D02*
X112050000Y42866908D01*
G75*
G02*
X112120000Y42936908I70000J0D01*
G01*
X112680000Y42936908D01*
G75*
G02*
X112750000Y42866908I0J-70000D01*
G01*
X112750000Y42086908D01*
G75*
G02*
X112680000Y42016908I-70000J0D01*
G01*
X112120000Y42016908D01*
G75*
G02*
X112050000Y42086908I0J70000D01*
G01*
G37*
G36*
G01*
X113650000Y42086908D02*
X113650000Y42866908D01*
G75*
G02*
X113720000Y42936908I70000J0D01*
G01*
X114280000Y42936908D01*
G75*
G02*
X114350000Y42866908I0J-70000D01*
G01*
X114350000Y42086908D01*
G75*
G02*
X114280000Y42016908I-70000J0D01*
G01*
X113720000Y42016908D01*
G75*
G02*
X113650000Y42086908I0J70000D01*
G01*
G37*
G04 #@! TD*
G04 #@! TO.C,R41*
G36*
G01*
X112050000Y44035954D02*
X112050000Y44815954D01*
G75*
G02*
X112120000Y44885954I70000J0D01*
G01*
X112680000Y44885954D01*
G75*
G02*
X112750000Y44815954I0J-70000D01*
G01*
X112750000Y44035954D01*
G75*
G02*
X112680000Y43965954I-70000J0D01*
G01*
X112120000Y43965954D01*
G75*
G02*
X112050000Y44035954I0J70000D01*
G01*
G37*
G36*
G01*
X113650000Y44035954D02*
X113650000Y44815954D01*
G75*
G02*
X113720000Y44885954I70000J0D01*
G01*
X114280000Y44885954D01*
G75*
G02*
X114350000Y44815954I0J-70000D01*
G01*
X114350000Y44035954D01*
G75*
G02*
X114280000Y43965954I-70000J0D01*
G01*
X113720000Y43965954D01*
G75*
G02*
X113650000Y44035954I0J70000D01*
G01*
G37*
G04 #@! TD*
G04 #@! TO.C,R40*
G36*
G01*
X112050000Y45985000D02*
X112050000Y46765000D01*
G75*
G02*
X112120000Y46835000I70000J0D01*
G01*
X112680000Y46835000D01*
G75*
G02*
X112750000Y46765000I0J-70000D01*
G01*
X112750000Y45985000D01*
G75*
G02*
X112680000Y45915000I-70000J0D01*
G01*
X112120000Y45915000D01*
G75*
G02*
X112050000Y45985000I0J70000D01*
G01*
G37*
G36*
G01*
X113650000Y45985000D02*
X113650000Y46765000D01*
G75*
G02*
X113720000Y46835000I70000J0D01*
G01*
X114280000Y46835000D01*
G75*
G02*
X114350000Y46765000I0J-70000D01*
G01*
X114350000Y45985000D01*
G75*
G02*
X114280000Y45915000I-70000J0D01*
G01*
X113720000Y45915000D01*
G75*
G02*
X113650000Y45985000I0J70000D01*
G01*
G37*
G04 #@! TD*
G04 #@! TO.C,R39*
G36*
G01*
X112050000Y47934046D02*
X112050000Y48714046D01*
G75*
G02*
X112120000Y48784046I70000J0D01*
G01*
X112680000Y48784046D01*
G75*
G02*
X112750000Y48714046I0J-70000D01*
G01*
X112750000Y47934046D01*
G75*
G02*
X112680000Y47864046I-70000J0D01*
G01*
X112120000Y47864046D01*
G75*
G02*
X112050000Y47934046I0J70000D01*
G01*
G37*
G36*
G01*
X113650000Y47934046D02*
X113650000Y48714046D01*
G75*
G02*
X113720000Y48784046I70000J0D01*
G01*
X114280000Y48784046D01*
G75*
G02*
X114350000Y48714046I0J-70000D01*
G01*
X114350000Y47934046D01*
G75*
G02*
X114280000Y47864046I-70000J0D01*
G01*
X113720000Y47864046D01*
G75*
G02*
X113650000Y47934046I0J70000D01*
G01*
G37*
G04 #@! TD*
G04 #@! TO.C,R38*
G36*
G01*
X112050000Y49883092D02*
X112050000Y50663092D01*
G75*
G02*
X112120000Y50733092I70000J0D01*
G01*
X112680000Y50733092D01*
G75*
G02*
X112750000Y50663092I0J-70000D01*
G01*
X112750000Y49883092D01*
G75*
G02*
X112680000Y49813092I-70000J0D01*
G01*
X112120000Y49813092D01*
G75*
G02*
X112050000Y49883092I0J70000D01*
G01*
G37*
G36*
G01*
X113650000Y49883092D02*
X113650000Y50663092D01*
G75*
G02*
X113720000Y50733092I70000J0D01*
G01*
X114280000Y50733092D01*
G75*
G02*
X114350000Y50663092I0J-70000D01*
G01*
X114350000Y49883092D01*
G75*
G02*
X114280000Y49813092I-70000J0D01*
G01*
X113720000Y49813092D01*
G75*
G02*
X113650000Y49883092I0J70000D01*
G01*
G37*
G04 #@! TD*
G04 #@! TO.C,R37*
G36*
G01*
X112050000Y51832138D02*
X112050000Y52612138D01*
G75*
G02*
X112120000Y52682138I70000J0D01*
G01*
X112680000Y52682138D01*
G75*
G02*
X112750000Y52612138I0J-70000D01*
G01*
X112750000Y51832138D01*
G75*
G02*
X112680000Y51762138I-70000J0D01*
G01*
X112120000Y51762138D01*
G75*
G02*
X112050000Y51832138I0J70000D01*
G01*
G37*
G36*
G01*
X113650000Y51832138D02*
X113650000Y52612138D01*
G75*
G02*
X113720000Y52682138I70000J0D01*
G01*
X114280000Y52682138D01*
G75*
G02*
X114350000Y52612138I0J-70000D01*
G01*
X114350000Y51832138D01*
G75*
G02*
X114280000Y51762138I-70000J0D01*
G01*
X113720000Y51762138D01*
G75*
G02*
X113650000Y51832138I0J70000D01*
G01*
G37*
G04 #@! TD*
G04 #@! TO.C,R36*
G36*
G01*
X108750000Y42086908D02*
X108750000Y42866908D01*
G75*
G02*
X108820000Y42936908I70000J0D01*
G01*
X109380000Y42936908D01*
G75*
G02*
X109450000Y42866908I0J-70000D01*
G01*
X109450000Y42086908D01*
G75*
G02*
X109380000Y42016908I-70000J0D01*
G01*
X108820000Y42016908D01*
G75*
G02*
X108750000Y42086908I0J70000D01*
G01*
G37*
G36*
G01*
X110350000Y42086908D02*
X110350000Y42866908D01*
G75*
G02*
X110420000Y42936908I70000J0D01*
G01*
X110980000Y42936908D01*
G75*
G02*
X111050000Y42866908I0J-70000D01*
G01*
X111050000Y42086908D01*
G75*
G02*
X110980000Y42016908I-70000J0D01*
G01*
X110420000Y42016908D01*
G75*
G02*
X110350000Y42086908I0J70000D01*
G01*
G37*
G04 #@! TD*
G04 #@! TO.C,R35*
G36*
G01*
X108750000Y44035954D02*
X108750000Y44815954D01*
G75*
G02*
X108820000Y44885954I70000J0D01*
G01*
X109380000Y44885954D01*
G75*
G02*
X109450000Y44815954I0J-70000D01*
G01*
X109450000Y44035954D01*
G75*
G02*
X109380000Y43965954I-70000J0D01*
G01*
X108820000Y43965954D01*
G75*
G02*
X108750000Y44035954I0J70000D01*
G01*
G37*
G36*
G01*
X110350000Y44035954D02*
X110350000Y44815954D01*
G75*
G02*
X110420000Y44885954I70000J0D01*
G01*
X110980000Y44885954D01*
G75*
G02*
X111050000Y44815954I0J-70000D01*
G01*
X111050000Y44035954D01*
G75*
G02*
X110980000Y43965954I-70000J0D01*
G01*
X110420000Y43965954D01*
G75*
G02*
X110350000Y44035954I0J70000D01*
G01*
G37*
G04 #@! TD*
G04 #@! TO.C,R34*
G36*
G01*
X108750000Y45985000D02*
X108750000Y46765000D01*
G75*
G02*
X108820000Y46835000I70000J0D01*
G01*
X109380000Y46835000D01*
G75*
G02*
X109450000Y46765000I0J-70000D01*
G01*
X109450000Y45985000D01*
G75*
G02*
X109380000Y45915000I-70000J0D01*
G01*
X108820000Y45915000D01*
G75*
G02*
X108750000Y45985000I0J70000D01*
G01*
G37*
G36*
G01*
X110350000Y45985000D02*
X110350000Y46765000D01*
G75*
G02*
X110420000Y46835000I70000J0D01*
G01*
X110980000Y46835000D01*
G75*
G02*
X111050000Y46765000I0J-70000D01*
G01*
X111050000Y45985000D01*
G75*
G02*
X110980000Y45915000I-70000J0D01*
G01*
X110420000Y45915000D01*
G75*
G02*
X110350000Y45985000I0J70000D01*
G01*
G37*
G04 #@! TD*
G04 #@! TO.C,R33*
G36*
G01*
X108750000Y47934046D02*
X108750000Y48714046D01*
G75*
G02*
X108820000Y48784046I70000J0D01*
G01*
X109380000Y48784046D01*
G75*
G02*
X109450000Y48714046I0J-70000D01*
G01*
X109450000Y47934046D01*
G75*
G02*
X109380000Y47864046I-70000J0D01*
G01*
X108820000Y47864046D01*
G75*
G02*
X108750000Y47934046I0J70000D01*
G01*
G37*
G36*
G01*
X110350000Y47934046D02*
X110350000Y48714046D01*
G75*
G02*
X110420000Y48784046I70000J0D01*
G01*
X110980000Y48784046D01*
G75*
G02*
X111050000Y48714046I0J-70000D01*
G01*
X111050000Y47934046D01*
G75*
G02*
X110980000Y47864046I-70000J0D01*
G01*
X110420000Y47864046D01*
G75*
G02*
X110350000Y47934046I0J70000D01*
G01*
G37*
G04 #@! TD*
G04 #@! TO.C,R32*
G36*
G01*
X108750000Y49883092D02*
X108750000Y50663092D01*
G75*
G02*
X108820000Y50733092I70000J0D01*
G01*
X109380000Y50733092D01*
G75*
G02*
X109450000Y50663092I0J-70000D01*
G01*
X109450000Y49883092D01*
G75*
G02*
X109380000Y49813092I-70000J0D01*
G01*
X108820000Y49813092D01*
G75*
G02*
X108750000Y49883092I0J70000D01*
G01*
G37*
G36*
G01*
X110350000Y49883092D02*
X110350000Y50663092D01*
G75*
G02*
X110420000Y50733092I70000J0D01*
G01*
X110980000Y50733092D01*
G75*
G02*
X111050000Y50663092I0J-70000D01*
G01*
X111050000Y49883092D01*
G75*
G02*
X110980000Y49813092I-70000J0D01*
G01*
X110420000Y49813092D01*
G75*
G02*
X110350000Y49883092I0J70000D01*
G01*
G37*
G04 #@! TD*
G04 #@! TO.C,R31*
G36*
G01*
X108750000Y51832138D02*
X108750000Y52612138D01*
G75*
G02*
X108820000Y52682138I70000J0D01*
G01*
X109380000Y52682138D01*
G75*
G02*
X109450000Y52612138I0J-70000D01*
G01*
X109450000Y51832138D01*
G75*
G02*
X109380000Y51762138I-70000J0D01*
G01*
X108820000Y51762138D01*
G75*
G02*
X108750000Y51832138I0J70000D01*
G01*
G37*
G36*
G01*
X110350000Y51832138D02*
X110350000Y52612138D01*
G75*
G02*
X110420000Y52682138I70000J0D01*
G01*
X110980000Y52682138D01*
G75*
G02*
X111050000Y52612138I0J-70000D01*
G01*
X111050000Y51832138D01*
G75*
G02*
X110980000Y51762138I-70000J0D01*
G01*
X110420000Y51762138D01*
G75*
G02*
X110350000Y51832138I0J70000D01*
G01*
G37*
G04 #@! TD*
G04 #@! TO.C,R30*
G36*
G01*
X112720000Y80938733D02*
X112720000Y83788733D01*
G75*
G02*
X112970000Y84038733I250000J0D01*
G01*
X113695000Y84038733D01*
G75*
G02*
X113945000Y83788733I0J-250000D01*
G01*
X113945000Y80938733D01*
G75*
G02*
X113695000Y80688733I-250000J0D01*
G01*
X112970000Y80688733D01*
G75*
G02*
X112720000Y80938733I0J250000D01*
G01*
G37*
G36*
G01*
X118645000Y80938733D02*
X118645000Y83788733D01*
G75*
G02*
X118895000Y84038733I250000J0D01*
G01*
X119620000Y84038733D01*
G75*
G02*
X119870000Y83788733I0J-250000D01*
G01*
X119870000Y80938733D01*
G75*
G02*
X119620000Y80688733I-250000J0D01*
G01*
X118895000Y80688733D01*
G75*
G02*
X118645000Y80938733I0J250000D01*
G01*
G37*
G04 #@! TD*
G04 #@! TO.C,R29*
G36*
G01*
X112720000Y85828733D02*
X112720000Y88678733D01*
G75*
G02*
X112970000Y88928733I250000J0D01*
G01*
X113695000Y88928733D01*
G75*
G02*
X113945000Y88678733I0J-250000D01*
G01*
X113945000Y85828733D01*
G75*
G02*
X113695000Y85578733I-250000J0D01*
G01*
X112970000Y85578733D01*
G75*
G02*
X112720000Y85828733I0J250000D01*
G01*
G37*
G36*
G01*
X118645000Y85828733D02*
X118645000Y88678733D01*
G75*
G02*
X118895000Y88928733I250000J0D01*
G01*
X119620000Y88928733D01*
G75*
G02*
X119870000Y88678733I0J-250000D01*
G01*
X119870000Y85828733D01*
G75*
G02*
X119620000Y85578733I-250000J0D01*
G01*
X118895000Y85578733D01*
G75*
G02*
X118645000Y85828733I0J250000D01*
G01*
G37*
G04 #@! TD*
G04 #@! TO.C,R28*
G36*
G01*
X112720000Y90718733D02*
X112720000Y93568733D01*
G75*
G02*
X112970000Y93818733I250000J0D01*
G01*
X113695000Y93818733D01*
G75*
G02*
X113945000Y93568733I0J-250000D01*
G01*
X113945000Y90718733D01*
G75*
G02*
X113695000Y90468733I-250000J0D01*
G01*
X112970000Y90468733D01*
G75*
G02*
X112720000Y90718733I0J250000D01*
G01*
G37*
G36*
G01*
X118645000Y90718733D02*
X118645000Y93568733D01*
G75*
G02*
X118895000Y93818733I250000J0D01*
G01*
X119620000Y93818733D01*
G75*
G02*
X119870000Y93568733I0J-250000D01*
G01*
X119870000Y90718733D01*
G75*
G02*
X119620000Y90468733I-250000J0D01*
G01*
X118895000Y90468733D01*
G75*
G02*
X118645000Y90718733I0J250000D01*
G01*
G37*
G04 #@! TD*
G04 #@! TO.C,R27*
G36*
G01*
X116460000Y72705000D02*
X116460000Y73485000D01*
G75*
G02*
X116530000Y73555000I70000J0D01*
G01*
X117090000Y73555000D01*
G75*
G02*
X117160000Y73485000I0J-70000D01*
G01*
X117160000Y72705000D01*
G75*
G02*
X117090000Y72635000I-70000J0D01*
G01*
X116530000Y72635000D01*
G75*
G02*
X116460000Y72705000I0J70000D01*
G01*
G37*
G36*
G01*
X118060000Y72705000D02*
X118060000Y73485000D01*
G75*
G02*
X118130000Y73555000I70000J0D01*
G01*
X118690000Y73555000D01*
G75*
G02*
X118760000Y73485000I0J-70000D01*
G01*
X118760000Y72705000D01*
G75*
G02*
X118690000Y72635000I-70000J0D01*
G01*
X118130000Y72635000D01*
G75*
G02*
X118060000Y72705000I0J70000D01*
G01*
G37*
G04 #@! TD*
G04 #@! TO.C,R26*
G36*
G01*
X116460000Y74654046D02*
X116460000Y75434046D01*
G75*
G02*
X116530000Y75504046I70000J0D01*
G01*
X117090000Y75504046D01*
G75*
G02*
X117160000Y75434046I0J-70000D01*
G01*
X117160000Y74654046D01*
G75*
G02*
X117090000Y74584046I-70000J0D01*
G01*
X116530000Y74584046D01*
G75*
G02*
X116460000Y74654046I0J70000D01*
G01*
G37*
G36*
G01*
X118060000Y74654046D02*
X118060000Y75434046D01*
G75*
G02*
X118130000Y75504046I70000J0D01*
G01*
X118690000Y75504046D01*
G75*
G02*
X118760000Y75434046I0J-70000D01*
G01*
X118760000Y74654046D01*
G75*
G02*
X118690000Y74584046I-70000J0D01*
G01*
X118130000Y74584046D01*
G75*
G02*
X118060000Y74654046I0J70000D01*
G01*
G37*
G04 #@! TD*
G04 #@! TO.C,R25*
G36*
G01*
X116460000Y76603092D02*
X116460000Y77383092D01*
G75*
G02*
X116530000Y77453092I70000J0D01*
G01*
X117090000Y77453092D01*
G75*
G02*
X117160000Y77383092I0J-70000D01*
G01*
X117160000Y76603092D01*
G75*
G02*
X117090000Y76533092I-70000J0D01*
G01*
X116530000Y76533092D01*
G75*
G02*
X116460000Y76603092I0J70000D01*
G01*
G37*
G36*
G01*
X118060000Y76603092D02*
X118060000Y77383092D01*
G75*
G02*
X118130000Y77453092I70000J0D01*
G01*
X118690000Y77453092D01*
G75*
G02*
X118760000Y77383092I0J-70000D01*
G01*
X118760000Y76603092D01*
G75*
G02*
X118690000Y76533092I-70000J0D01*
G01*
X118130000Y76533092D01*
G75*
G02*
X118060000Y76603092I0J70000D01*
G01*
G37*
G04 #@! TD*
G04 #@! TO.C,R24*
G36*
G01*
X112720000Y95608733D02*
X112720000Y98458733D01*
G75*
G02*
X112970000Y98708733I250000J0D01*
G01*
X113695000Y98708733D01*
G75*
G02*
X113945000Y98458733I0J-250000D01*
G01*
X113945000Y95608733D01*
G75*
G02*
X113695000Y95358733I-250000J0D01*
G01*
X112970000Y95358733D01*
G75*
G02*
X112720000Y95608733I0J250000D01*
G01*
G37*
G36*
G01*
X118645000Y95608733D02*
X118645000Y98458733D01*
G75*
G02*
X118895000Y98708733I250000J0D01*
G01*
X119620000Y98708733D01*
G75*
G02*
X119870000Y98458733I0J-250000D01*
G01*
X119870000Y95608733D01*
G75*
G02*
X119620000Y95358733I-250000J0D01*
G01*
X118895000Y95358733D01*
G75*
G02*
X118645000Y95608733I0J250000D01*
G01*
G37*
G04 #@! TD*
G04 #@! TO.C,R22*
G36*
G01*
X112720000Y100498733D02*
X112720000Y103348733D01*
G75*
G02*
X112970000Y103598733I250000J0D01*
G01*
X113695000Y103598733D01*
G75*
G02*
X113945000Y103348733I0J-250000D01*
G01*
X113945000Y100498733D01*
G75*
G02*
X113695000Y100248733I-250000J0D01*
G01*
X112970000Y100248733D01*
G75*
G02*
X112720000Y100498733I0J250000D01*
G01*
G37*
G36*
G01*
X118645000Y100498733D02*
X118645000Y103348733D01*
G75*
G02*
X118895000Y103598733I250000J0D01*
G01*
X119620000Y103598733D01*
G75*
G02*
X119870000Y103348733I0J-250000D01*
G01*
X119870000Y100498733D01*
G75*
G02*
X119620000Y100248733I-250000J0D01*
G01*
X118895000Y100248733D01*
G75*
G02*
X118645000Y100498733I0J250000D01*
G01*
G37*
G04 #@! TD*
G04 #@! TO.C,R19*
G36*
G01*
X116460000Y78552138D02*
X116460000Y79332138D01*
G75*
G02*
X116530000Y79402138I70000J0D01*
G01*
X117090000Y79402138D01*
G75*
G02*
X117160000Y79332138I0J-70000D01*
G01*
X117160000Y78552138D01*
G75*
G02*
X117090000Y78482138I-70000J0D01*
G01*
X116530000Y78482138D01*
G75*
G02*
X116460000Y78552138I0J70000D01*
G01*
G37*
G36*
G01*
X118060000Y78552138D02*
X118060000Y79332138D01*
G75*
G02*
X118130000Y79402138I70000J0D01*
G01*
X118690000Y79402138D01*
G75*
G02*
X118760000Y79332138I0J-70000D01*
G01*
X118760000Y78552138D01*
G75*
G02*
X118690000Y78482138I-70000J0D01*
G01*
X118130000Y78482138D01*
G75*
G02*
X118060000Y78552138I0J70000D01*
G01*
G37*
G04 #@! TD*
G04 #@! TO.C,R18*
G36*
G01*
X65080000Y30123092D02*
X65080000Y30903092D01*
G75*
G02*
X65150000Y30973092I70000J0D01*
G01*
X65710000Y30973092D01*
G75*
G02*
X65780000Y30903092I0J-70000D01*
G01*
X65780000Y30123092D01*
G75*
G02*
X65710000Y30053092I-70000J0D01*
G01*
X65150000Y30053092D01*
G75*
G02*
X65080000Y30123092I0J70000D01*
G01*
G37*
G36*
G01*
X66680000Y30123092D02*
X66680000Y30903092D01*
G75*
G02*
X66750000Y30973092I70000J0D01*
G01*
X67310000Y30973092D01*
G75*
G02*
X67380000Y30903092I0J-70000D01*
G01*
X67380000Y30123092D01*
G75*
G02*
X67310000Y30053092I-70000J0D01*
G01*
X66750000Y30053092D01*
G75*
G02*
X66680000Y30123092I0J70000D01*
G01*
G37*
G04 #@! TD*
G04 #@! TO.C,R15*
G36*
G01*
X65080000Y32072138D02*
X65080000Y32852138D01*
G75*
G02*
X65150000Y32922138I70000J0D01*
G01*
X65710000Y32922138D01*
G75*
G02*
X65780000Y32852138I0J-70000D01*
G01*
X65780000Y32072138D01*
G75*
G02*
X65710000Y32002138I-70000J0D01*
G01*
X65150000Y32002138D01*
G75*
G02*
X65080000Y32072138I0J70000D01*
G01*
G37*
G36*
G01*
X66680000Y32072138D02*
X66680000Y32852138D01*
G75*
G02*
X66750000Y32922138I70000J0D01*
G01*
X67310000Y32922138D01*
G75*
G02*
X67380000Y32852138I0J-70000D01*
G01*
X67380000Y32072138D01*
G75*
G02*
X67310000Y32002138I-70000J0D01*
G01*
X66750000Y32002138D01*
G75*
G02*
X66680000Y32072138I0J70000D01*
G01*
G37*
G04 #@! TD*
G04 #@! TO.C,R14*
G36*
G01*
X90950000Y71156908D02*
X90950000Y71936908D01*
G75*
G02*
X91020000Y72006908I70000J0D01*
G01*
X91580000Y72006908D01*
G75*
G02*
X91650000Y71936908I0J-70000D01*
G01*
X91650000Y71156908D01*
G75*
G02*
X91580000Y71086908I-70000J0D01*
G01*
X91020000Y71086908D01*
G75*
G02*
X90950000Y71156908I0J70000D01*
G01*
G37*
G36*
G01*
X92550000Y71156908D02*
X92550000Y71936908D01*
G75*
G02*
X92620000Y72006908I70000J0D01*
G01*
X93180000Y72006908D01*
G75*
G02*
X93250000Y71936908I0J-70000D01*
G01*
X93250000Y71156908D01*
G75*
G02*
X93180000Y71086908I-70000J0D01*
G01*
X92620000Y71086908D01*
G75*
G02*
X92550000Y71156908I0J70000D01*
G01*
G37*
G04 #@! TD*
G04 #@! TO.C,R9*
G36*
G01*
X90950000Y63697876D02*
X90950000Y64947876D01*
G75*
G02*
X91050000Y65047876I100000J0D01*
G01*
X91850000Y65047876D01*
G75*
G02*
X91950000Y64947876I0J-100000D01*
G01*
X91950000Y63697876D01*
G75*
G02*
X91850000Y63597876I-100000J0D01*
G01*
X91050000Y63597876D01*
G75*
G02*
X90950000Y63697876I0J100000D01*
G01*
G37*
G36*
G01*
X92850022Y63697876D02*
X92850022Y64947876D01*
G75*
G02*
X92950022Y65047876I100000J0D01*
G01*
X93750022Y65047876D01*
G75*
G02*
X93850022Y64947876I0J-100000D01*
G01*
X93850022Y63697876D01*
G75*
G02*
X93750022Y63597876I-100000J0D01*
G01*
X92950022Y63597876D01*
G75*
G02*
X92850022Y63697876I0J100000D01*
G01*
G37*
G04 #@! TD*
G04 #@! TO.C,R8*
G36*
G01*
X90950000Y66200804D02*
X90950000Y67450804D01*
G75*
G02*
X91050000Y67550804I100000J0D01*
G01*
X91850000Y67550804D01*
G75*
G02*
X91950000Y67450804I0J-100000D01*
G01*
X91950000Y66200804D01*
G75*
G02*
X91850000Y66100804I-100000J0D01*
G01*
X91050000Y66100804D01*
G75*
G02*
X90950000Y66200804I0J100000D01*
G01*
G37*
G36*
G01*
X92850022Y66200804D02*
X92850022Y67450804D01*
G75*
G02*
X92950022Y67550804I100000J0D01*
G01*
X93750022Y67550804D01*
G75*
G02*
X93850022Y67450804I0J-100000D01*
G01*
X93850022Y66200804D01*
G75*
G02*
X93750022Y66100804I-100000J0D01*
G01*
X92950022Y66100804D01*
G75*
G02*
X92850022Y66200804I0J100000D01*
G01*
G37*
G04 #@! TD*
G04 #@! TO.C,R7*
G36*
G01*
X90950000Y68703732D02*
X90950000Y69953732D01*
G75*
G02*
X91050000Y70053732I100000J0D01*
G01*
X91850000Y70053732D01*
G75*
G02*
X91950000Y69953732I0J-100000D01*
G01*
X91950000Y68703732D01*
G75*
G02*
X91850000Y68603732I-100000J0D01*
G01*
X91050000Y68603732D01*
G75*
G02*
X90950000Y68703732I0J100000D01*
G01*
G37*
G36*
G01*
X92850022Y68703732D02*
X92850022Y69953732D01*
G75*
G02*
X92950022Y70053732I100000J0D01*
G01*
X93750022Y70053732D01*
G75*
G02*
X93850022Y69953732I0J-100000D01*
G01*
X93850022Y68703732D01*
G75*
G02*
X93750022Y68603732I-100000J0D01*
G01*
X92950022Y68603732D01*
G75*
G02*
X92850022Y68703732I0J100000D01*
G01*
G37*
G04 #@! TD*
G04 #@! TO.C,R6*
G36*
G01*
X90950000Y73105954D02*
X90950000Y73885954D01*
G75*
G02*
X91020000Y73955954I70000J0D01*
G01*
X91580000Y73955954D01*
G75*
G02*
X91650000Y73885954I0J-70000D01*
G01*
X91650000Y73105954D01*
G75*
G02*
X91580000Y73035954I-70000J0D01*
G01*
X91020000Y73035954D01*
G75*
G02*
X90950000Y73105954I0J70000D01*
G01*
G37*
G36*
G01*
X92550000Y73105954D02*
X92550000Y73885954D01*
G75*
G02*
X92620000Y73955954I70000J0D01*
G01*
X93180000Y73955954D01*
G75*
G02*
X93250000Y73885954I0J-70000D01*
G01*
X93250000Y73105954D01*
G75*
G02*
X93180000Y73035954I-70000J0D01*
G01*
X92620000Y73035954D01*
G75*
G02*
X92550000Y73105954I0J70000D01*
G01*
G37*
G04 #@! TD*
G04 #@! TO.C,R5*
G36*
G01*
X90950000Y75055000D02*
X90950000Y75835000D01*
G75*
G02*
X91020000Y75905000I70000J0D01*
G01*
X91580000Y75905000D01*
G75*
G02*
X91650000Y75835000I0J-70000D01*
G01*
X91650000Y75055000D01*
G75*
G02*
X91580000Y74985000I-70000J0D01*
G01*
X91020000Y74985000D01*
G75*
G02*
X90950000Y75055000I0J70000D01*
G01*
G37*
G36*
G01*
X92550000Y75055000D02*
X92550000Y75835000D01*
G75*
G02*
X92620000Y75905000I70000J0D01*
G01*
X93180000Y75905000D01*
G75*
G02*
X93250000Y75835000I0J-70000D01*
G01*
X93250000Y75055000D01*
G75*
G02*
X93180000Y74985000I-70000J0D01*
G01*
X92620000Y74985000D01*
G75*
G02*
X92550000Y75055000I0J70000D01*
G01*
G37*
G04 #@! TD*
G04 #@! TO.C,R4*
G36*
G01*
X89130390Y46668342D02*
X89130390Y47918342D01*
G75*
G02*
X89230390Y48018342I100000J0D01*
G01*
X90030390Y48018342D01*
G75*
G02*
X90130390Y47918342I0J-100000D01*
G01*
X90130390Y46668342D01*
G75*
G02*
X90030390Y46568342I-100000J0D01*
G01*
X89230390Y46568342D01*
G75*
G02*
X89130390Y46668342I0J100000D01*
G01*
G37*
D14*
X88675391Y47293342D03*
G36*
G01*
X91030412Y46668342D02*
X91030412Y47918342D01*
G75*
G02*
X91130412Y48018342I100000J0D01*
G01*
X91930412Y48018342D01*
G75*
G02*
X92030412Y47918342I0J-100000D01*
G01*
X92030412Y46668342D01*
G75*
G02*
X91930412Y46568342I-100000J0D01*
G01*
X91130412Y46568342D01*
G75*
G02*
X91030412Y46668342I0J100000D01*
G01*
G37*
X92485391Y47293342D03*
G04 #@! TD*
G04 #@! TO.C,R3*
G36*
G01*
X90950000Y77004046D02*
X90950000Y77784046D01*
G75*
G02*
X91020000Y77854046I70000J0D01*
G01*
X91580000Y77854046D01*
G75*
G02*
X91650000Y77784046I0J-70000D01*
G01*
X91650000Y77004046D01*
G75*
G02*
X91580000Y76934046I-70000J0D01*
G01*
X91020000Y76934046D01*
G75*
G02*
X90950000Y77004046I0J70000D01*
G01*
G37*
G36*
G01*
X92550000Y77004046D02*
X92550000Y77784046D01*
G75*
G02*
X92620000Y77854046I70000J0D01*
G01*
X93180000Y77854046D01*
G75*
G02*
X93250000Y77784046I0J-70000D01*
G01*
X93250000Y77004046D01*
G75*
G02*
X93180000Y76934046I-70000J0D01*
G01*
X92620000Y76934046D01*
G75*
G02*
X92550000Y77004046I0J70000D01*
G01*
G37*
G04 #@! TD*
G04 #@! TO.C,R2*
G36*
G01*
X90950000Y78953092D02*
X90950000Y79733092D01*
G75*
G02*
X91020000Y79803092I70000J0D01*
G01*
X91580000Y79803092D01*
G75*
G02*
X91650000Y79733092I0J-70000D01*
G01*
X91650000Y78953092D01*
G75*
G02*
X91580000Y78883092I-70000J0D01*
G01*
X91020000Y78883092D01*
G75*
G02*
X90950000Y78953092I0J70000D01*
G01*
G37*
G36*
G01*
X92550000Y78953092D02*
X92550000Y79733092D01*
G75*
G02*
X92620000Y79803092I70000J0D01*
G01*
X93180000Y79803092D01*
G75*
G02*
X93250000Y79733092I0J-70000D01*
G01*
X93250000Y78953092D01*
G75*
G02*
X93180000Y78883092I-70000J0D01*
G01*
X92620000Y78883092D01*
G75*
G02*
X92550000Y78953092I0J70000D01*
G01*
G37*
G04 #@! TD*
G04 #@! TO.C,R1*
G36*
G01*
X90950000Y80902138D02*
X90950000Y81682138D01*
G75*
G02*
X91020000Y81752138I70000J0D01*
G01*
X91580000Y81752138D01*
G75*
G02*
X91650000Y81682138I0J-70000D01*
G01*
X91650000Y80902138D01*
G75*
G02*
X91580000Y80832138I-70000J0D01*
G01*
X91020000Y80832138D01*
G75*
G02*
X90950000Y80902138I0J70000D01*
G01*
G37*
G36*
G01*
X92550000Y80902138D02*
X92550000Y81682138D01*
G75*
G02*
X92620000Y81752138I70000J0D01*
G01*
X93180000Y81752138D01*
G75*
G02*
X93250000Y81682138I0J-70000D01*
G01*
X93250000Y80902138D01*
G75*
G02*
X93180000Y80832138I-70000J0D01*
G01*
X92620000Y80832138D01*
G75*
G02*
X92550000Y80902138I0J70000D01*
G01*
G37*
G04 #@! TD*
G04 #@! TO.C,Q7*
G36*
G01*
X100575000Y61153733D02*
X100575000Y61853733D01*
G75*
G02*
X100825000Y62103733I250000J0D01*
G01*
X102525000Y62103733D01*
G75*
G02*
X102775000Y61853733I0J-250000D01*
G01*
X102775000Y61153733D01*
G75*
G02*
X102525000Y60903733I-250000J0D01*
G01*
X100825000Y60903733D01*
G75*
G02*
X100575000Y61153733I0J250000D01*
G01*
G37*
G36*
G01*
X104775000Y56573730D02*
X104775000Y61873736D01*
G75*
G02*
X105024997Y62123733I249997J0D01*
G01*
X110925003Y62123733D01*
G75*
G02*
X111175000Y61873736I0J-249997D01*
G01*
X111175000Y56573730D01*
G75*
G02*
X110925003Y56323733I-249997J0D01*
G01*
X105024997Y56323733D01*
G75*
G02*
X104775000Y56573730I0J249997D01*
G01*
G37*
G36*
G01*
X100575000Y56593733D02*
X100575000Y57293733D01*
G75*
G02*
X100825000Y57543733I250000J0D01*
G01*
X102525000Y57543733D01*
G75*
G02*
X102775000Y57293733I0J-250000D01*
G01*
X102775000Y56593733D01*
G75*
G02*
X102525000Y56343733I-250000J0D01*
G01*
X100825000Y56343733D01*
G75*
G02*
X100575000Y56593733I0J250000D01*
G01*
G37*
G04 #@! TD*
G04 #@! TO.C,Q6*
G36*
G01*
X100575000Y69348733D02*
X100575000Y70048733D01*
G75*
G02*
X100825000Y70298733I250000J0D01*
G01*
X102525000Y70298733D01*
G75*
G02*
X102775000Y70048733I0J-250000D01*
G01*
X102775000Y69348733D01*
G75*
G02*
X102525000Y69098733I-250000J0D01*
G01*
X100825000Y69098733D01*
G75*
G02*
X100575000Y69348733I0J250000D01*
G01*
G37*
G36*
G01*
X104775000Y64768730D02*
X104775000Y70068736D01*
G75*
G02*
X105024997Y70318733I249997J0D01*
G01*
X110925003Y70318733D01*
G75*
G02*
X111175000Y70068736I0J-249997D01*
G01*
X111175000Y64768730D01*
G75*
G02*
X110925003Y64518733I-249997J0D01*
G01*
X105024997Y64518733D01*
G75*
G02*
X104775000Y64768730I0J249997D01*
G01*
G37*
G36*
G01*
X100575000Y64788733D02*
X100575000Y65488733D01*
G75*
G02*
X100825000Y65738733I250000J0D01*
G01*
X102525000Y65738733D01*
G75*
G02*
X102775000Y65488733I0J-250000D01*
G01*
X102775000Y64788733D01*
G75*
G02*
X102525000Y64538733I-250000J0D01*
G01*
X100825000Y64538733D01*
G75*
G02*
X100575000Y64788733I0J250000D01*
G01*
G37*
G04 #@! TD*
G04 #@! TO.C,Q5*
G36*
G01*
X100575000Y77543733D02*
X100575000Y78243733D01*
G75*
G02*
X100825000Y78493733I250000J0D01*
G01*
X102525000Y78493733D01*
G75*
G02*
X102775000Y78243733I0J-250000D01*
G01*
X102775000Y77543733D01*
G75*
G02*
X102525000Y77293733I-250000J0D01*
G01*
X100825000Y77293733D01*
G75*
G02*
X100575000Y77543733I0J250000D01*
G01*
G37*
G36*
G01*
X104775000Y72963730D02*
X104775000Y78263736D01*
G75*
G02*
X105024997Y78513733I249997J0D01*
G01*
X110925003Y78513733D01*
G75*
G02*
X111175000Y78263736I0J-249997D01*
G01*
X111175000Y72963730D01*
G75*
G02*
X110925003Y72713733I-249997J0D01*
G01*
X105024997Y72713733D01*
G75*
G02*
X104775000Y72963730I0J249997D01*
G01*
G37*
G36*
G01*
X100575000Y72983733D02*
X100575000Y73683733D01*
G75*
G02*
X100825000Y73933733I250000J0D01*
G01*
X102525000Y73933733D01*
G75*
G02*
X102775000Y73683733I0J-250000D01*
G01*
X102775000Y72983733D01*
G75*
G02*
X102525000Y72733733I-250000J0D01*
G01*
X100825000Y72733733D01*
G75*
G02*
X100575000Y72983733I0J250000D01*
G01*
G37*
G04 #@! TD*
G04 #@! TO.C,Q4*
G36*
G01*
X100575000Y85738733D02*
X100575000Y86438733D01*
G75*
G02*
X100825000Y86688733I250000J0D01*
G01*
X102525000Y86688733D01*
G75*
G02*
X102775000Y86438733I0J-250000D01*
G01*
X102775000Y85738733D01*
G75*
G02*
X102525000Y85488733I-250000J0D01*
G01*
X100825000Y85488733D01*
G75*
G02*
X100575000Y85738733I0J250000D01*
G01*
G37*
G36*
G01*
X104775000Y81158730D02*
X104775000Y86458736D01*
G75*
G02*
X105024997Y86708733I249997J0D01*
G01*
X110925003Y86708733D01*
G75*
G02*
X111175000Y86458736I0J-249997D01*
G01*
X111175000Y81158730D01*
G75*
G02*
X110925003Y80908733I-249997J0D01*
G01*
X105024997Y80908733D01*
G75*
G02*
X104775000Y81158730I0J249997D01*
G01*
G37*
G36*
G01*
X100575000Y81178733D02*
X100575000Y81878733D01*
G75*
G02*
X100825000Y82128733I250000J0D01*
G01*
X102525000Y82128733D01*
G75*
G02*
X102775000Y81878733I0J-250000D01*
G01*
X102775000Y81178733D01*
G75*
G02*
X102525000Y80928733I-250000J0D01*
G01*
X100825000Y80928733D01*
G75*
G02*
X100575000Y81178733I0J250000D01*
G01*
G37*
G04 #@! TD*
G04 #@! TO.C,Q3*
G36*
G01*
X100575000Y93933733D02*
X100575000Y94633733D01*
G75*
G02*
X100825000Y94883733I250000J0D01*
G01*
X102525000Y94883733D01*
G75*
G02*
X102775000Y94633733I0J-250000D01*
G01*
X102775000Y93933733D01*
G75*
G02*
X102525000Y93683733I-250000J0D01*
G01*
X100825000Y93683733D01*
G75*
G02*
X100575000Y93933733I0J250000D01*
G01*
G37*
G36*
G01*
X104775000Y89353730D02*
X104775000Y94653736D01*
G75*
G02*
X105024997Y94903733I249997J0D01*
G01*
X110925003Y94903733D01*
G75*
G02*
X111175000Y94653736I0J-249997D01*
G01*
X111175000Y89353730D01*
G75*
G02*
X110925003Y89103733I-249997J0D01*
G01*
X105024997Y89103733D01*
G75*
G02*
X104775000Y89353730I0J249997D01*
G01*
G37*
G36*
G01*
X100575000Y89373733D02*
X100575000Y90073733D01*
G75*
G02*
X100825000Y90323733I250000J0D01*
G01*
X102525000Y90323733D01*
G75*
G02*
X102775000Y90073733I0J-250000D01*
G01*
X102775000Y89373733D01*
G75*
G02*
X102525000Y89123733I-250000J0D01*
G01*
X100825000Y89123733D01*
G75*
G02*
X100575000Y89373733I0J250000D01*
G01*
G37*
G04 #@! TD*
G04 #@! TO.C,Q2*
G36*
G01*
X100575000Y102128733D02*
X100575000Y102828733D01*
G75*
G02*
X100825000Y103078733I250000J0D01*
G01*
X102525000Y103078733D01*
G75*
G02*
X102775000Y102828733I0J-250000D01*
G01*
X102775000Y102128733D01*
G75*
G02*
X102525000Y101878733I-250000J0D01*
G01*
X100825000Y101878733D01*
G75*
G02*
X100575000Y102128733I0J250000D01*
G01*
G37*
G36*
G01*
X104775000Y97548730D02*
X104775000Y102848736D01*
G75*
G02*
X105024997Y103098733I249997J0D01*
G01*
X110925003Y103098733D01*
G75*
G02*
X111175000Y102848736I0J-249997D01*
G01*
X111175000Y97548730D01*
G75*
G02*
X110925003Y97298733I-249997J0D01*
G01*
X105024997Y97298733D01*
G75*
G02*
X104775000Y97548730I0J249997D01*
G01*
G37*
G36*
G01*
X100575000Y97568733D02*
X100575000Y98268733D01*
G75*
G02*
X100825000Y98518733I250000J0D01*
G01*
X102525000Y98518733D01*
G75*
G02*
X102775000Y98268733I0J-250000D01*
G01*
X102775000Y97568733D01*
G75*
G02*
X102525000Y97318733I-250000J0D01*
G01*
X100825000Y97318733D01*
G75*
G02*
X100575000Y97568733I0J250000D01*
G01*
G37*
G04 #@! TD*
G04 #@! TO.C,Q1*
G36*
G01*
X89420000Y102768733D02*
X89420000Y103068733D01*
G75*
G02*
X89570000Y103218733I150000J0D01*
G01*
X90745000Y103218733D01*
G75*
G02*
X90895000Y103068733I0J-150000D01*
G01*
X90895000Y102768733D01*
G75*
G02*
X90745000Y102618733I-150000J0D01*
G01*
X89570000Y102618733D01*
G75*
G02*
X89420000Y102768733I0J150000D01*
G01*
G37*
G36*
G01*
X89420000Y100868733D02*
X89420000Y101168733D01*
G75*
G02*
X89570000Y101318733I150000J0D01*
G01*
X90745000Y101318733D01*
G75*
G02*
X90895000Y101168733I0J-150000D01*
G01*
X90895000Y100868733D01*
G75*
G02*
X90745000Y100718733I-150000J0D01*
G01*
X89570000Y100718733D01*
G75*
G02*
X89420000Y100868733I0J150000D01*
G01*
G37*
G36*
G01*
X91295000Y101818733D02*
X91295000Y102118733D01*
G75*
G02*
X91445000Y102268733I150000J0D01*
G01*
X92620000Y102268733D01*
G75*
G02*
X92770000Y102118733I0J-150000D01*
G01*
X92770000Y101818733D01*
G75*
G02*
X92620000Y101668733I-150000J0D01*
G01*
X91445000Y101668733D01*
G75*
G02*
X91295000Y101818733I0J150000D01*
G01*
G37*
G04 #@! TD*
D15*
G04 #@! TO.C,M8*
X48699993Y44457062D03*
D16*
X38349999Y44507060D03*
X38850000Y44507060D03*
D17*
X45399997Y45557058D03*
X44524995Y46082058D03*
X45699999Y46832056D03*
X45624996Y50382057D03*
G04 #@! TD*
D18*
G04 #@! TO.C,M4*
X87750000Y89918733D03*
X87750000Y88718733D03*
X87750000Y91118733D03*
X87750000Y92318733D03*
X73325000Y85858733D03*
X73325000Y84858733D03*
G04 #@! TD*
G04 #@! TO.C,M3*
X87750000Y100968733D03*
X87750000Y99768733D03*
X87750000Y102168733D03*
X87750000Y103368733D03*
X73325000Y96908733D03*
X73325000Y95908733D03*
G04 #@! TD*
G04 #@! TO.C,M2*
X97000000Y52068730D03*
X97000000Y51118730D03*
X97000000Y50168732D03*
X88300000Y51168730D03*
X88300000Y52068730D03*
G04 #@! TD*
D13*
G04 #@! TO.C,M1*
X89199996Y80568731D03*
X89199996Y74168734D03*
X89199996Y72268731D03*
X89199996Y67968731D03*
D18*
X89649995Y65568734D03*
X89649995Y64568733D03*
D13*
X89199996Y61718731D03*
X73699999Y81018733D03*
X73699999Y79168734D03*
X73699999Y74218731D03*
X73699999Y62168733D03*
G04 #@! TD*
G04 #@! TO.C,L2*
G36*
G01*
X41160000Y29417483D02*
X41160000Y29929983D01*
G75*
G02*
X41378750Y30148733I218750J0D01*
G01*
X41816250Y30148733D01*
G75*
G02*
X42035000Y29929983I0J-218750D01*
G01*
X42035000Y29417483D01*
G75*
G02*
X41816250Y29198733I-218750J0D01*
G01*
X41378750Y29198733D01*
G75*
G02*
X41160000Y29417483I0J218750D01*
G01*
G37*
G36*
G01*
X42735000Y29417483D02*
X42735000Y29929983D01*
G75*
G02*
X42953750Y30148733I218750J0D01*
G01*
X43391250Y30148733D01*
G75*
G02*
X43610000Y29929983I0J-218750D01*
G01*
X43610000Y29417483D01*
G75*
G02*
X43391250Y29198733I-218750J0D01*
G01*
X42953750Y29198733D01*
G75*
G02*
X42735000Y29417483I0J218750D01*
G01*
G37*
G04 #@! TD*
G04 #@! TO.C,L1*
G36*
G01*
X41160000Y31927483D02*
X41160000Y32439983D01*
G75*
G02*
X41378750Y32658733I218750J0D01*
G01*
X41816250Y32658733D01*
G75*
G02*
X42035000Y32439983I0J-218750D01*
G01*
X42035000Y31927483D01*
G75*
G02*
X41816250Y31708733I-218750J0D01*
G01*
X41378750Y31708733D01*
G75*
G02*
X41160000Y31927483I0J218750D01*
G01*
G37*
G36*
G01*
X42735000Y31927483D02*
X42735000Y32439983D01*
G75*
G02*
X42953750Y32658733I218750J0D01*
G01*
X43391250Y32658733D01*
G75*
G02*
X43610000Y32439983I0J-218750D01*
G01*
X43610000Y31927483D01*
G75*
G02*
X43391250Y31708733I-218750J0D01*
G01*
X42953750Y31708733D01*
G75*
G02*
X42735000Y31927483I0J218750D01*
G01*
G37*
G04 #@! TD*
G04 #@! TO.C,J1*
G36*
G01*
X74825000Y55418733D02*
X74825000Y56768733D01*
G75*
G02*
X75075000Y57018733I250000J0D01*
G01*
X76275000Y57018733D01*
G75*
G02*
X76525000Y56768733I0J-250000D01*
G01*
X76525000Y55418733D01*
G75*
G02*
X76275000Y55168733I-250000J0D01*
G01*
X75075000Y55168733D01*
G75*
G02*
X74825000Y55418733I0J250000D01*
G01*
G37*
D19*
X78175000Y56093733D03*
X80675000Y56093733D03*
X83175000Y56093733D03*
X85675000Y56093733D03*
G04 #@! TD*
G04 #@! TO.C,F9*
G36*
G01*
X112730000Y65857483D02*
X112730000Y66369983D01*
G75*
G02*
X112948750Y66588733I218750J0D01*
G01*
X113386250Y66588733D01*
G75*
G02*
X113605000Y66369983I0J-218750D01*
G01*
X113605000Y65857483D01*
G75*
G02*
X113386250Y65638733I-218750J0D01*
G01*
X112948750Y65638733D01*
G75*
G02*
X112730000Y65857483I0J218750D01*
G01*
G37*
G36*
G01*
X114305000Y65857483D02*
X114305000Y66369983D01*
G75*
G02*
X114523750Y66588733I218750J0D01*
G01*
X114961250Y66588733D01*
G75*
G02*
X115180000Y66369983I0J-218750D01*
G01*
X115180000Y65857483D01*
G75*
G02*
X114961250Y65638733I-218750J0D01*
G01*
X114523750Y65638733D01*
G75*
G02*
X114305000Y65857483I0J218750D01*
G01*
G37*
G04 #@! TD*
G04 #@! TO.C,F8*
G36*
G01*
X112730000Y68367483D02*
X112730000Y68879983D01*
G75*
G02*
X112948750Y69098733I218750J0D01*
G01*
X113386250Y69098733D01*
G75*
G02*
X113605000Y68879983I0J-218750D01*
G01*
X113605000Y68367483D01*
G75*
G02*
X113386250Y68148733I-218750J0D01*
G01*
X112948750Y68148733D01*
G75*
G02*
X112730000Y68367483I0J218750D01*
G01*
G37*
G36*
G01*
X114305000Y68367483D02*
X114305000Y68879983D01*
G75*
G02*
X114523750Y69098733I218750J0D01*
G01*
X114961250Y69098733D01*
G75*
G02*
X115180000Y68879983I0J-218750D01*
G01*
X115180000Y68367483D01*
G75*
G02*
X114961250Y68148733I-218750J0D01*
G01*
X114523750Y68148733D01*
G75*
G02*
X114305000Y68367483I0J218750D01*
G01*
G37*
G04 #@! TD*
G04 #@! TO.C,F7*
G36*
G01*
X112730000Y70877483D02*
X112730000Y71389983D01*
G75*
G02*
X112948750Y71608733I218750J0D01*
G01*
X113386250Y71608733D01*
G75*
G02*
X113605000Y71389983I0J-218750D01*
G01*
X113605000Y70877483D01*
G75*
G02*
X113386250Y70658733I-218750J0D01*
G01*
X112948750Y70658733D01*
G75*
G02*
X112730000Y70877483I0J218750D01*
G01*
G37*
G36*
G01*
X114305000Y70877483D02*
X114305000Y71389983D01*
G75*
G02*
X114523750Y71608733I218750J0D01*
G01*
X114961250Y71608733D01*
G75*
G02*
X115180000Y71389983I0J-218750D01*
G01*
X115180000Y70877483D01*
G75*
G02*
X114961250Y70658733I-218750J0D01*
G01*
X114523750Y70658733D01*
G75*
G02*
X114305000Y70877483I0J218750D01*
G01*
G37*
G04 #@! TD*
G04 #@! TO.C,F6*
G36*
G01*
X112730000Y73387483D02*
X112730000Y73899983D01*
G75*
G02*
X112948750Y74118733I218750J0D01*
G01*
X113386250Y74118733D01*
G75*
G02*
X113605000Y73899983I0J-218750D01*
G01*
X113605000Y73387483D01*
G75*
G02*
X113386250Y73168733I-218750J0D01*
G01*
X112948750Y73168733D01*
G75*
G02*
X112730000Y73387483I0J218750D01*
G01*
G37*
G36*
G01*
X114305000Y73387483D02*
X114305000Y73899983D01*
G75*
G02*
X114523750Y74118733I218750J0D01*
G01*
X114961250Y74118733D01*
G75*
G02*
X115180000Y73899983I0J-218750D01*
G01*
X115180000Y73387483D01*
G75*
G02*
X114961250Y73168733I-218750J0D01*
G01*
X114523750Y73168733D01*
G75*
G02*
X114305000Y73387483I0J218750D01*
G01*
G37*
G04 #@! TD*
G04 #@! TO.C,F5*
G36*
G01*
X112730000Y75897483D02*
X112730000Y76409983D01*
G75*
G02*
X112948750Y76628733I218750J0D01*
G01*
X113386250Y76628733D01*
G75*
G02*
X113605000Y76409983I0J-218750D01*
G01*
X113605000Y75897483D01*
G75*
G02*
X113386250Y75678733I-218750J0D01*
G01*
X112948750Y75678733D01*
G75*
G02*
X112730000Y75897483I0J218750D01*
G01*
G37*
G36*
G01*
X114305000Y75897483D02*
X114305000Y76409983D01*
G75*
G02*
X114523750Y76628733I218750J0D01*
G01*
X114961250Y76628733D01*
G75*
G02*
X115180000Y76409983I0J-218750D01*
G01*
X115180000Y75897483D01*
G75*
G02*
X114961250Y75678733I-218750J0D01*
G01*
X114523750Y75678733D01*
G75*
G02*
X114305000Y75897483I0J218750D01*
G01*
G37*
G04 #@! TD*
G04 #@! TO.C,F4*
G36*
G01*
X112730000Y78407483D02*
X112730000Y78919983D01*
G75*
G02*
X112948750Y79138733I218750J0D01*
G01*
X113386250Y79138733D01*
G75*
G02*
X113605000Y78919983I0J-218750D01*
G01*
X113605000Y78407483D01*
G75*
G02*
X113386250Y78188733I-218750J0D01*
G01*
X112948750Y78188733D01*
G75*
G02*
X112730000Y78407483I0J218750D01*
G01*
G37*
G36*
G01*
X114305000Y78407483D02*
X114305000Y78919983D01*
G75*
G02*
X114523750Y79138733I218750J0D01*
G01*
X114961250Y79138733D01*
G75*
G02*
X115180000Y78919983I0J-218750D01*
G01*
X115180000Y78407483D01*
G75*
G02*
X114961250Y78188733I-218750J0D01*
G01*
X114523750Y78188733D01*
G75*
G02*
X114305000Y78407483I0J218750D01*
G01*
G37*
G04 #@! TD*
G04 #@! TO.C,F3*
G36*
G01*
X64624990Y43068733D02*
X63934990Y43068733D01*
G75*
G02*
X63704990Y43298733I0J230000D01*
G01*
X63704990Y44638733D01*
G75*
G02*
X63934990Y44868733I230000J0D01*
G01*
X64624990Y44868733D01*
G75*
G02*
X64854990Y44638733I0J-230000D01*
G01*
X64854990Y43298733D01*
G75*
G02*
X64624990Y43068733I-230000J0D01*
G01*
G37*
D14*
X63280000Y43968733D03*
X68180000Y43968733D03*
G36*
G01*
X67525010Y43068733D02*
X66835010Y43068733D01*
G75*
G02*
X66605010Y43298733I0J230000D01*
G01*
X66605010Y44638733D01*
G75*
G02*
X66835010Y44868733I230000J0D01*
G01*
X67525010Y44868733D01*
G75*
G02*
X67755010Y44638733I0J-230000D01*
G01*
X67755010Y43298733D01*
G75*
G02*
X67525010Y43068733I-230000J0D01*
G01*
G37*
G04 #@! TD*
G04 #@! TO.C,F2*
G36*
G01*
X64624990Y46188733D02*
X63934990Y46188733D01*
G75*
G02*
X63704990Y46418733I0J230000D01*
G01*
X63704990Y47758733D01*
G75*
G02*
X63934990Y47988733I230000J0D01*
G01*
X64624990Y47988733D01*
G75*
G02*
X64854990Y47758733I0J-230000D01*
G01*
X64854990Y46418733D01*
G75*
G02*
X64624990Y46188733I-230000J0D01*
G01*
G37*
X63280000Y47088733D03*
X68180000Y47088733D03*
G36*
G01*
X67525010Y46188733D02*
X66835010Y46188733D01*
G75*
G02*
X66605010Y46418733I0J230000D01*
G01*
X66605010Y47758733D01*
G75*
G02*
X66835010Y47988733I230000J0D01*
G01*
X67525010Y47988733D01*
G75*
G02*
X67755010Y47758733I0J-230000D01*
G01*
X67755010Y46418733D01*
G75*
G02*
X67525010Y46188733I-230000J0D01*
G01*
G37*
G04 #@! TD*
G04 #@! TO.C,F1*
G36*
G01*
X64624990Y49308733D02*
X63934990Y49308733D01*
G75*
G02*
X63704990Y49538733I0J230000D01*
G01*
X63704990Y50878733D01*
G75*
G02*
X63934990Y51108733I230000J0D01*
G01*
X64624990Y51108733D01*
G75*
G02*
X64854990Y50878733I0J-230000D01*
G01*
X64854990Y49538733D01*
G75*
G02*
X64624990Y49308733I-230000J0D01*
G01*
G37*
X63280000Y50208733D03*
X68180000Y50208733D03*
G36*
G01*
X67525010Y49308733D02*
X66835010Y49308733D01*
G75*
G02*
X66605010Y49538733I0J230000D01*
G01*
X66605010Y50878733D01*
G75*
G02*
X66835010Y51108733I230000J0D01*
G01*
X67525010Y51108733D01*
G75*
G02*
X67755010Y50878733I0J-230000D01*
G01*
X67755010Y49538733D01*
G75*
G02*
X67525010Y49308733I-230000J0D01*
G01*
G37*
G04 #@! TD*
G04 #@! TO.C,D2*
G36*
G01*
X89860000Y55028733D02*
X89860000Y56048733D01*
G75*
G02*
X89950000Y56138733I90000J0D01*
G01*
X90670000Y56138733D01*
G75*
G02*
X90760000Y56048733I0J-90000D01*
G01*
X90760000Y55028733D01*
G75*
G02*
X90670000Y54938733I-90000J0D01*
G01*
X89950000Y54938733D01*
G75*
G02*
X89860000Y55028733I0J90000D01*
G01*
G37*
G36*
G01*
X93160000Y55028733D02*
X93160000Y56048733D01*
G75*
G02*
X93250000Y56138733I90000J0D01*
G01*
X93970000Y56138733D01*
G75*
G02*
X94060000Y56048733I0J-90000D01*
G01*
X94060000Y55028733D01*
G75*
G02*
X93970000Y54938733I-90000J0D01*
G01*
X93250000Y54938733D01*
G75*
G02*
X93160000Y55028733I0J90000D01*
G01*
G37*
G04 #@! TD*
G04 #@! TO.C,D1*
G36*
G01*
X89860000Y58148733D02*
X89860000Y59168733D01*
G75*
G02*
X89950000Y59258733I90000J0D01*
G01*
X90670000Y59258733D01*
G75*
G02*
X90760000Y59168733I0J-90000D01*
G01*
X90760000Y58148733D01*
G75*
G02*
X90670000Y58058733I-90000J0D01*
G01*
X89950000Y58058733D01*
G75*
G02*
X89860000Y58148733I0J90000D01*
G01*
G37*
G36*
G01*
X93160000Y58148733D02*
X93160000Y59168733D01*
G75*
G02*
X93250000Y59258733I90000J0D01*
G01*
X93970000Y59258733D01*
G75*
G02*
X94060000Y59168733I0J-90000D01*
G01*
X94060000Y58148733D01*
G75*
G02*
X93970000Y58058733I-90000J0D01*
G01*
X93250000Y58058733D01*
G75*
G02*
X93160000Y58148733I0J90000D01*
G01*
G37*
G04 #@! TD*
G04 #@! TO.C,C5*
G36*
G01*
X37450000Y30928807D02*
X37450000Y31608807D01*
G75*
G02*
X37535000Y31693807I85000J0D01*
G01*
X38215000Y31693807D01*
G75*
G02*
X38300000Y31608807I0J-85000D01*
G01*
X38300000Y30928807D01*
G75*
G02*
X38215000Y30843807I-85000J0D01*
G01*
X37535000Y30843807D01*
G75*
G02*
X37450000Y30928807I0J85000D01*
G01*
G37*
G36*
G01*
X39030002Y30928807D02*
X39030002Y31608807D01*
G75*
G02*
X39115002Y31693807I85000J0D01*
G01*
X39795002Y31693807D01*
G75*
G02*
X39880002Y31608807I0J-85000D01*
G01*
X39880002Y30928807D01*
G75*
G02*
X39795002Y30843807I-85000J0D01*
G01*
X39115002Y30843807D01*
G75*
G02*
X39030002Y30928807I0J85000D01*
G01*
G37*
G04 #@! TD*
G04 #@! TO.C,C4*
G36*
G01*
X37450000Y32878792D02*
X37450000Y33558792D01*
G75*
G02*
X37535000Y33643792I85000J0D01*
G01*
X38215000Y33643792D01*
G75*
G02*
X38300000Y33558792I0J-85000D01*
G01*
X38300000Y32878792D01*
G75*
G02*
X38215000Y32793792I-85000J0D01*
G01*
X37535000Y32793792D01*
G75*
G02*
X37450000Y32878792I0J85000D01*
G01*
G37*
G36*
G01*
X39030002Y32878792D02*
X39030002Y33558792D01*
G75*
G02*
X39115002Y33643792I85000J0D01*
G01*
X39795002Y33643792D01*
G75*
G02*
X39880002Y33558792I0J-85000D01*
G01*
X39880002Y32878792D01*
G75*
G02*
X39795002Y32793792I-85000J0D01*
G01*
X39115002Y32793792D01*
G75*
G02*
X39030002Y32878792I0J85000D01*
G01*
G37*
G04 #@! TD*
G04 #@! TO.C,C3*
G36*
G01*
X37450000Y34828777D02*
X37450000Y35508777D01*
G75*
G02*
X37535000Y35593777I85000J0D01*
G01*
X38215000Y35593777D01*
G75*
G02*
X38300000Y35508777I0J-85000D01*
G01*
X38300000Y34828777D01*
G75*
G02*
X38215000Y34743777I-85000J0D01*
G01*
X37535000Y34743777D01*
G75*
G02*
X37450000Y34828777I0J85000D01*
G01*
G37*
G36*
G01*
X39030002Y34828777D02*
X39030002Y35508777D01*
G75*
G02*
X39115002Y35593777I85000J0D01*
G01*
X39795002Y35593777D01*
G75*
G02*
X39880002Y35508777I0J-85000D01*
G01*
X39880002Y34828777D01*
G75*
G02*
X39795002Y34743777I-85000J0D01*
G01*
X39115002Y34743777D01*
G75*
G02*
X39030002Y34828777I0J85000D01*
G01*
G37*
G04 #@! TD*
G04 #@! TO.C,C2*
G36*
G01*
X37450000Y36778762D02*
X37450000Y37458762D01*
G75*
G02*
X37535000Y37543762I85000J0D01*
G01*
X38215000Y37543762D01*
G75*
G02*
X38300000Y37458762I0J-85000D01*
G01*
X38300000Y36778762D01*
G75*
G02*
X38215000Y36693762I-85000J0D01*
G01*
X37535000Y36693762D01*
G75*
G02*
X37450000Y36778762I0J85000D01*
G01*
G37*
G36*
G01*
X39030002Y36778762D02*
X39030002Y37458762D01*
G75*
G02*
X39115002Y37543762I85000J0D01*
G01*
X39795002Y37543762D01*
G75*
G02*
X39880002Y37458762I0J-85000D01*
G01*
X39880002Y36778762D01*
G75*
G02*
X39795002Y36693762I-85000J0D01*
G01*
X39115002Y36693762D01*
G75*
G02*
X39030002Y36778762I0J85000D01*
G01*
G37*
G04 #@! TD*
G04 #@! TO.C,C1*
G36*
G01*
X37450000Y38728747D02*
X37450000Y39408747D01*
G75*
G02*
X37535000Y39493747I85000J0D01*
G01*
X38215000Y39493747D01*
G75*
G02*
X38300000Y39408747I0J-85000D01*
G01*
X38300000Y38728747D01*
G75*
G02*
X38215000Y38643747I-85000J0D01*
G01*
X37535000Y38643747D01*
G75*
G02*
X37450000Y38728747I0J85000D01*
G01*
G37*
G36*
G01*
X39030002Y38728747D02*
X39030002Y39408747D01*
G75*
G02*
X39115002Y39493747I85000J0D01*
G01*
X39795002Y39493747D01*
G75*
G02*
X39880002Y39408747I0J-85000D01*
G01*
X39880002Y38728747D01*
G75*
G02*
X39795002Y38643747I-85000J0D01*
G01*
X39115002Y38643747D01*
G75*
G02*
X39030002Y38728747I0J85000D01*
G01*
G37*
G04 #@! TD*
G04 #@! TO.C,R23*
G36*
G01*
X78534000Y102812200D02*
X75684000Y102812200D01*
G75*
G02*
X75434000Y103062200I0J250000D01*
G01*
X75434000Y103787200D01*
G75*
G02*
X75684000Y104037200I250000J0D01*
G01*
X78534000Y104037200D01*
G75*
G02*
X78784000Y103787200I0J-250000D01*
G01*
X78784000Y103062200D01*
G75*
G02*
X78534000Y102812200I-250000J0D01*
G01*
G37*
G36*
G01*
X78534000Y108737200D02*
X75684000Y108737200D01*
G75*
G02*
X75434000Y108987200I0J250000D01*
G01*
X75434000Y109712200D01*
G75*
G02*
X75684000Y109962200I250000J0D01*
G01*
X78534000Y109962200D01*
G75*
G02*
X78784000Y109712200I0J-250000D01*
G01*
X78784000Y108987200D01*
G75*
G02*
X78534000Y108737200I-250000J0D01*
G01*
G37*
G04 #@! TD*
G04 #@! TO.C,R13*
G36*
G01*
X8310000Y31075000D02*
X9090000Y31075000D01*
G75*
G02*
X9160000Y31005000I0J-70000D01*
G01*
X9160000Y30445000D01*
G75*
G02*
X9090000Y30375000I-70000J0D01*
G01*
X8310000Y30375000D01*
G75*
G02*
X8240000Y30445000I0J70000D01*
G01*
X8240000Y31005000D01*
G75*
G02*
X8310000Y31075000I70000J0D01*
G01*
G37*
G36*
G01*
X8310000Y29475000D02*
X9090000Y29475000D01*
G75*
G02*
X9160000Y29405000I0J-70000D01*
G01*
X9160000Y28845000D01*
G75*
G02*
X9090000Y28775000I-70000J0D01*
G01*
X8310000Y28775000D01*
G75*
G02*
X8240000Y28845000I0J70000D01*
G01*
X8240000Y29405000D01*
G75*
G02*
X8310000Y29475000I70000J0D01*
G01*
G37*
G04 #@! TD*
G04 #@! TO.C,R12*
G36*
G01*
X14975000Y31425022D02*
X16225000Y31425022D01*
G75*
G02*
X16325000Y31325022I0J-100000D01*
G01*
X16325000Y30525022D01*
G75*
G02*
X16225000Y30425022I-100000J0D01*
G01*
X14975000Y30425022D01*
G75*
G02*
X14875000Y30525022I0J100000D01*
G01*
X14875000Y31325022D01*
G75*
G02*
X14975000Y31425022I100000J0D01*
G01*
G37*
G36*
G01*
X14975000Y29525000D02*
X16225000Y29525000D01*
G75*
G02*
X16325000Y29425000I0J-100000D01*
G01*
X16325000Y28625000D01*
G75*
G02*
X16225000Y28525000I-100000J0D01*
G01*
X14975000Y28525000D01*
G75*
G02*
X14875000Y28625000I0J100000D01*
G01*
X14875000Y29425000D01*
G75*
G02*
X14975000Y29525000I100000J0D01*
G01*
G37*
G04 #@! TD*
G04 #@! TO.C,R11*
G36*
G01*
X10375000Y31425001D02*
X11625000Y31425001D01*
G75*
G02*
X11725000Y31325001I0J-100000D01*
G01*
X11725000Y30525001D01*
G75*
G02*
X11625000Y30425001I-100000J0D01*
G01*
X10375000Y30425001D01*
G75*
G02*
X10275000Y30525001I0J100000D01*
G01*
X10275000Y31325001D01*
G75*
G02*
X10375000Y31425001I100000J0D01*
G01*
G37*
G36*
G01*
X10375000Y29524979D02*
X11625000Y29524979D01*
G75*
G02*
X11725000Y29424979I0J-100000D01*
G01*
X11725000Y28624979D01*
G75*
G02*
X11625000Y28524979I-100000J0D01*
G01*
X10375000Y28524979D01*
G75*
G02*
X10275000Y28624979I0J100000D01*
G01*
X10275000Y29424979D01*
G75*
G02*
X10375000Y29524979I100000J0D01*
G01*
G37*
G04 #@! TD*
G04 #@! TO.C,R10*
G36*
G01*
X12675000Y31425001D02*
X13925000Y31425001D01*
G75*
G02*
X14025000Y31325001I0J-100000D01*
G01*
X14025000Y30525001D01*
G75*
G02*
X13925000Y30425001I-100000J0D01*
G01*
X12675000Y30425001D01*
G75*
G02*
X12575000Y30525001I0J100000D01*
G01*
X12575000Y31325001D01*
G75*
G02*
X12675000Y31425001I100000J0D01*
G01*
G37*
G36*
G01*
X12675000Y29524979D02*
X13925000Y29524979D01*
G75*
G02*
X14025000Y29424979I0J-100000D01*
G01*
X14025000Y28624979D01*
G75*
G02*
X13925000Y28524979I-100000J0D01*
G01*
X12675000Y28524979D01*
G75*
G02*
X12575000Y28624979I0J100000D01*
G01*
X12575000Y29424979D01*
G75*
G02*
X12675000Y29524979I100000J0D01*
G01*
G37*
G04 #@! TD*
D20*
G04 #@! TO.C,J2*
X16362000Y90250000D03*
D21*
X17162000Y92000000D03*
X17962000Y90250000D03*
X18762000Y92000000D03*
X19562000Y90250000D03*
D22*
X21612000Y91125000D03*
X14312000Y91125000D03*
G04 #@! TD*
G04 #@! TO.C,D6*
G36*
G01*
X12336979Y85925000D02*
X12336979Y86225000D01*
G75*
G02*
X12486979Y86375000I150000J0D01*
G01*
X13661979Y86375000D01*
G75*
G02*
X13811979Y86225000I0J-150000D01*
G01*
X13811979Y85925000D01*
G75*
G02*
X13661979Y85775000I-150000J0D01*
G01*
X12486979Y85775000D01*
G75*
G02*
X12336979Y85925000I0J150000D01*
G01*
G37*
G36*
G01*
X12336979Y84025000D02*
X12336979Y84325000D01*
G75*
G02*
X12486979Y84475000I150000J0D01*
G01*
X13661979Y84475000D01*
G75*
G02*
X13811979Y84325000I0J-150000D01*
G01*
X13811979Y84025000D01*
G75*
G02*
X13661979Y83875000I-150000J0D01*
G01*
X12486979Y83875000D01*
G75*
G02*
X12336979Y84025000I0J150000D01*
G01*
G37*
G36*
G01*
X14211979Y84975000D02*
X14211979Y85275000D01*
G75*
G02*
X14361979Y85425000I150000J0D01*
G01*
X15536979Y85425000D01*
G75*
G02*
X15686979Y85275000I0J-150000D01*
G01*
X15686979Y84975000D01*
G75*
G02*
X15536979Y84825000I-150000J0D01*
G01*
X14361979Y84825000D01*
G75*
G02*
X14211979Y84975000I0J150000D01*
G01*
G37*
G04 #@! TD*
G04 #@! TO.C,D5*
G36*
G01*
X17212000Y93775000D02*
X17212000Y92475000D01*
G75*
G02*
X16962000Y92225000I-250000J0D01*
G01*
X14962000Y92225000D01*
G75*
G02*
X14712000Y92475000I0J250000D01*
G01*
X14712000Y93775000D01*
G75*
G02*
X14962000Y94025000I250000J0D01*
G01*
X16962000Y94025000D01*
G75*
G02*
X17212000Y93775000I0J-250000D01*
G01*
G37*
G36*
G01*
X13212000Y93775000D02*
X13212000Y92475000D01*
G75*
G02*
X12962000Y92225000I-250000J0D01*
G01*
X10962000Y92225000D01*
G75*
G02*
X10712000Y92475000I0J250000D01*
G01*
X10712000Y93775000D01*
G75*
G02*
X10962000Y94025000I250000J0D01*
G01*
X12962000Y94025000D01*
G75*
G02*
X13212000Y93775000I0J-250000D01*
G01*
G37*
G04 #@! TD*
G04 #@! TO.C,D4*
G36*
G01*
X11911979Y96615000D02*
X11911979Y97635000D01*
G75*
G02*
X12001979Y97725000I90000J0D01*
G01*
X12721979Y97725000D01*
G75*
G02*
X12811979Y97635000I0J-90000D01*
G01*
X12811979Y96615000D01*
G75*
G02*
X12721979Y96525000I-90000J0D01*
G01*
X12001979Y96525000D01*
G75*
G02*
X11911979Y96615000I0J90000D01*
G01*
G37*
G36*
G01*
X15211979Y96615000D02*
X15211979Y97635000D01*
G75*
G02*
X15301979Y97725000I90000J0D01*
G01*
X16021979Y97725000D01*
G75*
G02*
X16111979Y97635000I0J-90000D01*
G01*
X16111979Y96615000D01*
G75*
G02*
X16021979Y96525000I-90000J0D01*
G01*
X15301979Y96525000D01*
G75*
G02*
X15211979Y96615000I0J90000D01*
G01*
G37*
G04 #@! TD*
G04 #@! TO.C,D3*
G36*
G01*
X16062000Y95635000D02*
X16062000Y94615000D01*
G75*
G02*
X15972000Y94525000I-90000J0D01*
G01*
X15252000Y94525000D01*
G75*
G02*
X15162000Y94615000I0J90000D01*
G01*
X15162000Y95635000D01*
G75*
G02*
X15252000Y95725000I90000J0D01*
G01*
X15972000Y95725000D01*
G75*
G02*
X16062000Y95635000I0J-90000D01*
G01*
G37*
G36*
G01*
X12762000Y95635000D02*
X12762000Y94615000D01*
G75*
G02*
X12672000Y94525000I-90000J0D01*
G01*
X11952000Y94525000D01*
G75*
G02*
X11862000Y94615000I0J90000D01*
G01*
X11862000Y95635000D01*
G75*
G02*
X11952000Y95725000I90000J0D01*
G01*
X12672000Y95725000D01*
G75*
G02*
X12762000Y95635000I0J-90000D01*
G01*
G37*
G04 #@! TD*
G04 #@! TO.C,R16*
G36*
G01*
X10212000Y95790000D02*
X10212000Y95010000D01*
G75*
G02*
X10142000Y94940000I-70000J0D01*
G01*
X9582000Y94940000D01*
G75*
G02*
X9512000Y95010000I0J70000D01*
G01*
X9512000Y95790000D01*
G75*
G02*
X9582000Y95860000I70000J0D01*
G01*
X10142000Y95860000D01*
G75*
G02*
X10212000Y95790000I0J-70000D01*
G01*
G37*
G36*
G01*
X8612000Y95790000D02*
X8612000Y95010000D01*
G75*
G02*
X8542000Y94940000I-70000J0D01*
G01*
X7982000Y94940000D01*
G75*
G02*
X7912000Y95010000I0J70000D01*
G01*
X7912000Y95790000D01*
G75*
G02*
X7982000Y95860000I70000J0D01*
G01*
X8542000Y95860000D01*
G75*
G02*
X8612000Y95790000I0J-70000D01*
G01*
G37*
G04 #@! TD*
G04 #@! TO.C,R21*
G36*
G01*
X10212000Y81240000D02*
X10212000Y80460000D01*
G75*
G02*
X10142000Y80390000I-70000J0D01*
G01*
X9582000Y80390000D01*
G75*
G02*
X9512000Y80460000I0J70000D01*
G01*
X9512000Y81240000D01*
G75*
G02*
X9582000Y81310000I70000J0D01*
G01*
X10142000Y81310000D01*
G75*
G02*
X10212000Y81240000I0J-70000D01*
G01*
G37*
G36*
G01*
X8612000Y81240000D02*
X8612000Y80460000D01*
G75*
G02*
X8542000Y80390000I-70000J0D01*
G01*
X7982000Y80390000D01*
G75*
G02*
X7912000Y80460000I0J70000D01*
G01*
X7912000Y81240000D01*
G75*
G02*
X7982000Y81310000I70000J0D01*
G01*
X8542000Y81310000D01*
G75*
G02*
X8612000Y81240000I0J-70000D01*
G01*
G37*
G04 #@! TD*
G04 #@! TO.C,R20*
G36*
G01*
X10212000Y83790000D02*
X10212000Y83010000D01*
G75*
G02*
X10142000Y82940000I-70000J0D01*
G01*
X9582000Y82940000D01*
G75*
G02*
X9512000Y83010000I0J70000D01*
G01*
X9512000Y83790000D01*
G75*
G02*
X9582000Y83860000I70000J0D01*
G01*
X10142000Y83860000D01*
G75*
G02*
X10212000Y83790000I0J-70000D01*
G01*
G37*
G36*
G01*
X8612000Y83790000D02*
X8612000Y83010000D01*
G75*
G02*
X8542000Y82940000I-70000J0D01*
G01*
X7982000Y82940000D01*
G75*
G02*
X7912000Y83010000I0J70000D01*
G01*
X7912000Y83790000D01*
G75*
G02*
X7982000Y83860000I70000J0D01*
G01*
X8542000Y83860000D01*
G75*
G02*
X8612000Y83790000I0J-70000D01*
G01*
G37*
G04 #@! TD*
G04 #@! TO.C,R17*
G36*
G01*
X10212000Y93240000D02*
X10212000Y92460000D01*
G75*
G02*
X10142000Y92390000I-70000J0D01*
G01*
X9582000Y92390000D01*
G75*
G02*
X9512000Y92460000I0J70000D01*
G01*
X9512000Y93240000D01*
G75*
G02*
X9582000Y93310000I70000J0D01*
G01*
X10142000Y93310000D01*
G75*
G02*
X10212000Y93240000I0J-70000D01*
G01*
G37*
G36*
G01*
X8612000Y93240000D02*
X8612000Y92460000D01*
G75*
G02*
X8542000Y92390000I-70000J0D01*
G01*
X7982000Y92390000D01*
G75*
G02*
X7912000Y92460000I0J70000D01*
G01*
X7912000Y93240000D01*
G75*
G02*
X7982000Y93310000I70000J0D01*
G01*
X8542000Y93310000D01*
G75*
G02*
X8612000Y93240000I0J-70000D01*
G01*
G37*
G04 #@! TD*
G36*
X151134191Y112275893D02*
G01*
X151170155Y112226393D01*
X151175000Y112195800D01*
X151175000Y112094801D01*
X151175001Y112094800D01*
X151297000Y112094800D01*
X151355191Y112075893D01*
X151391155Y112026393D01*
X151392627Y112021423D01*
X151525183Y111526715D01*
X151714544Y110968880D01*
X151939985Y110424617D01*
X151939990Y110424606D01*
X152200539Y109896265D01*
X152495089Y109386091D01*
X152495093Y109386084D01*
X152822383Y108896261D01*
X153180982Y108428925D01*
X153181010Y108428892D01*
X153569408Y107986007D01*
X153569427Y107985987D01*
X153985985Y107569429D01*
X153986005Y107569410D01*
X154428891Y107181011D01*
X154428924Y107180983D01*
X154896260Y106822384D01*
X155386079Y106495097D01*
X155386093Y106495088D01*
X155896269Y106200538D01*
X156424605Y105939992D01*
X156424616Y105939987D01*
X156968883Y105714543D01*
X157526709Y105525187D01*
X157992825Y105400291D01*
X158044139Y105366967D01*
X158056461Y105334866D01*
X158066287Y105325000D01*
X158166877Y105325000D01*
X158225068Y105306093D01*
X158261032Y105256593D01*
X158265876Y105225589D01*
X158242865Y99680127D01*
X158240292Y99658109D01*
X158227772Y99604284D01*
X158208490Y99564666D01*
X158181031Y99530526D01*
X158146480Y99503204D01*
X158141566Y99500862D01*
X158080902Y99492894D01*
X158027140Y99522106D01*
X158000816Y99577339D01*
X157999973Y99590232D01*
X157999973Y99677146D01*
X157171175Y99819225D01*
X157164503Y99820607D01*
X156245492Y100044151D01*
X156240180Y100045601D01*
X155421279Y100293752D01*
X155414451Y100296096D01*
X154770007Y100543960D01*
X154765675Y100545745D01*
X154144431Y100819092D01*
X154141262Y100820553D01*
X153420611Y101168453D01*
X153415115Y101171322D01*
X152621972Y101617465D01*
X152613901Y101622532D01*
X151794678Y102193506D01*
X151791050Y102196158D01*
X151046345Y102767098D01*
X151039551Y102772808D01*
X150419346Y103343397D01*
X150416371Y103346250D01*
X149720991Y104041630D01*
X149714941Y104048256D01*
X149095063Y104792110D01*
X149090775Y104797642D01*
X148643860Y105418357D01*
X148641829Y105421288D01*
X148194599Y106092133D01*
X148191220Y106097575D01*
X147818963Y106742820D01*
X147816781Y106746810D01*
X147444551Y107466455D01*
X147441347Y107473274D01*
X147093642Y108292864D01*
X147092083Y108296767D01*
X146719695Y109289802D01*
X146716494Y109299974D01*
X146468760Y110266136D01*
X146467164Y110273520D01*
X146318183Y111117747D01*
X146317545Y111121868D01*
X146217958Y111868765D01*
X146217695Y111870917D01*
X146206131Y111975000D01*
X146093834Y111975000D01*
X146035643Y111993907D01*
X145999679Y112043407D01*
X145995474Y112085236D01*
X146001581Y112138695D01*
X146016197Y112180260D01*
X146039566Y112217324D01*
X146070767Y112248429D01*
X146110399Y112273247D01*
X146146434Y112286955D01*
X146184626Y112293414D01*
X146201134Y112294800D01*
X151076000Y112294800D01*
X151134191Y112275893D01*
G37*
G36*
X157926578Y105418042D02*
G01*
X157992825Y105400291D01*
X158044140Y105366967D01*
X158056462Y105334866D01*
X158066287Y105325000D01*
X158325856Y105325000D01*
X158345170Y105323098D01*
X158673544Y105257781D01*
X158673550Y105257780D01*
X159257594Y105180889D01*
X159845432Y105142361D01*
X159845442Y105142360D01*
X160140022Y105140001D01*
X162544779Y105140001D01*
X162602970Y105121094D01*
X162614783Y105111005D01*
X163771004Y103954784D01*
X163798781Y103900267D01*
X163800000Y103884780D01*
X163800000Y80249001D01*
X163781093Y80190810D01*
X163731593Y80154846D01*
X163701000Y80150001D01*
X161700005Y80150001D01*
X161575916Y80147439D01*
X161331144Y80106594D01*
X161096420Y80026014D01*
X160878170Y79907902D01*
X160878167Y79907900D01*
X160682339Y79755481D01*
X160514259Y79572898D01*
X160378527Y79365143D01*
X160278842Y79137885D01*
X160217921Y78897314D01*
X160197429Y78650000D01*
X160217921Y78402687D01*
X160278842Y78162116D01*
X160378527Y77934858D01*
X160514259Y77727103D01*
X160682339Y77544520D01*
X160878167Y77392101D01*
X160878170Y77392099D01*
X161096420Y77273987D01*
X161331144Y77193407D01*
X161575917Y77152562D01*
X161700003Y77150001D01*
X163701000Y77150001D01*
X163759191Y77131094D01*
X163795155Y77081594D01*
X163800000Y77051001D01*
X163800000Y14214430D01*
X163781093Y14156239D01*
X163772892Y14146367D01*
X162504095Y12806178D01*
X162450359Y12776920D01*
X162431650Y12775243D01*
X158098028Y12799454D01*
X158039944Y12818686D01*
X158004257Y12868386D01*
X157999581Y12898452D01*
X157999973Y99677146D01*
X157882246Y99697328D01*
X157828087Y99725796D01*
X157801004Y99780661D01*
X157799974Y99794905D01*
X157799999Y105313845D01*
X157802481Y105335874D01*
X157804437Y105344444D01*
X157835819Y105396969D01*
X157892080Y105421016D01*
X157926578Y105418042D01*
G37*
G36*
X18189673Y112275044D02*
G01*
X18211691Y112272471D01*
X18265516Y112259951D01*
X18305134Y112240669D01*
X18339274Y112213210D01*
X18366600Y112178651D01*
X18386104Y112137718D01*
X18395699Y112097634D01*
X18396233Y112076501D01*
X18378802Y112017851D01*
X18330226Y111980648D01*
X18297265Y111975000D01*
X18182857Y111975000D01*
X18050575Y111203354D01*
X18049193Y111196682D01*
X17825649Y110277672D01*
X17824199Y110272360D01*
X17576048Y109453459D01*
X17573704Y109446631D01*
X17325840Y108802187D01*
X17324055Y108797855D01*
X17050708Y108176611D01*
X17049247Y108173442D01*
X16701347Y107452791D01*
X16698478Y107447295D01*
X16252335Y106654152D01*
X16247268Y106646081D01*
X15676294Y105826858D01*
X15673642Y105823230D01*
X15102702Y105078525D01*
X15096992Y105071731D01*
X14526403Y104451525D01*
X14523550Y104448550D01*
X13828170Y103753170D01*
X13821544Y103747120D01*
X13077690Y103127243D01*
X13072158Y103122955D01*
X12451443Y102676040D01*
X12448512Y102674009D01*
X11777667Y102226779D01*
X11772225Y102223400D01*
X11126980Y101851143D01*
X11122990Y101848961D01*
X10403345Y101476731D01*
X10396526Y101473527D01*
X9576936Y101125822D01*
X9573033Y101124263D01*
X8579998Y100751875D01*
X8569826Y100748674D01*
X7603664Y100500940D01*
X7596280Y100499344D01*
X6752052Y100350363D01*
X6747931Y100349725D01*
X6001098Y100250147D01*
X5998893Y100249879D01*
X5998653Y100249853D01*
X5998652Y100249852D01*
X5998620Y100137198D01*
X5979696Y100079012D01*
X5930186Y100043063D01*
X5910554Y100038832D01*
X5808173Y100027455D01*
X5786002Y100027489D01*
X5731103Y100033761D01*
X5689539Y100048377D01*
X5652475Y100071746D01*
X5621370Y100102947D01*
X5596552Y100142579D01*
X5582844Y100178616D01*
X5576386Y100216807D01*
X5575000Y100233313D01*
X5575000Y105076000D01*
X5593907Y105134191D01*
X5643407Y105170155D01*
X5674000Y105175000D01*
X5774999Y105175000D01*
X5775000Y105175001D01*
X5775000Y105265807D01*
X5793907Y105323998D01*
X5843407Y105359962D01*
X5854687Y105362905D01*
X5904225Y105372759D01*
X6473270Y105525233D01*
X7031102Y105714593D01*
X7575362Y105940033D01*
X7575373Y105940038D01*
X8103700Y106200580D01*
X8613879Y106495131D01*
X8613893Y106495140D01*
X9103687Y106822410D01*
X9103717Y106822431D01*
X9571043Y107181023D01*
X9571076Y107181051D01*
X10013959Y107569447D01*
X10013979Y107569466D01*
X10430534Y107986021D01*
X10430553Y107986041D01*
X10818949Y108428924D01*
X10818977Y108428957D01*
X11177569Y108896283D01*
X11177590Y108896313D01*
X11504860Y109386107D01*
X11504869Y109386121D01*
X11799420Y109896300D01*
X12059962Y110424626D01*
X12059967Y110424637D01*
X12285407Y110968897D01*
X12474767Y111526729D01*
X12627241Y112095774D01*
X12651540Y112217933D01*
X12681436Y112271318D01*
X12737001Y112296934D01*
X12749049Y112297619D01*
X18189673Y112275044D01*
G37*
G36*
X6010874Y105372518D02*
G01*
X6064745Y105360223D01*
X6104444Y105341105D01*
X6138700Y105313786D01*
X6166169Y105279341D01*
X6187684Y105234665D01*
X6196867Y105202782D01*
X6199377Y105180480D01*
X6199998Y105169381D01*
X6198682Y100363141D01*
X6179759Y100304955D01*
X6130249Y100269005D01*
X6112766Y100265036D01*
X6001098Y100250147D01*
X5998893Y100249879D01*
X5998652Y100249853D01*
X5998651Y100249852D01*
X5975000Y13824987D01*
X5975000Y12749002D01*
X5956093Y12690811D01*
X5906593Y12654847D01*
X5876000Y12650002D01*
X1455221Y12650001D01*
X1397030Y12668908D01*
X1385217Y12678997D01*
X220281Y13843933D01*
X192504Y13898450D01*
X191285Y13913946D01*
X197315Y77051009D01*
X216228Y77109198D01*
X265731Y77145158D01*
X296315Y77150000D01*
X2300018Y77150000D01*
X2424098Y77152408D01*
X2424104Y77152409D01*
X2668915Y77193234D01*
X2668925Y77193237D01*
X2903680Y77273804D01*
X2903681Y77273805D01*
X3121984Y77391921D01*
X3317858Y77544356D01*
X3317865Y77544362D01*
X3485977Y77726961D01*
X3621736Y77934735D01*
X3621742Y77934747D01*
X3721449Y78162038D01*
X3782383Y78402640D01*
X3782384Y78402645D01*
X3802881Y78650000D01*
X3782384Y78897356D01*
X3782383Y78897361D01*
X3721449Y79137963D01*
X3621742Y79365254D01*
X3621736Y79365266D01*
X3485977Y79573040D01*
X3317865Y79755639D01*
X3317858Y79755645D01*
X3121984Y79908080D01*
X2903681Y80026196D01*
X2903680Y80026197D01*
X2668925Y80106764D01*
X2668915Y80106767D01*
X2424104Y80147592D01*
X2424098Y80147593D01*
X2300018Y80150000D01*
X296620Y80150000D01*
X238429Y80168907D01*
X202465Y80218407D01*
X197620Y80249009D01*
X199876Y103884666D01*
X218789Y103942855D01*
X228873Y103954661D01*
X1385219Y105111004D01*
X1439735Y105138781D01*
X1455222Y105140000D01*
X3859962Y105140000D01*
X4154562Y105142411D01*
X4648545Y105174788D01*
X4655020Y105175000D01*
X5774999Y105175000D01*
X5775000Y105175001D01*
X5775000Y105265807D01*
X5793907Y105323998D01*
X5843407Y105359962D01*
X5854687Y105362905D01*
X5905824Y105373076D01*
X5905885Y105372767D01*
X5925231Y105375000D01*
X5988846Y105375000D01*
X6010874Y105372518D01*
G37*
G36*
X149884564Y117800232D02*
G01*
X149942751Y117781314D01*
X149954550Y117771236D01*
X151111004Y116614783D01*
X151138781Y116560266D01*
X151140000Y116544779D01*
X151140000Y114140023D01*
X151142358Y113845443D01*
X151142359Y113845433D01*
X151174788Y113350670D01*
X151175000Y113344195D01*
X151175000Y112094801D01*
X151175001Y112094800D01*
X151276000Y112094800D01*
X151334191Y112075893D01*
X151370155Y112026393D01*
X151375000Y111995800D01*
X151375000Y111986154D01*
X151372518Y111964124D01*
X151360222Y111910252D01*
X151341104Y111870555D01*
X151313785Y111836299D01*
X151279341Y111808831D01*
X151234660Y111787313D01*
X151202785Y111778130D01*
X151180518Y111775622D01*
X151169437Y111775000D01*
X146317138Y111775000D01*
X146258947Y111793907D01*
X146222983Y111843407D01*
X146219009Y111860898D01*
X146217961Y111868747D01*
X146217695Y111870917D01*
X146206131Y111975000D01*
X18182857Y111975000D01*
X18162675Y111857272D01*
X18134207Y111803113D01*
X18079342Y111776030D01*
X18065098Y111775000D01*
X12670311Y111775000D01*
X12612120Y111793907D01*
X12576156Y111843407D01*
X12574684Y111899623D01*
X12627241Y112095771D01*
X12742168Y112673552D01*
X12742169Y112673558D01*
X12819061Y113257614D01*
X12857589Y113845437D01*
X12860000Y114140038D01*
X12860000Y116544778D01*
X12878907Y116602969D01*
X12888996Y116614782D01*
X14069926Y117795712D01*
X14124443Y117823489D01*
X14139948Y117824708D01*
X149884564Y117800232D01*
G37*
M02*
