G04 #@! TF.GenerationSoftware,KiCad,Pcbnew,8.0.8*
G04 #@! TF.CreationDate,2025-12-14T22:00:41-05:00*
G04 #@! TF.ProjectId,hellen121vag,68656c6c-656e-4313-9231-7661672e6b69,d*
G04 #@! TF.SameCoordinates,PX2b953a0PY6943058*
G04 #@! TF.FileFunction,Paste,Top*
G04 #@! TF.FilePolarity,Positive*
%FSLAX46Y46*%
G04 Gerber Fmt 4.6, Leading zero omitted, Abs format (unit mm)*
G04 Created by KiCad (PCBNEW 8.0.8) date 2025-12-14 22:00:41*
%MOMM*%
%LPD*%
G01*
G04 APERTURE LIST*
%ADD10O,0.000001X0.000001*%
G04 APERTURE END LIST*
G04 #@! TO.C,U8*
G36*
G01*
X54905000Y38418733D02*
X54905000Y38718733D01*
G75*
G02*
X55055000Y38868733I150000J0D01*
G01*
X56705000Y38868733D01*
G75*
G02*
X56855000Y38718733I0J-150000D01*
G01*
X56855000Y38418733D01*
G75*
G02*
X56705000Y38268733I-150000J0D01*
G01*
X55055000Y38268733D01*
G75*
G02*
X54905000Y38418733I0J150000D01*
G01*
G37*
G36*
G01*
X54905000Y37148733D02*
X54905000Y37448733D01*
G75*
G02*
X55055000Y37598733I150000J0D01*
G01*
X56705000Y37598733D01*
G75*
G02*
X56855000Y37448733I0J-150000D01*
G01*
X56855000Y37148733D01*
G75*
G02*
X56705000Y36998733I-150000J0D01*
G01*
X55055000Y36998733D01*
G75*
G02*
X54905000Y37148733I0J150000D01*
G01*
G37*
G36*
G01*
X54905000Y35878733D02*
X54905000Y36178733D01*
G75*
G02*
X55055000Y36328733I150000J0D01*
G01*
X56705000Y36328733D01*
G75*
G02*
X56855000Y36178733I0J-150000D01*
G01*
X56855000Y35878733D01*
G75*
G02*
X56705000Y35728733I-150000J0D01*
G01*
X55055000Y35728733D01*
G75*
G02*
X54905000Y35878733I0J150000D01*
G01*
G37*
G36*
G01*
X54905000Y34608733D02*
X54905000Y34908733D01*
G75*
G02*
X55055000Y35058733I150000J0D01*
G01*
X56705000Y35058733D01*
G75*
G02*
X56855000Y34908733I0J-150000D01*
G01*
X56855000Y34608733D01*
G75*
G02*
X56705000Y34458733I-150000J0D01*
G01*
X55055000Y34458733D01*
G75*
G02*
X54905000Y34608733I0J150000D01*
G01*
G37*
G36*
G01*
X59855000Y34608733D02*
X59855000Y34908733D01*
G75*
G02*
X60005000Y35058733I150000J0D01*
G01*
X61655000Y35058733D01*
G75*
G02*
X61805000Y34908733I0J-150000D01*
G01*
X61805000Y34608733D01*
G75*
G02*
X61655000Y34458733I-150000J0D01*
G01*
X60005000Y34458733D01*
G75*
G02*
X59855000Y34608733I0J150000D01*
G01*
G37*
G36*
G01*
X59855000Y35878733D02*
X59855000Y36178733D01*
G75*
G02*
X60005000Y36328733I150000J0D01*
G01*
X61655000Y36328733D01*
G75*
G02*
X61805000Y36178733I0J-150000D01*
G01*
X61805000Y35878733D01*
G75*
G02*
X61655000Y35728733I-150000J0D01*
G01*
X60005000Y35728733D01*
G75*
G02*
X59855000Y35878733I0J150000D01*
G01*
G37*
G36*
G01*
X59855000Y37148733D02*
X59855000Y37448733D01*
G75*
G02*
X60005000Y37598733I150000J0D01*
G01*
X61655000Y37598733D01*
G75*
G02*
X61805000Y37448733I0J-150000D01*
G01*
X61805000Y37148733D01*
G75*
G02*
X61655000Y36998733I-150000J0D01*
G01*
X60005000Y36998733D01*
G75*
G02*
X59855000Y37148733I0J150000D01*
G01*
G37*
G36*
G01*
X59855000Y38418733D02*
X59855000Y38718733D01*
G75*
G02*
X60005000Y38868733I150000J0D01*
G01*
X61655000Y38868733D01*
G75*
G02*
X61805000Y38718733I0J-150000D01*
G01*
X61805000Y38418733D01*
G75*
G02*
X61655000Y38268733I-150000J0D01*
G01*
X60005000Y38268733D01*
G75*
G02*
X59855000Y38418733I0J150000D01*
G01*
G37*
G04 #@! TD*
G04 #@! TO.C,U7*
G36*
G01*
X100575000Y31858733D02*
X100575000Y32158733D01*
G75*
G02*
X100725000Y32308733I150000J0D01*
G01*
X102375000Y32308733D01*
G75*
G02*
X102525000Y32158733I0J-150000D01*
G01*
X102525000Y31858733D01*
G75*
G02*
X102375000Y31708733I-150000J0D01*
G01*
X100725000Y31708733D01*
G75*
G02*
X100575000Y31858733I0J150000D01*
G01*
G37*
G36*
G01*
X100575000Y30588733D02*
X100575000Y30888733D01*
G75*
G02*
X100725000Y31038733I150000J0D01*
G01*
X102375000Y31038733D01*
G75*
G02*
X102525000Y30888733I0J-150000D01*
G01*
X102525000Y30588733D01*
G75*
G02*
X102375000Y30438733I-150000J0D01*
G01*
X100725000Y30438733D01*
G75*
G02*
X100575000Y30588733I0J150000D01*
G01*
G37*
G36*
G01*
X100575000Y29318733D02*
X100575000Y29618733D01*
G75*
G02*
X100725000Y29768733I150000J0D01*
G01*
X102375000Y29768733D01*
G75*
G02*
X102525000Y29618733I0J-150000D01*
G01*
X102525000Y29318733D01*
G75*
G02*
X102375000Y29168733I-150000J0D01*
G01*
X100725000Y29168733D01*
G75*
G02*
X100575000Y29318733I0J150000D01*
G01*
G37*
G36*
G01*
X100575000Y28048733D02*
X100575000Y28348733D01*
G75*
G02*
X100725000Y28498733I150000J0D01*
G01*
X102375000Y28498733D01*
G75*
G02*
X102525000Y28348733I0J-150000D01*
G01*
X102525000Y28048733D01*
G75*
G02*
X102375000Y27898733I-150000J0D01*
G01*
X100725000Y27898733D01*
G75*
G02*
X100575000Y28048733I0J150000D01*
G01*
G37*
G36*
G01*
X105525000Y28048733D02*
X105525000Y28348733D01*
G75*
G02*
X105675000Y28498733I150000J0D01*
G01*
X107325000Y28498733D01*
G75*
G02*
X107475000Y28348733I0J-150000D01*
G01*
X107475000Y28048733D01*
G75*
G02*
X107325000Y27898733I-150000J0D01*
G01*
X105675000Y27898733D01*
G75*
G02*
X105525000Y28048733I0J150000D01*
G01*
G37*
G36*
G01*
X105525000Y29318733D02*
X105525000Y29618733D01*
G75*
G02*
X105675000Y29768733I150000J0D01*
G01*
X107325000Y29768733D01*
G75*
G02*
X107475000Y29618733I0J-150000D01*
G01*
X107475000Y29318733D01*
G75*
G02*
X107325000Y29168733I-150000J0D01*
G01*
X105675000Y29168733D01*
G75*
G02*
X105525000Y29318733I0J150000D01*
G01*
G37*
G36*
G01*
X105525000Y30588733D02*
X105525000Y30888733D01*
G75*
G02*
X105675000Y31038733I150000J0D01*
G01*
X107325000Y31038733D01*
G75*
G02*
X107475000Y30888733I0J-150000D01*
G01*
X107475000Y30588733D01*
G75*
G02*
X107325000Y30438733I-150000J0D01*
G01*
X105675000Y30438733D01*
G75*
G02*
X105525000Y30588733I0J150000D01*
G01*
G37*
G36*
G01*
X105525000Y31858733D02*
X105525000Y32158733D01*
G75*
G02*
X105675000Y32308733I150000J0D01*
G01*
X107325000Y32308733D01*
G75*
G02*
X107475000Y32158733I0J-150000D01*
G01*
X107475000Y31858733D01*
G75*
G02*
X107325000Y31708733I-150000J0D01*
G01*
X105675000Y31708733D01*
G75*
G02*
X105525000Y31858733I0J150000D01*
G01*
G37*
G04 #@! TD*
G04 #@! TO.C,U6*
G36*
G01*
X100575000Y38438733D02*
X100575000Y38738733D01*
G75*
G02*
X100725000Y38888733I150000J0D01*
G01*
X102375000Y38888733D01*
G75*
G02*
X102525000Y38738733I0J-150000D01*
G01*
X102525000Y38438733D01*
G75*
G02*
X102375000Y38288733I-150000J0D01*
G01*
X100725000Y38288733D01*
G75*
G02*
X100575000Y38438733I0J150000D01*
G01*
G37*
G36*
G01*
X100575000Y37168733D02*
X100575000Y37468733D01*
G75*
G02*
X100725000Y37618733I150000J0D01*
G01*
X102375000Y37618733D01*
G75*
G02*
X102525000Y37468733I0J-150000D01*
G01*
X102525000Y37168733D01*
G75*
G02*
X102375000Y37018733I-150000J0D01*
G01*
X100725000Y37018733D01*
G75*
G02*
X100575000Y37168733I0J150000D01*
G01*
G37*
G36*
G01*
X100575000Y35898733D02*
X100575000Y36198733D01*
G75*
G02*
X100725000Y36348733I150000J0D01*
G01*
X102375000Y36348733D01*
G75*
G02*
X102525000Y36198733I0J-150000D01*
G01*
X102525000Y35898733D01*
G75*
G02*
X102375000Y35748733I-150000J0D01*
G01*
X100725000Y35748733D01*
G75*
G02*
X100575000Y35898733I0J150000D01*
G01*
G37*
G36*
G01*
X100575000Y34628733D02*
X100575000Y34928733D01*
G75*
G02*
X100725000Y35078733I150000J0D01*
G01*
X102375000Y35078733D01*
G75*
G02*
X102525000Y34928733I0J-150000D01*
G01*
X102525000Y34628733D01*
G75*
G02*
X102375000Y34478733I-150000J0D01*
G01*
X100725000Y34478733D01*
G75*
G02*
X100575000Y34628733I0J150000D01*
G01*
G37*
G36*
G01*
X105525000Y34628733D02*
X105525000Y34928733D01*
G75*
G02*
X105675000Y35078733I150000J0D01*
G01*
X107325000Y35078733D01*
G75*
G02*
X107475000Y34928733I0J-150000D01*
G01*
X107475000Y34628733D01*
G75*
G02*
X107325000Y34478733I-150000J0D01*
G01*
X105675000Y34478733D01*
G75*
G02*
X105525000Y34628733I0J150000D01*
G01*
G37*
G36*
G01*
X105525000Y35898733D02*
X105525000Y36198733D01*
G75*
G02*
X105675000Y36348733I150000J0D01*
G01*
X107325000Y36348733D01*
G75*
G02*
X107475000Y36198733I0J-150000D01*
G01*
X107475000Y35898733D01*
G75*
G02*
X107325000Y35748733I-150000J0D01*
G01*
X105675000Y35748733D01*
G75*
G02*
X105525000Y35898733I0J150000D01*
G01*
G37*
G36*
G01*
X105525000Y37168733D02*
X105525000Y37468733D01*
G75*
G02*
X105675000Y37618733I150000J0D01*
G01*
X107325000Y37618733D01*
G75*
G02*
X107475000Y37468733I0J-150000D01*
G01*
X107475000Y37168733D01*
G75*
G02*
X107325000Y37018733I-150000J0D01*
G01*
X105675000Y37018733D01*
G75*
G02*
X105525000Y37168733I0J150000D01*
G01*
G37*
G36*
G01*
X105525000Y38438733D02*
X105525000Y38738733D01*
G75*
G02*
X105675000Y38888733I150000J0D01*
G01*
X107325000Y38888733D01*
G75*
G02*
X107475000Y38738733I0J-150000D01*
G01*
X107475000Y38438733D01*
G75*
G02*
X107325000Y38288733I-150000J0D01*
G01*
X105675000Y38288733D01*
G75*
G02*
X105525000Y38438733I0J150000D01*
G01*
G37*
G04 #@! TD*
G04 #@! TO.C,U5*
G36*
G01*
X100575000Y45018733D02*
X100575000Y45318733D01*
G75*
G02*
X100725000Y45468733I150000J0D01*
G01*
X102375000Y45468733D01*
G75*
G02*
X102525000Y45318733I0J-150000D01*
G01*
X102525000Y45018733D01*
G75*
G02*
X102375000Y44868733I-150000J0D01*
G01*
X100725000Y44868733D01*
G75*
G02*
X100575000Y45018733I0J150000D01*
G01*
G37*
G36*
G01*
X100575000Y43748733D02*
X100575000Y44048733D01*
G75*
G02*
X100725000Y44198733I150000J0D01*
G01*
X102375000Y44198733D01*
G75*
G02*
X102525000Y44048733I0J-150000D01*
G01*
X102525000Y43748733D01*
G75*
G02*
X102375000Y43598733I-150000J0D01*
G01*
X100725000Y43598733D01*
G75*
G02*
X100575000Y43748733I0J150000D01*
G01*
G37*
G36*
G01*
X100575000Y42478733D02*
X100575000Y42778733D01*
G75*
G02*
X100725000Y42928733I150000J0D01*
G01*
X102375000Y42928733D01*
G75*
G02*
X102525000Y42778733I0J-150000D01*
G01*
X102525000Y42478733D01*
G75*
G02*
X102375000Y42328733I-150000J0D01*
G01*
X100725000Y42328733D01*
G75*
G02*
X100575000Y42478733I0J150000D01*
G01*
G37*
G36*
G01*
X100575000Y41208733D02*
X100575000Y41508733D01*
G75*
G02*
X100725000Y41658733I150000J0D01*
G01*
X102375000Y41658733D01*
G75*
G02*
X102525000Y41508733I0J-150000D01*
G01*
X102525000Y41208733D01*
G75*
G02*
X102375000Y41058733I-150000J0D01*
G01*
X100725000Y41058733D01*
G75*
G02*
X100575000Y41208733I0J150000D01*
G01*
G37*
G36*
G01*
X105525000Y41208733D02*
X105525000Y41508733D01*
G75*
G02*
X105675000Y41658733I150000J0D01*
G01*
X107325000Y41658733D01*
G75*
G02*
X107475000Y41508733I0J-150000D01*
G01*
X107475000Y41208733D01*
G75*
G02*
X107325000Y41058733I-150000J0D01*
G01*
X105675000Y41058733D01*
G75*
G02*
X105525000Y41208733I0J150000D01*
G01*
G37*
G36*
G01*
X105525000Y42478733D02*
X105525000Y42778733D01*
G75*
G02*
X105675000Y42928733I150000J0D01*
G01*
X107325000Y42928733D01*
G75*
G02*
X107475000Y42778733I0J-150000D01*
G01*
X107475000Y42478733D01*
G75*
G02*
X107325000Y42328733I-150000J0D01*
G01*
X105675000Y42328733D01*
G75*
G02*
X105525000Y42478733I0J150000D01*
G01*
G37*
G36*
G01*
X105525000Y43748733D02*
X105525000Y44048733D01*
G75*
G02*
X105675000Y44198733I150000J0D01*
G01*
X107325000Y44198733D01*
G75*
G02*
X107475000Y44048733I0J-150000D01*
G01*
X107475000Y43748733D01*
G75*
G02*
X107325000Y43598733I-150000J0D01*
G01*
X105675000Y43598733D01*
G75*
G02*
X105525000Y43748733I0J150000D01*
G01*
G37*
G36*
G01*
X105525000Y45018733D02*
X105525000Y45318733D01*
G75*
G02*
X105675000Y45468733I150000J0D01*
G01*
X107325000Y45468733D01*
G75*
G02*
X107475000Y45318733I0J-150000D01*
G01*
X107475000Y45018733D01*
G75*
G02*
X107325000Y44868733I-150000J0D01*
G01*
X105675000Y44868733D01*
G75*
G02*
X105525000Y45018733I0J150000D01*
G01*
G37*
G04 #@! TD*
G04 #@! TO.C,U4*
G36*
G01*
X100575000Y51598733D02*
X100575000Y51898733D01*
G75*
G02*
X100725000Y52048733I150000J0D01*
G01*
X102375000Y52048733D01*
G75*
G02*
X102525000Y51898733I0J-150000D01*
G01*
X102525000Y51598733D01*
G75*
G02*
X102375000Y51448733I-150000J0D01*
G01*
X100725000Y51448733D01*
G75*
G02*
X100575000Y51598733I0J150000D01*
G01*
G37*
G36*
G01*
X100575000Y50328733D02*
X100575000Y50628733D01*
G75*
G02*
X100725000Y50778733I150000J0D01*
G01*
X102375000Y50778733D01*
G75*
G02*
X102525000Y50628733I0J-150000D01*
G01*
X102525000Y50328733D01*
G75*
G02*
X102375000Y50178733I-150000J0D01*
G01*
X100725000Y50178733D01*
G75*
G02*
X100575000Y50328733I0J150000D01*
G01*
G37*
G36*
G01*
X100575000Y49058733D02*
X100575000Y49358733D01*
G75*
G02*
X100725000Y49508733I150000J0D01*
G01*
X102375000Y49508733D01*
G75*
G02*
X102525000Y49358733I0J-150000D01*
G01*
X102525000Y49058733D01*
G75*
G02*
X102375000Y48908733I-150000J0D01*
G01*
X100725000Y48908733D01*
G75*
G02*
X100575000Y49058733I0J150000D01*
G01*
G37*
G36*
G01*
X100575000Y47788733D02*
X100575000Y48088733D01*
G75*
G02*
X100725000Y48238733I150000J0D01*
G01*
X102375000Y48238733D01*
G75*
G02*
X102525000Y48088733I0J-150000D01*
G01*
X102525000Y47788733D01*
G75*
G02*
X102375000Y47638733I-150000J0D01*
G01*
X100725000Y47638733D01*
G75*
G02*
X100575000Y47788733I0J150000D01*
G01*
G37*
G36*
G01*
X105525000Y47788733D02*
X105525000Y48088733D01*
G75*
G02*
X105675000Y48238733I150000J0D01*
G01*
X107325000Y48238733D01*
G75*
G02*
X107475000Y48088733I0J-150000D01*
G01*
X107475000Y47788733D01*
G75*
G02*
X107325000Y47638733I-150000J0D01*
G01*
X105675000Y47638733D01*
G75*
G02*
X105525000Y47788733I0J150000D01*
G01*
G37*
G36*
G01*
X105525000Y49058733D02*
X105525000Y49358733D01*
G75*
G02*
X105675000Y49508733I150000J0D01*
G01*
X107325000Y49508733D01*
G75*
G02*
X107475000Y49358733I0J-150000D01*
G01*
X107475000Y49058733D01*
G75*
G02*
X107325000Y48908733I-150000J0D01*
G01*
X105675000Y48908733D01*
G75*
G02*
X105525000Y49058733I0J150000D01*
G01*
G37*
G36*
G01*
X105525000Y50328733D02*
X105525000Y50628733D01*
G75*
G02*
X105675000Y50778733I150000J0D01*
G01*
X107325000Y50778733D01*
G75*
G02*
X107475000Y50628733I0J-150000D01*
G01*
X107475000Y50328733D01*
G75*
G02*
X107325000Y50178733I-150000J0D01*
G01*
X105675000Y50178733D01*
G75*
G02*
X105525000Y50328733I0J150000D01*
G01*
G37*
G36*
G01*
X105525000Y51598733D02*
X105525000Y51898733D01*
G75*
G02*
X105675000Y52048733I150000J0D01*
G01*
X107325000Y52048733D01*
G75*
G02*
X107475000Y51898733I0J-150000D01*
G01*
X107475000Y51598733D01*
G75*
G02*
X107325000Y51448733I-150000J0D01*
G01*
X105675000Y51448733D01*
G75*
G02*
X105525000Y51598733I0J150000D01*
G01*
G37*
G04 #@! TD*
G04 #@! TO.C,U3*
G36*
G01*
X65355000Y38418733D02*
X65355000Y38718733D01*
G75*
G02*
X65505000Y38868733I150000J0D01*
G01*
X67155000Y38868733D01*
G75*
G02*
X67305000Y38718733I0J-150000D01*
G01*
X67305000Y38418733D01*
G75*
G02*
X67155000Y38268733I-150000J0D01*
G01*
X65505000Y38268733D01*
G75*
G02*
X65355000Y38418733I0J150000D01*
G01*
G37*
G36*
G01*
X65355000Y37148733D02*
X65355000Y37448733D01*
G75*
G02*
X65505000Y37598733I150000J0D01*
G01*
X67155000Y37598733D01*
G75*
G02*
X67305000Y37448733I0J-150000D01*
G01*
X67305000Y37148733D01*
G75*
G02*
X67155000Y36998733I-150000J0D01*
G01*
X65505000Y36998733D01*
G75*
G02*
X65355000Y37148733I0J150000D01*
G01*
G37*
G36*
G01*
X65355000Y35878733D02*
X65355000Y36178733D01*
G75*
G02*
X65505000Y36328733I150000J0D01*
G01*
X67155000Y36328733D01*
G75*
G02*
X67305000Y36178733I0J-150000D01*
G01*
X67305000Y35878733D01*
G75*
G02*
X67155000Y35728733I-150000J0D01*
G01*
X65505000Y35728733D01*
G75*
G02*
X65355000Y35878733I0J150000D01*
G01*
G37*
G36*
G01*
X65355000Y34608733D02*
X65355000Y34908733D01*
G75*
G02*
X65505000Y35058733I150000J0D01*
G01*
X67155000Y35058733D01*
G75*
G02*
X67305000Y34908733I0J-150000D01*
G01*
X67305000Y34608733D01*
G75*
G02*
X67155000Y34458733I-150000J0D01*
G01*
X65505000Y34458733D01*
G75*
G02*
X65355000Y34608733I0J150000D01*
G01*
G37*
G36*
G01*
X70305000Y34608733D02*
X70305000Y34908733D01*
G75*
G02*
X70455000Y35058733I150000J0D01*
G01*
X72105000Y35058733D01*
G75*
G02*
X72255000Y34908733I0J-150000D01*
G01*
X72255000Y34608733D01*
G75*
G02*
X72105000Y34458733I-150000J0D01*
G01*
X70455000Y34458733D01*
G75*
G02*
X70305000Y34608733I0J150000D01*
G01*
G37*
G36*
G01*
X70305000Y35878733D02*
X70305000Y36178733D01*
G75*
G02*
X70455000Y36328733I150000J0D01*
G01*
X72105000Y36328733D01*
G75*
G02*
X72255000Y36178733I0J-150000D01*
G01*
X72255000Y35878733D01*
G75*
G02*
X72105000Y35728733I-150000J0D01*
G01*
X70455000Y35728733D01*
G75*
G02*
X70305000Y35878733I0J150000D01*
G01*
G37*
G36*
G01*
X70305000Y37148733D02*
X70305000Y37448733D01*
G75*
G02*
X70455000Y37598733I150000J0D01*
G01*
X72105000Y37598733D01*
G75*
G02*
X72255000Y37448733I0J-150000D01*
G01*
X72255000Y37148733D01*
G75*
G02*
X72105000Y36998733I-150000J0D01*
G01*
X70455000Y36998733D01*
G75*
G02*
X70305000Y37148733I0J150000D01*
G01*
G37*
G36*
G01*
X70305000Y38418733D02*
X70305000Y38718733D01*
G75*
G02*
X70455000Y38868733I150000J0D01*
G01*
X72105000Y38868733D01*
G75*
G02*
X72255000Y38718733I0J-150000D01*
G01*
X72255000Y38418733D01*
G75*
G02*
X72105000Y38268733I-150000J0D01*
G01*
X70455000Y38268733D01*
G75*
G02*
X70305000Y38418733I0J150000D01*
G01*
G37*
G04 #@! TD*
G04 #@! TO.C,U2*
G36*
G01*
X41155000Y38418733D02*
X41155000Y38718733D01*
G75*
G02*
X41305000Y38868733I150000J0D01*
G01*
X42955000Y38868733D01*
G75*
G02*
X43105000Y38718733I0J-150000D01*
G01*
X43105000Y38418733D01*
G75*
G02*
X42955000Y38268733I-150000J0D01*
G01*
X41305000Y38268733D01*
G75*
G02*
X41155000Y38418733I0J150000D01*
G01*
G37*
G36*
G01*
X41155000Y37148733D02*
X41155000Y37448733D01*
G75*
G02*
X41305000Y37598733I150000J0D01*
G01*
X42955000Y37598733D01*
G75*
G02*
X43105000Y37448733I0J-150000D01*
G01*
X43105000Y37148733D01*
G75*
G02*
X42955000Y36998733I-150000J0D01*
G01*
X41305000Y36998733D01*
G75*
G02*
X41155000Y37148733I0J150000D01*
G01*
G37*
G36*
G01*
X41155000Y35878733D02*
X41155000Y36178733D01*
G75*
G02*
X41305000Y36328733I150000J0D01*
G01*
X42955000Y36328733D01*
G75*
G02*
X43105000Y36178733I0J-150000D01*
G01*
X43105000Y35878733D01*
G75*
G02*
X42955000Y35728733I-150000J0D01*
G01*
X41305000Y35728733D01*
G75*
G02*
X41155000Y35878733I0J150000D01*
G01*
G37*
G36*
G01*
X41155000Y34608733D02*
X41155000Y34908733D01*
G75*
G02*
X41305000Y35058733I150000J0D01*
G01*
X42955000Y35058733D01*
G75*
G02*
X43105000Y34908733I0J-150000D01*
G01*
X43105000Y34608733D01*
G75*
G02*
X42955000Y34458733I-150000J0D01*
G01*
X41305000Y34458733D01*
G75*
G02*
X41155000Y34608733I0J150000D01*
G01*
G37*
G36*
G01*
X46105000Y34608733D02*
X46105000Y34908733D01*
G75*
G02*
X46255000Y35058733I150000J0D01*
G01*
X47905000Y35058733D01*
G75*
G02*
X48055000Y34908733I0J-150000D01*
G01*
X48055000Y34608733D01*
G75*
G02*
X47905000Y34458733I-150000J0D01*
G01*
X46255000Y34458733D01*
G75*
G02*
X46105000Y34608733I0J150000D01*
G01*
G37*
G36*
G01*
X46105000Y35878733D02*
X46105000Y36178733D01*
G75*
G02*
X46255000Y36328733I150000J0D01*
G01*
X47905000Y36328733D01*
G75*
G02*
X48055000Y36178733I0J-150000D01*
G01*
X48055000Y35878733D01*
G75*
G02*
X47905000Y35728733I-150000J0D01*
G01*
X46255000Y35728733D01*
G75*
G02*
X46105000Y35878733I0J150000D01*
G01*
G37*
G36*
G01*
X46105000Y37148733D02*
X46105000Y37448733D01*
G75*
G02*
X46255000Y37598733I150000J0D01*
G01*
X47905000Y37598733D01*
G75*
G02*
X48055000Y37448733I0J-150000D01*
G01*
X48055000Y37148733D01*
G75*
G02*
X47905000Y36998733I-150000J0D01*
G01*
X46255000Y36998733D01*
G75*
G02*
X46105000Y37148733I0J150000D01*
G01*
G37*
G36*
G01*
X46105000Y38418733D02*
X46105000Y38718733D01*
G75*
G02*
X46255000Y38868733I150000J0D01*
G01*
X47905000Y38868733D01*
G75*
G02*
X48055000Y38718733I0J-150000D01*
G01*
X48055000Y38418733D01*
G75*
G02*
X47905000Y38268733I-150000J0D01*
G01*
X46255000Y38268733D01*
G75*
G02*
X46105000Y38418733I0J150000D01*
G01*
G37*
G04 #@! TD*
G04 #@! TO.C,U1*
G36*
G01*
X50345000Y49823733D02*
X50345000Y50223733D01*
G75*
G02*
X50545000Y50423733I200000J0D01*
G01*
X52345000Y50423733D01*
G75*
G02*
X52545000Y50223733I0J-200000D01*
G01*
X52545000Y49823733D01*
G75*
G02*
X52345000Y49623733I-200000J0D01*
G01*
X50545000Y49623733D01*
G75*
G02*
X50345000Y49823733I0J200000D01*
G01*
G37*
G36*
G01*
X50345000Y48683733D02*
X50345000Y49083733D01*
G75*
G02*
X50545000Y49283733I200000J0D01*
G01*
X52345000Y49283733D01*
G75*
G02*
X52545000Y49083733I0J-200000D01*
G01*
X52545000Y48683733D01*
G75*
G02*
X52345000Y48483733I-200000J0D01*
G01*
X50545000Y48483733D01*
G75*
G02*
X50345000Y48683733I0J200000D01*
G01*
G37*
G36*
G01*
X54545000Y48143733D02*
X54545000Y50393733D01*
G75*
G02*
X54795000Y50643733I250000J0D01*
G01*
X57345000Y50643733D01*
G75*
G02*
X57595000Y50393733I0J-250000D01*
G01*
X57595000Y48143733D01*
G75*
G02*
X57345000Y47893733I-250000J0D01*
G01*
X54795000Y47893733D01*
G75*
G02*
X54545000Y48143733I0J250000D01*
G01*
G37*
G36*
G01*
X54545000Y45093733D02*
X54545000Y47343733D01*
G75*
G02*
X54795000Y47593733I250000J0D01*
G01*
X57345000Y47593733D01*
G75*
G02*
X57595000Y47343733I0J-250000D01*
G01*
X57595000Y45093733D01*
G75*
G02*
X57345000Y44843733I-250000J0D01*
G01*
X54795000Y44843733D01*
G75*
G02*
X54545000Y45093733I0J250000D01*
G01*
G37*
G36*
G01*
X57895000Y48143733D02*
X57895000Y50393733D01*
G75*
G02*
X58145000Y50643733I250000J0D01*
G01*
X60695000Y50643733D01*
G75*
G02*
X60945000Y50393733I0J-250000D01*
G01*
X60945000Y48143733D01*
G75*
G02*
X60695000Y47893733I-250000J0D01*
G01*
X58145000Y47893733D01*
G75*
G02*
X57895000Y48143733I0J250000D01*
G01*
G37*
G36*
G01*
X57895000Y45093733D02*
X57895000Y47343733D01*
G75*
G02*
X58145000Y47593733I250000J0D01*
G01*
X60695000Y47593733D01*
G75*
G02*
X60945000Y47343733I0J-250000D01*
G01*
X60945000Y45093733D01*
G75*
G02*
X60695000Y44843733I-250000J0D01*
G01*
X58145000Y44843733D01*
G75*
G02*
X57895000Y45093733I0J250000D01*
G01*
G37*
G36*
G01*
X50345000Y46403733D02*
X50345000Y46803733D01*
G75*
G02*
X50545000Y47003733I200000J0D01*
G01*
X52345000Y47003733D01*
G75*
G02*
X52545000Y46803733I0J-200000D01*
G01*
X52545000Y46403733D01*
G75*
G02*
X52345000Y46203733I-200000J0D01*
G01*
X50545000Y46203733D01*
G75*
G02*
X50345000Y46403733I0J200000D01*
G01*
G37*
G36*
G01*
X50345000Y45263733D02*
X50345000Y45663733D01*
G75*
G02*
X50545000Y45863733I200000J0D01*
G01*
X52345000Y45863733D01*
G75*
G02*
X52545000Y45663733I0J-200000D01*
G01*
X52545000Y45263733D01*
G75*
G02*
X52345000Y45063733I-200000J0D01*
G01*
X50545000Y45063733D01*
G75*
G02*
X50345000Y45263733I0J200000D01*
G01*
G37*
G04 #@! TD*
G04 #@! TO.C,R50*
G36*
G01*
X51330000Y32805000D02*
X51330000Y33585000D01*
G75*
G02*
X51400000Y33655000I70000J0D01*
G01*
X51960000Y33655000D01*
G75*
G02*
X52030000Y33585000I0J-70000D01*
G01*
X52030000Y32805000D01*
G75*
G02*
X51960000Y32735000I-70000J0D01*
G01*
X51400000Y32735000D01*
G75*
G02*
X51330000Y32805000I0J70000D01*
G01*
G37*
G36*
G01*
X52930000Y32805000D02*
X52930000Y33585000D01*
G75*
G02*
X53000000Y33655000I70000J0D01*
G01*
X53560000Y33655000D01*
G75*
G02*
X53630000Y33585000I0J-70000D01*
G01*
X53630000Y32805000D01*
G75*
G02*
X53560000Y32735000I-70000J0D01*
G01*
X53000000Y32735000D01*
G75*
G02*
X52930000Y32805000I0J70000D01*
G01*
G37*
G04 #@! TD*
G04 #@! TO.C,R49*
G36*
G01*
X51330000Y34754046D02*
X51330000Y35534046D01*
G75*
G02*
X51400000Y35604046I70000J0D01*
G01*
X51960000Y35604046D01*
G75*
G02*
X52030000Y35534046I0J-70000D01*
G01*
X52030000Y34754046D01*
G75*
G02*
X51960000Y34684046I-70000J0D01*
G01*
X51400000Y34684046D01*
G75*
G02*
X51330000Y34754046I0J70000D01*
G01*
G37*
G36*
G01*
X52930000Y34754046D02*
X52930000Y35534046D01*
G75*
G02*
X53000000Y35604046I70000J0D01*
G01*
X53560000Y35604046D01*
G75*
G02*
X53630000Y35534046I0J-70000D01*
G01*
X53630000Y34754046D01*
G75*
G02*
X53560000Y34684046I-70000J0D01*
G01*
X53000000Y34684046D01*
G75*
G02*
X52930000Y34754046I0J70000D01*
G01*
G37*
G04 #@! TD*
G04 #@! TO.C,R48*
G36*
G01*
X51330000Y36703092D02*
X51330000Y37483092D01*
G75*
G02*
X51400000Y37553092I70000J0D01*
G01*
X51960000Y37553092D01*
G75*
G02*
X52030000Y37483092I0J-70000D01*
G01*
X52030000Y36703092D01*
G75*
G02*
X51960000Y36633092I-70000J0D01*
G01*
X51400000Y36633092D01*
G75*
G02*
X51330000Y36703092I0J70000D01*
G01*
G37*
G36*
G01*
X52930000Y36703092D02*
X52930000Y37483092D01*
G75*
G02*
X53000000Y37553092I70000J0D01*
G01*
X53560000Y37553092D01*
G75*
G02*
X53630000Y37483092I0J-70000D01*
G01*
X53630000Y36703092D01*
G75*
G02*
X53560000Y36633092I-70000J0D01*
G01*
X53000000Y36633092D01*
G75*
G02*
X52930000Y36703092I0J70000D01*
G01*
G37*
G04 #@! TD*
G04 #@! TO.C,R47*
G36*
G01*
X51330000Y38652138D02*
X51330000Y39432138D01*
G75*
G02*
X51400000Y39502138I70000J0D01*
G01*
X51960000Y39502138D01*
G75*
G02*
X52030000Y39432138I0J-70000D01*
G01*
X52030000Y38652138D01*
G75*
G02*
X51960000Y38582138I-70000J0D01*
G01*
X51400000Y38582138D01*
G75*
G02*
X51330000Y38652138I0J70000D01*
G01*
G37*
G36*
G01*
X52930000Y38652138D02*
X52930000Y39432138D01*
G75*
G02*
X53000000Y39502138I70000J0D01*
G01*
X53560000Y39502138D01*
G75*
G02*
X53630000Y39432138I0J-70000D01*
G01*
X53630000Y38652138D01*
G75*
G02*
X53560000Y38582138I-70000J0D01*
G01*
X53000000Y38582138D01*
G75*
G02*
X52930000Y38652138I0J70000D01*
G01*
G37*
G04 #@! TD*
G04 #@! TO.C,R46*
G36*
G01*
X115350000Y45985000D02*
X115350000Y46765000D01*
G75*
G02*
X115420000Y46835000I70000J0D01*
G01*
X115980000Y46835000D01*
G75*
G02*
X116050000Y46765000I0J-70000D01*
G01*
X116050000Y45985000D01*
G75*
G02*
X115980000Y45915000I-70000J0D01*
G01*
X115420000Y45915000D01*
G75*
G02*
X115350000Y45985000I0J70000D01*
G01*
G37*
G36*
G01*
X116950000Y45985000D02*
X116950000Y46765000D01*
G75*
G02*
X117020000Y46835000I70000J0D01*
G01*
X117580000Y46835000D01*
G75*
G02*
X117650000Y46765000I0J-70000D01*
G01*
X117650000Y45985000D01*
G75*
G02*
X117580000Y45915000I-70000J0D01*
G01*
X117020000Y45915000D01*
G75*
G02*
X116950000Y45985000I0J70000D01*
G01*
G37*
G04 #@! TD*
G04 #@! TO.C,R45*
G36*
G01*
X115350000Y47934046D02*
X115350000Y48714046D01*
G75*
G02*
X115420000Y48784046I70000J0D01*
G01*
X115980000Y48784046D01*
G75*
G02*
X116050000Y48714046I0J-70000D01*
G01*
X116050000Y47934046D01*
G75*
G02*
X115980000Y47864046I-70000J0D01*
G01*
X115420000Y47864046D01*
G75*
G02*
X115350000Y47934046I0J70000D01*
G01*
G37*
G36*
G01*
X116950000Y47934046D02*
X116950000Y48714046D01*
G75*
G02*
X117020000Y48784046I70000J0D01*
G01*
X117580000Y48784046D01*
G75*
G02*
X117650000Y48714046I0J-70000D01*
G01*
X117650000Y47934046D01*
G75*
G02*
X117580000Y47864046I-70000J0D01*
G01*
X117020000Y47864046D01*
G75*
G02*
X116950000Y47934046I0J70000D01*
G01*
G37*
G04 #@! TD*
G04 #@! TO.C,R44*
G36*
G01*
X115350000Y49883092D02*
X115350000Y50663092D01*
G75*
G02*
X115420000Y50733092I70000J0D01*
G01*
X115980000Y50733092D01*
G75*
G02*
X116050000Y50663092I0J-70000D01*
G01*
X116050000Y49883092D01*
G75*
G02*
X115980000Y49813092I-70000J0D01*
G01*
X115420000Y49813092D01*
G75*
G02*
X115350000Y49883092I0J70000D01*
G01*
G37*
G36*
G01*
X116950000Y49883092D02*
X116950000Y50663092D01*
G75*
G02*
X117020000Y50733092I70000J0D01*
G01*
X117580000Y50733092D01*
G75*
G02*
X117650000Y50663092I0J-70000D01*
G01*
X117650000Y49883092D01*
G75*
G02*
X117580000Y49813092I-70000J0D01*
G01*
X117020000Y49813092D01*
G75*
G02*
X116950000Y49883092I0J70000D01*
G01*
G37*
G04 #@! TD*
G04 #@! TO.C,R43*
G36*
G01*
X115350000Y51832138D02*
X115350000Y52612138D01*
G75*
G02*
X115420000Y52682138I70000J0D01*
G01*
X115980000Y52682138D01*
G75*
G02*
X116050000Y52612138I0J-70000D01*
G01*
X116050000Y51832138D01*
G75*
G02*
X115980000Y51762138I-70000J0D01*
G01*
X115420000Y51762138D01*
G75*
G02*
X115350000Y51832138I0J70000D01*
G01*
G37*
G36*
G01*
X116950000Y51832138D02*
X116950000Y52612138D01*
G75*
G02*
X117020000Y52682138I70000J0D01*
G01*
X117580000Y52682138D01*
G75*
G02*
X117650000Y52612138I0J-70000D01*
G01*
X117650000Y51832138D01*
G75*
G02*
X117580000Y51762138I-70000J0D01*
G01*
X117020000Y51762138D01*
G75*
G02*
X116950000Y51832138I0J70000D01*
G01*
G37*
G04 #@! TD*
G04 #@! TO.C,R42*
G36*
G01*
X112050000Y42086908D02*
X112050000Y42866908D01*
G75*
G02*
X112120000Y42936908I70000J0D01*
G01*
X112680000Y42936908D01*
G75*
G02*
X112750000Y42866908I0J-70000D01*
G01*
X112750000Y42086908D01*
G75*
G02*
X112680000Y42016908I-70000J0D01*
G01*
X112120000Y42016908D01*
G75*
G02*
X112050000Y42086908I0J70000D01*
G01*
G37*
G36*
G01*
X113650000Y42086908D02*
X113650000Y42866908D01*
G75*
G02*
X113720000Y42936908I70000J0D01*
G01*
X114280000Y42936908D01*
G75*
G02*
X114350000Y42866908I0J-70000D01*
G01*
X114350000Y42086908D01*
G75*
G02*
X114280000Y42016908I-70000J0D01*
G01*
X113720000Y42016908D01*
G75*
G02*
X113650000Y42086908I0J70000D01*
G01*
G37*
G04 #@! TD*
G04 #@! TO.C,R41*
G36*
G01*
X112050000Y44035954D02*
X112050000Y44815954D01*
G75*
G02*
X112120000Y44885954I70000J0D01*
G01*
X112680000Y44885954D01*
G75*
G02*
X112750000Y44815954I0J-70000D01*
G01*
X112750000Y44035954D01*
G75*
G02*
X112680000Y43965954I-70000J0D01*
G01*
X112120000Y43965954D01*
G75*
G02*
X112050000Y44035954I0J70000D01*
G01*
G37*
G36*
G01*
X113650000Y44035954D02*
X113650000Y44815954D01*
G75*
G02*
X113720000Y44885954I70000J0D01*
G01*
X114280000Y44885954D01*
G75*
G02*
X114350000Y44815954I0J-70000D01*
G01*
X114350000Y44035954D01*
G75*
G02*
X114280000Y43965954I-70000J0D01*
G01*
X113720000Y43965954D01*
G75*
G02*
X113650000Y44035954I0J70000D01*
G01*
G37*
G04 #@! TD*
G04 #@! TO.C,R40*
G36*
G01*
X112050000Y45985000D02*
X112050000Y46765000D01*
G75*
G02*
X112120000Y46835000I70000J0D01*
G01*
X112680000Y46835000D01*
G75*
G02*
X112750000Y46765000I0J-70000D01*
G01*
X112750000Y45985000D01*
G75*
G02*
X112680000Y45915000I-70000J0D01*
G01*
X112120000Y45915000D01*
G75*
G02*
X112050000Y45985000I0J70000D01*
G01*
G37*
G36*
G01*
X113650000Y45985000D02*
X113650000Y46765000D01*
G75*
G02*
X113720000Y46835000I70000J0D01*
G01*
X114280000Y46835000D01*
G75*
G02*
X114350000Y46765000I0J-70000D01*
G01*
X114350000Y45985000D01*
G75*
G02*
X114280000Y45915000I-70000J0D01*
G01*
X113720000Y45915000D01*
G75*
G02*
X113650000Y45985000I0J70000D01*
G01*
G37*
G04 #@! TD*
G04 #@! TO.C,R39*
G36*
G01*
X112050000Y47934046D02*
X112050000Y48714046D01*
G75*
G02*
X112120000Y48784046I70000J0D01*
G01*
X112680000Y48784046D01*
G75*
G02*
X112750000Y48714046I0J-70000D01*
G01*
X112750000Y47934046D01*
G75*
G02*
X112680000Y47864046I-70000J0D01*
G01*
X112120000Y47864046D01*
G75*
G02*
X112050000Y47934046I0J70000D01*
G01*
G37*
G36*
G01*
X113650000Y47934046D02*
X113650000Y48714046D01*
G75*
G02*
X113720000Y48784046I70000J0D01*
G01*
X114280000Y48784046D01*
G75*
G02*
X114350000Y48714046I0J-70000D01*
G01*
X114350000Y47934046D01*
G75*
G02*
X114280000Y47864046I-70000J0D01*
G01*
X113720000Y47864046D01*
G75*
G02*
X113650000Y47934046I0J70000D01*
G01*
G37*
G04 #@! TD*
G04 #@! TO.C,R38*
G36*
G01*
X112050000Y49883092D02*
X112050000Y50663092D01*
G75*
G02*
X112120000Y50733092I70000J0D01*
G01*
X112680000Y50733092D01*
G75*
G02*
X112750000Y50663092I0J-70000D01*
G01*
X112750000Y49883092D01*
G75*
G02*
X112680000Y49813092I-70000J0D01*
G01*
X112120000Y49813092D01*
G75*
G02*
X112050000Y49883092I0J70000D01*
G01*
G37*
G36*
G01*
X113650000Y49883092D02*
X113650000Y50663092D01*
G75*
G02*
X113720000Y50733092I70000J0D01*
G01*
X114280000Y50733092D01*
G75*
G02*
X114350000Y50663092I0J-70000D01*
G01*
X114350000Y49883092D01*
G75*
G02*
X114280000Y49813092I-70000J0D01*
G01*
X113720000Y49813092D01*
G75*
G02*
X113650000Y49883092I0J70000D01*
G01*
G37*
G04 #@! TD*
G04 #@! TO.C,R37*
G36*
G01*
X112050000Y51832138D02*
X112050000Y52612138D01*
G75*
G02*
X112120000Y52682138I70000J0D01*
G01*
X112680000Y52682138D01*
G75*
G02*
X112750000Y52612138I0J-70000D01*
G01*
X112750000Y51832138D01*
G75*
G02*
X112680000Y51762138I-70000J0D01*
G01*
X112120000Y51762138D01*
G75*
G02*
X112050000Y51832138I0J70000D01*
G01*
G37*
G36*
G01*
X113650000Y51832138D02*
X113650000Y52612138D01*
G75*
G02*
X113720000Y52682138I70000J0D01*
G01*
X114280000Y52682138D01*
G75*
G02*
X114350000Y52612138I0J-70000D01*
G01*
X114350000Y51832138D01*
G75*
G02*
X114280000Y51762138I-70000J0D01*
G01*
X113720000Y51762138D01*
G75*
G02*
X113650000Y51832138I0J70000D01*
G01*
G37*
G04 #@! TD*
G04 #@! TO.C,R36*
G36*
G01*
X108750000Y42086908D02*
X108750000Y42866908D01*
G75*
G02*
X108820000Y42936908I70000J0D01*
G01*
X109380000Y42936908D01*
G75*
G02*
X109450000Y42866908I0J-70000D01*
G01*
X109450000Y42086908D01*
G75*
G02*
X109380000Y42016908I-70000J0D01*
G01*
X108820000Y42016908D01*
G75*
G02*
X108750000Y42086908I0J70000D01*
G01*
G37*
G36*
G01*
X110350000Y42086908D02*
X110350000Y42866908D01*
G75*
G02*
X110420000Y42936908I70000J0D01*
G01*
X110980000Y42936908D01*
G75*
G02*
X111050000Y42866908I0J-70000D01*
G01*
X111050000Y42086908D01*
G75*
G02*
X110980000Y42016908I-70000J0D01*
G01*
X110420000Y42016908D01*
G75*
G02*
X110350000Y42086908I0J70000D01*
G01*
G37*
G04 #@! TD*
G04 #@! TO.C,R35*
G36*
G01*
X108750000Y44035954D02*
X108750000Y44815954D01*
G75*
G02*
X108820000Y44885954I70000J0D01*
G01*
X109380000Y44885954D01*
G75*
G02*
X109450000Y44815954I0J-70000D01*
G01*
X109450000Y44035954D01*
G75*
G02*
X109380000Y43965954I-70000J0D01*
G01*
X108820000Y43965954D01*
G75*
G02*
X108750000Y44035954I0J70000D01*
G01*
G37*
G36*
G01*
X110350000Y44035954D02*
X110350000Y44815954D01*
G75*
G02*
X110420000Y44885954I70000J0D01*
G01*
X110980000Y44885954D01*
G75*
G02*
X111050000Y44815954I0J-70000D01*
G01*
X111050000Y44035954D01*
G75*
G02*
X110980000Y43965954I-70000J0D01*
G01*
X110420000Y43965954D01*
G75*
G02*
X110350000Y44035954I0J70000D01*
G01*
G37*
G04 #@! TD*
G04 #@! TO.C,R34*
G36*
G01*
X108750000Y45985000D02*
X108750000Y46765000D01*
G75*
G02*
X108820000Y46835000I70000J0D01*
G01*
X109380000Y46835000D01*
G75*
G02*
X109450000Y46765000I0J-70000D01*
G01*
X109450000Y45985000D01*
G75*
G02*
X109380000Y45915000I-70000J0D01*
G01*
X108820000Y45915000D01*
G75*
G02*
X108750000Y45985000I0J70000D01*
G01*
G37*
G36*
G01*
X110350000Y45985000D02*
X110350000Y46765000D01*
G75*
G02*
X110420000Y46835000I70000J0D01*
G01*
X110980000Y46835000D01*
G75*
G02*
X111050000Y46765000I0J-70000D01*
G01*
X111050000Y45985000D01*
G75*
G02*
X110980000Y45915000I-70000J0D01*
G01*
X110420000Y45915000D01*
G75*
G02*
X110350000Y45985000I0J70000D01*
G01*
G37*
G04 #@! TD*
G04 #@! TO.C,R33*
G36*
G01*
X108750000Y47934046D02*
X108750000Y48714046D01*
G75*
G02*
X108820000Y48784046I70000J0D01*
G01*
X109380000Y48784046D01*
G75*
G02*
X109450000Y48714046I0J-70000D01*
G01*
X109450000Y47934046D01*
G75*
G02*
X109380000Y47864046I-70000J0D01*
G01*
X108820000Y47864046D01*
G75*
G02*
X108750000Y47934046I0J70000D01*
G01*
G37*
G36*
G01*
X110350000Y47934046D02*
X110350000Y48714046D01*
G75*
G02*
X110420000Y48784046I70000J0D01*
G01*
X110980000Y48784046D01*
G75*
G02*
X111050000Y48714046I0J-70000D01*
G01*
X111050000Y47934046D01*
G75*
G02*
X110980000Y47864046I-70000J0D01*
G01*
X110420000Y47864046D01*
G75*
G02*
X110350000Y47934046I0J70000D01*
G01*
G37*
G04 #@! TD*
G04 #@! TO.C,R32*
G36*
G01*
X108750000Y49883092D02*
X108750000Y50663092D01*
G75*
G02*
X108820000Y50733092I70000J0D01*
G01*
X109380000Y50733092D01*
G75*
G02*
X109450000Y50663092I0J-70000D01*
G01*
X109450000Y49883092D01*
G75*
G02*
X109380000Y49813092I-70000J0D01*
G01*
X108820000Y49813092D01*
G75*
G02*
X108750000Y49883092I0J70000D01*
G01*
G37*
G36*
G01*
X110350000Y49883092D02*
X110350000Y50663092D01*
G75*
G02*
X110420000Y50733092I70000J0D01*
G01*
X110980000Y50733092D01*
G75*
G02*
X111050000Y50663092I0J-70000D01*
G01*
X111050000Y49883092D01*
G75*
G02*
X110980000Y49813092I-70000J0D01*
G01*
X110420000Y49813092D01*
G75*
G02*
X110350000Y49883092I0J70000D01*
G01*
G37*
G04 #@! TD*
G04 #@! TO.C,R31*
G36*
G01*
X108750000Y51832138D02*
X108750000Y52612138D01*
G75*
G02*
X108820000Y52682138I70000J0D01*
G01*
X109380000Y52682138D01*
G75*
G02*
X109450000Y52612138I0J-70000D01*
G01*
X109450000Y51832138D01*
G75*
G02*
X109380000Y51762138I-70000J0D01*
G01*
X108820000Y51762138D01*
G75*
G02*
X108750000Y51832138I0J70000D01*
G01*
G37*
G36*
G01*
X110350000Y51832138D02*
X110350000Y52612138D01*
G75*
G02*
X110420000Y52682138I70000J0D01*
G01*
X110980000Y52682138D01*
G75*
G02*
X111050000Y52612138I0J-70000D01*
G01*
X111050000Y51832138D01*
G75*
G02*
X110980000Y51762138I-70000J0D01*
G01*
X110420000Y51762138D01*
G75*
G02*
X110350000Y51832138I0J70000D01*
G01*
G37*
G04 #@! TD*
G04 #@! TO.C,R30*
G36*
G01*
X112720000Y80938733D02*
X112720000Y83788733D01*
G75*
G02*
X112970000Y84038733I250000J0D01*
G01*
X113695000Y84038733D01*
G75*
G02*
X113945000Y83788733I0J-250000D01*
G01*
X113945000Y80938733D01*
G75*
G02*
X113695000Y80688733I-250000J0D01*
G01*
X112970000Y80688733D01*
G75*
G02*
X112720000Y80938733I0J250000D01*
G01*
G37*
G36*
G01*
X118645000Y80938733D02*
X118645000Y83788733D01*
G75*
G02*
X118895000Y84038733I250000J0D01*
G01*
X119620000Y84038733D01*
G75*
G02*
X119870000Y83788733I0J-250000D01*
G01*
X119870000Y80938733D01*
G75*
G02*
X119620000Y80688733I-250000J0D01*
G01*
X118895000Y80688733D01*
G75*
G02*
X118645000Y80938733I0J250000D01*
G01*
G37*
G04 #@! TD*
G04 #@! TO.C,R29*
G36*
G01*
X112720000Y85828733D02*
X112720000Y88678733D01*
G75*
G02*
X112970000Y88928733I250000J0D01*
G01*
X113695000Y88928733D01*
G75*
G02*
X113945000Y88678733I0J-250000D01*
G01*
X113945000Y85828733D01*
G75*
G02*
X113695000Y85578733I-250000J0D01*
G01*
X112970000Y85578733D01*
G75*
G02*
X112720000Y85828733I0J250000D01*
G01*
G37*
G36*
G01*
X118645000Y85828733D02*
X118645000Y88678733D01*
G75*
G02*
X118895000Y88928733I250000J0D01*
G01*
X119620000Y88928733D01*
G75*
G02*
X119870000Y88678733I0J-250000D01*
G01*
X119870000Y85828733D01*
G75*
G02*
X119620000Y85578733I-250000J0D01*
G01*
X118895000Y85578733D01*
G75*
G02*
X118645000Y85828733I0J250000D01*
G01*
G37*
G04 #@! TD*
G04 #@! TO.C,R28*
G36*
G01*
X112720000Y90718733D02*
X112720000Y93568733D01*
G75*
G02*
X112970000Y93818733I250000J0D01*
G01*
X113695000Y93818733D01*
G75*
G02*
X113945000Y93568733I0J-250000D01*
G01*
X113945000Y90718733D01*
G75*
G02*
X113695000Y90468733I-250000J0D01*
G01*
X112970000Y90468733D01*
G75*
G02*
X112720000Y90718733I0J250000D01*
G01*
G37*
G36*
G01*
X118645000Y90718733D02*
X118645000Y93568733D01*
G75*
G02*
X118895000Y93818733I250000J0D01*
G01*
X119620000Y93818733D01*
G75*
G02*
X119870000Y93568733I0J-250000D01*
G01*
X119870000Y90718733D01*
G75*
G02*
X119620000Y90468733I-250000J0D01*
G01*
X118895000Y90468733D01*
G75*
G02*
X118645000Y90718733I0J250000D01*
G01*
G37*
G04 #@! TD*
G04 #@! TO.C,R27*
G36*
G01*
X116460000Y72705000D02*
X116460000Y73485000D01*
G75*
G02*
X116530000Y73555000I70000J0D01*
G01*
X117090000Y73555000D01*
G75*
G02*
X117160000Y73485000I0J-70000D01*
G01*
X117160000Y72705000D01*
G75*
G02*
X117090000Y72635000I-70000J0D01*
G01*
X116530000Y72635000D01*
G75*
G02*
X116460000Y72705000I0J70000D01*
G01*
G37*
G36*
G01*
X118060000Y72705000D02*
X118060000Y73485000D01*
G75*
G02*
X118130000Y73555000I70000J0D01*
G01*
X118690000Y73555000D01*
G75*
G02*
X118760000Y73485000I0J-70000D01*
G01*
X118760000Y72705000D01*
G75*
G02*
X118690000Y72635000I-70000J0D01*
G01*
X118130000Y72635000D01*
G75*
G02*
X118060000Y72705000I0J70000D01*
G01*
G37*
G04 #@! TD*
G04 #@! TO.C,R26*
G36*
G01*
X116460000Y74654046D02*
X116460000Y75434046D01*
G75*
G02*
X116530000Y75504046I70000J0D01*
G01*
X117090000Y75504046D01*
G75*
G02*
X117160000Y75434046I0J-70000D01*
G01*
X117160000Y74654046D01*
G75*
G02*
X117090000Y74584046I-70000J0D01*
G01*
X116530000Y74584046D01*
G75*
G02*
X116460000Y74654046I0J70000D01*
G01*
G37*
G36*
G01*
X118060000Y74654046D02*
X118060000Y75434046D01*
G75*
G02*
X118130000Y75504046I70000J0D01*
G01*
X118690000Y75504046D01*
G75*
G02*
X118760000Y75434046I0J-70000D01*
G01*
X118760000Y74654046D01*
G75*
G02*
X118690000Y74584046I-70000J0D01*
G01*
X118130000Y74584046D01*
G75*
G02*
X118060000Y74654046I0J70000D01*
G01*
G37*
G04 #@! TD*
G04 #@! TO.C,R25*
G36*
G01*
X116460000Y76603092D02*
X116460000Y77383092D01*
G75*
G02*
X116530000Y77453092I70000J0D01*
G01*
X117090000Y77453092D01*
G75*
G02*
X117160000Y77383092I0J-70000D01*
G01*
X117160000Y76603092D01*
G75*
G02*
X117090000Y76533092I-70000J0D01*
G01*
X116530000Y76533092D01*
G75*
G02*
X116460000Y76603092I0J70000D01*
G01*
G37*
G36*
G01*
X118060000Y76603092D02*
X118060000Y77383092D01*
G75*
G02*
X118130000Y77453092I70000J0D01*
G01*
X118690000Y77453092D01*
G75*
G02*
X118760000Y77383092I0J-70000D01*
G01*
X118760000Y76603092D01*
G75*
G02*
X118690000Y76533092I-70000J0D01*
G01*
X118130000Y76533092D01*
G75*
G02*
X118060000Y76603092I0J70000D01*
G01*
G37*
G04 #@! TD*
G04 #@! TO.C,R24*
G36*
G01*
X112720000Y95608733D02*
X112720000Y98458733D01*
G75*
G02*
X112970000Y98708733I250000J0D01*
G01*
X113695000Y98708733D01*
G75*
G02*
X113945000Y98458733I0J-250000D01*
G01*
X113945000Y95608733D01*
G75*
G02*
X113695000Y95358733I-250000J0D01*
G01*
X112970000Y95358733D01*
G75*
G02*
X112720000Y95608733I0J250000D01*
G01*
G37*
G36*
G01*
X118645000Y95608733D02*
X118645000Y98458733D01*
G75*
G02*
X118895000Y98708733I250000J0D01*
G01*
X119620000Y98708733D01*
G75*
G02*
X119870000Y98458733I0J-250000D01*
G01*
X119870000Y95608733D01*
G75*
G02*
X119620000Y95358733I-250000J0D01*
G01*
X118895000Y95358733D01*
G75*
G02*
X118645000Y95608733I0J250000D01*
G01*
G37*
G04 #@! TD*
G04 #@! TO.C,R22*
G36*
G01*
X112720000Y100498733D02*
X112720000Y103348733D01*
G75*
G02*
X112970000Y103598733I250000J0D01*
G01*
X113695000Y103598733D01*
G75*
G02*
X113945000Y103348733I0J-250000D01*
G01*
X113945000Y100498733D01*
G75*
G02*
X113695000Y100248733I-250000J0D01*
G01*
X112970000Y100248733D01*
G75*
G02*
X112720000Y100498733I0J250000D01*
G01*
G37*
G36*
G01*
X118645000Y100498733D02*
X118645000Y103348733D01*
G75*
G02*
X118895000Y103598733I250000J0D01*
G01*
X119620000Y103598733D01*
G75*
G02*
X119870000Y103348733I0J-250000D01*
G01*
X119870000Y100498733D01*
G75*
G02*
X119620000Y100248733I-250000J0D01*
G01*
X118895000Y100248733D01*
G75*
G02*
X118645000Y100498733I0J250000D01*
G01*
G37*
G04 #@! TD*
G04 #@! TO.C,R19*
G36*
G01*
X116460000Y78552138D02*
X116460000Y79332138D01*
G75*
G02*
X116530000Y79402138I70000J0D01*
G01*
X117090000Y79402138D01*
G75*
G02*
X117160000Y79332138I0J-70000D01*
G01*
X117160000Y78552138D01*
G75*
G02*
X117090000Y78482138I-70000J0D01*
G01*
X116530000Y78482138D01*
G75*
G02*
X116460000Y78552138I0J70000D01*
G01*
G37*
G36*
G01*
X118060000Y78552138D02*
X118060000Y79332138D01*
G75*
G02*
X118130000Y79402138I70000J0D01*
G01*
X118690000Y79402138D01*
G75*
G02*
X118760000Y79332138I0J-70000D01*
G01*
X118760000Y78552138D01*
G75*
G02*
X118690000Y78482138I-70000J0D01*
G01*
X118130000Y78482138D01*
G75*
G02*
X118060000Y78552138I0J70000D01*
G01*
G37*
G04 #@! TD*
G04 #@! TO.C,R18*
G36*
G01*
X65080000Y30123092D02*
X65080000Y30903092D01*
G75*
G02*
X65150000Y30973092I70000J0D01*
G01*
X65710000Y30973092D01*
G75*
G02*
X65780000Y30903092I0J-70000D01*
G01*
X65780000Y30123092D01*
G75*
G02*
X65710000Y30053092I-70000J0D01*
G01*
X65150000Y30053092D01*
G75*
G02*
X65080000Y30123092I0J70000D01*
G01*
G37*
G36*
G01*
X66680000Y30123092D02*
X66680000Y30903092D01*
G75*
G02*
X66750000Y30973092I70000J0D01*
G01*
X67310000Y30973092D01*
G75*
G02*
X67380000Y30903092I0J-70000D01*
G01*
X67380000Y30123092D01*
G75*
G02*
X67310000Y30053092I-70000J0D01*
G01*
X66750000Y30053092D01*
G75*
G02*
X66680000Y30123092I0J70000D01*
G01*
G37*
G04 #@! TD*
G04 #@! TO.C,R15*
G36*
G01*
X65080000Y32072138D02*
X65080000Y32852138D01*
G75*
G02*
X65150000Y32922138I70000J0D01*
G01*
X65710000Y32922138D01*
G75*
G02*
X65780000Y32852138I0J-70000D01*
G01*
X65780000Y32072138D01*
G75*
G02*
X65710000Y32002138I-70000J0D01*
G01*
X65150000Y32002138D01*
G75*
G02*
X65080000Y32072138I0J70000D01*
G01*
G37*
G36*
G01*
X66680000Y32072138D02*
X66680000Y32852138D01*
G75*
G02*
X66750000Y32922138I70000J0D01*
G01*
X67310000Y32922138D01*
G75*
G02*
X67380000Y32852138I0J-70000D01*
G01*
X67380000Y32072138D01*
G75*
G02*
X67310000Y32002138I-70000J0D01*
G01*
X66750000Y32002138D01*
G75*
G02*
X66680000Y32072138I0J70000D01*
G01*
G37*
G04 #@! TD*
G04 #@! TO.C,R14*
G36*
G01*
X90950000Y71156908D02*
X90950000Y71936908D01*
G75*
G02*
X91020000Y72006908I70000J0D01*
G01*
X91580000Y72006908D01*
G75*
G02*
X91650000Y71936908I0J-70000D01*
G01*
X91650000Y71156908D01*
G75*
G02*
X91580000Y71086908I-70000J0D01*
G01*
X91020000Y71086908D01*
G75*
G02*
X90950000Y71156908I0J70000D01*
G01*
G37*
G36*
G01*
X92550000Y71156908D02*
X92550000Y71936908D01*
G75*
G02*
X92620000Y72006908I70000J0D01*
G01*
X93180000Y72006908D01*
G75*
G02*
X93250000Y71936908I0J-70000D01*
G01*
X93250000Y71156908D01*
G75*
G02*
X93180000Y71086908I-70000J0D01*
G01*
X92620000Y71086908D01*
G75*
G02*
X92550000Y71156908I0J70000D01*
G01*
G37*
G04 #@! TD*
G04 #@! TO.C,R9*
G36*
G01*
X90950000Y63697876D02*
X90950000Y64947876D01*
G75*
G02*
X91050000Y65047876I100000J0D01*
G01*
X91850000Y65047876D01*
G75*
G02*
X91950000Y64947876I0J-100000D01*
G01*
X91950000Y63697876D01*
G75*
G02*
X91850000Y63597876I-100000J0D01*
G01*
X91050000Y63597876D01*
G75*
G02*
X90950000Y63697876I0J100000D01*
G01*
G37*
G36*
G01*
X92850022Y63697876D02*
X92850022Y64947876D01*
G75*
G02*
X92950022Y65047876I100000J0D01*
G01*
X93750022Y65047876D01*
G75*
G02*
X93850022Y64947876I0J-100000D01*
G01*
X93850022Y63697876D01*
G75*
G02*
X93750022Y63597876I-100000J0D01*
G01*
X92950022Y63597876D01*
G75*
G02*
X92850022Y63697876I0J100000D01*
G01*
G37*
G04 #@! TD*
G04 #@! TO.C,R8*
G36*
G01*
X90950000Y66200804D02*
X90950000Y67450804D01*
G75*
G02*
X91050000Y67550804I100000J0D01*
G01*
X91850000Y67550804D01*
G75*
G02*
X91950000Y67450804I0J-100000D01*
G01*
X91950000Y66200804D01*
G75*
G02*
X91850000Y66100804I-100000J0D01*
G01*
X91050000Y66100804D01*
G75*
G02*
X90950000Y66200804I0J100000D01*
G01*
G37*
G36*
G01*
X92850022Y66200804D02*
X92850022Y67450804D01*
G75*
G02*
X92950022Y67550804I100000J0D01*
G01*
X93750022Y67550804D01*
G75*
G02*
X93850022Y67450804I0J-100000D01*
G01*
X93850022Y66200804D01*
G75*
G02*
X93750022Y66100804I-100000J0D01*
G01*
X92950022Y66100804D01*
G75*
G02*
X92850022Y66200804I0J100000D01*
G01*
G37*
G04 #@! TD*
G04 #@! TO.C,R7*
G36*
G01*
X90950000Y68703732D02*
X90950000Y69953732D01*
G75*
G02*
X91050000Y70053732I100000J0D01*
G01*
X91850000Y70053732D01*
G75*
G02*
X91950000Y69953732I0J-100000D01*
G01*
X91950000Y68703732D01*
G75*
G02*
X91850000Y68603732I-100000J0D01*
G01*
X91050000Y68603732D01*
G75*
G02*
X90950000Y68703732I0J100000D01*
G01*
G37*
G36*
G01*
X92850022Y68703732D02*
X92850022Y69953732D01*
G75*
G02*
X92950022Y70053732I100000J0D01*
G01*
X93750022Y70053732D01*
G75*
G02*
X93850022Y69953732I0J-100000D01*
G01*
X93850022Y68703732D01*
G75*
G02*
X93750022Y68603732I-100000J0D01*
G01*
X92950022Y68603732D01*
G75*
G02*
X92850022Y68703732I0J100000D01*
G01*
G37*
G04 #@! TD*
G04 #@! TO.C,R6*
G36*
G01*
X90950000Y73105954D02*
X90950000Y73885954D01*
G75*
G02*
X91020000Y73955954I70000J0D01*
G01*
X91580000Y73955954D01*
G75*
G02*
X91650000Y73885954I0J-70000D01*
G01*
X91650000Y73105954D01*
G75*
G02*
X91580000Y73035954I-70000J0D01*
G01*
X91020000Y73035954D01*
G75*
G02*
X90950000Y73105954I0J70000D01*
G01*
G37*
G36*
G01*
X92550000Y73105954D02*
X92550000Y73885954D01*
G75*
G02*
X92620000Y73955954I70000J0D01*
G01*
X93180000Y73955954D01*
G75*
G02*
X93250000Y73885954I0J-70000D01*
G01*
X93250000Y73105954D01*
G75*
G02*
X93180000Y73035954I-70000J0D01*
G01*
X92620000Y73035954D01*
G75*
G02*
X92550000Y73105954I0J70000D01*
G01*
G37*
G04 #@! TD*
G04 #@! TO.C,R5*
G36*
G01*
X90950000Y75055000D02*
X90950000Y75835000D01*
G75*
G02*
X91020000Y75905000I70000J0D01*
G01*
X91580000Y75905000D01*
G75*
G02*
X91650000Y75835000I0J-70000D01*
G01*
X91650000Y75055000D01*
G75*
G02*
X91580000Y74985000I-70000J0D01*
G01*
X91020000Y74985000D01*
G75*
G02*
X90950000Y75055000I0J70000D01*
G01*
G37*
G36*
G01*
X92550000Y75055000D02*
X92550000Y75835000D01*
G75*
G02*
X92620000Y75905000I70000J0D01*
G01*
X93180000Y75905000D01*
G75*
G02*
X93250000Y75835000I0J-70000D01*
G01*
X93250000Y75055000D01*
G75*
G02*
X93180000Y74985000I-70000J0D01*
G01*
X92620000Y74985000D01*
G75*
G02*
X92550000Y75055000I0J70000D01*
G01*
G37*
G04 #@! TD*
G04 #@! TO.C,R4*
G36*
G01*
X89130390Y46668342D02*
X89130390Y47918342D01*
G75*
G02*
X89230390Y48018342I100000J0D01*
G01*
X90030390Y48018342D01*
G75*
G02*
X90130390Y47918342I0J-100000D01*
G01*
X90130390Y46668342D01*
G75*
G02*
X90030390Y46568342I-100000J0D01*
G01*
X89230390Y46568342D01*
G75*
G02*
X89130390Y46668342I0J100000D01*
G01*
G37*
G36*
G01*
X91030412Y46668342D02*
X91030412Y47918342D01*
G75*
G02*
X91130412Y48018342I100000J0D01*
G01*
X91930412Y48018342D01*
G75*
G02*
X92030412Y47918342I0J-100000D01*
G01*
X92030412Y46668342D01*
G75*
G02*
X91930412Y46568342I-100000J0D01*
G01*
X91130412Y46568342D01*
G75*
G02*
X91030412Y46668342I0J100000D01*
G01*
G37*
G04 #@! TD*
G04 #@! TO.C,R3*
G36*
G01*
X90950000Y77004046D02*
X90950000Y77784046D01*
G75*
G02*
X91020000Y77854046I70000J0D01*
G01*
X91580000Y77854046D01*
G75*
G02*
X91650000Y77784046I0J-70000D01*
G01*
X91650000Y77004046D01*
G75*
G02*
X91580000Y76934046I-70000J0D01*
G01*
X91020000Y76934046D01*
G75*
G02*
X90950000Y77004046I0J70000D01*
G01*
G37*
G36*
G01*
X92550000Y77004046D02*
X92550000Y77784046D01*
G75*
G02*
X92620000Y77854046I70000J0D01*
G01*
X93180000Y77854046D01*
G75*
G02*
X93250000Y77784046I0J-70000D01*
G01*
X93250000Y77004046D01*
G75*
G02*
X93180000Y76934046I-70000J0D01*
G01*
X92620000Y76934046D01*
G75*
G02*
X92550000Y77004046I0J70000D01*
G01*
G37*
G04 #@! TD*
G04 #@! TO.C,R2*
G36*
G01*
X90950000Y78953092D02*
X90950000Y79733092D01*
G75*
G02*
X91020000Y79803092I70000J0D01*
G01*
X91580000Y79803092D01*
G75*
G02*
X91650000Y79733092I0J-70000D01*
G01*
X91650000Y78953092D01*
G75*
G02*
X91580000Y78883092I-70000J0D01*
G01*
X91020000Y78883092D01*
G75*
G02*
X90950000Y78953092I0J70000D01*
G01*
G37*
G36*
G01*
X92550000Y78953092D02*
X92550000Y79733092D01*
G75*
G02*
X92620000Y79803092I70000J0D01*
G01*
X93180000Y79803092D01*
G75*
G02*
X93250000Y79733092I0J-70000D01*
G01*
X93250000Y78953092D01*
G75*
G02*
X93180000Y78883092I-70000J0D01*
G01*
X92620000Y78883092D01*
G75*
G02*
X92550000Y78953092I0J70000D01*
G01*
G37*
G04 #@! TD*
G04 #@! TO.C,R1*
G36*
G01*
X90950000Y80902138D02*
X90950000Y81682138D01*
G75*
G02*
X91020000Y81752138I70000J0D01*
G01*
X91580000Y81752138D01*
G75*
G02*
X91650000Y81682138I0J-70000D01*
G01*
X91650000Y80902138D01*
G75*
G02*
X91580000Y80832138I-70000J0D01*
G01*
X91020000Y80832138D01*
G75*
G02*
X90950000Y80902138I0J70000D01*
G01*
G37*
G36*
G01*
X92550000Y80902138D02*
X92550000Y81682138D01*
G75*
G02*
X92620000Y81752138I70000J0D01*
G01*
X93180000Y81752138D01*
G75*
G02*
X93250000Y81682138I0J-70000D01*
G01*
X93250000Y80902138D01*
G75*
G02*
X93180000Y80832138I-70000J0D01*
G01*
X92620000Y80832138D01*
G75*
G02*
X92550000Y80902138I0J70000D01*
G01*
G37*
G04 #@! TD*
G04 #@! TO.C,Q7*
G36*
G01*
X100575000Y61153733D02*
X100575000Y61853733D01*
G75*
G02*
X100825000Y62103733I250000J0D01*
G01*
X102525000Y62103733D01*
G75*
G02*
X102775000Y61853733I0J-250000D01*
G01*
X102775000Y61153733D01*
G75*
G02*
X102525000Y60903733I-250000J0D01*
G01*
X100825000Y60903733D01*
G75*
G02*
X100575000Y61153733I0J250000D01*
G01*
G37*
G36*
G01*
X104775000Y59623733D02*
X104775000Y61873733D01*
G75*
G02*
X105025000Y62123733I250000J0D01*
G01*
X107575000Y62123733D01*
G75*
G02*
X107825000Y61873733I0J-250000D01*
G01*
X107825000Y59623733D01*
G75*
G02*
X107575000Y59373733I-250000J0D01*
G01*
X105025000Y59373733D01*
G75*
G02*
X104775000Y59623733I0J250000D01*
G01*
G37*
G36*
G01*
X104775000Y56573733D02*
X104775000Y58823733D01*
G75*
G02*
X105025000Y59073733I250000J0D01*
G01*
X107575000Y59073733D01*
G75*
G02*
X107825000Y58823733I0J-250000D01*
G01*
X107825000Y56573733D01*
G75*
G02*
X107575000Y56323733I-250000J0D01*
G01*
X105025000Y56323733D01*
G75*
G02*
X104775000Y56573733I0J250000D01*
G01*
G37*
G36*
G01*
X108125000Y59623733D02*
X108125000Y61873733D01*
G75*
G02*
X108375000Y62123733I250000J0D01*
G01*
X110925000Y62123733D01*
G75*
G02*
X111175000Y61873733I0J-250000D01*
G01*
X111175000Y59623733D01*
G75*
G02*
X110925000Y59373733I-250000J0D01*
G01*
X108375000Y59373733D01*
G75*
G02*
X108125000Y59623733I0J250000D01*
G01*
G37*
G36*
G01*
X108125000Y56573733D02*
X108125000Y58823733D01*
G75*
G02*
X108375000Y59073733I250000J0D01*
G01*
X110925000Y59073733D01*
G75*
G02*
X111175000Y58823733I0J-250000D01*
G01*
X111175000Y56573733D01*
G75*
G02*
X110925000Y56323733I-250000J0D01*
G01*
X108375000Y56323733D01*
G75*
G02*
X108125000Y56573733I0J250000D01*
G01*
G37*
G36*
G01*
X100575000Y56593733D02*
X100575000Y57293733D01*
G75*
G02*
X100825000Y57543733I250000J0D01*
G01*
X102525000Y57543733D01*
G75*
G02*
X102775000Y57293733I0J-250000D01*
G01*
X102775000Y56593733D01*
G75*
G02*
X102525000Y56343733I-250000J0D01*
G01*
X100825000Y56343733D01*
G75*
G02*
X100575000Y56593733I0J250000D01*
G01*
G37*
G04 #@! TD*
G04 #@! TO.C,Q6*
G36*
G01*
X100575000Y69348733D02*
X100575000Y70048733D01*
G75*
G02*
X100825000Y70298733I250000J0D01*
G01*
X102525000Y70298733D01*
G75*
G02*
X102775000Y70048733I0J-250000D01*
G01*
X102775000Y69348733D01*
G75*
G02*
X102525000Y69098733I-250000J0D01*
G01*
X100825000Y69098733D01*
G75*
G02*
X100575000Y69348733I0J250000D01*
G01*
G37*
G36*
G01*
X104775000Y67818733D02*
X104775000Y70068733D01*
G75*
G02*
X105025000Y70318733I250000J0D01*
G01*
X107575000Y70318733D01*
G75*
G02*
X107825000Y70068733I0J-250000D01*
G01*
X107825000Y67818733D01*
G75*
G02*
X107575000Y67568733I-250000J0D01*
G01*
X105025000Y67568733D01*
G75*
G02*
X104775000Y67818733I0J250000D01*
G01*
G37*
G36*
G01*
X104775000Y64768733D02*
X104775000Y67018733D01*
G75*
G02*
X105025000Y67268733I250000J0D01*
G01*
X107575000Y67268733D01*
G75*
G02*
X107825000Y67018733I0J-250000D01*
G01*
X107825000Y64768733D01*
G75*
G02*
X107575000Y64518733I-250000J0D01*
G01*
X105025000Y64518733D01*
G75*
G02*
X104775000Y64768733I0J250000D01*
G01*
G37*
G36*
G01*
X108125000Y67818733D02*
X108125000Y70068733D01*
G75*
G02*
X108375000Y70318733I250000J0D01*
G01*
X110925000Y70318733D01*
G75*
G02*
X111175000Y70068733I0J-250000D01*
G01*
X111175000Y67818733D01*
G75*
G02*
X110925000Y67568733I-250000J0D01*
G01*
X108375000Y67568733D01*
G75*
G02*
X108125000Y67818733I0J250000D01*
G01*
G37*
G36*
G01*
X108125000Y64768733D02*
X108125000Y67018733D01*
G75*
G02*
X108375000Y67268733I250000J0D01*
G01*
X110925000Y67268733D01*
G75*
G02*
X111175000Y67018733I0J-250000D01*
G01*
X111175000Y64768733D01*
G75*
G02*
X110925000Y64518733I-250000J0D01*
G01*
X108375000Y64518733D01*
G75*
G02*
X108125000Y64768733I0J250000D01*
G01*
G37*
G36*
G01*
X100575000Y64788733D02*
X100575000Y65488733D01*
G75*
G02*
X100825000Y65738733I250000J0D01*
G01*
X102525000Y65738733D01*
G75*
G02*
X102775000Y65488733I0J-250000D01*
G01*
X102775000Y64788733D01*
G75*
G02*
X102525000Y64538733I-250000J0D01*
G01*
X100825000Y64538733D01*
G75*
G02*
X100575000Y64788733I0J250000D01*
G01*
G37*
G04 #@! TD*
G04 #@! TO.C,Q5*
G36*
G01*
X100575000Y77543733D02*
X100575000Y78243733D01*
G75*
G02*
X100825000Y78493733I250000J0D01*
G01*
X102525000Y78493733D01*
G75*
G02*
X102775000Y78243733I0J-250000D01*
G01*
X102775000Y77543733D01*
G75*
G02*
X102525000Y77293733I-250000J0D01*
G01*
X100825000Y77293733D01*
G75*
G02*
X100575000Y77543733I0J250000D01*
G01*
G37*
G36*
G01*
X104775000Y76013733D02*
X104775000Y78263733D01*
G75*
G02*
X105025000Y78513733I250000J0D01*
G01*
X107575000Y78513733D01*
G75*
G02*
X107825000Y78263733I0J-250000D01*
G01*
X107825000Y76013733D01*
G75*
G02*
X107575000Y75763733I-250000J0D01*
G01*
X105025000Y75763733D01*
G75*
G02*
X104775000Y76013733I0J250000D01*
G01*
G37*
G36*
G01*
X104775000Y72963733D02*
X104775000Y75213733D01*
G75*
G02*
X105025000Y75463733I250000J0D01*
G01*
X107575000Y75463733D01*
G75*
G02*
X107825000Y75213733I0J-250000D01*
G01*
X107825000Y72963733D01*
G75*
G02*
X107575000Y72713733I-250000J0D01*
G01*
X105025000Y72713733D01*
G75*
G02*
X104775000Y72963733I0J250000D01*
G01*
G37*
G36*
G01*
X108125000Y76013733D02*
X108125000Y78263733D01*
G75*
G02*
X108375000Y78513733I250000J0D01*
G01*
X110925000Y78513733D01*
G75*
G02*
X111175000Y78263733I0J-250000D01*
G01*
X111175000Y76013733D01*
G75*
G02*
X110925000Y75763733I-250000J0D01*
G01*
X108375000Y75763733D01*
G75*
G02*
X108125000Y76013733I0J250000D01*
G01*
G37*
G36*
G01*
X108125000Y72963733D02*
X108125000Y75213733D01*
G75*
G02*
X108375000Y75463733I250000J0D01*
G01*
X110925000Y75463733D01*
G75*
G02*
X111175000Y75213733I0J-250000D01*
G01*
X111175000Y72963733D01*
G75*
G02*
X110925000Y72713733I-250000J0D01*
G01*
X108375000Y72713733D01*
G75*
G02*
X108125000Y72963733I0J250000D01*
G01*
G37*
G36*
G01*
X100575000Y72983733D02*
X100575000Y73683733D01*
G75*
G02*
X100825000Y73933733I250000J0D01*
G01*
X102525000Y73933733D01*
G75*
G02*
X102775000Y73683733I0J-250000D01*
G01*
X102775000Y72983733D01*
G75*
G02*
X102525000Y72733733I-250000J0D01*
G01*
X100825000Y72733733D01*
G75*
G02*
X100575000Y72983733I0J250000D01*
G01*
G37*
G04 #@! TD*
G04 #@! TO.C,Q4*
G36*
G01*
X100575000Y85738733D02*
X100575000Y86438733D01*
G75*
G02*
X100825000Y86688733I250000J0D01*
G01*
X102525000Y86688733D01*
G75*
G02*
X102775000Y86438733I0J-250000D01*
G01*
X102775000Y85738733D01*
G75*
G02*
X102525000Y85488733I-250000J0D01*
G01*
X100825000Y85488733D01*
G75*
G02*
X100575000Y85738733I0J250000D01*
G01*
G37*
G36*
G01*
X104775000Y84208733D02*
X104775000Y86458733D01*
G75*
G02*
X105025000Y86708733I250000J0D01*
G01*
X107575000Y86708733D01*
G75*
G02*
X107825000Y86458733I0J-250000D01*
G01*
X107825000Y84208733D01*
G75*
G02*
X107575000Y83958733I-250000J0D01*
G01*
X105025000Y83958733D01*
G75*
G02*
X104775000Y84208733I0J250000D01*
G01*
G37*
G36*
G01*
X104775000Y81158733D02*
X104775000Y83408733D01*
G75*
G02*
X105025000Y83658733I250000J0D01*
G01*
X107575000Y83658733D01*
G75*
G02*
X107825000Y83408733I0J-250000D01*
G01*
X107825000Y81158733D01*
G75*
G02*
X107575000Y80908733I-250000J0D01*
G01*
X105025000Y80908733D01*
G75*
G02*
X104775000Y81158733I0J250000D01*
G01*
G37*
G36*
G01*
X108125000Y84208733D02*
X108125000Y86458733D01*
G75*
G02*
X108375000Y86708733I250000J0D01*
G01*
X110925000Y86708733D01*
G75*
G02*
X111175000Y86458733I0J-250000D01*
G01*
X111175000Y84208733D01*
G75*
G02*
X110925000Y83958733I-250000J0D01*
G01*
X108375000Y83958733D01*
G75*
G02*
X108125000Y84208733I0J250000D01*
G01*
G37*
G36*
G01*
X108125000Y81158733D02*
X108125000Y83408733D01*
G75*
G02*
X108375000Y83658733I250000J0D01*
G01*
X110925000Y83658733D01*
G75*
G02*
X111175000Y83408733I0J-250000D01*
G01*
X111175000Y81158733D01*
G75*
G02*
X110925000Y80908733I-250000J0D01*
G01*
X108375000Y80908733D01*
G75*
G02*
X108125000Y81158733I0J250000D01*
G01*
G37*
G36*
G01*
X100575000Y81178733D02*
X100575000Y81878733D01*
G75*
G02*
X100825000Y82128733I250000J0D01*
G01*
X102525000Y82128733D01*
G75*
G02*
X102775000Y81878733I0J-250000D01*
G01*
X102775000Y81178733D01*
G75*
G02*
X102525000Y80928733I-250000J0D01*
G01*
X100825000Y80928733D01*
G75*
G02*
X100575000Y81178733I0J250000D01*
G01*
G37*
G04 #@! TD*
G04 #@! TO.C,Q3*
G36*
G01*
X100575000Y93933733D02*
X100575000Y94633733D01*
G75*
G02*
X100825000Y94883733I250000J0D01*
G01*
X102525000Y94883733D01*
G75*
G02*
X102775000Y94633733I0J-250000D01*
G01*
X102775000Y93933733D01*
G75*
G02*
X102525000Y93683733I-250000J0D01*
G01*
X100825000Y93683733D01*
G75*
G02*
X100575000Y93933733I0J250000D01*
G01*
G37*
G36*
G01*
X104775000Y92403733D02*
X104775000Y94653733D01*
G75*
G02*
X105025000Y94903733I250000J0D01*
G01*
X107575000Y94903733D01*
G75*
G02*
X107825000Y94653733I0J-250000D01*
G01*
X107825000Y92403733D01*
G75*
G02*
X107575000Y92153733I-250000J0D01*
G01*
X105025000Y92153733D01*
G75*
G02*
X104775000Y92403733I0J250000D01*
G01*
G37*
G36*
G01*
X104775000Y89353733D02*
X104775000Y91603733D01*
G75*
G02*
X105025000Y91853733I250000J0D01*
G01*
X107575000Y91853733D01*
G75*
G02*
X107825000Y91603733I0J-250000D01*
G01*
X107825000Y89353733D01*
G75*
G02*
X107575000Y89103733I-250000J0D01*
G01*
X105025000Y89103733D01*
G75*
G02*
X104775000Y89353733I0J250000D01*
G01*
G37*
G36*
G01*
X108125000Y92403733D02*
X108125000Y94653733D01*
G75*
G02*
X108375000Y94903733I250000J0D01*
G01*
X110925000Y94903733D01*
G75*
G02*
X111175000Y94653733I0J-250000D01*
G01*
X111175000Y92403733D01*
G75*
G02*
X110925000Y92153733I-250000J0D01*
G01*
X108375000Y92153733D01*
G75*
G02*
X108125000Y92403733I0J250000D01*
G01*
G37*
G36*
G01*
X108125000Y89353733D02*
X108125000Y91603733D01*
G75*
G02*
X108375000Y91853733I250000J0D01*
G01*
X110925000Y91853733D01*
G75*
G02*
X111175000Y91603733I0J-250000D01*
G01*
X111175000Y89353733D01*
G75*
G02*
X110925000Y89103733I-250000J0D01*
G01*
X108375000Y89103733D01*
G75*
G02*
X108125000Y89353733I0J250000D01*
G01*
G37*
G36*
G01*
X100575000Y89373733D02*
X100575000Y90073733D01*
G75*
G02*
X100825000Y90323733I250000J0D01*
G01*
X102525000Y90323733D01*
G75*
G02*
X102775000Y90073733I0J-250000D01*
G01*
X102775000Y89373733D01*
G75*
G02*
X102525000Y89123733I-250000J0D01*
G01*
X100825000Y89123733D01*
G75*
G02*
X100575000Y89373733I0J250000D01*
G01*
G37*
G04 #@! TD*
G04 #@! TO.C,Q2*
G36*
G01*
X100575000Y102128733D02*
X100575000Y102828733D01*
G75*
G02*
X100825000Y103078733I250000J0D01*
G01*
X102525000Y103078733D01*
G75*
G02*
X102775000Y102828733I0J-250000D01*
G01*
X102775000Y102128733D01*
G75*
G02*
X102525000Y101878733I-250000J0D01*
G01*
X100825000Y101878733D01*
G75*
G02*
X100575000Y102128733I0J250000D01*
G01*
G37*
G36*
G01*
X104775000Y100598733D02*
X104775000Y102848733D01*
G75*
G02*
X105025000Y103098733I250000J0D01*
G01*
X107575000Y103098733D01*
G75*
G02*
X107825000Y102848733I0J-250000D01*
G01*
X107825000Y100598733D01*
G75*
G02*
X107575000Y100348733I-250000J0D01*
G01*
X105025000Y100348733D01*
G75*
G02*
X104775000Y100598733I0J250000D01*
G01*
G37*
G36*
G01*
X104775000Y97548733D02*
X104775000Y99798733D01*
G75*
G02*
X105025000Y100048733I250000J0D01*
G01*
X107575000Y100048733D01*
G75*
G02*
X107825000Y99798733I0J-250000D01*
G01*
X107825000Y97548733D01*
G75*
G02*
X107575000Y97298733I-250000J0D01*
G01*
X105025000Y97298733D01*
G75*
G02*
X104775000Y97548733I0J250000D01*
G01*
G37*
G36*
G01*
X108125000Y100598733D02*
X108125000Y102848733D01*
G75*
G02*
X108375000Y103098733I250000J0D01*
G01*
X110925000Y103098733D01*
G75*
G02*
X111175000Y102848733I0J-250000D01*
G01*
X111175000Y100598733D01*
G75*
G02*
X110925000Y100348733I-250000J0D01*
G01*
X108375000Y100348733D01*
G75*
G02*
X108125000Y100598733I0J250000D01*
G01*
G37*
G36*
G01*
X108125000Y97548733D02*
X108125000Y99798733D01*
G75*
G02*
X108375000Y100048733I250000J0D01*
G01*
X110925000Y100048733D01*
G75*
G02*
X111175000Y99798733I0J-250000D01*
G01*
X111175000Y97548733D01*
G75*
G02*
X110925000Y97298733I-250000J0D01*
G01*
X108375000Y97298733D01*
G75*
G02*
X108125000Y97548733I0J250000D01*
G01*
G37*
G36*
G01*
X100575000Y97568733D02*
X100575000Y98268733D01*
G75*
G02*
X100825000Y98518733I250000J0D01*
G01*
X102525000Y98518733D01*
G75*
G02*
X102775000Y98268733I0J-250000D01*
G01*
X102775000Y97568733D01*
G75*
G02*
X102525000Y97318733I-250000J0D01*
G01*
X100825000Y97318733D01*
G75*
G02*
X100575000Y97568733I0J250000D01*
G01*
G37*
G04 #@! TD*
G04 #@! TO.C,Q1*
G36*
G01*
X89420000Y102768733D02*
X89420000Y103068733D01*
G75*
G02*
X89570000Y103218733I150000J0D01*
G01*
X90745000Y103218733D01*
G75*
G02*
X90895000Y103068733I0J-150000D01*
G01*
X90895000Y102768733D01*
G75*
G02*
X90745000Y102618733I-150000J0D01*
G01*
X89570000Y102618733D01*
G75*
G02*
X89420000Y102768733I0J150000D01*
G01*
G37*
G36*
G01*
X89420000Y100868733D02*
X89420000Y101168733D01*
G75*
G02*
X89570000Y101318733I150000J0D01*
G01*
X90745000Y101318733D01*
G75*
G02*
X90895000Y101168733I0J-150000D01*
G01*
X90895000Y100868733D01*
G75*
G02*
X90745000Y100718733I-150000J0D01*
G01*
X89570000Y100718733D01*
G75*
G02*
X89420000Y100868733I0J150000D01*
G01*
G37*
G36*
G01*
X91295000Y101818733D02*
X91295000Y102118733D01*
G75*
G02*
X91445000Y102268733I150000J0D01*
G01*
X92620000Y102268733D01*
G75*
G02*
X92770000Y102118733I0J-150000D01*
G01*
X92770000Y101818733D01*
G75*
G02*
X92620000Y101668733I-150000J0D01*
G01*
X91445000Y101668733D01*
G75*
G02*
X91295000Y101818733I0J150000D01*
G01*
G37*
G04 #@! TD*
D10*
G04 #@! TO.C,M8*
X44074999Y44457062D03*
G04 #@! TD*
G04 #@! TO.C,L2*
G36*
G01*
X41160000Y29417483D02*
X41160000Y29929983D01*
G75*
G02*
X41378750Y30148733I218750J0D01*
G01*
X41816250Y30148733D01*
G75*
G02*
X42035000Y29929983I0J-218750D01*
G01*
X42035000Y29417483D01*
G75*
G02*
X41816250Y29198733I-218750J0D01*
G01*
X41378750Y29198733D01*
G75*
G02*
X41160000Y29417483I0J218750D01*
G01*
G37*
G36*
G01*
X42735000Y29417483D02*
X42735000Y29929983D01*
G75*
G02*
X42953750Y30148733I218750J0D01*
G01*
X43391250Y30148733D01*
G75*
G02*
X43610000Y29929983I0J-218750D01*
G01*
X43610000Y29417483D01*
G75*
G02*
X43391250Y29198733I-218750J0D01*
G01*
X42953750Y29198733D01*
G75*
G02*
X42735000Y29417483I0J218750D01*
G01*
G37*
G04 #@! TD*
G04 #@! TO.C,L1*
G36*
G01*
X41160000Y31927483D02*
X41160000Y32439983D01*
G75*
G02*
X41378750Y32658733I218750J0D01*
G01*
X41816250Y32658733D01*
G75*
G02*
X42035000Y32439983I0J-218750D01*
G01*
X42035000Y31927483D01*
G75*
G02*
X41816250Y31708733I-218750J0D01*
G01*
X41378750Y31708733D01*
G75*
G02*
X41160000Y31927483I0J218750D01*
G01*
G37*
G36*
G01*
X42735000Y31927483D02*
X42735000Y32439983D01*
G75*
G02*
X42953750Y32658733I218750J0D01*
G01*
X43391250Y32658733D01*
G75*
G02*
X43610000Y32439983I0J-218750D01*
G01*
X43610000Y31927483D01*
G75*
G02*
X43391250Y31708733I-218750J0D01*
G01*
X42953750Y31708733D01*
G75*
G02*
X42735000Y31927483I0J218750D01*
G01*
G37*
G04 #@! TD*
G04 #@! TO.C,F9*
G36*
G01*
X112730000Y65857483D02*
X112730000Y66369983D01*
G75*
G02*
X112948750Y66588733I218750J0D01*
G01*
X113386250Y66588733D01*
G75*
G02*
X113605000Y66369983I0J-218750D01*
G01*
X113605000Y65857483D01*
G75*
G02*
X113386250Y65638733I-218750J0D01*
G01*
X112948750Y65638733D01*
G75*
G02*
X112730000Y65857483I0J218750D01*
G01*
G37*
G36*
G01*
X114305000Y65857483D02*
X114305000Y66369983D01*
G75*
G02*
X114523750Y66588733I218750J0D01*
G01*
X114961250Y66588733D01*
G75*
G02*
X115180000Y66369983I0J-218750D01*
G01*
X115180000Y65857483D01*
G75*
G02*
X114961250Y65638733I-218750J0D01*
G01*
X114523750Y65638733D01*
G75*
G02*
X114305000Y65857483I0J218750D01*
G01*
G37*
G04 #@! TD*
G04 #@! TO.C,F8*
G36*
G01*
X112730000Y68367483D02*
X112730000Y68879983D01*
G75*
G02*
X112948750Y69098733I218750J0D01*
G01*
X113386250Y69098733D01*
G75*
G02*
X113605000Y68879983I0J-218750D01*
G01*
X113605000Y68367483D01*
G75*
G02*
X113386250Y68148733I-218750J0D01*
G01*
X112948750Y68148733D01*
G75*
G02*
X112730000Y68367483I0J218750D01*
G01*
G37*
G36*
G01*
X114305000Y68367483D02*
X114305000Y68879983D01*
G75*
G02*
X114523750Y69098733I218750J0D01*
G01*
X114961250Y69098733D01*
G75*
G02*
X115180000Y68879983I0J-218750D01*
G01*
X115180000Y68367483D01*
G75*
G02*
X114961250Y68148733I-218750J0D01*
G01*
X114523750Y68148733D01*
G75*
G02*
X114305000Y68367483I0J218750D01*
G01*
G37*
G04 #@! TD*
G04 #@! TO.C,F7*
G36*
G01*
X112730000Y70877483D02*
X112730000Y71389983D01*
G75*
G02*
X112948750Y71608733I218750J0D01*
G01*
X113386250Y71608733D01*
G75*
G02*
X113605000Y71389983I0J-218750D01*
G01*
X113605000Y70877483D01*
G75*
G02*
X113386250Y70658733I-218750J0D01*
G01*
X112948750Y70658733D01*
G75*
G02*
X112730000Y70877483I0J218750D01*
G01*
G37*
G36*
G01*
X114305000Y70877483D02*
X114305000Y71389983D01*
G75*
G02*
X114523750Y71608733I218750J0D01*
G01*
X114961250Y71608733D01*
G75*
G02*
X115180000Y71389983I0J-218750D01*
G01*
X115180000Y70877483D01*
G75*
G02*
X114961250Y70658733I-218750J0D01*
G01*
X114523750Y70658733D01*
G75*
G02*
X114305000Y70877483I0J218750D01*
G01*
G37*
G04 #@! TD*
G04 #@! TO.C,F6*
G36*
G01*
X112730000Y73387483D02*
X112730000Y73899983D01*
G75*
G02*
X112948750Y74118733I218750J0D01*
G01*
X113386250Y74118733D01*
G75*
G02*
X113605000Y73899983I0J-218750D01*
G01*
X113605000Y73387483D01*
G75*
G02*
X113386250Y73168733I-218750J0D01*
G01*
X112948750Y73168733D01*
G75*
G02*
X112730000Y73387483I0J218750D01*
G01*
G37*
G36*
G01*
X114305000Y73387483D02*
X114305000Y73899983D01*
G75*
G02*
X114523750Y74118733I218750J0D01*
G01*
X114961250Y74118733D01*
G75*
G02*
X115180000Y73899983I0J-218750D01*
G01*
X115180000Y73387483D01*
G75*
G02*
X114961250Y73168733I-218750J0D01*
G01*
X114523750Y73168733D01*
G75*
G02*
X114305000Y73387483I0J218750D01*
G01*
G37*
G04 #@! TD*
G04 #@! TO.C,F5*
G36*
G01*
X112730000Y75897483D02*
X112730000Y76409983D01*
G75*
G02*
X112948750Y76628733I218750J0D01*
G01*
X113386250Y76628733D01*
G75*
G02*
X113605000Y76409983I0J-218750D01*
G01*
X113605000Y75897483D01*
G75*
G02*
X113386250Y75678733I-218750J0D01*
G01*
X112948750Y75678733D01*
G75*
G02*
X112730000Y75897483I0J218750D01*
G01*
G37*
G36*
G01*
X114305000Y75897483D02*
X114305000Y76409983D01*
G75*
G02*
X114523750Y76628733I218750J0D01*
G01*
X114961250Y76628733D01*
G75*
G02*
X115180000Y76409983I0J-218750D01*
G01*
X115180000Y75897483D01*
G75*
G02*
X114961250Y75678733I-218750J0D01*
G01*
X114523750Y75678733D01*
G75*
G02*
X114305000Y75897483I0J218750D01*
G01*
G37*
G04 #@! TD*
G04 #@! TO.C,F4*
G36*
G01*
X112730000Y78407483D02*
X112730000Y78919983D01*
G75*
G02*
X112948750Y79138733I218750J0D01*
G01*
X113386250Y79138733D01*
G75*
G02*
X113605000Y78919983I0J-218750D01*
G01*
X113605000Y78407483D01*
G75*
G02*
X113386250Y78188733I-218750J0D01*
G01*
X112948750Y78188733D01*
G75*
G02*
X112730000Y78407483I0J218750D01*
G01*
G37*
G36*
G01*
X114305000Y78407483D02*
X114305000Y78919983D01*
G75*
G02*
X114523750Y79138733I218750J0D01*
G01*
X114961250Y79138733D01*
G75*
G02*
X115180000Y78919983I0J-218750D01*
G01*
X115180000Y78407483D01*
G75*
G02*
X114961250Y78188733I-218750J0D01*
G01*
X114523750Y78188733D01*
G75*
G02*
X114305000Y78407483I0J218750D01*
G01*
G37*
G04 #@! TD*
G04 #@! TO.C,F3*
G36*
G01*
X64624990Y43068733D02*
X63934990Y43068733D01*
G75*
G02*
X63704990Y43298733I0J230000D01*
G01*
X63704990Y44638733D01*
G75*
G02*
X63934990Y44868733I230000J0D01*
G01*
X64624990Y44868733D01*
G75*
G02*
X64854990Y44638733I0J-230000D01*
G01*
X64854990Y43298733D01*
G75*
G02*
X64624990Y43068733I-230000J0D01*
G01*
G37*
G36*
G01*
X67525010Y43068733D02*
X66835010Y43068733D01*
G75*
G02*
X66605010Y43298733I0J230000D01*
G01*
X66605010Y44638733D01*
G75*
G02*
X66835010Y44868733I230000J0D01*
G01*
X67525010Y44868733D01*
G75*
G02*
X67755010Y44638733I0J-230000D01*
G01*
X67755010Y43298733D01*
G75*
G02*
X67525010Y43068733I-230000J0D01*
G01*
G37*
G04 #@! TD*
G04 #@! TO.C,F2*
G36*
G01*
X64624990Y46188733D02*
X63934990Y46188733D01*
G75*
G02*
X63704990Y46418733I0J230000D01*
G01*
X63704990Y47758733D01*
G75*
G02*
X63934990Y47988733I230000J0D01*
G01*
X64624990Y47988733D01*
G75*
G02*
X64854990Y47758733I0J-230000D01*
G01*
X64854990Y46418733D01*
G75*
G02*
X64624990Y46188733I-230000J0D01*
G01*
G37*
G36*
G01*
X67525010Y46188733D02*
X66835010Y46188733D01*
G75*
G02*
X66605010Y46418733I0J230000D01*
G01*
X66605010Y47758733D01*
G75*
G02*
X66835010Y47988733I230000J0D01*
G01*
X67525010Y47988733D01*
G75*
G02*
X67755010Y47758733I0J-230000D01*
G01*
X67755010Y46418733D01*
G75*
G02*
X67525010Y46188733I-230000J0D01*
G01*
G37*
G04 #@! TD*
G04 #@! TO.C,F1*
G36*
G01*
X64624990Y49308733D02*
X63934990Y49308733D01*
G75*
G02*
X63704990Y49538733I0J230000D01*
G01*
X63704990Y50878733D01*
G75*
G02*
X63934990Y51108733I230000J0D01*
G01*
X64624990Y51108733D01*
G75*
G02*
X64854990Y50878733I0J-230000D01*
G01*
X64854990Y49538733D01*
G75*
G02*
X64624990Y49308733I-230000J0D01*
G01*
G37*
G36*
G01*
X67525010Y49308733D02*
X66835010Y49308733D01*
G75*
G02*
X66605010Y49538733I0J230000D01*
G01*
X66605010Y50878733D01*
G75*
G02*
X66835010Y51108733I230000J0D01*
G01*
X67525010Y51108733D01*
G75*
G02*
X67755010Y50878733I0J-230000D01*
G01*
X67755010Y49538733D01*
G75*
G02*
X67525010Y49308733I-230000J0D01*
G01*
G37*
G04 #@! TD*
G04 #@! TO.C,D2*
G36*
G01*
X89860000Y55028733D02*
X89860000Y56048733D01*
G75*
G02*
X89950000Y56138733I90000J0D01*
G01*
X90670000Y56138733D01*
G75*
G02*
X90760000Y56048733I0J-90000D01*
G01*
X90760000Y55028733D01*
G75*
G02*
X90670000Y54938733I-90000J0D01*
G01*
X89950000Y54938733D01*
G75*
G02*
X89860000Y55028733I0J90000D01*
G01*
G37*
G36*
G01*
X93160000Y55028733D02*
X93160000Y56048733D01*
G75*
G02*
X93250000Y56138733I90000J0D01*
G01*
X93970000Y56138733D01*
G75*
G02*
X94060000Y56048733I0J-90000D01*
G01*
X94060000Y55028733D01*
G75*
G02*
X93970000Y54938733I-90000J0D01*
G01*
X93250000Y54938733D01*
G75*
G02*
X93160000Y55028733I0J90000D01*
G01*
G37*
G04 #@! TD*
G04 #@! TO.C,D1*
G36*
G01*
X89860000Y58148733D02*
X89860000Y59168733D01*
G75*
G02*
X89950000Y59258733I90000J0D01*
G01*
X90670000Y59258733D01*
G75*
G02*
X90760000Y59168733I0J-90000D01*
G01*
X90760000Y58148733D01*
G75*
G02*
X90670000Y58058733I-90000J0D01*
G01*
X89950000Y58058733D01*
G75*
G02*
X89860000Y58148733I0J90000D01*
G01*
G37*
G36*
G01*
X93160000Y58148733D02*
X93160000Y59168733D01*
G75*
G02*
X93250000Y59258733I90000J0D01*
G01*
X93970000Y59258733D01*
G75*
G02*
X94060000Y59168733I0J-90000D01*
G01*
X94060000Y58148733D01*
G75*
G02*
X93970000Y58058733I-90000J0D01*
G01*
X93250000Y58058733D01*
G75*
G02*
X93160000Y58148733I0J90000D01*
G01*
G37*
G04 #@! TD*
G04 #@! TO.C,C5*
G36*
G01*
X37450000Y30928807D02*
X37450000Y31608807D01*
G75*
G02*
X37535000Y31693807I85000J0D01*
G01*
X38215000Y31693807D01*
G75*
G02*
X38300000Y31608807I0J-85000D01*
G01*
X38300000Y30928807D01*
G75*
G02*
X38215000Y30843807I-85000J0D01*
G01*
X37535000Y30843807D01*
G75*
G02*
X37450000Y30928807I0J85000D01*
G01*
G37*
G36*
G01*
X39030002Y30928807D02*
X39030002Y31608807D01*
G75*
G02*
X39115002Y31693807I85000J0D01*
G01*
X39795002Y31693807D01*
G75*
G02*
X39880002Y31608807I0J-85000D01*
G01*
X39880002Y30928807D01*
G75*
G02*
X39795002Y30843807I-85000J0D01*
G01*
X39115002Y30843807D01*
G75*
G02*
X39030002Y30928807I0J85000D01*
G01*
G37*
G04 #@! TD*
G04 #@! TO.C,C4*
G36*
G01*
X37450000Y32878792D02*
X37450000Y33558792D01*
G75*
G02*
X37535000Y33643792I85000J0D01*
G01*
X38215000Y33643792D01*
G75*
G02*
X38300000Y33558792I0J-85000D01*
G01*
X38300000Y32878792D01*
G75*
G02*
X38215000Y32793792I-85000J0D01*
G01*
X37535000Y32793792D01*
G75*
G02*
X37450000Y32878792I0J85000D01*
G01*
G37*
G36*
G01*
X39030002Y32878792D02*
X39030002Y33558792D01*
G75*
G02*
X39115002Y33643792I85000J0D01*
G01*
X39795002Y33643792D01*
G75*
G02*
X39880002Y33558792I0J-85000D01*
G01*
X39880002Y32878792D01*
G75*
G02*
X39795002Y32793792I-85000J0D01*
G01*
X39115002Y32793792D01*
G75*
G02*
X39030002Y32878792I0J85000D01*
G01*
G37*
G04 #@! TD*
G04 #@! TO.C,C3*
G36*
G01*
X37450000Y34828777D02*
X37450000Y35508777D01*
G75*
G02*
X37535000Y35593777I85000J0D01*
G01*
X38215000Y35593777D01*
G75*
G02*
X38300000Y35508777I0J-85000D01*
G01*
X38300000Y34828777D01*
G75*
G02*
X38215000Y34743777I-85000J0D01*
G01*
X37535000Y34743777D01*
G75*
G02*
X37450000Y34828777I0J85000D01*
G01*
G37*
G36*
G01*
X39030002Y34828777D02*
X39030002Y35508777D01*
G75*
G02*
X39115002Y35593777I85000J0D01*
G01*
X39795002Y35593777D01*
G75*
G02*
X39880002Y35508777I0J-85000D01*
G01*
X39880002Y34828777D01*
G75*
G02*
X39795002Y34743777I-85000J0D01*
G01*
X39115002Y34743777D01*
G75*
G02*
X39030002Y34828777I0J85000D01*
G01*
G37*
G04 #@! TD*
G04 #@! TO.C,C2*
G36*
G01*
X37450000Y36778762D02*
X37450000Y37458762D01*
G75*
G02*
X37535000Y37543762I85000J0D01*
G01*
X38215000Y37543762D01*
G75*
G02*
X38300000Y37458762I0J-85000D01*
G01*
X38300000Y36778762D01*
G75*
G02*
X38215000Y36693762I-85000J0D01*
G01*
X37535000Y36693762D01*
G75*
G02*
X37450000Y36778762I0J85000D01*
G01*
G37*
G36*
G01*
X39030002Y36778762D02*
X39030002Y37458762D01*
G75*
G02*
X39115002Y37543762I85000J0D01*
G01*
X39795002Y37543762D01*
G75*
G02*
X39880002Y37458762I0J-85000D01*
G01*
X39880002Y36778762D01*
G75*
G02*
X39795002Y36693762I-85000J0D01*
G01*
X39115002Y36693762D01*
G75*
G02*
X39030002Y36778762I0J85000D01*
G01*
G37*
G04 #@! TD*
G04 #@! TO.C,C1*
G36*
G01*
X37450000Y38728747D02*
X37450000Y39408747D01*
G75*
G02*
X37535000Y39493747I85000J0D01*
G01*
X38215000Y39493747D01*
G75*
G02*
X38300000Y39408747I0J-85000D01*
G01*
X38300000Y38728747D01*
G75*
G02*
X38215000Y38643747I-85000J0D01*
G01*
X37535000Y38643747D01*
G75*
G02*
X37450000Y38728747I0J85000D01*
G01*
G37*
G36*
G01*
X39030002Y38728747D02*
X39030002Y39408747D01*
G75*
G02*
X39115002Y39493747I85000J0D01*
G01*
X39795002Y39493747D01*
G75*
G02*
X39880002Y39408747I0J-85000D01*
G01*
X39880002Y38728747D01*
G75*
G02*
X39795002Y38643747I-85000J0D01*
G01*
X39115002Y38643747D01*
G75*
G02*
X39030002Y38728747I0J85000D01*
G01*
G37*
G04 #@! TD*
G04 #@! TO.C,R23*
G36*
G01*
X78534000Y102812200D02*
X75684000Y102812200D01*
G75*
G02*
X75434000Y103062200I0J250000D01*
G01*
X75434000Y103787200D01*
G75*
G02*
X75684000Y104037200I250000J0D01*
G01*
X78534000Y104037200D01*
G75*
G02*
X78784000Y103787200I0J-250000D01*
G01*
X78784000Y103062200D01*
G75*
G02*
X78534000Y102812200I-250000J0D01*
G01*
G37*
G36*
G01*
X78534000Y108737200D02*
X75684000Y108737200D01*
G75*
G02*
X75434000Y108987200I0J250000D01*
G01*
X75434000Y109712200D01*
G75*
G02*
X75684000Y109962200I250000J0D01*
G01*
X78534000Y109962200D01*
G75*
G02*
X78784000Y109712200I0J-250000D01*
G01*
X78784000Y108987200D01*
G75*
G02*
X78534000Y108737200I-250000J0D01*
G01*
G37*
G04 #@! TD*
G04 #@! TO.C,R13*
G36*
G01*
X8310000Y31075000D02*
X9090000Y31075000D01*
G75*
G02*
X9160000Y31005000I0J-70000D01*
G01*
X9160000Y30445000D01*
G75*
G02*
X9090000Y30375000I-70000J0D01*
G01*
X8310000Y30375000D01*
G75*
G02*
X8240000Y30445000I0J70000D01*
G01*
X8240000Y31005000D01*
G75*
G02*
X8310000Y31075000I70000J0D01*
G01*
G37*
G36*
G01*
X8310000Y29475000D02*
X9090000Y29475000D01*
G75*
G02*
X9160000Y29405000I0J-70000D01*
G01*
X9160000Y28845000D01*
G75*
G02*
X9090000Y28775000I-70000J0D01*
G01*
X8310000Y28775000D01*
G75*
G02*
X8240000Y28845000I0J70000D01*
G01*
X8240000Y29405000D01*
G75*
G02*
X8310000Y29475000I70000J0D01*
G01*
G37*
G04 #@! TD*
G04 #@! TO.C,R12*
G36*
G01*
X14975000Y31425022D02*
X16225000Y31425022D01*
G75*
G02*
X16325000Y31325022I0J-100000D01*
G01*
X16325000Y30525022D01*
G75*
G02*
X16225000Y30425022I-100000J0D01*
G01*
X14975000Y30425022D01*
G75*
G02*
X14875000Y30525022I0J100000D01*
G01*
X14875000Y31325022D01*
G75*
G02*
X14975000Y31425022I100000J0D01*
G01*
G37*
G36*
G01*
X14975000Y29525000D02*
X16225000Y29525000D01*
G75*
G02*
X16325000Y29425000I0J-100000D01*
G01*
X16325000Y28625000D01*
G75*
G02*
X16225000Y28525000I-100000J0D01*
G01*
X14975000Y28525000D01*
G75*
G02*
X14875000Y28625000I0J100000D01*
G01*
X14875000Y29425000D01*
G75*
G02*
X14975000Y29525000I100000J0D01*
G01*
G37*
G04 #@! TD*
G04 #@! TO.C,R11*
G36*
G01*
X10375000Y31425001D02*
X11625000Y31425001D01*
G75*
G02*
X11725000Y31325001I0J-100000D01*
G01*
X11725000Y30525001D01*
G75*
G02*
X11625000Y30425001I-100000J0D01*
G01*
X10375000Y30425001D01*
G75*
G02*
X10275000Y30525001I0J100000D01*
G01*
X10275000Y31325001D01*
G75*
G02*
X10375000Y31425001I100000J0D01*
G01*
G37*
G36*
G01*
X10375000Y29524979D02*
X11625000Y29524979D01*
G75*
G02*
X11725000Y29424979I0J-100000D01*
G01*
X11725000Y28624979D01*
G75*
G02*
X11625000Y28524979I-100000J0D01*
G01*
X10375000Y28524979D01*
G75*
G02*
X10275000Y28624979I0J100000D01*
G01*
X10275000Y29424979D01*
G75*
G02*
X10375000Y29524979I100000J0D01*
G01*
G37*
G04 #@! TD*
G04 #@! TO.C,R10*
G36*
G01*
X12675000Y31425001D02*
X13925000Y31425001D01*
G75*
G02*
X14025000Y31325001I0J-100000D01*
G01*
X14025000Y30525001D01*
G75*
G02*
X13925000Y30425001I-100000J0D01*
G01*
X12675000Y30425001D01*
G75*
G02*
X12575000Y30525001I0J100000D01*
G01*
X12575000Y31325001D01*
G75*
G02*
X12675000Y31425001I100000J0D01*
G01*
G37*
G36*
G01*
X12675000Y29524979D02*
X13925000Y29524979D01*
G75*
G02*
X14025000Y29424979I0J-100000D01*
G01*
X14025000Y28624979D01*
G75*
G02*
X13925000Y28524979I-100000J0D01*
G01*
X12675000Y28524979D01*
G75*
G02*
X12575000Y28624979I0J100000D01*
G01*
X12575000Y29424979D01*
G75*
G02*
X12675000Y29524979I100000J0D01*
G01*
G37*
G04 #@! TD*
G04 #@! TO.C,D6*
G36*
G01*
X12336979Y85925000D02*
X12336979Y86225000D01*
G75*
G02*
X12486979Y86375000I150000J0D01*
G01*
X13661979Y86375000D01*
G75*
G02*
X13811979Y86225000I0J-150000D01*
G01*
X13811979Y85925000D01*
G75*
G02*
X13661979Y85775000I-150000J0D01*
G01*
X12486979Y85775000D01*
G75*
G02*
X12336979Y85925000I0J150000D01*
G01*
G37*
G36*
G01*
X12336979Y84025000D02*
X12336979Y84325000D01*
G75*
G02*
X12486979Y84475000I150000J0D01*
G01*
X13661979Y84475000D01*
G75*
G02*
X13811979Y84325000I0J-150000D01*
G01*
X13811979Y84025000D01*
G75*
G02*
X13661979Y83875000I-150000J0D01*
G01*
X12486979Y83875000D01*
G75*
G02*
X12336979Y84025000I0J150000D01*
G01*
G37*
G36*
G01*
X14211979Y84975000D02*
X14211979Y85275000D01*
G75*
G02*
X14361979Y85425000I150000J0D01*
G01*
X15536979Y85425000D01*
G75*
G02*
X15686979Y85275000I0J-150000D01*
G01*
X15686979Y84975000D01*
G75*
G02*
X15536979Y84825000I-150000J0D01*
G01*
X14361979Y84825000D01*
G75*
G02*
X14211979Y84975000I0J150000D01*
G01*
G37*
G04 #@! TD*
G04 #@! TO.C,D5*
G36*
G01*
X17212000Y93775000D02*
X17212000Y92475000D01*
G75*
G02*
X16962000Y92225000I-250000J0D01*
G01*
X14962000Y92225000D01*
G75*
G02*
X14712000Y92475000I0J250000D01*
G01*
X14712000Y93775000D01*
G75*
G02*
X14962000Y94025000I250000J0D01*
G01*
X16962000Y94025000D01*
G75*
G02*
X17212000Y93775000I0J-250000D01*
G01*
G37*
G36*
G01*
X13212000Y93775000D02*
X13212000Y92475000D01*
G75*
G02*
X12962000Y92225000I-250000J0D01*
G01*
X10962000Y92225000D01*
G75*
G02*
X10712000Y92475000I0J250000D01*
G01*
X10712000Y93775000D01*
G75*
G02*
X10962000Y94025000I250000J0D01*
G01*
X12962000Y94025000D01*
G75*
G02*
X13212000Y93775000I0J-250000D01*
G01*
G37*
G04 #@! TD*
G04 #@! TO.C,D4*
G36*
G01*
X11911979Y96615000D02*
X11911979Y97635000D01*
G75*
G02*
X12001979Y97725000I90000J0D01*
G01*
X12721979Y97725000D01*
G75*
G02*
X12811979Y97635000I0J-90000D01*
G01*
X12811979Y96615000D01*
G75*
G02*
X12721979Y96525000I-90000J0D01*
G01*
X12001979Y96525000D01*
G75*
G02*
X11911979Y96615000I0J90000D01*
G01*
G37*
G36*
G01*
X15211979Y96615000D02*
X15211979Y97635000D01*
G75*
G02*
X15301979Y97725000I90000J0D01*
G01*
X16021979Y97725000D01*
G75*
G02*
X16111979Y97635000I0J-90000D01*
G01*
X16111979Y96615000D01*
G75*
G02*
X16021979Y96525000I-90000J0D01*
G01*
X15301979Y96525000D01*
G75*
G02*
X15211979Y96615000I0J90000D01*
G01*
G37*
G04 #@! TD*
G04 #@! TO.C,D3*
G36*
G01*
X16062000Y95635000D02*
X16062000Y94615000D01*
G75*
G02*
X15972000Y94525000I-90000J0D01*
G01*
X15252000Y94525000D01*
G75*
G02*
X15162000Y94615000I0J90000D01*
G01*
X15162000Y95635000D01*
G75*
G02*
X15252000Y95725000I90000J0D01*
G01*
X15972000Y95725000D01*
G75*
G02*
X16062000Y95635000I0J-90000D01*
G01*
G37*
G36*
G01*
X12762000Y95635000D02*
X12762000Y94615000D01*
G75*
G02*
X12672000Y94525000I-90000J0D01*
G01*
X11952000Y94525000D01*
G75*
G02*
X11862000Y94615000I0J90000D01*
G01*
X11862000Y95635000D01*
G75*
G02*
X11952000Y95725000I90000J0D01*
G01*
X12672000Y95725000D01*
G75*
G02*
X12762000Y95635000I0J-90000D01*
G01*
G37*
G04 #@! TD*
G04 #@! TO.C,R16*
G36*
G01*
X10212000Y95790000D02*
X10212000Y95010000D01*
G75*
G02*
X10142000Y94940000I-70000J0D01*
G01*
X9582000Y94940000D01*
G75*
G02*
X9512000Y95010000I0J70000D01*
G01*
X9512000Y95790000D01*
G75*
G02*
X9582000Y95860000I70000J0D01*
G01*
X10142000Y95860000D01*
G75*
G02*
X10212000Y95790000I0J-70000D01*
G01*
G37*
G36*
G01*
X8612000Y95790000D02*
X8612000Y95010000D01*
G75*
G02*
X8542000Y94940000I-70000J0D01*
G01*
X7982000Y94940000D01*
G75*
G02*
X7912000Y95010000I0J70000D01*
G01*
X7912000Y95790000D01*
G75*
G02*
X7982000Y95860000I70000J0D01*
G01*
X8542000Y95860000D01*
G75*
G02*
X8612000Y95790000I0J-70000D01*
G01*
G37*
G04 #@! TD*
G04 #@! TO.C,R21*
G36*
G01*
X10212000Y81240000D02*
X10212000Y80460000D01*
G75*
G02*
X10142000Y80390000I-70000J0D01*
G01*
X9582000Y80390000D01*
G75*
G02*
X9512000Y80460000I0J70000D01*
G01*
X9512000Y81240000D01*
G75*
G02*
X9582000Y81310000I70000J0D01*
G01*
X10142000Y81310000D01*
G75*
G02*
X10212000Y81240000I0J-70000D01*
G01*
G37*
G36*
G01*
X8612000Y81240000D02*
X8612000Y80460000D01*
G75*
G02*
X8542000Y80390000I-70000J0D01*
G01*
X7982000Y80390000D01*
G75*
G02*
X7912000Y80460000I0J70000D01*
G01*
X7912000Y81240000D01*
G75*
G02*
X7982000Y81310000I70000J0D01*
G01*
X8542000Y81310000D01*
G75*
G02*
X8612000Y81240000I0J-70000D01*
G01*
G37*
G04 #@! TD*
G04 #@! TO.C,R20*
G36*
G01*
X10212000Y83790000D02*
X10212000Y83010000D01*
G75*
G02*
X10142000Y82940000I-70000J0D01*
G01*
X9582000Y82940000D01*
G75*
G02*
X9512000Y83010000I0J70000D01*
G01*
X9512000Y83790000D01*
G75*
G02*
X9582000Y83860000I70000J0D01*
G01*
X10142000Y83860000D01*
G75*
G02*
X10212000Y83790000I0J-70000D01*
G01*
G37*
G36*
G01*
X8612000Y83790000D02*
X8612000Y83010000D01*
G75*
G02*
X8542000Y82940000I-70000J0D01*
G01*
X7982000Y82940000D01*
G75*
G02*
X7912000Y83010000I0J70000D01*
G01*
X7912000Y83790000D01*
G75*
G02*
X7982000Y83860000I70000J0D01*
G01*
X8542000Y83860000D01*
G75*
G02*
X8612000Y83790000I0J-70000D01*
G01*
G37*
G04 #@! TD*
G04 #@! TO.C,R17*
G36*
G01*
X10212000Y93240000D02*
X10212000Y92460000D01*
G75*
G02*
X10142000Y92390000I-70000J0D01*
G01*
X9582000Y92390000D01*
G75*
G02*
X9512000Y92460000I0J70000D01*
G01*
X9512000Y93240000D01*
G75*
G02*
X9582000Y93310000I70000J0D01*
G01*
X10142000Y93310000D01*
G75*
G02*
X10212000Y93240000I0J-70000D01*
G01*
G37*
G36*
G01*
X8612000Y93240000D02*
X8612000Y92460000D01*
G75*
G02*
X8542000Y92390000I-70000J0D01*
G01*
X7982000Y92390000D01*
G75*
G02*
X7912000Y92460000I0J70000D01*
G01*
X7912000Y93240000D01*
G75*
G02*
X7982000Y93310000I70000J0D01*
G01*
X8542000Y93310000D01*
G75*
G02*
X8612000Y93240000I0J-70000D01*
G01*
G37*
G04 #@! TD*
M02*
