G04 #@! TF.GenerationSoftware,KiCad,Pcbnew,8.0.8*
G04 #@! TF.CreationDate,2025-12-14T22:00:41-05:00*
G04 #@! TF.ProjectId,hellen121vag,68656c6c-656e-4313-9231-7661672e6b69,d*
G04 #@! TF.SameCoordinates,PX2b953a0PY6943058*
G04 #@! TF.FileFunction,Copper,L4,Bot*
G04 #@! TF.FilePolarity,Positive*
%FSLAX46Y46*%
G04 Gerber Fmt 4.6, Leading zero omitted, Abs format (unit mm)*
G04 Created by KiCad (PCBNEW 8.0.8) date 2025-12-14 22:00:41*
%MOMM*%
%LPD*%
G01*
G04 APERTURE LIST*
G04 #@! TA.AperFunction,EtchedComponent*
%ADD10C,0.200000*%
G04 #@! TD*
G04 #@! TA.AperFunction,ComponentPad*
%ADD11C,2.200000*%
G04 #@! TD*
G04 #@! TA.AperFunction,ComponentPad*
%ADD12C,3.700000*%
G04 #@! TD*
G04 #@! TA.AperFunction,ComponentPad*
%ADD13C,2.600000*%
G04 #@! TD*
G04 #@! TA.AperFunction,ComponentPad*
%ADD14C,1.500000*%
G04 #@! TD*
G04 #@! TA.AperFunction,ComponentPad*
%ADD15C,1.524000*%
G04 #@! TD*
G04 #@! TA.AperFunction,ComponentPad*
%ADD16C,0.599999*%
G04 #@! TD*
G04 #@! TA.AperFunction,ComponentPad*
%ADD17C,0.600000*%
G04 #@! TD*
G04 #@! TA.AperFunction,SMDPad,CuDef*
%ADD18R,0.200000X3.700000*%
G04 #@! TD*
G04 #@! TA.AperFunction,SMDPad,CuDef*
%ADD19R,0.200000X0.400000*%
G04 #@! TD*
G04 #@! TA.AperFunction,SMDPad,CuDef*
%ADD20R,0.200000X1.600000*%
G04 #@! TD*
G04 #@! TA.AperFunction,SMDPad,CuDef*
%ADD21R,0.200000X9.700000*%
G04 #@! TD*
G04 #@! TA.AperFunction,SMDPad,CuDef*
%ADD22R,0.200000X2.300000*%
G04 #@! TD*
G04 #@! TA.AperFunction,SMDPad,CuDef*
%ADD23R,1.400000X0.200000*%
G04 #@! TD*
G04 #@! TA.AperFunction,SMDPad,CuDef*
%ADD24R,6.400000X0.200000*%
G04 #@! TD*
G04 #@! TA.AperFunction,SMDPad,CuDef*
%ADD25R,1.700000X0.200000*%
G04 #@! TD*
G04 #@! TA.AperFunction,SMDPad,CuDef*
%ADD26R,3.300000X0.200000*%
G04 #@! TD*
G04 #@! TA.AperFunction,SMDPad,CuDef*
%ADD27R,0.200000X7.000000*%
G04 #@! TD*
G04 #@! TA.AperFunction,SMDPad,CuDef*
%ADD28R,0.200000X3.300000*%
G04 #@! TD*
G04 #@! TA.AperFunction,SMDPad,CuDef*
%ADD29R,0.200000X6.300000*%
G04 #@! TD*
G04 #@! TA.AperFunction,ComponentPad*
%ADD30C,0.700000*%
G04 #@! TD*
G04 #@! TA.AperFunction,SMDPad,CuDef*
%ADD31R,0.250000X8.750000*%
G04 #@! TD*
G04 #@! TA.AperFunction,SMDPad,CuDef*
%ADD32R,0.250000X6.300000*%
G04 #@! TD*
G04 #@! TA.AperFunction,SMDPad,CuDef*
%ADD33R,0.250000X0.980000*%
G04 #@! TD*
G04 #@! TA.AperFunction,SMDPad,CuDef*
%ADD34R,27.600000X0.250000*%
G04 #@! TD*
G04 #@! TA.AperFunction,SMDPad,CuDef*
%ADD35R,0.250000X0.950000*%
G04 #@! TD*
G04 #@! TA.AperFunction,SMDPad,CuDef*
%ADD36R,0.250000X1.100000*%
G04 #@! TD*
G04 #@! TA.AperFunction,SMDPad,CuDef*
%ADD37R,0.200000X4.400000*%
G04 #@! TD*
G04 #@! TA.AperFunction,SMDPad,CuDef*
%ADD38R,1.200000X0.200000*%
G04 #@! TD*
G04 #@! TA.AperFunction,SMDPad,CuDef*
%ADD39R,6.800000X0.200000*%
G04 #@! TD*
G04 #@! TA.AperFunction,SMDPad,CuDef*
%ADD40R,4.000000X0.200000*%
G04 #@! TD*
G04 #@! TA.AperFunction,SMDPad,CuDef*
%ADD41R,1.800000X0.200000*%
G04 #@! TD*
G04 #@! TA.AperFunction,SMDPad,CuDef*
%ADD42R,0.200000X10.000000*%
G04 #@! TD*
G04 #@! TA.AperFunction,ComponentPad*
%ADD43C,1.000000*%
G04 #@! TD*
G04 #@! TA.AperFunction,SMDPad,CuDef*
%ADD44R,0.250000X6.185000*%
G04 #@! TD*
G04 #@! TA.AperFunction,SMDPad,CuDef*
%ADD45R,0.250000X1.115000*%
G04 #@! TD*
G04 #@! TA.AperFunction,SMDPad,CuDef*
%ADD46R,14.275000X0.250000*%
G04 #@! TD*
G04 #@! TA.AperFunction,SMDPad,CuDef*
%ADD47R,15.100000X0.250000*%
G04 #@! TD*
G04 #@! TA.AperFunction,SMDPad,CuDef*
%ADD48R,0.250000X5.175000*%
G04 #@! TD*
G04 #@! TA.AperFunction,SMDPad,CuDef*
%ADD49O,9.300000X0.200000*%
G04 #@! TD*
G04 #@! TA.AperFunction,SMDPad,CuDef*
%ADD50O,0.200000X1.225000*%
G04 #@! TD*
G04 #@! TA.AperFunction,SMDPad,CuDef*
%ADD51O,17.000000X0.200000*%
G04 #@! TD*
G04 #@! TA.AperFunction,SMDPad,CuDef*
%ADD52O,0.200000X1.500000*%
G04 #@! TD*
G04 #@! TA.AperFunction,SMDPad,CuDef*
%ADD53O,0.200000X0.300000*%
G04 #@! TD*
G04 #@! TA.AperFunction,SMDPad,CuDef*
%ADD54O,0.200000X3.300000*%
G04 #@! TD*
G04 #@! TA.AperFunction,SMDPad,CuDef*
%ADD55O,15.400000X0.200000*%
G04 #@! TD*
G04 #@! TA.AperFunction,SMDPad,CuDef*
%ADD56O,0.200000X2.600000*%
G04 #@! TD*
G04 #@! TA.AperFunction,SMDPad,CuDef*
%ADD57O,0.200000X4.800000*%
G04 #@! TD*
G04 #@! TA.AperFunction,SMDPad,CuDef*
%ADD58O,0.200000X1.000000*%
G04 #@! TD*
G04 #@! TA.AperFunction,SMDPad,CuDef*
%ADD59O,0.200000X10.200000*%
G04 #@! TD*
G04 #@! TA.AperFunction,ComponentPad*
%ADD60O,1.700000X1.850000*%
G04 #@! TD*
G04 #@! TA.AperFunction,ComponentPad*
%ADD61R,1.100000X1.100000*%
G04 #@! TD*
G04 #@! TA.AperFunction,ComponentPad*
%ADD62C,1.100000*%
G04 #@! TD*
G04 #@! TA.AperFunction,ComponentPad*
%ADD63O,1.100000X2.400000*%
G04 #@! TD*
G04 #@! TA.AperFunction,ViaPad*
%ADD64C,0.600000*%
G04 #@! TD*
G04 #@! TA.AperFunction,ViaPad*
%ADD65C,2.000000*%
G04 #@! TD*
G04 #@! TA.AperFunction,Conductor*
%ADD66C,0.200000*%
G04 #@! TD*
G04 #@! TA.AperFunction,Conductor*
%ADD67C,0.300000*%
G04 #@! TD*
G04 #@! TA.AperFunction,Conductor*
%ADD68C,0.400000*%
G04 #@! TD*
G04 #@! TA.AperFunction,Conductor*
%ADD69C,0.500000*%
G04 #@! TD*
G04 #@! TA.AperFunction,Conductor*
%ADD70C,0.254000*%
G04 #@! TD*
G04 #@! TA.AperFunction,Conductor*
%ADD71C,1.000000*%
G04 #@! TD*
G04 #@! TA.AperFunction,Conductor*
%ADD72C,0.600000*%
G04 #@! TD*
G04 #@! TA.AperFunction,Conductor*
%ADD73C,3.000000*%
G04 #@! TD*
G04 APERTURE END LIST*
D10*
G04 #@! TO.C,G\u002A\u002A\u002A*
X14800000Y93375000D02*
X16800000Y93375000D01*
X14800000Y85375000D02*
X14800000Y93375000D01*
X17300000Y90375000D02*
X17300000Y85375000D01*
X17300000Y85375000D02*
X14800000Y85375000D01*
X18800000Y90375000D02*
X17300000Y90375000D01*
X18800000Y90375000D02*
X18800000Y91875000D01*
X18800000Y91875000D02*
G75*
G02*
X16800000Y93375000I-78399J1978801D01*
G01*
G04 #@! TD*
D11*
G04 #@! TO.P,P2,*
G04 #@! TO.N,*
X21050000Y13175000D03*
X142850000Y13175000D03*
D12*
X145300000Y5375000D03*
X93100000Y5375000D03*
X18600000Y5375000D03*
D13*
G04 #@! TO.P,P2,1*
G04 #@! TO.N,N/C*
X25700000Y10375000D03*
G04 #@! TO.P,P2,2*
X31500000Y10375000D03*
G04 #@! TO.P,P2,3*
X28600000Y12705000D03*
G04 #@! TO.P,P2,4*
X25700000Y18505000D03*
G04 #@! TO.P,P2,5*
X31500000Y18505000D03*
D14*
G04 #@! TO.P,P2,6,6*
G04 #@! TO.N,PIN6*
X85120000Y18505000D03*
G04 #@! TO.P,P2,7,7*
G04 #@! TO.N,PIN7*
X82580000Y18505000D03*
G04 #@! TO.P,P2,8,8*
G04 #@! TO.N,PIN8*
X80040000Y18505000D03*
G04 #@! TO.P,P2,9,9*
G04 #@! TO.N,PIN9*
X77500000Y18505000D03*
G04 #@! TO.P,P2,10,10*
G04 #@! TO.N,PIN10*
X74960000Y18505000D03*
G04 #@! TO.P,P2,11,11*
G04 #@! TO.N,PIN11*
X72420000Y18505000D03*
G04 #@! TO.P,P2,12,12*
G04 #@! TO.N,PIN12*
X69880000Y18505000D03*
G04 #@! TO.P,P2,13,13*
G04 #@! TO.N,PIN13*
X67340000Y18505000D03*
G04 #@! TO.P,P2,14,14*
G04 #@! TO.N,PIN14*
X64800000Y18505000D03*
G04 #@! TO.P,P2,15,15*
G04 #@! TO.N,PIN15*
X62260000Y18505000D03*
G04 #@! TO.P,P2,16,16*
G04 #@! TO.N,PIN16*
X59720000Y18505000D03*
G04 #@! TO.P,P2,17,17*
G04 #@! TO.N,PIN17*
X57180000Y18505000D03*
G04 #@! TO.P,P2,18,18*
G04 #@! TO.N,PIN18*
X54640000Y18505000D03*
G04 #@! TO.P,P2,19,19*
G04 #@! TO.N,PIN19*
X52100000Y18505000D03*
G04 #@! TO.P,P2,20,20*
G04 #@! TO.N,PIN20*
X49560000Y18505000D03*
G04 #@! TO.P,P2,21,21*
G04 #@! TO.N,PIN21*
X47020000Y18505000D03*
G04 #@! TO.P,P2,22,22*
G04 #@! TO.N,PIN22*
X44480000Y18505000D03*
G04 #@! TO.P,P2,23,23*
G04 #@! TO.N,PIN120*
X41940000Y18505000D03*
G04 #@! TO.P,P2,24,24*
X39400000Y18505000D03*
G04 #@! TO.P,P2,25,25*
G04 #@! TO.N,PIN25*
X85120000Y15965000D03*
G04 #@! TO.P,P2,26,26*
G04 #@! TO.N,PIN26*
X82580000Y15965000D03*
G04 #@! TO.P,P2,27,27*
G04 #@! TO.N,PIN27*
X80040000Y15965000D03*
G04 #@! TO.P,P2,28,28*
G04 #@! TO.N,PIN28*
X77500000Y15965000D03*
G04 #@! TO.P,P2,29,29*
G04 #@! TO.N,PIN29*
X74960000Y15965000D03*
G04 #@! TO.P,P2,30,30*
G04 #@! TO.N,PIN30*
X72420000Y15965000D03*
G04 #@! TO.P,P2,31,31*
G04 #@! TO.N,PIN31*
X69880000Y15965000D03*
G04 #@! TO.P,P2,32,32*
G04 #@! TO.N,PIN32*
X67340000Y15965000D03*
G04 #@! TO.P,P2,33,33*
G04 #@! TO.N,PIN33*
X64800000Y15965000D03*
G04 #@! TO.P,P2,34,34*
G04 #@! TO.N,PIN34*
X62260000Y15965000D03*
G04 #@! TO.P,P2,35,35*
G04 #@! TO.N,PIN35*
X59720000Y15965000D03*
G04 #@! TO.P,P2,36,36*
G04 #@! TO.N,PIN36*
X57180000Y15965000D03*
G04 #@! TO.P,P2,37,37*
G04 #@! TO.N,PIN37*
X54640000Y15965000D03*
G04 #@! TO.P,P2,38,38*
G04 #@! TO.N,PIN38*
X52100000Y15965000D03*
G04 #@! TO.P,P2,39,39*
G04 #@! TO.N,PIN39*
X49560000Y15965000D03*
G04 #@! TO.P,P2,40,40*
G04 #@! TO.N,PIN40*
X47020000Y15965000D03*
G04 #@! TO.P,P2,41,41*
G04 #@! TO.N,PIN41*
X44480000Y15965000D03*
G04 #@! TO.P,P2,42,42*
G04 #@! TO.N,PIN42*
X41940000Y15965000D03*
G04 #@! TO.P,P2,43,43*
G04 #@! TO.N,PIN43*
X39400000Y15965000D03*
G04 #@! TO.P,P2,44,44*
G04 #@! TO.N,PIN44*
X85120000Y9915000D03*
G04 #@! TO.P,P2,45,45*
G04 #@! TO.N,PIN45*
X82580000Y9915000D03*
G04 #@! TO.P,P2,46,46*
G04 #@! TO.N,PIN46*
X80040000Y9915000D03*
G04 #@! TO.P,P2,47,47*
G04 #@! TO.N,PIN47*
X77500000Y9915000D03*
G04 #@! TO.P,P2,48,48*
G04 #@! TO.N,PIN48*
X74960000Y9915000D03*
G04 #@! TO.P,P2,49,49*
G04 #@! TO.N,PIN49*
X72420000Y9915000D03*
G04 #@! TO.P,P2,50,50*
G04 #@! TO.N,PIN50*
X69880000Y9915000D03*
G04 #@! TO.P,P2,51,51*
G04 #@! TO.N,PIN51*
X67340000Y9915000D03*
G04 #@! TO.P,P2,52,52*
G04 #@! TO.N,PIN113*
X64800000Y9915000D03*
G04 #@! TO.P,P2,53,53*
X62260000Y9915000D03*
G04 #@! TO.P,P2,54,54*
X59720000Y9915000D03*
G04 #@! TO.P,P2,55,55*
X57180000Y9915000D03*
G04 #@! TO.P,P2,56,56*
X54640000Y9915000D03*
G04 #@! TO.P,P2,57,57*
X52100000Y9915000D03*
G04 #@! TO.P,P2,58,58*
X49560000Y9915000D03*
G04 #@! TO.P,P2,59,59*
X47020000Y9915000D03*
G04 #@! TO.P,P2,60,60*
X44480000Y9915000D03*
G04 #@! TO.P,P2,61,61*
X41940000Y9915000D03*
G04 #@! TO.P,P2,62,62*
X39400000Y9915000D03*
G04 #@! TO.P,P2,63,63*
G04 #@! TO.N,PIN63*
X85120000Y7375000D03*
G04 #@! TO.P,P2,64,64*
G04 #@! TO.N,PIN113*
X82580000Y7375000D03*
G04 #@! TO.P,P2,65,65*
G04 #@! TO.N,PIN65*
X80040000Y7375000D03*
G04 #@! TO.P,P2,66,66*
G04 #@! TO.N,PIN113*
X77500000Y7375000D03*
G04 #@! TO.P,P2,67,67*
G04 #@! TO.N,PIN67*
X74960000Y7375000D03*
G04 #@! TO.P,P2,68,68*
G04 #@! TO.N,PIN113*
X72420000Y7375000D03*
G04 #@! TO.P,P2,69,69*
G04 #@! TO.N,PIN69*
X69880000Y7375000D03*
G04 #@! TO.P,P2,70,70*
G04 #@! TO.N,PIN70*
X67340000Y7375000D03*
G04 #@! TO.P,P2,71,71*
G04 #@! TO.N,PIN106*
X64800000Y7375000D03*
G04 #@! TO.P,P2,72,72*
X62260000Y7375000D03*
G04 #@! TO.P,P2,73,73*
X59720000Y7375000D03*
G04 #@! TO.P,P2,74,74*
X57180000Y7375000D03*
G04 #@! TO.P,P2,75,75*
X54640000Y7375000D03*
G04 #@! TO.P,P2,76,76*
X52100000Y7375000D03*
G04 #@! TO.P,P2,77,77*
X49560000Y7375000D03*
G04 #@! TO.P,P2,78,78*
X47020000Y7375000D03*
G04 #@! TO.P,P2,79,79*
X44480000Y7375000D03*
G04 #@! TO.P,P2,80,80*
X41940000Y7375000D03*
G04 #@! TO.P,P2,81,81*
G04 #@! TO.N,PIN81*
X39400000Y7375000D03*
G04 #@! TO.P,P2,82,82*
G04 #@! TO.N,PIN82*
X101090000Y7375000D03*
G04 #@! TO.P,P2,83,83*
G04 #@! TO.N,PIN83*
X103630000Y7375000D03*
G04 #@! TO.P,P2,84,84*
G04 #@! TO.N,PIN84*
X106170000Y7375000D03*
G04 #@! TO.P,P2,85,85*
G04 #@! TO.N,PIN85*
X108710000Y7375000D03*
G04 #@! TO.P,P2,86,86*
G04 #@! TO.N,PIN86*
X111250000Y7375000D03*
G04 #@! TO.P,P2,87,87*
G04 #@! TO.N,PIN87*
X113790000Y7375000D03*
G04 #@! TO.P,P2,88,88*
G04 #@! TO.N,PIN88*
X116330000Y7375000D03*
G04 #@! TO.P,P2,89,89*
G04 #@! TO.N,PIN89*
X118870000Y7375000D03*
G04 #@! TO.P,P2,90,90*
G04 #@! TO.N,PIN90*
X101090000Y9915000D03*
G04 #@! TO.P,P2,91,91*
G04 #@! TO.N,PIN91*
X103630000Y9915000D03*
G04 #@! TO.P,P2,92,92*
G04 #@! TO.N,PIN92*
X106170000Y9915000D03*
G04 #@! TO.P,P2,93,93*
G04 #@! TO.N,PIN93*
X108710000Y9915000D03*
G04 #@! TO.P,P2,94,94*
G04 #@! TO.N,PIN94*
X111250000Y9915000D03*
G04 #@! TO.P,P2,95,95*
G04 #@! TO.N,PIN95*
X113790000Y9915000D03*
G04 #@! TO.P,P2,96,96*
G04 #@! TO.N,PIN96*
X116330000Y9915000D03*
G04 #@! TO.P,P2,97,97*
G04 #@! TO.N,PIN97*
X118870000Y9915000D03*
G04 #@! TO.P,P2,98,98*
G04 #@! TO.N,PIN113*
X101090000Y15965000D03*
G04 #@! TO.P,P2,99,99*
X103630000Y15965000D03*
G04 #@! TO.P,P2,100,100*
G04 #@! TO.N,PIN100*
X106170000Y15965000D03*
G04 #@! TO.P,P2,101,101*
G04 #@! TO.N,PIN101*
X108710000Y15965000D03*
G04 #@! TO.P,P2,102,102*
G04 #@! TO.N,PIN102*
X111250000Y15965000D03*
G04 #@! TO.P,P2,103,103*
G04 #@! TO.N,PIN103*
X113790000Y15965000D03*
G04 #@! TO.P,P2,104,104*
G04 #@! TO.N,PIN104*
X116330000Y15965000D03*
G04 #@! TO.P,P2,105,105*
G04 #@! TO.N,PIN105*
X118870000Y15965000D03*
G04 #@! TO.P,P2,106,106*
G04 #@! TO.N,PIN106*
X101090000Y18505000D03*
G04 #@! TO.P,P2,107,107*
X103630000Y18505000D03*
G04 #@! TO.P,P2,108,108*
G04 #@! TO.N,PIN108*
X106170000Y18505000D03*
G04 #@! TO.P,P2,109,109*
G04 #@! TO.N,PIN109*
X108710000Y18505000D03*
G04 #@! TO.P,P2,110,110*
G04 #@! TO.N,PIN110*
X111250000Y18505000D03*
G04 #@! TO.P,P2,111,111*
G04 #@! TO.N,PIN111*
X113790000Y18505000D03*
G04 #@! TO.P,P2,112,112*
G04 #@! TO.N,PIN112*
X116330000Y18505000D03*
G04 #@! TO.P,P2,113,113*
G04 #@! TO.N,PIN113*
X118870000Y18505000D03*
D13*
G04 #@! TO.P,P2,114*
G04 #@! TO.N,N/C*
X126700000Y10375000D03*
G04 #@! TO.P,P2,115*
X132500000Y10375000D03*
G04 #@! TO.P,P2,116*
X138400000Y10375000D03*
G04 #@! TO.P,P2,117*
X129600000Y12705000D03*
G04 #@! TO.P,P2,118*
X135500000Y12705000D03*
G04 #@! TO.P,P2,119*
X126700000Y18505000D03*
G04 #@! TO.P,P2,120*
X132500000Y18505000D03*
G04 #@! TO.P,P2,121*
X138400000Y18505000D03*
G04 #@! TD*
D11*
G04 #@! TO.P,P1,*
G04 #@! TO.N,*
X21098000Y13292000D03*
X142898000Y13292000D03*
D12*
X145348000Y5492000D03*
X93148000Y5492000D03*
X18648000Y5492000D03*
D13*
G04 #@! TO.P,P1,1,1*
G04 #@! TO.N,PIN1*
X25748000Y10492000D03*
G04 #@! TO.P,P1,2,2*
G04 #@! TO.N,PIN2*
X31548000Y10492000D03*
G04 #@! TO.P,P1,3,3*
G04 #@! TO.N,PIN114*
X28648000Y12822000D03*
G04 #@! TO.P,P1,4,4*
G04 #@! TO.N,PIN4*
X25748000Y18622000D03*
G04 #@! TO.P,P1,5,5*
G04 #@! TO.N,PIN5*
X31548000Y18622000D03*
D14*
G04 #@! TO.P,P1,6*
G04 #@! TO.N,N/C*
X85168000Y18622000D03*
G04 #@! TO.P,P1,7*
X82628000Y18622000D03*
G04 #@! TO.P,P1,8*
X80088000Y18622000D03*
G04 #@! TO.P,P1,9*
X77548000Y18622000D03*
G04 #@! TO.P,P1,10*
X75008000Y18622000D03*
G04 #@! TO.P,P1,11*
X72468000Y18622000D03*
G04 #@! TO.P,P1,12*
X69928000Y18622000D03*
G04 #@! TO.P,P1,13*
X67388000Y18622000D03*
G04 #@! TO.P,P1,14*
X64848000Y18622000D03*
G04 #@! TO.P,P1,15*
X62308000Y18622000D03*
G04 #@! TO.P,P1,16*
X59768000Y18622000D03*
G04 #@! TO.P,P1,17*
X57228000Y18622000D03*
G04 #@! TO.P,P1,18*
X54688000Y18622000D03*
G04 #@! TO.P,P1,19*
X52148000Y18622000D03*
G04 #@! TO.P,P1,20*
X49608000Y18622000D03*
G04 #@! TO.P,P1,21*
X47068000Y18622000D03*
G04 #@! TO.P,P1,22*
X44528000Y18622000D03*
G04 #@! TO.P,P1,23*
X41988000Y18622000D03*
G04 #@! TO.P,P1,24*
X39448000Y18622000D03*
G04 #@! TO.P,P1,25*
X85168000Y16082000D03*
G04 #@! TO.P,P1,26*
X82628000Y16082000D03*
G04 #@! TO.P,P1,27*
X80088000Y16082000D03*
G04 #@! TO.P,P1,28*
X77548000Y16082000D03*
G04 #@! TO.P,P1,29*
X75008000Y16082000D03*
G04 #@! TO.P,P1,30*
X72468000Y16082000D03*
G04 #@! TO.P,P1,31*
X69928000Y16082000D03*
G04 #@! TO.P,P1,32*
X67388000Y16082000D03*
G04 #@! TO.P,P1,33*
X64848000Y16082000D03*
G04 #@! TO.P,P1,34*
X62308000Y16082000D03*
G04 #@! TO.P,P1,35*
X59768000Y16082000D03*
G04 #@! TO.P,P1,36*
X57228000Y16082000D03*
G04 #@! TO.P,P1,37*
X54688000Y16082000D03*
G04 #@! TO.P,P1,38*
X52148000Y16082000D03*
G04 #@! TO.P,P1,39*
X49608000Y16082000D03*
G04 #@! TO.P,P1,40*
X47068000Y16082000D03*
G04 #@! TO.P,P1,41*
X44528000Y16082000D03*
G04 #@! TO.P,P1,42*
X41988000Y16082000D03*
G04 #@! TO.P,P1,43*
X39448000Y16082000D03*
G04 #@! TO.P,P1,44*
X85168000Y10032000D03*
G04 #@! TO.P,P1,45*
X82628000Y10032000D03*
G04 #@! TO.P,P1,46*
X80088000Y10032000D03*
G04 #@! TO.P,P1,47*
X77548000Y10032000D03*
G04 #@! TO.P,P1,48*
X75008000Y10032000D03*
G04 #@! TO.P,P1,49*
X72468000Y10032000D03*
G04 #@! TO.P,P1,50*
X69928000Y10032000D03*
G04 #@! TO.P,P1,51*
X67388000Y10032000D03*
G04 #@! TO.P,P1,52*
X64848000Y10032000D03*
G04 #@! TO.P,P1,53*
X62308000Y10032000D03*
G04 #@! TO.P,P1,54*
X59768000Y10032000D03*
G04 #@! TO.P,P1,55*
X57228000Y10032000D03*
G04 #@! TO.P,P1,56*
X54688000Y10032000D03*
G04 #@! TO.P,P1,57*
X52148000Y10032000D03*
G04 #@! TO.P,P1,58*
X49608000Y10032000D03*
G04 #@! TO.P,P1,59*
X47068000Y10032000D03*
G04 #@! TO.P,P1,60*
X44528000Y10032000D03*
G04 #@! TO.P,P1,61*
X41988000Y10032000D03*
G04 #@! TO.P,P1,62*
X39448000Y10032000D03*
G04 #@! TO.P,P1,63*
X85168000Y7492000D03*
G04 #@! TO.P,P1,64*
X82628000Y7492000D03*
G04 #@! TO.P,P1,65*
X80088000Y7492000D03*
G04 #@! TO.P,P1,66*
X77548000Y7492000D03*
G04 #@! TO.P,P1,67*
X75008000Y7492000D03*
G04 #@! TO.P,P1,68*
X72468000Y7492000D03*
G04 #@! TO.P,P1,69*
X69928000Y7492000D03*
G04 #@! TO.P,P1,70*
X67388000Y7492000D03*
G04 #@! TO.P,P1,71*
X64848000Y7492000D03*
G04 #@! TO.P,P1,72*
X62308000Y7492000D03*
G04 #@! TO.P,P1,73*
X59768000Y7492000D03*
G04 #@! TO.P,P1,74*
X57228000Y7492000D03*
G04 #@! TO.P,P1,75*
X54688000Y7492000D03*
G04 #@! TO.P,P1,76*
X52148000Y7492000D03*
G04 #@! TO.P,P1,77*
X49608000Y7492000D03*
G04 #@! TO.P,P1,78*
X47068000Y7492000D03*
G04 #@! TO.P,P1,79*
X44528000Y7492000D03*
G04 #@! TO.P,P1,80*
X41988000Y7492000D03*
G04 #@! TO.P,P1,81*
X39448000Y7492000D03*
G04 #@! TO.P,P1,82*
X101138000Y7492000D03*
G04 #@! TO.P,P1,83*
X103678000Y7492000D03*
G04 #@! TO.P,P1,84*
X106218000Y7492000D03*
G04 #@! TO.P,P1,85*
X108758000Y7492000D03*
G04 #@! TO.P,P1,86*
X111298000Y7492000D03*
G04 #@! TO.P,P1,87*
X113838000Y7492000D03*
G04 #@! TO.P,P1,88*
X116378000Y7492000D03*
G04 #@! TO.P,P1,89*
X118918000Y7492000D03*
G04 #@! TO.P,P1,90*
X101138000Y10032000D03*
G04 #@! TO.P,P1,91*
X103678000Y10032000D03*
G04 #@! TO.P,P1,92*
X106218000Y10032000D03*
G04 #@! TO.P,P1,93*
X108758000Y10032000D03*
G04 #@! TO.P,P1,94*
X111298000Y10032000D03*
G04 #@! TO.P,P1,95*
X113838000Y10032000D03*
G04 #@! TO.P,P1,96*
X116378000Y10032000D03*
G04 #@! TO.P,P1,97*
X118918000Y10032000D03*
G04 #@! TO.P,P1,98*
X101138000Y16082000D03*
G04 #@! TO.P,P1,99*
X103678000Y16082000D03*
G04 #@! TO.P,P1,100*
X106218000Y16082000D03*
G04 #@! TO.P,P1,101*
X108758000Y16082000D03*
G04 #@! TO.P,P1,102*
X111298000Y16082000D03*
G04 #@! TO.P,P1,103*
X113838000Y16082000D03*
G04 #@! TO.P,P1,104*
X116378000Y16082000D03*
G04 #@! TO.P,P1,105*
X118918000Y16082000D03*
G04 #@! TO.P,P1,106*
X101138000Y18622000D03*
G04 #@! TO.P,P1,107*
X103678000Y18622000D03*
G04 #@! TO.P,P1,108*
X106218000Y18622000D03*
G04 #@! TO.P,P1,109*
X108758000Y18622000D03*
G04 #@! TO.P,P1,110*
X111298000Y18622000D03*
G04 #@! TO.P,P1,111*
X113838000Y18622000D03*
G04 #@! TO.P,P1,112*
X116378000Y18622000D03*
G04 #@! TO.P,P1,113*
X118918000Y18622000D03*
D13*
G04 #@! TO.P,P1,114,114*
G04 #@! TO.N,PIN114*
X126748000Y10492000D03*
G04 #@! TO.P,P1,115,115*
X132548000Y10492000D03*
G04 #@! TO.P,P1,116,116*
G04 #@! TO.N,PIN116*
X138448000Y10492000D03*
G04 #@! TO.P,P1,117,117*
G04 #@! TO.N,PIN117*
X129648000Y12822000D03*
G04 #@! TO.P,P1,118,118*
G04 #@! TO.N,PIN118*
X135548000Y12822000D03*
G04 #@! TO.P,P1,119,119*
G04 #@! TO.N,PIN119*
X126748000Y18622000D03*
G04 #@! TO.P,P1,120,120*
G04 #@! TO.N,PIN120*
X132548000Y18622000D03*
G04 #@! TO.P,P1,121,121*
G04 #@! TO.N,PIN121*
X138448000Y18622000D03*
G04 #@! TD*
D15*
G04 #@! TO.P,R4,1,1*
G04 #@! TO.N,Net-(M1-PG_5VP)*
X88675391Y47293342D03*
G04 #@! TO.P,R4,2,2*
G04 #@! TO.N,/PG_5VP*
X92485391Y47293342D03*
G04 #@! TD*
D16*
G04 #@! TO.P,M8,V1,V5*
G04 #@! TO.N,+5VA*
X45399997Y45557058D03*
G04 #@! TO.P,M8,V2,CAN_VIO*
G04 #@! TO.N,+3.3VA*
X44524995Y46082058D03*
G04 #@! TO.P,M8,V5,CAN_TX*
G04 #@! TO.N,E7INJ8CANTX*
X45699999Y46832056D03*
G04 #@! TO.P,M8,V6,CAN_RX*
G04 #@! TO.N,E6INJ7CANRX*
X45624996Y50382057D03*
G04 #@! TD*
D17*
G04 #@! TO.P,M7,E1,V5A_SWITCHABLE*
G04 #@! TO.N,+5VA*
X71400000Y74668723D03*
G04 #@! TO.P,M7,E2,GNDA*
G04 #@! TO.N,unconnected-(M7-GNDA-PadE2)*
X71400010Y78968723D03*
G04 #@! TO.P,M7,E3,I2C_SCL_(PB10)*
G04 #@! TO.N,unconnected-(M7-I2C_SCL_(PB10)-PadE3)*
X71400010Y79768713D03*
G04 #@! TO.P,M7,E4,I2C_SDA_(PB11)*
G04 #@! TO.N,unconnected-(M7-I2C_SDA_(PB11)-PadE4)*
X71400010Y80568723D03*
G04 #@! TO.P,M7,E5,IN_VIGN_(PA5)*
G04 #@! TO.N,/VIGN*
X71400010Y81368723D03*
G04 #@! TO.P,M7,E6,SPI2_CS_/_CAN2_RX_(PB12)*
G04 #@! TO.N,E6INJ7CANRX*
X71400010Y82168723D03*
G04 #@! TO.P,M7,E7,SPI2_SCK_/_CAN2_TX_(PB13)*
G04 #@! TO.N,E7INJ8CANTX*
X71400010Y82968723D03*
G04 #@! TO.P,M7,E8,SPI2_MISO_(PB14)*
G04 #@! TO.N,DC1_DIS_W1*
X71400010Y83768723D03*
G04 #@! TO.P,M7,E9,SPI2_MOSI_(PB15)*
G04 #@! TO.N,/DC2_DIR*
X71400010Y84568723D03*
G04 #@! TO.P,M7,E10,OUT_INJ8_(PD12)*
G04 #@! TO.N,/LS2*
X71400010Y85368723D03*
G04 #@! TO.P,M7,E11,OUT_INJ7_(PD15)*
G04 #@! TO.N,/LS1*
X71400010Y86168723D03*
G04 #@! TO.P,M7,E12,OUT_INJ6_(PA8)*
G04 #@! TO.N,/INJ6*
X71400010Y86968723D03*
G04 #@! TO.P,M7,E13,OUT_INJ5_(PD2)*
G04 #@! TO.N,/INJ5*
X71400010Y87768723D03*
G04 #@! TO.P,M7,E14,OUT_INJ4_(PD10)*
G04 #@! TO.N,/INJ4*
X71400010Y88568723D03*
G04 #@! TO.P,M7,E15,OUT_INJ3_(PD11)*
G04 #@! TO.N,/INJ3*
X71400010Y89368723D03*
G04 #@! TO.P,M7,E16,OUT_INJ2_(PA9)*
G04 #@! TO.N,/INJ2*
X71400000Y90168713D03*
G04 #@! TO.P,M7,E17,OUT_INJ1_(PD3)*
G04 #@! TO.N,/INJ1*
X71400010Y90968723D03*
G04 #@! TO.P,M7,E18,OUT_PWM1_(PD13)*
G04 #@! TO.N,/LS3*
X71400010Y92368723D03*
G04 #@! TO.P,M7,E19,OUT_PWM2_(PC6)*
G04 #@! TO.N,/LS4*
X71400010Y93168713D03*
G04 #@! TO.P,M7,E20,OUT_PWM3_(PC7)*
G04 #@! TO.N,/DC1_PWM*
X71400010Y93968713D03*
G04 #@! TO.P,M7,E21,OUT_PWM4_(PC8)*
G04 #@! TO.N,/DC1_DIR*
X71400010Y94768713D03*
G04 #@! TO.P,M7,E22,OUT_PWM5_(PC9)*
G04 #@! TO.N,/DC2_PWM*
X71400010Y95568713D03*
G04 #@! TO.P,M7,E23,OUT_PWM6_(PD14)*
G04 #@! TO.N,/VR_DISCRETE_THR*
X71400010Y96368723D03*
D18*
G04 #@! TO.P,M7,G,GND*
G04 #@! TO.N,PIN114*
X37800000Y101218713D03*
D19*
X37800000Y98168723D03*
D18*
X37800000Y95118713D03*
D20*
X37800000Y90668723D03*
D21*
X37800000Y77018723D03*
D22*
X37800000Y69018723D03*
D23*
X39600010Y67968713D03*
D24*
X41700000Y103768713D03*
D25*
X47750000Y103768713D03*
D26*
X51250000Y103768713D03*
D23*
X61000000Y103768713D03*
D24*
X68500000Y67968713D03*
D27*
X71600010Y100368733D03*
D19*
X71600010Y91668713D03*
D28*
X71600010Y76818713D03*
D29*
X71600010Y71018713D03*
D17*
G04 #@! TO.P,M7,N1,VBUS*
G04 #@! TO.N,/VBUS*
X71000010Y103568723D03*
G04 #@! TO.P,M7,N2,USBM_(PA11)*
G04 #@! TO.N,/USB-*
X70200010Y103568723D03*
G04 #@! TO.P,M7,N3,USBP_(PA12)*
G04 #@! TO.N,/USB+*
X69400010Y103568723D03*
G04 #@! TO.P,M7,N4,USBID_(PA10)*
G04 #@! TO.N,/DC2_DIS*
X68600000Y103568723D03*
G04 #@! TO.P,M7,N5,SWDIO_(PA13)*
G04 #@! TO.N,unconnected-(M7-SWDIO_(PA13)-PadN5)*
X67800010Y103568723D03*
G04 #@! TO.P,M7,N6,SWCLK_(PA14)*
G04 #@! TO.N,unconnected-(M7-SWCLK_(PA14)-PadN6)*
X67000010Y103568723D03*
G04 #@! TO.P,M7,N7,nReset*
G04 #@! TO.N,unconnected-(M7-nReset-PadN7)*
X66200010Y103568723D03*
G04 #@! TO.P,M7,N8,SWO_(PB3)*
G04 #@! TO.N,unconnected-(M7-SWO_(PB3)-PadN8)*
X65400000Y103568723D03*
G04 #@! TO.P,M7,N9,SPI3_CS_(PA15)*
G04 #@! TO.N,/EGT/SPI_CS*
X64600010Y103568713D03*
G04 #@! TO.P,M7,N10,SPI3_SCK_(PC10)*
G04 #@! TO.N,/SCK3*
X63800010Y103568713D03*
G04 #@! TO.P,M7,N11,SPI3_MISO_(PC11)*
G04 #@! TO.N,/MISO3*
X63000010Y103568713D03*
G04 #@! TO.P,M7,N12,SPI3_MOSI_(PC12)*
G04 #@! TO.N,/PG_5VP*
X62200010Y103568713D03*
G04 #@! TO.P,M7,N13,UART2_TX_(PD5)*
G04 #@! TO.N,PIN7*
X59800000Y103568713D03*
G04 #@! TO.P,M7,N14,UART2_RX_(PD6)*
G04 #@! TO.N,PIN6*
X59000000Y103568713D03*
G04 #@! TO.P,M7,N14a,LED_GREEN*
G04 #@! TO.N,Net-(M7-LED_GREEN)*
X58200010Y103568723D03*
G04 #@! TO.P,M7,N14b,LED_YELLOW*
G04 #@! TO.N,unconnected-(M7-LED_YELLOW-PadN14b)*
X57400000Y103568723D03*
G04 #@! TO.P,M7,N15,V33_SWITCHABLE*
G04 #@! TO.N,+3.3VA*
X56600000Y103568723D03*
G04 #@! TO.P,M7,N16,BOOT0*
G04 #@! TO.N,unconnected-(M7-BOOT0-PadN16)*
X55800000Y103568723D03*
G04 #@! TO.P,M7,N17,VBAT*
G04 #@! TO.N,/VBAT*
X55000000Y103568723D03*
G04 #@! TO.P,M7,N18,UART8_RX_(PE0)*
G04 #@! TO.N,/VR_DISCRETE*
X54200000Y103568713D03*
G04 #@! TO.P,M7,N19,UART8_TX_(PE1)*
G04 #@! TO.N,/VR_MAX9924*
X53400000Y103568713D03*
G04 #@! TO.P,M7,N20,OUT_PWR_EN_(PE10)*
G04 #@! TO.N,/PWR_EN*
X49100000Y103568713D03*
G04 #@! TO.P,M7,N21,V33*
G04 #@! TO.N,+3.3V*
X46400000Y103568713D03*
G04 #@! TO.P,M7,N22,VCC*
G04 #@! TO.N,+5V*
X45400010Y103568713D03*
G04 #@! TO.P,M7,N23,V33*
G04 #@! TO.N,unconnected-(M7-V33-PadN23)*
X38000000Y103568713D03*
G04 #@! TO.P,M7,S1,IN_D4_(PE15)*
G04 #@! TO.N,PIN89*
X64800020Y68168713D03*
G04 #@! TO.P,M7,S2,IN_D3_(PE14)*
G04 #@! TO.N,PIN34*
X63600010Y68168713D03*
G04 #@! TO.P,M7,S3,IN_D2_(PE13)*
G04 #@! TO.N,PIN35*
X62400010Y68168713D03*
G04 #@! TO.P,M7,S4,IN_D1_(PE12)*
G04 #@! TO.N,PIN36*
X61200010Y68168713D03*
G04 #@! TO.P,M7,S5,VREF2*
G04 #@! TO.N,unconnected-(M7-VREF2-PadS5)*
X60000010Y68168713D03*
G04 #@! TO.P,M7,S6,IN_AUX4_(PC5)*
G04 #@! TO.N,/IN_VMAIN*
X58800010Y68168713D03*
G04 #@! TO.P,M7,S7,IN_AUX3_(PA7)*
G04 #@! TO.N,/IN_AUX3*
X57600010Y68168713D03*
G04 #@! TO.P,M7,S8,IN_AUX2_(PC4/PE9)*
G04 #@! TO.N,PIN91*
X56400010Y68168713D03*
G04 #@! TO.P,M7,S9,IN_AUX1_(PB0)*
G04 #@! TO.N,PIN39*
X55200010Y68168713D03*
G04 #@! TO.P,M7,S10,IN_O2S2_(PA1)*
G04 #@! TO.N,PIN41*
X54000010Y68168713D03*
G04 #@! TO.P,M7,S11,IN_O2S_/_CAN_WAKEUP_(PA0)*
G04 #@! TO.N,PIN40*
X52800010Y68168713D03*
G04 #@! TO.P,M7,S12,IN_MAP2_(PC1)*
G04 #@! TO.N,/INTERNAL_MAP*
X51600010Y68168713D03*
G04 #@! TO.P,M7,S13,IN_MAP1_(PC0)*
G04 #@! TO.N,PIN37*
X50400010Y68168713D03*
G04 #@! TO.P,M7,S14,IN_CRANK_(PB1)*
G04 #@! TO.N,PIN84*
X49200010Y68168713D03*
G04 #@! TO.P,M7,S15,IN_KNOCK_(PA2)*
G04 #@! TO.N,/ADC3*
X48000010Y68168713D03*
G04 #@! TO.P,M7,S16,IN_CAM_(PA6)*
G04 #@! TO.N,PIN85*
X46800010Y68168713D03*
G04 #@! TO.P,M7,S17,IN_VSS_(PE11)*
G04 #@! TO.N,PIN42*
X45600010Y68168713D03*
G04 #@! TO.P,M7,S18,IN_TPS_(PA4)*
G04 #@! TO.N,PIN38*
X44400000Y68168713D03*
G04 #@! TO.P,M7,S19,IN_PPS_(PA3)*
G04 #@! TO.N,PIN90*
X43200000Y68168713D03*
G04 #@! TO.P,M7,S20,IN_IAT_(PC3)*
G04 #@! TO.N,PIN63*
X42000000Y68168713D03*
G04 #@! TO.P,M7,S21,IN_CLT_(PC2)*
G04 #@! TO.N,PIN65*
X40800000Y68168713D03*
G04 #@! TO.P,M7,S22,VREF1*
G04 #@! TO.N,/VREF1*
X38400000Y68168713D03*
G04 #@! TO.P,M7,W1,GNDA*
G04 #@! TO.N,PIN113*
X38000000Y70668723D03*
G04 #@! TO.P,M7,W2,V5A_SWITCHABLE*
G04 #@! TO.N,+5VA*
X38000000Y71668723D03*
G04 #@! TO.P,M7,W3,IGN8_(PE6)*
G04 #@! TO.N,/LS_HOT2*
X38000000Y82368713D03*
G04 #@! TO.P,M7,W4,IGN7_(PB9)*
G04 #@! TO.N,/LS_HOT1*
X38000000Y83368723D03*
G04 #@! TO.P,M7,W5,IGN6_(PB8)*
G04 #@! TO.N,/IGN6*
X38000000Y84368713D03*
G04 #@! TO.P,M7,W6,IGN5_(PE2)*
G04 #@! TO.N,/IGN5*
X38000000Y85368713D03*
G04 #@! TO.P,M7,W7,IGN4_(PE3)*
G04 #@! TO.N,/IGN4*
X38000000Y86368713D03*
G04 #@! TO.P,M7,W8,IGN3_(PE4)*
G04 #@! TO.N,/IGN3*
X38000000Y87368713D03*
G04 #@! TO.P,M7,W9,IGN2_(PE5)*
G04 #@! TO.N,/IGN2*
X38000000Y88368713D03*
G04 #@! TO.P,M7,W10,IGN1_(PC13)*
G04 #@! TO.N,/IGN1*
X38000000Y89368713D03*
G04 #@! TO.P,M7,W11,CANH*
G04 #@! TO.N,PIN82*
X38000000Y91968713D03*
G04 #@! TO.P,M7,W12,CANL*
G04 #@! TO.N,PIN83*
X38000000Y92768713D03*
G04 #@! TO.P,M7,W13,V33_REF*
G04 #@! TO.N,unconnected-(M7-V33_REF-PadW13)*
X38000000Y97468723D03*
G04 #@! TO.P,M7,W14,V5A_SWITCHABLE*
G04 #@! TO.N,unconnected-(M7-V5A_SWITCHABLE-PadW14)*
X38000000Y98868713D03*
G04 #@! TD*
D30*
G04 #@! TO.P,M6,E1,LSU_Un*
G04 #@! TO.N,PIN105*
X64850000Y54168733D03*
G04 #@! TO.P,M6,E2,LSU_Vm*
G04 #@! TO.N,PIN104*
X64850000Y57168733D03*
G04 #@! TO.P,M6,E3,LSU_Ip*
G04 #@! TO.N,PIN103*
X64850000Y56168733D03*
G04 #@! TO.P,M6,E4,LSU_Rtrim*
G04 #@! TO.N,PIN102*
X64850000Y55168733D03*
D31*
G04 #@! TO.P,M6,G,GND*
G04 #@! TO.N,PIN114*
X65225000Y62193733D03*
D32*
X37875000Y55718733D03*
D33*
X37875000Y61678733D03*
D34*
X51550000Y52693733D03*
D35*
X65225000Y53043733D03*
D36*
X37875000Y66018733D03*
D34*
X51550000Y66443733D03*
D30*
G04 #@! TO.P,M6,W1,V5_IN*
G04 #@! TO.N,+5VA*
X38258800Y63818733D03*
G04 #@! TO.P,M6,W2,CAN_VIO*
G04 #@! TO.N,unconnected-(M6-CAN_VIO-PadW2)*
X38258800Y62818733D03*
G04 #@! TO.P,M6,W3,CANL*
G04 #@! TO.N,PIN83*
X38258800Y59522733D03*
G04 #@! TO.P,M6,W4,CANH*
G04 #@! TO.N,PIN82*
X38258800Y60538733D03*
G04 #@! TO.P,M6,W9,VDDA*
G04 #@! TO.N,unconnected-(M6-VDDA-PadW9)*
X38258800Y64818733D03*
G04 #@! TD*
D37*
G04 #@! TO.P,M5,G,GND*
G04 #@! TO.N,PIN114*
X73050000Y44968733D03*
D38*
X73550000Y42868733D03*
D39*
X77950000Y52668733D03*
X80150000Y42868733D03*
D40*
X84750000Y52668733D03*
D41*
X85850000Y42868733D03*
D42*
X86650000Y47768733D03*
D17*
G04 #@! TO.P,M5,N1,MOSI*
G04 #@! TO.N,unconnected-(M5-MOSI-PadN1)*
X74050000Y52468733D03*
D43*
G04 #@! TO.P,M5,N2,12V_IN*
G04 #@! TO.N,Net-(F3-Pad2)*
X82050000Y52268733D03*
G04 #@! TO.P,M5,S1,12V_IN*
X74850000Y43268733D03*
G04 #@! TO.P,M5,S2,OUT-*
G04 #@! TO.N,PIN2*
X76050000Y43268733D03*
G04 #@! TO.P,M5,S3,OUT+*
G04 #@! TO.N,PIN1*
X84250000Y43268733D03*
D17*
G04 #@! TO.P,M5,W1,DIS*
G04 #@! TO.N,DC1_DIS_W1*
X73250000Y52468733D03*
G04 #@! TO.P,M5,W2,PWM*
G04 #@! TO.N,/DC1_PWM*
X73250000Y51668733D03*
G04 #@! TO.P,M5,W3,SCLK*
G04 #@! TO.N,unconnected-(M5-SCLK-PadW3)*
X73250000Y50868733D03*
G04 #@! TO.P,M5,W4,DIR*
G04 #@! TO.N,/DC1_DIR*
X73250000Y50068733D03*
G04 #@! TO.P,M5,W5,3V3_IN*
G04 #@! TO.N,+3.3V*
X73250000Y49268733D03*
G04 #@! TO.P,M5,W6,MISO*
G04 #@! TO.N,unconnected-(M5-MISO-PadW6)*
X73250000Y48468733D03*
G04 #@! TO.P,M5,W7,~CS*
G04 #@! TO.N,unconnected-(M5-~CS-PadW7)*
X73250000Y47668733D03*
G04 #@! TD*
G04 #@! TO.P,M4,E1,NC*
G04 #@! TO.N,unconnected-(M4-NC-PadE1)*
X87750000Y89918733D03*
G04 #@! TO.P,M4,E2,NC*
G04 #@! TO.N,unconnected-(M4-NC-PadE2)*
X87750000Y88718733D03*
G04 #@! TO.P,M4,E3,OUT*
G04 #@! TO.N,/VR_MAX9924*
X87750000Y91118733D03*
G04 #@! TO.P,M4,E4,V5_IN*
G04 #@! TO.N,+5VA*
X87750000Y92318733D03*
D44*
G04 #@! TO.P,M4,G,GND*
G04 #@! TO.N,PIN114*
X73100000Y89651233D03*
D45*
X73100000Y83601233D03*
D46*
X80112500Y92618733D03*
D47*
X80525000Y83168733D03*
D48*
X87950000Y85631233D03*
D17*
G04 #@! TO.P,M4,W1,VR-*
G04 #@! TO.N,PIN20*
X73325000Y85858733D03*
G04 #@! TO.P,M4,W2,VR+*
G04 #@! TO.N,PIN19*
X73325000Y84858733D03*
G04 #@! TD*
G04 #@! TO.P,M3,E1,Thresh_IN*
G04 #@! TO.N,/VR_DISCRETE_THR*
X87750000Y100968733D03*
G04 #@! TO.P,M3,E2,OUT_A*
G04 #@! TO.N,/VR_DISCRETE_A*
X87750000Y99768733D03*
G04 #@! TO.P,M3,E3,OUT*
G04 #@! TO.N,/VR_DISCRETE*
X87750000Y102168733D03*
G04 #@! TO.P,M3,E4,V5_IN*
G04 #@! TO.N,+5VA*
X87750000Y103368733D03*
D44*
G04 #@! TO.P,M3,G,GND*
G04 #@! TO.N,PIN114*
X73100000Y100701233D03*
D45*
X73100000Y94651233D03*
D46*
X80112500Y103668733D03*
D47*
X80525000Y94218733D03*
D48*
X87950000Y96681233D03*
D17*
G04 #@! TO.P,M3,W1,VR-*
G04 #@! TO.N,PIN18*
X73325000Y96908733D03*
G04 #@! TO.P,M3,W2,VR+*
G04 #@! TO.N,PIN17*
X73325000Y95908733D03*
G04 #@! TD*
G04 #@! TO.P,M2,E1,V5A*
G04 #@! TO.N,+5VA*
X97000000Y52068730D03*
D49*
G04 #@! TO.P,M2,E2,GND*
G04 #@! TO.N,PIN114*
X92650000Y49568730D03*
D17*
X97000000Y51118730D03*
D50*
X88100000Y50093730D03*
D49*
X92650000Y52668730D03*
D17*
G04 #@! TO.P,M2,E3,OUT_KNOCK*
G04 #@! TO.N,/IN_KNOCK*
X97000000Y50168732D03*
G04 #@! TO.P,M2,W1,IN_KNOCK*
G04 #@! TO.N,PIN81*
X88300000Y51168730D03*
G04 #@! TO.P,M2,W2,VREF*
G04 #@! TO.N,/VREF1*
X88300000Y52068730D03*
G04 #@! TD*
D14*
G04 #@! TO.P,M1,E1,VBAT*
G04 #@! TO.N,/VBAT*
X89199996Y80568731D03*
G04 #@! TO.P,M1,E2,V12*
G04 #@! TO.N,unconnected-(M1-V12-PadE2)*
X89199996Y74168734D03*
G04 #@! TO.P,M1,E3,VIGN*
G04 #@! TO.N,/VIGN*
X89199996Y72268731D03*
G04 #@! TO.P,M1,E4,V5*
G04 #@! TO.N,+5V*
X89199996Y67968731D03*
D17*
G04 #@! TO.P,M1,E5,EN_5VP*
G04 #@! TO.N,/PWR_EN*
X89649995Y65568734D03*
G04 #@! TO.P,M1,E6,PG_5VP*
G04 #@! TO.N,Net-(M1-PG_5VP)*
X89649995Y64568733D03*
D51*
G04 #@! TO.P,M1,S1,GND*
G04 #@! TO.N,PIN114*
X81449998Y61068731D03*
D52*
X89849997Y63268733D03*
D53*
X89849997Y81618731D03*
X73050000Y61118731D03*
D54*
X73050000Y76718731D03*
D55*
X82249999Y81668731D03*
D56*
X89849997Y70068731D03*
D57*
X89849997Y77418733D03*
D58*
X89849997Y66568734D03*
D59*
X73050000Y68218733D03*
D14*
X89199996Y61718731D03*
G04 #@! TO.P,M1,V1,V12_PERM*
G04 #@! TO.N,PIN116*
X73699999Y81018733D03*
G04 #@! TO.P,M1,V2,IN_VIGN*
G04 #@! TO.N,/IN_VIGN*
X73699999Y79168734D03*
G04 #@! TO.P,M1,V3,V12_RAW*
G04 #@! TO.N,PIN117*
X73699999Y74218731D03*
G04 #@! TO.P,M1,V4,5VP*
G04 #@! TO.N,PIN106*
X73699999Y62168733D03*
G04 #@! TD*
G04 #@! TO.P,J1,1,Pin_1*
G04 #@! TO.N,/VBUS*
G04 #@! TA.AperFunction,ComponentPad*
G36*
G01*
X74825000Y55418733D02*
X74825000Y56768733D01*
G75*
G02*
X75075000Y57018733I250000J0D01*
G01*
X76275000Y57018733D01*
G75*
G02*
X76525000Y56768733I0J-250000D01*
G01*
X76525000Y55418733D01*
G75*
G02*
X76275000Y55168733I-250000J0D01*
G01*
X75075000Y55168733D01*
G75*
G02*
X74825000Y55418733I0J250000D01*
G01*
G37*
G04 #@! TD.AperFunction*
D60*
G04 #@! TO.P,J1,2,Pin_2*
G04 #@! TO.N,/USB-*
X78175000Y56093733D03*
G04 #@! TO.P,J1,3,Pin_3*
G04 #@! TO.N,/USB+*
X80675000Y56093733D03*
G04 #@! TO.P,J1,4,Pin_4*
G04 #@! TO.N,PIN114*
X83175000Y56093733D03*
G04 #@! TO.P,J1,5,Pin_5*
X85675000Y56093733D03*
G04 #@! TD*
D15*
G04 #@! TO.P,F3,1,1*
G04 #@! TO.N,PIN120*
X63280000Y43968733D03*
G04 #@! TO.P,F3,2,2*
G04 #@! TO.N,Net-(F3-Pad2)*
X68180000Y43968733D03*
G04 #@! TD*
G04 #@! TO.P,F2,1,1*
G04 #@! TO.N,PIN120*
X63280000Y47088733D03*
G04 #@! TO.P,F2,2,2*
G04 #@! TO.N,PIN117*
X68180000Y47088733D03*
G04 #@! TD*
G04 #@! TO.P,F1,1,1*
G04 #@! TO.N,PIN108*
X63280000Y50208733D03*
G04 #@! TO.P,F1,2,2*
G04 #@! TO.N,/IN_VIGN*
X68180000Y50208733D03*
G04 #@! TD*
D61*
G04 #@! TO.P,J2,1,VBUS*
G04 #@! TO.N,/VBUS*
X16362000Y90250000D03*
D62*
G04 #@! TO.P,J2,2,D-*
G04 #@! TO.N,/USB-*
X17162000Y92000000D03*
G04 #@! TO.P,J2,3,D+*
G04 #@! TO.N,/USB+*
X17962000Y90250000D03*
G04 #@! TO.P,J2,4,ID*
G04 #@! TO.N,unconnected-(J2-ID-Pad4)*
X18762000Y92000000D03*
G04 #@! TO.P,J2,5,GND*
G04 #@! TO.N,PIN114*
X19562000Y90250000D03*
D63*
G04 #@! TO.P,J2,6,Shield*
X21612000Y91125000D03*
X14312000Y91125000D03*
G04 #@! TD*
D64*
G04 #@! TO.N,PIN114*
X20103400Y79125000D03*
D65*
X2600000Y30750000D03*
X2600000Y21350000D03*
D64*
X115600000Y22575000D03*
G04 #@! TO.N,GND*
X16750903Y27360103D03*
D65*
G04 #@! TO.N,PIN114*
X2600000Y85725000D03*
X2600000Y72150000D03*
D64*
G04 #@! TO.N,PIN1*
X95939800Y23211600D03*
D65*
G04 #@! TO.N,PIN114*
X2600000Y96600000D03*
D64*
X28400000Y5975000D03*
D65*
X114400000Y114950000D03*
D64*
G04 #@! TO.N,Net-(F6-Pad1)*
X7386000Y80911000D03*
D65*
G04 #@! TO.N,PIN114*
X2750000Y14525000D03*
X103875000Y115000000D03*
D64*
X24700000Y15275000D03*
D65*
X160900000Y32225000D03*
X2600000Y40775000D03*
D64*
X136500000Y1575000D03*
D65*
X160900000Y42250000D03*
X26825000Y114975000D03*
X70950000Y114975000D03*
X48875000Y114975000D03*
X148025000Y115000000D03*
X160900000Y87200000D03*
X125950000Y115000000D03*
X160900000Y52775000D03*
D64*
X13200000Y47375000D03*
G04 #@! TO.N,Net-(F5-Pad1)*
X7386000Y83451000D03*
G04 #@! TO.N,PIN1*
X11704000Y74561000D03*
D65*
G04 #@! TO.N,PIN114*
X160900000Y14850000D03*
D64*
X148100000Y2575000D03*
D65*
X160900000Y98075000D03*
X160900000Y62675000D03*
D64*
G04 #@! TO.N,Net-(U3-IN2)*
X7133000Y92850000D03*
G04 #@! TO.N,PIN114*
X20100000Y21275000D03*
D65*
X15950000Y114975000D03*
D64*
X13300000Y38875000D03*
D65*
X60675000Y114975000D03*
D64*
X30100000Y1175000D03*
G04 #@! TO.N,GND*
X18308000Y75069000D03*
D65*
G04 #@! TO.N,PIN114*
X2600000Y51300000D03*
X160900000Y22825000D03*
X81825000Y115000000D03*
X136475000Y114950000D03*
X92450000Y115000000D03*
X2600000Y61200000D03*
X37450000Y114975000D03*
D64*
X7143000Y95400000D03*
D65*
X160900000Y73625000D03*
D64*
G04 #@! TO.N,GNDA*
X58200000Y20325000D03*
G04 #@! TO.N,PIN105*
X122270200Y12102400D03*
G04 #@! TO.N,/IN_MAF*
X60853000Y20408200D03*
G04 #@! TO.N,PIN101*
X94279400Y15480600D03*
G04 #@! TO.N,PIN35*
X59925000Y20150000D03*
G04 #@! TO.N,PIN34*
X38050000Y14625000D03*
G04 #@! TO.N,PIN81*
X86800000Y2988500D03*
X118138032Y3050468D03*
G04 #@! TO.N,PIN114*
X107258800Y13601000D03*
X109773400Y13601000D03*
X108401800Y13601000D03*
G04 #@! TO.N,PIN37*
X53986500Y20775000D03*
G04 #@! TO.N,PIN8*
X78929686Y5193137D03*
G04 #@! TO.N,PIN110*
X112600000Y8275000D03*
G04 #@! TO.N,PIN94*
X114723911Y5451089D03*
G04 #@! TO.N,PIN111*
X115500000Y5775000D03*
G04 #@! TO.N,PIN7*
X89000000Y3442020D03*
G04 #@! TO.N,PIN102*
X116234859Y5460061D03*
G04 #@! TO.N,*
X136762000Y30375000D03*
X136762000Y28275000D03*
X136762000Y26175000D03*
G04 #@! TO.N,Net-(P41-Pin_1)*
X44550000Y20275000D03*
G04 #@! TO.N,PIN51*
X68760154Y3725602D03*
G04 #@! TO.N,PIN113*
X63500000Y3416960D03*
G04 #@! TO.N,PIN70*
X67600000Y4275000D03*
G04 #@! TO.N,PIN106*
X64900000Y3416960D03*
G04 #@! TO.N,PIN82*
X116098000Y12483400D03*
G04 #@! TO.N,PIN65*
X91968000Y12483400D03*
G04 #@! TO.N,+5VP*
X76900000Y8775000D03*
X75700500Y8775000D03*
G04 #@! TD*
D66*
G04 #@! TO.N,GND*
X16918600Y27192406D02*
X16750903Y27360103D01*
D67*
G04 #@! TO.N,PIN1*
X13662000Y73079000D02*
X12180000Y74561000D01*
D66*
G04 #@! TO.N,GND*
X16918600Y27030000D02*
X16918600Y27192406D01*
D67*
G04 #@! TO.N,PIN1*
X12180000Y74561000D02*
X11704000Y74561000D01*
D66*
G04 #@! TO.N,GND*
X17570000Y27030000D02*
X16918600Y27030000D01*
G04 #@! TO.N,PIN113*
X36323000Y21620200D02*
X36323000Y14170200D01*
X33523000Y24420200D02*
X36323000Y21620200D01*
X36323000Y14170200D02*
X37808180Y12685020D01*
X37808180Y12685020D02*
X46954980Y12685020D01*
X46954980Y12685020D02*
X49608000Y10032000D01*
D68*
G04 #@! TO.N,GNDA*
X57492000Y16082000D02*
X57228000Y16082000D01*
X103678000Y10032000D02*
X103678000Y16082000D01*
X103678000Y16082000D02*
X106218000Y18622000D01*
X58525000Y17115000D02*
X57492000Y16082000D01*
X58200000Y20325000D02*
X58525000Y20000000D01*
X58525000Y20000000D02*
X58525000Y17115000D01*
D69*
G04 #@! TO.N,PIN105*
X122270200Y12102400D02*
X121127200Y12102400D01*
X121127200Y12102400D02*
X118918000Y14311600D01*
X118918000Y14311600D02*
X118918000Y16082000D01*
D70*
G04 #@! TO.N,/IN_MAF*
X63439011Y19160989D02*
X63439011Y15735989D01*
X64224011Y14950989D02*
X73010886Y14950989D01*
X62191800Y20408200D02*
X63439011Y19160989D01*
X74141897Y16082000D02*
X75008000Y16082000D01*
X60853000Y20408200D02*
X62191800Y20408200D01*
X63439011Y15735989D02*
X64224011Y14950989D01*
X73010886Y14950989D02*
X74141897Y16082000D01*
G04 #@! TO.N,PIN35*
X60980000Y19270000D02*
X60980000Y17030000D01*
X59925000Y20150000D02*
X60100000Y20150000D01*
X60980000Y17030000D02*
X60032000Y16082000D01*
X60032000Y16082000D02*
X59768000Y16082000D01*
X60100000Y20150000D02*
X60980000Y19270000D01*
G04 #@! TO.N,PIN34*
X60499060Y14074060D02*
X62308000Y15883000D01*
X38600940Y14074060D02*
X60499060Y14074060D01*
X38050000Y14625000D02*
X38600940Y14074060D01*
X62308000Y15883000D02*
X62308000Y16082000D01*
D71*
G04 #@! TO.N,PIN18*
X90977400Y11086400D02*
X89199400Y12864400D01*
X119984200Y4355400D02*
X100756400Y4355400D01*
X123794200Y8165400D02*
X119984200Y4355400D01*
X100756400Y4355400D02*
X94025400Y11086400D01*
X89199400Y19290600D02*
X86989600Y21500400D01*
X89199400Y12864400D02*
X89199400Y19290600D01*
X118968200Y21830600D02*
X123794200Y17004600D01*
X94025400Y11086400D02*
X90977400Y11086400D01*
X118968200Y41043200D02*
X118968200Y21830600D01*
X123794200Y17004600D02*
X123794200Y8165400D01*
X57566400Y21500400D02*
X54688000Y18622000D01*
X86989600Y21500400D02*
X57566400Y21500400D01*
D68*
G04 #@! TO.N,PIN81*
X68689950Y5025000D02*
X41915000Y5025000D01*
X69100000Y4614950D02*
X68689950Y5025000D01*
X41915000Y5025000D02*
X39448000Y7492000D01*
X70486500Y2988500D02*
X69100000Y4375000D01*
X86800000Y2988500D02*
X70486500Y2988500D01*
X69100000Y4375000D02*
X69100000Y4614950D01*
D72*
G04 #@! TO.N,PIN22*
X48405920Y22499920D02*
X44528000Y18622000D01*
X88319320Y22499920D02*
X48405920Y22499920D01*
X90875800Y25056400D02*
X88319320Y22499920D01*
D68*
G04 #@! TO.N,PIN120*
X39547000Y18622000D02*
X40751011Y19826011D01*
X39448000Y18622000D02*
X39547000Y18622000D01*
X40751011Y19826011D02*
X42565926Y19826011D01*
X42565926Y19826011D02*
X46764915Y24025000D01*
D70*
G04 #@! TO.N,PIN37*
X53556989Y20345489D02*
X53556989Y17213011D01*
X53556989Y17213011D02*
X54688000Y16082000D01*
X53986500Y20775000D02*
X53556989Y20345489D01*
D66*
G04 #@! TO.N,PIN113*
X37621780Y12235020D02*
X46439980Y12235020D01*
X46439980Y12235020D02*
X46439980Y12114980D01*
X35873000Y21433800D02*
X35873000Y13983800D01*
X46439980Y12235020D02*
X46439980Y11943980D01*
X46439980Y11943980D02*
X44528000Y10032000D01*
X35873000Y13983800D02*
X37621780Y12235020D01*
X33073000Y24233800D02*
X35873000Y21433800D01*
G04 #@! TO.N,PIN8*
X79000000Y17534000D02*
X80088000Y18622000D01*
X79000000Y5263451D02*
X79000000Y17534000D01*
X78929686Y5193137D02*
X79000000Y5263451D01*
G04 #@! TO.N,PIN110*
X112600000Y8275000D02*
X112600000Y17320000D01*
X112600000Y17320000D02*
X111298000Y18622000D01*
G04 #@! TO.N,PIN111*
X115147633Y17312367D02*
X115147633Y6127367D01*
X115147633Y6127367D02*
X115500000Y5775000D01*
X113838000Y18622000D02*
X115147633Y17312367D01*
G04 #@! TO.N,PIN7*
X86218000Y6224020D02*
X86218000Y16557000D01*
X86218000Y16557000D02*
X85203000Y17572000D01*
X89000000Y3442020D02*
X86218000Y6224020D01*
X85203000Y17572000D02*
X83678000Y17572000D01*
X83678000Y17572000D02*
X82628000Y18622000D01*
D73*
G04 #@! TO.N,*
X136762000Y30375000D02*
X136762000Y26175000D01*
X136666000Y30471000D02*
X136762000Y30375000D01*
D70*
G04 #@! TO.N,PIN41*
X43396989Y19121989D02*
X44550000Y20275000D01*
X43396989Y17213011D02*
X43396989Y19121989D01*
X44528000Y16082000D02*
X43396989Y17213011D01*
G04 #@! TO.N,PIN51*
X14056969Y15825949D02*
X14056969Y25368031D01*
X12210989Y27214011D02*
X12210989Y30790989D01*
X12210989Y30790989D02*
X13300000Y31880000D01*
X66853063Y4043960D02*
X25838958Y4043960D01*
X25838958Y4043960D02*
X14056969Y15825949D01*
X67859712Y3648000D02*
X67249023Y3648000D01*
X67249023Y3648000D02*
X66853063Y4043960D01*
X14056969Y25368031D02*
X12210989Y27214011D01*
X68760154Y3725602D02*
X67937314Y3725602D01*
X67937314Y3725602D02*
X67859712Y3648000D01*
G04 #@! TO.N,PIN113*
X63391960Y3525000D02*
X63500000Y3416960D01*
X25700000Y3525000D02*
X40517436Y3525000D01*
X40517436Y3525000D02*
X63391960Y3525000D01*
X9910989Y27614011D02*
X13600000Y23925000D01*
X11000000Y31880000D02*
X9910989Y30790989D01*
X13600000Y23925000D02*
X13600000Y15625000D01*
X9910989Y30790989D02*
X9910989Y27614011D01*
X13600000Y15625000D02*
X25700000Y3525000D01*
G04 #@! TO.N,PIN70*
X26027020Y4497980D02*
X14510989Y16014011D01*
X67600000Y4275000D02*
X67377020Y4497980D01*
X14510989Y30791010D02*
X15600000Y31880021D01*
X67377020Y4497980D02*
X26027020Y4497980D01*
X14510989Y16014011D02*
X14510989Y30791010D01*
G04 #@! TO.N,PIN106*
X7610989Y27314011D02*
X13145980Y21779020D01*
X13145980Y21779020D02*
X13145980Y15436939D01*
X13200000Y15382918D02*
X25511938Y3070980D01*
X62918003Y3070980D02*
X63199034Y2789949D01*
X13145980Y15436939D02*
X13200000Y15382918D01*
X63199034Y2789949D02*
X63800966Y2789949D01*
X25511938Y3070980D02*
X62918003Y3070980D01*
X8700000Y31830000D02*
X7610989Y30740989D01*
X63800966Y2789949D02*
X64427977Y3416960D01*
X64427977Y3416960D02*
X64900000Y3416960D01*
X7610989Y30740989D02*
X7610989Y27314011D01*
D73*
G04 #@! TO.N,PIN118*
X136848000Y14122000D02*
X139005000Y14122000D01*
X135548000Y12822000D02*
X136848000Y14122000D01*
X139005000Y14122000D02*
X147162000Y22279000D01*
X147162000Y22279000D02*
X147162000Y35092163D01*
D68*
G04 #@! TO.N,PIN65*
X93390400Y13905800D02*
X91968000Y12483400D01*
X93390400Y35343400D02*
X93390400Y13905800D01*
D66*
G04 #@! TO.N,+5VP*
X102500000Y14720000D02*
X101138000Y16082000D01*
X102500000Y8670000D02*
X102500000Y14720000D01*
X103678000Y7492000D02*
X102500000Y8670000D01*
G04 #@! TD*
G04 #@! TA.AperFunction,Conductor*
G04 #@! TO.N,PIN114*
G36*
X149662602Y117788998D02*
G01*
X149683576Y117772095D01*
X150912095Y116543576D01*
X150946121Y116481264D01*
X150949000Y116454481D01*
X150949000Y114091859D01*
X150949001Y114091845D01*
X150949001Y113851150D01*
X150985274Y113274615D01*
X150985274Y113274614D01*
X151057675Y112701507D01*
X151057677Y112701494D01*
X151165924Y112134046D01*
X151165925Y112134038D01*
X151309582Y111574535D01*
X151309589Y111574511D01*
X151488098Y111025120D01*
X151700754Y110488012D01*
X151700762Y110487994D01*
X151946713Y109965323D01*
X151946717Y109965315D01*
X152225015Y109459092D01*
X152225016Y109459091D01*
X152225024Y109459077D01*
X152534548Y108971346D01*
X152534556Y108971334D01*
X152874092Y108504004D01*
X152874101Y108503992D01*
X153132686Y108191415D01*
X153242328Y108058880D01*
X153637773Y107637774D01*
X153914968Y107377472D01*
X154058883Y107242327D01*
X154058890Y107242321D01*
X154058899Y107242313D01*
X154168855Y107151350D01*
X154503991Y106874101D01*
X154503994Y106874099D01*
X154503995Y106874098D01*
X154504002Y106874093D01*
X154971342Y106534551D01*
X155459091Y106225016D01*
X155965314Y105946718D01*
X156488012Y105700754D01*
X157025123Y105488097D01*
X157276675Y105406363D01*
X157574510Y105309590D01*
X157574534Y105309583D01*
X158134037Y105165926D01*
X158134043Y105165926D01*
X158134056Y105165922D01*
X158701501Y105057676D01*
X159106005Y105006576D01*
X159274614Y104985275D01*
X159274618Y104985275D01*
X159274624Y104985274D01*
X159851149Y104949002D01*
X159851151Y104949001D01*
X159851161Y104949001D01*
X160102008Y104949001D01*
X162454482Y104949001D01*
X162522603Y104928999D01*
X162543577Y104912096D01*
X163772095Y103683578D01*
X163806121Y103621266D01*
X163809000Y103594483D01*
X163809000Y80467001D01*
X163788998Y80398880D01*
X163735342Y80352387D01*
X163683000Y80341001D01*
X161649996Y80341001D01*
X161649976Y80340999D01*
X161573277Y80340999D01*
X161322662Y80303225D01*
X161322660Y80303225D01*
X161322651Y80303223D01*
X161080484Y80228525D01*
X161080472Y80228520D01*
X160852128Y80118554D01*
X160852120Y80118550D01*
X160642729Y79975789D01*
X160642724Y79975785D01*
X160456935Y79803398D01*
X160298910Y79605242D01*
X160172191Y79385759D01*
X160172188Y79385751D01*
X160079597Y79149832D01*
X160079596Y79149830D01*
X160023199Y78902741D01*
X160004259Y78650000D01*
X160023199Y78397260D01*
X160079596Y78150171D01*
X160079597Y78150169D01*
X160172188Y77914250D01*
X160172191Y77914242D01*
X160298910Y77694759D01*
X160298912Y77694756D01*
X160298913Y77694755D01*
X160456934Y77496603D01*
X160642723Y77324216D01*
X160642729Y77324212D01*
X160852120Y77181451D01*
X160852124Y77181449D01*
X160852130Y77181445D01*
X161080476Y77071479D01*
X161080479Y77071479D01*
X161080484Y77071476D01*
X161322651Y76996778D01*
X161322653Y76996778D01*
X161322662Y76996775D01*
X161573277Y76959001D01*
X161662008Y76959001D01*
X163683000Y76959001D01*
X163751121Y76938999D01*
X163797614Y76885343D01*
X163809000Y76833001D01*
X163809000Y14195519D01*
X163788998Y14127398D01*
X163772095Y14106424D01*
X162543576Y12877905D01*
X162481264Y12843879D01*
X162454481Y12841000D01*
X157926908Y12841000D01*
X157858787Y12861002D01*
X157812294Y12914658D01*
X157800908Y12967141D01*
X157900000Y99375000D01*
X156916662Y99473334D01*
X156884345Y99480964D01*
X152721003Y101066999D01*
X152683059Y101089769D01*
X149810006Y103594482D01*
X148814119Y104462691D01*
X148790072Y104490884D01*
X148526815Y104912095D01*
X146812510Y107654984D01*
X146795583Y107698188D01*
X146723809Y108075000D01*
X146000000Y111875000D01*
X18200000Y111875000D01*
X17503383Y108093368D01*
X17491434Y108058405D01*
X15913057Y105000299D01*
X15877331Y104957772D01*
X10923728Y101193034D01*
X10870708Y101169508D01*
X6100000Y100275000D01*
X6050448Y12966928D01*
X6030407Y12898819D01*
X5976725Y12852357D01*
X5924448Y12841000D01*
X1545520Y12841000D01*
X1477399Y12861002D01*
X1456425Y12877905D01*
X227905Y14106425D01*
X193879Y14168737D01*
X191000Y14195520D01*
X191000Y76833000D01*
X211002Y76901121D01*
X264658Y76947614D01*
X317000Y76959000D01*
X2299978Y76959000D01*
X2426704Y76958986D01*
X2426704Y76958987D01*
X2426710Y76958986D01*
X2677347Y76996737D01*
X2919558Y77071425D01*
X3147930Y77181380D01*
X3357362Y77324147D01*
X3543175Y77496535D01*
X3701217Y77694694D01*
X3827957Y77914196D01*
X3920564Y78150136D01*
X3976969Y78397245D01*
X3995912Y78650000D01*
X3976969Y78902755D01*
X3920572Y79149830D01*
X3920564Y79149865D01*
X3920563Y79149867D01*
X3827955Y79385809D01*
X3740880Y79536613D01*
X3701217Y79605306D01*
X3544958Y79801230D01*
X3543179Y79803461D01*
X3543173Y79803468D01*
X3357361Y79975854D01*
X3147934Y80118618D01*
X2919559Y80228575D01*
X2677351Y80303262D01*
X2677349Y80303263D01*
X2677347Y80303263D01*
X2426810Y80340999D01*
X2426704Y80341015D01*
X2299978Y80341000D01*
X317000Y80341000D01*
X248879Y80361002D01*
X202386Y80414658D01*
X191000Y80467000D01*
X191000Y103594482D01*
X211002Y103662603D01*
X227905Y103683577D01*
X1456424Y104912095D01*
X1518736Y104946121D01*
X1545519Y104949000D01*
X4148849Y104949000D01*
X4148849Y104949001D01*
X4725376Y104985273D01*
X4725382Y104985274D01*
X4725385Y104985274D01*
X4725386Y104985274D01*
X4873137Y105003940D01*
X5298499Y105057675D01*
X5865944Y105165921D01*
X5865957Y105165925D01*
X5865962Y105165925D01*
X6380703Y105298090D01*
X6425473Y105309584D01*
X6425483Y105309588D01*
X6425489Y105309589D01*
X6549436Y105349862D01*
X6974877Y105488096D01*
X7511988Y105700753D01*
X8034686Y105946717D01*
X8540909Y106225015D01*
X9028658Y106534550D01*
X9496009Y106874100D01*
X9941118Y107242326D01*
X10362227Y107637773D01*
X10757674Y108058882D01*
X11125900Y108503991D01*
X11465450Y108971342D01*
X11774985Y109459091D01*
X12053283Y109965314D01*
X12299247Y110488012D01*
X12511904Y111025123D01*
X12614041Y111339470D01*
X12690411Y111574510D01*
X12690418Y111574534D01*
X12834075Y112134037D01*
X12834076Y112134045D01*
X12834076Y112134046D01*
X12834079Y112134056D01*
X12942325Y112701501D01*
X13014727Y113274624D01*
X13050999Y113851149D01*
X13051000Y113851150D01*
X13051000Y116454481D01*
X13071002Y116522602D01*
X13087905Y116543576D01*
X14316423Y117772095D01*
X14378735Y117806120D01*
X14405518Y117809000D01*
X149594481Y117809000D01*
X149662602Y117788998D01*
G37*
G04 #@! TD.AperFunction*
G04 #@! TD*
M02*
