G75*
G70*
%OFA0B0*%
%FSLAX25Y25*%
%IPPOS*%
%LPD*%
%AMOC8*
5,1,8,0,0,1.08239X$1,22.5*
%
%ADD104R,0.34449X0.00984*%
%ADD105R,0.24803X0.00984*%
%ADD11C,0.02362*%
%ADD12R,0.59449X0.00984*%
%ADD13R,0.56201X0.00984*%
%ADD14R,0.00984X0.20374*%
%ADD15R,0.00984X0.24350*%
%ADD16R,0.00984X0.04390*%
%ADD17C,0.02756*%
%ADD20R,0.03858X0.00984*%
%ADD23R,0.04331X0.00984*%
%ADD24R,0.00984X1.08661*%
%ADD25R,0.03740X0.00984*%
%ADD26C,0.05906*%
%ADD27O,0.66929X0.00787*%
%ADD28O,0.60630X0.00787*%
%ADD29O,0.00787X0.40157*%
%ADD30O,0.00787X0.01181*%
%ADD31O,0.00787X0.10236*%
%ADD32O,0.00787X0.05906*%
%ADD33O,0.00787X0.12992*%
%ADD34O,0.00787X0.03937*%
%ADD35O,0.00787X0.18898*%
%ADD36O,0.00787X0.04823*%
%ADD37O,0.36614X0.00787*%
%ADD38R,0.00787X0.08268*%
%ADD39R,0.36220X0.00787*%
%ADD40R,0.00787X0.48819*%
%ADD41R,0.00787X0.06299*%
%ADD42R,0.17717X0.00787*%
%ADD43R,0.00787X0.07874*%
%ADD44R,0.05512X0.00787*%
%ADD45R,0.00787X0.19291*%
%ADD46R,0.19685X0.00787*%
%ADD47R,0.00787X0.42126*%
%ADD48R,0.00787X0.09055*%
%ADD49C,0.10236*%
%ADD50C,0.14567*%
%ADD51C,0.08661*%
%ADD52C,0.06693*%
%ADD67C,0.06000*%
%ADD69C,0.07874*%
%ADD71C,0.05118*%
%ADD76O,0.06693X0.06693*%
%ADD77R,0.06693X0.06693*%
%ADD78O,0.04331X0.09449*%
%ADD79C,0.04331*%
%ADD80R,0.04331X0.04331*%
%ADD81C,0.03150*%
%ADD87C,0.03937*%
X0000000Y0000000D02*
%LPD*%
G01*
D11*
X0393344Y0118156D03*
X0393344Y0122880D03*
X0393344Y0113431D03*
X0393344Y0108707D03*
D12*
X0421789Y0144731D03*
D13*
X0423413Y0107526D03*
D14*
X0392557Y0135036D03*
D15*
X0451021Y0119209D03*
D16*
X0451021Y0143028D03*
D11*
X0450135Y0134140D03*
X0450135Y0138077D03*
D17*
X0073602Y0153760D03*
X0085413Y0153760D03*
X0081476Y0153760D03*
X0077539Y0153760D03*
D104*
X0105197Y0152283D03*
D105*
X0079705Y0259961D03*
D20*
X0103169Y0259961D03*
D23*
X0120256Y0259961D03*
D24*
X0067795Y0206122D03*
D25*
X0069173Y0152283D03*
D23*
X0120256Y0259961D03*
D24*
X0121929Y0206122D03*
D17*
X0111594Y0258450D03*
X0107657Y0258450D03*
X0094681Y0258450D03*
X0098681Y0258450D03*
X0115531Y0258450D03*
D26*
X0368567Y0245323D03*
X0368567Y0220126D03*
X0368567Y0212646D03*
X0368567Y0195717D03*
D11*
X0370339Y0186268D03*
X0370339Y0182331D03*
D27*
X0338055Y0168552D03*
D34*
X0371126Y0190205D03*
D30*
X0371126Y0249457D03*
D35*
X0371126Y0232922D03*
D28*
X0341205Y0249654D03*
D30*
X0304984Y0168748D03*
D26*
X0368567Y0171111D03*
D31*
X0371126Y0203985D03*
D32*
X0371126Y0177213D03*
D33*
X0304984Y0230166D03*
D29*
X0304984Y0196701D03*
D26*
X0307543Y0247095D03*
X0307543Y0239811D03*
X0307543Y0220323D03*
X0307543Y0172882D03*
D11*
X0125197Y0134941D03*
D36*
X0090157Y0127165D03*
D11*
X0125197Y0131201D03*
D37*
X0108071Y0125098D03*
X0108071Y0137303D03*
D11*
X0125197Y0127461D03*
X0090945Y0131398D03*
X0090945Y0134941D03*
X0319734Y0378627D03*
X0319734Y0375478D03*
X0319734Y0372328D03*
X0319734Y0369179D03*
X0319734Y0366029D03*
X0319734Y0362879D03*
X0319734Y0359730D03*
X0319734Y0356580D03*
X0319734Y0353431D03*
X0319734Y0350281D03*
X0319734Y0347131D03*
X0319734Y0343982D03*
X0319734Y0340832D03*
X0319734Y0337683D03*
X0319734Y0334533D03*
X0319734Y0331383D03*
X0319734Y0328234D03*
X0319734Y0325084D03*
X0319734Y0321935D03*
X0319734Y0318785D03*
X0319734Y0315635D03*
X0319734Y0312486D03*
X0319734Y0309336D03*
X0319734Y0306187D03*
X0319734Y0303037D03*
X0319734Y0299887D03*
X0319734Y0296738D03*
X0319734Y0293588D03*
X0319734Y0290438D03*
X0319734Y0287289D03*
X0319734Y0284139D03*
X0319734Y0280990D03*
X0319734Y0277840D03*
X0319734Y0274690D03*
X0319734Y0271541D03*
X0319734Y0268391D03*
X0319734Y0245163D03*
X0319734Y0242013D03*
D46*
X0167372Y0389651D03*
D38*
X0154774Y0333549D03*
D45*
X0320522Y0256777D03*
D43*
X0320522Y0236108D03*
D42*
X0239616Y0389651D03*
D41*
X0320522Y0383746D03*
D40*
X0154774Y0273509D03*
D39*
X0199262Y0389651D03*
D47*
X0154774Y0365832D03*
D44*
X0161860Y0232564D03*
D48*
X0154774Y0236698D03*
D11*
X0319734Y0388864D03*
X0316585Y0388864D03*
X0313435Y0388864D03*
X0310285Y0388864D03*
X0307136Y0388864D03*
X0303986Y0388864D03*
X0300837Y0388864D03*
X0297687Y0388864D03*
X0294537Y0388864D03*
X0291388Y0388864D03*
X0288238Y0388864D03*
X0285089Y0388864D03*
X0281939Y0388864D03*
X0278789Y0388864D03*
X0275640Y0388864D03*
X0272490Y0388864D03*
X0269341Y0388864D03*
X0266191Y0388864D03*
X0263041Y0388864D03*
X0259892Y0388864D03*
X0256742Y0388864D03*
X0253593Y0388864D03*
X0250443Y0388864D03*
X0228789Y0388864D03*
X0225640Y0388864D03*
X0222490Y0388864D03*
X0219341Y0388864D03*
X0179183Y0388864D03*
X0155561Y0388864D03*
X0317372Y0233352D03*
X0312648Y0233352D03*
X0307923Y0233352D03*
X0303199Y0233352D03*
X0298474Y0233352D03*
X0294144Y0233352D03*
X0289419Y0233352D03*
X0284695Y0233352D03*
X0279971Y0233352D03*
X0275246Y0233352D03*
X0270522Y0233352D03*
X0265797Y0233352D03*
X0261073Y0233352D03*
X0256348Y0233352D03*
X0251624Y0233352D03*
X0246900Y0233352D03*
X0242175Y0233352D03*
X0237451Y0233352D03*
X0232726Y0233352D03*
X0228002Y0233352D03*
X0223278Y0233352D03*
X0218553Y0233352D03*
X0213829Y0233352D03*
X0209104Y0233352D03*
X0204380Y0233352D03*
X0199656Y0233352D03*
X0194931Y0233352D03*
X0190207Y0233352D03*
X0185482Y0233352D03*
X0180758Y0233352D03*
X0176033Y0233352D03*
X0171309Y0233352D03*
X0166585Y0233352D03*
X0157136Y0233352D03*
X0155561Y0243194D03*
X0155561Y0247131D03*
X0155561Y0299887D03*
X0155561Y0303824D03*
X0155561Y0307761D03*
X0155561Y0311698D03*
X0155561Y0315635D03*
X0155561Y0319572D03*
X0155561Y0323509D03*
X0155561Y0327446D03*
X0155561Y0339651D03*
X0155561Y0342801D03*
D49*
X0545071Y0073315D03*
X0521843Y0073315D03*
X0499008Y0073315D03*
X0533654Y0050480D03*
X0510425Y0050480D03*
X0545071Y0041307D03*
X0521843Y0041307D03*
X0499008Y0041307D03*
D26*
X0468181Y0073315D03*
X0458181Y0073315D03*
X0448181Y0073315D03*
X0438181Y0073315D03*
X0428181Y0073315D03*
X0418181Y0073315D03*
X0408181Y0073315D03*
X0398181Y0073315D03*
X0468181Y0063315D03*
X0458181Y0063315D03*
X0448181Y0063315D03*
X0438181Y0063315D03*
X0428181Y0063315D03*
X0418181Y0063315D03*
X0408181Y0063315D03*
X0398181Y0063315D03*
X0468181Y0039496D03*
X0458181Y0039496D03*
X0448181Y0039496D03*
X0438181Y0039496D03*
X0428181Y0039496D03*
X0418181Y0039496D03*
X0408181Y0039496D03*
X0398181Y0039496D03*
X0468181Y0029496D03*
X0458181Y0029496D03*
X0448181Y0029496D03*
X0438181Y0029496D03*
X0428181Y0029496D03*
X0418181Y0029496D03*
X0408181Y0029496D03*
X0398181Y0029496D03*
X0155307Y0029496D03*
X0165307Y0029496D03*
X0175307Y0029496D03*
X0185307Y0029496D03*
X0195307Y0029496D03*
X0205307Y0029496D03*
X0215307Y0029496D03*
X0225307Y0029496D03*
X0235307Y0029496D03*
X0245307Y0029496D03*
X0255307Y0029496D03*
X0265307Y0029496D03*
X0275307Y0029496D03*
X0285307Y0029496D03*
X0295307Y0029496D03*
X0305307Y0029496D03*
X0315307Y0029496D03*
X0325307Y0029496D03*
X0335307Y0029496D03*
X0155307Y0039496D03*
X0165307Y0039496D03*
X0175307Y0039496D03*
X0185307Y0039496D03*
X0195307Y0039496D03*
X0205307Y0039496D03*
X0215307Y0039496D03*
X0225307Y0039496D03*
X0235307Y0039496D03*
X0245307Y0039496D03*
X0255307Y0039496D03*
X0265307Y0039496D03*
X0275307Y0039496D03*
X0285307Y0039496D03*
X0295307Y0039496D03*
X0305307Y0039496D03*
X0315307Y0039496D03*
X0325307Y0039496D03*
X0335307Y0039496D03*
X0155307Y0063315D03*
X0165307Y0063315D03*
X0175307Y0063315D03*
X0185307Y0063315D03*
X0195307Y0063315D03*
X0205307Y0063315D03*
X0215307Y0063315D03*
X0225307Y0063315D03*
X0235307Y0063315D03*
X0245307Y0063315D03*
X0255307Y0063315D03*
X0265307Y0063315D03*
X0275307Y0063315D03*
X0285307Y0063315D03*
X0295307Y0063315D03*
X0305307Y0063315D03*
X0315307Y0063315D03*
X0325307Y0063315D03*
X0335307Y0063315D03*
X0155307Y0073315D03*
X0165307Y0073315D03*
X0175307Y0073315D03*
X0185307Y0073315D03*
X0195307Y0073315D03*
X0205307Y0073315D03*
X0215307Y0073315D03*
X0225307Y0073315D03*
X0235307Y0073315D03*
X0245307Y0073315D03*
X0255307Y0073315D03*
X0265307Y0073315D03*
X0275307Y0073315D03*
X0285307Y0073315D03*
X0295307Y0073315D03*
X0305307Y0073315D03*
X0315307Y0073315D03*
X0325307Y0073315D03*
X0335307Y0073315D03*
D49*
X0124205Y0073315D03*
X0101370Y0073315D03*
X0112787Y0050480D03*
X0124205Y0041307D03*
X0101370Y0041307D03*
D50*
X0572236Y0021622D03*
D51*
X0562591Y0052331D03*
D50*
X0366724Y0021622D03*
D51*
X0083063Y0052331D03*
D50*
X0073417Y0021622D03*
D52*
X0175000Y0154327D03*
X0590000Y0287598D03*
X0590000Y0297598D03*
X0590000Y0307598D03*
X0590000Y0317598D03*
X0590000Y0327598D03*
X0600000Y0287598D03*
X0600000Y0297598D03*
X0600000Y0307598D03*
X0600000Y0317598D03*
X0600000Y0327598D03*
X0610000Y0287598D03*
X0610000Y0297598D03*
X0610000Y0307598D03*
X0610000Y0317598D03*
X0610000Y0327598D03*
X0225197Y0111319D03*
D11*
X0127982Y0369741D03*
X0135206Y0368068D03*
X0127135Y0365902D03*
X0127982Y0362458D03*
X0128277Y0359111D03*
X0135206Y0357831D03*
X0130049Y0352713D03*
X0135206Y0350154D03*
X0111879Y0378402D03*
X0127923Y0377221D03*
D52*
X0199508Y0154228D03*
X0160138Y0128642D03*
X0302145Y0118947D03*
X0267717Y0147146D03*
X0460379Y0134747D03*
X0312676Y0118947D03*
X0272835Y0100886D03*
X0262106Y0100591D03*
D67*
X0034252Y0125315D03*
X0034252Y0110315D03*
D52*
X0590000Y0340000D03*
X0590000Y0350000D03*
X0590000Y0360000D03*
X0590000Y0370000D03*
X0590000Y0380000D03*
X0600000Y0340000D03*
X0600000Y0350000D03*
X0600000Y0360000D03*
X0600000Y0370000D03*
X0600000Y0380000D03*
X0610000Y0340000D03*
X0610000Y0350000D03*
X0610000Y0360000D03*
X0610000Y0370000D03*
X0610000Y0380000D03*
D67*
X0214961Y0103524D03*
X0214961Y0118524D03*
D52*
X0341634Y0100689D03*
X0210630Y0154228D03*
X0291712Y0118947D03*
X0180807Y0128642D03*
D67*
X0190354Y0117933D03*
X0190354Y0102933D03*
X0488484Y0105413D03*
X0488484Y0124705D03*
D71*
X0581524Y0159418D03*
X0581524Y0171229D03*
X0581524Y0183040D03*
X0561839Y0159418D03*
X0561839Y0171229D03*
X0561839Y0183040D03*
X0542154Y0159418D03*
X0542154Y0171229D03*
X0542154Y0183040D03*
D52*
X0323279Y0118947D03*
X0281279Y0118947D03*
X0356299Y0158760D03*
X0285925Y0100689D03*
D67*
X0052362Y0125512D03*
X0052362Y0110512D03*
D52*
X0251083Y0100886D03*
D67*
X0203150Y0102933D03*
X0203150Y0117933D03*
D52*
X0215679Y0128647D03*
X0270846Y0118947D03*
X0331594Y0100689D03*
X0344279Y0118947D03*
X0153543Y0113681D03*
D76*
X0051969Y0260827D03*
X0051969Y0250827D03*
X0051969Y0240827D03*
X0051969Y0230827D03*
X0051969Y0220827D03*
D77*
X0051969Y0210827D03*
D52*
X0570472Y0411811D03*
X0570472Y0401811D03*
X0570472Y0391811D03*
X0570472Y0381811D03*
X0570472Y0371811D03*
X0560472Y0411811D03*
X0560472Y0401811D03*
X0560472Y0391811D03*
X0560472Y0381811D03*
X0560472Y0371811D03*
X0550472Y0411811D03*
X0550472Y0401811D03*
X0550472Y0391811D03*
X0550472Y0381811D03*
X0550472Y0371811D03*
X0188189Y0154232D03*
D67*
X0182382Y0103012D03*
X0182382Y0118012D03*
D52*
X0170079Y0128642D03*
D67*
X0061417Y0125512D03*
X0061417Y0110512D03*
X0499902Y0105413D03*
X0499902Y0124705D03*
D52*
X0590000Y0234803D03*
X0590000Y0244803D03*
X0590000Y0254803D03*
X0590000Y0264803D03*
X0590000Y0274803D03*
X0600000Y0234803D03*
X0600000Y0244803D03*
X0600000Y0254803D03*
X0600000Y0264803D03*
X0600000Y0274803D03*
X0610000Y0234803D03*
X0610000Y0244803D03*
X0610000Y0254803D03*
X0610000Y0264803D03*
X0610000Y0274803D03*
X0304479Y0162847D03*
G36*
G01*
X0367478Y0406932D02*
X0367478Y0406932D01*
G75*
G02*
X0374159Y0406932I0003341J-003341D01*
G01*
X0375829Y0405261D01*
G75*
G02*
X0375829Y0398580I-003341J-003341D01*
G01*
X0375829Y0398580D01*
G75*
G02*
X0369148Y0398580I-003341J0003341D01*
G01*
X0367478Y0400250D01*
G75*
G02*
X0367478Y0406932I0003341J0003341D01*
G01*
G37*
G36*
G01*
X0374958Y0415593D02*
X0374958Y0415593D01*
G75*
G02*
X0381639Y0415593I0003341J-003341D01*
G01*
X0383310Y0413923D01*
G75*
G02*
X0383310Y0407241I-003341J-003341D01*
G01*
X0383310Y0407241D01*
G75*
G02*
X0376628Y0407241I-003341J0003341D01*
G01*
X0374958Y0408912D01*
G75*
G02*
X0374958Y0415593I0003341J0003341D01*
G01*
G37*
G36*
G01*
X0399367Y0415593D02*
X0399367Y0415593D01*
G75*
G02*
X0406049Y0415593I0003341J-003341D01*
G01*
X0407719Y0413923D01*
G75*
G02*
X0407719Y0407241I-003341J-003341D01*
G01*
X0407719Y0407241D01*
G75*
G02*
X0401038Y0407241I-003341J0003341D01*
G01*
X0399367Y0408912D01*
G75*
G02*
X0399367Y0415593I0003341J0003341D01*
G01*
G37*
G36*
G01*
X0389525Y0406932D02*
X0389525Y0406932D01*
G75*
G02*
X0396206Y0406932I0003341J-003341D01*
G01*
X0397877Y0405261D01*
G75*
G02*
X0397877Y0398580I-003341J-003341D01*
G01*
X0397877Y0398580D01*
G75*
G02*
X0391195Y0398580I-003341J0003341D01*
G01*
X0389525Y0400250D01*
G75*
G02*
X0389525Y0406932I0003341J0003341D01*
G01*
G37*
G36*
G01*
X0352911Y0415593D02*
X0352911Y0415593D01*
G75*
G02*
X0359592Y0415593I0003341J-003341D01*
G01*
X0361262Y0413923D01*
G75*
G02*
X0361262Y0407241I-003341J-003341D01*
G01*
X0361262Y0407241D01*
G75*
G02*
X0354581Y0407241I-003341J0003341D01*
G01*
X0352911Y0408912D01*
G75*
G02*
X0352911Y0415593I0003341J0003341D01*
G01*
G37*
X0310531Y0100689D03*
X0202165Y0128543D03*
X0191535Y0128543D03*
D77*
X0288504Y0391732D03*
D76*
X0278504Y0391732D03*
X0268504Y0391732D03*
X0258504Y0391732D03*
X0248504Y0391732D03*
X0238504Y0391732D03*
X0228504Y0391732D03*
X0218504Y0391732D03*
D52*
X0333679Y0118947D03*
D67*
X0164567Y0117756D03*
X0164567Y0102756D03*
D52*
X0317879Y0168447D03*
X0296752Y0100689D03*
X0321161Y0100689D03*
D78*
X0341339Y0406201D03*
X0312598Y0406201D03*
D79*
X0333268Y0402756D03*
X0330118Y0409646D03*
X0326969Y0402756D03*
X0323819Y0409646D03*
D80*
X0320669Y0402756D03*
D52*
X0260413Y0118947D03*
X0153543Y0101870D03*
D67*
X0043307Y0125512D03*
X0043307Y0110512D03*
D11*
X0127165Y0275984D03*
X0275460Y0167554D03*
X0365153Y0242721D03*
X0099479Y0335747D03*
X0079147Y0311516D03*
X0232779Y0416347D03*
X0232879Y0401047D03*
X0260728Y0381004D03*
D69*
X0010236Y0121063D03*
D11*
X0100669Y0264038D03*
X0526622Y0111319D03*
X0220866Y0418504D03*
D69*
X0010236Y0084055D03*
D11*
X0455118Y0088878D03*
X0065948Y0107717D03*
D69*
X0010236Y0337500D03*
D11*
X0150394Y0251870D03*
X0172047Y0380610D03*
X0602803Y0143224D03*
X0418504Y0147539D03*
X0318799Y0191339D03*
X0377813Y0127113D03*
X0454589Y0105557D03*
X0511811Y0092815D03*
X0340551Y0343209D03*
X0489764Y0343701D03*
D69*
X0010236Y0284055D03*
D11*
X0377716Y0091384D03*
X0518679Y0171147D03*
X0569535Y0215075D03*
X0531543Y0237713D03*
X0259449Y0231398D03*
D69*
X0010236Y0380315D03*
D11*
X0203937Y0381791D03*
X0557087Y0232579D03*
X0111811Y0023524D03*
X0531937Y0221374D03*
X0526425Y0099114D03*
X0571506Y0133447D03*
D69*
X0450394Y0452559D03*
D11*
X0029079Y0318547D03*
X0529181Y0212713D03*
D69*
X0010827Y0057185D03*
X0408957Y0452756D03*
D11*
X0375197Y0341240D03*
X0097244Y0060138D03*
X0304823Y0388976D03*
D69*
X0633465Y0126870D03*
D11*
X0504136Y0373524D03*
X0111811Y0097343D03*
D69*
X0010236Y0160531D03*
D11*
X0537402Y0006201D03*
X0527606Y0132577D03*
X0527803Y0144799D03*
D69*
X0633465Y0166339D03*
D11*
X0600779Y0171747D03*
X0355118Y0392815D03*
X0339764Y0236516D03*
X0219679Y0409047D03*
X0127848Y0183247D03*
X0492913Y0393996D03*
X0197779Y0415547D03*
X0490157Y0193996D03*
X0353937Y0340453D03*
X0120079Y0262847D03*
D69*
X0105610Y0452657D03*
D11*
X0496457Y0168406D03*
D69*
X0279331Y0452657D03*
D11*
X0336614Y0390059D03*
D69*
X0192421Y0452657D03*
X0582776Y0452756D03*
D11*
X0531740Y0229642D03*
X0277953Y0201969D03*
D69*
X0633465Y0343307D03*
D11*
X0526622Y0106398D03*
X0439079Y0171465D03*
D69*
X0495866Y0452756D03*
X0633465Y0207776D03*
D11*
X0051969Y0186516D03*
X0029079Y0328547D03*
X0046079Y0293547D03*
D69*
X0633465Y0058465D03*
D11*
X0601575Y0216043D03*
X0583071Y0010138D03*
X0555906Y0336122D03*
D69*
X0633465Y0386122D03*
D11*
X0343701Y0387697D03*
X0150079Y0286547D03*
D69*
X0633465Y0246752D03*
D11*
X0028083Y0365551D03*
X0487401Y0226270D03*
X0191339Y0380610D03*
X0324016Y0181004D03*
X0523479Y0171147D03*
X0079134Y0083760D03*
D69*
X0062795Y0452657D03*
D11*
X0605779Y0171247D03*
X0105118Y0097343D03*
X0052362Y0153051D03*
D69*
X0238878Y0452657D03*
D11*
X0118504Y0004626D03*
X0601031Y0198933D03*
X0454379Y0143147D03*
X0359843Y0347539D03*
X0289779Y0417347D03*
X0340157Y0251870D03*
X0457695Y0171373D03*
X0072079Y0295547D03*
X0107165Y0103161D03*
X0492520Y0277067D03*
D69*
X0010236Y0201969D03*
X0633465Y0089862D03*
D11*
X0154134Y0400295D03*
D69*
X0322146Y0452756D03*
X0537303Y0452559D03*
X0363976Y0452756D03*
D11*
X0117979Y0384947D03*
X0371949Y0237402D03*
X0528045Y0197213D03*
X0149079Y0266547D03*
X0350394Y0253839D03*
X0365354Y0251870D03*
X0299213Y0231396D03*
X0432185Y0344741D03*
D69*
X0010236Y0240945D03*
X0147441Y0452657D03*
D11*
X0028122Y0375591D03*
X0371879Y0200047D03*
D69*
X0633465Y0289862D03*
D11*
X0487722Y0259104D03*
X0143594Y0246752D03*
X0143886Y0287697D03*
X0108465Y0097343D03*
X0300787Y0400394D03*
X0310433Y0393307D03*
X0144254Y0096752D03*
X0135257Y0310749D03*
X0150602Y0381421D03*
X0123425Y0297638D03*
X0135827Y0325492D03*
X0229134Y0080020D03*
X0305279Y0184547D03*
X0281779Y0228747D03*
X0345669Y0350787D03*
X0379979Y0354147D03*
X0345472Y0240059D03*
X0265354Y0380791D03*
X0426181Y0166339D03*
X0422244Y0170276D03*
X0424213Y0168307D03*
X0481379Y0047647D03*
X0342717Y0281496D03*
X0343307Y0301969D03*
X0546801Y0127119D03*
X0556327Y0219654D03*
X0256386Y0156910D03*
X0250000Y0158563D03*
X0245201Y0150607D03*
X0292608Y0141642D03*
X0239579Y0080347D03*
X0237852Y0150607D03*
X0371179Y0060947D03*
X0303154Y0143161D03*
X0232776Y0158264D03*
X0223707Y0156089D03*
X0300929Y0140935D03*
X0219978Y0156098D03*
X0244199Y0138482D03*
X0296779Y0136907D03*
X0233071Y0133762D03*
X0235925Y0079331D03*
X0239900Y0133366D03*
X0183071Y0137301D03*
X0149803Y0057579D03*
X0179921Y0139665D03*
X0170079Y0137301D03*
X0147244Y0170776D03*
X0469685Y0166437D03*
X0469685Y0162894D03*
X0469685Y0169587D03*
X0341732Y0011766D03*
X0429134Y0168998D03*
X0465110Y0012010D03*
X0397919Y0166212D03*
X0378979Y0150947D03*
X0376379Y0150847D03*
X0389079Y0162147D03*
X0389079Y0164947D03*
X0381779Y0161147D03*
X0381779Y0158147D03*
X0379132Y0155413D03*
X0377279Y0160947D03*
X0422279Y0053547D03*
X0432179Y0053547D03*
X0426779Y0053547D03*
X0372441Y0151870D03*
X0372279Y0161247D03*
X0246979Y0126847D03*
X0247409Y0117628D03*
X0357087Y0164075D03*
X0357087Y0166437D03*
X0347579Y0162347D03*
X0347579Y0158947D03*
X0205807Y0097343D03*
X0278279Y0229187D03*
X0354228Y0299524D03*
X0354732Y0292313D03*
X0351868Y0293618D03*
X0351868Y0325689D03*
X0341142Y0297244D03*
X0339479Y0281247D03*
X0212545Y0081791D03*
X0175394Y0079823D03*
X0114579Y0297347D03*
X0153839Y0380474D03*
X0158779Y0135847D03*
X0132677Y0325492D03*
X0310747Y0020445D03*
X0443307Y0032579D03*
X0128346Y0325492D03*
X0124016Y0325492D03*
X0120866Y0325492D03*
X0451669Y0021461D03*
X0117323Y0325492D03*
X0454724Y0022736D03*
X0350394Y0013551D03*
X0112795Y0325492D03*
X0457618Y0021496D03*
X0108268Y0325492D03*
D81*
X0579378Y0138158D03*
D11*
X0543945Y0217240D03*
X0538433Y0119587D03*
X0507379Y0393247D03*
D81*
X0579299Y0207843D03*
D11*
X0500879Y0335647D03*
D81*
X0554673Y0127512D03*
X0554673Y0130662D03*
X0579378Y0134615D03*
X0554673Y0207056D03*
X0554673Y0210205D03*
D11*
X0538433Y0111319D03*
D81*
X0579299Y0204300D03*
D11*
X0543945Y0233776D03*
X0543945Y0225508D03*
X0538433Y0103051D03*
X0563453Y0213788D03*
X0563510Y0134615D03*
X0366380Y0318028D03*
X0261898Y0158621D03*
X0264236Y0156201D03*
X0266618Y0158462D03*
X0269291Y0156201D03*
X0270709Y0014668D03*
X0250000Y0013453D03*
X0266142Y0016831D03*
X0255512Y0013453D03*
X0457079Y0049147D03*
X0364020Y0315272D03*
X0570500Y0138158D03*
X0565382Y0203906D03*
X0569535Y0203906D03*
X0566489Y0138552D03*
X0361659Y0312516D03*
X0143736Y0249896D03*
X0409579Y0150447D03*
X0362379Y0150147D03*
X0341142Y0322441D03*
X0339979Y0331047D03*
X0413179Y0148247D03*
X0362079Y0049147D03*
X0372479Y0143647D03*
X0305479Y0092947D03*
X0348379Y0289547D03*
X0348379Y0330614D03*
X0361579Y0303147D03*
X0361279Y0237947D03*
X0295379Y0403847D03*
X0299707Y0390157D03*
X0404259Y0165967D03*
X0302756Y0034547D03*
X0298033Y0034547D03*
D87*
X0432179Y0053547D02*
X0462200Y0053547D01*
X0462300Y0053647D02*
X0466379Y0053647D01*
X0466379Y0053647D02*
X0490379Y0029647D01*
X0490379Y0029647D02*
X0518579Y0029647D01*
X0521843Y0032911D02*
X0521843Y0041307D01*
X0426779Y0053547D02*
X0422279Y0053547D01*
X0518579Y0029647D02*
X0521843Y0032911D01*
X0462200Y0053547D02*
X0462300Y0053647D01*
X0432179Y0053547D02*
X0426779Y0053547D01*
M02*
