G75*
G70*
%OFA0B0*%
%FSLAX25Y25*%
%IPPOS*%
%LPD*%
%AMOC8*
5,1,8,0,0,1.08239X$1,22.5*
%
%ADD10C,0.00787*%
%ADD105R,0.34449X0.00984*%
%ADD106R,0.24803X0.00984*%
%ADD11R,0.00787X0.17323*%
%ADD114C,0.11024*%
%ADD12R,0.04724X0.00787*%
%ADD13R,0.26772X0.00787*%
%ADD14R,0.15748X0.00787*%
%ADD15R,0.07087X0.00787*%
%ADD16R,0.00787X0.39370*%
%ADD17C,0.02362*%
%ADD18C,0.03937*%
%ADD19R,0.59449X0.00984*%
%ADD20R,0.56201X0.00984*%
%ADD21R,0.00984X0.20374*%
%ADD22R,0.00984X0.24350*%
%ADD23R,0.00984X0.04390*%
%ADD24C,0.02756*%
%ADD25C,0.11811*%
%ADD27R,0.03858X0.00984*%
%ADD30R,0.04331X0.00984*%
%ADD31R,0.00984X1.08661*%
%ADD32R,0.03740X0.00984*%
%ADD33C,0.05906*%
%ADD34O,0.66929X0.00787*%
%ADD35O,0.60630X0.00787*%
%ADD36O,0.00787X0.40157*%
%ADD37O,0.00787X0.01181*%
%ADD38O,0.00787X0.10236*%
%ADD39O,0.00787X0.05906*%
%ADD40O,0.00787X0.12992*%
%ADD41O,0.00787X0.03937*%
%ADD42O,0.00787X0.18898*%
%ADD43O,0.00787X0.04823*%
%ADD44O,0.36614X0.00787*%
%ADD45R,0.00787X0.08268*%
%ADD46R,0.36220X0.00787*%
%ADD47R,0.00787X0.48819*%
%ADD48R,0.00787X0.06299*%
%ADD49R,0.17717X0.00787*%
%ADD50R,0.00787X0.07874*%
%ADD51R,0.05512X0.00787*%
%ADD52R,0.00787X0.19291*%
%ADD53R,0.19685X0.00787*%
%ADD54R,0.00787X0.42126*%
%ADD55R,0.00787X0.09055*%
%ADD56C,0.10236*%
%ADD57C,0.14567*%
%ADD58C,0.08661*%
%ADD59C,0.06693*%
%ADD74C,0.06000*%
%ADD76C,0.07874*%
%ADD79O,0.06693X0.06693*%
%ADD80R,0.06693X0.06693*%
%ADD81O,0.04331X0.09449*%
%ADD82C,0.04331*%
%ADD83R,0.04331X0.04331*%
%ADD84C,0.03150*%
%ADD85C,0.01575*%
%ADD86C,0.01000*%
%ADD87C,0.01969*%
%ADD88C,0.01181*%
X0000000Y0000000D02*
%LPD*%
G01*
D11*
X0440945Y0373917D03*
D12*
X0442913Y0365650D03*
D13*
X0460236Y0404232D03*
X0468898Y0365650D03*
D14*
X0487008Y0404232D03*
D15*
X0491339Y0365650D03*
D16*
X0494488Y0384941D03*
D17*
X0444882Y0403445D03*
D18*
X0476378Y0402657D03*
X0448031Y0367224D03*
X0452756Y0367224D03*
X0485039Y0367224D03*
D17*
X0441732Y0403445D03*
X0441732Y0400295D03*
X0441732Y0397146D03*
X0441732Y0393996D03*
X0441732Y0390846D03*
X0441732Y0387697D03*
X0441732Y0384547D03*
X0393344Y0118156D03*
X0393344Y0122880D03*
X0393344Y0113431D03*
X0393344Y0108707D03*
D19*
X0421789Y0144731D03*
D20*
X0423413Y0107526D03*
D21*
X0392557Y0135036D03*
D23*
X0451021Y0143028D03*
D22*
X0451021Y0119209D03*
D17*
X0450135Y0134140D03*
X0450135Y0138077D03*
D24*
X0073602Y0153760D03*
X0085413Y0153760D03*
X0081476Y0153760D03*
X0077539Y0153760D03*
D105*
X0105197Y0152283D03*
D106*
X0079705Y0259961D03*
D27*
X0103169Y0259961D03*
D30*
X0120256Y0259961D03*
D31*
X0067795Y0206122D03*
D32*
X0069173Y0152283D03*
D30*
X0120256Y0259961D03*
D31*
X0121929Y0206122D03*
D24*
X0111594Y0258450D03*
X0107657Y0258450D03*
X0094681Y0258450D03*
X0098681Y0258450D03*
X0115531Y0258450D03*
D33*
X0368567Y0245323D03*
X0368567Y0220126D03*
X0368567Y0212646D03*
X0368567Y0195717D03*
D17*
X0370339Y0186268D03*
X0370339Y0182331D03*
D34*
X0338055Y0168552D03*
D38*
X0371126Y0203985D03*
D36*
X0304984Y0196701D03*
D42*
X0371126Y0232922D03*
D41*
X0371126Y0190205D03*
D40*
X0304984Y0230166D03*
D33*
X0368567Y0171111D03*
D37*
X0371126Y0249457D03*
D35*
X0341205Y0249654D03*
D39*
X0371126Y0177213D03*
D37*
X0304984Y0168748D03*
D33*
X0307543Y0247095D03*
X0307543Y0239811D03*
X0307543Y0220323D03*
X0307543Y0172882D03*
D17*
X0125197Y0134941D03*
D44*
X0108071Y0137303D03*
D43*
X0090157Y0127165D03*
D17*
X0125197Y0131201D03*
D44*
X0108071Y0125098D03*
D17*
X0125197Y0127461D03*
X0090945Y0131398D03*
X0090945Y0134941D03*
X0319734Y0378627D03*
X0319734Y0375478D03*
X0319734Y0372328D03*
X0319734Y0369179D03*
X0319734Y0366029D03*
X0319734Y0362879D03*
X0319734Y0359730D03*
X0319734Y0356580D03*
X0319734Y0353431D03*
X0319734Y0350281D03*
X0319734Y0347131D03*
X0319734Y0343982D03*
X0319734Y0340832D03*
X0319734Y0337683D03*
X0319734Y0334533D03*
X0319734Y0331383D03*
X0319734Y0328234D03*
X0319734Y0325084D03*
X0319734Y0321935D03*
X0319734Y0318785D03*
X0319734Y0315635D03*
X0319734Y0312486D03*
X0319734Y0309336D03*
X0319734Y0306187D03*
X0319734Y0303037D03*
X0319734Y0299887D03*
X0319734Y0296738D03*
X0319734Y0293588D03*
X0319734Y0290438D03*
X0319734Y0287289D03*
X0319734Y0284139D03*
X0319734Y0280990D03*
X0319734Y0277840D03*
X0319734Y0274690D03*
X0319734Y0271541D03*
X0319734Y0268391D03*
X0319734Y0245163D03*
X0319734Y0242013D03*
D48*
X0320522Y0383746D03*
D49*
X0239616Y0389651D03*
D50*
X0320522Y0236108D03*
D53*
X0167372Y0389651D03*
D47*
X0154774Y0273509D03*
D46*
X0199262Y0389651D03*
D51*
X0161860Y0232564D03*
D45*
X0154774Y0333549D03*
D54*
X0154774Y0365832D03*
D55*
X0154774Y0236698D03*
D52*
X0320522Y0256777D03*
D17*
X0319734Y0388864D03*
X0316585Y0388864D03*
X0313435Y0388864D03*
X0310285Y0388864D03*
X0307136Y0388864D03*
X0303986Y0388864D03*
X0300837Y0388864D03*
X0297687Y0388864D03*
X0294537Y0388864D03*
X0291388Y0388864D03*
X0288238Y0388864D03*
X0285089Y0388864D03*
X0281939Y0388864D03*
X0278789Y0388864D03*
X0275640Y0388864D03*
X0272490Y0388864D03*
X0269341Y0388864D03*
X0266191Y0388864D03*
X0263041Y0388864D03*
X0259892Y0388864D03*
X0256742Y0388864D03*
X0253593Y0388864D03*
X0250443Y0388864D03*
X0228789Y0388864D03*
X0225640Y0388864D03*
X0222490Y0388864D03*
X0219341Y0388864D03*
X0179183Y0388864D03*
X0155561Y0388864D03*
X0317372Y0233352D03*
X0312648Y0233352D03*
X0307923Y0233352D03*
X0303199Y0233352D03*
X0298474Y0233352D03*
X0294144Y0233352D03*
X0289419Y0233352D03*
X0284695Y0233352D03*
X0279971Y0233352D03*
X0275246Y0233352D03*
X0270522Y0233352D03*
X0265797Y0233352D03*
X0261073Y0233352D03*
X0256348Y0233352D03*
X0251624Y0233352D03*
X0246900Y0233352D03*
X0242175Y0233352D03*
X0237451Y0233352D03*
X0232726Y0233352D03*
X0228002Y0233352D03*
X0223278Y0233352D03*
X0218553Y0233352D03*
X0213829Y0233352D03*
X0209104Y0233352D03*
X0204380Y0233352D03*
X0199656Y0233352D03*
X0194931Y0233352D03*
X0190207Y0233352D03*
X0185482Y0233352D03*
X0180758Y0233352D03*
X0176033Y0233352D03*
X0171309Y0233352D03*
X0166585Y0233352D03*
X0157136Y0233352D03*
X0155561Y0243194D03*
X0155561Y0247131D03*
X0155561Y0299887D03*
X0155561Y0303824D03*
X0155561Y0307761D03*
X0155561Y0311698D03*
X0155561Y0315635D03*
X0155561Y0319572D03*
X0155561Y0323509D03*
X0155561Y0327446D03*
X0155561Y0339651D03*
X0155561Y0342801D03*
D56*
X0545071Y0073315D03*
X0521843Y0073315D03*
X0499008Y0073315D03*
X0533654Y0050480D03*
X0510425Y0050480D03*
X0545071Y0041307D03*
X0521843Y0041307D03*
X0499008Y0041307D03*
D33*
X0468181Y0073315D03*
X0458181Y0073315D03*
X0448181Y0073315D03*
X0438181Y0073315D03*
X0428181Y0073315D03*
X0418181Y0073315D03*
X0408181Y0073315D03*
X0398181Y0073315D03*
X0468181Y0063315D03*
X0458181Y0063315D03*
X0448181Y0063315D03*
X0438181Y0063315D03*
X0428181Y0063315D03*
X0418181Y0063315D03*
X0408181Y0063315D03*
X0398181Y0063315D03*
X0468181Y0039496D03*
X0458181Y0039496D03*
X0448181Y0039496D03*
X0438181Y0039496D03*
X0428181Y0039496D03*
X0418181Y0039496D03*
X0408181Y0039496D03*
X0398181Y0039496D03*
X0468181Y0029496D03*
X0458181Y0029496D03*
X0448181Y0029496D03*
X0438181Y0029496D03*
X0428181Y0029496D03*
X0418181Y0029496D03*
X0408181Y0029496D03*
X0398181Y0029496D03*
X0155307Y0029496D03*
X0165307Y0029496D03*
X0175307Y0029496D03*
X0185307Y0029496D03*
X0195307Y0029496D03*
X0205307Y0029496D03*
X0215307Y0029496D03*
X0225307Y0029496D03*
X0235307Y0029496D03*
X0245307Y0029496D03*
X0255307Y0029496D03*
X0265307Y0029496D03*
X0275307Y0029496D03*
X0285307Y0029496D03*
X0295307Y0029496D03*
X0305307Y0029496D03*
X0315307Y0029496D03*
X0325307Y0029496D03*
X0335307Y0029496D03*
X0155307Y0039496D03*
X0165307Y0039496D03*
X0175307Y0039496D03*
X0185307Y0039496D03*
X0195307Y0039496D03*
X0205307Y0039496D03*
X0215307Y0039496D03*
X0225307Y0039496D03*
X0235307Y0039496D03*
X0245307Y0039496D03*
X0255307Y0039496D03*
X0265307Y0039496D03*
X0275307Y0039496D03*
X0285307Y0039496D03*
X0295307Y0039496D03*
X0305307Y0039496D03*
X0315307Y0039496D03*
X0325307Y0039496D03*
X0335307Y0039496D03*
X0155307Y0063315D03*
X0165307Y0063315D03*
X0175307Y0063315D03*
X0185307Y0063315D03*
X0195307Y0063315D03*
X0205307Y0063315D03*
X0215307Y0063315D03*
X0225307Y0063315D03*
X0235307Y0063315D03*
X0245307Y0063315D03*
X0255307Y0063315D03*
X0265307Y0063315D03*
X0275307Y0063315D03*
X0285307Y0063315D03*
X0295307Y0063315D03*
X0305307Y0063315D03*
X0315307Y0063315D03*
X0325307Y0063315D03*
X0335307Y0063315D03*
X0155307Y0073315D03*
X0165307Y0073315D03*
X0175307Y0073315D03*
X0185307Y0073315D03*
X0195307Y0073315D03*
X0205307Y0073315D03*
X0215307Y0073315D03*
X0225307Y0073315D03*
X0235307Y0073315D03*
X0245307Y0073315D03*
X0255307Y0073315D03*
X0265307Y0073315D03*
X0275307Y0073315D03*
X0285307Y0073315D03*
X0295307Y0073315D03*
X0305307Y0073315D03*
X0315307Y0073315D03*
X0325307Y0073315D03*
X0335307Y0073315D03*
D56*
X0124205Y0073315D03*
X0101370Y0073315D03*
X0112787Y0050480D03*
X0124205Y0041307D03*
X0101370Y0041307D03*
D57*
X0572236Y0021622D03*
D58*
X0562591Y0052331D03*
D57*
X0366724Y0021622D03*
D58*
X0083063Y0052331D03*
D57*
X0073417Y0021622D03*
D59*
X0175000Y0154327D03*
X0590000Y0287598D03*
X0590000Y0297598D03*
X0590000Y0307598D03*
X0590000Y0317598D03*
X0590000Y0327598D03*
X0600000Y0287598D03*
X0600000Y0297598D03*
X0600000Y0307598D03*
X0600000Y0317598D03*
X0600000Y0327598D03*
X0610000Y0287598D03*
X0610000Y0297598D03*
X0610000Y0307598D03*
X0610000Y0317598D03*
X0610000Y0327598D03*
X0225197Y0111319D03*
D17*
X0127982Y0369741D03*
X0135206Y0368068D03*
X0127135Y0365902D03*
X0127982Y0362458D03*
X0128277Y0359111D03*
X0135206Y0357831D03*
X0130049Y0352713D03*
X0135206Y0350154D03*
X0111879Y0378402D03*
X0127923Y0377221D03*
D59*
X0199508Y0154228D03*
X0160138Y0128642D03*
X0302145Y0118947D03*
X0267717Y0147146D03*
X0460379Y0134747D03*
X0312676Y0118947D03*
X0272835Y0100886D03*
X0262106Y0100591D03*
D74*
X0034252Y0125315D03*
X0034252Y0110315D03*
D59*
X0590000Y0340000D03*
X0590000Y0350000D03*
X0590000Y0360000D03*
X0590000Y0370000D03*
X0590000Y0380000D03*
X0600000Y0340000D03*
X0600000Y0350000D03*
X0600000Y0360000D03*
X0600000Y0370000D03*
X0600000Y0380000D03*
X0610000Y0340000D03*
X0610000Y0350000D03*
X0610000Y0360000D03*
X0610000Y0370000D03*
X0610000Y0380000D03*
D74*
X0214961Y0103524D03*
X0214961Y0118524D03*
D59*
X0341634Y0100689D03*
X0210630Y0154228D03*
X0291712Y0118947D03*
X0180807Y0128642D03*
D74*
X0190354Y0117933D03*
X0190354Y0102933D03*
X0488484Y0105413D03*
X0488484Y0124705D03*
D59*
X0323279Y0118947D03*
X0281279Y0118947D03*
X0356299Y0158760D03*
X0285925Y0100689D03*
D74*
X0052362Y0125512D03*
X0052362Y0110512D03*
D59*
X0251083Y0100886D03*
D74*
X0203150Y0102933D03*
X0203150Y0117933D03*
D59*
X0215679Y0128647D03*
X0270846Y0118947D03*
X0331594Y0100689D03*
X0344279Y0118947D03*
X0153543Y0113681D03*
D79*
X0051969Y0260827D03*
X0051969Y0250827D03*
X0051969Y0240827D03*
X0051969Y0230827D03*
X0051969Y0220827D03*
D80*
X0051969Y0210827D03*
D59*
X0570472Y0411811D03*
X0570472Y0401811D03*
X0570472Y0391811D03*
X0570472Y0381811D03*
X0570472Y0371811D03*
X0560472Y0411811D03*
X0560472Y0401811D03*
X0560472Y0391811D03*
X0560472Y0381811D03*
X0560472Y0371811D03*
X0550472Y0411811D03*
X0550472Y0401811D03*
X0550472Y0391811D03*
X0550472Y0381811D03*
X0550472Y0371811D03*
X0188189Y0154232D03*
D74*
X0182382Y0103012D03*
X0182382Y0118012D03*
D59*
X0170079Y0128642D03*
D74*
X0061417Y0125512D03*
X0061417Y0110512D03*
X0499902Y0105413D03*
X0499902Y0124705D03*
D59*
X0590000Y0234803D03*
X0590000Y0244803D03*
X0590000Y0254803D03*
X0590000Y0264803D03*
X0590000Y0274803D03*
X0600000Y0234803D03*
X0600000Y0244803D03*
X0600000Y0254803D03*
X0600000Y0264803D03*
X0600000Y0274803D03*
X0610000Y0234803D03*
X0610000Y0244803D03*
X0610000Y0254803D03*
X0610000Y0264803D03*
X0610000Y0274803D03*
X0304479Y0162847D03*
G36*
G01*
X0367478Y0406932D02*
X0367478Y0406932D01*
G75*
G02*
X0374159Y0406932I0003341J-003341D01*
G01*
X0375829Y0405261D01*
G75*
G02*
X0375829Y0398580I-003341J-003341D01*
G01*
X0375829Y0398580D01*
G75*
G02*
X0369148Y0398580I-003341J0003341D01*
G01*
X0367478Y0400250D01*
G75*
G02*
X0367478Y0406932I0003341J0003341D01*
G01*
G37*
G36*
G01*
X0374958Y0415593D02*
X0374958Y0415593D01*
G75*
G02*
X0381639Y0415593I0003341J-003341D01*
G01*
X0383310Y0413923D01*
G75*
G02*
X0383310Y0407241I-003341J-003341D01*
G01*
X0383310Y0407241D01*
G75*
G02*
X0376628Y0407241I-003341J0003341D01*
G01*
X0374958Y0408912D01*
G75*
G02*
X0374958Y0415593I0003341J0003341D01*
G01*
G37*
G36*
G01*
X0399367Y0415593D02*
X0399367Y0415593D01*
G75*
G02*
X0406049Y0415593I0003341J-003341D01*
G01*
X0407719Y0413923D01*
G75*
G02*
X0407719Y0407241I-003341J-003341D01*
G01*
X0407719Y0407241D01*
G75*
G02*
X0401038Y0407241I-003341J0003341D01*
G01*
X0399367Y0408912D01*
G75*
G02*
X0399367Y0415593I0003341J0003341D01*
G01*
G37*
G36*
G01*
X0389525Y0406932D02*
X0389525Y0406932D01*
G75*
G02*
X0396206Y0406932I0003341J-003341D01*
G01*
X0397877Y0405261D01*
G75*
G02*
X0397877Y0398580I-003341J-003341D01*
G01*
X0397877Y0398580D01*
G75*
G02*
X0391195Y0398580I-003341J0003341D01*
G01*
X0389525Y0400250D01*
G75*
G02*
X0389525Y0406932I0003341J0003341D01*
G01*
G37*
G36*
G01*
X0352911Y0415593D02*
X0352911Y0415593D01*
G75*
G02*
X0359592Y0415593I0003341J-003341D01*
G01*
X0361262Y0413923D01*
G75*
G02*
X0361262Y0407241I-003341J-003341D01*
G01*
X0361262Y0407241D01*
G75*
G02*
X0354581Y0407241I-003341J0003341D01*
G01*
X0352911Y0408912D01*
G75*
G02*
X0352911Y0415593I0003341J0003341D01*
G01*
G37*
X0310531Y0100689D03*
X0202165Y0128543D03*
X0191535Y0128543D03*
D80*
X0288504Y0391732D03*
D79*
X0278504Y0391732D03*
X0268504Y0391732D03*
X0258504Y0391732D03*
X0248504Y0391732D03*
X0238504Y0391732D03*
X0228504Y0391732D03*
X0218504Y0391732D03*
D59*
X0333679Y0118947D03*
D74*
X0164567Y0117756D03*
X0164567Y0102756D03*
D59*
X0317879Y0168447D03*
X0296752Y0100689D03*
X0321161Y0100689D03*
D81*
X0341339Y0406201D03*
X0312598Y0406201D03*
D82*
X0333268Y0402756D03*
X0330118Y0409646D03*
X0326969Y0402756D03*
X0323819Y0409646D03*
D83*
X0320669Y0402756D03*
D59*
X0260413Y0118947D03*
X0153543Y0101870D03*
D74*
X0043307Y0125512D03*
X0043307Y0110512D03*
D17*
X0127165Y0275984D03*
X0275460Y0167554D03*
X0365153Y0242721D03*
X0099479Y0335747D03*
X0079147Y0311516D03*
X0232779Y0416347D03*
X0232879Y0401047D03*
X0260728Y0381004D03*
D76*
X0010236Y0121063D03*
D17*
X0100669Y0264038D03*
X0526622Y0111319D03*
X0220866Y0418504D03*
D76*
X0010236Y0084055D03*
D17*
X0455118Y0088878D03*
X0065948Y0107717D03*
D76*
X0010236Y0337500D03*
D17*
X0150394Y0251870D03*
X0172047Y0380610D03*
X0602803Y0143224D03*
X0418504Y0147539D03*
X0318799Y0191339D03*
X0377813Y0127113D03*
X0454589Y0105557D03*
X0511811Y0092815D03*
X0340551Y0343209D03*
X0489764Y0343701D03*
D76*
X0010236Y0284055D03*
D17*
X0377716Y0091384D03*
X0518679Y0171147D03*
X0569535Y0215075D03*
X0531543Y0237713D03*
X0259449Y0231398D03*
D76*
X0010236Y0380315D03*
D17*
X0203937Y0381791D03*
X0557087Y0232579D03*
X0111811Y0023524D03*
X0531937Y0221374D03*
X0526425Y0099114D03*
X0571506Y0133447D03*
D76*
X0450394Y0452559D03*
D17*
X0029079Y0318547D03*
X0529181Y0212713D03*
D76*
X0010827Y0057185D03*
X0408957Y0452756D03*
D17*
X0375197Y0341240D03*
X0097244Y0060138D03*
X0304823Y0388976D03*
D76*
X0633465Y0126870D03*
D17*
X0504136Y0373524D03*
X0111811Y0097343D03*
D76*
X0010236Y0160531D03*
D17*
X0537402Y0006201D03*
X0527606Y0132577D03*
X0527803Y0144799D03*
D76*
X0633465Y0166339D03*
D17*
X0600779Y0171747D03*
X0355118Y0392815D03*
X0339764Y0236516D03*
X0219679Y0409047D03*
X0127848Y0183247D03*
X0492913Y0393996D03*
X0197779Y0415547D03*
X0490157Y0193996D03*
X0353937Y0340453D03*
X0120079Y0262847D03*
D76*
X0105610Y0452657D03*
D17*
X0496457Y0168406D03*
D76*
X0279331Y0452657D03*
D17*
X0336614Y0390059D03*
D76*
X0192421Y0452657D03*
X0582776Y0452756D03*
D17*
X0531740Y0229642D03*
X0277953Y0201969D03*
D76*
X0633465Y0343307D03*
D17*
X0526622Y0106398D03*
X0439079Y0171465D03*
D76*
X0495866Y0452756D03*
X0633465Y0207776D03*
D17*
X0051969Y0186516D03*
X0029079Y0328547D03*
X0046079Y0293547D03*
D76*
X0633465Y0058465D03*
D17*
X0601575Y0216043D03*
X0583071Y0010138D03*
X0555906Y0336122D03*
D76*
X0633465Y0386122D03*
D17*
X0343701Y0387697D03*
X0150079Y0286547D03*
D76*
X0633465Y0246752D03*
D17*
X0028083Y0365551D03*
X0487401Y0226270D03*
X0191339Y0380610D03*
X0324016Y0181004D03*
X0523479Y0171147D03*
X0079134Y0083760D03*
D76*
X0062795Y0452657D03*
D17*
X0605779Y0171247D03*
X0105118Y0097343D03*
X0052362Y0153051D03*
D76*
X0238878Y0452657D03*
D17*
X0118504Y0004626D03*
X0601031Y0198933D03*
X0454379Y0143147D03*
X0359843Y0347539D03*
X0289779Y0417347D03*
X0340157Y0251870D03*
X0457695Y0171373D03*
X0072079Y0295547D03*
X0107165Y0103161D03*
X0492520Y0277067D03*
D76*
X0010236Y0201969D03*
X0633465Y0089862D03*
D17*
X0154134Y0400295D03*
D76*
X0322146Y0452756D03*
X0537303Y0452559D03*
X0363976Y0452756D03*
D17*
X0117979Y0384947D03*
X0371949Y0237402D03*
X0528045Y0197213D03*
X0149079Y0266547D03*
X0350394Y0253839D03*
X0365354Y0251870D03*
X0299213Y0231396D03*
X0432185Y0344741D03*
D76*
X0010236Y0240945D03*
X0147441Y0452657D03*
D17*
X0028122Y0375591D03*
X0371879Y0200047D03*
D76*
X0633465Y0289862D03*
D17*
X0487722Y0259104D03*
X0143594Y0246752D03*
X0143886Y0287697D03*
X0108465Y0097343D03*
X0300787Y0400394D03*
X0310433Y0393307D03*
X0144254Y0096752D03*
X0135257Y0310749D03*
X0150602Y0381421D03*
X0123425Y0297638D03*
X0135827Y0325492D03*
X0229134Y0080020D03*
X0305279Y0184547D03*
X0281779Y0228747D03*
X0345669Y0350787D03*
X0379979Y0354147D03*
X0345472Y0240059D03*
X0265354Y0380791D03*
X0426181Y0166339D03*
X0422244Y0170276D03*
X0424213Y0168307D03*
X0481379Y0047647D03*
X0342717Y0281496D03*
X0343307Y0301969D03*
X0546801Y0127119D03*
X0556327Y0219654D03*
X0256386Y0156910D03*
X0250000Y0158563D03*
X0245201Y0150607D03*
X0292608Y0141642D03*
X0239579Y0080347D03*
X0237852Y0150607D03*
X0371179Y0060947D03*
X0303154Y0143161D03*
X0232776Y0158264D03*
X0223707Y0156089D03*
X0300929Y0140935D03*
X0219978Y0156098D03*
X0244199Y0138482D03*
X0296779Y0136907D03*
X0233071Y0133762D03*
X0235925Y0079331D03*
X0239900Y0133366D03*
X0183071Y0137301D03*
X0149803Y0057579D03*
X0179921Y0139665D03*
X0170079Y0137301D03*
X0147244Y0170776D03*
X0469685Y0166437D03*
X0469685Y0162894D03*
X0469685Y0169587D03*
X0341732Y0011766D03*
X0429134Y0168998D03*
X0465110Y0012010D03*
X0397919Y0166212D03*
X0378979Y0150947D03*
X0376379Y0150847D03*
X0389079Y0162147D03*
X0389079Y0164947D03*
X0381779Y0161147D03*
X0381779Y0158147D03*
X0379132Y0155413D03*
X0377279Y0160947D03*
X0422279Y0053547D03*
X0432179Y0053547D03*
X0426779Y0053547D03*
X0372441Y0151870D03*
X0372279Y0161247D03*
X0246979Y0126847D03*
X0247409Y0117628D03*
X0357087Y0164075D03*
X0357087Y0166437D03*
X0347579Y0162347D03*
X0347579Y0158947D03*
X0205807Y0097343D03*
X0278279Y0229187D03*
X0354228Y0299524D03*
X0354732Y0292313D03*
X0351868Y0293618D03*
X0351868Y0325689D03*
X0341142Y0297244D03*
X0339479Y0281247D03*
X0212545Y0081791D03*
X0175394Y0079823D03*
X0114579Y0297347D03*
X0153839Y0380474D03*
X0158779Y0135847D03*
X0132677Y0325492D03*
X0310747Y0020445D03*
X0443307Y0032579D03*
X0128346Y0325492D03*
X0124016Y0325492D03*
X0120866Y0325492D03*
X0451669Y0021461D03*
X0117323Y0325492D03*
X0454724Y0022736D03*
X0350394Y0013551D03*
X0112795Y0325492D03*
X0457618Y0021496D03*
X0108268Y0325492D03*
D84*
X0579378Y0138158D03*
D17*
X0543945Y0217240D03*
X0538433Y0119587D03*
X0507379Y0393247D03*
D84*
X0579299Y0207843D03*
D17*
X0500879Y0335647D03*
D84*
X0554673Y0127512D03*
X0554673Y0130662D03*
X0579378Y0134615D03*
X0554673Y0207056D03*
X0554673Y0210205D03*
D17*
X0538433Y0111319D03*
D84*
X0579299Y0204300D03*
D17*
X0543945Y0233776D03*
X0543945Y0225508D03*
X0538433Y0103051D03*
X0563453Y0213788D03*
X0563510Y0134615D03*
X0366380Y0318028D03*
X0261898Y0158621D03*
X0264236Y0156201D03*
X0266618Y0158462D03*
X0269291Y0156201D03*
X0270709Y0014668D03*
X0250000Y0013453D03*
X0266142Y0016831D03*
X0255512Y0013453D03*
X0457079Y0049147D03*
X0364020Y0315272D03*
X0570500Y0138158D03*
X0565382Y0203906D03*
X0569535Y0203906D03*
X0566489Y0138552D03*
X0361659Y0312516D03*
X0143736Y0249896D03*
X0409579Y0150447D03*
X0362379Y0150147D03*
X0341142Y0322441D03*
X0339979Y0331047D03*
X0413179Y0148247D03*
X0362079Y0049147D03*
X0372479Y0143647D03*
X0305479Y0092947D03*
X0348379Y0289547D03*
X0348379Y0330614D03*
X0361579Y0303147D03*
X0361279Y0237947D03*
X0295379Y0403847D03*
X0299707Y0390157D03*
X0404259Y0165967D03*
X0302756Y0034547D03*
X0298033Y0034547D03*
D87*
X0189234Y0385054D02*
X0185974Y0388314D01*
X0111594Y0258484D02*
X0111594Y0269232D01*
D18*
X0346879Y0358247D02*
X0340479Y0364647D01*
X0510779Y0358247D02*
X0368979Y0358247D01*
X0202579Y0409847D02*
X0200814Y0411612D01*
X0333913Y0384939D02*
X0214518Y0384939D01*
X0370315Y0247884D02*
X0370315Y0356911D01*
D87*
X0368942Y0113384D02*
X0368942Y0121868D01*
D18*
X0295116Y0218947D02*
X0292441Y0221622D01*
X0365079Y0242647D02*
X0357879Y0242647D01*
D87*
X0127165Y0275984D02*
X0118347Y0275984D01*
X0118347Y0275984D02*
X0099479Y0294853D01*
D18*
X0354774Y0362952D02*
X0354774Y0373032D01*
D87*
X0275460Y0167628D02*
X0275460Y0167554D01*
X0099479Y0294853D02*
X0094587Y0289961D01*
D18*
X0202579Y0396879D02*
X0202579Y0409847D01*
X0550472Y0401811D02*
X0576215Y0401811D01*
X0340479Y0364647D02*
X0340479Y0378374D01*
X0117679Y0397347D02*
X0099479Y0379147D01*
X0357879Y0242647D02*
X0343479Y0228247D01*
D87*
X0099479Y0335747D02*
X0099479Y0294853D01*
D18*
X0370315Y0356911D02*
X0368979Y0358247D01*
X0359479Y0358247D02*
X0346879Y0358247D01*
X0099479Y0379147D02*
X0099479Y0335747D01*
X0368979Y0358247D02*
X0359479Y0358247D01*
X0343479Y0228247D02*
X0313779Y0228247D01*
D87*
X0214404Y0385054D02*
X0189234Y0385054D01*
D18*
X0365079Y0242647D02*
X0370315Y0247884D01*
D87*
X0275479Y0167647D02*
X0275460Y0167628D01*
X0288379Y0165447D02*
X0282979Y0165447D01*
D18*
X0340479Y0378374D02*
X0333913Y0384939D01*
X0304479Y0218947D02*
X0295116Y0218947D01*
X0580379Y0397647D02*
X0580379Y0365647D01*
X0576215Y0401811D02*
X0580379Y0397647D01*
X0214518Y0384939D02*
X0214404Y0385054D01*
D87*
X0277679Y0165447D02*
X0275479Y0167647D01*
X0368942Y0121868D02*
X0335299Y0155511D01*
X0282979Y0165447D02*
X0277679Y0165447D01*
X0381139Y0106050D02*
X0376276Y0106050D01*
X0282979Y0165447D02*
X0279479Y0165447D01*
D18*
X0154944Y0411612D02*
X0140679Y0397347D01*
X0512679Y0356347D02*
X0510779Y0358247D01*
X0313779Y0228247D02*
X0304479Y0218947D01*
X0580379Y0365647D02*
X0571079Y0356347D01*
D87*
X0298315Y0155511D02*
X0288379Y0165447D01*
X0335299Y0155511D02*
X0298315Y0155511D01*
D18*
X0140679Y0397347D02*
X0117679Y0397347D01*
X0359479Y0358247D02*
X0354774Y0362952D01*
X0200814Y0411612D02*
X0154944Y0411612D01*
X0214404Y0385054D02*
X0202579Y0396879D01*
D87*
X0376276Y0106050D02*
X0368942Y0113384D01*
D18*
X0571079Y0356347D02*
X0512679Y0356347D01*
D87*
X0111594Y0269232D02*
X0118347Y0275984D01*
X0139779Y0404975D02*
X0119507Y0404975D01*
X0492379Y0426447D02*
X0527015Y0391811D01*
X0233979Y0426447D02*
X0232879Y0425347D01*
X0233979Y0426447D02*
X0161251Y0426447D01*
X0232879Y0400747D02*
X0232879Y0401047D01*
X0079779Y0365247D02*
X0079779Y0312147D01*
X0119507Y0404975D02*
X0079779Y0365247D01*
X0079779Y0312147D02*
X0079147Y0311516D01*
X0161251Y0426447D02*
X0139779Y0404975D01*
X0233979Y0426447D02*
X0492379Y0426447D01*
X0527015Y0391811D02*
X0570472Y0391811D01*
X0232879Y0425347D02*
X0232879Y0400747D01*
D10*
X0135827Y0317974D02*
X0141232Y0312569D01*
X0311725Y0022808D02*
X0314929Y0019604D01*
X0142520Y0032579D02*
X0151181Y0023917D01*
X0141232Y0096433D02*
X0142520Y0095146D01*
X0142520Y0095146D02*
X0142520Y0032579D01*
X0308139Y0021179D02*
X0309768Y0022808D01*
X0434047Y0031587D02*
X0437823Y0035362D01*
X0314929Y0019604D02*
X0342846Y0019604D01*
X0280714Y0021179D02*
X0308139Y0021179D01*
X0151181Y0023917D02*
X0277976Y0023917D01*
X0437823Y0035362D02*
X0444047Y0035362D01*
X0444047Y0035362D02*
X0448181Y0039496D01*
X0141232Y0312569D02*
X0141232Y0096433D01*
X0309768Y0022808D02*
X0311725Y0022808D01*
X0379516Y0034941D02*
X0395658Y0018799D01*
X0434047Y0028831D02*
X0434047Y0031587D01*
X0342846Y0019604D02*
X0358183Y0034941D01*
X0277976Y0023917D02*
X0280714Y0021179D01*
X0358183Y0034941D02*
X0379516Y0034941D01*
X0135827Y0325492D02*
X0135827Y0317974D01*
X0424016Y0018799D02*
X0434047Y0028831D01*
X0395658Y0018799D02*
X0424016Y0018799D01*
D85*
X0354757Y0051903D02*
X0376739Y0051903D01*
X0315307Y0063315D02*
X0320398Y0068406D01*
X0394094Y0034547D02*
X0403232Y0034547D01*
X0225307Y0058019D02*
X0225307Y0063315D01*
X0255779Y0055247D02*
X0228079Y0055247D01*
X0320472Y0037697D02*
X0324016Y0034154D01*
X0376739Y0051903D02*
X0394094Y0034547D01*
X0326772Y0068406D02*
X0330315Y0064862D01*
X0330315Y0054626D02*
X0320472Y0044783D01*
X0255307Y0055719D02*
X0255779Y0055247D01*
X0403232Y0034547D02*
X0408181Y0039496D01*
X0330315Y0064862D02*
X0330315Y0054626D01*
X0307239Y0055247D02*
X0275979Y0055247D01*
X0324016Y0034154D02*
X0337008Y0034154D01*
X0275307Y0039496D02*
X0275307Y0054576D01*
X0275307Y0054576D02*
X0275979Y0055247D01*
X0315307Y0063315D02*
X0307239Y0055247D01*
X0255307Y0063315D02*
X0255307Y0055719D01*
X0320472Y0044783D02*
X0320472Y0037697D01*
X0337008Y0034154D02*
X0354757Y0051903D01*
X0275979Y0055247D02*
X0255779Y0055247D01*
X0320398Y0068406D02*
X0326772Y0068406D01*
X0228079Y0055247D02*
X0225307Y0058019D01*
D87*
X0477479Y0092326D02*
X0483920Y0085885D01*
X0422244Y0170276D02*
X0426181Y0166339D01*
X0426472Y0166047D02*
X0455479Y0166047D01*
X0477479Y0144047D02*
X0477479Y0092326D01*
X0483920Y0050188D02*
X0481379Y0047647D01*
X0455479Y0166047D02*
X0477479Y0144047D01*
X0483920Y0085885D02*
X0483920Y0050188D01*
X0426181Y0166339D02*
X0426472Y0166047D01*
D10*
X0381139Y0109199D02*
X0380327Y0109199D01*
X0317806Y0157674D02*
X0309652Y0157674D01*
X0380327Y0109199D02*
X0371106Y0118420D01*
X0371106Y0118420D02*
X0371106Y0122764D01*
X0371106Y0122764D02*
X0336195Y0157674D01*
X0309652Y0157674D02*
X0304479Y0162847D01*
X0336195Y0157674D02*
X0317806Y0157674D01*
X0371379Y0060747D02*
X0382079Y0060747D01*
X0389779Y0068447D02*
X0423049Y0068447D01*
X0371179Y0060947D02*
X0371379Y0060747D01*
X0423049Y0068447D02*
X0428181Y0063315D01*
X0382079Y0060747D02*
X0389779Y0068447D01*
X0380168Y0036516D02*
X0357531Y0036516D01*
X0300394Y0027067D02*
X0300394Y0043996D01*
X0317406Y0055413D02*
X0325307Y0063315D01*
X0303078Y0024382D02*
X0300394Y0027067D01*
X0311811Y0055413D02*
X0317406Y0055413D01*
X0312378Y0024382D02*
X0303078Y0024382D01*
X0315581Y0021179D02*
X0312378Y0024382D01*
X0396310Y0020374D02*
X0380168Y0036516D01*
X0342194Y0021179D02*
X0315581Y0021179D01*
X0428181Y0029496D02*
X0419059Y0020374D01*
X0357531Y0036516D02*
X0342194Y0021179D01*
X0419059Y0020374D02*
X0396310Y0020374D01*
X0300394Y0043996D02*
X0311811Y0055413D01*
X0289445Y0161319D02*
X0156701Y0161319D01*
X0398181Y0073315D02*
X0372187Y0073315D01*
X0360406Y0125120D02*
X0332180Y0153346D01*
X0360406Y0085096D02*
X0360406Y0125120D01*
X0372187Y0073315D02*
X0360406Y0085096D01*
X0156701Y0161319D02*
X0147244Y0170776D01*
X0332180Y0153346D02*
X0297418Y0153346D01*
X0297418Y0153346D02*
X0289445Y0161319D01*
D86*
X0479600Y0027069D02*
X0479600Y0039169D01*
X0465110Y0012010D02*
X0465110Y0012579D01*
X0486379Y0087647D02*
X0480279Y0093747D01*
X0480279Y0145747D02*
X0457028Y0168998D01*
X0486379Y0045947D02*
X0486379Y0087647D01*
X0480279Y0093747D02*
X0480279Y0145747D01*
X0465110Y0012579D02*
X0479600Y0027069D01*
X0479600Y0039169D02*
X0486379Y0045947D01*
X0457028Y0168998D02*
X0429134Y0168998D01*
D87*
X0471633Y0141393D02*
X0471633Y0090383D01*
X0391379Y0159847D02*
X0453179Y0159847D01*
X0453179Y0159847D02*
X0471633Y0141393D01*
X0389079Y0162147D02*
X0391379Y0159847D01*
X0472904Y0034219D02*
X0468181Y0029496D01*
X0478412Y0083604D02*
X0478412Y0055280D01*
X0478412Y0055280D02*
X0472904Y0049772D01*
X0471633Y0090383D02*
X0478412Y0083604D01*
X0472904Y0049772D02*
X0472904Y0034219D01*
X0389079Y0162147D02*
X0389079Y0164947D01*
X0475658Y0082463D02*
X0475658Y0056526D01*
X0468181Y0049050D02*
X0468181Y0039496D01*
X0468879Y0089242D02*
X0475658Y0082463D01*
X0475658Y0056526D02*
X0468181Y0049050D01*
X0383633Y0156293D02*
X0452533Y0156293D01*
X0468879Y0139947D02*
X0468879Y0089242D01*
X0381779Y0161147D02*
X0381779Y0158147D01*
X0381779Y0158147D02*
X0383633Y0156293D01*
X0452533Y0156293D02*
X0468879Y0139947D01*
X0379132Y0155413D02*
X0377279Y0157267D01*
X0472904Y0081322D02*
X0472904Y0057872D01*
X0379132Y0155413D02*
X0381006Y0153539D01*
X0472904Y0057872D02*
X0458181Y0043150D01*
X0377279Y0157267D02*
X0377279Y0160947D01*
X0451087Y0153539D02*
X0466079Y0138547D01*
X0458181Y0043150D02*
X0458181Y0039496D01*
X0381006Y0153539D02*
X0451087Y0153539D01*
X0466079Y0138547D02*
X0466079Y0088147D01*
X0466079Y0088147D02*
X0472904Y0081322D01*
X0481166Y0053234D02*
X0481166Y0084745D01*
X0454274Y0162647D02*
X0454228Y0162601D01*
X0474387Y0091524D02*
X0474387Y0142534D01*
X0394781Y0162601D02*
X0392030Y0165352D01*
X0463930Y0023747D02*
X0472879Y0023747D01*
X0458181Y0029496D02*
X0463930Y0023747D01*
X0474387Y0142534D02*
X0454274Y0162647D01*
X0389612Y0168587D02*
X0359237Y0168587D01*
X0477329Y0028197D02*
X0477329Y0049397D01*
X0392030Y0165352D02*
X0392030Y0166170D01*
X0359237Y0168587D02*
X0357087Y0166437D01*
X0481166Y0084745D02*
X0474387Y0091524D01*
X0454228Y0162601D02*
X0394781Y0162601D01*
X0477329Y0049397D02*
X0481166Y0053234D01*
X0472879Y0023747D02*
X0477329Y0028197D01*
X0392030Y0166170D02*
X0389612Y0168587D01*
X0357087Y0164075D02*
X0357087Y0166437D01*
D10*
X0281079Y0175547D02*
X0281079Y0202547D01*
X0277803Y0228711D02*
X0278279Y0229187D01*
X0372679Y0123415D02*
X0336847Y0159247D01*
X0372679Y0120809D02*
X0372679Y0123415D01*
X0278019Y0229187D02*
X0278279Y0229187D01*
X0286579Y0170047D02*
X0281079Y0175547D01*
X0305679Y0170047D02*
X0286579Y0170047D01*
X0281079Y0202547D02*
X0277803Y0205823D01*
X0381139Y0112349D02*
X0372679Y0120809D01*
X0277803Y0205823D02*
X0277803Y0228711D01*
X0336847Y0159247D02*
X0316479Y0159247D01*
X0316479Y0159247D02*
X0305679Y0170047D01*
X0277803Y0228972D02*
X0278019Y0229187D01*
X0300779Y0078547D02*
X0291712Y0087614D01*
X0291712Y0087614D02*
X0291712Y0118947D01*
X0305307Y0063315D02*
X0300779Y0067843D01*
X0300779Y0067843D02*
X0300779Y0078547D01*
D86*
X0325307Y0039496D02*
X0325307Y0039776D01*
X0325307Y0039776D02*
X0340157Y0054626D01*
X0340157Y0081693D02*
X0321161Y0100689D01*
X0340157Y0054626D02*
X0340157Y0081693D01*
D10*
X0280062Y0019604D02*
X0277324Y0022343D01*
X0139657Y0095781D02*
X0139657Y0311916D01*
X0310747Y0020445D02*
X0309905Y0019604D01*
X0139657Y0311916D02*
X0132677Y0318897D01*
X0140945Y0094493D02*
X0139657Y0095781D01*
X0277324Y0022343D02*
X0150529Y0022343D01*
X0140945Y0031926D02*
X0140945Y0094493D01*
X0309905Y0019604D02*
X0280062Y0019604D01*
X0132677Y0318897D02*
X0132677Y0325492D01*
X0150529Y0022343D02*
X0140945Y0031926D01*
X0276671Y0020768D02*
X0279410Y0018029D01*
X0395005Y0017224D02*
X0432283Y0017224D01*
X0279410Y0018029D02*
X0343499Y0018029D01*
X0138083Y0095128D02*
X0139370Y0093841D01*
X0432283Y0017224D02*
X0443307Y0028248D01*
X0138083Y0309994D02*
X0138083Y0095128D01*
X0139370Y0031274D02*
X0149876Y0020768D01*
X0138083Y0311264D02*
X0138083Y0309994D01*
X0128346Y0325492D02*
X0128346Y0321000D01*
X0149876Y0020768D02*
X0276671Y0020768D01*
X0443307Y0028248D02*
X0443307Y0032579D01*
X0378864Y0033366D02*
X0395005Y0017224D01*
X0358836Y0033366D02*
X0378864Y0033366D01*
X0343499Y0018029D02*
X0358836Y0033366D01*
X0128346Y0321000D02*
X0138083Y0311264D01*
X0139370Y0093841D02*
X0139370Y0031274D01*
X0136508Y0306158D02*
X0136508Y0094476D01*
X0149224Y0019193D02*
X0276019Y0019193D01*
X0136508Y0094476D02*
X0137795Y0093189D01*
X0276019Y0019193D02*
X0278757Y0016454D01*
X0453543Y0026673D02*
X0453543Y0057953D01*
X0124016Y0318653D02*
X0132895Y0309773D01*
X0359488Y0031791D02*
X0378211Y0031791D01*
X0132895Y0309771D02*
X0136508Y0306158D01*
X0137795Y0030622D02*
X0149224Y0019193D01*
X0378211Y0031791D02*
X0394353Y0015650D01*
X0344151Y0016454D02*
X0359488Y0031791D01*
X0132895Y0309773D02*
X0132895Y0309771D01*
X0394353Y0015650D02*
X0442520Y0015650D01*
X0137795Y0093189D02*
X0137795Y0030622D01*
X0453543Y0057953D02*
X0448181Y0063315D01*
X0442520Y0015650D02*
X0453543Y0026673D01*
X0124016Y0325492D02*
X0124016Y0318653D01*
X0278757Y0016454D02*
X0344151Y0016454D01*
X0134933Y0093709D02*
X0134933Y0305504D01*
X0148572Y0017618D02*
X0136220Y0029970D01*
X0134933Y0305504D02*
X0134935Y0305506D01*
X0377559Y0030217D02*
X0360140Y0030217D01*
X0451669Y0021461D02*
X0444283Y0014075D01*
X0444283Y0014075D02*
X0393701Y0014075D01*
X0265079Y0014469D02*
X0261929Y0017618D01*
X0267169Y0014469D02*
X0265079Y0014469D01*
X0269731Y0017030D02*
X0267169Y0014469D01*
X0136220Y0029970D02*
X0136220Y0092421D01*
X0134935Y0305506D02*
X0120866Y0319575D01*
X0360140Y0030217D02*
X0344803Y0014880D01*
X0344803Y0014880D02*
X0278105Y0014880D01*
X0278105Y0014880D02*
X0275955Y0017030D01*
X0136220Y0092421D02*
X0134933Y0093709D01*
X0275955Y0017030D02*
X0269731Y0017030D01*
X0261929Y0017618D02*
X0148572Y0017618D01*
X0120866Y0319575D02*
X0120866Y0325492D01*
X0393701Y0014075D02*
X0377559Y0030217D01*
X0261277Y0016043D02*
X0265015Y0012306D01*
X0265015Y0012306D02*
X0277758Y0012306D01*
X0349351Y0016043D02*
X0359362Y0016043D01*
X0147920Y0016043D02*
X0261277Y0016043D01*
X0362906Y0012500D02*
X0446063Y0012500D01*
X0342711Y0009404D02*
X0349351Y0016043D01*
X0133358Y0304852D02*
X0133358Y0093056D01*
X0454724Y0021161D02*
X0454724Y0022736D01*
X0278757Y0013305D02*
X0336597Y0013305D01*
X0359362Y0016043D02*
X0362906Y0012500D01*
X0117323Y0325492D02*
X0117323Y0320891D01*
X0133358Y0093056D02*
X0134646Y0091769D01*
X0336597Y0013305D02*
X0340498Y0009404D01*
X0117323Y0320891D02*
X0133360Y0304854D01*
X0133360Y0304854D02*
X0133358Y0304852D01*
X0134646Y0029317D02*
X0147920Y0016043D01*
X0277758Y0012306D02*
X0278757Y0013305D01*
X0446063Y0012500D02*
X0454724Y0021161D01*
X0340498Y0009404D02*
X0342711Y0009404D01*
X0134646Y0091769D02*
X0134646Y0029317D01*
X0344671Y0007829D02*
X0339846Y0007829D01*
X0133071Y0091117D02*
X0131783Y0092404D01*
X0147267Y0014469D02*
X0133071Y0028665D01*
X0339846Y0007829D02*
X0336944Y0010731D01*
X0350394Y0013551D02*
X0344671Y0007829D01*
X0112795Y0323192D02*
X0112795Y0325492D01*
X0133071Y0028665D02*
X0133071Y0091117D01*
X0131783Y0304200D02*
X0131785Y0304202D01*
X0244882Y0014469D02*
X0147267Y0014469D01*
X0131785Y0304202D02*
X0112795Y0323192D01*
X0248620Y0010731D02*
X0244882Y0014469D01*
X0131783Y0092404D02*
X0131783Y0304200D01*
X0336944Y0010731D02*
X0248620Y0010731D01*
X0131496Y0028013D02*
X0146615Y0012894D01*
X0339193Y0006254D02*
X0345323Y0006254D01*
X0130209Y0091752D02*
X0131496Y0090464D01*
X0146615Y0012894D02*
X0244230Y0012894D01*
X0131496Y0090464D02*
X0131496Y0028013D01*
X0336291Y0009156D02*
X0339193Y0006254D01*
X0244230Y0012894D02*
X0247967Y0009156D01*
X0457286Y0021496D02*
X0457618Y0021496D01*
X0345323Y0006254D02*
X0349995Y0010925D01*
X0108268Y0325492D02*
X0130211Y0303549D01*
X0446715Y0010925D02*
X0457286Y0021496D01*
X0349995Y0010925D02*
X0446715Y0010925D01*
X0130211Y0303549D02*
X0130211Y0093209D01*
X0247967Y0009156D02*
X0336291Y0009156D01*
X0130209Y0093207D02*
X0130209Y0091752D01*
X0130211Y0093209D02*
X0130209Y0093207D01*
D114*
X0521841Y0061896D02*
X0510425Y0050480D01*
D25*
X0553337Y0061506D02*
X0563379Y0071547D01*
X0563379Y0071547D02*
X0563379Y0098907D01*
X0554673Y0107613D02*
X0554673Y0130662D01*
X0563379Y0098907D02*
X0554673Y0107613D01*
D114*
X0510425Y0050480D02*
X0521451Y0061506D01*
X0552948Y0061896D02*
X0521841Y0061896D01*
D10*
X0261371Y0158094D02*
X0261371Y0153885D01*
X0261371Y0153885D02*
X0250321Y0142834D01*
X0250321Y0142834D02*
X0250321Y0115172D01*
X0190945Y0037697D02*
X0195012Y0033630D01*
X0219303Y0084154D02*
X0200000Y0084154D01*
X0250321Y0115172D02*
X0219303Y0084154D01*
X0195012Y0033630D02*
X0201173Y0033630D01*
X0201173Y0033630D02*
X0205307Y0029496D01*
X0200000Y0084154D02*
X0190945Y0075098D01*
X0190945Y0075098D02*
X0190945Y0037697D01*
X0261898Y0158621D02*
X0261371Y0158094D01*
X0205243Y0079097D02*
X0200787Y0074641D01*
X0200787Y0074641D02*
X0200787Y0037697D01*
X0264236Y0154522D02*
X0251896Y0142182D01*
X0216474Y0079097D02*
X0205243Y0079097D01*
X0251896Y0142182D02*
X0251896Y0114519D01*
X0203150Y0035335D02*
X0209469Y0035335D01*
X0251896Y0114519D02*
X0216474Y0079097D01*
X0209469Y0035335D02*
X0215307Y0029496D01*
X0200787Y0037697D02*
X0203150Y0035335D01*
X0264236Y0156201D02*
X0264236Y0154522D01*
X0253471Y0141530D02*
X0253471Y0113867D01*
X0266618Y0158462D02*
X0266618Y0154677D01*
X0253471Y0113867D02*
X0217064Y0077461D01*
X0217064Y0077461D02*
X0213386Y0077461D01*
X0211024Y0075098D02*
X0211024Y0045213D01*
X0213386Y0077461D02*
X0211024Y0075098D01*
X0266618Y0154677D02*
X0253471Y0141530D01*
X0211024Y0045213D02*
X0205307Y0039496D01*
X0255045Y0113215D02*
X0220866Y0079035D01*
X0255045Y0140878D02*
X0255045Y0113215D01*
X0269291Y0155123D02*
X0255045Y0140878D01*
X0220866Y0043937D02*
X0225307Y0039496D01*
X0269291Y0156201D02*
X0269291Y0155123D01*
X0220866Y0079035D02*
X0220866Y0043937D01*
X0463379Y0082447D02*
X0460549Y0085277D01*
X0460549Y0105995D02*
X0455149Y0111395D01*
X0460549Y0085277D02*
X0460549Y0105995D01*
X0455149Y0135577D02*
X0452393Y0138333D01*
X0452393Y0138333D02*
X0450135Y0138333D01*
X0457079Y0049147D02*
X0463379Y0055447D01*
X0455149Y0111395D02*
X0455149Y0135577D01*
X0463379Y0055447D02*
X0463379Y0082447D01*
X0458779Y0105262D02*
X0450135Y0113906D01*
X0433465Y0065001D02*
X0436869Y0068406D01*
X0458779Y0083877D02*
X0458779Y0105262D01*
X0414988Y0056303D02*
X0427572Y0056303D01*
X0443654Y0072384D02*
X0443654Y0075190D01*
X0436869Y0068406D02*
X0439675Y0068406D01*
X0450135Y0113906D02*
X0450135Y0134396D01*
X0443654Y0075190D02*
X0446306Y0077843D01*
X0446306Y0077843D02*
X0452744Y0077843D01*
X0427572Y0056303D02*
X0433465Y0062195D01*
X0439675Y0068406D02*
X0443654Y0072384D01*
X0433465Y0062195D02*
X0433465Y0065001D01*
X0452744Y0077843D02*
X0458779Y0083877D01*
X0398181Y0039496D02*
X0414988Y0056303D01*
D85*
X0409579Y0150447D02*
X0406979Y0147847D01*
X0364679Y0147847D02*
X0362379Y0150147D01*
X0406979Y0147847D02*
X0364679Y0147847D01*
X0337182Y0024969D02*
X0319835Y0024969D01*
X0361361Y0049147D02*
X0337182Y0024969D01*
X0362079Y0049147D02*
X0361361Y0049147D01*
X0319835Y0024969D02*
X0315307Y0029496D01*
D10*
X0313979Y0173247D02*
X0366979Y0173247D01*
X0369379Y0175647D02*
X0369379Y0230647D01*
X0373179Y0138847D02*
X0359479Y0138847D01*
X0359479Y0138847D02*
X0337379Y0160947D01*
X0337379Y0160947D02*
X0337252Y0160820D01*
X0362079Y0237947D02*
X0361279Y0237947D01*
X0366979Y0173247D02*
X0369379Y0175647D01*
X0312679Y0171947D02*
X0313979Y0173247D01*
X0381139Y0141876D02*
X0376208Y0141876D01*
X0363379Y0236647D02*
X0362079Y0237947D01*
X0337252Y0160820D02*
X0317130Y0160820D01*
X0312679Y0165272D02*
X0312679Y0171947D01*
X0369379Y0230647D02*
X0363379Y0236647D01*
X0317130Y0160820D02*
X0312679Y0165272D01*
X0376208Y0141876D02*
X0373179Y0138847D01*
D88*
X0399279Y0170947D02*
X0320379Y0170947D01*
X0320379Y0170947D02*
X0317879Y0168447D01*
X0404259Y0165967D02*
X0399279Y0170947D01*
D10*
X0313625Y0025362D02*
X0313030Y0025957D01*
X0352849Y0034061D02*
X0341542Y0022754D01*
X0314807Y0025362D02*
X0313625Y0025362D01*
X0315016Y0025154D02*
X0314807Y0025362D01*
X0394206Y0024705D02*
X0388639Y0030272D01*
X0312527Y0025957D02*
X0310630Y0027854D01*
X0356879Y0038091D02*
X0352849Y0034061D01*
X0380821Y0038091D02*
X0359449Y0038091D01*
X0408181Y0029496D02*
X0403390Y0024705D01*
X0398425Y0024705D02*
X0394206Y0024705D01*
X0298033Y0034547D02*
X0250358Y0034547D01*
X0341542Y0022754D02*
X0338189Y0022754D01*
X0310630Y0027854D02*
X0309449Y0029035D01*
X0317416Y0022754D02*
X0315016Y0025154D01*
X0313030Y0025957D02*
X0312598Y0025957D01*
X0359449Y0038091D02*
X0356879Y0038091D01*
X0250358Y0034547D02*
X0245307Y0029496D01*
X0403390Y0024705D02*
X0398425Y0024705D01*
X0338189Y0022754D02*
X0317416Y0022754D01*
X0309449Y0032185D02*
X0307087Y0034547D01*
X0309449Y0029035D02*
X0309449Y0032185D01*
X0307087Y0034547D02*
X0302756Y0034547D01*
X0312598Y0025957D02*
X0312527Y0025957D01*
X0388639Y0030272D02*
X0380821Y0038091D01*
M02*
