G75*
G70*
%OFA0B0*%
%FSLAX25Y25*%
%IPPOS*%
%LPD*%
%AMOC8*
5,1,8,0,0,1.08239X$1,22.5*
%
%AMM3*
21,1,0.023620,0.018900,0.000000,0.000000,180.000000*
21,1,0.018900,0.023620,0.000000,0.000000,180.000000*
1,1,0.004720,-0.009450,0.009450*
1,1,0.004720,0.009450,0.009450*
1,1,0.004720,0.009450,-0.009450*
1,1,0.004720,-0.009450,-0.009450*
%
%AMM4*
21,1,0.019680,0.019680,0.000000,0.000000,270.000000*
21,1,0.015750,0.023620,0.000000,0.000000,270.000000*
1,1,0.003940,-0.009840,-0.007870*
1,1,0.003940,-0.009840,0.007870*
1,1,0.003940,0.009840,0.007870*
1,1,0.003940,0.009840,-0.007870*
%
%AMM5*
21,1,0.033470,0.026770,0.000000,0.000000,270.000000*
21,1,0.026770,0.033470,0.000000,0.000000,270.000000*
1,1,0.006690,-0.013390,-0.013390*
1,1,0.006690,-0.013390,0.013390*
1,1,0.006690,0.013390,0.013390*
1,1,0.006690,0.013390,-0.013390*
%
%AMM52*
21,1,0.035830,0.026770,0.000000,0.000000,0.000000*
21,1,0.029130,0.033470,0.000000,0.000000,0.000000*
1,1,0.006690,0.014570,-0.013390*
1,1,0.006690,-0.014570,-0.013390*
1,1,0.006690,-0.014570,0.013390*
1,1,0.006690,0.014570,0.013390*
%
%AMM54*
21,1,0.070870,0.036220,0.000000,0.000000,90.000000*
21,1,0.061810,0.045280,0.000000,0.000000,90.000000*
1,1,0.009060,0.018110,0.030910*
1,1,0.009060,0.018110,-0.030910*
1,1,0.009060,-0.018110,-0.030910*
1,1,0.009060,-0.018110,0.030910*
%
%AMM56*
21,1,0.023620,0.018900,0.000000,0.000000,90.000000*
21,1,0.018900,0.023620,0.000000,0.000000,90.000000*
1,1,0.004720,0.009450,0.009450*
1,1,0.004720,0.009450,-0.009450*
1,1,0.004720,-0.009450,-0.009450*
1,1,0.004720,-0.009450,0.009450*
%
%AMM6*
21,1,0.019680,0.019680,0.000000,0.000000,0.000000*
21,1,0.015750,0.023620,0.000000,0.000000,0.000000*
1,1,0.003940,0.007870,-0.009840*
1,1,0.003940,-0.007870,-0.009840*
1,1,0.003940,-0.007870,0.009840*
1,1,0.003940,0.007870,0.009840*
%
%AMM66*
21,1,0.106300,0.050390,0.000000,0.000000,90.000000*
21,1,0.093700,0.062990,0.000000,0.000000,90.000000*
1,1,0.012600,0.025200,0.046850*
1,1,0.012600,0.025200,-0.046850*
1,1,0.012600,-0.025200,-0.046850*
1,1,0.012600,-0.025200,0.046850*
%
%AMM67*
21,1,0.122050,0.075590,0.000000,0.000000,180.000000*
21,1,0.103150,0.094490,0.000000,0.000000,180.000000*
1,1,0.018900,-0.051580,0.037800*
1,1,0.018900,0.051580,0.037800*
1,1,0.018900,0.051580,-0.037800*
1,1,0.018900,-0.051580,-0.037800*
%
%AMM68*
21,1,0.118110,0.083460,0.000000,0.000000,0.000000*
21,1,0.097240,0.104330,0.000000,0.000000,0.000000*
1,1,0.020870,0.048620,-0.041730*
1,1,0.020870,-0.048620,-0.041730*
1,1,0.020870,-0.048620,0.041730*
1,1,0.020870,0.048620,0.041730*
%
%ADD122M3*%
%ADD123M4*%
%ADD124M5*%
%ADD125M6*%
%ADD188M52*%
%ADD190M54*%
%ADD192M56*%
%ADD204M66*%
%ADD205O,0.01968X0.08661*%
%ADD206M67*%
%ADD207M68*%
%ADD240R,0.01772X0.05709*%
%ADD241R,0.02559X0.04803*%
X0440551Y0365256D02*
%LPD*%
G01*
G36*
G01*
X0451181Y0382421D02*
X0448110Y0382421D01*
G75*
G02*
X0447834Y0382697I0000000J0000276D01*
G01*
X0447834Y0384902D01*
G75*
G02*
X0448110Y0385177I0000276J0000000D01*
G01*
X0451181Y0385177D01*
G75*
G02*
X0451457Y0384902I0000000J-000276D01*
G01*
X0451457Y0382697D01*
G75*
G02*
X0451181Y0382421I-000276J0000000D01*
G01*
G37*
G36*
G01*
X0451181Y0388721D02*
X0448110Y0388721D01*
G75*
G02*
X0447834Y0388996I0000000J0000276D01*
G01*
X0447834Y0391201D01*
G75*
G02*
X0448110Y0391476I0000276J0000000D01*
G01*
X0451181Y0391476D01*
G75*
G02*
X0451457Y0391201I0000000J-000276D01*
G01*
X0451457Y0388996D01*
G75*
G02*
X0451181Y0388721I-000276J0000000D01*
G01*
G37*
G36*
G01*
X0448110Y0403287D02*
X0451181Y0403287D01*
G75*
G02*
X0451457Y0403012I0000000J-000276D01*
G01*
X0451457Y0400807D01*
G75*
G02*
X0451181Y0400532I-000276J0000000D01*
G01*
X0448110Y0400532D01*
G75*
G02*
X0447834Y0400807I0000000J0000276D01*
G01*
X0447834Y0403012D01*
G75*
G02*
X0448110Y0403287I0000276J0000000D01*
G01*
G37*
G36*
G01*
X0448110Y0396988D02*
X0451181Y0396988D01*
G75*
G02*
X0451457Y0396713I0000000J-000276D01*
G01*
X0451457Y0394508D01*
G75*
G02*
X0451181Y0394232I-000276J0000000D01*
G01*
X0448110Y0394232D01*
G75*
G02*
X0447834Y0394508I0000000J0000276D01*
G01*
X0447834Y0396713D01*
G75*
G02*
X0448110Y0396988I0000276J0000000D01*
G01*
G37*
G36*
G01*
X0467362Y0400433D02*
X0467362Y0396299D01*
G75*
G02*
X0466968Y0395906I-000394J0000000D01*
G01*
X0463819Y0395906D01*
G75*
G02*
X0463425Y0396299I0000000J0000394D01*
G01*
X0463425Y0400433D01*
G75*
G02*
X0463819Y0400827I0000394J0000000D01*
G01*
X0466968Y0400827D01*
G75*
G02*
X0467362Y0400433I0000000J-000394D01*
G01*
G37*
G36*
G01*
X0459488Y0400433D02*
X0459488Y0396299D01*
G75*
G02*
X0459094Y0395906I-000394J0000000D01*
G01*
X0455945Y0395906D01*
G75*
G02*
X0455551Y0396299I0000000J0000394D01*
G01*
X0455551Y0400433D01*
G75*
G02*
X0455945Y0400827I0000394J0000000D01*
G01*
X0459094Y0400827D01*
G75*
G02*
X0459488Y0400433I0000000J-000394D01*
G01*
G37*
G36*
G01*
X0470512Y0382126D02*
X0470512Y0386260D01*
G75*
G02*
X0470905Y0386654I0000394J0000000D01*
G01*
X0474055Y0386654D01*
G75*
G02*
X0474449Y0386260I0000000J-000394D01*
G01*
X0474449Y0382126D01*
G75*
G02*
X0474055Y0381732I-000394J0000000D01*
G01*
X0470905Y0381732D01*
G75*
G02*
X0470512Y0382126I0000000J0000394D01*
G01*
G37*
G36*
G01*
X0478386Y0382126D02*
X0478386Y0386260D01*
G75*
G02*
X0478779Y0386654I0000394J0000000D01*
G01*
X0481929Y0386654D01*
G75*
G02*
X0482323Y0386260I0000000J-000394D01*
G01*
X0482323Y0382126D01*
G75*
G02*
X0481929Y0381732I-000394J0000000D01*
G01*
X0478779Y0381732D01*
G75*
G02*
X0478386Y0382126I0000000J0000394D01*
G01*
G37*
G36*
G01*
X0442401Y0379921D02*
X0445079Y0379921D01*
G75*
G02*
X0445413Y0379587I0000000J-000335D01*
G01*
X0445413Y0376910D01*
G75*
G02*
X0445079Y0376575I-000335J0000000D01*
G01*
X0442401Y0376575D01*
G75*
G02*
X0442067Y0376910I0000000J0000335D01*
G01*
X0442067Y0379587D01*
G75*
G02*
X0442401Y0379921I0000335J0000000D01*
G01*
G37*
G36*
G01*
X0442401Y0373701D02*
X0445079Y0373701D01*
G75*
G02*
X0445413Y0373366I0000000J-000335D01*
G01*
X0445413Y0370689D01*
G75*
G02*
X0445079Y0370354I-000335J0000000D01*
G01*
X0442401Y0370354D01*
G75*
G02*
X0442067Y0370689I0000000J0000335D01*
G01*
X0442067Y0373366D01*
G75*
G02*
X0442401Y0373701I0000335J0000000D01*
G01*
G37*
G36*
G01*
X0486496Y0377854D02*
X0489173Y0377854D01*
G75*
G02*
X0489508Y0377520I0000000J-000335D01*
G01*
X0489508Y0374843D01*
G75*
G02*
X0489173Y0374508I-000335J0000000D01*
G01*
X0486496Y0374508D01*
G75*
G02*
X0486161Y0374843I0000000J0000335D01*
G01*
X0486161Y0377520D01*
G75*
G02*
X0486496Y0377854I0000335J0000000D01*
G01*
G37*
G36*
G01*
X0486496Y0371634D02*
X0489173Y0371634D01*
G75*
G02*
X0489508Y0371299I0000000J-000335D01*
G01*
X0489508Y0368622D01*
G75*
G02*
X0489173Y0368287I-000335J0000000D01*
G01*
X0486496Y0368287D01*
G75*
G02*
X0486161Y0368622I0000000J0000335D01*
G01*
X0486161Y0371299D01*
G75*
G02*
X0486496Y0371634I0000335J0000000D01*
G01*
G37*
G36*
G01*
X0467362Y0393347D02*
X0467362Y0389213D01*
G75*
G02*
X0466968Y0388819I-000394J0000000D01*
G01*
X0463819Y0388819D01*
G75*
G02*
X0463425Y0389213I0000000J0000394D01*
G01*
X0463425Y0393347D01*
G75*
G02*
X0463819Y0393740I0000394J0000000D01*
G01*
X0466968Y0393740D01*
G75*
G02*
X0467362Y0393347I0000000J-000394D01*
G01*
G37*
G36*
G01*
X0459488Y0393347D02*
X0459488Y0389213D01*
G75*
G02*
X0459094Y0388819I-000394J0000000D01*
G01*
X0455945Y0388819D01*
G75*
G02*
X0455551Y0389213I0000000J0000394D01*
G01*
X0455551Y0393347D01*
G75*
G02*
X0455945Y0393740I0000394J0000000D01*
G01*
X0459094Y0393740D01*
G75*
G02*
X0459488Y0393347I0000000J-000394D01*
G01*
G37*
G36*
G01*
X0470512Y0389213D02*
X0470512Y0393347D01*
G75*
G02*
X0470905Y0393740I0000394J0000000D01*
G01*
X0474055Y0393740D01*
G75*
G02*
X0474449Y0393347I0000000J-000394D01*
G01*
X0474449Y0389213D01*
G75*
G02*
X0474055Y0388819I-000394J0000000D01*
G01*
X0470905Y0388819D01*
G75*
G02*
X0470512Y0389213I0000000J0000394D01*
G01*
G37*
G36*
G01*
X0478386Y0389213D02*
X0478386Y0393347D01*
G75*
G02*
X0478779Y0393740I0000394J0000000D01*
G01*
X0481929Y0393740D01*
G75*
G02*
X0482323Y0393347I0000000J-000394D01*
G01*
X0482323Y0389213D01*
G75*
G02*
X0481929Y0388819I-000394J0000000D01*
G01*
X0478779Y0388819D01*
G75*
G02*
X0478386Y0389213I0000000J0000394D01*
G01*
G37*
G36*
G01*
X0467362Y0379173D02*
X0467362Y0375039D01*
G75*
G02*
X0466968Y0374646I-000394J0000000D01*
G01*
X0463819Y0374646D01*
G75*
G02*
X0463425Y0375039I0000000J0000394D01*
G01*
X0463425Y0379173D01*
G75*
G02*
X0463819Y0379567I0000394J0000000D01*
G01*
X0466968Y0379567D01*
G75*
G02*
X0467362Y0379173I0000000J-000394D01*
G01*
G37*
G36*
G01*
X0459488Y0379173D02*
X0459488Y0375039D01*
G75*
G02*
X0459094Y0374646I-000394J0000000D01*
G01*
X0455945Y0374646D01*
G75*
G02*
X0455551Y0375039I0000000J0000394D01*
G01*
X0455551Y0379173D01*
G75*
G02*
X0455945Y0379567I0000394J0000000D01*
G01*
X0459094Y0379567D01*
G75*
G02*
X0459488Y0379173I0000000J-000394D01*
G01*
G37*
G36*
G01*
X0470512Y0367953D02*
X0470512Y0372087D01*
G75*
G02*
X0470905Y0372480I0000394J0000000D01*
G01*
X0474055Y0372480D01*
G75*
G02*
X0474449Y0372087I0000000J-000394D01*
G01*
X0474449Y0367953D01*
G75*
G02*
X0474055Y0367559I-000394J0000000D01*
G01*
X0470905Y0367559D01*
G75*
G02*
X0470512Y0367953I0000000J0000394D01*
G01*
G37*
G36*
G01*
X0478386Y0367953D02*
X0478386Y0372087D01*
G75*
G02*
X0478779Y0372480I0000394J0000000D01*
G01*
X0481929Y0372480D01*
G75*
G02*
X0482323Y0372087I0000000J-000394D01*
G01*
X0482323Y0367953D01*
G75*
G02*
X0481929Y0367559I-000394J0000000D01*
G01*
X0478779Y0367559D01*
G75*
G02*
X0478386Y0367953I0000000J0000394D01*
G01*
G37*
G36*
G01*
X0448307Y0379921D02*
X0450984Y0379921D01*
G75*
G02*
X0451319Y0379587I0000000J-000335D01*
G01*
X0451319Y0376910D01*
G75*
G02*
X0450984Y0376575I-000335J0000000D01*
G01*
X0448307Y0376575D01*
G75*
G02*
X0447972Y0376910I0000000J0000335D01*
G01*
X0447972Y0379587D01*
G75*
G02*
X0448307Y0379921I0000335J0000000D01*
G01*
G37*
G36*
G01*
X0448307Y0373701D02*
X0450984Y0373701D01*
G75*
G02*
X0451319Y0373366I0000000J-000335D01*
G01*
X0451319Y0370689D01*
G75*
G02*
X0450984Y0370354I-000335J0000000D01*
G01*
X0448307Y0370354D01*
G75*
G02*
X0447972Y0370689I0000000J0000335D01*
G01*
X0447972Y0373366D01*
G75*
G02*
X0448307Y0373701I0000335J0000000D01*
G01*
G37*
G36*
G01*
X0467362Y0372087D02*
X0467362Y0367953D01*
G75*
G02*
X0466968Y0367559I-000394J0000000D01*
G01*
X0463819Y0367559D01*
G75*
G02*
X0463425Y0367953I0000000J0000394D01*
G01*
X0463425Y0372087D01*
G75*
G02*
X0463819Y0372480I0000394J0000000D01*
G01*
X0466968Y0372480D01*
G75*
G02*
X0467362Y0372087I0000000J-000394D01*
G01*
G37*
G36*
G01*
X0459488Y0372087D02*
X0459488Y0367953D01*
G75*
G02*
X0459094Y0367559I-000394J0000000D01*
G01*
X0455945Y0367559D01*
G75*
G02*
X0455551Y0367953I0000000J0000394D01*
G01*
X0455551Y0372087D01*
G75*
G02*
X0455945Y0372480I0000394J0000000D01*
G01*
X0459094Y0372480D01*
G75*
G02*
X0459488Y0372087I0000000J-000394D01*
G01*
G37*
G36*
G01*
X0470512Y0375039D02*
X0470512Y0379173D01*
G75*
G02*
X0470905Y0379567I0000394J0000000D01*
G01*
X0474055Y0379567D01*
G75*
G02*
X0474449Y0379173I0000000J-000394D01*
G01*
X0474449Y0375039D01*
G75*
G02*
X0474055Y0374646I-000394J0000000D01*
G01*
X0470905Y0374646D01*
G75*
G02*
X0470512Y0375039I0000000J0000394D01*
G01*
G37*
G36*
G01*
X0478386Y0375039D02*
X0478386Y0379173D01*
G75*
G02*
X0478779Y0379567I0000394J0000000D01*
G01*
X0481929Y0379567D01*
G75*
G02*
X0482323Y0379173I0000000J-000394D01*
G01*
X0482323Y0375039D01*
G75*
G02*
X0481929Y0374646I-000394J0000000D01*
G01*
X0478779Y0374646D01*
G75*
G02*
X0478386Y0375039I0000000J0000394D01*
G01*
G37*
G36*
G01*
X0470512Y0396299D02*
X0470512Y0400433D01*
G75*
G02*
X0470905Y0400827I0000394J0000000D01*
G01*
X0474055Y0400827D01*
G75*
G02*
X0474449Y0400433I0000000J-000394D01*
G01*
X0474449Y0396299D01*
G75*
G02*
X0474055Y0395906I-000394J0000000D01*
G01*
X0470905Y0395906D01*
G75*
G02*
X0470512Y0396299I0000000J0000394D01*
G01*
G37*
G36*
G01*
X0478386Y0396299D02*
X0478386Y0400433D01*
G75*
G02*
X0478779Y0400827I0000394J0000000D01*
G01*
X0481929Y0400827D01*
G75*
G02*
X0482323Y0400433I0000000J-000394D01*
G01*
X0482323Y0396299D01*
G75*
G02*
X0481929Y0395906I-000394J0000000D01*
G01*
X0478779Y0395906D01*
G75*
G02*
X0478386Y0396299I0000000J0000394D01*
G01*
G37*
G36*
G01*
X0467362Y0386260D02*
X0467362Y0382126D01*
G75*
G02*
X0466968Y0381732I-000394J0000000D01*
G01*
X0463819Y0381732D01*
G75*
G02*
X0463425Y0382126I0000000J0000394D01*
G01*
X0463425Y0386260D01*
G75*
G02*
X0463819Y0386654I0000394J0000000D01*
G01*
X0466968Y0386654D01*
G75*
G02*
X0467362Y0386260I0000000J-000394D01*
G01*
G37*
G36*
G01*
X0459488Y0386260D02*
X0459488Y0382126D01*
G75*
G02*
X0459094Y0381732I-000394J0000000D01*
G01*
X0455945Y0381732D01*
G75*
G02*
X0455551Y0382126I0000000J0000394D01*
G01*
X0455551Y0386260D01*
G75*
G02*
X0455945Y0386654I0000394J0000000D01*
G01*
X0459094Y0386654D01*
G75*
G02*
X0459488Y0386260I0000000J-000394D01*
G01*
G37*
X0089764Y0124705D02*
G01*
G75*
D122*
X0117717Y0134941D02*
D03*
X0121654Y0134941D02*
D03*
X0106594Y0134941D02*
D03*
X0102657Y0134941D02*
D03*
X0098228Y0134941D02*
D03*
X0094291Y0134941D02*
D03*
X0117717Y0127658D02*
D03*
X0121654Y0127658D02*
D03*
D123*
X0114332Y0127461D02*
D03*
X0114332Y0131004D02*
D03*
D124*
X0110447Y0134174D02*
D03*
X0110447Y0127953D02*
D03*
D125*
X0097835Y0131004D02*
D03*
X0094292Y0131004D02*
D03*
X0106201Y0127461D02*
D03*
X0102658Y0127461D02*
D03*
X0121063Y0131062D02*
D03*
X0117520Y0131062D02*
D03*
X0094292Y0127461D02*
D03*
X0097835Y0127461D02*
D03*
X0304590Y0168158D02*
G01*
G75*
D188*
X0334505Y0244536D02*
D03*
X0321513Y0244536D02*
D03*
D190*
X0354365Y0244930D02*
D03*
X0342948Y0244930D02*
D03*
X0354365Y0236898D02*
D03*
X0342948Y0236898D02*
D03*
D192*
X0316992Y0222882D02*
D03*
X0316992Y0226819D02*
D03*
X0313645Y0237449D02*
D03*
X0322307Y0237449D02*
D03*
X0312858Y0232201D02*
D03*
X0321519Y0232201D02*
D03*
D125*
X0324745Y0179575D02*
D03*
X0321201Y0179575D02*
D03*
X0334136Y0216308D02*
D03*
X0337680Y0216308D02*
D03*
X0326139Y0231413D02*
D03*
X0329682Y0231413D02*
D03*
X0333363Y0179575D02*
D03*
X0329820Y0179575D02*
D03*
X0312858Y0183512D02*
D03*
X0316401Y0183512D02*
D03*
D123*
X0338343Y0232988D02*
D03*
X0338343Y0236532D02*
D03*
X0317576Y0245390D02*
D03*
X0317576Y0241846D02*
D03*
X0366340Y0187073D02*
D03*
X0366340Y0190617D02*
D03*
D204*
X0353803Y0224457D02*
D03*
X0342779Y0224457D02*
D03*
D124*
X0321125Y0220134D02*
D03*
X0321125Y0226354D02*
D03*
X0335219Y0220134D02*
D03*
X0335219Y0226354D02*
D03*
X0330528Y0220134D02*
D03*
X0330528Y0226354D02*
D03*
X0325836Y0220134D02*
D03*
X0325836Y0226354D02*
D03*
X0334038Y0232378D02*
D03*
X0334038Y0238599D02*
D03*
D122*
X0324548Y0183512D02*
D03*
X0320611Y0183512D02*
D03*
X0329229Y0183512D02*
D03*
X0333166Y0183512D02*
D03*
X0325942Y0237449D02*
D03*
X0329879Y0237449D02*
D03*
X0348875Y0215835D02*
D03*
X0352812Y0215835D02*
D03*
X0356651Y0178394D02*
D03*
X0352713Y0178394D02*
D03*
D205*
X0329662Y0190272D02*
D03*
X0324662Y0190272D02*
D03*
X0319662Y0190272D02*
D03*
X0314662Y0190272D02*
D03*
X0329662Y0212909D02*
D03*
X0324662Y0212909D02*
D03*
X0319662Y0212909D02*
D03*
X0314662Y0212909D02*
D03*
X0352729Y0184989D02*
D03*
X0347729Y0184989D02*
D03*
X0342729Y0184989D02*
D03*
X0337729Y0184989D02*
D03*
X0352729Y0208414D02*
D03*
X0347729Y0208414D02*
D03*
X0342729Y0208414D02*
D03*
X0337729Y0208414D02*
D03*
D206*
X0322162Y0201590D02*
D03*
D207*
X0345229Y0196701D02*
D03*
X0067106Y0260650D02*
%LPD*%
G01*
G36*
G01*
X0074465Y0180945D02*
X0075823Y0180945D01*
G75*
G02*
X0076404Y0180365I0000000J-000581D01*
G01*
X0076404Y0179203D01*
G75*
G02*
X0075823Y0178622I-000581J0000000D01*
G01*
X0074465Y0178622D01*
G75*
G02*
X0073884Y0179203I0000000J0000581D01*
G01*
X0073884Y0180365D01*
G75*
G02*
X0074465Y0180945I0000581J0000000D01*
G01*
G37*
G36*
G01*
X0074465Y0177126D02*
X0075823Y0177126D01*
G75*
G02*
X0076404Y0176546I0000000J-000581D01*
G01*
X0076404Y0175384D01*
G75*
G02*
X0075823Y0174804I-000581J0000000D01*
G01*
X0074465Y0174804D01*
G75*
G02*
X0073884Y0175384I0000000J0000581D01*
G01*
X0073884Y0176546D01*
G75*
G02*
X0074465Y0177126I0000581J0000000D01*
G01*
G37*
G36*
G01*
X0089754Y0166477D02*
X0091112Y0166477D01*
G75*
G02*
X0091693Y0165896I0000000J-000581D01*
G01*
X0091693Y0164735D01*
G75*
G02*
X0091112Y0164154I-000581J0000000D01*
G01*
X0089754Y0164154D01*
G75*
G02*
X0089173Y0164735I0000000J0000581D01*
G01*
X0089173Y0165896D01*
G75*
G02*
X0089754Y0166477I0000581J0000000D01*
G01*
G37*
G36*
G01*
X0089754Y0162658D02*
X0091112Y0162658D01*
G75*
G02*
X0091693Y0162077I0000000J-000581D01*
G01*
X0091693Y0160916D01*
G75*
G02*
X0091112Y0160335I-000581J0000000D01*
G01*
X0089754Y0160335D01*
G75*
G02*
X0089173Y0160916I0000000J0000581D01*
G01*
X0089173Y0162077D01*
G75*
G02*
X0089754Y0162658I0000581J0000000D01*
G01*
G37*
G36*
G01*
X0115950Y0216359D02*
X0113932Y0216359D01*
G75*
G02*
X0113071Y0217220I0000000J0000861D01*
G01*
X0113071Y0218942D01*
G75*
G02*
X0113932Y0219804I0000861J0000000D01*
G01*
X0115950Y0219804D01*
G75*
G02*
X0116811Y0218942I0000000J-000861D01*
G01*
X0116811Y0217220D01*
G75*
G02*
X0115950Y0216359I-000861J0000000D01*
G01*
G37*
G36*
G01*
X0115950Y0222559D02*
X0113932Y0222559D01*
G75*
G02*
X0113071Y0223421I0000000J0000861D01*
G01*
X0113071Y0225143D01*
G75*
G02*
X0113932Y0226004I0000861J0000000D01*
G01*
X0115950Y0226004D01*
G75*
G02*
X0116811Y0225143I0000000J-000861D01*
G01*
X0116811Y0223421D01*
G75*
G02*
X0115950Y0222559I-000861J0000000D01*
G01*
G37*
G36*
G01*
X0071624Y0174804D02*
X0070265Y0174804D01*
G75*
G02*
X0069685Y0175384I0000000J0000581D01*
G01*
X0069685Y0176546D01*
G75*
G02*
X0070265Y0177126I0000581J0000000D01*
G01*
X0071624Y0177126D01*
G75*
G02*
X0072204Y0176546I0000000J-000581D01*
G01*
X0072204Y0175384D01*
G75*
G02*
X0071624Y0174804I-000581J0000000D01*
G01*
G37*
G36*
G01*
X0071624Y0178622D02*
X0070265Y0178622D01*
G75*
G02*
X0069685Y0179203I0000000J0000581D01*
G01*
X0069685Y0180365D01*
G75*
G02*
X0070265Y0180945I0000581J0000000D01*
G01*
X0071624Y0180945D01*
G75*
G02*
X0072204Y0180365I0000000J-000581D01*
G01*
X0072204Y0179203D01*
G75*
G02*
X0071624Y0178622I-000581J0000000D01*
G01*
G37*
G36*
G01*
X0110620Y0234505D02*
X0111978Y0234505D01*
G75*
G02*
X0112559Y0233925I0000000J-000581D01*
G01*
X0112559Y0232763D01*
G75*
G02*
X0111978Y0232183I-000581J0000000D01*
G01*
X0110620Y0232183D01*
G75*
G02*
X0110039Y0232763I0000000J0000581D01*
G01*
X0110039Y0233925D01*
G75*
G02*
X0110620Y0234505I0000581J0000000D01*
G01*
G37*
G36*
G01*
X0110620Y0230687D02*
X0111978Y0230687D01*
G75*
G02*
X0112559Y0230106I0000000J-000581D01*
G01*
X0112559Y0228944D01*
G75*
G02*
X0111978Y0228364I-000581J0000000D01*
G01*
X0110620Y0228364D01*
G75*
G02*
X0110039Y0228944I0000000J0000581D01*
G01*
X0110039Y0230106D01*
G75*
G02*
X0110620Y0230687I0000581J0000000D01*
G01*
G37*
G36*
G01*
X0108750Y0226418D02*
X0110108Y0226418D01*
G75*
G02*
X0110689Y0225837I0000000J-000581D01*
G01*
X0110689Y0224676D01*
G75*
G02*
X0110108Y0224095I-000581J0000000D01*
G01*
X0108750Y0224095D01*
G75*
G02*
X0108169Y0224676I0000000J0000581D01*
G01*
X0108169Y0225837D01*
G75*
G02*
X0108750Y0226418I0000581J0000000D01*
G01*
G37*
G36*
G01*
X0108750Y0222599D02*
X0110108Y0222599D01*
G75*
G02*
X0110689Y0222018I0000000J-000581D01*
G01*
X0110689Y0220857D01*
G75*
G02*
X0110108Y0220276I-000581J0000000D01*
G01*
X0108750Y0220276D01*
G75*
G02*
X0108169Y0220857I0000000J0000581D01*
G01*
X0108169Y0222018D01*
G75*
G02*
X0108750Y0222599I0000581J0000000D01*
G01*
G37*
G36*
G01*
X0116082Y0255030D02*
X0116082Y0253672D01*
G75*
G02*
X0115502Y0253091I-000581J0000000D01*
G01*
X0114340Y0253091D01*
G75*
G02*
X0113760Y0253672I0000000J0000581D01*
G01*
X0113760Y0255030D01*
G75*
G02*
X0114340Y0255611I0000581J0000000D01*
G01*
X0115502Y0255611D01*
G75*
G02*
X0116082Y0255030I0000000J-000581D01*
G01*
G37*
G36*
G01*
X0112263Y0255030D02*
X0112263Y0253672D01*
G75*
G02*
X0111683Y0253091I-000581J0000000D01*
G01*
X0110521Y0253091D01*
G75*
G02*
X0109941Y0253672I0000000J0000581D01*
G01*
X0109941Y0255030D01*
G75*
G02*
X0110521Y0255611I0000581J0000000D01*
G01*
X0111683Y0255611D01*
G75*
G02*
X0112263Y0255030I0000000J-000581D01*
G01*
G37*
G36*
G01*
X0098494Y0205512D02*
X0097136Y0205512D01*
G75*
G02*
X0096555Y0206093I0000000J0000581D01*
G01*
X0096555Y0207254D01*
G75*
G02*
X0097136Y0207835I0000581J0000000D01*
G01*
X0098494Y0207835D01*
G75*
G02*
X0099075Y0207254I0000000J-000581D01*
G01*
X0099075Y0206093D01*
G75*
G02*
X0098494Y0205512I-000581J0000000D01*
G01*
G37*
G36*
G01*
X0098494Y0209331D02*
X0097136Y0209331D01*
G75*
G02*
X0096555Y0209912I0000000J0000581D01*
G01*
X0096555Y0211073D01*
G75*
G02*
X0097136Y0211654I0000581J0000000D01*
G01*
X0098494Y0211654D01*
G75*
G02*
X0099075Y0211073I0000000J-000581D01*
G01*
X0099075Y0209912D01*
G75*
G02*
X0098494Y0209331I-000581J0000000D01*
G01*
G37*
G36*
G01*
X0093199Y0211654D02*
X0094557Y0211654D01*
G75*
G02*
X0095137Y0211073I0000000J-000581D01*
G01*
X0095137Y0209912D01*
G75*
G02*
X0094557Y0209331I-000581J0000000D01*
G01*
X0093199Y0209331D01*
G75*
G02*
X0092618Y0209912I0000000J0000581D01*
G01*
X0092618Y0211073D01*
G75*
G02*
X0093199Y0211654I0000581J0000000D01*
G01*
G37*
G36*
G01*
X0093199Y0207835D02*
X0094557Y0207835D01*
G75*
G02*
X0095137Y0207254I0000000J-000581D01*
G01*
X0095137Y0206093D01*
G75*
G02*
X0094557Y0205512I-000581J0000000D01*
G01*
X0093199Y0205512D01*
G75*
G02*
X0092618Y0206093I0000000J0000581D01*
G01*
X0092618Y0207254D01*
G75*
G02*
X0093199Y0207835I0000581J0000000D01*
G01*
G37*
G36*
G01*
X0095639Y0164174D02*
X0094281Y0164174D01*
G75*
G02*
X0093700Y0164754I0000000J0000581D01*
G01*
X0093700Y0165916D01*
G75*
G02*
X0094281Y0166496I0000581J0000000D01*
G01*
X0095639Y0166496D01*
G75*
G02*
X0096220Y0165916I0000000J-000581D01*
G01*
X0096220Y0164754D01*
G75*
G02*
X0095639Y0164174I-000581J0000000D01*
G01*
G37*
G36*
G01*
X0095639Y0167993D02*
X0094281Y0167993D01*
G75*
G02*
X0093700Y0168573I0000000J0000581D01*
G01*
X0093700Y0169735D01*
G75*
G02*
X0094281Y0170315I0000581J0000000D01*
G01*
X0095639Y0170315D01*
G75*
G02*
X0096220Y0169735I0000000J-000581D01*
G01*
X0096220Y0168573D01*
G75*
G02*
X0095639Y0167993I-000581J0000000D01*
G01*
G37*
D240*
X0072224Y0218524D03*
X0074783Y0218524D03*
X0077342Y0218524D03*
X0079901Y0218524D03*
X0082460Y0218524D03*
X0085019Y0218524D03*
X0087578Y0218524D03*
X0087578Y0195296D03*
X0085019Y0195296D03*
X0082460Y0195296D03*
X0079901Y0195296D03*
X0077342Y0195296D03*
X0074783Y0195296D03*
X0072224Y0195296D03*
G36*
G01*
X0115718Y0228347D02*
X0114360Y0228347D01*
G75*
G02*
X0113779Y0228928I0000000J0000581D01*
G01*
X0113779Y0230089D01*
G75*
G02*
X0114360Y0230670I0000581J0000000D01*
G01*
X0115718Y0230670D01*
G75*
G02*
X0116299Y0230089I0000000J-000581D01*
G01*
X0116299Y0228928D01*
G75*
G02*
X0115718Y0228347I-000581J0000000D01*
G01*
G37*
G36*
G01*
X0115718Y0232166D02*
X0114360Y0232166D01*
G75*
G02*
X0113779Y0232746I0000000J0000581D01*
G01*
X0113779Y0233908D01*
G75*
G02*
X0114360Y0234489I0000581J0000000D01*
G01*
X0115718Y0234489D01*
G75*
G02*
X0116299Y0233908I0000000J-000581D01*
G01*
X0116299Y0232746D01*
G75*
G02*
X0115718Y0232166I-000581J0000000D01*
G01*
G37*
G36*
G01*
X0118100Y0234489D02*
X0119458Y0234489D01*
G75*
G02*
X0120039Y0233908I0000000J-000581D01*
G01*
X0120039Y0232746D01*
G75*
G02*
X0119458Y0232166I-000581J0000000D01*
G01*
X0118100Y0232166D01*
G75*
G02*
X0117519Y0232746I0000000J0000581D01*
G01*
X0117519Y0233908D01*
G75*
G02*
X0118100Y0234489I0000581J0000000D01*
G01*
G37*
G36*
G01*
X0118100Y0230670D02*
X0119458Y0230670D01*
G75*
G02*
X0120039Y0230089I0000000J-000581D01*
G01*
X0120039Y0228928D01*
G75*
G02*
X0119458Y0228347I-000581J0000000D01*
G01*
X0118100Y0228347D01*
G75*
G02*
X0117519Y0228928I0000000J0000581D01*
G01*
X0117519Y0230089D01*
G75*
G02*
X0118100Y0230670I0000581J0000000D01*
G01*
G37*
G36*
G01*
X0108651Y0174252D02*
X0110010Y0174252D01*
G75*
G02*
X0110590Y0173672I0000000J-000581D01*
G01*
X0110590Y0172510D01*
G75*
G02*
X0110010Y0171930I-000581J0000000D01*
G01*
X0108651Y0171930D01*
G75*
G02*
X0108071Y0172510I0000000J0000581D01*
G01*
X0108071Y0173672D01*
G75*
G02*
X0108651Y0174252I0000581J0000000D01*
G01*
G37*
G36*
G01*
X0108651Y0170433D02*
X0110010Y0170433D01*
G75*
G02*
X0110590Y0169853I0000000J-000581D01*
G01*
X0110590Y0168691D01*
G75*
G02*
X0110010Y0168111I-000581J0000000D01*
G01*
X0108651Y0168111D01*
G75*
G02*
X0108071Y0168691I0000000J0000581D01*
G01*
X0108071Y0169853D01*
G75*
G02*
X0108651Y0170433I0000581J0000000D01*
G01*
G37*
G36*
G01*
X0079353Y0180945D02*
X0080712Y0180945D01*
G75*
G02*
X0081292Y0180365I0000000J-000581D01*
G01*
X0081292Y0179203D01*
G75*
G02*
X0080712Y0178622I-000581J0000000D01*
G01*
X0079353Y0178622D01*
G75*
G02*
X0078773Y0179203I0000000J0000581D01*
G01*
X0078773Y0180365D01*
G75*
G02*
X0079353Y0180945I0000581J0000000D01*
G01*
G37*
G36*
G01*
X0079353Y0177126D02*
X0080712Y0177126D01*
G75*
G02*
X0081292Y0176546I0000000J-000581D01*
G01*
X0081292Y0175384D01*
G75*
G02*
X0080712Y0174804I-000581J0000000D01*
G01*
X0079353Y0174804D01*
G75*
G02*
X0078773Y0175384I0000000J0000581D01*
G01*
X0078773Y0176546D01*
G75*
G02*
X0079353Y0177126I0000581J0000000D01*
G01*
G37*
G36*
G01*
X0102431Y0208760D02*
X0101073Y0208760D01*
G75*
G02*
X0100492Y0209341I0000000J0000581D01*
G01*
X0100492Y0210502D01*
G75*
G02*
X0101073Y0211083I0000581J0000000D01*
G01*
X0102431Y0211083D01*
G75*
G02*
X0103012Y0210502I0000000J-000581D01*
G01*
X0103012Y0209341D01*
G75*
G02*
X0102431Y0208760I-000581J0000000D01*
G01*
G37*
G36*
G01*
X0102431Y0212579D02*
X0101073Y0212579D01*
G75*
G02*
X0100492Y0213160I0000000J0000581D01*
G01*
X0100492Y0214321D01*
G75*
G02*
X0101073Y0214902I0000581J0000000D01*
G01*
X0102431Y0214902D01*
G75*
G02*
X0103012Y0214321I0000000J-000581D01*
G01*
X0103012Y0213160D01*
G75*
G02*
X0102431Y0212579I-000581J0000000D01*
G01*
G37*
G36*
G01*
X0110010Y0160433D02*
X0108651Y0160433D01*
G75*
G02*
X0108071Y0161014I0000000J0000581D01*
G01*
X0108071Y0162176D01*
G75*
G02*
X0108651Y0162756I0000581J0000000D01*
G01*
X0110010Y0162756D01*
G75*
G02*
X0110590Y0162176I0000000J-000581D01*
G01*
X0110590Y0161014D01*
G75*
G02*
X0110010Y0160433I-000581J0000000D01*
G01*
G37*
G36*
G01*
X0110010Y0164252D02*
X0108651Y0164252D01*
G75*
G02*
X0108071Y0164833I0000000J0000581D01*
G01*
X0108071Y0165994D01*
G75*
G02*
X0108651Y0166575I0000581J0000000D01*
G01*
X0110010Y0166575D01*
G75*
G02*
X0110590Y0165994I0000000J-000581D01*
G01*
X0110590Y0164833D01*
G75*
G02*
X0110010Y0164252I-000581J0000000D01*
G01*
G37*
G36*
G01*
X0094557Y0212894D02*
X0093199Y0212894D01*
G75*
G02*
X0092618Y0213475I0000000J0000581D01*
G01*
X0092618Y0214636D01*
G75*
G02*
X0093199Y0215217I0000581J0000000D01*
G01*
X0094557Y0215217D01*
G75*
G02*
X0095137Y0214636I0000000J-000581D01*
G01*
X0095137Y0213475D01*
G75*
G02*
X0094557Y0212894I-000581J0000000D01*
G01*
G37*
G36*
G01*
X0094557Y0216713D02*
X0093199Y0216713D01*
G75*
G02*
X0092618Y0217294I0000000J0000581D01*
G01*
X0092618Y0218455D01*
G75*
G02*
X0093199Y0219036I0000581J0000000D01*
G01*
X0094557Y0219036D01*
G75*
G02*
X0095137Y0218455I0000000J-000581D01*
G01*
X0095137Y0217294D01*
G75*
G02*
X0094557Y0216713I-000581J0000000D01*
G01*
G37*
G36*
G01*
X0069941Y0224144D02*
X0069941Y0225502D01*
G75*
G02*
X0070521Y0226083I0000581J0000000D01*
G01*
X0071683Y0226083D01*
G75*
G02*
X0072263Y0225502I0000000J-000581D01*
G01*
X0072263Y0224144D01*
G75*
G02*
X0071683Y0223563I-000581J0000000D01*
G01*
X0070521Y0223563D01*
G75*
G02*
X0069941Y0224144I0000000J0000581D01*
G01*
G37*
G36*
G01*
X0073760Y0224144D02*
X0073760Y0225502D01*
G75*
G02*
X0074340Y0226083I0000581J0000000D01*
G01*
X0075502Y0226083D01*
G75*
G02*
X0076082Y0225502I0000000J-000581D01*
G01*
X0076082Y0224144D01*
G75*
G02*
X0075502Y0223563I-000581J0000000D01*
G01*
X0074340Y0223563D01*
G75*
G02*
X0073760Y0224144I0000000J0000581D01*
G01*
G37*
G36*
G01*
X0098494Y0198032D02*
X0097136Y0198032D01*
G75*
G02*
X0096555Y0198613I0000000J0000581D01*
G01*
X0096555Y0199774D01*
G75*
G02*
X0097136Y0200355I0000581J0000000D01*
G01*
X0098494Y0200355D01*
G75*
G02*
X0099075Y0199774I0000000J-000581D01*
G01*
X0099075Y0198613D01*
G75*
G02*
X0098494Y0198032I-000581J0000000D01*
G01*
G37*
G36*
G01*
X0098494Y0201851D02*
X0097136Y0201851D01*
G75*
G02*
X0096555Y0202431I0000000J0000581D01*
G01*
X0096555Y0203593D01*
G75*
G02*
X0097136Y0204174I0000581J0000000D01*
G01*
X0098494Y0204174D01*
G75*
G02*
X0099075Y0203593I0000000J-000581D01*
G01*
X0099075Y0202431D01*
G75*
G02*
X0098494Y0201851I-000581J0000000D01*
G01*
G37*
G36*
G01*
X0097136Y0196693D02*
X0098494Y0196693D01*
G75*
G02*
X0099075Y0196113I0000000J-000581D01*
G01*
X0099075Y0194951D01*
G75*
G02*
X0098494Y0194370I-000581J0000000D01*
G01*
X0097136Y0194370D01*
G75*
G02*
X0096555Y0194951I0000000J0000581D01*
G01*
X0096555Y0196113D01*
G75*
G02*
X0097136Y0196693I0000581J0000000D01*
G01*
G37*
G36*
G01*
X0097136Y0192874D02*
X0098494Y0192874D01*
G75*
G02*
X0099075Y0192294I0000000J-000581D01*
G01*
X0099075Y0191132D01*
G75*
G02*
X0098494Y0190552I-000581J0000000D01*
G01*
X0097136Y0190552D01*
G75*
G02*
X0096555Y0191132I0000000J0000581D01*
G01*
X0096555Y0192294D01*
G75*
G02*
X0097136Y0192874I0000581J0000000D01*
G01*
G37*
G36*
G01*
X0069941Y0227884D02*
X0069941Y0229243D01*
G75*
G02*
X0070521Y0229823I0000581J0000000D01*
G01*
X0071683Y0229823D01*
G75*
G02*
X0072263Y0229243I0000000J-000581D01*
G01*
X0072263Y0227884D01*
G75*
G02*
X0071683Y0227304I-000581J0000000D01*
G01*
X0070521Y0227304D01*
G75*
G02*
X0069941Y0227884I0000000J0000581D01*
G01*
G37*
G36*
G01*
X0073760Y0227884D02*
X0073760Y0229243D01*
G75*
G02*
X0074340Y0229823I0000581J0000000D01*
G01*
X0075502Y0229823D01*
G75*
G02*
X0076082Y0229243I0000000J-000581D01*
G01*
X0076082Y0227884D01*
G75*
G02*
X0075502Y0227304I-000581J0000000D01*
G01*
X0074340Y0227304D01*
G75*
G02*
X0073760Y0227884I0000000J0000581D01*
G01*
G37*
D241*
X0118779Y0238563D03*
X0115039Y0238563D03*
X0111299Y0238563D03*
X0111299Y0248878D03*
X0118779Y0248878D03*
G36*
G01*
X0101073Y0204075D02*
X0102431Y0204075D01*
G75*
G02*
X0103012Y0203494I0000000J-000581D01*
G01*
X0103012Y0202333D01*
G75*
G02*
X0102431Y0201752I-000581J0000000D01*
G01*
X0101073Y0201752D01*
G75*
G02*
X0100492Y0202333I0000000J0000581D01*
G01*
X0100492Y0203494D01*
G75*
G02*
X0101073Y0204075I0000581J0000000D01*
G01*
G37*
G36*
G01*
X0101073Y0200256D02*
X0102431Y0200256D01*
G75*
G02*
X0103012Y0199676I0000000J-000581D01*
G01*
X0103012Y0198514D01*
G75*
G02*
X0102431Y0197933I-000581J0000000D01*
G01*
X0101073Y0197933D01*
G75*
G02*
X0100492Y0198514I0000000J0000581D01*
G01*
X0100492Y0199676D01*
G75*
G02*
X0101073Y0200256I0000581J0000000D01*
G01*
G37*
G36*
G01*
X0105177Y0216664D02*
X0105177Y0218022D01*
G75*
G02*
X0105758Y0218603I0000581J0000000D01*
G01*
X0106919Y0218603D01*
G75*
G02*
X0107500Y0218022I0000000J-000581D01*
G01*
X0107500Y0216664D01*
G75*
G02*
X0106919Y0216083I-000581J0000000D01*
G01*
X0105758Y0216083D01*
G75*
G02*
X0105177Y0216664I0000000J0000581D01*
G01*
G37*
G36*
G01*
X0108996Y0216664D02*
X0108996Y0218022D01*
G75*
G02*
X0109576Y0218603I0000581J0000000D01*
G01*
X0110738Y0218603D01*
G75*
G02*
X0111319Y0218022I0000000J-000581D01*
G01*
X0111319Y0216664D01*
G75*
G02*
X0110738Y0216083I-000581J0000000D01*
G01*
X0109576Y0216083D01*
G75*
G02*
X0108996Y0216664I0000000J0000581D01*
G01*
G37*
G36*
G01*
X0084744Y0225502D02*
X0084744Y0224144D01*
G75*
G02*
X0084163Y0223563I-000581J0000000D01*
G01*
X0083002Y0223563D01*
G75*
G02*
X0082421Y0224144I0000000J0000581D01*
G01*
X0082421Y0225502D01*
G75*
G02*
X0083002Y0226083I0000581J0000000D01*
G01*
X0084163Y0226083D01*
G75*
G02*
X0084744Y0225502I0000000J-000581D01*
G01*
G37*
G36*
G01*
X0080925Y0225502D02*
X0080925Y0224144D01*
G75*
G02*
X0080344Y0223563I-000581J0000000D01*
G01*
X0079183Y0223563D01*
G75*
G02*
X0078602Y0224144I0000000J0000581D01*
G01*
X0078602Y0225502D01*
G75*
G02*
X0079183Y0226083I0000581J0000000D01*
G01*
X0080344Y0226083D01*
G75*
G02*
X0080925Y0225502I0000000J-000581D01*
G01*
G37*
G36*
G01*
X0085699Y0182382D02*
X0084340Y0182382D01*
G75*
G02*
X0083760Y0182963I0000000J0000581D01*
G01*
X0083760Y0184124D01*
G75*
G02*
X0084340Y0184705I0000581J0000000D01*
G01*
X0085699Y0184705D01*
G75*
G02*
X0086279Y0184124I0000000J-000581D01*
G01*
X0086279Y0182963D01*
G75*
G02*
X0085699Y0182382I-000581J0000000D01*
G01*
G37*
G36*
G01*
X0085699Y0186201D02*
X0084340Y0186201D01*
G75*
G02*
X0083760Y0186782I0000000J0000581D01*
G01*
X0083760Y0187943D01*
G75*
G02*
X0084340Y0188524I0000581J0000000D01*
G01*
X0085699Y0188524D01*
G75*
G02*
X0086279Y0187943I0000000J-000581D01*
G01*
X0086279Y0186782D01*
G75*
G02*
X0085699Y0186201I-000581J0000000D01*
G01*
G37*
G36*
G01*
X0085699Y0174804D02*
X0084340Y0174804D01*
G75*
G02*
X0083760Y0175384I0000000J0000581D01*
G01*
X0083760Y0176546D01*
G75*
G02*
X0084340Y0177126I0000581J0000000D01*
G01*
X0085699Y0177126D01*
G75*
G02*
X0086279Y0176546I0000000J-000581D01*
G01*
X0086279Y0175384D01*
G75*
G02*
X0085699Y0174804I-000581J0000000D01*
G01*
G37*
G36*
G01*
X0085699Y0178622D02*
X0084340Y0178622D01*
G75*
G02*
X0083760Y0179203I0000000J0000581D01*
G01*
X0083760Y0180365D01*
G75*
G02*
X0084340Y0180945I0000581J0000000D01*
G01*
X0085699Y0180945D01*
G75*
G02*
X0086279Y0180365I0000000J-000581D01*
G01*
X0086279Y0179203D01*
G75*
G02*
X0085699Y0178622I-000581J0000000D01*
G01*
G37*
G36*
G01*
X0084744Y0229243D02*
X0084744Y0227884D01*
G75*
G02*
X0084163Y0227304I-000581J0000000D01*
G01*
X0083002Y0227304D01*
G75*
G02*
X0082421Y0227884I0000000J0000581D01*
G01*
X0082421Y0229243D01*
G75*
G02*
X0083002Y0229823I0000581J0000000D01*
G01*
X0084163Y0229823D01*
G75*
G02*
X0084744Y0229243I0000000J-000581D01*
G01*
G37*
G36*
G01*
X0080925Y0229243D02*
X0080925Y0227884D01*
G75*
G02*
X0080344Y0227304I-000581J0000000D01*
G01*
X0079183Y0227304D01*
G75*
G02*
X0078602Y0227884I0000000J0000581D01*
G01*
X0078602Y0229243D01*
G75*
G02*
X0079183Y0229823I0000581J0000000D01*
G01*
X0080344Y0229823D01*
G75*
G02*
X0080925Y0229243I0000000J-000581D01*
G01*
G37*
G36*
G01*
X0094557Y0194882D02*
X0093199Y0194882D01*
G75*
G02*
X0092618Y0195463I0000000J0000581D01*
G01*
X0092618Y0196624D01*
G75*
G02*
X0093199Y0197205I0000581J0000000D01*
G01*
X0094557Y0197205D01*
G75*
G02*
X0095137Y0196624I0000000J-000581D01*
G01*
X0095137Y0195463D01*
G75*
G02*
X0094557Y0194882I-000581J0000000D01*
G01*
G37*
G36*
G01*
X0094557Y0198701D02*
X0093199Y0198701D01*
G75*
G02*
X0092618Y0199282I0000000J0000581D01*
G01*
X0092618Y0200443D01*
G75*
G02*
X0093199Y0201024I0000581J0000000D01*
G01*
X0094557Y0201024D01*
G75*
G02*
X0095137Y0200443I0000000J-000581D01*
G01*
X0095137Y0199282D01*
G75*
G02*
X0094557Y0198701I-000581J0000000D01*
G01*
G37*
G36*
G01*
X0084744Y0232983D02*
X0084744Y0231624D01*
G75*
G02*
X0084163Y0231044I-000581J0000000D01*
G01*
X0083002Y0231044D01*
G75*
G02*
X0082421Y0231624I0000000J0000581D01*
G01*
X0082421Y0232983D01*
G75*
G02*
X0083002Y0233563I0000581J0000000D01*
G01*
X0084163Y0233563D01*
G75*
G02*
X0084744Y0232983I0000000J-000581D01*
G01*
G37*
G36*
G01*
X0080925Y0232983D02*
X0080925Y0231624D01*
G75*
G02*
X0080344Y0231044I-000581J0000000D01*
G01*
X0079183Y0231044D01*
G75*
G02*
X0078602Y0231624I0000000J0000581D01*
G01*
X0078602Y0232983D01*
G75*
G02*
X0079183Y0233563I0000581J0000000D01*
G01*
X0080344Y0233563D01*
G75*
G02*
X0080925Y0232983I0000000J-000581D01*
G01*
G37*
G36*
G01*
X0076082Y0232983D02*
X0076082Y0231624D01*
G75*
G02*
X0075502Y0231044I-000581J0000000D01*
G01*
X0074340Y0231044D01*
G75*
G02*
X0073760Y0231624I0000000J0000581D01*
G01*
X0073760Y0232983D01*
G75*
G02*
X0074340Y0233563I0000581J0000000D01*
G01*
X0075502Y0233563D01*
G75*
G02*
X0076082Y0232983I0000000J-000581D01*
G01*
G37*
G36*
G01*
X0072263Y0232983D02*
X0072263Y0231624D01*
G75*
G02*
X0071683Y0231044I-000581J0000000D01*
G01*
X0070521Y0231044D01*
G75*
G02*
X0069941Y0231624I0000000J0000581D01*
G01*
X0069941Y0232983D01*
G75*
G02*
X0070521Y0233563I0000581J0000000D01*
G01*
X0071683Y0233563D01*
G75*
G02*
X0072263Y0232983I0000000J-000581D01*
G01*
G37*
G36*
G01*
X0081889Y0247796D02*
X0083228Y0247796D01*
G75*
G02*
X0083779Y0247245I0000000J-000551D01*
G01*
X0083779Y0246142D01*
G75*
G02*
X0083228Y0245591I-000551J0000000D01*
G01*
X0081889Y0245591D01*
G75*
G02*
X0081338Y0246142I0000000J0000551D01*
G01*
X0081338Y0247245D01*
G75*
G02*
X0081889Y0247796I0000551J0000000D01*
G01*
G37*
G36*
G01*
X0081889Y0244016D02*
X0083228Y0244016D01*
G75*
G02*
X0083779Y0243465I0000000J-000551D01*
G01*
X0083779Y0242363D01*
G75*
G02*
X0083228Y0241812I-000551J0000000D01*
G01*
X0081889Y0241812D01*
G75*
G02*
X0081338Y0242363I0000000J0000551D01*
G01*
X0081338Y0243465D01*
G75*
G02*
X0081889Y0244016I0000551J0000000D01*
G01*
G37*
G36*
G01*
X0108149Y0192855D02*
X0106693Y0192855D01*
G75*
G02*
X0106161Y0193386I0000000J0000531D01*
G01*
X0106161Y0194449D01*
G75*
G02*
X0106693Y0194981I0000531J0000000D01*
G01*
X0108149Y0194981D01*
G75*
G02*
X0108681Y0194449I0000000J-000531D01*
G01*
X0108681Y0193386D01*
G75*
G02*
X0108149Y0192855I-000531J0000000D01*
G01*
G37*
G36*
G01*
X0108149Y0196870D02*
X0106693Y0196870D01*
G75*
G02*
X0106161Y0197402I0000000J0000531D01*
G01*
X0106161Y0198465D01*
G75*
G02*
X0106693Y0198996I0000531J0000000D01*
G01*
X0108149Y0198996D01*
G75*
G02*
X0108681Y0198465I0000000J-000531D01*
G01*
X0108681Y0197402D01*
G75*
G02*
X0108149Y0196870I-000531J0000000D01*
G01*
G37*
G36*
G01*
X0093616Y0253583D02*
X0093616Y0255040D01*
G75*
G02*
X0094148Y0255571I0000531J0000000D01*
G01*
X0095211Y0255571D01*
G75*
G02*
X0095742Y0255040I0000000J-000531D01*
G01*
X0095742Y0253583D01*
G75*
G02*
X0095211Y0253052I-000531J0000000D01*
G01*
X0094148Y0253052D01*
G75*
G02*
X0093616Y0253583I0000000J0000531D01*
G01*
G37*
G36*
G01*
X0097632Y0253583D02*
X0097632Y0255040D01*
G75*
G02*
X0098164Y0255571I0000531J0000000D01*
G01*
X0099227Y0255571D01*
G75*
G02*
X0099758Y0255040I0000000J-000531D01*
G01*
X0099758Y0253583D01*
G75*
G02*
X0099227Y0253052I-000531J0000000D01*
G01*
X0098164Y0253052D01*
G75*
G02*
X0097632Y0253583I0000000J0000531D01*
G01*
G37*
G36*
G01*
X0069665Y0252973D02*
X0070846Y0252973D01*
G75*
G02*
X0071437Y0252382I0000000J-000591D01*
G01*
X0071437Y0247756D01*
G75*
G02*
X0070846Y0247166I-000591J0000000D01*
G01*
X0069665Y0247166D01*
G75*
G02*
X0069075Y0247756I0000000J0000591D01*
G01*
X0069075Y0252382D01*
G75*
G02*
X0069665Y0252973I0000591J0000000D01*
G01*
G37*
G36*
G01*
X0077145Y0252973D02*
X0078326Y0252973D01*
G75*
G02*
X0078917Y0252382I0000000J-000591D01*
G01*
X0078917Y0247756D01*
G75*
G02*
X0078326Y0247166I-000591J0000000D01*
G01*
X0077145Y0247166D01*
G75*
G02*
X0076555Y0247756I0000000J0000591D01*
G01*
X0076555Y0252382D01*
G75*
G02*
X0077145Y0252973I0000591J0000000D01*
G01*
G37*
G36*
G01*
X0073405Y0245591D02*
X0074586Y0245591D01*
G75*
G02*
X0075177Y0245000I0000000J-000591D01*
G01*
X0075177Y0240374D01*
G75*
G02*
X0074586Y0239784I-000591J0000000D01*
G01*
X0073405Y0239784D01*
G75*
G02*
X0072815Y0240374I0000000J0000591D01*
G01*
X0072815Y0245000D01*
G75*
G02*
X0073405Y0245591I0000591J0000000D01*
G01*
G37*
G36*
G01*
X0107597Y0255020D02*
X0107597Y0253681D01*
G75*
G02*
X0107045Y0253130I-000551J0000000D01*
G01*
X0105943Y0253130D01*
G75*
G02*
X0105392Y0253681I0000000J0000551D01*
G01*
X0105392Y0255020D01*
G75*
G02*
X0105943Y0255571I0000551J0000000D01*
G01*
X0107045Y0255571D01*
G75*
G02*
X0107597Y0255020I0000000J-000551D01*
G01*
G37*
G36*
G01*
X0103817Y0255020D02*
X0103817Y0253681D01*
G75*
G02*
X0103266Y0253130I-000551J0000000D01*
G01*
X0102164Y0253130D01*
G75*
G02*
X0101612Y0253681I0000000J0000551D01*
G01*
X0101612Y0255020D01*
G75*
G02*
X0102164Y0255571I0000551J0000000D01*
G01*
X0103266Y0255571D01*
G75*
G02*
X0103817Y0255020I0000000J-000551D01*
G01*
G37*
G36*
G01*
X0104526Y0224233D02*
X0103345Y0224233D01*
G75*
G02*
X0102754Y0224823I0000000J0000591D01*
G01*
X0102754Y0230532D01*
G75*
G02*
X0103345Y0231122I0000591J0000000D01*
G01*
X0104526Y0231122D01*
G75*
G02*
X0105116Y0230532I0000000J-000591D01*
G01*
X0105116Y0224823D01*
G75*
G02*
X0104526Y0224233I-000591J0000000D01*
G01*
G37*
G36*
G01*
X0099526Y0224233D02*
X0098345Y0224233D01*
G75*
G02*
X0097754Y0224823I0000000J0000591D01*
G01*
X0097754Y0230532D01*
G75*
G02*
X0098345Y0231122I0000591J0000000D01*
G01*
X0099526Y0231122D01*
G75*
G02*
X0100116Y0230532I0000000J-000591D01*
G01*
X0100116Y0224823D01*
G75*
G02*
X0099526Y0224233I-000591J0000000D01*
G01*
G37*
G36*
G01*
X0094526Y0224233D02*
X0093345Y0224233D01*
G75*
G02*
X0092754Y0224823I0000000J0000591D01*
G01*
X0092754Y0230532D01*
G75*
G02*
X0093345Y0231122I0000591J0000000D01*
G01*
X0094526Y0231122D01*
G75*
G02*
X0095116Y0230532I0000000J-000591D01*
G01*
X0095116Y0224823D01*
G75*
G02*
X0094526Y0224233I-000591J0000000D01*
G01*
G37*
G36*
G01*
X0089526Y0224233D02*
X0088345Y0224233D01*
G75*
G02*
X0087754Y0224823I0000000J0000591D01*
G01*
X0087754Y0230532D01*
G75*
G02*
X0088345Y0231122I0000591J0000000D01*
G01*
X0089526Y0231122D01*
G75*
G02*
X0090116Y0230532I0000000J-000591D01*
G01*
X0090116Y0224823D01*
G75*
G02*
X0089526Y0224233I-000591J0000000D01*
G01*
G37*
G36*
G01*
X0089526Y0244508D02*
X0088345Y0244508D01*
G75*
G02*
X0087754Y0245099I0000000J0000591D01*
G01*
X0087754Y0250807D01*
G75*
G02*
X0088345Y0251398I0000591J0000000D01*
G01*
X0089526Y0251398D01*
G75*
G02*
X0090116Y0250807I0000000J-000591D01*
G01*
X0090116Y0245099D01*
G75*
G02*
X0089526Y0244508I-000591J0000000D01*
G01*
G37*
G36*
G01*
X0094526Y0244508D02*
X0093345Y0244508D01*
G75*
G02*
X0092754Y0245099I0000000J0000591D01*
G01*
X0092754Y0250807D01*
G75*
G02*
X0093345Y0251398I0000591J0000000D01*
G01*
X0094526Y0251398D01*
G75*
G02*
X0095116Y0250807I0000000J-000591D01*
G01*
X0095116Y0245099D01*
G75*
G02*
X0094526Y0244508I-000591J0000000D01*
G01*
G37*
G36*
G01*
X0099526Y0244508D02*
X0098345Y0244508D01*
G75*
G02*
X0097754Y0245099I0000000J0000591D01*
G01*
X0097754Y0250807D01*
G75*
G02*
X0098345Y0251398I0000591J0000000D01*
G01*
X0099526Y0251398D01*
G75*
G02*
X0100116Y0250807I0000000J-000591D01*
G01*
X0100116Y0245099D01*
G75*
G02*
X0099526Y0244508I-000591J0000000D01*
G01*
G37*
G36*
G01*
X0104526Y0244508D02*
X0103345Y0244508D01*
G75*
G02*
X0102754Y0245099I0000000J0000591D01*
G01*
X0102754Y0250807D01*
G75*
G02*
X0103345Y0251398I0000591J0000000D01*
G01*
X0104526Y0251398D01*
G75*
G02*
X0105116Y0250807I0000000J-000591D01*
G01*
X0105116Y0245099D01*
G75*
G02*
X0104526Y0244508I-000591J0000000D01*
G01*
G37*
X0451612Y0145321D02*
%LPD*%
G01*
G36*
G01*
X0434683Y0114727D02*
X0434683Y0115908D01*
G75*
G02*
X0435273Y0116499I0000591J0000000D01*
G01*
X0439309Y0116499D01*
G75*
G02*
X0439899Y0115908I0000000J-000591D01*
G01*
X0439899Y0114727D01*
G75*
G02*
X0439309Y0114137I-000591J0000000D01*
G01*
X0435273Y0114137D01*
G75*
G02*
X0434683Y0114727I0000000J0000591D01*
G01*
G37*
G36*
G01*
X0434683Y0118468D02*
X0434683Y0119649D01*
G75*
G02*
X0435273Y0120239I0000591J0000000D01*
G01*
X0439309Y0120239D01*
G75*
G02*
X0439899Y0119649I0000000J-000591D01*
G01*
X0439899Y0118468D01*
G75*
G02*
X0439309Y0117877I-000591J0000000D01*
G01*
X0435273Y0117877D01*
G75*
G02*
X0434683Y0118468I0000000J0000591D01*
G01*
G37*
G36*
G01*
X0434683Y0122208D02*
X0434683Y0123389D01*
G75*
G02*
X0435273Y0123979I0000591J0000000D01*
G01*
X0439309Y0123979D01*
G75*
G02*
X0439899Y0123389I0000000J-000591D01*
G01*
X0439899Y0122208D01*
G75*
G02*
X0439309Y0121617I-000591J0000000D01*
G01*
X0435273Y0121617D01*
G75*
G02*
X0434683Y0122208I0000000J0000591D01*
G01*
G37*
G36*
G01*
X0443640Y0122208D02*
X0443640Y0123389D01*
G75*
G02*
X0444230Y0123979I0000591J0000000D01*
G01*
X0448266Y0123979D01*
G75*
G02*
X0448856Y0123389I0000000J-000591D01*
G01*
X0448856Y0122208D01*
G75*
G02*
X0448266Y0121617I-000591J0000000D01*
G01*
X0444230Y0121617D01*
G75*
G02*
X0443640Y0122208I0000000J0000591D01*
G01*
G37*
G36*
G01*
X0443640Y0114727D02*
X0443640Y0115908D01*
G75*
G02*
X0444230Y0116499I0000591J0000000D01*
G01*
X0448266Y0116499D01*
G75*
G02*
X0448856Y0115908I0000000J-000591D01*
G01*
X0448856Y0114727D01*
G75*
G02*
X0448266Y0114137I-000591J0000000D01*
G01*
X0444230Y0114137D01*
G75*
G02*
X0443640Y0114727I0000000J0000591D01*
G01*
G37*
G36*
G01*
X0434958Y0137014D02*
X0433620Y0137014D01*
G75*
G02*
X0433069Y0137565I0000000J0000551D01*
G01*
X0433069Y0138667D01*
G75*
G02*
X0433620Y0139219I0000551J0000000D01*
G01*
X0434958Y0139219D01*
G75*
G02*
X0435510Y0138667I0000000J-000551D01*
G01*
X0435510Y0137565D01*
G75*
G02*
X0434958Y0137014I-000551J0000000D01*
G01*
G37*
G36*
G01*
X0434958Y0140793D02*
X0433620Y0140793D01*
G75*
G02*
X0433069Y0141345I0000000J0000551D01*
G01*
X0433069Y0142447D01*
G75*
G02*
X0433620Y0142998I0000551J0000000D01*
G01*
X0434958Y0142998D01*
G75*
G02*
X0435510Y0142447I0000000J-000551D01*
G01*
X0435510Y0141345D01*
G75*
G02*
X0434958Y0140793I-000551J0000000D01*
G01*
G37*
G36*
G01*
X0408443Y0114297D02*
X0408443Y0112959D01*
G75*
G02*
X0407892Y0112408I-000551J0000000D01*
G01*
X0406789Y0112408D01*
G75*
G02*
X0406238Y0112959I0000000J0000551D01*
G01*
X0406238Y0114297D01*
G75*
G02*
X0406789Y0114849I0000551J0000000D01*
G01*
X0407892Y0114849D01*
G75*
G02*
X0408443Y0114297I0000000J-000551D01*
G01*
G37*
G36*
G01*
X0404663Y0114297D02*
X0404663Y0112959D01*
G75*
G02*
X0404112Y0112408I-000551J0000000D01*
G01*
X0403010Y0112408D01*
G75*
G02*
X0402458Y0112959I0000000J0000551D01*
G01*
X0402458Y0114297D01*
G75*
G02*
X0403010Y0114849I0000551J0000000D01*
G01*
X0404112Y0114849D01*
G75*
G02*
X0404663Y0114297I0000000J-000551D01*
G01*
G37*
G36*
G01*
X0395096Y0109297D02*
X0395096Y0110636D01*
G75*
G02*
X0395647Y0111187I0000551J0000000D01*
G01*
X0396750Y0111187D01*
G75*
G02*
X0397301Y0110636I0000000J-000551D01*
G01*
X0397301Y0109297D01*
G75*
G02*
X0396750Y0108746I-000551J0000000D01*
G01*
X0395647Y0108746D01*
G75*
G02*
X0395096Y0109297I0000000J0000551D01*
G01*
G37*
G36*
G01*
X0398876Y0109297D02*
X0398876Y0110636D01*
G75*
G02*
X0399427Y0111187I0000551J0000000D01*
G01*
X0400529Y0111187D01*
G75*
G02*
X0401081Y0110636I0000000J-000551D01*
G01*
X0401081Y0109297D01*
G75*
G02*
X0400529Y0108746I-000551J0000000D01*
G01*
X0399427Y0108746D01*
G75*
G02*
X0398876Y0109297I0000000J0000551D01*
G01*
G37*
G36*
G01*
X0416848Y0118038D02*
X0416848Y0116699D01*
G75*
G02*
X0416297Y0116148I-000551J0000000D01*
G01*
X0415195Y0116148D01*
G75*
G02*
X0414643Y0116699I0000000J0000551D01*
G01*
X0414643Y0118038D01*
G75*
G02*
X0415195Y0118589I0000551J0000000D01*
G01*
X0416297Y0118589D01*
G75*
G02*
X0416848Y0118038I0000000J-000551D01*
G01*
G37*
G36*
G01*
X0413069Y0118038D02*
X0413069Y0116699D01*
G75*
G02*
X0412518Y0116148I-000551J0000000D01*
G01*
X0411415Y0116148D01*
G75*
G02*
X0410864Y0116699I0000000J0000551D01*
G01*
X0410864Y0118038D01*
G75*
G02*
X0411415Y0118589I0000551J0000000D01*
G01*
X0412518Y0118589D01*
G75*
G02*
X0413069Y0118038I0000000J-000551D01*
G01*
G37*
G36*
G01*
X0395293Y0112959D02*
X0395293Y0114297D01*
G75*
G02*
X0395844Y0114849I0000551J0000000D01*
G01*
X0396947Y0114849D01*
G75*
G02*
X0397498Y0114297I0000000J-000551D01*
G01*
X0397498Y0112959D01*
G75*
G02*
X0396947Y0112408I-000551J0000000D01*
G01*
X0395844Y0112408D01*
G75*
G02*
X0395293Y0112959I0000000J0000551D01*
G01*
G37*
G36*
G01*
X0399073Y0112959D02*
X0399073Y0114297D01*
G75*
G02*
X0399624Y0114849I0000551J0000000D01*
G01*
X0400726Y0114849D01*
G75*
G02*
X0401277Y0114297I0000000J-000551D01*
G01*
X0401277Y0112959D01*
G75*
G02*
X0400726Y0112408I-000551J0000000D01*
G01*
X0399624Y0112408D01*
G75*
G02*
X0399073Y0112959I0000000J0000551D01*
G01*
G37*
G36*
G01*
X0400569Y0134475D02*
X0400569Y0133136D01*
G75*
G02*
X0400018Y0132585I-000551J0000000D01*
G01*
X0398915Y0132585D01*
G75*
G02*
X0398364Y0133136I0000000J0000551D01*
G01*
X0398364Y0134475D01*
G75*
G02*
X0398915Y0135026I0000551J0000000D01*
G01*
X0400018Y0135026D01*
G75*
G02*
X0400569Y0134475I0000000J-000551D01*
G01*
G37*
G36*
G01*
X0396789Y0134475D02*
X0396789Y0133136D01*
G75*
G02*
X0396238Y0132585I-000551J0000000D01*
G01*
X0395136Y0132585D01*
G75*
G02*
X0394584Y0133136I0000000J0000551D01*
G01*
X0394584Y0134475D01*
G75*
G02*
X0395136Y0135026I0000551J0000000D01*
G01*
X0396238Y0135026D01*
G75*
G02*
X0396789Y0134475I0000000J-000551D01*
G01*
G37*
G36*
G01*
X0431078Y0141975D02*
X0431078Y0141187D01*
G75*
G02*
X0430684Y0140793I-000394J0000000D01*
G01*
X0425664Y0140793D01*
G75*
G02*
X0425271Y0141187I0000000J0000394D01*
G01*
X0425271Y0141975D01*
G75*
G02*
X0425664Y0142368I0000394J0000000D01*
G01*
X0430684Y0142368D01*
G75*
G02*
X0431078Y0141975I0000000J-000394D01*
G01*
G37*
G36*
G01*
X0431078Y0139415D02*
X0431078Y0138628D01*
G75*
G02*
X0430684Y0138234I-000394J0000000D01*
G01*
X0425664Y0138234D01*
G75*
G02*
X0425271Y0138628I0000000J0000394D01*
G01*
X0425271Y0139415D01*
G75*
G02*
X0425664Y0139809I0000394J0000000D01*
G01*
X0430684Y0139809D01*
G75*
G02*
X0431078Y0139415I0000000J-000394D01*
G01*
G37*
G36*
G01*
X0431078Y0136856D02*
X0431078Y0136069D01*
G75*
G02*
X0430684Y0135675I-000394J0000000D01*
G01*
X0425664Y0135675D01*
G75*
G02*
X0425271Y0136069I0000000J0000394D01*
G01*
X0425271Y0136856D01*
G75*
G02*
X0425664Y0137250I0000394J0000000D01*
G01*
X0430684Y0137250D01*
G75*
G02*
X0431078Y0136856I0000000J-000394D01*
G01*
G37*
G36*
G01*
X0431078Y0134297D02*
X0431078Y0133510D01*
G75*
G02*
X0430684Y0133116I-000394J0000000D01*
G01*
X0425664Y0133116D01*
G75*
G02*
X0425271Y0133510I0000000J0000394D01*
G01*
X0425271Y0134297D01*
G75*
G02*
X0425664Y0134691I0000394J0000000D01*
G01*
X0430684Y0134691D01*
G75*
G02*
X0431078Y0134297I0000000J-000394D01*
G01*
G37*
G36*
G01*
X0431078Y0131738D02*
X0431078Y0130951D01*
G75*
G02*
X0430684Y0130557I-000394J0000000D01*
G01*
X0425664Y0130557D01*
G75*
G02*
X0425271Y0130951I0000000J0000394D01*
G01*
X0425271Y0131738D01*
G75*
G02*
X0425664Y0132132I0000394J0000000D01*
G01*
X0430684Y0132132D01*
G75*
G02*
X0431078Y0131738I0000000J-000394D01*
G01*
G37*
G36*
G01*
X0431078Y0129179D02*
X0431078Y0128392D01*
G75*
G02*
X0430684Y0127998I-000394J0000000D01*
G01*
X0425664Y0127998D01*
G75*
G02*
X0425271Y0128392I0000000J0000394D01*
G01*
X0425271Y0129179D01*
G75*
G02*
X0425664Y0129573I0000394J0000000D01*
G01*
X0430684Y0129573D01*
G75*
G02*
X0431078Y0129179I0000000J-000394D01*
G01*
G37*
G36*
G01*
X0431078Y0126620D02*
X0431078Y0125833D01*
G75*
G02*
X0430684Y0125439I-000394J0000000D01*
G01*
X0425664Y0125439D01*
G75*
G02*
X0425271Y0125833I0000000J0000394D01*
G01*
X0425271Y0126620D01*
G75*
G02*
X0425664Y0127014I0000394J0000000D01*
G01*
X0430684Y0127014D01*
G75*
G02*
X0431078Y0126620I0000000J-000394D01*
G01*
G37*
G36*
G01*
X0408538Y0126620D02*
X0408538Y0125833D01*
G75*
G02*
X0408145Y0125439I-000394J0000000D01*
G01*
X0403125Y0125439D01*
G75*
G02*
X0402731Y0125833I0000000J0000394D01*
G01*
X0402731Y0126620D01*
G75*
G02*
X0403125Y0127014I0000394J0000000D01*
G01*
X0408145Y0127014D01*
G75*
G02*
X0408538Y0126620I0000000J-000394D01*
G01*
G37*
G36*
G01*
X0408538Y0129179D02*
X0408538Y0128392D01*
G75*
G02*
X0408145Y0127998I-000394J0000000D01*
G01*
X0403125Y0127998D01*
G75*
G02*
X0402731Y0128392I0000000J0000394D01*
G01*
X0402731Y0129179D01*
G75*
G02*
X0403125Y0129573I0000394J0000000D01*
G01*
X0408145Y0129573D01*
G75*
G02*
X0408538Y0129179I0000000J-000394D01*
G01*
G37*
G36*
G01*
X0408538Y0131738D02*
X0408538Y0130951D01*
G75*
G02*
X0408145Y0130557I-000394J0000000D01*
G01*
X0403125Y0130557D01*
G75*
G02*
X0402731Y0130951I0000000J0000394D01*
G01*
X0402731Y0131738D01*
G75*
G02*
X0403125Y0132132I0000394J0000000D01*
G01*
X0408145Y0132132D01*
G75*
G02*
X0408538Y0131738I0000000J-000394D01*
G01*
G37*
G36*
G01*
X0408538Y0134297D02*
X0408538Y0133510D01*
G75*
G02*
X0408145Y0133116I-000394J0000000D01*
G01*
X0403125Y0133116D01*
G75*
G02*
X0402731Y0133510I0000000J0000394D01*
G01*
X0402731Y0134297D01*
G75*
G02*
X0403125Y0134691I0000394J0000000D01*
G01*
X0408145Y0134691D01*
G75*
G02*
X0408538Y0134297I0000000J-000394D01*
G01*
G37*
G36*
G01*
X0408538Y0136856D02*
X0408538Y0136069D01*
G75*
G02*
X0408145Y0135675I-000394J0000000D01*
G01*
X0403125Y0135675D01*
G75*
G02*
X0402731Y0136069I0000000J0000394D01*
G01*
X0402731Y0136856D01*
G75*
G02*
X0403125Y0137250I0000394J0000000D01*
G01*
X0408145Y0137250D01*
G75*
G02*
X0408538Y0136856I0000000J-000394D01*
G01*
G37*
G36*
G01*
X0408538Y0139415D02*
X0408538Y0138628D01*
G75*
G02*
X0408145Y0138234I-000394J0000000D01*
G01*
X0403125Y0138234D01*
G75*
G02*
X0402731Y0138628I0000000J0000394D01*
G01*
X0402731Y0139415D01*
G75*
G02*
X0403125Y0139809I0000394J0000000D01*
G01*
X0408145Y0139809D01*
G75*
G02*
X0408538Y0139415I0000000J-000394D01*
G01*
G37*
G36*
G01*
X0408538Y0141975D02*
X0408538Y0141187D01*
G75*
G02*
X0408145Y0140793I-000394J0000000D01*
G01*
X0403125Y0140793D01*
G75*
G02*
X0402731Y0141187I0000000J0000394D01*
G01*
X0402731Y0141975D01*
G75*
G02*
X0403125Y0142368I0000394J0000000D01*
G01*
X0408145Y0142368D01*
G75*
G02*
X0408538Y0141975I0000000J-000394D01*
G01*
G37*
G36*
G01*
X0448721Y0134104D02*
X0448721Y0130561D01*
G75*
G02*
X0447737Y0129577I-000984J0000000D01*
G01*
X0445670Y0129577D01*
G75*
G02*
X0444686Y0130561I0000000J0000984D01*
G01*
X0444686Y0134104D01*
G75*
G02*
X0445670Y0135089I0000984J0000000D01*
G01*
X0447737Y0135089D01*
G75*
G02*
X0448721Y0134104I0000000J-000984D01*
G01*
G37*
G36*
G01*
X0441536Y0134104D02*
X0441536Y0130561D01*
G75*
G02*
X0440552Y0129577I-000984J0000000D01*
G01*
X0438485Y0129577D01*
G75*
G02*
X0437501Y0130561I0000000J0000984D01*
G01*
X0437501Y0134104D01*
G75*
G02*
X0438485Y0135089I0000984J0000000D01*
G01*
X0440552Y0135089D01*
G75*
G02*
X0441536Y0134104I0000000J-000984D01*
G01*
G37*
G36*
G01*
X0402478Y0120380D02*
X0402478Y0121837D01*
G75*
G02*
X0403010Y0122368I0000531J0000000D01*
G01*
X0404073Y0122368D01*
G75*
G02*
X0404604Y0121837I0000000J-000531D01*
G01*
X0404604Y0120380D01*
G75*
G02*
X0404073Y0119849I-000531J0000000D01*
G01*
X0403010Y0119849D01*
G75*
G02*
X0402478Y0120380I0000000J0000531D01*
G01*
G37*
G36*
G01*
X0406494Y0120380D02*
X0406494Y0121837D01*
G75*
G02*
X0407025Y0122368I0000531J0000000D01*
G01*
X0408088Y0122368D01*
G75*
G02*
X0408620Y0121837I0000000J-000531D01*
G01*
X0408620Y0120380D01*
G75*
G02*
X0408088Y0119849I-000531J0000000D01*
G01*
X0407025Y0119849D01*
G75*
G02*
X0406494Y0120380I0000000J0000531D01*
G01*
G37*
G36*
G01*
X0442911Y0109455D02*
X0442911Y0110793D01*
G75*
G02*
X0443462Y0111345I0000551J0000000D01*
G01*
X0444565Y0111345D01*
G75*
G02*
X0445116Y0110793I0000000J-000551D01*
G01*
X0445116Y0109455D01*
G75*
G02*
X0444565Y0108904I-000551J0000000D01*
G01*
X0443462Y0108904D01*
G75*
G02*
X0442911Y0109455I0000000J0000551D01*
G01*
G37*
G36*
G01*
X0446691Y0109455D02*
X0446691Y0110793D01*
G75*
G02*
X0447242Y0111345I0000551J0000000D01*
G01*
X0448344Y0111345D01*
G75*
G02*
X0448895Y0110793I0000000J-000551D01*
G01*
X0448895Y0109455D01*
G75*
G02*
X0448344Y0108904I-000551J0000000D01*
G01*
X0447242Y0108904D01*
G75*
G02*
X0446691Y0109455I0000000J0000551D01*
G01*
G37*
G36*
G01*
X0394801Y0116640D02*
X0394801Y0118097D01*
G75*
G02*
X0395332Y0118628I0000531J0000000D01*
G01*
X0396395Y0118628D01*
G75*
G02*
X0396927Y0118097I0000000J-000531D01*
G01*
X0396927Y0116640D01*
G75*
G02*
X0396395Y0116108I-000531J0000000D01*
G01*
X0395332Y0116108D01*
G75*
G02*
X0394801Y0116640I0000000J0000531D01*
G01*
G37*
G36*
G01*
X0398817Y0116640D02*
X0398817Y0118097D01*
G75*
G02*
X0399348Y0118628I0000531J0000000D01*
G01*
X0400411Y0118628D01*
G75*
G02*
X0400943Y0118097I0000000J-000531D01*
G01*
X0400943Y0116640D01*
G75*
G02*
X0400411Y0116108I-000531J0000000D01*
G01*
X0399348Y0116108D01*
G75*
G02*
X0398817Y0116640I0000000J0000531D01*
G01*
G37*
G36*
G01*
X0410734Y0120380D02*
X0410734Y0121836D01*
G75*
G02*
X0411266Y0122368I0000531J0000000D01*
G01*
X0412329Y0122368D01*
G75*
G02*
X0412860Y0121836I0000000J-000531D01*
G01*
X0412860Y0120380D01*
G75*
G02*
X0412329Y0119848I-000531J0000000D01*
G01*
X0411266Y0119848D01*
G75*
G02*
X0410734Y0120380I0000000J0000531D01*
G01*
G37*
G36*
G01*
X0414750Y0120380D02*
X0414750Y0121836D01*
G75*
G02*
X0415282Y0122368I0000531J0000000D01*
G01*
X0416345Y0122368D01*
G75*
G02*
X0416876Y0121836I0000000J-000531D01*
G01*
X0416876Y0120380D01*
G75*
G02*
X0416345Y0119848I-000531J0000000D01*
G01*
X0415282Y0119848D01*
G75*
G02*
X0414750Y0120380I0000000J0000531D01*
G01*
G37*
G36*
G01*
X0437501Y0138136D02*
X0437501Y0141679D01*
G75*
G02*
X0438485Y0142664I0000984J0000000D01*
G01*
X0440552Y0142664D01*
G75*
G02*
X0441536Y0141679I0000000J-000984D01*
G01*
X0441536Y0138136D01*
G75*
G02*
X0440552Y0137152I-000984J0000000D01*
G01*
X0438485Y0137152D01*
G75*
G02*
X0437501Y0138136I0000000J0000984D01*
G01*
G37*
G36*
G01*
X0444686Y0138136D02*
X0444686Y0141679D01*
G75*
G02*
X0445670Y0142664I0000984J0000000D01*
G01*
X0447737Y0142664D01*
G75*
G02*
X0448721Y0141679I0000000J-000984D01*
G01*
X0448721Y0138136D01*
G75*
G02*
X0447737Y0137152I-000984J0000000D01*
G01*
X0445670Y0137152D01*
G75*
G02*
X0444686Y0138136I0000000J0000984D01*
G01*
G37*
G36*
G01*
X0410785Y0109238D02*
X0410785Y0110695D01*
G75*
G02*
X0411317Y0111227I0000531J0000000D01*
G01*
X0412380Y0111227D01*
G75*
G02*
X0412911Y0110695I0000000J-000531D01*
G01*
X0412911Y0109238D01*
G75*
G02*
X0412380Y0108707I-000531J0000000D01*
G01*
X0411317Y0108707D01*
G75*
G02*
X0410785Y0109238I0000000J0000531D01*
G01*
G37*
G36*
G01*
X0414801Y0109238D02*
X0414801Y0110695D01*
G75*
G02*
X0415332Y0111227I0000531J0000000D01*
G01*
X0416395Y0111227D01*
G75*
G02*
X0416927Y0110695I0000000J-000531D01*
G01*
X0416927Y0109238D01*
G75*
G02*
X0416395Y0108707I-000531J0000000D01*
G01*
X0415332Y0108707D01*
G75*
G02*
X0414801Y0109238I0000000J0000531D01*
G01*
G37*
G36*
G01*
X0401100Y0142742D02*
X0401100Y0141286D01*
G75*
G02*
X0400569Y0140754I-000531J0000000D01*
G01*
X0399506Y0140754D01*
G75*
G02*
X0398974Y0141286I0000000J0000531D01*
G01*
X0398974Y0142742D01*
G75*
G02*
X0399506Y0143274I0000531J0000000D01*
G01*
X0400569Y0143274D01*
G75*
G02*
X0401100Y0142742I0000000J-000531D01*
G01*
G37*
G36*
G01*
X0397084Y0142742D02*
X0397084Y0141286D01*
G75*
G02*
X0396553Y0140754I-000531J0000000D01*
G01*
X0395490Y0140754D01*
G75*
G02*
X0394958Y0141286I0000000J0000531D01*
G01*
X0394958Y0142742D01*
G75*
G02*
X0395490Y0143274I0000531J0000000D01*
G01*
X0396553Y0143274D01*
G75*
G02*
X0397084Y0142742I0000000J-000531D01*
G01*
G37*
G36*
G01*
X0400647Y0130793D02*
X0400647Y0129337D01*
G75*
G02*
X0400116Y0128805I-000531J0000000D01*
G01*
X0399053Y0128805D01*
G75*
G02*
X0398521Y0129337I0000000J0000531D01*
G01*
X0398521Y0130793D01*
G75*
G02*
X0399053Y0131325I0000531J0000000D01*
G01*
X0400116Y0131325D01*
G75*
G02*
X0400647Y0130793I0000000J-000531D01*
G01*
G37*
G36*
G01*
X0396632Y0130793D02*
X0396632Y0129337D01*
G75*
G02*
X0396100Y0128805I-000531J0000000D01*
G01*
X0395037Y0128805D01*
G75*
G02*
X0394506Y0129337I0000000J0000531D01*
G01*
X0394506Y0130793D01*
G75*
G02*
X0395037Y0131325I0000531J0000000D01*
G01*
X0396100Y0131325D01*
G75*
G02*
X0396632Y0130793I0000000J-000531D01*
G01*
G37*
G36*
G01*
X0402183Y0116640D02*
X0402183Y0118097D01*
G75*
G02*
X0402714Y0118628I0000531J0000000D01*
G01*
X0403777Y0118628D01*
G75*
G02*
X0404309Y0118097I0000000J-000531D01*
G01*
X0404309Y0116640D01*
G75*
G02*
X0403777Y0116108I-000531J0000000D01*
G01*
X0402714Y0116108D01*
G75*
G02*
X0402183Y0116640I0000000J0000531D01*
G01*
G37*
G36*
G01*
X0406199Y0116640D02*
X0406199Y0118097D01*
G75*
G02*
X0406730Y0118628I0000531J0000000D01*
G01*
X0407793Y0118628D01*
G75*
G02*
X0408325Y0118097I0000000J-000531D01*
G01*
X0408325Y0116640D01*
G75*
G02*
X0407793Y0116108I-000531J0000000D01*
G01*
X0406730Y0116108D01*
G75*
G02*
X0406199Y0116640I0000000J0000531D01*
G01*
G37*
G36*
G01*
X0394486Y0125557D02*
X0394486Y0126896D01*
G75*
G02*
X0395037Y0127447I0000551J0000000D01*
G01*
X0396140Y0127447D01*
G75*
G02*
X0396691Y0126896I0000000J-000551D01*
G01*
X0396691Y0125557D01*
G75*
G02*
X0396140Y0125006I-000551J0000000D01*
G01*
X0395037Y0125006D01*
G75*
G02*
X0394486Y0125557I0000000J0000551D01*
G01*
G37*
G36*
G01*
X0398266Y0125557D02*
X0398266Y0126896D01*
G75*
G02*
X0398817Y0127447I0000551J0000000D01*
G01*
X0399919Y0127447D01*
G75*
G02*
X0400470Y0126896I0000000J-000551D01*
G01*
X0400470Y0125557D01*
G75*
G02*
X0399919Y0125006I-000551J0000000D01*
G01*
X0398817Y0125006D01*
G75*
G02*
X0398266Y0125557I0000000J0000551D01*
G01*
G37*
G36*
G01*
X0433634Y0135772D02*
X0434972Y0135772D01*
G75*
G02*
X0435524Y0135221I0000000J-000551D01*
G01*
X0435524Y0134119D01*
G75*
G02*
X0434972Y0133567I-000551J0000000D01*
G01*
X0433634Y0133567D01*
G75*
G02*
X0433083Y0134119I0000000J0000551D01*
G01*
X0433083Y0135221D01*
G75*
G02*
X0433634Y0135772I0000551J0000000D01*
G01*
G37*
G36*
G01*
X0433634Y0131993D02*
X0434972Y0131993D01*
G75*
G02*
X0435524Y0131442I0000000J-000551D01*
G01*
X0435524Y0130339D01*
G75*
G02*
X0434972Y0129788I-000551J0000000D01*
G01*
X0433634Y0129788D01*
G75*
G02*
X0433083Y0130339I0000000J0000551D01*
G01*
X0433083Y0131442D01*
G75*
G02*
X0433634Y0131993I0000551J0000000D01*
G01*
G37*
G36*
G01*
X0401140Y0121837D02*
X0401140Y0120380D01*
G75*
G02*
X0400608Y0119849I-000531J0000000D01*
G01*
X0399545Y0119849D01*
G75*
G02*
X0399014Y0120380I0000000J0000531D01*
G01*
X0399014Y0121837D01*
G75*
G02*
X0399545Y0122368I0000531J0000000D01*
G01*
X0400608Y0122368D01*
G75*
G02*
X0401140Y0121837I0000000J-000531D01*
G01*
G37*
G36*
G01*
X0397124Y0121837D02*
X0397124Y0120380D01*
G75*
G02*
X0396592Y0119849I-000531J0000000D01*
G01*
X0395529Y0119849D01*
G75*
G02*
X0394998Y0120380I0000000J0000531D01*
G01*
X0394998Y0121837D01*
G75*
G02*
X0395529Y0122368I0000531J0000000D01*
G01*
X0396592Y0122368D01*
G75*
G02*
X0397124Y0121837I0000000J-000531D01*
G01*
G37*
G36*
G01*
X0418541Y0110478D02*
X0418541Y0111660D01*
G75*
G02*
X0419132Y0112250I0000591J0000000D01*
G01*
X0423167Y0112250D01*
G75*
G02*
X0423758Y0111660I0000000J-000591D01*
G01*
X0423758Y0110478D01*
G75*
G02*
X0423167Y0109888I-000591J0000000D01*
G01*
X0419132Y0109888D01*
G75*
G02*
X0418541Y0110478I0000000J0000591D01*
G01*
G37*
G36*
G01*
X0418541Y0114219D02*
X0418541Y0115400D01*
G75*
G02*
X0419132Y0115990I0000591J0000000D01*
G01*
X0423167Y0115990D01*
G75*
G02*
X0423758Y0115400I0000000J-000591D01*
G01*
X0423758Y0114219D01*
G75*
G02*
X0423167Y0113628I-000591J0000000D01*
G01*
X0419132Y0113628D01*
G75*
G02*
X0418541Y0114219I0000000J0000591D01*
G01*
G37*
G36*
G01*
X0418541Y0117959D02*
X0418541Y0119140D01*
G75*
G02*
X0419132Y0119730I0000591J0000000D01*
G01*
X0423167Y0119730D01*
G75*
G02*
X0423758Y0119140I0000000J-000591D01*
G01*
X0423758Y0117959D01*
G75*
G02*
X0423167Y0117368I-000591J0000000D01*
G01*
X0419132Y0117368D01*
G75*
G02*
X0418541Y0117959I0000000J0000591D01*
G01*
G37*
G36*
G01*
X0427498Y0117959D02*
X0427498Y0119140D01*
G75*
G02*
X0428088Y0119730I0000591J0000000D01*
G01*
X0432124Y0119730D01*
G75*
G02*
X0432714Y0119140I0000000J-000591D01*
G01*
X0432714Y0117959D01*
G75*
G02*
X0432124Y0117368I-000591J0000000D01*
G01*
X0428088Y0117368D01*
G75*
G02*
X0427498Y0117959I0000000J0000591D01*
G01*
G37*
G36*
G01*
X0427498Y0110478D02*
X0427498Y0111660D01*
G75*
G02*
X0428088Y0112250I0000591J0000000D01*
G01*
X0432124Y0112250D01*
G75*
G02*
X0432714Y0111660I0000000J-000591D01*
G01*
X0432714Y0110478D01*
G75*
G02*
X0432124Y0109888I-000591J0000000D01*
G01*
X0428088Y0109888D01*
G75*
G02*
X0427498Y0110478I0000000J0000591D01*
G01*
G37*
G36*
G01*
X0416848Y0114297D02*
X0416848Y0112959D01*
G75*
G02*
X0416297Y0112408I-000551J0000000D01*
G01*
X0415195Y0112408D01*
G75*
G02*
X0414643Y0112959I0000000J0000551D01*
G01*
X0414643Y0114297D01*
G75*
G02*
X0415195Y0114849I0000551J0000000D01*
G01*
X0416297Y0114849D01*
G75*
G02*
X0416848Y0114297I0000000J-000551D01*
G01*
G37*
G36*
G01*
X0413069Y0114297D02*
X0413069Y0112959D01*
G75*
G02*
X0412518Y0112408I-000551J0000000D01*
G01*
X0411415Y0112408D01*
G75*
G02*
X0410864Y0112959I0000000J0000551D01*
G01*
X0410864Y0114297D01*
G75*
G02*
X0411415Y0114849I0000551J0000000D01*
G01*
X0412518Y0114849D01*
G75*
G02*
X0413069Y0114297I0000000J-000551D01*
G01*
G37*
M02*
