G75*
G70*
%OFA0B0*%
%FSLAX25Y25*%
%IPPOS*%
%LPD*%
%AMOC8*
5,1,8,0,0,1.08239X$1,22.5*
%
%AMM152*
21,1,0.041340,0.026770,-0.000000,-0.000000,180.000000*
21,1,0.029130,0.038980,-0.000000,-0.000000,180.000000*
1,1,0.012210,-0.014570,0.013390*
1,1,0.012210,0.014570,0.013390*
1,1,0.012210,0.014570,-0.013390*
1,1,0.012210,-0.014570,-0.013390*
%
%AMM153*
21,1,0.076380,0.036220,-0.000000,-0.000000,270.000000*
21,1,0.061810,0.050790,-0.000000,-0.000000,270.000000*
1,1,0.014570,-0.018110,-0.030910*
1,1,0.014570,-0.018110,0.030910*
1,1,0.014570,0.018110,0.030910*
1,1,0.014570,0.018110,-0.030910*
%
%AMM156*
21,1,0.029130,0.018900,-0.000000,-0.000000,270.000000*
21,1,0.018900,0.029130,-0.000000,-0.000000,270.000000*
1,1,0.010240,-0.009450,-0.009450*
1,1,0.010240,-0.009450,0.009450*
1,1,0.010240,0.009450,0.009450*
1,1,0.010240,0.009450,-0.009450*
%
%AMM157*
21,1,0.025200,0.019680,-0.000000,-0.000000,180.000000*
21,1,0.015750,0.029130,-0.000000,-0.000000,180.000000*
1,1,0.009450,-0.007870,0.009840*
1,1,0.009450,0.007870,0.009840*
1,1,0.009450,0.007870,-0.009840*
1,1,0.009450,-0.007870,-0.009840*
%
%AMM158*
21,1,0.025200,0.019680,-0.000000,-0.000000,90.000000*
21,1,0.015750,0.029130,-0.000000,-0.000000,90.000000*
1,1,0.009450,0.009840,0.007870*
1,1,0.009450,0.009840,-0.007870*
1,1,0.009450,-0.009840,-0.007870*
1,1,0.009450,-0.009840,0.007870*
%
%AMM164*
21,1,0.029130,0.018900,-0.000000,-0.000000,180.000000*
21,1,0.018900,0.029130,-0.000000,-0.000000,180.000000*
1,1,0.010240,-0.009450,0.009450*
1,1,0.010240,0.009450,0.009450*
1,1,0.010240,0.009450,-0.009450*
1,1,0.010240,-0.009450,-0.009450*
%
%AMM165*
21,1,0.111810,0.050390,-0.000000,-0.000000,270.000000*
21,1,0.093700,0.068500,-0.000000,-0.000000,270.000000*
1,1,0.018110,-0.025200,-0.046850*
1,1,0.018110,-0.025200,0.046850*
1,1,0.018110,0.025200,0.046850*
1,1,0.018110,0.025200,-0.046850*
%
%AMM166*
21,1,0.038980,0.026770,-0.000000,-0.000000,90.000000*
21,1,0.026770,0.038980,-0.000000,-0.000000,90.000000*
1,1,0.012210,0.013390,0.013390*
1,1,0.012210,0.013390,-0.013390*
1,1,0.012210,-0.013390,-0.013390*
1,1,0.012210,-0.013390,0.013390*
%
%AMM167*
21,1,0.127560,0.075590,-0.000000,-0.000000,0.000000*
21,1,0.103150,0.100000,-0.000000,-0.000000,0.000000*
1,1,0.024410,0.051580,-0.037800*
1,1,0.024410,-0.051580,-0.037800*
1,1,0.024410,-0.051580,0.037800*
1,1,0.024410,0.051580,0.037800*
%
%AMM168*
21,1,0.123620,0.083460,-0.000000,-0.000000,180.000000*
21,1,0.097240,0.109840,-0.000000,-0.000000,180.000000*
1,1,0.026380,-0.048620,0.041730*
1,1,0.026380,0.048620,0.041730*
1,1,0.026380,0.048620,-0.041730*
1,1,0.026380,-0.048620,-0.041730*
%
%AMM25*
21,1,0.025200,0.019680,0.000000,0.000000,0.000000*
21,1,0.015750,0.029130,0.000000,0.000000,0.000000*
1,1,0.009450,0.007870,-0.009840*
1,1,0.009450,-0.007870,-0.009840*
1,1,0.009450,-0.007870,0.009840*
1,1,0.009450,0.007870,0.009840*
%
%AMM26*
21,1,0.025200,0.019680,0.000000,0.000000,270.000000*
21,1,0.015750,0.029130,0.000000,0.000000,270.000000*
1,1,0.009450,-0.009840,-0.007870*
1,1,0.009450,-0.009840,0.007870*
1,1,0.009450,0.009840,0.007870*
1,1,0.009450,0.009840,-0.007870*
%
%AMM34*
21,1,0.038980,0.026770,0.000000,0.000000,270.000000*
21,1,0.026770,0.038980,0.000000,0.000000,270.000000*
1,1,0.012210,-0.013390,-0.013390*
1,1,0.012210,-0.013390,0.013390*
1,1,0.012210,0.013390,0.013390*
1,1,0.012210,0.013390,-0.013390*
%
%AMM38*
21,1,0.029130,0.018900,0.000000,0.000000,180.000000*
21,1,0.018900,0.029130,0.000000,0.000000,180.000000*
1,1,0.010240,-0.009450,0.009450*
1,1,0.010240,0.009450,0.009450*
1,1,0.010240,0.009450,-0.009450*
1,1,0.010240,-0.009450,-0.009450*
%
%AMM55*
21,1,0.029530,0.026380,0.000000,0.000000,270.000000*
21,1,0.020470,0.035430,0.000000,0.000000,270.000000*
1,1,0.009060,-0.013190,-0.010240*
1,1,0.009060,-0.013190,0.010240*
1,1,0.009060,0.013190,0.010240*
1,1,0.009060,0.013190,-0.010240*
%
%AMM56*
21,1,0.021650,0.027950,0.000000,0.000000,270.000000*
21,1,0.014170,0.035430,0.000000,0.000000,270.000000*
1,1,0.007480,-0.013980,-0.007090*
1,1,0.007480,-0.013980,0.007090*
1,1,0.007480,0.013980,0.007090*
1,1,0.007480,0.013980,-0.007090*
%
%AMM59*
21,1,0.031500,0.018900,0.000000,0.000000,90.000000*
21,1,0.022840,0.027560,0.000000,0.000000,90.000000*
1,1,0.008660,0.009450,0.011420*
1,1,0.008660,0.009450,-0.011420*
1,1,0.008660,-0.009450,-0.011420*
1,1,0.008660,-0.009450,0.011420*
%
%AMM61*
21,1,0.031500,0.018900,0.000000,0.000000,180.000000*
21,1,0.022840,0.027560,0.000000,0.000000,180.000000*
1,1,0.008660,-0.011420,0.009450*
1,1,0.008660,0.011420,0.009450*
1,1,0.008660,0.011420,-0.009450*
1,1,0.008660,-0.011420,-0.009450*
%
%AMM63*
21,1,0.039370,0.030320,0.000000,0.000000,270.000000*
21,1,0.028350,0.041340,0.000000,0.000000,270.000000*
1,1,0.011020,-0.015160,-0.014170*
1,1,0.011020,-0.015160,0.014170*
1,1,0.011020,0.015160,0.014170*
1,1,0.011020,0.015160,-0.014170*
%
%AMM66*
21,1,0.031500,0.030710,0.000000,0.000000,0.000000*
21,1,0.022050,0.040160,0.000000,0.000000,0.000000*
1,1,0.009450,0.011020,-0.015350*
1,1,0.009450,-0.011020,-0.015350*
1,1,0.009450,-0.011020,0.015350*
1,1,0.009450,0.011020,0.015350*
%
%AMM81*
21,1,0.037400,0.026770,0.000000,0.000000,90.000000*
21,1,0.026770,0.037400,0.000000,0.000000,90.000000*
1,1,0.010630,0.013390,0.013390*
1,1,0.010630,0.013390,-0.013390*
1,1,0.010630,-0.013390,-0.013390*
1,1,0.010630,-0.013390,0.013390*
%
%AMM82*
21,1,0.029530,0.026380,0.000000,0.000000,0.000000*
21,1,0.020470,0.035430,0.000000,0.000000,0.000000*
1,1,0.009060,0.010240,-0.013190*
1,1,0.009060,-0.010240,-0.013190*
1,1,0.009060,-0.010240,0.013190*
1,1,0.009060,0.010240,0.013190*
%
%AMM83*
21,1,0.021650,0.027950,0.000000,0.000000,0.000000*
21,1,0.014170,0.035430,0.000000,0.000000,0.000000*
1,1,0.007480,0.007090,-0.013980*
1,1,0.007480,-0.007090,-0.013980*
1,1,0.007480,-0.007090,0.013980*
1,1,0.007480,0.007090,0.013980*
%
%AMM84*
21,1,0.037400,0.026770,0.000000,0.000000,0.000000*
21,1,0.026770,0.037400,0.000000,0.000000,0.000000*
1,1,0.010630,0.013390,-0.013390*
1,1,0.010630,-0.013390,-0.013390*
1,1,0.010630,-0.013390,0.013390*
1,1,0.010630,0.013390,0.013390*
%
%AMM85*
21,1,0.082680,0.045670,0.000000,0.000000,180.000000*
21,1,0.067320,0.061020,0.000000,0.000000,180.000000*
1,1,0.015350,-0.033660,0.022840*
1,1,0.015350,0.033660,0.022840*
1,1,0.015350,0.033660,-0.022840*
1,1,0.015350,-0.033660,-0.022840*
%
%AMM86*
21,1,0.062990,0.020470,0.000000,0.000000,180.000000*
21,1,0.053940,0.029530,0.000000,0.000000,180.000000*
1,1,0.009060,-0.026970,0.010240*
1,1,0.009060,0.026970,0.010240*
1,1,0.009060,0.026970,-0.010240*
1,1,0.009060,-0.026970,-0.010240*
%
%AMM87*
21,1,0.039370,0.030320,0.000000,0.000000,180.000000*
21,1,0.028350,0.041340,0.000000,0.000000,180.000000*
1,1,0.011020,-0.014170,0.015160*
1,1,0.011020,0.014170,0.015160*
1,1,0.011020,0.014170,-0.015160*
1,1,0.011020,-0.014170,-0.015160*
%
%AMM88*
21,1,0.016540,0.028980,0.000000,0.000000,180.000000*
21,1,0.010080,0.035430,0.000000,0.000000,180.000000*
1,1,0.006460,-0.005040,0.014490*
1,1,0.006460,0.005040,0.014490*
1,1,0.006460,0.005040,-0.014490*
1,1,0.006460,-0.005040,-0.014490*
%
%AMM89*
21,1,0.074800,0.036220,0.000000,0.000000,0.000000*
21,1,0.061810,0.049210,0.000000,0.000000,0.000000*
1,1,0.012990,0.030910,-0.018110*
1,1,0.012990,-0.030910,-0.018110*
1,1,0.012990,-0.030910,0.018110*
1,1,0.012990,0.030910,0.018110*
%
%AMM90*
21,1,0.039760,0.026770,0.000000,0.000000,0.000000*
21,1,0.029130,0.037400,0.000000,0.000000,0.000000*
1,1,0.010630,0.014570,-0.013390*
1,1,0.010630,-0.014570,-0.013390*
1,1,0.010630,-0.014570,0.013390*
1,1,0.010630,0.014570,0.013390*
%
%AMM91*
21,1,0.031500,0.049610,0.000000,0.000000,0.000000*
21,1,0.022050,0.059060,0.000000,0.000000,0.000000*
1,1,0.009450,0.011020,-0.024800*
1,1,0.009450,-0.011020,-0.024800*
1,1,0.009450,-0.011020,0.024800*
1,1,0.009450,0.011020,0.024800*
%
%AMM92*
21,1,0.074800,0.036220,0.000000,0.000000,90.000000*
21,1,0.061810,0.049210,0.000000,0.000000,90.000000*
1,1,0.012990,0.018110,0.030910*
1,1,0.012990,0.018110,-0.030910*
1,1,0.012990,-0.018110,-0.030910*
1,1,0.012990,-0.018110,0.030910*
%
%AMM93*
21,1,0.031500,0.030710,0.000000,0.000000,90.000000*
21,1,0.022050,0.040160,0.000000,0.000000,90.000000*
1,1,0.009450,0.015350,0.011020*
1,1,0.009450,0.015350,-0.011020*
1,1,0.009450,-0.015350,-0.011020*
1,1,0.009450,-0.015350,0.011020*
%
%ADD10R,0.04331X0.04331*%
%ADD11C,0.04331*%
%ADD112M25*%
%ADD113M26*%
%ADD114C,0.02913*%
%ADD115C,0.06457*%
%ADD12O,0.04331X0.09449*%
%ADD126M34*%
%ADD127O,0.02520X0.09213*%
%ADD13O,0.06693X0.07283*%
%ADD132M38*%
%ADD14C,0.10236*%
%ADD144C,0.05118*%
%ADD15C,0.05906*%
%ADD158C,0.03900*%
%ADD16C,0.14567*%
%ADD17C,0.08661*%
%ADD18C,0.02362*%
%ADD189M55*%
%ADD190M56*%
%ADD197M59*%
%ADD201M61*%
%ADD203M63*%
%ADD207M66*%
%ADD213C,0.04724*%
%ADD214C,0.04294*%
%ADD232M81*%
%ADD233M82*%
%ADD234M83*%
%ADD235M84*%
%ADD236M85*%
%ADD237M86*%
%ADD238M87*%
%ADD239R,0.01772X0.01870*%
%ADD240M88*%
%ADD241O,0.05354X0.01378*%
%ADD242M89*%
%ADD243M90*%
%ADD244R,0.09843X0.07087*%
%ADD245R,0.01870X0.01772*%
%ADD246M91*%
%ADD247R,0.04331X0.04724*%
%ADD248M92*%
%ADD249M93*%
%ADD334M152*%
%ADD335M153*%
%ADD338M156*%
%ADD339M157*%
%ADD340M158*%
%ADD346M164*%
%ADD347M165*%
%ADD348M166*%
%ADD349M167*%
%ADD350M168*%
%ADD354R,0.07874X0.07500*%
%ADD355O,0.07874X0.07500*%
%ADD357R,0.01772X0.05709*%
%ADD358R,0.02559X0.04803*%
%ADD40C,0.06000*%
X0000000Y0000000D02*
%LPD*%
G01*
D10*
X0156102Y0306201D03*
D11*
X0159252Y0313091D03*
X0162402Y0306201D03*
X0165551Y0313091D03*
X0168701Y0306201D03*
D12*
X0176772Y0309646D03*
X0148031Y0309646D03*
G36*
G01*
X0153346Y0361024D02*
X0153346Y0366339D01*
G75*
G02*
X0154331Y0367323I0000984J0000000D01*
G01*
X0159055Y0367323D01*
G75*
G02*
X0160039Y0366339I0000000J-000984D01*
G01*
X0160039Y0361024D01*
G75*
G02*
X0159055Y0360039I-000984J0000000D01*
G01*
X0154331Y0360039D01*
G75*
G02*
X0153346Y0361024I0000000J0000984D01*
G01*
G37*
D13*
X0166535Y0363681D03*
X0176378Y0363681D03*
X0186220Y0363681D03*
X0196063Y0363681D03*
D14*
X0545071Y0073315D03*
X0521843Y0073315D03*
X0499008Y0073315D03*
X0533654Y0050480D03*
X0510425Y0050480D03*
X0545071Y0041307D03*
X0521843Y0041307D03*
X0499008Y0041307D03*
D15*
X0468181Y0073315D03*
X0458181Y0073315D03*
X0448181Y0073315D03*
X0438181Y0073315D03*
X0428181Y0073315D03*
X0418181Y0073315D03*
X0408181Y0073315D03*
X0398181Y0073315D03*
X0468181Y0063315D03*
X0458181Y0063315D03*
X0448181Y0063315D03*
X0438181Y0063315D03*
X0428181Y0063315D03*
X0418181Y0063315D03*
X0408181Y0063315D03*
X0398181Y0063315D03*
X0468181Y0039496D03*
X0458181Y0039496D03*
X0448181Y0039496D03*
X0438181Y0039496D03*
X0428181Y0039496D03*
X0418181Y0039496D03*
X0408181Y0039496D03*
X0398181Y0039496D03*
X0468181Y0029496D03*
X0458181Y0029496D03*
X0448181Y0029496D03*
X0438181Y0029496D03*
X0428181Y0029496D03*
X0418181Y0029496D03*
X0408181Y0029496D03*
X0398181Y0029496D03*
X0155307Y0029496D03*
X0165307Y0029496D03*
X0175307Y0029496D03*
X0185307Y0029496D03*
X0195307Y0029496D03*
X0205307Y0029496D03*
X0215307Y0029496D03*
X0225307Y0029496D03*
X0235307Y0029496D03*
X0245307Y0029496D03*
X0255307Y0029496D03*
X0265307Y0029496D03*
X0275307Y0029496D03*
X0285307Y0029496D03*
X0295307Y0029496D03*
X0305307Y0029496D03*
X0315307Y0029496D03*
X0325307Y0029496D03*
X0335307Y0029496D03*
X0155307Y0039496D03*
X0165307Y0039496D03*
X0175307Y0039496D03*
X0185307Y0039496D03*
X0195307Y0039496D03*
X0205307Y0039496D03*
X0215307Y0039496D03*
X0225307Y0039496D03*
X0235307Y0039496D03*
X0245307Y0039496D03*
X0255307Y0039496D03*
X0265307Y0039496D03*
X0275307Y0039496D03*
X0285307Y0039496D03*
X0295307Y0039496D03*
X0305307Y0039496D03*
X0315307Y0039496D03*
X0325307Y0039496D03*
X0335307Y0039496D03*
X0155307Y0063315D03*
X0165307Y0063315D03*
X0175307Y0063315D03*
X0185307Y0063315D03*
X0195307Y0063315D03*
X0205307Y0063315D03*
X0215307Y0063315D03*
X0225307Y0063315D03*
X0235307Y0063315D03*
X0245307Y0063315D03*
X0255307Y0063315D03*
X0265307Y0063315D03*
X0275307Y0063315D03*
X0285307Y0063315D03*
X0295307Y0063315D03*
X0305307Y0063315D03*
X0315307Y0063315D03*
X0325307Y0063315D03*
X0335307Y0063315D03*
X0155307Y0073315D03*
X0165307Y0073315D03*
X0175307Y0073315D03*
X0185307Y0073315D03*
X0195307Y0073315D03*
X0205307Y0073315D03*
X0215307Y0073315D03*
X0225307Y0073315D03*
X0235307Y0073315D03*
X0245307Y0073315D03*
X0255307Y0073315D03*
X0265307Y0073315D03*
X0275307Y0073315D03*
X0285307Y0073315D03*
X0295307Y0073315D03*
X0305307Y0073315D03*
X0315307Y0073315D03*
X0325307Y0073315D03*
X0335307Y0073315D03*
D14*
X0124205Y0073315D03*
X0101370Y0073315D03*
X0112787Y0050480D03*
X0124205Y0041307D03*
X0101370Y0041307D03*
D16*
X0572236Y0021622D03*
D17*
X0562591Y0052331D03*
D16*
X0366724Y0021622D03*
D17*
X0083063Y0052331D03*
D16*
X0073417Y0021622D03*
D15*
X0446161Y0281890D03*
X0446161Y0307087D03*
X0446161Y0314567D03*
X0446161Y0331496D03*
D18*
X0444390Y0340945D03*
X0444390Y0344882D03*
D15*
X0446161Y0356102D03*
X0507185Y0280118D03*
X0507185Y0287402D03*
X0507185Y0306890D03*
X0507185Y0354331D03*
D40*
X0177658Y0268110D03*
X0196949Y0268110D03*
X0521949Y0173819D03*
X0521949Y0193110D03*
D18*
X0269488Y0230020D03*
X0274213Y0230020D03*
X0264764Y0230020D03*
X0260039Y0230020D03*
X0285472Y0173228D03*
X0289409Y0173228D03*
D40*
X0512106Y0173819D03*
X0512106Y0193110D03*
D14*
X0544882Y0072854D03*
X0521654Y0072854D03*
X0498819Y0072854D03*
X0533465Y0050020D03*
X0510236Y0050020D03*
X0544882Y0040846D03*
X0521654Y0040846D03*
X0498819Y0040846D03*
D15*
X0467992Y0072854D03*
X0457992Y0072854D03*
X0447992Y0072854D03*
X0437992Y0072854D03*
X0427992Y0072854D03*
X0417992Y0072854D03*
X0407992Y0072854D03*
X0397992Y0072854D03*
X0467992Y0062854D03*
X0457992Y0062854D03*
X0447992Y0062854D03*
X0437992Y0062854D03*
X0427992Y0062854D03*
X0417992Y0062854D03*
X0407992Y0062854D03*
X0397992Y0062854D03*
X0467992Y0039035D03*
X0457992Y0039035D03*
X0447992Y0039035D03*
X0437992Y0039035D03*
X0427992Y0039035D03*
X0417992Y0039035D03*
X0407992Y0039035D03*
X0397992Y0039035D03*
X0467992Y0029035D03*
X0457992Y0029035D03*
X0447992Y0029035D03*
X0437992Y0029035D03*
X0427992Y0029035D03*
X0417992Y0029035D03*
X0407992Y0029035D03*
X0397992Y0029035D03*
X0155118Y0029035D03*
X0165118Y0029035D03*
X0175118Y0029035D03*
X0185118Y0029035D03*
X0195118Y0029035D03*
X0205118Y0029035D03*
X0215118Y0029035D03*
X0225118Y0029035D03*
X0235118Y0029035D03*
X0245118Y0029035D03*
X0255118Y0029035D03*
X0265118Y0029035D03*
X0275118Y0029035D03*
X0285118Y0029035D03*
X0295118Y0029035D03*
X0305118Y0029035D03*
X0315118Y0029035D03*
X0325118Y0029035D03*
X0335118Y0029035D03*
X0155118Y0039035D03*
X0165118Y0039035D03*
X0175118Y0039035D03*
X0185118Y0039035D03*
X0195118Y0039035D03*
X0205118Y0039035D03*
X0215118Y0039035D03*
X0225118Y0039035D03*
X0235118Y0039035D03*
X0245118Y0039035D03*
X0255118Y0039035D03*
X0265118Y0039035D03*
X0275118Y0039035D03*
X0285118Y0039035D03*
X0295118Y0039035D03*
X0305118Y0039035D03*
X0315118Y0039035D03*
X0325118Y0039035D03*
X0335118Y0039035D03*
X0155118Y0062854D03*
X0165118Y0062854D03*
X0175118Y0062854D03*
X0185118Y0062854D03*
X0195118Y0062854D03*
X0205118Y0062854D03*
X0215118Y0062854D03*
X0225118Y0062854D03*
X0235118Y0062854D03*
X0245118Y0062854D03*
X0255118Y0062854D03*
X0265118Y0062854D03*
X0275118Y0062854D03*
X0285118Y0062854D03*
X0295118Y0062854D03*
X0305118Y0062854D03*
X0315118Y0062854D03*
X0325118Y0062854D03*
X0335118Y0062854D03*
X0155118Y0072854D03*
X0165118Y0072854D03*
X0175118Y0072854D03*
X0185118Y0072854D03*
X0195118Y0072854D03*
X0205118Y0072854D03*
X0215118Y0072854D03*
X0225118Y0072854D03*
X0235118Y0072854D03*
X0245118Y0072854D03*
X0255118Y0072854D03*
X0265118Y0072854D03*
X0275118Y0072854D03*
X0285118Y0072854D03*
X0295118Y0072854D03*
X0305118Y0072854D03*
X0315118Y0072854D03*
X0325118Y0072854D03*
X0335118Y0072854D03*
D14*
X0124016Y0072854D03*
X0101181Y0072854D03*
X0112598Y0050020D03*
X0124016Y0040846D03*
X0101181Y0040846D03*
D16*
X0572047Y0021161D03*
D17*
X0562402Y0051870D03*
D16*
X0366535Y0021161D03*
D17*
X0082874Y0051870D03*
D16*
X0073228Y0021161D03*
D18*
X0471309Y0367395D03*
X0471014Y0381371D03*
X0475640Y0384324D03*
X0472195Y0386391D03*
D40*
X0435335Y0362776D03*
X0435335Y0377776D03*
D18*
X0229429Y0229282D03*
X0234154Y0229282D03*
X0224705Y0229282D03*
X0219980Y0229282D03*
X0245413Y0172490D03*
X0249350Y0172490D03*
X0212795Y0181791D03*
X0212795Y0178051D03*
X0212795Y0174311D03*
X0178543Y0178248D03*
X0178543Y0181791D03*
G36*
G01*
X0425925Y0250984D02*
X0428996Y0250984D01*
G75*
G02*
X0429272Y0250709I0000000J-000276D01*
G01*
X0429272Y0248504D01*
G75*
G02*
X0428996Y0248228I-000276J0000000D01*
G01*
X0425925Y0248228D01*
G75*
G02*
X0425650Y0248504I0000000J0000276D01*
G01*
X0425650Y0250709D01*
G75*
G02*
X0425925Y0250984I0000276J0000000D01*
G01*
G37*
G36*
G01*
X0425925Y0244685D02*
X0428996Y0244685D01*
G75*
G02*
X0429272Y0244409I0000000J-000276D01*
G01*
X0429272Y0242205D01*
G75*
G02*
X0428996Y0241929I-000276J0000000D01*
G01*
X0425925Y0241929D01*
G75*
G02*
X0425650Y0242205I0000000J0000276D01*
G01*
X0425650Y0244409D01*
G75*
G02*
X0425925Y0244685I0000276J0000000D01*
G01*
G37*
G36*
G01*
X0402303Y0250984D02*
X0405374Y0250984D01*
G75*
G02*
X0405650Y0250709I0000000J-000276D01*
G01*
X0405650Y0248504D01*
G75*
G02*
X0405374Y0248228I-000276J0000000D01*
G01*
X0402303Y0248228D01*
G75*
G02*
X0402028Y0248504I0000000J0000276D01*
G01*
X0402028Y0250709D01*
G75*
G02*
X0402303Y0250984I0000276J0000000D01*
G01*
G37*
G36*
G01*
X0402303Y0244685D02*
X0405374Y0244685D01*
G75*
G02*
X0405650Y0244409I0000000J-000276D01*
G01*
X0405650Y0242205D01*
G75*
G02*
X0405374Y0241929I-000276J0000000D01*
G01*
X0402303Y0241929D01*
G75*
G02*
X0402028Y0242205I0000000J0000276D01*
G01*
X0402028Y0244409D01*
G75*
G02*
X0402303Y0244685I0000276J0000000D01*
G01*
G37*
G36*
G01*
X0307677Y0203593D02*
X0318898Y0203593D01*
G75*
G02*
X0319882Y0202608I0000000J-000984D01*
G01*
X0319882Y0199754D01*
G75*
G02*
X0318898Y0198770I-000984J0000000D01*
G01*
X0307677Y0198770D01*
G75*
G02*
X0306693Y0199754I0000000J0000984D01*
G01*
X0306693Y0202608D01*
G75*
G02*
X0307677Y0203593I0000984J0000000D01*
G01*
G37*
G36*
G01*
X0307677Y0180266D02*
X0318898Y0180266D01*
G75*
G02*
X0319882Y0179282I0000000J-000984D01*
G01*
X0319882Y0176427D01*
G75*
G02*
X0318898Y0175443I-000984J0000000D01*
G01*
X0307677Y0175443D01*
G75*
G02*
X0306693Y0176427I0000000J0000984D01*
G01*
X0306693Y0179282D01*
G75*
G02*
X0307677Y0180266I0000984J0000000D01*
G01*
G37*
G36*
G01*
X0331437Y0250984D02*
X0334508Y0250984D01*
G75*
G02*
X0334783Y0250709I0000000J-000276D01*
G01*
X0334783Y0248504D01*
G75*
G02*
X0334508Y0248228I-000276J0000000D01*
G01*
X0331437Y0248228D01*
G75*
G02*
X0331161Y0248504I0000000J0000276D01*
G01*
X0331161Y0250709D01*
G75*
G02*
X0331437Y0250984I0000276J0000000D01*
G01*
G37*
G36*
G01*
X0331437Y0244685D02*
X0334508Y0244685D01*
G75*
G02*
X0334783Y0244409I0000000J-000276D01*
G01*
X0334783Y0242205D01*
G75*
G02*
X0334508Y0241929I-000276J0000000D01*
G01*
X0331437Y0241929D01*
G75*
G02*
X0331161Y0242205I0000000J0000276D01*
G01*
X0331161Y0244409D01*
G75*
G02*
X0331437Y0244685I0000276J0000000D01*
G01*
G37*
G36*
G01*
X0339173Y0203297D02*
X0350394Y0203297D01*
G75*
G02*
X0351378Y0202313I0000000J-000984D01*
G01*
X0351378Y0199459D01*
G75*
G02*
X0350394Y0198474I-000984J0000000D01*
G01*
X0339173Y0198474D01*
G75*
G02*
X0338189Y0199459I0000000J0000984D01*
G01*
X0338189Y0202313D01*
G75*
G02*
X0339173Y0203297I0000984J0000000D01*
G01*
G37*
G36*
G01*
X0339173Y0179970D02*
X0350394Y0179970D01*
G75*
G02*
X0351378Y0178986I0000000J-000984D01*
G01*
X0351378Y0176132D01*
G75*
G02*
X0350394Y0175148I-000984J0000000D01*
G01*
X0339173Y0175148D01*
G75*
G02*
X0338189Y0176132I0000000J0000984D01*
G01*
X0338189Y0178986D01*
G75*
G02*
X0339173Y0179970I0000984J0000000D01*
G01*
G37*
G36*
G01*
X0436417Y0215920D02*
X0436417Y0217938D01*
G75*
G02*
X0437279Y0218799I0000861J0000000D01*
G01*
X0439001Y0218799D01*
G75*
G02*
X0439862Y0217938I0000000J-000861D01*
G01*
X0439862Y0215920D01*
G75*
G02*
X0439001Y0215059I-000861J0000000D01*
G01*
X0437279Y0215059D01*
G75*
G02*
X0436417Y0215920I0000000J0000861D01*
G01*
G37*
G36*
G01*
X0442618Y0215920D02*
X0442618Y0217938D01*
G75*
G02*
X0443479Y0218799I0000861J0000000D01*
G01*
X0445202Y0218799D01*
G75*
G02*
X0446063Y0217938I0000000J-000861D01*
G01*
X0446063Y0215920D01*
G75*
G02*
X0445202Y0215059I-000861J0000000D01*
G01*
X0443479Y0215059D01*
G75*
G02*
X0442618Y0215920I0000000J0000861D01*
G01*
G37*
G36*
G01*
X0325532Y0250984D02*
X0328602Y0250984D01*
G75*
G02*
X0328878Y0250709I0000000J-000276D01*
G01*
X0328878Y0248504D01*
G75*
G02*
X0328602Y0248228I-000276J0000000D01*
G01*
X0325532Y0248228D01*
G75*
G02*
X0325256Y0248504I0000000J0000276D01*
G01*
X0325256Y0250709D01*
G75*
G02*
X0325532Y0250984I0000276J0000000D01*
G01*
G37*
G36*
G01*
X0325532Y0244685D02*
X0328602Y0244685D01*
G75*
G02*
X0328878Y0244409I0000000J-000276D01*
G01*
X0328878Y0242205D01*
G75*
G02*
X0328602Y0241929I-000276J0000000D01*
G01*
X0325532Y0241929D01*
G75*
G02*
X0325256Y0242205I0000000J0000276D01*
G01*
X0325256Y0244409D01*
G75*
G02*
X0325532Y0244685I0000276J0000000D01*
G01*
G37*
G36*
G01*
X0334902Y0238386D02*
X0338917Y0238386D01*
G75*
G02*
X0339272Y0238032I0000000J-000354D01*
G01*
X0339272Y0235197D01*
G75*
G02*
X0338917Y0234843I-000354J0000000D01*
G01*
X0334902Y0234843D01*
G75*
G02*
X0334547Y0235197I0000000J0000354D01*
G01*
X0334547Y0238032D01*
G75*
G02*
X0334902Y0238386I0000354J0000000D01*
G01*
G37*
G36*
G01*
X0334902Y0225394D02*
X0338917Y0225394D01*
G75*
G02*
X0339272Y0225039I0000000J-000354D01*
G01*
X0339272Y0222205D01*
G75*
G02*
X0338917Y0221850I-000354J0000000D01*
G01*
X0334902Y0221850D01*
G75*
G02*
X0334547Y0222205I0000000J0000354D01*
G01*
X0334547Y0225039D01*
G75*
G02*
X0334902Y0225394I0000354J0000000D01*
G01*
G37*
G36*
G01*
X0540098Y0378937D02*
X0543169Y0378937D01*
G75*
G02*
X0543445Y0378661I0000000J-000276D01*
G01*
X0543445Y0376457D01*
G75*
G02*
X0543169Y0376181I-000276J0000000D01*
G01*
X0540098Y0376181D01*
G75*
G02*
X0539823Y0376457I0000000J0000276D01*
G01*
X0539823Y0378661D01*
G75*
G02*
X0540098Y0378937I0000276J0000000D01*
G01*
G37*
G36*
G01*
X0540098Y0372638D02*
X0543169Y0372638D01*
G75*
G02*
X0543445Y0372362I0000000J-000276D01*
G01*
X0543445Y0370158D01*
G75*
G02*
X0543169Y0369882I-000276J0000000D01*
G01*
X0540098Y0369882D01*
G75*
G02*
X0539823Y0370158I0000000J0000276D01*
G01*
X0539823Y0372362D01*
G75*
G02*
X0540098Y0372638I0000276J0000000D01*
G01*
G37*
G36*
G01*
X0349154Y0250984D02*
X0352224Y0250984D01*
G75*
G02*
X0352500Y0250709I0000000J-000276D01*
G01*
X0352500Y0248504D01*
G75*
G02*
X0352224Y0248228I-000276J0000000D01*
G01*
X0349154Y0248228D01*
G75*
G02*
X0348878Y0248504I0000000J0000276D01*
G01*
X0348878Y0250709D01*
G75*
G02*
X0349154Y0250984I0000276J0000000D01*
G01*
G37*
G36*
G01*
X0349154Y0244685D02*
X0352224Y0244685D01*
G75*
G02*
X0352500Y0244409I0000000J-000276D01*
G01*
X0352500Y0242205D01*
G75*
G02*
X0352224Y0241929I-000276J0000000D01*
G01*
X0349154Y0241929D01*
G75*
G02*
X0348878Y0242205I0000000J0000276D01*
G01*
X0348878Y0244409D01*
G75*
G02*
X0349154Y0244685I0000276J0000000D01*
G01*
G37*
G36*
G01*
X0313720Y0250984D02*
X0316791Y0250984D01*
G75*
G02*
X0317067Y0250709I0000000J-000276D01*
G01*
X0317067Y0248504D01*
G75*
G02*
X0316791Y0248228I-000276J0000000D01*
G01*
X0313720Y0248228D01*
G75*
G02*
X0313445Y0248504I0000000J0000276D01*
G01*
X0313445Y0250709D01*
G75*
G02*
X0313720Y0250984I0000276J0000000D01*
G01*
G37*
G36*
G01*
X0313720Y0244685D02*
X0316791Y0244685D01*
G75*
G02*
X0317067Y0244409I0000000J-000276D01*
G01*
X0317067Y0242205D01*
G75*
G02*
X0316791Y0241929I-000276J0000000D01*
G01*
X0313720Y0241929D01*
G75*
G02*
X0313445Y0242205I0000000J0000276D01*
G01*
X0313445Y0244409D01*
G75*
G02*
X0313720Y0244685I0000276J0000000D01*
G01*
G37*
G36*
G01*
X0303406Y0238976D02*
X0307421Y0238976D01*
G75*
G02*
X0307776Y0238622I0000000J-000354D01*
G01*
X0307776Y0235787D01*
G75*
G02*
X0307421Y0235433I-000354J0000000D01*
G01*
X0303406Y0235433D01*
G75*
G02*
X0303051Y0235787I0000000J0000354D01*
G01*
X0303051Y0238622D01*
G75*
G02*
X0303406Y0238976I0000354J0000000D01*
G01*
G37*
G36*
G01*
X0303406Y0225984D02*
X0307421Y0225984D01*
G75*
G02*
X0307776Y0225630I0000000J-000354D01*
G01*
X0307776Y0222795D01*
G75*
G02*
X0307421Y0222441I-000354J0000000D01*
G01*
X0303406Y0222441D01*
G75*
G02*
X0303051Y0222795I0000000J0000354D01*
G01*
X0303051Y0225630D01*
G75*
G02*
X0303406Y0225984I0000354J0000000D01*
G01*
G37*
G36*
G01*
X0396398Y0250984D02*
X0399469Y0250984D01*
G75*
G02*
X0399744Y0250709I0000000J-000276D01*
G01*
X0399744Y0248504D01*
G75*
G02*
X0399469Y0248228I-000276J0000000D01*
G01*
X0396398Y0248228D01*
G75*
G02*
X0396122Y0248504I0000000J0000276D01*
G01*
X0396122Y0250709D01*
G75*
G02*
X0396398Y0250984I0000276J0000000D01*
G01*
G37*
G36*
G01*
X0396398Y0244685D02*
X0399469Y0244685D01*
G75*
G02*
X0399744Y0244409I0000000J-000276D01*
G01*
X0399744Y0242205D01*
G75*
G02*
X0399469Y0241929I-000276J0000000D01*
G01*
X0396398Y0241929D01*
G75*
G02*
X0396122Y0242205I0000000J0000276D01*
G01*
X0396122Y0244409D01*
G75*
G02*
X0396398Y0244685I0000276J0000000D01*
G01*
G37*
G36*
G01*
X0301909Y0250984D02*
X0304980Y0250984D01*
G75*
G02*
X0305256Y0250709I0000000J-000276D01*
G01*
X0305256Y0248504D01*
G75*
G02*
X0304980Y0248228I-000276J0000000D01*
G01*
X0301909Y0248228D01*
G75*
G02*
X0301634Y0248504I0000000J0000276D01*
G01*
X0301634Y0250709D01*
G75*
G02*
X0301909Y0250984I0000276J0000000D01*
G01*
G37*
G36*
G01*
X0301909Y0244685D02*
X0304980Y0244685D01*
G75*
G02*
X0305256Y0244409I0000000J-000276D01*
G01*
X0305256Y0242205D01*
G75*
G02*
X0304980Y0241929I-000276J0000000D01*
G01*
X0301909Y0241929D01*
G75*
G02*
X0301634Y0242205I0000000J0000276D01*
G01*
X0301634Y0244409D01*
G75*
G02*
X0301909Y0244685I0000276J0000000D01*
G01*
G37*
G36*
G01*
X0467894Y0203445D02*
X0479114Y0203445D01*
G75*
G02*
X0480098Y0202461I0000000J-000984D01*
G01*
X0480098Y0199606D01*
G75*
G02*
X0479114Y0198622I-000984J0000000D01*
G01*
X0467894Y0198622D01*
G75*
G02*
X0466909Y0199606I0000000J0000984D01*
G01*
X0466909Y0202461D01*
G75*
G02*
X0467894Y0203445I0000984J0000000D01*
G01*
G37*
G36*
G01*
X0467894Y0180118D02*
X0479114Y0180118D01*
G75*
G02*
X0480098Y0179134I0000000J-000984D01*
G01*
X0480098Y0176280D01*
G75*
G02*
X0479114Y0175295I-000984J0000000D01*
G01*
X0467894Y0175295D01*
G75*
G02*
X0466909Y0176280I0000000J0000984D01*
G01*
X0466909Y0179134D01*
G75*
G02*
X0467894Y0180118I0000984J0000000D01*
G01*
G37*
G36*
G01*
X0306496Y0215920D02*
X0306496Y0217938D01*
G75*
G02*
X0307357Y0218799I0000861J0000000D01*
G01*
X0309080Y0218799D01*
G75*
G02*
X0309941Y0217938I0000000J-000861D01*
G01*
X0309941Y0215920D01*
G75*
G02*
X0309080Y0215059I-000861J0000000D01*
G01*
X0307357Y0215059D01*
G75*
G02*
X0306496Y0215920I0000000J0000861D01*
G01*
G37*
G36*
G01*
X0312697Y0215920D02*
X0312697Y0217938D01*
G75*
G02*
X0313558Y0218799I0000861J0000000D01*
G01*
X0315281Y0218799D01*
G75*
G02*
X0316142Y0217938I0000000J-000861D01*
G01*
X0316142Y0215920D01*
G75*
G02*
X0315281Y0215059I-000861J0000000D01*
G01*
X0313558Y0215059D01*
G75*
G02*
X0312697Y0215920I0000000J0000861D01*
G01*
G37*
G36*
G01*
X0404134Y0203445D02*
X0415354Y0203445D01*
G75*
G02*
X0416339Y0202461I0000000J-000984D01*
G01*
X0416339Y0199606D01*
G75*
G02*
X0415354Y0198622I-000984J0000000D01*
G01*
X0404134Y0198622D01*
G75*
G02*
X0403150Y0199606I0000000J0000984D01*
G01*
X0403150Y0202461D01*
G75*
G02*
X0404134Y0203445I0000984J0000000D01*
G01*
G37*
G36*
G01*
X0404134Y0180118D02*
X0415354Y0180118D01*
G75*
G02*
X0416339Y0179134I0000000J-000984D01*
G01*
X0416339Y0176280D01*
G75*
G02*
X0415354Y0175295I-000984J0000000D01*
G01*
X0404134Y0175295D01*
G75*
G02*
X0403150Y0176280I0000000J0000984D01*
G01*
X0403150Y0179134D01*
G75*
G02*
X0404134Y0180118I0000984J0000000D01*
G01*
G37*
G36*
G01*
X0445768Y0210591D02*
X0445768Y0207520D01*
G75*
G02*
X0445492Y0207244I-000276J0000000D01*
G01*
X0443287Y0207244D01*
G75*
G02*
X0443012Y0207520I0000000J0000276D01*
G01*
X0443012Y0210591D01*
G75*
G02*
X0443287Y0210866I0000276J0000000D01*
G01*
X0445492Y0210866D01*
G75*
G02*
X0445768Y0210591I0000000J-000276D01*
G01*
G37*
G36*
G01*
X0439469Y0210591D02*
X0439469Y0207520D01*
G75*
G02*
X0439193Y0207244I-000276J0000000D01*
G01*
X0436988Y0207244D01*
G75*
G02*
X0436713Y0207520I0000000J0000276D01*
G01*
X0436713Y0210591D01*
G75*
G02*
X0436988Y0210866I0000276J0000000D01*
G01*
X0439193Y0210866D01*
G75*
G02*
X0439469Y0210591I0000000J-000276D01*
G01*
G37*
G36*
G01*
X0551909Y0378937D02*
X0554980Y0378937D01*
G75*
G02*
X0555256Y0378661I0000000J-000276D01*
G01*
X0555256Y0376457D01*
G75*
G02*
X0554980Y0376181I-000276J0000000D01*
G01*
X0551909Y0376181D01*
G75*
G02*
X0551634Y0376457I0000000J0000276D01*
G01*
X0551634Y0378661D01*
G75*
G02*
X0551909Y0378937I0000276J0000000D01*
G01*
G37*
G36*
G01*
X0551909Y0372638D02*
X0554980Y0372638D01*
G75*
G02*
X0555256Y0372362I0000000J-000276D01*
G01*
X0555256Y0370158D01*
G75*
G02*
X0554980Y0369882I-000276J0000000D01*
G01*
X0551909Y0369882D01*
G75*
G02*
X0551634Y0370158I0000000J0000276D01*
G01*
X0551634Y0372362D01*
G75*
G02*
X0551909Y0372638I0000276J0000000D01*
G01*
G37*
G36*
G01*
X0404921Y0215920D02*
X0404921Y0217938D01*
G75*
G02*
X0405782Y0218799I0000861J0000000D01*
G01*
X0407505Y0218799D01*
G75*
G02*
X0408366Y0217938I0000000J-000861D01*
G01*
X0408366Y0215920D01*
G75*
G02*
X0407505Y0215059I-000861J0000000D01*
G01*
X0405782Y0215059D01*
G75*
G02*
X0404921Y0215920I0000000J0000861D01*
G01*
G37*
G36*
G01*
X0411122Y0215920D02*
X0411122Y0217938D01*
G75*
G02*
X0411983Y0218799I0000861J0000000D01*
G01*
X0413706Y0218799D01*
G75*
G02*
X0414567Y0217938I0000000J-000861D01*
G01*
X0414567Y0215920D01*
G75*
G02*
X0413706Y0215059I-000861J0000000D01*
G01*
X0411983Y0215059D01*
G75*
G02*
X0411122Y0215920I0000000J0000861D01*
G01*
G37*
G36*
G01*
X0372776Y0250984D02*
X0375846Y0250984D01*
G75*
G02*
X0376122Y0250709I0000000J-000276D01*
G01*
X0376122Y0248504D01*
G75*
G02*
X0375846Y0248228I-000276J0000000D01*
G01*
X0372776Y0248228D01*
G75*
G02*
X0372500Y0248504I0000000J0000276D01*
G01*
X0372500Y0250709D01*
G75*
G02*
X0372776Y0250984I0000276J0000000D01*
G01*
G37*
G36*
G01*
X0372776Y0244685D02*
X0375846Y0244685D01*
G75*
G02*
X0376122Y0244409I0000000J-000276D01*
G01*
X0376122Y0242205D01*
G75*
G02*
X0375846Y0241929I-000276J0000000D01*
G01*
X0372776Y0241929D01*
G75*
G02*
X0372500Y0242205I0000000J0000276D01*
G01*
X0372500Y0244409D01*
G75*
G02*
X0372776Y0244685I0000276J0000000D01*
G01*
G37*
G36*
G01*
X0337343Y0250984D02*
X0340413Y0250984D01*
G75*
G02*
X0340689Y0250709I0000000J-000276D01*
G01*
X0340689Y0248504D01*
G75*
G02*
X0340413Y0248228I-000276J0000000D01*
G01*
X0337343Y0248228D01*
G75*
G02*
X0337067Y0248504I0000000J0000276D01*
G01*
X0337067Y0250709D01*
G75*
G02*
X0337343Y0250984I0000276J0000000D01*
G01*
G37*
G36*
G01*
X0337343Y0244685D02*
X0340413Y0244685D01*
G75*
G02*
X0340689Y0244409I0000000J-000276D01*
G01*
X0340689Y0242205D01*
G75*
G02*
X0340413Y0241929I-000276J0000000D01*
G01*
X0337343Y0241929D01*
G75*
G02*
X0337067Y0242205I0000000J0000276D01*
G01*
X0337067Y0244409D01*
G75*
G02*
X0337343Y0244685I0000276J0000000D01*
G01*
G37*
G36*
G01*
X0339961Y0215920D02*
X0339961Y0217938D01*
G75*
G02*
X0340822Y0218799I0000861J0000000D01*
G01*
X0342544Y0218799D01*
G75*
G02*
X0343406Y0217938I0000000J-000861D01*
G01*
X0343406Y0215920D01*
G75*
G02*
X0342544Y0215059I-000861J0000000D01*
G01*
X0340822Y0215059D01*
G75*
G02*
X0339961Y0215920I0000000J0000861D01*
G01*
G37*
G36*
G01*
X0346161Y0215920D02*
X0346161Y0217938D01*
G75*
G02*
X0347023Y0218799I0000861J0000000D01*
G01*
X0348745Y0218799D01*
G75*
G02*
X0349606Y0217938I0000000J-000861D01*
G01*
X0349606Y0215920D01*
G75*
G02*
X0348745Y0215059I-000861J0000000D01*
G01*
X0347023Y0215059D01*
G75*
G02*
X0346161Y0215920I0000000J0000861D01*
G01*
G37*
G36*
G01*
X0370669Y0203445D02*
X0381890Y0203445D01*
G75*
G02*
X0382874Y0202461I0000000J-000984D01*
G01*
X0382874Y0199606D01*
G75*
G02*
X0381890Y0198622I-000984J0000000D01*
G01*
X0370669Y0198622D01*
G75*
G02*
X0369685Y0199606I0000000J0000984D01*
G01*
X0369685Y0202461D01*
G75*
G02*
X0370669Y0203445I0000984J0000000D01*
G01*
G37*
G36*
G01*
X0370669Y0180118D02*
X0381890Y0180118D01*
G75*
G02*
X0382874Y0179134I0000000J-000984D01*
G01*
X0382874Y0176280D01*
G75*
G02*
X0381890Y0175295I-000984J0000000D01*
G01*
X0370669Y0175295D01*
G75*
G02*
X0369685Y0176280I0000000J0000984D01*
G01*
X0369685Y0179134D01*
G75*
G02*
X0370669Y0180118I0000984J0000000D01*
G01*
G37*
G36*
G01*
X0371457Y0215920D02*
X0371457Y0217938D01*
G75*
G02*
X0372318Y0218799I0000861J0000000D01*
G01*
X0374040Y0218799D01*
G75*
G02*
X0374902Y0217938I0000000J-000861D01*
G01*
X0374902Y0215920D01*
G75*
G02*
X0374040Y0215059I-000861J0000000D01*
G01*
X0372318Y0215059D01*
G75*
G02*
X0371457Y0215920I0000000J0000861D01*
G01*
G37*
G36*
G01*
X0377658Y0215920D02*
X0377658Y0217938D01*
G75*
G02*
X0378519Y0218799I0000861J0000000D01*
G01*
X0380241Y0218799D01*
G75*
G02*
X0381102Y0217938I0000000J-000861D01*
G01*
X0381102Y0215920D01*
G75*
G02*
X0380241Y0215059I-000861J0000000D01*
G01*
X0378519Y0215059D01*
G75*
G02*
X0377658Y0215920I0000000J0000861D01*
G01*
G37*
G36*
G01*
X0414114Y0250984D02*
X0417185Y0250984D01*
G75*
G02*
X0417461Y0250709I0000000J-000276D01*
G01*
X0417461Y0248504D01*
G75*
G02*
X0417185Y0248228I-000276J0000000D01*
G01*
X0414114Y0248228D01*
G75*
G02*
X0413839Y0248504I0000000J0000276D01*
G01*
X0413839Y0250709D01*
G75*
G02*
X0414114Y0250984I0000276J0000000D01*
G01*
G37*
G36*
G01*
X0414114Y0244685D02*
X0417185Y0244685D01*
G75*
G02*
X0417461Y0244409I0000000J-000276D01*
G01*
X0417461Y0242205D01*
G75*
G02*
X0417185Y0241929I-000276J0000000D01*
G01*
X0414114Y0241929D01*
G75*
G02*
X0413839Y0242205I0000000J0000276D01*
G01*
X0413839Y0244409D01*
G75*
G02*
X0414114Y0244685I0000276J0000000D01*
G01*
G37*
G36*
G01*
X0315846Y0210591D02*
X0315846Y0207520D01*
G75*
G02*
X0315571Y0207244I-000276J0000000D01*
G01*
X0313366Y0207244D01*
G75*
G02*
X0313091Y0207520I0000000J0000276D01*
G01*
X0313091Y0210591D01*
G75*
G02*
X0313366Y0210866I0000276J0000000D01*
G01*
X0315571Y0210866D01*
G75*
G02*
X0315846Y0210591I0000000J-000276D01*
G01*
G37*
G36*
G01*
X0309547Y0210591D02*
X0309547Y0207520D01*
G75*
G02*
X0309272Y0207244I-000276J0000000D01*
G01*
X0307067Y0207244D01*
G75*
G02*
X0306791Y0207520I0000000J0000276D01*
G01*
X0306791Y0210591D01*
G75*
G02*
X0307067Y0210866I0000276J0000000D01*
G01*
X0309272Y0210866D01*
G75*
G02*
X0309547Y0210591I0000000J-000276D01*
G01*
G37*
G36*
G01*
X0319626Y0250984D02*
X0322697Y0250984D01*
G75*
G02*
X0322972Y0250709I0000000J-000276D01*
G01*
X0322972Y0248504D01*
G75*
G02*
X0322697Y0248228I-000276J0000000D01*
G01*
X0319626Y0248228D01*
G75*
G02*
X0319350Y0248504I0000000J0000276D01*
G01*
X0319350Y0250709D01*
G75*
G02*
X0319626Y0250984I0000276J0000000D01*
G01*
G37*
G36*
G01*
X0319626Y0244685D02*
X0322697Y0244685D01*
G75*
G02*
X0322972Y0244409I0000000J-000276D01*
G01*
X0322972Y0242205D01*
G75*
G02*
X0322697Y0241929I-000276J0000000D01*
G01*
X0319626Y0241929D01*
G75*
G02*
X0319350Y0242205I0000000J0000276D01*
G01*
X0319350Y0244409D01*
G75*
G02*
X0319626Y0244685I0000276J0000000D01*
G01*
G37*
G36*
G01*
X0313248Y0238386D02*
X0317264Y0238386D01*
G75*
G02*
X0317618Y0238032I0000000J-000354D01*
G01*
X0317618Y0235197D01*
G75*
G02*
X0317264Y0234843I-000354J0000000D01*
G01*
X0313248Y0234843D01*
G75*
G02*
X0312894Y0235197I0000000J0000354D01*
G01*
X0312894Y0238032D01*
G75*
G02*
X0313248Y0238386I0000354J0000000D01*
G01*
G37*
G36*
G01*
X0313248Y0225394D02*
X0317264Y0225394D01*
G75*
G02*
X0317618Y0225039I0000000J-000354D01*
G01*
X0317618Y0222205D01*
G75*
G02*
X0317264Y0221850I-000354J0000000D01*
G01*
X0313248Y0221850D01*
G75*
G02*
X0312894Y0222205I0000000J0000354D01*
G01*
X0312894Y0225039D01*
G75*
G02*
X0313248Y0225394I0000354J0000000D01*
G01*
G37*
G36*
G01*
X0384587Y0250984D02*
X0387658Y0250984D01*
G75*
G02*
X0387933Y0250709I0000000J-000276D01*
G01*
X0387933Y0248504D01*
G75*
G02*
X0387658Y0248228I-000276J0000000D01*
G01*
X0384587Y0248228D01*
G75*
G02*
X0384311Y0248504I0000000J0000276D01*
G01*
X0384311Y0250709D01*
G75*
G02*
X0384587Y0250984I0000276J0000000D01*
G01*
G37*
G36*
G01*
X0384587Y0244685D02*
X0387658Y0244685D01*
G75*
G02*
X0387933Y0244409I0000000J-000276D01*
G01*
X0387933Y0242205D01*
G75*
G02*
X0387658Y0241929I-000276J0000000D01*
G01*
X0384587Y0241929D01*
G75*
G02*
X0384311Y0242205I0000000J0000276D01*
G01*
X0384311Y0244409D01*
G75*
G02*
X0384587Y0244685I0000276J0000000D01*
G01*
G37*
G36*
G01*
X0349311Y0210591D02*
X0349311Y0207520D01*
G75*
G02*
X0349035Y0207244I-000276J0000000D01*
G01*
X0346831Y0207244D01*
G75*
G02*
X0346555Y0207520I0000000J0000276D01*
G01*
X0346555Y0210591D01*
G75*
G02*
X0346831Y0210866I0000276J0000000D01*
G01*
X0349035Y0210866D01*
G75*
G02*
X0349311Y0210591I0000000J-000276D01*
G01*
G37*
G36*
G01*
X0343012Y0210591D02*
X0343012Y0207520D01*
G75*
G02*
X0342736Y0207244I-000276J0000000D01*
G01*
X0340532Y0207244D01*
G75*
G02*
X0340256Y0207520I0000000J0000276D01*
G01*
X0340256Y0210591D01*
G75*
G02*
X0340532Y0210866I0000276J0000000D01*
G01*
X0342736Y0210866D01*
G75*
G02*
X0343012Y0210591I0000000J-000276D01*
G01*
G37*
G36*
G01*
X0378681Y0250984D02*
X0381752Y0250984D01*
G75*
G02*
X0382028Y0250709I0000000J-000276D01*
G01*
X0382028Y0248504D01*
G75*
G02*
X0381752Y0248228I-000276J0000000D01*
G01*
X0378681Y0248228D01*
G75*
G02*
X0378406Y0248504I0000000J0000276D01*
G01*
X0378406Y0250709D01*
G75*
G02*
X0378681Y0250984I0000276J0000000D01*
G01*
G37*
G36*
G01*
X0378681Y0244685D02*
X0381752Y0244685D01*
G75*
G02*
X0382028Y0244409I0000000J-000276D01*
G01*
X0382028Y0242205D01*
G75*
G02*
X0381752Y0241929I-000276J0000000D01*
G01*
X0378681Y0241929D01*
G75*
G02*
X0378406Y0242205I0000000J0000276D01*
G01*
X0378406Y0244409D01*
G75*
G02*
X0378681Y0244685I0000276J0000000D01*
G01*
G37*
G36*
G01*
X0431831Y0250984D02*
X0434902Y0250984D01*
G75*
G02*
X0435177Y0250709I0000000J-000276D01*
G01*
X0435177Y0248504D01*
G75*
G02*
X0434902Y0248228I-000276J0000000D01*
G01*
X0431831Y0248228D01*
G75*
G02*
X0431555Y0248504I0000000J0000276D01*
G01*
X0431555Y0250709D01*
G75*
G02*
X0431831Y0250984I0000276J0000000D01*
G01*
G37*
G36*
G01*
X0431831Y0244685D02*
X0434902Y0244685D01*
G75*
G02*
X0435177Y0244409I0000000J-000276D01*
G01*
X0435177Y0242205D01*
G75*
G02*
X0434902Y0241929I-000276J0000000D01*
G01*
X0431831Y0241929D01*
G75*
G02*
X0431555Y0242205I0000000J0000276D01*
G01*
X0431555Y0244409D01*
G75*
G02*
X0431831Y0244685I0000276J0000000D01*
G01*
G37*
G36*
G01*
X0437736Y0250984D02*
X0440807Y0250984D01*
G75*
G02*
X0441083Y0250709I0000000J-000276D01*
G01*
X0441083Y0248504D01*
G75*
G02*
X0440807Y0248228I-000276J0000000D01*
G01*
X0437736Y0248228D01*
G75*
G02*
X0437461Y0248504I0000000J0000276D01*
G01*
X0437461Y0250709D01*
G75*
G02*
X0437736Y0250984I0000276J0000000D01*
G01*
G37*
G36*
G01*
X0437736Y0244685D02*
X0440807Y0244685D01*
G75*
G02*
X0441083Y0244409I0000000J-000276D01*
G01*
X0441083Y0242205D01*
G75*
G02*
X0440807Y0241929I-000276J0000000D01*
G01*
X0437736Y0241929D01*
G75*
G02*
X0437461Y0242205I0000000J0000276D01*
G01*
X0437461Y0244409D01*
G75*
G02*
X0437736Y0244685I0000276J0000000D01*
G01*
G37*
G36*
G01*
X0420020Y0250984D02*
X0423091Y0250984D01*
G75*
G02*
X0423366Y0250709I0000000J-000276D01*
G01*
X0423366Y0248504D01*
G75*
G02*
X0423091Y0248228I-000276J0000000D01*
G01*
X0420020Y0248228D01*
G75*
G02*
X0419744Y0248504I0000000J0000276D01*
G01*
X0419744Y0250709D01*
G75*
G02*
X0420020Y0250984I0000276J0000000D01*
G01*
G37*
G36*
G01*
X0420020Y0244685D02*
X0423091Y0244685D01*
G75*
G02*
X0423366Y0244409I0000000J-000276D01*
G01*
X0423366Y0242205D01*
G75*
G02*
X0423091Y0241929I-000276J0000000D01*
G01*
X0420020Y0241929D01*
G75*
G02*
X0419744Y0242205I0000000J0000276D01*
G01*
X0419744Y0244409D01*
G75*
G02*
X0420020Y0244685I0000276J0000000D01*
G01*
G37*
G36*
G01*
X0477264Y0210591D02*
X0477264Y0207520D01*
G75*
G02*
X0476988Y0207244I-000276J0000000D01*
G01*
X0474783Y0207244D01*
G75*
G02*
X0474508Y0207520I0000000J0000276D01*
G01*
X0474508Y0210591D01*
G75*
G02*
X0474783Y0210866I0000276J0000000D01*
G01*
X0476988Y0210866D01*
G75*
G02*
X0477264Y0210591I0000000J-000276D01*
G01*
G37*
G36*
G01*
X0470965Y0210591D02*
X0470965Y0207520D01*
G75*
G02*
X0470689Y0207244I-000276J0000000D01*
G01*
X0468484Y0207244D01*
G75*
G02*
X0468209Y0207520I0000000J0000276D01*
G01*
X0468209Y0210591D01*
G75*
G02*
X0468484Y0210866I0000276J0000000D01*
G01*
X0470689Y0210866D01*
G75*
G02*
X0470965Y0210591I0000000J-000276D01*
G01*
G37*
G36*
G01*
X0506791Y0179095D02*
X0506791Y0176024D01*
G75*
G02*
X0506516Y0175748I-000276J0000000D01*
G01*
X0504311Y0175748D01*
G75*
G02*
X0504035Y0176024I0000000J0000276D01*
G01*
X0504035Y0179095D01*
G75*
G02*
X0504311Y0179370I0000276J0000000D01*
G01*
X0506516Y0179370D01*
G75*
G02*
X0506791Y0179095I0000000J-000276D01*
G01*
G37*
G36*
G01*
X0500492Y0179095D02*
X0500492Y0176024D01*
G75*
G02*
X0500217Y0175748I-000276J0000000D01*
G01*
X0498012Y0175748D01*
G75*
G02*
X0497736Y0176024I0000000J0000276D01*
G01*
X0497736Y0179095D01*
G75*
G02*
X0498012Y0179370I0000276J0000000D01*
G01*
X0500217Y0179370D01*
G75*
G02*
X0500492Y0179095I0000000J-000276D01*
G01*
G37*
G36*
G01*
X0467913Y0215920D02*
X0467913Y0217938D01*
G75*
G02*
X0468775Y0218799I0000861J0000000D01*
G01*
X0470497Y0218799D01*
G75*
G02*
X0471358Y0217938I0000000J-000861D01*
G01*
X0471358Y0215920D01*
G75*
G02*
X0470497Y0215059I-000861J0000000D01*
G01*
X0468775Y0215059D01*
G75*
G02*
X0467913Y0215920I0000000J0000861D01*
G01*
G37*
G36*
G01*
X0474114Y0215920D02*
X0474114Y0217938D01*
G75*
G02*
X0474975Y0218799I0000861J0000000D01*
G01*
X0476698Y0218799D01*
G75*
G02*
X0477559Y0217938I0000000J-000861D01*
G01*
X0477559Y0215920D01*
G75*
G02*
X0476698Y0215059I-000861J0000000D01*
G01*
X0474975Y0215059D01*
G75*
G02*
X0474114Y0215920I0000000J0000861D01*
G01*
G37*
G36*
G01*
X0390492Y0250984D02*
X0393563Y0250984D01*
G75*
G02*
X0393839Y0250709I0000000J-000276D01*
G01*
X0393839Y0248504D01*
G75*
G02*
X0393563Y0248228I-000276J0000000D01*
G01*
X0390492Y0248228D01*
G75*
G02*
X0390217Y0248504I0000000J0000276D01*
G01*
X0390217Y0250709D01*
G75*
G02*
X0390492Y0250984I0000276J0000000D01*
G01*
G37*
G36*
G01*
X0390492Y0244685D02*
X0393563Y0244685D01*
G75*
G02*
X0393839Y0244409I0000000J-000276D01*
G01*
X0393839Y0242205D01*
G75*
G02*
X0393563Y0241929I-000276J0000000D01*
G01*
X0390492Y0241929D01*
G75*
G02*
X0390217Y0242205I0000000J0000276D01*
G01*
X0390217Y0244409D01*
G75*
G02*
X0390492Y0244685I0000276J0000000D01*
G01*
G37*
G36*
G01*
X0360965Y0250984D02*
X0364035Y0250984D01*
G75*
G02*
X0364311Y0250709I0000000J-000276D01*
G01*
X0364311Y0248504D01*
G75*
G02*
X0364035Y0248228I-000276J0000000D01*
G01*
X0360965Y0248228D01*
G75*
G02*
X0360689Y0248504I0000000J0000276D01*
G01*
X0360689Y0250709D01*
G75*
G02*
X0360965Y0250984I0000276J0000000D01*
G01*
G37*
G36*
G01*
X0360965Y0244685D02*
X0364035Y0244685D01*
G75*
G02*
X0364311Y0244409I0000000J-000276D01*
G01*
X0364311Y0242205D01*
G75*
G02*
X0364035Y0241929I-000276J0000000D01*
G01*
X0360965Y0241929D01*
G75*
G02*
X0360689Y0242205I0000000J0000276D01*
G01*
X0360689Y0244409D01*
G75*
G02*
X0360965Y0244685I0000276J0000000D01*
G01*
G37*
G36*
G01*
X0344744Y0238386D02*
X0348760Y0238386D01*
G75*
G02*
X0349114Y0238032I0000000J-000354D01*
G01*
X0349114Y0235197D01*
G75*
G02*
X0348760Y0234843I-000354J0000000D01*
G01*
X0344744Y0234843D01*
G75*
G02*
X0344390Y0235197I0000000J0000354D01*
G01*
X0344390Y0238032D01*
G75*
G02*
X0344744Y0238386I0000354J0000000D01*
G01*
G37*
G36*
G01*
X0344744Y0225394D02*
X0348760Y0225394D01*
G75*
G02*
X0349114Y0225039I0000000J-000354D01*
G01*
X0349114Y0222205D01*
G75*
G02*
X0348760Y0221850I-000354J0000000D01*
G01*
X0344744Y0221850D01*
G75*
G02*
X0344390Y0222205I0000000J0000354D01*
G01*
X0344390Y0225039D01*
G75*
G02*
X0344744Y0225394I0000354J0000000D01*
G01*
G37*
G36*
G01*
X0497736Y0181929D02*
X0497736Y0185000D01*
G75*
G02*
X0498012Y0185276I0000276J0000000D01*
G01*
X0500217Y0185276D01*
G75*
G02*
X0500492Y0185000I0000000J-000276D01*
G01*
X0500492Y0181929D01*
G75*
G02*
X0500217Y0181654I-000276J0000000D01*
G01*
X0498012Y0181654D01*
G75*
G02*
X0497736Y0181929I0000000J0000276D01*
G01*
G37*
G36*
G01*
X0504035Y0181929D02*
X0504035Y0185000D01*
G75*
G02*
X0504311Y0185276I0000276J0000000D01*
G01*
X0506516Y0185276D01*
G75*
G02*
X0506791Y0185000I0000000J-000276D01*
G01*
X0506791Y0181929D01*
G75*
G02*
X0506516Y0181654I-000276J0000000D01*
G01*
X0504311Y0181654D01*
G75*
G02*
X0504035Y0181929I0000000J0000276D01*
G01*
G37*
G36*
G01*
X0414272Y0210591D02*
X0414272Y0207520D01*
G75*
G02*
X0413996Y0207244I-000276J0000000D01*
G01*
X0411791Y0207244D01*
G75*
G02*
X0411516Y0207520I0000000J0000276D01*
G01*
X0411516Y0210591D01*
G75*
G02*
X0411791Y0210866I0000276J0000000D01*
G01*
X0413996Y0210866D01*
G75*
G02*
X0414272Y0210591I0000000J-000276D01*
G01*
G37*
G36*
G01*
X0407972Y0210591D02*
X0407972Y0207520D01*
G75*
G02*
X0407697Y0207244I-000276J0000000D01*
G01*
X0405492Y0207244D01*
G75*
G02*
X0405217Y0207520I0000000J0000276D01*
G01*
X0405217Y0210591D01*
G75*
G02*
X0405492Y0210866I0000276J0000000D01*
G01*
X0407697Y0210866D01*
G75*
G02*
X0407972Y0210591I0000000J-000276D01*
G01*
G37*
G36*
G01*
X0380807Y0210591D02*
X0380807Y0207520D01*
G75*
G02*
X0380532Y0207244I-000276J0000000D01*
G01*
X0378327Y0207244D01*
G75*
G02*
X0378051Y0207520I0000000J0000276D01*
G01*
X0378051Y0210591D01*
G75*
G02*
X0378327Y0210866I0000276J0000000D01*
G01*
X0380532Y0210866D01*
G75*
G02*
X0380807Y0210591I0000000J-000276D01*
G01*
G37*
G36*
G01*
X0374508Y0210591D02*
X0374508Y0207520D01*
G75*
G02*
X0374232Y0207244I-000276J0000000D01*
G01*
X0372028Y0207244D01*
G75*
G02*
X0371752Y0207520I0000000J0000276D01*
G01*
X0371752Y0210591D01*
G75*
G02*
X0372028Y0210866I0000276J0000000D01*
G01*
X0374232Y0210866D01*
G75*
G02*
X0374508Y0210591I0000000J-000276D01*
G01*
G37*
G36*
G01*
X0366870Y0250984D02*
X0369941Y0250984D01*
G75*
G02*
X0370217Y0250709I0000000J-000276D01*
G01*
X0370217Y0248504D01*
G75*
G02*
X0369941Y0248228I-000276J0000000D01*
G01*
X0366870Y0248228D01*
G75*
G02*
X0366595Y0248504I0000000J0000276D01*
G01*
X0366595Y0250709D01*
G75*
G02*
X0366870Y0250984I0000276J0000000D01*
G01*
G37*
G36*
G01*
X0366870Y0244685D02*
X0369941Y0244685D01*
G75*
G02*
X0370217Y0244409I0000000J-000276D01*
G01*
X0370217Y0242205D01*
G75*
G02*
X0369941Y0241929I-000276J0000000D01*
G01*
X0366870Y0241929D01*
G75*
G02*
X0366595Y0242205I0000000J0000276D01*
G01*
X0366595Y0244409D01*
G75*
G02*
X0366870Y0244685I0000276J0000000D01*
G01*
G37*
G36*
G01*
X0343248Y0250984D02*
X0346319Y0250984D01*
G75*
G02*
X0346595Y0250709I0000000J-000276D01*
G01*
X0346595Y0248504D01*
G75*
G02*
X0346319Y0248228I-000276J0000000D01*
G01*
X0343248Y0248228D01*
G75*
G02*
X0342972Y0248504I0000000J0000276D01*
G01*
X0342972Y0250709D01*
G75*
G02*
X0343248Y0250984I0000276J0000000D01*
G01*
G37*
G36*
G01*
X0343248Y0244685D02*
X0346319Y0244685D01*
G75*
G02*
X0346595Y0244409I0000000J-000276D01*
G01*
X0346595Y0242205D01*
G75*
G02*
X0346319Y0241929I-000276J0000000D01*
G01*
X0343248Y0241929D01*
G75*
G02*
X0342972Y0242205I0000000J0000276D01*
G01*
X0342972Y0244409D01*
G75*
G02*
X0343248Y0244685I0000276J0000000D01*
G01*
G37*
G36*
G01*
X0435630Y0203445D02*
X0446850Y0203445D01*
G75*
G02*
X0447835Y0202461I0000000J-000984D01*
G01*
X0447835Y0199606D01*
G75*
G02*
X0446850Y0198622I-000984J0000000D01*
G01*
X0435630Y0198622D01*
G75*
G02*
X0434646Y0199606I0000000J0000984D01*
G01*
X0434646Y0202461D01*
G75*
G02*
X0435630Y0203445I0000984J0000000D01*
G01*
G37*
G36*
G01*
X0435630Y0180118D02*
X0446850Y0180118D01*
G75*
G02*
X0447835Y0179134I0000000J-000984D01*
G01*
X0447835Y0176280D01*
G75*
G02*
X0446850Y0175295I-000984J0000000D01*
G01*
X0435630Y0175295D01*
G75*
G02*
X0434646Y0176280I0000000J0000984D01*
G01*
X0434646Y0179134D01*
G75*
G02*
X0435630Y0180118I0000984J0000000D01*
G01*
G37*
G36*
G01*
X0408209Y0250984D02*
X0411280Y0250984D01*
G75*
G02*
X0411555Y0250709I0000000J-000276D01*
G01*
X0411555Y0248504D01*
G75*
G02*
X0411280Y0248228I-000276J0000000D01*
G01*
X0408209Y0248228D01*
G75*
G02*
X0407933Y0248504I0000000J0000276D01*
G01*
X0407933Y0250709D01*
G75*
G02*
X0408209Y0250984I0000276J0000000D01*
G01*
G37*
G36*
G01*
X0408209Y0244685D02*
X0411280Y0244685D01*
G75*
G02*
X0411555Y0244409I0000000J-000276D01*
G01*
X0411555Y0242205D01*
G75*
G02*
X0411280Y0241929I-000276J0000000D01*
G01*
X0408209Y0241929D01*
G75*
G02*
X0407933Y0242205I0000000J0000276D01*
G01*
X0407933Y0244409D01*
G75*
G02*
X0408209Y0244685I0000276J0000000D01*
G01*
G37*
G36*
G01*
X0307815Y0250984D02*
X0310886Y0250984D01*
G75*
G02*
X0311161Y0250709I0000000J-000276D01*
G01*
X0311161Y0248504D01*
G75*
G02*
X0310886Y0248228I-000276J0000000D01*
G01*
X0307815Y0248228D01*
G75*
G02*
X0307539Y0248504I0000000J0000276D01*
G01*
X0307539Y0250709D01*
G75*
G02*
X0307815Y0250984I0000276J0000000D01*
G01*
G37*
G36*
G01*
X0307815Y0244685D02*
X0310886Y0244685D01*
G75*
G02*
X0311161Y0244409I0000000J-000276D01*
G01*
X0311161Y0242205D01*
G75*
G02*
X0310886Y0241929I-000276J0000000D01*
G01*
X0307815Y0241929D01*
G75*
G02*
X0307539Y0242205I0000000J0000276D01*
G01*
X0307539Y0244409D01*
G75*
G02*
X0307815Y0244685I0000276J0000000D01*
G01*
G37*
X0510138Y0359055D02*
G01*
G75*
D334*
X0480223Y0282677D02*
D03*
X0493215Y0282677D02*
D03*
D335*
X0460363Y0282283D02*
D03*
X0471780Y0282283D02*
D03*
X0460363Y0290315D02*
D03*
X0471780Y0290315D02*
D03*
D338*
X0497736Y0304331D02*
D03*
X0497736Y0300394D02*
D03*
X0501083Y0289764D02*
D03*
X0492421Y0289764D02*
D03*
X0501870Y0295012D02*
D03*
X0493209Y0295012D02*
D03*
D339*
X0489983Y0347638D02*
D03*
X0493527Y0347638D02*
D03*
X0480592Y0310905D02*
D03*
X0477048Y0310905D02*
D03*
X0488589Y0295800D02*
D03*
X0485046Y0295800D02*
D03*
X0481365Y0347638D02*
D03*
X0484908Y0347638D02*
D03*
X0501870Y0343701D02*
D03*
X0498327Y0343701D02*
D03*
D340*
X0476385Y0294225D02*
D03*
X0476385Y0290681D02*
D03*
X0497152Y0281823D02*
D03*
X0497152Y0285367D02*
D03*
X0448388Y0340140D02*
D03*
X0448388Y0336596D02*
D03*
D114*
X0444390Y0340945D02*
D03*
X0444390Y0344882D02*
D03*
D115*
X0507185Y0287402D02*
D03*
X0507185Y0354331D02*
D03*
X0507185Y0306890D02*
D03*
X0446162Y0307087D02*
D03*
X0446162Y0281890D02*
D03*
X0446162Y0331496D02*
D03*
X0446162Y0314567D02*
D03*
X0446162Y0356102D02*
D03*
X0507185Y0280118D02*
D03*
D346*
X0452264Y0281102D02*
D03*
X0452264Y0289764D02*
D03*
X0490180Y0343701D02*
D03*
X0494117Y0343701D02*
D03*
X0485499Y0343701D02*
D03*
X0481562Y0343701D02*
D03*
X0488786Y0289764D02*
D03*
X0484849Y0289764D02*
D03*
X0465853Y0311378D02*
D03*
X0461916Y0311378D02*
D03*
X0458077Y0348819D02*
D03*
X0462015Y0348819D02*
D03*
D347*
X0460925Y0302756D02*
D03*
X0471949Y0302756D02*
D03*
D348*
X0493603Y0307079D02*
D03*
X0493603Y0300859D02*
D03*
X0479509Y0307079D02*
D03*
X0479509Y0300859D02*
D03*
X0484200Y0307079D02*
D03*
X0484200Y0300859D02*
D03*
X0488892Y0307079D02*
D03*
X0488892Y0300859D02*
D03*
X0480690Y0294835D02*
D03*
X0480690Y0288614D02*
D03*
D127*
X0485066Y0336941D02*
D03*
X0490066Y0336941D02*
D03*
X0495066Y0336941D02*
D03*
X0500066Y0336941D02*
D03*
X0485066Y0314304D02*
D03*
X0490066Y0314304D02*
D03*
X0495066Y0314304D02*
D03*
X0500066Y0314304D02*
D03*
X0461999Y0342224D02*
D03*
X0466999Y0342224D02*
D03*
X0471999Y0342224D02*
D03*
X0476999Y0342224D02*
D03*
X0461999Y0318799D02*
D03*
X0466999Y0318799D02*
D03*
X0471999Y0318799D02*
D03*
X0476999Y0318799D02*
D03*
D349*
X0492566Y0325623D02*
D03*
D350*
X0469499Y0330512D02*
D03*
X0177362Y0171555D02*
G01*
G75*
D114*
X0212795Y0181791D02*
D03*
X0212795Y0178051D02*
D03*
X0212795Y0174311D02*
D03*
X0178543Y0178248D02*
D03*
X0178543Y0181791D02*
D03*
D132*
X0205315Y0181791D02*
D03*
X0209252Y0181791D02*
D03*
X0194192Y0181791D02*
D03*
X0190255Y0181791D02*
D03*
X0185826Y0181791D02*
D03*
X0181889Y0181791D02*
D03*
X0205315Y0174508D02*
D03*
X0209252Y0174508D02*
D03*
D113*
X0201930Y0174311D02*
D03*
X0201930Y0177854D02*
D03*
D126*
X0198045Y0181024D02*
D03*
X0198045Y0174803D02*
D03*
D112*
X0185433Y0177854D02*
D03*
X0181890Y0177854D02*
D03*
X0193799Y0174311D02*
D03*
X0190256Y0174311D02*
D03*
X0208661Y0177912D02*
D03*
X0205118Y0177912D02*
D03*
X0181890Y0174311D02*
D03*
X0185433Y0174311D02*
D03*
X0296654Y0171752D02*
%LPD*%
G01*
D18*
X0269489Y0230020D03*
X0274213Y0230020D03*
X0264764Y0230020D03*
X0260040Y0230020D03*
X0285473Y0173228D03*
X0289410Y0173228D03*
G36*
G01*
X0266060Y0188681D02*
X0267241Y0188681D01*
G75*
G02*
X0267832Y0188091I0000000J-000591D01*
G01*
X0267832Y0184055D01*
G75*
G02*
X0267241Y0183465I-000591J0000000D01*
G01*
X0266060Y0183465D01*
G75*
G02*
X0265470Y0184055I0000000J0000591D01*
G01*
X0265470Y0188091D01*
G75*
G02*
X0266060Y0188681I0000591J0000000D01*
G01*
G37*
G36*
G01*
X0269801Y0188681D02*
X0270982Y0188681D01*
G75*
G02*
X0271572Y0188091I0000000J-000591D01*
G01*
X0271572Y0184055D01*
G75*
G02*
X0270982Y0183465I-000591J0000000D01*
G01*
X0269801Y0183465D01*
G75*
G02*
X0269210Y0184055I0000000J0000591D01*
G01*
X0269210Y0188091D01*
G75*
G02*
X0269801Y0188681I0000591J0000000D01*
G01*
G37*
G36*
G01*
X0273541Y0188681D02*
X0274722Y0188681D01*
G75*
G02*
X0275312Y0188091I0000000J-000591D01*
G01*
X0275312Y0184055D01*
G75*
G02*
X0274722Y0183465I-000591J0000000D01*
G01*
X0273541Y0183465D01*
G75*
G02*
X0272950Y0184055I0000000J0000591D01*
G01*
X0272950Y0188091D01*
G75*
G02*
X0273541Y0188681I0000591J0000000D01*
G01*
G37*
G36*
G01*
X0273541Y0179724D02*
X0274722Y0179724D01*
G75*
G02*
X0275312Y0179134I0000000J-000591D01*
G01*
X0275312Y0175098D01*
G75*
G02*
X0274722Y0174508I-000591J0000000D01*
G01*
X0273541Y0174508D01*
G75*
G02*
X0272950Y0175098I0000000J0000591D01*
G01*
X0272950Y0179134D01*
G75*
G02*
X0273541Y0179724I0000591J0000000D01*
G01*
G37*
G36*
G01*
X0266060Y0179724D02*
X0267241Y0179724D01*
G75*
G02*
X0267832Y0179134I0000000J-000591D01*
G01*
X0267832Y0175098D01*
G75*
G02*
X0267241Y0174508I-000591J0000000D01*
G01*
X0266060Y0174508D01*
G75*
G02*
X0265470Y0175098I0000000J0000591D01*
G01*
X0265470Y0179134D01*
G75*
G02*
X0266060Y0179724I0000591J0000000D01*
G01*
G37*
G36*
G01*
X0288347Y0188406D02*
X0288347Y0189744D01*
G75*
G02*
X0288898Y0190295I0000551J0000000D01*
G01*
X0290000Y0190295D01*
G75*
G02*
X0290552Y0189744I0000000J-000551D01*
G01*
X0290552Y0188406D01*
G75*
G02*
X0290000Y0187854I-000551J0000000D01*
G01*
X0288898Y0187854D01*
G75*
G02*
X0288347Y0188406I0000000J0000551D01*
G01*
G37*
G36*
G01*
X0292126Y0188406D02*
X0292126Y0189744D01*
G75*
G02*
X0292678Y0190295I0000551J0000000D01*
G01*
X0293780Y0190295D01*
G75*
G02*
X0294331Y0189744I0000000J-000551D01*
G01*
X0294331Y0188406D01*
G75*
G02*
X0293780Y0187854I-000551J0000000D01*
G01*
X0292678Y0187854D01*
G75*
G02*
X0292126Y0188406I0000000J0000551D01*
G01*
G37*
G36*
G01*
X0265630Y0214921D02*
X0264292Y0214921D01*
G75*
G02*
X0263741Y0215472I0000000J0000551D01*
G01*
X0263741Y0216575D01*
G75*
G02*
X0264292Y0217126I0000551J0000000D01*
G01*
X0265630Y0217126D01*
G75*
G02*
X0266182Y0216575I0000000J-000551D01*
G01*
X0266182Y0215472D01*
G75*
G02*
X0265630Y0214921I-000551J0000000D01*
G01*
G37*
G36*
G01*
X0265630Y0218701D02*
X0264292Y0218701D01*
G75*
G02*
X0263741Y0219252I0000000J0000551D01*
G01*
X0263741Y0220354D01*
G75*
G02*
X0264292Y0220906I0000551J0000000D01*
G01*
X0265630Y0220906D01*
G75*
G02*
X0266182Y0220354I0000000J-000551D01*
G01*
X0266182Y0219252D01*
G75*
G02*
X0265630Y0218701I-000551J0000000D01*
G01*
G37*
G36*
G01*
X0260630Y0228268D02*
X0261969Y0228268D01*
G75*
G02*
X0262520Y0227717I0000000J-000551D01*
G01*
X0262520Y0226614D01*
G75*
G02*
X0261969Y0226063I-000551J0000000D01*
G01*
X0260630Y0226063D01*
G75*
G02*
X0260079Y0226614I0000000J0000551D01*
G01*
X0260079Y0227717D01*
G75*
G02*
X0260630Y0228268I0000551J0000000D01*
G01*
G37*
G36*
G01*
X0260630Y0224488D02*
X0261969Y0224488D01*
G75*
G02*
X0262520Y0223937I0000000J-000551D01*
G01*
X0262520Y0222835D01*
G75*
G02*
X0261969Y0222283I-000551J0000000D01*
G01*
X0260630Y0222283D01*
G75*
G02*
X0260079Y0222835I0000000J0000551D01*
G01*
X0260079Y0223937D01*
G75*
G02*
X0260630Y0224488I0000551J0000000D01*
G01*
G37*
G36*
G01*
X0269371Y0206516D02*
X0268032Y0206516D01*
G75*
G02*
X0267481Y0207067I0000000J0000551D01*
G01*
X0267481Y0208169D01*
G75*
G02*
X0268032Y0208721I0000551J0000000D01*
G01*
X0269371Y0208721D01*
G75*
G02*
X0269922Y0208169I0000000J-000551D01*
G01*
X0269922Y0207067D01*
G75*
G02*
X0269371Y0206516I-000551J0000000D01*
G01*
G37*
G36*
G01*
X0269371Y0210295D02*
X0268032Y0210295D01*
G75*
G02*
X0267481Y0210846I0000000J0000551D01*
G01*
X0267481Y0211949D01*
G75*
G02*
X0268032Y0212500I0000551J0000000D01*
G01*
X0269371Y0212500D01*
G75*
G02*
X0269922Y0211949I0000000J-000551D01*
G01*
X0269922Y0210846D01*
G75*
G02*
X0269371Y0210295I-000551J0000000D01*
G01*
G37*
G36*
G01*
X0264292Y0228071D02*
X0265630Y0228071D01*
G75*
G02*
X0266182Y0227520I0000000J-000551D01*
G01*
X0266182Y0226417D01*
G75*
G02*
X0265630Y0225866I-000551J0000000D01*
G01*
X0264292Y0225866D01*
G75*
G02*
X0263741Y0226417I0000000J0000551D01*
G01*
X0263741Y0227520D01*
G75*
G02*
X0264292Y0228071I0000551J0000000D01*
G01*
G37*
G36*
G01*
X0264292Y0224291D02*
X0265630Y0224291D01*
G75*
G02*
X0266182Y0223740I0000000J-000551D01*
G01*
X0266182Y0222638D01*
G75*
G02*
X0265630Y0222087I-000551J0000000D01*
G01*
X0264292Y0222087D01*
G75*
G02*
X0263741Y0222638I0000000J0000551D01*
G01*
X0263741Y0223740D01*
G75*
G02*
X0264292Y0224291I0000551J0000000D01*
G01*
G37*
G36*
G01*
X0285808Y0222795D02*
X0284469Y0222795D01*
G75*
G02*
X0283918Y0223346I0000000J0000551D01*
G01*
X0283918Y0224449D01*
G75*
G02*
X0284469Y0225000I0000551J0000000D01*
G01*
X0285808Y0225000D01*
G75*
G02*
X0286359Y0224449I0000000J-000551D01*
G01*
X0286359Y0223346D01*
G75*
G02*
X0285808Y0222795I-000551J0000000D01*
G01*
G37*
G36*
G01*
X0285808Y0226575D02*
X0284469Y0226575D01*
G75*
G02*
X0283918Y0227126I0000000J0000551D01*
G01*
X0283918Y0228228D01*
G75*
G02*
X0284469Y0228780I0000551J0000000D01*
G01*
X0285808Y0228780D01*
G75*
G02*
X0286359Y0228228I0000000J-000551D01*
G01*
X0286359Y0227126D01*
G75*
G02*
X0285808Y0226575I-000551J0000000D01*
G01*
G37*
G36*
G01*
X0293308Y0192286D02*
X0292520Y0192286D01*
G75*
G02*
X0292126Y0192680I0000000J0000394D01*
G01*
X0292126Y0197700D01*
G75*
G02*
X0292520Y0198093I0000394J0000000D01*
G01*
X0293308Y0198093D01*
G75*
G02*
X0293701Y0197700I0000000J-000394D01*
G01*
X0293701Y0192680D01*
G75*
G02*
X0293308Y0192286I-000394J0000000D01*
G01*
G37*
G36*
G01*
X0290748Y0192286D02*
X0289961Y0192286D01*
G75*
G02*
X0289567Y0192680I0000000J0000394D01*
G01*
X0289567Y0197700D01*
G75*
G02*
X0289961Y0198093I0000394J0000000D01*
G01*
X0290748Y0198093D01*
G75*
G02*
X0291142Y0197700I0000000J-000394D01*
G01*
X0291142Y0192680D01*
G75*
G02*
X0290748Y0192286I-000394J0000000D01*
G01*
G37*
G36*
G01*
X0288189Y0192286D02*
X0287402Y0192286D01*
G75*
G02*
X0287008Y0192680I0000000J0000394D01*
G01*
X0287008Y0197700D01*
G75*
G02*
X0287402Y0198093I0000394J0000000D01*
G01*
X0288189Y0198093D01*
G75*
G02*
X0288583Y0197700I0000000J-000394D01*
G01*
X0288583Y0192680D01*
G75*
G02*
X0288189Y0192286I-000394J0000000D01*
G01*
G37*
G36*
G01*
X0285630Y0192286D02*
X0284843Y0192286D01*
G75*
G02*
X0284449Y0192680I0000000J0000394D01*
G01*
X0284449Y0197700D01*
G75*
G02*
X0284843Y0198093I0000394J0000000D01*
G01*
X0285630Y0198093D01*
G75*
G02*
X0286024Y0197700I0000000J-000394D01*
G01*
X0286024Y0192680D01*
G75*
G02*
X0285630Y0192286I-000394J0000000D01*
G01*
G37*
G36*
G01*
X0283071Y0192286D02*
X0282284Y0192286D01*
G75*
G02*
X0281890Y0192680I0000000J0000394D01*
G01*
X0281890Y0197700D01*
G75*
G02*
X0282284Y0198093I0000394J0000000D01*
G01*
X0283071Y0198093D01*
G75*
G02*
X0283465Y0197700I0000000J-000394D01*
G01*
X0283465Y0192680D01*
G75*
G02*
X0283071Y0192286I-000394J0000000D01*
G01*
G37*
G36*
G01*
X0280512Y0192286D02*
X0279725Y0192286D01*
G75*
G02*
X0279331Y0192680I0000000J0000394D01*
G01*
X0279331Y0197700D01*
G75*
G02*
X0279725Y0198093I0000394J0000000D01*
G01*
X0280512Y0198093D01*
G75*
G02*
X0280906Y0197700I0000000J-000394D01*
G01*
X0280906Y0192680D01*
G75*
G02*
X0280512Y0192286I-000394J0000000D01*
G01*
G37*
G36*
G01*
X0277953Y0192286D02*
X0277166Y0192286D01*
G75*
G02*
X0276772Y0192680I0000000J0000394D01*
G01*
X0276772Y0197700D01*
G75*
G02*
X0277166Y0198093I0000394J0000000D01*
G01*
X0277953Y0198093D01*
G75*
G02*
X0278347Y0197700I0000000J-000394D01*
G01*
X0278347Y0192680D01*
G75*
G02*
X0277953Y0192286I-000394J0000000D01*
G01*
G37*
G36*
G01*
X0277953Y0214826D02*
X0277166Y0214826D01*
G75*
G02*
X0276772Y0215219I0000000J0000394D01*
G01*
X0276772Y0220239D01*
G75*
G02*
X0277166Y0220633I0000394J0000000D01*
G01*
X0277953Y0220633D01*
G75*
G02*
X0278347Y0220239I0000000J-000394D01*
G01*
X0278347Y0215219D01*
G75*
G02*
X0277953Y0214826I-000394J0000000D01*
G01*
G37*
G36*
G01*
X0280512Y0214826D02*
X0279725Y0214826D01*
G75*
G02*
X0279331Y0215219I0000000J0000394D01*
G01*
X0279331Y0220239D01*
G75*
G02*
X0279725Y0220633I0000394J0000000D01*
G01*
X0280512Y0220633D01*
G75*
G02*
X0280906Y0220239I0000000J-000394D01*
G01*
X0280906Y0215219D01*
G75*
G02*
X0280512Y0214826I-000394J0000000D01*
G01*
G37*
G36*
G01*
X0283071Y0214826D02*
X0282284Y0214826D01*
G75*
G02*
X0281890Y0215219I0000000J0000394D01*
G01*
X0281890Y0220239D01*
G75*
G02*
X0282284Y0220633I0000394J0000000D01*
G01*
X0283071Y0220633D01*
G75*
G02*
X0283465Y0220239I0000000J-000394D01*
G01*
X0283465Y0215219D01*
G75*
G02*
X0283071Y0214826I-000394J0000000D01*
G01*
G37*
G36*
G01*
X0285630Y0214826D02*
X0284843Y0214826D01*
G75*
G02*
X0284449Y0215219I0000000J0000394D01*
G01*
X0284449Y0220239D01*
G75*
G02*
X0284843Y0220633I0000394J0000000D01*
G01*
X0285630Y0220633D01*
G75*
G02*
X0286024Y0220239I0000000J-000394D01*
G01*
X0286024Y0215219D01*
G75*
G02*
X0285630Y0214826I-000394J0000000D01*
G01*
G37*
G36*
G01*
X0288189Y0214826D02*
X0287402Y0214826D01*
G75*
G02*
X0287008Y0215219I0000000J0000394D01*
G01*
X0287008Y0220239D01*
G75*
G02*
X0287402Y0220633I0000394J0000000D01*
G01*
X0288189Y0220633D01*
G75*
G02*
X0288583Y0220239I0000000J-000394D01*
G01*
X0288583Y0215219D01*
G75*
G02*
X0288189Y0214826I-000394J0000000D01*
G01*
G37*
G36*
G01*
X0290748Y0214826D02*
X0289961Y0214826D01*
G75*
G02*
X0289567Y0215219I0000000J0000394D01*
G01*
X0289567Y0220239D01*
G75*
G02*
X0289961Y0220633I0000394J0000000D01*
G01*
X0290748Y0220633D01*
G75*
G02*
X0291142Y0220239I0000000J-000394D01*
G01*
X0291142Y0215219D01*
G75*
G02*
X0290748Y0214826I-000394J0000000D01*
G01*
G37*
G36*
G01*
X0293308Y0214826D02*
X0292520Y0214826D01*
G75*
G02*
X0292126Y0215219I0000000J0000394D01*
G01*
X0292126Y0220239D01*
G75*
G02*
X0292520Y0220633I0000394J0000000D01*
G01*
X0293308Y0220633D01*
G75*
G02*
X0293701Y0220239I0000000J-000394D01*
G01*
X0293701Y0215219D01*
G75*
G02*
X0293308Y0214826I-000394J0000000D01*
G01*
G37*
G36*
G01*
X0285437Y0174643D02*
X0281894Y0174643D01*
G75*
G02*
X0280910Y0175627I0000000J0000984D01*
G01*
X0280910Y0177694D01*
G75*
G02*
X0281894Y0178678I0000984J0000000D01*
G01*
X0285437Y0178678D01*
G75*
G02*
X0286422Y0177694I0000000J-000984D01*
G01*
X0286422Y0175627D01*
G75*
G02*
X0285437Y0174643I-000984J0000000D01*
G01*
G37*
G36*
G01*
X0285437Y0181828D02*
X0281894Y0181828D01*
G75*
G02*
X0280910Y0182812I0000000J0000984D01*
G01*
X0280910Y0184879D01*
G75*
G02*
X0281894Y0185863I0000984J0000000D01*
G01*
X0285437Y0185863D01*
G75*
G02*
X0286422Y0184879I0000000J-000984D01*
G01*
X0286422Y0182812D01*
G75*
G02*
X0285437Y0181828I-000984J0000000D01*
G01*
G37*
G36*
G01*
X0271713Y0220886D02*
X0273170Y0220886D01*
G75*
G02*
X0273701Y0220354I0000000J-000531D01*
G01*
X0273701Y0219291D01*
G75*
G02*
X0273170Y0218760I-000531J0000000D01*
G01*
X0271713Y0218760D01*
G75*
G02*
X0271182Y0219291I0000000J0000531D01*
G01*
X0271182Y0220354D01*
G75*
G02*
X0271713Y0220886I0000531J0000000D01*
G01*
G37*
G36*
G01*
X0271713Y0216870D02*
X0273170Y0216870D01*
G75*
G02*
X0273701Y0216339I0000000J-000531D01*
G01*
X0273701Y0215276D01*
G75*
G02*
X0273170Y0214744I-000531J0000000D01*
G01*
X0271713Y0214744D01*
G75*
G02*
X0271182Y0215276I0000000J0000531D01*
G01*
X0271182Y0216339D01*
G75*
G02*
X0271713Y0216870I0000531J0000000D01*
G01*
G37*
G36*
G01*
X0260788Y0180453D02*
X0262126Y0180453D01*
G75*
G02*
X0262678Y0179902I0000000J-000551D01*
G01*
X0262678Y0178799D01*
G75*
G02*
X0262126Y0178248I-000551J0000000D01*
G01*
X0260788Y0178248D01*
G75*
G02*
X0260237Y0178799I0000000J0000551D01*
G01*
X0260237Y0179902D01*
G75*
G02*
X0260788Y0180453I0000551J0000000D01*
G01*
G37*
G36*
G01*
X0260788Y0176673D02*
X0262126Y0176673D01*
G75*
G02*
X0262678Y0176122I0000000J-000551D01*
G01*
X0262678Y0175020D01*
G75*
G02*
X0262126Y0174469I-000551J0000000D01*
G01*
X0260788Y0174469D01*
G75*
G02*
X0260237Y0175020I0000000J0000551D01*
G01*
X0260237Y0176122D01*
G75*
G02*
X0260788Y0176673I0000551J0000000D01*
G01*
G37*
G36*
G01*
X0267973Y0228563D02*
X0269430Y0228563D01*
G75*
G02*
X0269961Y0228032I0000000J-000531D01*
G01*
X0269961Y0226969D01*
G75*
G02*
X0269430Y0226437I-000531J0000000D01*
G01*
X0267973Y0226437D01*
G75*
G02*
X0267441Y0226969I0000000J0000531D01*
G01*
X0267441Y0228032D01*
G75*
G02*
X0267973Y0228563I0000531J0000000D01*
G01*
G37*
G36*
G01*
X0267973Y0224547D02*
X0269430Y0224547D01*
G75*
G02*
X0269961Y0224016I0000000J-000531D01*
G01*
X0269961Y0222953D01*
G75*
G02*
X0269430Y0222421I-000531J0000000D01*
G01*
X0267973Y0222421D01*
G75*
G02*
X0267441Y0222953I0000000J0000531D01*
G01*
X0267441Y0224016D01*
G75*
G02*
X0267973Y0224547I0000531J0000000D01*
G01*
G37*
G36*
G01*
X0271713Y0212630D02*
X0273169Y0212630D01*
G75*
G02*
X0273701Y0212098I0000000J-000531D01*
G01*
X0273701Y0211035D01*
G75*
G02*
X0273169Y0210504I-000531J0000000D01*
G01*
X0271713Y0210504D01*
G75*
G02*
X0271181Y0211035I0000000J0000531D01*
G01*
X0271181Y0212098D01*
G75*
G02*
X0271713Y0212630I0000531J0000000D01*
G01*
G37*
G36*
G01*
X0271713Y0208614D02*
X0273169Y0208614D01*
G75*
G02*
X0273701Y0208082I0000000J-000531D01*
G01*
X0273701Y0207019D01*
G75*
G02*
X0273169Y0206488I-000531J0000000D01*
G01*
X0271713Y0206488D01*
G75*
G02*
X0271181Y0207019I0000000J0000531D01*
G01*
X0271181Y0208082D01*
G75*
G02*
X0271713Y0208614I0000531J0000000D01*
G01*
G37*
G36*
G01*
X0289469Y0185863D02*
X0293012Y0185863D01*
G75*
G02*
X0293997Y0184879I0000000J-000984D01*
G01*
X0293997Y0182812D01*
G75*
G02*
X0293012Y0181828I-000984J0000000D01*
G01*
X0289469Y0181828D01*
G75*
G02*
X0288485Y0182812I0000000J0000984D01*
G01*
X0288485Y0184879D01*
G75*
G02*
X0289469Y0185863I0000984J0000000D01*
G01*
G37*
G36*
G01*
X0289469Y0178678D02*
X0293012Y0178678D01*
G75*
G02*
X0293997Y0177694I0000000J-000984D01*
G01*
X0293997Y0175627D01*
G75*
G02*
X0293012Y0174643I-000984J0000000D01*
G01*
X0289469Y0174643D01*
G75*
G02*
X0288485Y0175627I0000000J0000984D01*
G01*
X0288485Y0177694D01*
G75*
G02*
X0289469Y0178678I0000984J0000000D01*
G01*
G37*
G36*
G01*
X0260571Y0212579D02*
X0262028Y0212579D01*
G75*
G02*
X0262560Y0212047I0000000J-000531D01*
G01*
X0262560Y0210984D01*
G75*
G02*
X0262028Y0210453I-000531J0000000D01*
G01*
X0260571Y0210453D01*
G75*
G02*
X0260040Y0210984I0000000J0000531D01*
G01*
X0260040Y0212047D01*
G75*
G02*
X0260571Y0212579I0000531J0000000D01*
G01*
G37*
G36*
G01*
X0260571Y0208563D02*
X0262028Y0208563D01*
G75*
G02*
X0262560Y0208032I0000000J-000531D01*
G01*
X0262560Y0206969D01*
G75*
G02*
X0262028Y0206437I-000531J0000000D01*
G01*
X0260571Y0206437D01*
G75*
G02*
X0260040Y0206969I0000000J0000531D01*
G01*
X0260040Y0208032D01*
G75*
G02*
X0260571Y0208563I0000531J0000000D01*
G01*
G37*
G36*
G01*
X0294075Y0222264D02*
X0292619Y0222264D01*
G75*
G02*
X0292087Y0222795I0000000J0000531D01*
G01*
X0292087Y0223858D01*
G75*
G02*
X0292619Y0224390I0000531J0000000D01*
G01*
X0294075Y0224390D01*
G75*
G02*
X0294607Y0223858I0000000J-000531D01*
G01*
X0294607Y0222795D01*
G75*
G02*
X0294075Y0222264I-000531J0000000D01*
G01*
G37*
G36*
G01*
X0294075Y0226280D02*
X0292619Y0226280D01*
G75*
G02*
X0292087Y0226811I0000000J0000531D01*
G01*
X0292087Y0227874D01*
G75*
G02*
X0292619Y0228406I0000531J0000000D01*
G01*
X0294075Y0228406D01*
G75*
G02*
X0294607Y0227874I0000000J-000531D01*
G01*
X0294607Y0226811D01*
G75*
G02*
X0294075Y0226280I-000531J0000000D01*
G01*
G37*
G36*
G01*
X0282126Y0222717D02*
X0280670Y0222717D01*
G75*
G02*
X0280138Y0223248I0000000J0000531D01*
G01*
X0280138Y0224311D01*
G75*
G02*
X0280670Y0224843I0000531J0000000D01*
G01*
X0282126Y0224843D01*
G75*
G02*
X0282658Y0224311I0000000J-000531D01*
G01*
X0282658Y0223248D01*
G75*
G02*
X0282126Y0222717I-000531J0000000D01*
G01*
G37*
G36*
G01*
X0282126Y0226732D02*
X0280670Y0226732D01*
G75*
G02*
X0280138Y0227264I0000000J0000531D01*
G01*
X0280138Y0228327D01*
G75*
G02*
X0280670Y0228858I0000531J0000000D01*
G01*
X0282126Y0228858D01*
G75*
G02*
X0282658Y0228327I0000000J-000531D01*
G01*
X0282658Y0227264D01*
G75*
G02*
X0282126Y0226732I-000531J0000000D01*
G01*
G37*
G36*
G01*
X0267973Y0221181D02*
X0269430Y0221181D01*
G75*
G02*
X0269961Y0220650I0000000J-000531D01*
G01*
X0269961Y0219587D01*
G75*
G02*
X0269430Y0219055I-000531J0000000D01*
G01*
X0267973Y0219055D01*
G75*
G02*
X0267441Y0219587I0000000J0000531D01*
G01*
X0267441Y0220650D01*
G75*
G02*
X0267973Y0221181I0000531J0000000D01*
G01*
G37*
G36*
G01*
X0267973Y0217165D02*
X0269430Y0217165D01*
G75*
G02*
X0269961Y0216634I0000000J-000531D01*
G01*
X0269961Y0215571D01*
G75*
G02*
X0269430Y0215039I-000531J0000000D01*
G01*
X0267973Y0215039D01*
G75*
G02*
X0267441Y0215571I0000000J0000531D01*
G01*
X0267441Y0216634D01*
G75*
G02*
X0267973Y0217165I0000531J0000000D01*
G01*
G37*
G36*
G01*
X0276890Y0228878D02*
X0278229Y0228878D01*
G75*
G02*
X0278780Y0228327I0000000J-000551D01*
G01*
X0278780Y0227224D01*
G75*
G02*
X0278229Y0226673I-000551J0000000D01*
G01*
X0276890Y0226673D01*
G75*
G02*
X0276339Y0227224I0000000J0000551D01*
G01*
X0276339Y0228327D01*
G75*
G02*
X0276890Y0228878I0000551J0000000D01*
G01*
G37*
G36*
G01*
X0276890Y0225098D02*
X0278229Y0225098D01*
G75*
G02*
X0278780Y0224547I0000000J-000551D01*
G01*
X0278780Y0223445D01*
G75*
G02*
X0278229Y0222894I-000551J0000000D01*
G01*
X0276890Y0222894D01*
G75*
G02*
X0276339Y0223445I0000000J0000551D01*
G01*
X0276339Y0224547D01*
G75*
G02*
X0276890Y0225098I0000551J0000000D01*
G01*
G37*
G36*
G01*
X0287105Y0189730D02*
X0287105Y0188392D01*
G75*
G02*
X0286554Y0187840I-000551J0000000D01*
G01*
X0285452Y0187840D01*
G75*
G02*
X0284900Y0188392I0000000J0000551D01*
G01*
X0284900Y0189730D01*
G75*
G02*
X0285452Y0190281I0000551J0000000D01*
G01*
X0286554Y0190281D01*
G75*
G02*
X0287105Y0189730I0000000J-000551D01*
G01*
G37*
G36*
G01*
X0283326Y0189730D02*
X0283326Y0188392D01*
G75*
G02*
X0282775Y0187840I-000551J0000000D01*
G01*
X0281672Y0187840D01*
G75*
G02*
X0281121Y0188392I0000000J0000551D01*
G01*
X0281121Y0189730D01*
G75*
G02*
X0281672Y0190281I0000551J0000000D01*
G01*
X0282775Y0190281D01*
G75*
G02*
X0283326Y0189730I0000000J-000551D01*
G01*
G37*
G36*
G01*
X0273170Y0222224D02*
X0271713Y0222224D01*
G75*
G02*
X0271182Y0222756I0000000J0000531D01*
G01*
X0271182Y0223819D01*
G75*
G02*
X0271713Y0224350I0000531J0000000D01*
G01*
X0273170Y0224350D01*
G75*
G02*
X0273701Y0223819I0000000J-000531D01*
G01*
X0273701Y0222756D01*
G75*
G02*
X0273170Y0222224I-000531J0000000D01*
G01*
G37*
G36*
G01*
X0273170Y0226240D02*
X0271713Y0226240D01*
G75*
G02*
X0271182Y0226772I0000000J0000531D01*
G01*
X0271182Y0227835D01*
G75*
G02*
X0271713Y0228366I0000531J0000000D01*
G01*
X0273170Y0228366D01*
G75*
G02*
X0273701Y0227835I0000000J-000531D01*
G01*
X0273701Y0226772D01*
G75*
G02*
X0273170Y0226240I-000531J0000000D01*
G01*
G37*
G36*
G01*
X0261811Y0204823D02*
X0262993Y0204823D01*
G75*
G02*
X0263583Y0204232I0000000J-000591D01*
G01*
X0263583Y0200197D01*
G75*
G02*
X0262993Y0199606I-000591J0000000D01*
G01*
X0261811Y0199606D01*
G75*
G02*
X0261221Y0200197I0000000J0000591D01*
G01*
X0261221Y0204232D01*
G75*
G02*
X0261811Y0204823I0000591J0000000D01*
G01*
G37*
G36*
G01*
X0265552Y0204823D02*
X0266733Y0204823D01*
G75*
G02*
X0267323Y0204232I0000000J-000591D01*
G01*
X0267323Y0200197D01*
G75*
G02*
X0266733Y0199606I-000591J0000000D01*
G01*
X0265552Y0199606D01*
G75*
G02*
X0264961Y0200197I0000000J0000591D01*
G01*
X0264961Y0204232D01*
G75*
G02*
X0265552Y0204823I0000591J0000000D01*
G01*
G37*
G36*
G01*
X0269292Y0204823D02*
X0270473Y0204823D01*
G75*
G02*
X0271063Y0204232I0000000J-000591D01*
G01*
X0271063Y0200197D01*
G75*
G02*
X0270473Y0199606I-000591J0000000D01*
G01*
X0269292Y0199606D01*
G75*
G02*
X0268701Y0200197I0000000J0000591D01*
G01*
X0268701Y0204232D01*
G75*
G02*
X0269292Y0204823I0000591J0000000D01*
G01*
G37*
G36*
G01*
X0269292Y0195866D02*
X0270473Y0195866D01*
G75*
G02*
X0271063Y0195276I0000000J-000591D01*
G01*
X0271063Y0191240D01*
G75*
G02*
X0270473Y0190650I-000591J0000000D01*
G01*
X0269292Y0190650D01*
G75*
G02*
X0268701Y0191240I0000000J0000591D01*
G01*
X0268701Y0195276D01*
G75*
G02*
X0269292Y0195866I0000591J0000000D01*
G01*
G37*
G36*
G01*
X0261811Y0195866D02*
X0262993Y0195866D01*
G75*
G02*
X0263583Y0195276I0000000J-000591D01*
G01*
X0263583Y0191240D01*
G75*
G02*
X0262993Y0190650I-000591J0000000D01*
G01*
X0261811Y0190650D01*
G75*
G02*
X0261221Y0191240I0000000J0000591D01*
G01*
X0261221Y0195276D01*
G75*
G02*
X0261811Y0195866I0000591J0000000D01*
G01*
G37*
G36*
G01*
X0265630Y0206516D02*
X0264292Y0206516D01*
G75*
G02*
X0263741Y0207067I0000000J0000551D01*
G01*
X0263741Y0208169D01*
G75*
G02*
X0264292Y0208721I0000551J0000000D01*
G01*
X0265630Y0208721D01*
G75*
G02*
X0266182Y0208169I0000000J-000551D01*
G01*
X0266182Y0207067D01*
G75*
G02*
X0265630Y0206516I-000551J0000000D01*
G01*
G37*
G36*
G01*
X0265630Y0210295D02*
X0264292Y0210295D01*
G75*
G02*
X0263741Y0210846I0000000J0000551D01*
G01*
X0263741Y0211949D01*
G75*
G02*
X0264292Y0212500I0000551J0000000D01*
G01*
X0265630Y0212500D01*
G75*
G02*
X0266182Y0211949I0000000J-000551D01*
G01*
X0266182Y0210846D01*
G75*
G02*
X0265630Y0210295I-000551J0000000D01*
G01*
G37*
X0256595Y0171014D02*
%LPD*%
G01*
D18*
X0229430Y0229282D03*
X0234154Y0229282D03*
X0224705Y0229282D03*
X0219981Y0229282D03*
X0245414Y0172490D03*
X0249351Y0172490D03*
X0104921Y0278839D02*
%LPD*%
G01*
D144*
X0116535Y0187658D03*
X0128346Y0195532D03*
X0116535Y0203406D03*
D158*
X0115748Y0274666D03*
X0111748Y0254666D03*
X0119748Y0254666D03*
D354*
X0154626Y0185178D03*
D355*
X0154626Y0195178D03*
X0154626Y0205178D03*
G36*
G01*
X0112280Y0199134D02*
X0113638Y0199134D01*
G75*
G02*
X0114219Y0198554I0000000J-000581D01*
G01*
X0114219Y0197392D01*
G75*
G02*
X0113638Y0196811I-000581J0000000D01*
G01*
X0112280Y0196811D01*
G75*
G02*
X0111699Y0197392I0000000J0000581D01*
G01*
X0111699Y0198554D01*
G75*
G02*
X0112280Y0199134I0000581J0000000D01*
G01*
G37*
G36*
G01*
X0112280Y0195315D02*
X0113638Y0195315D01*
G75*
G02*
X0114219Y0194735I0000000J-000581D01*
G01*
X0114219Y0193573D01*
G75*
G02*
X0113638Y0192993I-000581J0000000D01*
G01*
X0112280Y0192993D01*
G75*
G02*
X0111699Y0193573I0000000J0000581D01*
G01*
X0111699Y0194735D01*
G75*
G02*
X0112280Y0195315I0000581J0000000D01*
G01*
G37*
G36*
G01*
X0127569Y0184666D02*
X0128927Y0184666D01*
G75*
G02*
X0129508Y0184085I0000000J-000581D01*
G01*
X0129508Y0182924D01*
G75*
G02*
X0128927Y0182343I-000581J0000000D01*
G01*
X0127569Y0182343D01*
G75*
G02*
X0126988Y0182924I0000000J0000581D01*
G01*
X0126988Y0184085D01*
G75*
G02*
X0127569Y0184666I0000581J0000000D01*
G01*
G37*
G36*
G01*
X0127569Y0180847D02*
X0128927Y0180847D01*
G75*
G02*
X0129508Y0180266I0000000J-000581D01*
G01*
X0129508Y0179105D01*
G75*
G02*
X0128927Y0178524I-000581J0000000D01*
G01*
X0127569Y0178524D01*
G75*
G02*
X0126988Y0179105I0000000J0000581D01*
G01*
X0126988Y0180266D01*
G75*
G02*
X0127569Y0180847I0000581J0000000D01*
G01*
G37*
G36*
G01*
X0153765Y0234548D02*
X0151747Y0234548D01*
G75*
G02*
X0150886Y0235409I0000000J0000861D01*
G01*
X0150886Y0237131D01*
G75*
G02*
X0151747Y0237993I0000861J0000000D01*
G01*
X0153765Y0237993D01*
G75*
G02*
X0154626Y0237131I0000000J-000861D01*
G01*
X0154626Y0235409D01*
G75*
G02*
X0153765Y0234548I-000861J0000000D01*
G01*
G37*
G36*
G01*
X0153765Y0240748D02*
X0151747Y0240748D01*
G75*
G02*
X0150886Y0241610I0000000J0000861D01*
G01*
X0150886Y0243332D01*
G75*
G02*
X0151747Y0244193I0000861J0000000D01*
G01*
X0153765Y0244193D01*
G75*
G02*
X0154626Y0243332I0000000J-000861D01*
G01*
X0154626Y0241610D01*
G75*
G02*
X0153765Y0240748I-000861J0000000D01*
G01*
G37*
G36*
G01*
X0109439Y0192993D02*
X0108080Y0192993D01*
G75*
G02*
X0107500Y0193573I0000000J0000581D01*
G01*
X0107500Y0194735D01*
G75*
G02*
X0108080Y0195315I0000581J0000000D01*
G01*
X0109439Y0195315D01*
G75*
G02*
X0110019Y0194735I0000000J-000581D01*
G01*
X0110019Y0193573D01*
G75*
G02*
X0109439Y0192993I-000581J0000000D01*
G01*
G37*
G36*
G01*
X0109439Y0196811D02*
X0108080Y0196811D01*
G75*
G02*
X0107500Y0197392I0000000J0000581D01*
G01*
X0107500Y0198554D01*
G75*
G02*
X0108080Y0199134I0000581J0000000D01*
G01*
X0109439Y0199134D01*
G75*
G02*
X0110019Y0198554I0000000J-000581D01*
G01*
X0110019Y0197392D01*
G75*
G02*
X0109439Y0196811I-000581J0000000D01*
G01*
G37*
G36*
G01*
X0148435Y0252694D02*
X0149793Y0252694D01*
G75*
G02*
X0150374Y0252114I0000000J-000581D01*
G01*
X0150374Y0250952D01*
G75*
G02*
X0149793Y0250372I-000581J0000000D01*
G01*
X0148435Y0250372D01*
G75*
G02*
X0147854Y0250952I0000000J0000581D01*
G01*
X0147854Y0252114D01*
G75*
G02*
X0148435Y0252694I0000581J0000000D01*
G01*
G37*
G36*
G01*
X0148435Y0248876D02*
X0149793Y0248876D01*
G75*
G02*
X0150374Y0248295I0000000J-000581D01*
G01*
X0150374Y0247133D01*
G75*
G02*
X0149793Y0246553I-000581J0000000D01*
G01*
X0148435Y0246553D01*
G75*
G02*
X0147854Y0247133I0000000J0000581D01*
G01*
X0147854Y0248295D01*
G75*
G02*
X0148435Y0248876I0000581J0000000D01*
G01*
G37*
G36*
G01*
X0146565Y0244607D02*
X0147923Y0244607D01*
G75*
G02*
X0148504Y0244026I0000000J-000581D01*
G01*
X0148504Y0242865D01*
G75*
G02*
X0147923Y0242284I-000581J0000000D01*
G01*
X0146565Y0242284D01*
G75*
G02*
X0145984Y0242865I0000000J0000581D01*
G01*
X0145984Y0244026D01*
G75*
G02*
X0146565Y0244607I0000581J0000000D01*
G01*
G37*
G36*
G01*
X0146565Y0240788D02*
X0147923Y0240788D01*
G75*
G02*
X0148504Y0240207I0000000J-000581D01*
G01*
X0148504Y0239046D01*
G75*
G02*
X0147923Y0238465I-000581J0000000D01*
G01*
X0146565Y0238465D01*
G75*
G02*
X0145984Y0239046I0000000J0000581D01*
G01*
X0145984Y0240207D01*
G75*
G02*
X0146565Y0240788I0000581J0000000D01*
G01*
G37*
G36*
G01*
X0153897Y0273219D02*
X0153897Y0271861D01*
G75*
G02*
X0153317Y0271280I-000581J0000000D01*
G01*
X0152155Y0271280D01*
G75*
G02*
X0151575Y0271861I0000000J0000581D01*
G01*
X0151575Y0273219D01*
G75*
G02*
X0152155Y0273800I0000581J0000000D01*
G01*
X0153317Y0273800D01*
G75*
G02*
X0153897Y0273219I0000000J-000581D01*
G01*
G37*
G36*
G01*
X0150078Y0273219D02*
X0150078Y0271861D01*
G75*
G02*
X0149498Y0271280I-000581J0000000D01*
G01*
X0148336Y0271280D01*
G75*
G02*
X0147756Y0271861I0000000J0000581D01*
G01*
X0147756Y0273219D01*
G75*
G02*
X0148336Y0273800I0000581J0000000D01*
G01*
X0149498Y0273800D01*
G75*
G02*
X0150078Y0273219I0000000J-000581D01*
G01*
G37*
G36*
G01*
X0136309Y0223701D02*
X0134951Y0223701D01*
G75*
G02*
X0134370Y0224282I0000000J0000581D01*
G01*
X0134370Y0225443D01*
G75*
G02*
X0134951Y0226024I0000581J0000000D01*
G01*
X0136309Y0226024D01*
G75*
G02*
X0136890Y0225443I0000000J-000581D01*
G01*
X0136890Y0224282D01*
G75*
G02*
X0136309Y0223701I-000581J0000000D01*
G01*
G37*
G36*
G01*
X0136309Y0227520D02*
X0134951Y0227520D01*
G75*
G02*
X0134370Y0228101I0000000J0000581D01*
G01*
X0134370Y0229262D01*
G75*
G02*
X0134951Y0229843I0000581J0000000D01*
G01*
X0136309Y0229843D01*
G75*
G02*
X0136890Y0229262I0000000J-000581D01*
G01*
X0136890Y0228101D01*
G75*
G02*
X0136309Y0227520I-000581J0000000D01*
G01*
G37*
G36*
G01*
X0131014Y0229843D02*
X0132372Y0229843D01*
G75*
G02*
X0132952Y0229262I0000000J-000581D01*
G01*
X0132952Y0228101D01*
G75*
G02*
X0132372Y0227520I-000581J0000000D01*
G01*
X0131014Y0227520D01*
G75*
G02*
X0130433Y0228101I0000000J0000581D01*
G01*
X0130433Y0229262D01*
G75*
G02*
X0131014Y0229843I0000581J0000000D01*
G01*
G37*
G36*
G01*
X0131014Y0226024D02*
X0132372Y0226024D01*
G75*
G02*
X0132952Y0225443I0000000J-000581D01*
G01*
X0132952Y0224282D01*
G75*
G02*
X0132372Y0223701I-000581J0000000D01*
G01*
X0131014Y0223701D01*
G75*
G02*
X0130433Y0224282I0000000J0000581D01*
G01*
X0130433Y0225443D01*
G75*
G02*
X0131014Y0226024I0000581J0000000D01*
G01*
G37*
G36*
G01*
X0133454Y0182363D02*
X0132096Y0182363D01*
G75*
G02*
X0131515Y0182943I0000000J0000581D01*
G01*
X0131515Y0184105D01*
G75*
G02*
X0132096Y0184685I0000581J0000000D01*
G01*
X0133454Y0184685D01*
G75*
G02*
X0134035Y0184105I0000000J-000581D01*
G01*
X0134035Y0182943D01*
G75*
G02*
X0133454Y0182363I-000581J0000000D01*
G01*
G37*
G36*
G01*
X0133454Y0186182D02*
X0132096Y0186182D01*
G75*
G02*
X0131515Y0186762I0000000J0000581D01*
G01*
X0131515Y0187924D01*
G75*
G02*
X0132096Y0188504I0000581J0000000D01*
G01*
X0133454Y0188504D01*
G75*
G02*
X0134035Y0187924I0000000J-000581D01*
G01*
X0134035Y0186762D01*
G75*
G02*
X0133454Y0186182I-000581J0000000D01*
G01*
G37*
D357*
X0110039Y0236713D03*
X0112598Y0236713D03*
X0115157Y0236713D03*
X0117716Y0236713D03*
X0120275Y0236713D03*
X0122834Y0236713D03*
X0125393Y0236713D03*
X0125393Y0213485D03*
X0122834Y0213485D03*
X0120275Y0213485D03*
X0117716Y0213485D03*
X0115157Y0213485D03*
X0112598Y0213485D03*
X0110039Y0213485D03*
G36*
G01*
X0153533Y0246536D02*
X0152175Y0246536D01*
G75*
G02*
X0151594Y0247117I0000000J0000581D01*
G01*
X0151594Y0248278D01*
G75*
G02*
X0152175Y0248859I0000581J0000000D01*
G01*
X0153533Y0248859D01*
G75*
G02*
X0154114Y0248278I0000000J-000581D01*
G01*
X0154114Y0247117D01*
G75*
G02*
X0153533Y0246536I-000581J0000000D01*
G01*
G37*
G36*
G01*
X0153533Y0250355D02*
X0152175Y0250355D01*
G75*
G02*
X0151594Y0250935I0000000J0000581D01*
G01*
X0151594Y0252097D01*
G75*
G02*
X0152175Y0252678I0000581J0000000D01*
G01*
X0153533Y0252678D01*
G75*
G02*
X0154114Y0252097I0000000J-000581D01*
G01*
X0154114Y0250935D01*
G75*
G02*
X0153533Y0250355I-000581J0000000D01*
G01*
G37*
G36*
G01*
X0155915Y0252678D02*
X0157273Y0252678D01*
G75*
G02*
X0157854Y0252097I0000000J-000581D01*
G01*
X0157854Y0250935D01*
G75*
G02*
X0157273Y0250355I-000581J0000000D01*
G01*
X0155915Y0250355D01*
G75*
G02*
X0155334Y0250935I0000000J0000581D01*
G01*
X0155334Y0252097D01*
G75*
G02*
X0155915Y0252678I0000581J0000000D01*
G01*
G37*
G36*
G01*
X0155915Y0248859D02*
X0157273Y0248859D01*
G75*
G02*
X0157854Y0248278I0000000J-000581D01*
G01*
X0157854Y0247117D01*
G75*
G02*
X0157273Y0246536I-000581J0000000D01*
G01*
X0155915Y0246536D01*
G75*
G02*
X0155334Y0247117I0000000J0000581D01*
G01*
X0155334Y0248278D01*
G75*
G02*
X0155915Y0248859I0000581J0000000D01*
G01*
G37*
G36*
G01*
X0146466Y0192441D02*
X0147825Y0192441D01*
G75*
G02*
X0148405Y0191861I0000000J-000581D01*
G01*
X0148405Y0190699D01*
G75*
G02*
X0147825Y0190119I-000581J0000000D01*
G01*
X0146466Y0190119D01*
G75*
G02*
X0145886Y0190699I0000000J0000581D01*
G01*
X0145886Y0191861D01*
G75*
G02*
X0146466Y0192441I0000581J0000000D01*
G01*
G37*
G36*
G01*
X0146466Y0188622D02*
X0147825Y0188622D01*
G75*
G02*
X0148405Y0188042I0000000J-000581D01*
G01*
X0148405Y0186880D01*
G75*
G02*
X0147825Y0186300I-000581J0000000D01*
G01*
X0146466Y0186300D01*
G75*
G02*
X0145886Y0186880I0000000J0000581D01*
G01*
X0145886Y0188042D01*
G75*
G02*
X0146466Y0188622I0000581J0000000D01*
G01*
G37*
G36*
G01*
X0117168Y0199134D02*
X0118527Y0199134D01*
G75*
G02*
X0119107Y0198554I0000000J-000581D01*
G01*
X0119107Y0197392D01*
G75*
G02*
X0118527Y0196811I-000581J0000000D01*
G01*
X0117168Y0196811D01*
G75*
G02*
X0116588Y0197392I0000000J0000581D01*
G01*
X0116588Y0198554D01*
G75*
G02*
X0117168Y0199134I0000581J0000000D01*
G01*
G37*
G36*
G01*
X0117168Y0195315D02*
X0118527Y0195315D01*
G75*
G02*
X0119107Y0194735I0000000J-000581D01*
G01*
X0119107Y0193573D01*
G75*
G02*
X0118527Y0192993I-000581J0000000D01*
G01*
X0117168Y0192993D01*
G75*
G02*
X0116588Y0193573I0000000J0000581D01*
G01*
X0116588Y0194735D01*
G75*
G02*
X0117168Y0195315I0000581J0000000D01*
G01*
G37*
G36*
G01*
X0140246Y0226949D02*
X0138888Y0226949D01*
G75*
G02*
X0138307Y0227530I0000000J0000581D01*
G01*
X0138307Y0228691D01*
G75*
G02*
X0138888Y0229272I0000581J0000000D01*
G01*
X0140246Y0229272D01*
G75*
G02*
X0140827Y0228691I0000000J-000581D01*
G01*
X0140827Y0227530D01*
G75*
G02*
X0140246Y0226949I-000581J0000000D01*
G01*
G37*
G36*
G01*
X0140246Y0230768D02*
X0138888Y0230768D01*
G75*
G02*
X0138307Y0231349I0000000J0000581D01*
G01*
X0138307Y0232510D01*
G75*
G02*
X0138888Y0233091I0000581J0000000D01*
G01*
X0140246Y0233091D01*
G75*
G02*
X0140827Y0232510I0000000J-000581D01*
G01*
X0140827Y0231349D01*
G75*
G02*
X0140246Y0230768I-000581J0000000D01*
G01*
G37*
G36*
G01*
X0147825Y0178622D02*
X0146466Y0178622D01*
G75*
G02*
X0145886Y0179203I0000000J0000581D01*
G01*
X0145886Y0180365D01*
G75*
G02*
X0146466Y0180945I0000581J0000000D01*
G01*
X0147825Y0180945D01*
G75*
G02*
X0148405Y0180365I0000000J-000581D01*
G01*
X0148405Y0179203D01*
G75*
G02*
X0147825Y0178622I-000581J0000000D01*
G01*
G37*
G36*
G01*
X0147825Y0182441D02*
X0146466Y0182441D01*
G75*
G02*
X0145886Y0183022I0000000J0000581D01*
G01*
X0145886Y0184183D01*
G75*
G02*
X0146466Y0184764I0000581J0000000D01*
G01*
X0147825Y0184764D01*
G75*
G02*
X0148405Y0184183I0000000J-000581D01*
G01*
X0148405Y0183022D01*
G75*
G02*
X0147825Y0182441I-000581J0000000D01*
G01*
G37*
G36*
G01*
X0132372Y0231083D02*
X0131014Y0231083D01*
G75*
G02*
X0130433Y0231664I0000000J0000581D01*
G01*
X0130433Y0232825D01*
G75*
G02*
X0131014Y0233406I0000581J0000000D01*
G01*
X0132372Y0233406D01*
G75*
G02*
X0132952Y0232825I0000000J-000581D01*
G01*
X0132952Y0231664D01*
G75*
G02*
X0132372Y0231083I-000581J0000000D01*
G01*
G37*
G36*
G01*
X0132372Y0234902D02*
X0131014Y0234902D01*
G75*
G02*
X0130433Y0235483I0000000J0000581D01*
G01*
X0130433Y0236644D01*
G75*
G02*
X0131014Y0237225I0000581J0000000D01*
G01*
X0132372Y0237225D01*
G75*
G02*
X0132952Y0236644I0000000J-000581D01*
G01*
X0132952Y0235483D01*
G75*
G02*
X0132372Y0234902I-000581J0000000D01*
G01*
G37*
G36*
G01*
X0107756Y0242333D02*
X0107756Y0243691D01*
G75*
G02*
X0108336Y0244272I0000581J0000000D01*
G01*
X0109498Y0244272D01*
G75*
G02*
X0110078Y0243691I0000000J-000581D01*
G01*
X0110078Y0242333D01*
G75*
G02*
X0109498Y0241752I-000581J0000000D01*
G01*
X0108336Y0241752D01*
G75*
G02*
X0107756Y0242333I0000000J0000581D01*
G01*
G37*
G36*
G01*
X0111575Y0242333D02*
X0111575Y0243691D01*
G75*
G02*
X0112155Y0244272I0000581J0000000D01*
G01*
X0113317Y0244272D01*
G75*
G02*
X0113897Y0243691I0000000J-000581D01*
G01*
X0113897Y0242333D01*
G75*
G02*
X0113317Y0241752I-000581J0000000D01*
G01*
X0112155Y0241752D01*
G75*
G02*
X0111575Y0242333I0000000J0000581D01*
G01*
G37*
G36*
G01*
X0136309Y0216221D02*
X0134951Y0216221D01*
G75*
G02*
X0134370Y0216802I0000000J0000581D01*
G01*
X0134370Y0217963D01*
G75*
G02*
X0134951Y0218544I0000581J0000000D01*
G01*
X0136309Y0218544D01*
G75*
G02*
X0136890Y0217963I0000000J-000581D01*
G01*
X0136890Y0216802D01*
G75*
G02*
X0136309Y0216221I-000581J0000000D01*
G01*
G37*
G36*
G01*
X0136309Y0220040D02*
X0134951Y0220040D01*
G75*
G02*
X0134370Y0220620I0000000J0000581D01*
G01*
X0134370Y0221782D01*
G75*
G02*
X0134951Y0222363I0000581J0000000D01*
G01*
X0136309Y0222363D01*
G75*
G02*
X0136890Y0221782I0000000J-000581D01*
G01*
X0136890Y0220620D01*
G75*
G02*
X0136309Y0220040I-000581J0000000D01*
G01*
G37*
G36*
G01*
X0134951Y0214882D02*
X0136309Y0214882D01*
G75*
G02*
X0136890Y0214302I0000000J-000581D01*
G01*
X0136890Y0213140D01*
G75*
G02*
X0136309Y0212559I-000581J0000000D01*
G01*
X0134951Y0212559D01*
G75*
G02*
X0134370Y0213140I0000000J0000581D01*
G01*
X0134370Y0214302D01*
G75*
G02*
X0134951Y0214882I0000581J0000000D01*
G01*
G37*
G36*
G01*
X0134951Y0211063D02*
X0136309Y0211063D01*
G75*
G02*
X0136890Y0210483I0000000J-000581D01*
G01*
X0136890Y0209321D01*
G75*
G02*
X0136309Y0208741I-000581J0000000D01*
G01*
X0134951Y0208741D01*
G75*
G02*
X0134370Y0209321I0000000J0000581D01*
G01*
X0134370Y0210483D01*
G75*
G02*
X0134951Y0211063I0000581J0000000D01*
G01*
G37*
G36*
G01*
X0107756Y0246073D02*
X0107756Y0247432D01*
G75*
G02*
X0108336Y0248012I0000581J0000000D01*
G01*
X0109498Y0248012D01*
G75*
G02*
X0110078Y0247432I0000000J-000581D01*
G01*
X0110078Y0246073D01*
G75*
G02*
X0109498Y0245493I-000581J0000000D01*
G01*
X0108336Y0245493D01*
G75*
G02*
X0107756Y0246073I0000000J0000581D01*
G01*
G37*
G36*
G01*
X0111575Y0246073D02*
X0111575Y0247432D01*
G75*
G02*
X0112155Y0248012I0000581J0000000D01*
G01*
X0113317Y0248012D01*
G75*
G02*
X0113897Y0247432I0000000J-000581D01*
G01*
X0113897Y0246073D01*
G75*
G02*
X0113317Y0245493I-000581J0000000D01*
G01*
X0112155Y0245493D01*
G75*
G02*
X0111575Y0246073I0000000J0000581D01*
G01*
G37*
D358*
X0156594Y0256752D03*
X0152854Y0256752D03*
X0149114Y0256752D03*
X0149114Y0267067D03*
X0156594Y0267067D03*
G36*
G01*
X0138888Y0222264D02*
X0140246Y0222264D01*
G75*
G02*
X0140827Y0221683I0000000J-000581D01*
G01*
X0140827Y0220522D01*
G75*
G02*
X0140246Y0219941I-000581J0000000D01*
G01*
X0138888Y0219941D01*
G75*
G02*
X0138307Y0220522I0000000J0000581D01*
G01*
X0138307Y0221683D01*
G75*
G02*
X0138888Y0222264I0000581J0000000D01*
G01*
G37*
G36*
G01*
X0138888Y0218445D02*
X0140246Y0218445D01*
G75*
G02*
X0140827Y0217865I0000000J-000581D01*
G01*
X0140827Y0216703D01*
G75*
G02*
X0140246Y0216122I-000581J0000000D01*
G01*
X0138888Y0216122D01*
G75*
G02*
X0138307Y0216703I0000000J0000581D01*
G01*
X0138307Y0217865D01*
G75*
G02*
X0138888Y0218445I0000581J0000000D01*
G01*
G37*
G36*
G01*
X0142992Y0234853D02*
X0142992Y0236211D01*
G75*
G02*
X0143573Y0236792I0000581J0000000D01*
G01*
X0144734Y0236792D01*
G75*
G02*
X0145315Y0236211I0000000J-000581D01*
G01*
X0145315Y0234853D01*
G75*
G02*
X0144734Y0234272I-000581J0000000D01*
G01*
X0143573Y0234272D01*
G75*
G02*
X0142992Y0234853I0000000J0000581D01*
G01*
G37*
G36*
G01*
X0146811Y0234853D02*
X0146811Y0236211D01*
G75*
G02*
X0147391Y0236792I0000581J0000000D01*
G01*
X0148553Y0236792D01*
G75*
G02*
X0149134Y0236211I0000000J-000581D01*
G01*
X0149134Y0234853D01*
G75*
G02*
X0148553Y0234272I-000581J0000000D01*
G01*
X0147391Y0234272D01*
G75*
G02*
X0146811Y0234853I0000000J0000581D01*
G01*
G37*
G36*
G01*
X0122559Y0243691D02*
X0122559Y0242333D01*
G75*
G02*
X0121978Y0241752I-000581J0000000D01*
G01*
X0120817Y0241752D01*
G75*
G02*
X0120236Y0242333I0000000J0000581D01*
G01*
X0120236Y0243691D01*
G75*
G02*
X0120817Y0244272I0000581J0000000D01*
G01*
X0121978Y0244272D01*
G75*
G02*
X0122559Y0243691I0000000J-000581D01*
G01*
G37*
G36*
G01*
X0118740Y0243691D02*
X0118740Y0242333D01*
G75*
G02*
X0118159Y0241752I-000581J0000000D01*
G01*
X0116998Y0241752D01*
G75*
G02*
X0116417Y0242333I0000000J0000581D01*
G01*
X0116417Y0243691D01*
G75*
G02*
X0116998Y0244272I0000581J0000000D01*
G01*
X0118159Y0244272D01*
G75*
G02*
X0118740Y0243691I0000000J-000581D01*
G01*
G37*
G36*
G01*
X0123514Y0200571D02*
X0122155Y0200571D01*
G75*
G02*
X0121575Y0201152I0000000J0000581D01*
G01*
X0121575Y0202313D01*
G75*
G02*
X0122155Y0202894I0000581J0000000D01*
G01*
X0123514Y0202894D01*
G75*
G02*
X0124094Y0202313I0000000J-000581D01*
G01*
X0124094Y0201152D01*
G75*
G02*
X0123514Y0200571I-000581J0000000D01*
G01*
G37*
G36*
G01*
X0123514Y0204390D02*
X0122155Y0204390D01*
G75*
G02*
X0121575Y0204971I0000000J0000581D01*
G01*
X0121575Y0206132D01*
G75*
G02*
X0122155Y0206713I0000581J0000000D01*
G01*
X0123514Y0206713D01*
G75*
G02*
X0124094Y0206132I0000000J-000581D01*
G01*
X0124094Y0204971D01*
G75*
G02*
X0123514Y0204390I-000581J0000000D01*
G01*
G37*
G36*
G01*
X0123514Y0192993D02*
X0122155Y0192993D01*
G75*
G02*
X0121575Y0193573I0000000J0000581D01*
G01*
X0121575Y0194735D01*
G75*
G02*
X0122155Y0195315I0000581J0000000D01*
G01*
X0123514Y0195315D01*
G75*
G02*
X0124094Y0194735I0000000J-000581D01*
G01*
X0124094Y0193573D01*
G75*
G02*
X0123514Y0192993I-000581J0000000D01*
G01*
G37*
G36*
G01*
X0123514Y0196811D02*
X0122155Y0196811D01*
G75*
G02*
X0121575Y0197392I0000000J0000581D01*
G01*
X0121575Y0198554D01*
G75*
G02*
X0122155Y0199134I0000581J0000000D01*
G01*
X0123514Y0199134D01*
G75*
G02*
X0124094Y0198554I0000000J-000581D01*
G01*
X0124094Y0197392D01*
G75*
G02*
X0123514Y0196811I-000581J0000000D01*
G01*
G37*
G36*
G01*
X0122559Y0247432D02*
X0122559Y0246073D01*
G75*
G02*
X0121978Y0245493I-000581J0000000D01*
G01*
X0120817Y0245493D01*
G75*
G02*
X0120236Y0246073I0000000J0000581D01*
G01*
X0120236Y0247432D01*
G75*
G02*
X0120817Y0248012I0000581J0000000D01*
G01*
X0121978Y0248012D01*
G75*
G02*
X0122559Y0247432I0000000J-000581D01*
G01*
G37*
G36*
G01*
X0118740Y0247432D02*
X0118740Y0246073D01*
G75*
G02*
X0118159Y0245493I-000581J0000000D01*
G01*
X0116998Y0245493D01*
G75*
G02*
X0116417Y0246073I0000000J0000581D01*
G01*
X0116417Y0247432D01*
G75*
G02*
X0116998Y0248012I0000581J0000000D01*
G01*
X0118159Y0248012D01*
G75*
G02*
X0118740Y0247432I0000000J-000581D01*
G01*
G37*
G36*
G01*
X0132372Y0213071D02*
X0131014Y0213071D01*
G75*
G02*
X0130433Y0213652I0000000J0000581D01*
G01*
X0130433Y0214813D01*
G75*
G02*
X0131014Y0215394I0000581J0000000D01*
G01*
X0132372Y0215394D01*
G75*
G02*
X0132952Y0214813I0000000J-000581D01*
G01*
X0132952Y0213652D01*
G75*
G02*
X0132372Y0213071I-000581J0000000D01*
G01*
G37*
G36*
G01*
X0132372Y0216890D02*
X0131014Y0216890D01*
G75*
G02*
X0130433Y0217471I0000000J0000581D01*
G01*
X0130433Y0218632D01*
G75*
G02*
X0131014Y0219213I0000581J0000000D01*
G01*
X0132372Y0219213D01*
G75*
G02*
X0132952Y0218632I0000000J-000581D01*
G01*
X0132952Y0217471D01*
G75*
G02*
X0132372Y0216890I-000581J0000000D01*
G01*
G37*
G36*
G01*
X0122559Y0251172D02*
X0122559Y0249813D01*
G75*
G02*
X0121978Y0249233I-000581J0000000D01*
G01*
X0120817Y0249233D01*
G75*
G02*
X0120236Y0249813I0000000J0000581D01*
G01*
X0120236Y0251172D01*
G75*
G02*
X0120817Y0251752I0000581J0000000D01*
G01*
X0121978Y0251752D01*
G75*
G02*
X0122559Y0251172I0000000J-000581D01*
G01*
G37*
G36*
G01*
X0118740Y0251172D02*
X0118740Y0249813D01*
G75*
G02*
X0118159Y0249233I-000581J0000000D01*
G01*
X0116998Y0249233D01*
G75*
G02*
X0116417Y0249813I0000000J0000581D01*
G01*
X0116417Y0251172D01*
G75*
G02*
X0116998Y0251752I0000581J0000000D01*
G01*
X0118159Y0251752D01*
G75*
G02*
X0118740Y0251172I0000000J-000581D01*
G01*
G37*
G36*
G01*
X0113897Y0251172D02*
X0113897Y0249813D01*
G75*
G02*
X0113317Y0249233I-000581J0000000D01*
G01*
X0112155Y0249233D01*
G75*
G02*
X0111575Y0249813I0000000J0000581D01*
G01*
X0111575Y0251172D01*
G75*
G02*
X0112155Y0251752I0000581J0000000D01*
G01*
X0113317Y0251752D01*
G75*
G02*
X0113897Y0251172I0000000J-000581D01*
G01*
G37*
G36*
G01*
X0110078Y0251172D02*
X0110078Y0249813D01*
G75*
G02*
X0109498Y0249233I-000581J0000000D01*
G01*
X0108336Y0249233D01*
G75*
G02*
X0107756Y0249813I0000000J0000581D01*
G01*
X0107756Y0251172D01*
G75*
G02*
X0108336Y0251752I0000581J0000000D01*
G01*
X0109498Y0251752D01*
G75*
G02*
X0110078Y0251172I0000000J-000581D01*
G01*
G37*
G36*
G01*
X0119704Y0265985D02*
X0121043Y0265985D01*
G75*
G02*
X0121594Y0265434I0000000J-000551D01*
G01*
X0121594Y0264331D01*
G75*
G02*
X0121043Y0263780I-000551J0000000D01*
G01*
X0119704Y0263780D01*
G75*
G02*
X0119153Y0264331I0000000J0000551D01*
G01*
X0119153Y0265434D01*
G75*
G02*
X0119704Y0265985I0000551J0000000D01*
G01*
G37*
G36*
G01*
X0119704Y0262205D02*
X0121043Y0262205D01*
G75*
G02*
X0121594Y0261654I0000000J-000551D01*
G01*
X0121594Y0260552D01*
G75*
G02*
X0121043Y0260001I-000551J0000000D01*
G01*
X0119704Y0260001D01*
G75*
G02*
X0119153Y0260552I0000000J0000551D01*
G01*
X0119153Y0261654D01*
G75*
G02*
X0119704Y0262205I0000551J0000000D01*
G01*
G37*
G36*
G01*
X0145964Y0211044D02*
X0144508Y0211044D01*
G75*
G02*
X0143976Y0211575I0000000J0000531D01*
G01*
X0143976Y0212638D01*
G75*
G02*
X0144508Y0213170I0000531J0000000D01*
G01*
X0145964Y0213170D01*
G75*
G02*
X0146496Y0212638I0000000J-000531D01*
G01*
X0146496Y0211575D01*
G75*
G02*
X0145964Y0211044I-000531J0000000D01*
G01*
G37*
G36*
G01*
X0145964Y0215059D02*
X0144508Y0215059D01*
G75*
G02*
X0143976Y0215591I0000000J0000531D01*
G01*
X0143976Y0216654D01*
G75*
G02*
X0144508Y0217185I0000531J0000000D01*
G01*
X0145964Y0217185D01*
G75*
G02*
X0146496Y0216654I0000000J-000531D01*
G01*
X0146496Y0215591D01*
G75*
G02*
X0145964Y0215059I-000531J0000000D01*
G01*
G37*
G36*
G01*
X0131431Y0271772D02*
X0131431Y0273229D01*
G75*
G02*
X0131963Y0273760I0000531J0000000D01*
G01*
X0133026Y0273760D01*
G75*
G02*
X0133557Y0273229I0000000J-000531D01*
G01*
X0133557Y0271772D01*
G75*
G02*
X0133026Y0271241I-000531J0000000D01*
G01*
X0131963Y0271241D01*
G75*
G02*
X0131431Y0271772I0000000J0000531D01*
G01*
G37*
G36*
G01*
X0135447Y0271772D02*
X0135447Y0273229D01*
G75*
G02*
X0135979Y0273760I0000531J0000000D01*
G01*
X0137042Y0273760D01*
G75*
G02*
X0137573Y0273229I0000000J-000531D01*
G01*
X0137573Y0271772D01*
G75*
G02*
X0137042Y0271241I-000531J0000000D01*
G01*
X0135979Y0271241D01*
G75*
G02*
X0135447Y0271772I0000000J0000531D01*
G01*
G37*
G36*
G01*
X0107480Y0271162D02*
X0108661Y0271162D01*
G75*
G02*
X0109252Y0270571I0000000J-000591D01*
G01*
X0109252Y0265945D01*
G75*
G02*
X0108661Y0265355I-000591J0000000D01*
G01*
X0107480Y0265355D01*
G75*
G02*
X0106890Y0265945I0000000J0000591D01*
G01*
X0106890Y0270571D01*
G75*
G02*
X0107480Y0271162I0000591J0000000D01*
G01*
G37*
G36*
G01*
X0114960Y0271162D02*
X0116141Y0271162D01*
G75*
G02*
X0116732Y0270571I0000000J-000591D01*
G01*
X0116732Y0265945D01*
G75*
G02*
X0116141Y0265355I-000591J0000000D01*
G01*
X0114960Y0265355D01*
G75*
G02*
X0114370Y0265945I0000000J0000591D01*
G01*
X0114370Y0270571D01*
G75*
G02*
X0114960Y0271162I0000591J0000000D01*
G01*
G37*
G36*
G01*
X0111220Y0263780D02*
X0112401Y0263780D01*
G75*
G02*
X0112992Y0263189I0000000J-000591D01*
G01*
X0112992Y0258563D01*
G75*
G02*
X0112401Y0257973I-000591J0000000D01*
G01*
X0111220Y0257973D01*
G75*
G02*
X0110630Y0258563I0000000J0000591D01*
G01*
X0110630Y0263189D01*
G75*
G02*
X0111220Y0263780I0000591J0000000D01*
G01*
G37*
G36*
G01*
X0145412Y0273209D02*
X0145412Y0271870D01*
G75*
G02*
X0144860Y0271319I-000551J0000000D01*
G01*
X0143758Y0271319D01*
G75*
G02*
X0143207Y0271870I0000000J0000551D01*
G01*
X0143207Y0273209D01*
G75*
G02*
X0143758Y0273760I0000551J0000000D01*
G01*
X0144860Y0273760D01*
G75*
G02*
X0145412Y0273209I0000000J-000551D01*
G01*
G37*
G36*
G01*
X0141632Y0273209D02*
X0141632Y0271870D01*
G75*
G02*
X0141081Y0271319I-000551J0000000D01*
G01*
X0139979Y0271319D01*
G75*
G02*
X0139427Y0271870I0000000J0000551D01*
G01*
X0139427Y0273209D01*
G75*
G02*
X0139979Y0273760I0000551J0000000D01*
G01*
X0141081Y0273760D01*
G75*
G02*
X0141632Y0273209I0000000J-000551D01*
G01*
G37*
G36*
G01*
X0142341Y0242422D02*
X0141160Y0242422D01*
G75*
G02*
X0140569Y0243012I0000000J0000591D01*
G01*
X0140569Y0248721D01*
G75*
G02*
X0141160Y0249311I0000591J0000000D01*
G01*
X0142341Y0249311D01*
G75*
G02*
X0142931Y0248721I0000000J-000591D01*
G01*
X0142931Y0243012D01*
G75*
G02*
X0142341Y0242422I-000591J0000000D01*
G01*
G37*
G36*
G01*
X0137341Y0242422D02*
X0136160Y0242422D01*
G75*
G02*
X0135569Y0243012I0000000J0000591D01*
G01*
X0135569Y0248721D01*
G75*
G02*
X0136160Y0249311I0000591J0000000D01*
G01*
X0137341Y0249311D01*
G75*
G02*
X0137931Y0248721I0000000J-000591D01*
G01*
X0137931Y0243012D01*
G75*
G02*
X0137341Y0242422I-000591J0000000D01*
G01*
G37*
G36*
G01*
X0132341Y0242422D02*
X0131160Y0242422D01*
G75*
G02*
X0130569Y0243012I0000000J0000591D01*
G01*
X0130569Y0248721D01*
G75*
G02*
X0131160Y0249311I0000591J0000000D01*
G01*
X0132341Y0249311D01*
G75*
G02*
X0132931Y0248721I0000000J-000591D01*
G01*
X0132931Y0243012D01*
G75*
G02*
X0132341Y0242422I-000591J0000000D01*
G01*
G37*
G36*
G01*
X0127341Y0242422D02*
X0126160Y0242422D01*
G75*
G02*
X0125569Y0243012I0000000J0000591D01*
G01*
X0125569Y0248721D01*
G75*
G02*
X0126160Y0249311I0000591J0000000D01*
G01*
X0127341Y0249311D01*
G75*
G02*
X0127931Y0248721I0000000J-000591D01*
G01*
X0127931Y0243012D01*
G75*
G02*
X0127341Y0242422I-000591J0000000D01*
G01*
G37*
G36*
G01*
X0127341Y0262697D02*
X0126160Y0262697D01*
G75*
G02*
X0125569Y0263288I0000000J0000591D01*
G01*
X0125569Y0268996D01*
G75*
G02*
X0126160Y0269587I0000591J0000000D01*
G01*
X0127341Y0269587D01*
G75*
G02*
X0127931Y0268996I0000000J-000591D01*
G01*
X0127931Y0263288D01*
G75*
G02*
X0127341Y0262697I-000591J0000000D01*
G01*
G37*
G36*
G01*
X0132341Y0262697D02*
X0131160Y0262697D01*
G75*
G02*
X0130569Y0263288I0000000J0000591D01*
G01*
X0130569Y0268996D01*
G75*
G02*
X0131160Y0269587I0000591J0000000D01*
G01*
X0132341Y0269587D01*
G75*
G02*
X0132931Y0268996I0000000J-000591D01*
G01*
X0132931Y0263288D01*
G75*
G02*
X0132341Y0262697I-000591J0000000D01*
G01*
G37*
G36*
G01*
X0137341Y0262697D02*
X0136160Y0262697D01*
G75*
G02*
X0135569Y0263288I0000000J0000591D01*
G01*
X0135569Y0268996D01*
G75*
G02*
X0136160Y0269587I0000591J0000000D01*
G01*
X0137341Y0269587D01*
G75*
G02*
X0137931Y0268996I0000000J-000591D01*
G01*
X0137931Y0263288D01*
G75*
G02*
X0137341Y0262697I-000591J0000000D01*
G01*
G37*
G36*
G01*
X0142341Y0262697D02*
X0141160Y0262697D01*
G75*
G02*
X0140569Y0263288I0000000J0000591D01*
G01*
X0140569Y0268996D01*
G75*
G02*
X0141160Y0269587I0000591J0000000D01*
G01*
X0142341Y0269587D01*
G75*
G02*
X0142931Y0268996I0000000J-000591D01*
G01*
X0142931Y0263288D01*
G75*
G02*
X0142341Y0262697I-000591J0000000D01*
G01*
G37*
X0290157Y0280413D02*
G01*
G75*
D189*
X0342126Y0365452D02*
D03*
X0342126Y0340157D02*
D03*
X0342126Y0355413D02*
D03*
X0342126Y0350197D02*
D03*
X0335039Y0380708D02*
D03*
X0342126Y0380708D02*
D03*
X0342126Y0370669D02*
D03*
X0335039Y0370669D02*
D03*
X0335039Y0340157D02*
D03*
X0335039Y0350197D02*
D03*
X0335039Y0355413D02*
D03*
X0335039Y0365452D02*
D03*
D190*
X0342126Y0362007D02*
D03*
X0342126Y0346752D02*
D03*
X0342126Y0358858D02*
D03*
X0342126Y0343602D02*
D03*
X0342126Y0374114D02*
D03*
X0342126Y0377263D02*
D03*
X0335039Y0377263D02*
D03*
X0335039Y0374114D02*
D03*
X0335039Y0346752D02*
D03*
X0335039Y0343602D02*
D03*
X0335039Y0362007D02*
D03*
X0335039Y0358858D02*
D03*
D197*
X0344094Y0418602D02*
D03*
X0340157Y0418602D02*
D03*
X0338582Y0415059D02*
D03*
X0334645Y0415059D02*
D03*
X0346456Y0397736D02*
D03*
X0342519Y0397736D02*
D03*
X0375109Y0340034D02*
D03*
X0371172Y0340034D02*
D03*
X0366913Y0340034D02*
D03*
X0362976Y0340034D02*
D03*
X0323591Y0372501D02*
D03*
X0319654Y0372501D02*
D03*
X0323591Y0368778D02*
D03*
X0319654Y0368778D02*
D03*
X0321175Y0405610D02*
D03*
X0325112Y0405610D02*
D03*
X0409809Y0416543D02*
D03*
X0374061Y0416304D02*
D03*
X0388976Y0340034D02*
D03*
X0356692Y0394192D02*
D03*
X0356692Y0389862D02*
D03*
X0353262Y0385643D02*
D03*
X0341985Y0385698D02*
D03*
X0362401Y0356038D02*
D03*
X0353612Y0356038D02*
D03*
X0349675Y0347553D02*
D03*
X0414592Y0317687D02*
D03*
X0388976Y0335531D02*
D03*
X0348031Y0418602D02*
D03*
X0334645Y0385607D02*
D03*
X0312992Y0387005D02*
D03*
X0298927Y0387005D02*
D03*
X0312992Y0382775D02*
D03*
X0298927Y0382775D02*
D03*
X0338630Y0335867D02*
D03*
X0294094Y0333956D02*
D03*
X0360629Y0394192D02*
D03*
X0349675Y0356038D02*
D03*
X0358464Y0356038D02*
D03*
X0358464Y0351550D02*
D03*
X0362401Y0351550D02*
D03*
X0416535Y0331594D02*
D03*
X0412598Y0331594D02*
D03*
X0410655Y0317687D02*
D03*
X0325210Y0388511D02*
D03*
X0321273Y0388511D02*
D03*
X0294989Y0387005D02*
D03*
X0338582Y0385607D02*
D03*
X0353612Y0347553D02*
D03*
X0345922Y0385698D02*
D03*
X0349325Y0385643D02*
D03*
X0309055Y0382775D02*
D03*
X0334693Y0335867D02*
D03*
X0298031Y0333956D02*
D03*
X0370124Y0416304D02*
D03*
X0344094Y0418602D02*
D03*
X0317322Y0393578D02*
D03*
X0313385Y0393578D02*
D03*
X0309055Y0387005D02*
D03*
X0392913Y0335531D02*
D03*
X0392913Y0340034D02*
D03*
X0360629Y0389862D02*
D03*
X0405872Y0416543D02*
D03*
X0396556Y0416543D02*
D03*
X0400493Y0416543D02*
D03*
X0302864Y0382775D02*
D03*
X0294094Y0337893D02*
D03*
X0298031Y0337893D02*
D03*
X0294094Y0350295D02*
D03*
X0298031Y0350295D02*
D03*
X0294094Y0354429D02*
D03*
X0298031Y0354429D02*
D03*
X0294094Y0362697D02*
D03*
X0298031Y0362697D02*
D03*
X0294094Y0358563D02*
D03*
X0298031Y0358563D02*
D03*
X0294094Y0366830D02*
D03*
X0298031Y0366830D02*
D03*
X0294094Y0346161D02*
D03*
X0298031Y0346161D02*
D03*
X0294094Y0342027D02*
D03*
X0298031Y0342027D02*
D03*
D201*
X0349084Y0369389D02*
D03*
X0349084Y0373622D02*
D03*
X0394488Y0285531D02*
D03*
X0389763Y0285531D02*
D03*
X0385039Y0285531D02*
D03*
X0380315Y0285531D02*
D03*
X0310236Y0413878D02*
D03*
X0314370Y0413878D02*
D03*
X0405550Y0321657D02*
D03*
X0405550Y0325594D02*
D03*
X0294621Y0412696D02*
D03*
X0294621Y0408760D02*
D03*
X0349084Y0377559D02*
D03*
X0349084Y0365452D02*
D03*
X0401378Y0321161D02*
D03*
X0401378Y0325098D02*
D03*
X0376605Y0293385D02*
D03*
X0376605Y0297322D02*
D03*
X0380315Y0297322D02*
D03*
X0380315Y0293385D02*
D03*
X0380315Y0307972D02*
D03*
X0380315Y0304035D02*
D03*
X0380315Y0289468D02*
D03*
X0385039Y0289468D02*
D03*
X0394488Y0289468D02*
D03*
X0389763Y0289468D02*
D03*
X0295656Y0322662D02*
D03*
X0295656Y0326599D02*
D03*
X0345866Y0325689D02*
D03*
X0345866Y0321752D02*
D03*
X0345866Y0315452D02*
D03*
X0345866Y0311515D02*
D03*
X0317913Y0325689D02*
D03*
X0317913Y0321752D02*
D03*
X0341338Y0300295D02*
D03*
X0341338Y0304232D02*
D03*
X0312008Y0300295D02*
D03*
X0312008Y0304232D02*
D03*
X0299212Y0300295D02*
D03*
X0299212Y0304232D02*
D03*
X0316104Y0293385D02*
D03*
X0316104Y0289448D02*
D03*
X0294488Y0293011D02*
D03*
X0294488Y0296948D02*
D03*
X0294685Y0289862D02*
D03*
X0294685Y0285925D02*
D03*
X0294621Y0401170D02*
D03*
X0294621Y0405107D02*
D03*
X0310236Y0417815D02*
D03*
X0314370Y0417815D02*
D03*
X0318110Y0304232D02*
D03*
X0318110Y0300295D02*
D03*
X0322440Y0304232D02*
D03*
X0322440Y0300295D02*
D03*
X0330905Y0304232D02*
D03*
X0330905Y0300295D02*
D03*
X0335071Y0289448D02*
D03*
X0335071Y0293385D02*
D03*
X0373818Y0321752D02*
D03*
X0373818Y0325689D02*
D03*
X0303543Y0304232D02*
D03*
X0303543Y0300295D02*
D03*
X0353914Y0289448D02*
D03*
X0353914Y0293385D02*
D03*
X0349803Y0304232D02*
D03*
X0349803Y0300295D02*
D03*
X0337008Y0304232D02*
D03*
X0337008Y0300295D02*
D03*
X0372894Y0289448D02*
D03*
X0372894Y0293385D02*
D03*
X0368701Y0304232D02*
D03*
X0368701Y0300295D02*
D03*
X0360236Y0304232D02*
D03*
X0360236Y0300295D02*
D03*
X0355905Y0304232D02*
D03*
X0355905Y0300295D02*
D03*
X0373682Y0307972D02*
D03*
X0373682Y0304035D02*
D03*
D203*
X0329714Y0410669D02*
D03*
X0321974Y0401194D02*
D03*
X0303641Y0377824D02*
D03*
D207*
X0377362Y0409252D02*
D03*
X0371062Y0409252D02*
D03*
X0340748Y0410630D02*
D03*
X0334448Y0410630D02*
D03*
X0340748Y0406004D02*
D03*
X0334448Y0406004D02*
D03*
D203*
X0312893Y0374083D02*
D03*
X0321974Y0393714D02*
D03*
X0331226Y0397454D02*
D03*
X0329714Y0418149D02*
D03*
X0320462Y0414409D02*
D03*
X0303641Y0370343D02*
D03*
D213*
X0368070Y0334547D02*
D03*
X0382283Y0334547D02*
D03*
X0352283Y0334547D02*
D03*
D214*
X0405275Y0412106D02*
D03*
X0385275Y0408106D02*
D03*
X0385275Y0416106D02*
D03*
D15*
X0294488Y0417815D02*
D03*
D232*
X0338188Y0400807D02*
D03*
X0338188Y0394586D02*
D03*
D233*
X0367618Y0330019D02*
D03*
X0367618Y0322933D02*
D03*
X0357578Y0322933D02*
D03*
X0357578Y0330019D02*
D03*
X0339665Y0322933D02*
D03*
X0311712Y0322933D02*
D03*
X0329626Y0318996D02*
D03*
X0384744Y0293799D02*
D03*
X0384744Y0300885D02*
D03*
X0394783Y0300885D02*
D03*
X0394783Y0293799D02*
D03*
X0301673Y0311909D02*
D03*
X0301673Y0318996D02*
D03*
X0311712Y0318996D02*
D03*
X0311712Y0311909D02*
D03*
X0311712Y0330019D02*
D03*
X0301673Y0322933D02*
D03*
X0301673Y0330019D02*
D03*
X0329626Y0311909D02*
D03*
X0339665Y0318996D02*
D03*
X0339665Y0311909D02*
D03*
X0339665Y0330019D02*
D03*
X0329626Y0322933D02*
D03*
X0329626Y0330019D02*
D03*
X0330610Y0288090D02*
D03*
X0330610Y0295177D02*
D03*
X0320570Y0295177D02*
D03*
X0320570Y0288090D02*
D03*
X0311712Y0288090D02*
D03*
X0311712Y0295177D02*
D03*
X0301673Y0295177D02*
D03*
X0301673Y0288090D02*
D03*
X0349508Y0288090D02*
D03*
X0349508Y0295177D02*
D03*
X0339468Y0295177D02*
D03*
X0339468Y0288090D02*
D03*
X0368405Y0288090D02*
D03*
X0368405Y0295177D02*
D03*
X0358366Y0295177D02*
D03*
X0358366Y0288090D02*
D03*
X0367618Y0311909D02*
D03*
X0367618Y0318996D02*
D03*
X0357578Y0318996D02*
D03*
X0357578Y0311909D02*
D03*
X0395177Y0311909D02*
D03*
X0395177Y0318996D02*
D03*
X0385137Y0318996D02*
D03*
X0385137Y0311909D02*
D03*
X0385137Y0330019D02*
D03*
X0385137Y0322933D02*
D03*
X0395177Y0322933D02*
D03*
X0395177Y0330019D02*
D03*
D234*
X0361023Y0322933D02*
D03*
X0364173Y0322933D02*
D03*
X0364173Y0330019D02*
D03*
X0361023Y0330019D02*
D03*
X0336220Y0322933D02*
D03*
X0308267Y0322933D02*
D03*
X0333070Y0318996D02*
D03*
X0391338Y0300885D02*
D03*
X0388189Y0300885D02*
D03*
X0388189Y0293799D02*
D03*
X0391338Y0293799D02*
D03*
X0308267Y0318996D02*
D03*
X0305118Y0318996D02*
D03*
X0305118Y0311909D02*
D03*
X0308267Y0311909D02*
D03*
X0305118Y0322933D02*
D03*
X0308267Y0330019D02*
D03*
X0305118Y0330019D02*
D03*
X0336220Y0318996D02*
D03*
X0333070Y0311909D02*
D03*
X0336220Y0311909D02*
D03*
X0333071Y0322933D02*
D03*
X0336220Y0330019D02*
D03*
X0333071Y0330019D02*
D03*
X0327165Y0288090D02*
D03*
X0324015Y0288090D02*
D03*
X0324015Y0295177D02*
D03*
X0327165Y0295177D02*
D03*
X0308268Y0288090D02*
D03*
X0305118Y0288090D02*
D03*
X0305118Y0295177D02*
D03*
X0308268Y0295177D02*
D03*
X0346063Y0288090D02*
D03*
X0342913Y0288090D02*
D03*
X0342913Y0295177D02*
D03*
X0346063Y0295177D02*
D03*
X0364960Y0288090D02*
D03*
X0361811Y0288090D02*
D03*
X0361811Y0295177D02*
D03*
X0364960Y0295177D02*
D03*
X0364173Y0311909D02*
D03*
X0361023Y0311909D02*
D03*
X0361023Y0318996D02*
D03*
X0364173Y0318996D02*
D03*
X0391732Y0311909D02*
D03*
X0388582Y0311909D02*
D03*
X0388582Y0318996D02*
D03*
X0391732Y0318996D02*
D03*
X0388582Y0330019D02*
D03*
X0391732Y0330019D02*
D03*
X0391732Y0322933D02*
D03*
X0388582Y0322933D02*
D03*
D235*
X0399960Y0407283D02*
D03*
X0399960Y0412273D02*
D03*
X0393740Y0412273D02*
D03*
X0393740Y0407283D02*
D03*
D236*
X0412598Y0400393D02*
D03*
X0379921Y0400393D02*
D03*
X0412598Y0346260D02*
D03*
X0379921Y0346260D02*
D03*
D237*
X0402362Y0382362D02*
D03*
X0402362Y0391023D02*
D03*
X0402362Y0386693D02*
D03*
X0402362Y0378031D02*
D03*
X0402362Y0373700D02*
D03*
X0402362Y0369370D02*
D03*
X0402362Y0365039D02*
D03*
X0402362Y0360708D02*
D03*
D238*
X0420669Y0301752D02*
D03*
X0407465Y0301752D02*
D03*
X0413188Y0293720D02*
D03*
X0399985Y0293720D02*
D03*
X0416929Y0311004D02*
D03*
X0403725Y0311004D02*
D03*
X0403725Y0284468D02*
D03*
X0315551Y0399389D02*
D03*
X0311811Y0408641D02*
D03*
X0416929Y0284468D02*
D03*
D239*
X0414592Y0327525D02*
D03*
X0410655Y0327525D02*
D03*
X0414592Y0321521D02*
D03*
X0412624Y0321521D02*
D03*
X0412624Y0327525D02*
D03*
X0410655Y0321521D02*
D03*
D240*
X0324027Y0384173D02*
D03*
X0318909Y0384173D02*
D03*
X0321468Y0384173D02*
D03*
X0324027Y0376692D02*
D03*
X0318909Y0376692D02*
D03*
D241*
X0327244Y0364665D02*
D03*
X0304252Y0362106D02*
D03*
X0304252Y0364665D02*
D03*
X0327244Y0341634D02*
D03*
X0304252Y0339075D02*
D03*
X0304252Y0336515D02*
D03*
X0304252Y0341634D02*
D03*
X0304252Y0344193D02*
D03*
X0304252Y0346752D02*
D03*
X0304252Y0349311D02*
D03*
X0304252Y0351870D02*
D03*
X0304252Y0354429D02*
D03*
X0304252Y0356988D02*
D03*
X0304252Y0359547D02*
D03*
X0327244Y0336515D02*
D03*
X0327244Y0339075D02*
D03*
X0327244Y0344193D02*
D03*
X0327244Y0346752D02*
D03*
X0327244Y0349311D02*
D03*
X0327244Y0351870D02*
D03*
X0327244Y0354429D02*
D03*
X0327244Y0356988D02*
D03*
X0327244Y0359547D02*
D03*
X0327244Y0362106D02*
D03*
D242*
X0301181Y0402252D02*
D03*
X0301181Y0413670D02*
D03*
D243*
X0359271Y0404387D02*
D03*
X0346279Y0404387D02*
D03*
X0295194Y0393187D02*
D03*
X0308186Y0393187D02*
D03*
D244*
X0358046Y0378982D02*
D03*
X0358046Y0364415D02*
D03*
D245*
X0409622Y0323539D02*
D03*
X0409622Y0325507D02*
D03*
X0415626Y0325507D02*
D03*
X0415626Y0323539D02*
D03*
D246*
X0344635Y0391505D02*
D03*
X0350540Y0391505D02*
D03*
D238*
X0413188Y0301752D02*
D03*
X0399985Y0301752D02*
D03*
X0407465Y0293720D02*
D03*
X0308070Y0399389D02*
D03*
X0420669Y0293720D02*
D03*
D247*
X0347438Y0340846D02*
D03*
X0354131Y0340846D02*
D03*
D248*
X0363799Y0414383D02*
D03*
X0352382Y0414383D02*
D03*
D249*
X0294882Y0380019D02*
D03*
X0294882Y0373720D02*
D03*
X0502510Y0391804D02*
G01*
G75*
D114*
X0471309Y0367395D02*
D03*
X0471014Y0381371D02*
D03*
X0472195Y0386391D02*
D03*
X0475640Y0384324D02*
D03*
X0166142Y0247539D02*
%LPD*%
G01*
G36*
G01*
X0183307Y0236909D02*
X0183307Y0239980D01*
G75*
G02*
X0183583Y0240256I0000276J0000000D01*
G01*
X0185788Y0240256D01*
G75*
G02*
X0186063Y0239980I0000000J-000276D01*
G01*
X0186063Y0236909D01*
G75*
G02*
X0185788Y0236633I-000276J0000000D01*
G01*
X0183583Y0236633D01*
G75*
G02*
X0183307Y0236909I0000000J0000276D01*
G01*
G37*
G36*
G01*
X0189607Y0236909D02*
X0189607Y0239980D01*
G75*
G02*
X0189882Y0240256I0000276J0000000D01*
G01*
X0192087Y0240256D01*
G75*
G02*
X0192362Y0239980I0000000J-000276D01*
G01*
X0192362Y0236909D01*
G75*
G02*
X0192087Y0236633I-000276J0000000D01*
G01*
X0189882Y0236633D01*
G75*
G02*
X0189607Y0236909I0000000J0000276D01*
G01*
G37*
G36*
G01*
X0204173Y0239980D02*
X0204173Y0236909D01*
G75*
G02*
X0203898Y0236633I-000276J0000000D01*
G01*
X0201693Y0236633D01*
G75*
G02*
X0201418Y0236909I0000000J0000276D01*
G01*
X0201418Y0239980D01*
G75*
G02*
X0201693Y0240256I0000276J0000000D01*
G01*
X0203898Y0240256D01*
G75*
G02*
X0204173Y0239980I0000000J-000276D01*
G01*
G37*
G36*
G01*
X0197874Y0239980D02*
X0197874Y0236909D01*
G75*
G02*
X0197599Y0236633I-000276J0000000D01*
G01*
X0195394Y0236633D01*
G75*
G02*
X0195118Y0236909I0000000J0000276D01*
G01*
X0195118Y0239980D01*
G75*
G02*
X0195394Y0240256I0000276J0000000D01*
G01*
X0197599Y0240256D01*
G75*
G02*
X0197874Y0239980I0000000J-000276D01*
G01*
G37*
G36*
G01*
X0201319Y0220728D02*
X0197185Y0220728D01*
G75*
G02*
X0196792Y0221122I0000000J0000394D01*
G01*
X0196792Y0224271D01*
G75*
G02*
X0197185Y0224665I0000394J0000000D01*
G01*
X0201319Y0224665D01*
G75*
G02*
X0201713Y0224271I0000000J-000394D01*
G01*
X0201713Y0221122D01*
G75*
G02*
X0201319Y0220728I-000394J0000000D01*
G01*
G37*
G36*
G01*
X0201319Y0228602D02*
X0197185Y0228602D01*
G75*
G02*
X0196792Y0228996I0000000J0000394D01*
G01*
X0196792Y0232145D01*
G75*
G02*
X0197185Y0232539I0000394J0000000D01*
G01*
X0201319Y0232539D01*
G75*
G02*
X0201713Y0232145I0000000J-000394D01*
G01*
X0201713Y0228996D01*
G75*
G02*
X0201319Y0228602I-000394J0000000D01*
G01*
G37*
G36*
G01*
X0183012Y0217578D02*
X0187146Y0217578D01*
G75*
G02*
X0187540Y0217185I0000000J-000394D01*
G01*
X0187540Y0214035D01*
G75*
G02*
X0187146Y0213641I-000394J0000000D01*
G01*
X0183012Y0213641D01*
G75*
G02*
X0182618Y0214035I0000000J0000394D01*
G01*
X0182618Y0217185D01*
G75*
G02*
X0183012Y0217578I0000394J0000000D01*
G01*
G37*
G36*
G01*
X0183012Y0209704D02*
X0187146Y0209704D01*
G75*
G02*
X0187540Y0209311I0000000J-000394D01*
G01*
X0187540Y0206161D01*
G75*
G02*
X0187146Y0205767I-000394J0000000D01*
G01*
X0183012Y0205767D01*
G75*
G02*
X0182618Y0206161I0000000J0000394D01*
G01*
X0182618Y0209311D01*
G75*
G02*
X0183012Y0209704I0000394J0000000D01*
G01*
G37*
G36*
G01*
X0180807Y0245689D02*
X0180807Y0243011D01*
G75*
G02*
X0180473Y0242677I-000335J0000000D01*
G01*
X0177796Y0242677D01*
G75*
G02*
X0177461Y0243011I0000000J0000335D01*
G01*
X0177461Y0245689D01*
G75*
G02*
X0177796Y0246023I0000335J0000000D01*
G01*
X0180473Y0246023D01*
G75*
G02*
X0180807Y0245689I0000000J-000335D01*
G01*
G37*
G36*
G01*
X0174587Y0245689D02*
X0174587Y0243011D01*
G75*
G02*
X0174252Y0242677I-000335J0000000D01*
G01*
X0171575Y0242677D01*
G75*
G02*
X0171240Y0243011I0000000J0000335D01*
G01*
X0171240Y0245689D01*
G75*
G02*
X0171575Y0246023I0000335J0000000D01*
G01*
X0174252Y0246023D01*
G75*
G02*
X0174587Y0245689I0000000J-000335D01*
G01*
G37*
G36*
G01*
X0178740Y0201594D02*
X0178740Y0198917D01*
G75*
G02*
X0178406Y0198582I-000335J0000000D01*
G01*
X0175729Y0198582D01*
G75*
G02*
X0175394Y0198917I0000000J0000335D01*
G01*
X0175394Y0201594D01*
G75*
G02*
X0175729Y0201929I0000335J0000000D01*
G01*
X0178406Y0201929D01*
G75*
G02*
X0178740Y0201594I0000000J-000335D01*
G01*
G37*
G36*
G01*
X0172520Y0201594D02*
X0172520Y0198917D01*
G75*
G02*
X0172185Y0198582I-000335J0000000D01*
G01*
X0169508Y0198582D01*
G75*
G02*
X0169173Y0198917I0000000J0000335D01*
G01*
X0169173Y0201594D01*
G75*
G02*
X0169508Y0201929I0000335J0000000D01*
G01*
X0172185Y0201929D01*
G75*
G02*
X0172520Y0201594I0000000J-000335D01*
G01*
G37*
G36*
G01*
X0194233Y0220728D02*
X0190099Y0220728D01*
G75*
G02*
X0189705Y0221122I0000000J0000394D01*
G01*
X0189705Y0224271D01*
G75*
G02*
X0190099Y0224665I0000394J0000000D01*
G01*
X0194233Y0224665D01*
G75*
G02*
X0194626Y0224271I0000000J-000394D01*
G01*
X0194626Y0221122D01*
G75*
G02*
X0194233Y0220728I-000394J0000000D01*
G01*
G37*
G36*
G01*
X0194233Y0228602D02*
X0190099Y0228602D01*
G75*
G02*
X0189705Y0228996I0000000J0000394D01*
G01*
X0189705Y0232145D01*
G75*
G02*
X0190099Y0232539I0000394J0000000D01*
G01*
X0194233Y0232539D01*
G75*
G02*
X0194626Y0232145I0000000J-000394D01*
G01*
X0194626Y0228996D01*
G75*
G02*
X0194233Y0228602I-000394J0000000D01*
G01*
G37*
G36*
G01*
X0190099Y0217578D02*
X0194233Y0217578D01*
G75*
G02*
X0194626Y0217185I0000000J-000394D01*
G01*
X0194626Y0214035D01*
G75*
G02*
X0194233Y0213641I-000394J0000000D01*
G01*
X0190099Y0213641D01*
G75*
G02*
X0189705Y0214035I0000000J0000394D01*
G01*
X0189705Y0217185D01*
G75*
G02*
X0190099Y0217578I0000394J0000000D01*
G01*
G37*
G36*
G01*
X0190099Y0209704D02*
X0194233Y0209704D01*
G75*
G02*
X0194626Y0209311I0000000J-000394D01*
G01*
X0194626Y0206161D01*
G75*
G02*
X0194233Y0205767I-000394J0000000D01*
G01*
X0190099Y0205767D01*
G75*
G02*
X0189705Y0206161I0000000J0000394D01*
G01*
X0189705Y0209311D01*
G75*
G02*
X0190099Y0209704I0000394J0000000D01*
G01*
G37*
G36*
G01*
X0180059Y0220728D02*
X0175925Y0220728D01*
G75*
G02*
X0175532Y0221122I0000000J0000394D01*
G01*
X0175532Y0224271D01*
G75*
G02*
X0175925Y0224665I0000394J0000000D01*
G01*
X0180059Y0224665D01*
G75*
G02*
X0180453Y0224271I0000000J-000394D01*
G01*
X0180453Y0221122D01*
G75*
G02*
X0180059Y0220728I-000394J0000000D01*
G01*
G37*
G36*
G01*
X0180059Y0228602D02*
X0175925Y0228602D01*
G75*
G02*
X0175532Y0228996I0000000J0000394D01*
G01*
X0175532Y0232145D01*
G75*
G02*
X0175925Y0232539I0000394J0000000D01*
G01*
X0180059Y0232539D01*
G75*
G02*
X0180453Y0232145I0000000J-000394D01*
G01*
X0180453Y0228996D01*
G75*
G02*
X0180059Y0228602I-000394J0000000D01*
G01*
G37*
G36*
G01*
X0168839Y0217578D02*
X0172973Y0217578D01*
G75*
G02*
X0173366Y0217185I0000000J-000394D01*
G01*
X0173366Y0214035D01*
G75*
G02*
X0172973Y0213641I-000394J0000000D01*
G01*
X0168839Y0213641D01*
G75*
G02*
X0168445Y0214035I0000000J0000394D01*
G01*
X0168445Y0217185D01*
G75*
G02*
X0168839Y0217578I0000394J0000000D01*
G01*
G37*
G36*
G01*
X0168839Y0209704D02*
X0172973Y0209704D01*
G75*
G02*
X0173366Y0209311I0000000J-000394D01*
G01*
X0173366Y0206161D01*
G75*
G02*
X0172973Y0205767I-000394J0000000D01*
G01*
X0168839Y0205767D01*
G75*
G02*
X0168445Y0206161I0000000J0000394D01*
G01*
X0168445Y0209311D01*
G75*
G02*
X0168839Y0209704I0000394J0000000D01*
G01*
G37*
G36*
G01*
X0180807Y0239783D02*
X0180807Y0237106D01*
G75*
G02*
X0180473Y0236771I-000335J0000000D01*
G01*
X0177796Y0236771D01*
G75*
G02*
X0177461Y0237106I0000000J0000335D01*
G01*
X0177461Y0239783D01*
G75*
G02*
X0177796Y0240118I0000335J0000000D01*
G01*
X0180473Y0240118D01*
G75*
G02*
X0180807Y0239783I0000000J-000335D01*
G01*
G37*
G36*
G01*
X0174587Y0239783D02*
X0174587Y0237106D01*
G75*
G02*
X0174252Y0236771I-000335J0000000D01*
G01*
X0171575Y0236771D01*
G75*
G02*
X0171240Y0237106I0000000J0000335D01*
G01*
X0171240Y0239783D01*
G75*
G02*
X0171575Y0240118I0000335J0000000D01*
G01*
X0174252Y0240118D01*
G75*
G02*
X0174587Y0239783I0000000J-000335D01*
G01*
G37*
G36*
G01*
X0172973Y0220728D02*
X0168839Y0220728D01*
G75*
G02*
X0168445Y0221122I0000000J0000394D01*
G01*
X0168445Y0224271D01*
G75*
G02*
X0168839Y0224665I0000394J0000000D01*
G01*
X0172973Y0224665D01*
G75*
G02*
X0173366Y0224271I0000000J-000394D01*
G01*
X0173366Y0221122D01*
G75*
G02*
X0172973Y0220728I-000394J0000000D01*
G01*
G37*
G36*
G01*
X0172973Y0228602D02*
X0168839Y0228602D01*
G75*
G02*
X0168445Y0228996I0000000J0000394D01*
G01*
X0168445Y0232145D01*
G75*
G02*
X0168839Y0232539I0000394J0000000D01*
G01*
X0172973Y0232539D01*
G75*
G02*
X0173366Y0232145I0000000J-000394D01*
G01*
X0173366Y0228996D01*
G75*
G02*
X0172973Y0228602I-000394J0000000D01*
G01*
G37*
G36*
G01*
X0175925Y0217578D02*
X0180059Y0217578D01*
G75*
G02*
X0180453Y0217185I0000000J-000394D01*
G01*
X0180453Y0214035D01*
G75*
G02*
X0180059Y0213641I-000394J0000000D01*
G01*
X0175925Y0213641D01*
G75*
G02*
X0175532Y0214035I0000000J0000394D01*
G01*
X0175532Y0217185D01*
G75*
G02*
X0175925Y0217578I0000394J0000000D01*
G01*
G37*
G36*
G01*
X0175925Y0209704D02*
X0180059Y0209704D01*
G75*
G02*
X0180453Y0209311I0000000J-000394D01*
G01*
X0180453Y0206161D01*
G75*
G02*
X0180059Y0205767I-000394J0000000D01*
G01*
X0175925Y0205767D01*
G75*
G02*
X0175532Y0206161I0000000J0000394D01*
G01*
X0175532Y0209311D01*
G75*
G02*
X0175925Y0209704I0000394J0000000D01*
G01*
G37*
G36*
G01*
X0197185Y0217578D02*
X0201319Y0217578D01*
G75*
G02*
X0201713Y0217185I0000000J-000394D01*
G01*
X0201713Y0214035D01*
G75*
G02*
X0201319Y0213641I-000394J0000000D01*
G01*
X0197185Y0213641D01*
G75*
G02*
X0196792Y0214035I0000000J0000394D01*
G01*
X0196792Y0217185D01*
G75*
G02*
X0197185Y0217578I0000394J0000000D01*
G01*
G37*
G36*
G01*
X0197185Y0209704D02*
X0201319Y0209704D01*
G75*
G02*
X0201713Y0209311I0000000J-000394D01*
G01*
X0201713Y0206161D01*
G75*
G02*
X0201319Y0205767I-000394J0000000D01*
G01*
X0197185Y0205767D01*
G75*
G02*
X0196792Y0206161I0000000J0000394D01*
G01*
X0196792Y0209311D01*
G75*
G02*
X0197185Y0209704I0000394J0000000D01*
G01*
G37*
G36*
G01*
X0187146Y0220728D02*
X0183012Y0220728D01*
G75*
G02*
X0182618Y0221122I0000000J0000394D01*
G01*
X0182618Y0224271D01*
G75*
G02*
X0183012Y0224665I0000394J0000000D01*
G01*
X0187146Y0224665D01*
G75*
G02*
X0187540Y0224271I0000000J-000394D01*
G01*
X0187540Y0221122D01*
G75*
G02*
X0187146Y0220728I-000394J0000000D01*
G01*
G37*
G36*
G01*
X0187146Y0228602D02*
X0183012Y0228602D01*
G75*
G02*
X0182618Y0228996I0000000J0000394D01*
G01*
X0182618Y0232145D01*
G75*
G02*
X0183012Y0232539I0000394J0000000D01*
G01*
X0187146Y0232539D01*
G75*
G02*
X0187540Y0232145I0000000J-000394D01*
G01*
X0187540Y0228996D01*
G75*
G02*
X0187146Y0228602I-000394J0000000D01*
G01*
G37*
M02*
