G75*
G70*
%OFA0B0*%
%FSLAX25Y25*%
%IPPOS*%
%LPD*%
%AMOC8*
5,1,8,0,0,1.08239X$1,22.5*
%
%ADD10C,0.00787*%
%ADD102C,0.00800*%
%ADD105R,0.34449X0.00984*%
%ADD106R,0.24803X0.00984*%
%ADD11R,0.00787X0.17323*%
%ADD114C,0.11024*%
%ADD12R,0.04724X0.00787*%
%ADD13R,0.26772X0.00787*%
%ADD14R,0.15748X0.00787*%
%ADD15R,0.07087X0.00787*%
%ADD150C,0.05118*%
%ADD16R,0.00787X0.39370*%
%ADD17C,0.02362*%
%ADD18C,0.03937*%
%ADD19R,0.59449X0.00984*%
%ADD193O,0.00787X0.40158*%
%ADD20R,0.56201X0.00984*%
%ADD21R,0.00984X0.20374*%
%ADD22R,0.00984X0.24350*%
%ADD23R,0.00984X0.04390*%
%ADD237R,0.07874X0.07500*%
%ADD238O,0.07874X0.07500*%
%ADD24C,0.02756*%
%ADD25C,0.11811*%
%ADD27R,0.03858X0.00984*%
%ADD30R,0.04331X0.00984*%
%ADD31R,0.00984X1.08661*%
%ADD32R,0.03740X0.00984*%
%ADD33C,0.05906*%
%ADD34O,0.66929X0.00787*%
%ADD35O,0.60630X0.00787*%
%ADD36O,0.00787X0.40157*%
%ADD37O,0.00787X0.01181*%
%ADD38O,0.00787X0.10236*%
%ADD39O,0.00787X0.05906*%
%ADD40O,0.00787X0.12992*%
%ADD41O,0.00787X0.03937*%
%ADD42O,0.00787X0.18898*%
%ADD43O,0.00787X0.04823*%
%ADD44O,0.36614X0.00787*%
%ADD45R,0.00787X0.08268*%
%ADD46R,0.36220X0.00787*%
%ADD47R,0.00787X0.48819*%
%ADD48R,0.00787X0.06299*%
%ADD49R,0.17717X0.00787*%
%ADD50R,0.00787X0.07874*%
%ADD51R,0.05512X0.00787*%
%ADD52R,0.00787X0.19291*%
%ADD53R,0.19685X0.00787*%
%ADD54R,0.00787X0.42126*%
%ADD55R,0.00787X0.09055*%
%ADD56C,0.10236*%
%ADD57C,0.14567*%
%ADD58C,0.08661*%
%ADD59C,0.06693*%
%ADD74C,0.06000*%
%ADD76C,0.07874*%
%ADD79O,0.06693X0.06693*%
%ADD80R,0.06693X0.06693*%
%ADD81O,0.04331X0.09449*%
%ADD82C,0.04331*%
%ADD83R,0.04331X0.04331*%
%ADD84C,0.03150*%
%ADD85C,0.01575*%
%ADD86C,0.01000*%
%ADD87C,0.01969*%
%ADD88C,0.01181*%
%ADD92C,0.00984*%
X0000000Y0000000D02*
%LPD*%
G01*
D11*
X0440945Y0373917D03*
D12*
X0442913Y0365650D03*
D13*
X0460236Y0404232D03*
X0468898Y0365650D03*
D14*
X0487008Y0404232D03*
D15*
X0491339Y0365650D03*
D16*
X0494488Y0384941D03*
D17*
X0444882Y0403445D03*
D18*
X0476378Y0402657D03*
X0448031Y0367224D03*
X0452756Y0367224D03*
X0485039Y0367224D03*
D17*
X0441732Y0403445D03*
X0441732Y0400295D03*
X0441732Y0397146D03*
X0441732Y0393996D03*
X0441732Y0390846D03*
X0441732Y0387697D03*
X0441732Y0384547D03*
X0393344Y0118156D03*
X0393344Y0122880D03*
X0393344Y0113431D03*
X0393344Y0108707D03*
D19*
X0421789Y0144731D03*
D20*
X0423413Y0107526D03*
D21*
X0392557Y0135036D03*
D23*
X0451021Y0143028D03*
D22*
X0451021Y0119209D03*
D17*
X0450135Y0134140D03*
X0450135Y0138077D03*
D24*
X0073602Y0153760D03*
X0085413Y0153760D03*
X0081476Y0153760D03*
X0077539Y0153760D03*
D105*
X0105197Y0152283D03*
D106*
X0079705Y0259961D03*
D27*
X0103169Y0259961D03*
D30*
X0120256Y0259961D03*
D31*
X0067795Y0206122D03*
D32*
X0069173Y0152283D03*
D30*
X0120256Y0259961D03*
D31*
X0121929Y0206122D03*
D24*
X0111594Y0258450D03*
X0107657Y0258450D03*
X0094681Y0258450D03*
X0098681Y0258450D03*
X0115531Y0258450D03*
D33*
X0368567Y0245323D03*
X0368567Y0220126D03*
X0368567Y0212646D03*
X0368567Y0195717D03*
D17*
X0370339Y0186268D03*
X0370339Y0182331D03*
D34*
X0338055Y0168552D03*
D38*
X0371126Y0203985D03*
D36*
X0304984Y0196701D03*
D42*
X0371126Y0232922D03*
D41*
X0371126Y0190205D03*
D40*
X0304984Y0230166D03*
D33*
X0368567Y0171111D03*
D37*
X0371126Y0249457D03*
D35*
X0341205Y0249654D03*
D39*
X0371126Y0177213D03*
D37*
X0304984Y0168748D03*
D33*
X0307543Y0247095D03*
X0307543Y0239811D03*
X0307543Y0220323D03*
X0307543Y0172882D03*
D17*
X0125197Y0134941D03*
D44*
X0108071Y0137303D03*
D43*
X0090157Y0127165D03*
D17*
X0125197Y0131201D03*
D44*
X0108071Y0125098D03*
D17*
X0125197Y0127461D03*
X0090945Y0131398D03*
X0090945Y0134941D03*
X0319734Y0378627D03*
X0319734Y0375478D03*
X0319734Y0372328D03*
X0319734Y0369179D03*
X0319734Y0366029D03*
X0319734Y0362879D03*
X0319734Y0359730D03*
X0319734Y0356580D03*
X0319734Y0353431D03*
X0319734Y0350281D03*
X0319734Y0347131D03*
X0319734Y0343982D03*
X0319734Y0340832D03*
X0319734Y0337683D03*
X0319734Y0334533D03*
X0319734Y0331383D03*
X0319734Y0328234D03*
X0319734Y0325084D03*
X0319734Y0321935D03*
X0319734Y0318785D03*
X0319734Y0315635D03*
X0319734Y0312486D03*
X0319734Y0309336D03*
X0319734Y0306187D03*
X0319734Y0303037D03*
X0319734Y0299887D03*
X0319734Y0296738D03*
X0319734Y0293588D03*
X0319734Y0290438D03*
X0319734Y0287289D03*
X0319734Y0284139D03*
X0319734Y0280990D03*
X0319734Y0277840D03*
X0319734Y0274690D03*
X0319734Y0271541D03*
X0319734Y0268391D03*
X0319734Y0245163D03*
X0319734Y0242013D03*
D48*
X0320522Y0383746D03*
D49*
X0239616Y0389651D03*
D50*
X0320522Y0236108D03*
D53*
X0167372Y0389651D03*
D47*
X0154774Y0273509D03*
D46*
X0199262Y0389651D03*
D51*
X0161860Y0232564D03*
D45*
X0154774Y0333549D03*
D54*
X0154774Y0365832D03*
D55*
X0154774Y0236698D03*
D52*
X0320522Y0256777D03*
D17*
X0319734Y0388864D03*
X0316585Y0388864D03*
X0313435Y0388864D03*
X0310285Y0388864D03*
X0307136Y0388864D03*
X0303986Y0388864D03*
X0300837Y0388864D03*
X0297687Y0388864D03*
X0294537Y0388864D03*
X0291388Y0388864D03*
X0288238Y0388864D03*
X0285089Y0388864D03*
X0281939Y0388864D03*
X0278789Y0388864D03*
X0275640Y0388864D03*
X0272490Y0388864D03*
X0269341Y0388864D03*
X0266191Y0388864D03*
X0263041Y0388864D03*
X0259892Y0388864D03*
X0256742Y0388864D03*
X0253593Y0388864D03*
X0250443Y0388864D03*
X0228789Y0388864D03*
X0225640Y0388864D03*
X0222490Y0388864D03*
X0219341Y0388864D03*
X0179183Y0388864D03*
X0155561Y0388864D03*
X0317372Y0233352D03*
X0312648Y0233352D03*
X0307923Y0233352D03*
X0303199Y0233352D03*
X0298474Y0233352D03*
X0294144Y0233352D03*
X0289419Y0233352D03*
X0284695Y0233352D03*
X0279971Y0233352D03*
X0275246Y0233352D03*
X0270522Y0233352D03*
X0265797Y0233352D03*
X0261073Y0233352D03*
X0256348Y0233352D03*
X0251624Y0233352D03*
X0246900Y0233352D03*
X0242175Y0233352D03*
X0237451Y0233352D03*
X0232726Y0233352D03*
X0228002Y0233352D03*
X0223278Y0233352D03*
X0218553Y0233352D03*
X0213829Y0233352D03*
X0209104Y0233352D03*
X0204380Y0233352D03*
X0199656Y0233352D03*
X0194931Y0233352D03*
X0190207Y0233352D03*
X0185482Y0233352D03*
X0180758Y0233352D03*
X0176033Y0233352D03*
X0171309Y0233352D03*
X0166585Y0233352D03*
X0157136Y0233352D03*
X0155561Y0243194D03*
X0155561Y0247131D03*
X0155561Y0299887D03*
X0155561Y0303824D03*
X0155561Y0307761D03*
X0155561Y0311698D03*
X0155561Y0315635D03*
X0155561Y0319572D03*
X0155561Y0323509D03*
X0155561Y0327446D03*
X0155561Y0339651D03*
X0155561Y0342801D03*
D56*
X0545071Y0073315D03*
X0521843Y0073315D03*
X0499008Y0073315D03*
X0533654Y0050480D03*
X0510425Y0050480D03*
X0545071Y0041307D03*
X0521843Y0041307D03*
X0499008Y0041307D03*
D33*
X0468181Y0073315D03*
X0458181Y0073315D03*
X0448181Y0073315D03*
X0438181Y0073315D03*
X0428181Y0073315D03*
X0418181Y0073315D03*
X0408181Y0073315D03*
X0398181Y0073315D03*
X0468181Y0063315D03*
X0458181Y0063315D03*
X0448181Y0063315D03*
X0438181Y0063315D03*
X0428181Y0063315D03*
X0418181Y0063315D03*
X0408181Y0063315D03*
X0398181Y0063315D03*
X0468181Y0039496D03*
X0458181Y0039496D03*
X0448181Y0039496D03*
X0438181Y0039496D03*
X0428181Y0039496D03*
X0418181Y0039496D03*
X0408181Y0039496D03*
X0398181Y0039496D03*
X0468181Y0029496D03*
X0458181Y0029496D03*
X0448181Y0029496D03*
X0438181Y0029496D03*
X0428181Y0029496D03*
X0418181Y0029496D03*
X0408181Y0029496D03*
X0398181Y0029496D03*
X0155307Y0029496D03*
X0165307Y0029496D03*
X0175307Y0029496D03*
X0185307Y0029496D03*
X0195307Y0029496D03*
X0205307Y0029496D03*
X0215307Y0029496D03*
X0225307Y0029496D03*
X0235307Y0029496D03*
X0245307Y0029496D03*
X0255307Y0029496D03*
X0265307Y0029496D03*
X0275307Y0029496D03*
X0285307Y0029496D03*
X0295307Y0029496D03*
X0305307Y0029496D03*
X0315307Y0029496D03*
X0325307Y0029496D03*
X0335307Y0029496D03*
X0155307Y0039496D03*
X0165307Y0039496D03*
X0175307Y0039496D03*
X0185307Y0039496D03*
X0195307Y0039496D03*
X0205307Y0039496D03*
X0215307Y0039496D03*
X0225307Y0039496D03*
X0235307Y0039496D03*
X0245307Y0039496D03*
X0255307Y0039496D03*
X0265307Y0039496D03*
X0275307Y0039496D03*
X0285307Y0039496D03*
X0295307Y0039496D03*
X0305307Y0039496D03*
X0315307Y0039496D03*
X0325307Y0039496D03*
X0335307Y0039496D03*
X0155307Y0063315D03*
X0165307Y0063315D03*
X0175307Y0063315D03*
X0185307Y0063315D03*
X0195307Y0063315D03*
X0205307Y0063315D03*
X0215307Y0063315D03*
X0225307Y0063315D03*
X0235307Y0063315D03*
X0245307Y0063315D03*
X0255307Y0063315D03*
X0265307Y0063315D03*
X0275307Y0063315D03*
X0285307Y0063315D03*
X0295307Y0063315D03*
X0305307Y0063315D03*
X0315307Y0063315D03*
X0325307Y0063315D03*
X0335307Y0063315D03*
X0155307Y0073315D03*
X0165307Y0073315D03*
X0175307Y0073315D03*
X0185307Y0073315D03*
X0195307Y0073315D03*
X0205307Y0073315D03*
X0215307Y0073315D03*
X0225307Y0073315D03*
X0235307Y0073315D03*
X0245307Y0073315D03*
X0255307Y0073315D03*
X0265307Y0073315D03*
X0275307Y0073315D03*
X0285307Y0073315D03*
X0295307Y0073315D03*
X0305307Y0073315D03*
X0315307Y0073315D03*
X0325307Y0073315D03*
X0335307Y0073315D03*
D56*
X0124205Y0073315D03*
X0101370Y0073315D03*
X0112787Y0050480D03*
X0124205Y0041307D03*
X0101370Y0041307D03*
D57*
X0572236Y0021622D03*
D58*
X0562591Y0052331D03*
D57*
X0366724Y0021622D03*
D58*
X0083063Y0052331D03*
D57*
X0073417Y0021622D03*
D59*
X0175000Y0154327D03*
X0590000Y0287598D03*
X0590000Y0297598D03*
X0590000Y0307598D03*
X0590000Y0317598D03*
X0590000Y0327598D03*
X0600000Y0287598D03*
X0600000Y0297598D03*
X0600000Y0307598D03*
X0600000Y0317598D03*
X0600000Y0327598D03*
X0610000Y0287598D03*
X0610000Y0297598D03*
X0610000Y0307598D03*
X0610000Y0317598D03*
X0610000Y0327598D03*
X0225197Y0111319D03*
D17*
X0127982Y0369741D03*
X0135206Y0368068D03*
X0127135Y0365902D03*
X0127982Y0362458D03*
X0128277Y0359111D03*
X0135206Y0357831D03*
X0130049Y0352713D03*
X0135206Y0350154D03*
X0111879Y0378402D03*
X0127923Y0377221D03*
D59*
X0199508Y0154228D03*
X0160138Y0128642D03*
X0302145Y0118947D03*
X0267717Y0147146D03*
X0460379Y0134747D03*
X0312676Y0118947D03*
X0272835Y0100886D03*
X0262106Y0100591D03*
D74*
X0034252Y0125315D03*
X0034252Y0110315D03*
D59*
X0590000Y0340000D03*
X0590000Y0350000D03*
X0590000Y0360000D03*
X0590000Y0370000D03*
X0590000Y0380000D03*
X0600000Y0340000D03*
X0600000Y0350000D03*
X0600000Y0360000D03*
X0600000Y0370000D03*
X0600000Y0380000D03*
X0610000Y0340000D03*
X0610000Y0350000D03*
X0610000Y0360000D03*
X0610000Y0370000D03*
X0610000Y0380000D03*
D74*
X0214961Y0103524D03*
X0214961Y0118524D03*
D59*
X0341634Y0100689D03*
X0210630Y0154228D03*
X0291712Y0118947D03*
X0180807Y0128642D03*
D74*
X0190354Y0117933D03*
X0190354Y0102933D03*
X0488484Y0105413D03*
X0488484Y0124705D03*
D59*
X0323279Y0118947D03*
X0281279Y0118947D03*
X0356299Y0158760D03*
X0285925Y0100689D03*
D74*
X0052362Y0125512D03*
X0052362Y0110512D03*
D59*
X0251083Y0100886D03*
D74*
X0203150Y0102933D03*
X0203150Y0117933D03*
D59*
X0215679Y0128647D03*
X0270846Y0118947D03*
X0331594Y0100689D03*
X0344279Y0118947D03*
X0153543Y0113681D03*
D79*
X0051969Y0260827D03*
X0051969Y0250827D03*
X0051969Y0240827D03*
X0051969Y0230827D03*
X0051969Y0220827D03*
D80*
X0051969Y0210827D03*
D59*
X0570472Y0411811D03*
X0570472Y0401811D03*
X0570472Y0391811D03*
X0570472Y0381811D03*
X0570472Y0371811D03*
X0560472Y0411811D03*
X0560472Y0401811D03*
X0560472Y0391811D03*
X0560472Y0381811D03*
X0560472Y0371811D03*
X0550472Y0411811D03*
X0550472Y0401811D03*
X0550472Y0391811D03*
X0550472Y0381811D03*
X0550472Y0371811D03*
X0188189Y0154232D03*
D74*
X0182382Y0103012D03*
X0182382Y0118012D03*
D59*
X0170079Y0128642D03*
D74*
X0061417Y0125512D03*
X0061417Y0110512D03*
X0499902Y0105413D03*
X0499902Y0124705D03*
D59*
X0590000Y0234803D03*
X0590000Y0244803D03*
X0590000Y0254803D03*
X0590000Y0264803D03*
X0590000Y0274803D03*
X0600000Y0234803D03*
X0600000Y0244803D03*
X0600000Y0254803D03*
X0600000Y0264803D03*
X0600000Y0274803D03*
X0610000Y0234803D03*
X0610000Y0244803D03*
X0610000Y0254803D03*
X0610000Y0264803D03*
X0610000Y0274803D03*
X0304479Y0162847D03*
G36*
G01*
X0367478Y0406932D02*
X0367478Y0406932D01*
G75*
G02*
X0374159Y0406932I0003341J-003341D01*
G01*
X0375829Y0405261D01*
G75*
G02*
X0375829Y0398580I-003341J-003341D01*
G01*
X0375829Y0398580D01*
G75*
G02*
X0369148Y0398580I-003341J0003341D01*
G01*
X0367478Y0400250D01*
G75*
G02*
X0367478Y0406932I0003341J0003341D01*
G01*
G37*
G36*
G01*
X0374958Y0415593D02*
X0374958Y0415593D01*
G75*
G02*
X0381639Y0415593I0003341J-003341D01*
G01*
X0383310Y0413923D01*
G75*
G02*
X0383310Y0407241I-003341J-003341D01*
G01*
X0383310Y0407241D01*
G75*
G02*
X0376628Y0407241I-003341J0003341D01*
G01*
X0374958Y0408912D01*
G75*
G02*
X0374958Y0415593I0003341J0003341D01*
G01*
G37*
G36*
G01*
X0399367Y0415593D02*
X0399367Y0415593D01*
G75*
G02*
X0406049Y0415593I0003341J-003341D01*
G01*
X0407719Y0413923D01*
G75*
G02*
X0407719Y0407241I-003341J-003341D01*
G01*
X0407719Y0407241D01*
G75*
G02*
X0401038Y0407241I-003341J0003341D01*
G01*
X0399367Y0408912D01*
G75*
G02*
X0399367Y0415593I0003341J0003341D01*
G01*
G37*
G36*
G01*
X0389525Y0406932D02*
X0389525Y0406932D01*
G75*
G02*
X0396206Y0406932I0003341J-003341D01*
G01*
X0397877Y0405261D01*
G75*
G02*
X0397877Y0398580I-003341J-003341D01*
G01*
X0397877Y0398580D01*
G75*
G02*
X0391195Y0398580I-003341J0003341D01*
G01*
X0389525Y0400250D01*
G75*
G02*
X0389525Y0406932I0003341J0003341D01*
G01*
G37*
G36*
G01*
X0352911Y0415593D02*
X0352911Y0415593D01*
G75*
G02*
X0359592Y0415593I0003341J-003341D01*
G01*
X0361262Y0413923D01*
G75*
G02*
X0361262Y0407241I-003341J-003341D01*
G01*
X0361262Y0407241D01*
G75*
G02*
X0354581Y0407241I-003341J0003341D01*
G01*
X0352911Y0408912D01*
G75*
G02*
X0352911Y0415593I0003341J0003341D01*
G01*
G37*
X0310531Y0100689D03*
X0202165Y0128543D03*
X0191535Y0128543D03*
D80*
X0288504Y0391732D03*
D79*
X0278504Y0391732D03*
X0268504Y0391732D03*
X0258504Y0391732D03*
X0248504Y0391732D03*
X0238504Y0391732D03*
X0228504Y0391732D03*
X0218504Y0391732D03*
D59*
X0333679Y0118947D03*
D74*
X0164567Y0117756D03*
X0164567Y0102756D03*
D59*
X0317879Y0168447D03*
X0296752Y0100689D03*
X0321161Y0100689D03*
D81*
X0341339Y0406201D03*
X0312598Y0406201D03*
D82*
X0333268Y0402756D03*
X0330118Y0409646D03*
X0326969Y0402756D03*
X0323819Y0409646D03*
D83*
X0320669Y0402756D03*
D59*
X0260413Y0118947D03*
X0153543Y0101870D03*
D74*
X0043307Y0125512D03*
X0043307Y0110512D03*
D17*
X0127165Y0275984D03*
X0275460Y0167554D03*
X0365153Y0242721D03*
X0099479Y0335747D03*
X0079147Y0311516D03*
X0232779Y0416347D03*
X0232879Y0401047D03*
X0260728Y0381004D03*
D76*
X0010236Y0121063D03*
D17*
X0100669Y0264038D03*
X0526622Y0111319D03*
X0220866Y0418504D03*
D76*
X0010236Y0084055D03*
D17*
X0455118Y0088878D03*
X0065948Y0107717D03*
D76*
X0010236Y0337500D03*
D17*
X0150394Y0251870D03*
X0172047Y0380610D03*
X0602803Y0143224D03*
X0418504Y0147539D03*
X0318799Y0191339D03*
X0377813Y0127113D03*
X0454589Y0105557D03*
X0511811Y0092815D03*
X0340551Y0343209D03*
X0489764Y0343701D03*
D76*
X0010236Y0284055D03*
D17*
X0377716Y0091384D03*
X0518679Y0171147D03*
X0569535Y0215075D03*
X0531543Y0237713D03*
X0259449Y0231398D03*
D76*
X0010236Y0380315D03*
D17*
X0203937Y0381791D03*
X0557087Y0232579D03*
X0111811Y0023524D03*
X0531937Y0221374D03*
X0526425Y0099114D03*
X0571506Y0133447D03*
D76*
X0450394Y0452559D03*
D17*
X0029079Y0318547D03*
X0529181Y0212713D03*
D76*
X0010827Y0057185D03*
X0408957Y0452756D03*
D17*
X0375197Y0341240D03*
X0097244Y0060138D03*
X0304823Y0388976D03*
D76*
X0633465Y0126870D03*
D17*
X0504136Y0373524D03*
X0111811Y0097343D03*
D76*
X0010236Y0160531D03*
D17*
X0537402Y0006201D03*
X0527606Y0132577D03*
X0527803Y0144799D03*
D76*
X0633465Y0166339D03*
D17*
X0600779Y0171747D03*
X0355118Y0392815D03*
X0339764Y0236516D03*
X0219679Y0409047D03*
X0127848Y0183247D03*
X0492913Y0393996D03*
X0197779Y0415547D03*
X0490157Y0193996D03*
X0353937Y0340453D03*
X0120079Y0262847D03*
D76*
X0105610Y0452657D03*
D17*
X0496457Y0168406D03*
D76*
X0279331Y0452657D03*
D17*
X0336614Y0390059D03*
D76*
X0192421Y0452657D03*
X0582776Y0452756D03*
D17*
X0531740Y0229642D03*
X0277953Y0201969D03*
D76*
X0633465Y0343307D03*
D17*
X0526622Y0106398D03*
X0439079Y0171465D03*
D76*
X0495866Y0452756D03*
X0633465Y0207776D03*
D17*
X0051969Y0186516D03*
X0029079Y0328547D03*
X0046079Y0293547D03*
D76*
X0633465Y0058465D03*
D17*
X0601575Y0216043D03*
X0583071Y0010138D03*
X0555906Y0336122D03*
D76*
X0633465Y0386122D03*
D17*
X0343701Y0387697D03*
X0150079Y0286547D03*
D76*
X0633465Y0246752D03*
D17*
X0028083Y0365551D03*
X0487401Y0226270D03*
X0191339Y0380610D03*
X0324016Y0181004D03*
X0523479Y0171147D03*
X0079134Y0083760D03*
D76*
X0062795Y0452657D03*
D17*
X0605779Y0171247D03*
X0105118Y0097343D03*
X0052362Y0153051D03*
D76*
X0238878Y0452657D03*
D17*
X0118504Y0004626D03*
X0601031Y0198933D03*
X0454379Y0143147D03*
X0359843Y0347539D03*
X0289779Y0417347D03*
X0340157Y0251870D03*
X0457695Y0171373D03*
X0072079Y0295547D03*
X0107165Y0103161D03*
X0492520Y0277067D03*
D76*
X0010236Y0201969D03*
X0633465Y0089862D03*
D17*
X0154134Y0400295D03*
D76*
X0322146Y0452756D03*
X0537303Y0452559D03*
X0363976Y0452756D03*
D17*
X0117979Y0384947D03*
X0371949Y0237402D03*
X0528045Y0197213D03*
X0149079Y0266547D03*
X0350394Y0253839D03*
X0365354Y0251870D03*
X0299213Y0231396D03*
X0432185Y0344741D03*
D76*
X0010236Y0240945D03*
X0147441Y0452657D03*
D17*
X0028122Y0375591D03*
X0371879Y0200047D03*
D76*
X0633465Y0289862D03*
D17*
X0487722Y0259104D03*
X0143594Y0246752D03*
X0143886Y0287697D03*
X0108465Y0097343D03*
X0300787Y0400394D03*
X0310433Y0393307D03*
X0144254Y0096752D03*
X0135257Y0310749D03*
X0150602Y0381421D03*
X0123425Y0297638D03*
X0135827Y0325492D03*
X0229134Y0080020D03*
X0305279Y0184547D03*
X0281779Y0228747D03*
X0345669Y0350787D03*
X0379979Y0354147D03*
X0345472Y0240059D03*
X0265354Y0380791D03*
X0426181Y0166339D03*
X0422244Y0170276D03*
X0424213Y0168307D03*
X0481379Y0047647D03*
X0342717Y0281496D03*
X0343307Y0301969D03*
X0546801Y0127119D03*
X0556327Y0219654D03*
X0256386Y0156910D03*
X0250000Y0158563D03*
X0245201Y0150607D03*
X0292608Y0141642D03*
X0239579Y0080347D03*
X0237852Y0150607D03*
X0371179Y0060947D03*
X0303154Y0143161D03*
X0232776Y0158264D03*
X0223707Y0156089D03*
X0300929Y0140935D03*
X0219978Y0156098D03*
X0244199Y0138482D03*
X0296779Y0136907D03*
X0233071Y0133762D03*
X0235925Y0079331D03*
X0239900Y0133366D03*
X0183071Y0137301D03*
X0149803Y0057579D03*
X0179921Y0139665D03*
X0170079Y0137301D03*
X0147244Y0170776D03*
X0469685Y0166437D03*
X0469685Y0162894D03*
X0469685Y0169587D03*
X0341732Y0011766D03*
X0429134Y0168998D03*
X0465110Y0012010D03*
X0397919Y0166212D03*
X0378979Y0150947D03*
X0376379Y0150847D03*
X0389079Y0162147D03*
X0389079Y0164947D03*
X0381779Y0161147D03*
X0381779Y0158147D03*
X0379132Y0155413D03*
X0377279Y0160947D03*
X0422279Y0053547D03*
X0432179Y0053547D03*
X0426779Y0053547D03*
X0372441Y0151870D03*
X0372279Y0161247D03*
X0246979Y0126847D03*
X0247409Y0117628D03*
X0357087Y0164075D03*
X0357087Y0166437D03*
X0347579Y0162347D03*
X0347579Y0158947D03*
X0205807Y0097343D03*
X0278279Y0229187D03*
X0354228Y0299524D03*
X0354732Y0292313D03*
X0351868Y0293618D03*
X0351868Y0325689D03*
X0341142Y0297244D03*
X0339479Y0281247D03*
X0212545Y0081791D03*
X0175394Y0079823D03*
X0114579Y0297347D03*
X0153839Y0380474D03*
X0158779Y0135847D03*
X0132677Y0325492D03*
X0310747Y0020445D03*
X0443307Y0032579D03*
X0128346Y0325492D03*
X0124016Y0325492D03*
X0120866Y0325492D03*
X0451669Y0021461D03*
X0117323Y0325492D03*
X0454724Y0022736D03*
X0350394Y0013551D03*
X0112795Y0325492D03*
X0457618Y0021496D03*
X0108268Y0325492D03*
D84*
X0579378Y0138158D03*
D17*
X0543945Y0217240D03*
X0538433Y0119587D03*
X0507379Y0393247D03*
D84*
X0579299Y0207843D03*
D17*
X0500879Y0335647D03*
D84*
X0554673Y0127512D03*
X0554673Y0130662D03*
X0579378Y0134615D03*
X0554673Y0207056D03*
X0554673Y0210205D03*
D17*
X0538433Y0111319D03*
D84*
X0579299Y0204300D03*
D17*
X0543945Y0233776D03*
X0543945Y0225508D03*
X0538433Y0103051D03*
X0563453Y0213788D03*
X0563510Y0134615D03*
X0366380Y0318028D03*
X0261898Y0158621D03*
X0264236Y0156201D03*
X0266618Y0158462D03*
X0269291Y0156201D03*
X0270709Y0014668D03*
X0250000Y0013453D03*
X0266142Y0016831D03*
X0255512Y0013453D03*
X0457079Y0049147D03*
X0364020Y0315272D03*
X0570500Y0138158D03*
X0565382Y0203906D03*
X0569535Y0203906D03*
X0566489Y0138552D03*
X0361659Y0312516D03*
X0143736Y0249896D03*
X0409579Y0150447D03*
X0362379Y0150147D03*
X0341142Y0322441D03*
X0339979Y0331047D03*
X0413179Y0148247D03*
X0362079Y0049147D03*
X0372479Y0143647D03*
X0305479Y0092947D03*
X0348379Y0289547D03*
X0348379Y0330614D03*
X0361579Y0303147D03*
X0361279Y0237947D03*
X0295379Y0403847D03*
X0299707Y0390157D03*
X0404259Y0165967D03*
X0302756Y0034547D03*
X0298033Y0034547D03*
D87*
X0189234Y0385054D02*
X0185974Y0388314D01*
X0111594Y0258484D02*
X0111594Y0269232D01*
D18*
X0346879Y0358247D02*
X0340479Y0364647D01*
X0510779Y0358247D02*
X0368979Y0358247D01*
X0202579Y0409847D02*
X0200814Y0411612D01*
X0333913Y0384939D02*
X0214518Y0384939D01*
X0370315Y0247884D02*
X0370315Y0356911D01*
D87*
X0368942Y0113384D02*
X0368942Y0121868D01*
D18*
X0295116Y0218947D02*
X0292441Y0221622D01*
X0365079Y0242647D02*
X0357879Y0242647D01*
D87*
X0127165Y0275984D02*
X0118347Y0275984D01*
X0118347Y0275984D02*
X0099479Y0294853D01*
D18*
X0354774Y0362952D02*
X0354774Y0373032D01*
D87*
X0275460Y0167628D02*
X0275460Y0167554D01*
X0099479Y0294853D02*
X0094587Y0289961D01*
D18*
X0202579Y0396879D02*
X0202579Y0409847D01*
X0550472Y0401811D02*
X0576215Y0401811D01*
X0340479Y0364647D02*
X0340479Y0378374D01*
X0117679Y0397347D02*
X0099479Y0379147D01*
X0357879Y0242647D02*
X0343479Y0228247D01*
D87*
X0099479Y0335747D02*
X0099479Y0294853D01*
D18*
X0370315Y0356911D02*
X0368979Y0358247D01*
X0359479Y0358247D02*
X0346879Y0358247D01*
X0099479Y0379147D02*
X0099479Y0335747D01*
X0368979Y0358247D02*
X0359479Y0358247D01*
X0343479Y0228247D02*
X0313779Y0228247D01*
D87*
X0214404Y0385054D02*
X0189234Y0385054D01*
D18*
X0365079Y0242647D02*
X0370315Y0247884D01*
D87*
X0275479Y0167647D02*
X0275460Y0167628D01*
X0288379Y0165447D02*
X0282979Y0165447D01*
D18*
X0340479Y0378374D02*
X0333913Y0384939D01*
X0304479Y0218947D02*
X0295116Y0218947D01*
X0580379Y0397647D02*
X0580379Y0365647D01*
X0576215Y0401811D02*
X0580379Y0397647D01*
X0214518Y0384939D02*
X0214404Y0385054D01*
D87*
X0277679Y0165447D02*
X0275479Y0167647D01*
X0368942Y0121868D02*
X0335299Y0155511D01*
X0282979Y0165447D02*
X0277679Y0165447D01*
X0381139Y0106050D02*
X0376276Y0106050D01*
X0282979Y0165447D02*
X0279479Y0165447D01*
D18*
X0154944Y0411612D02*
X0140679Y0397347D01*
X0512679Y0356347D02*
X0510779Y0358247D01*
X0313779Y0228247D02*
X0304479Y0218947D01*
X0580379Y0365647D02*
X0571079Y0356347D01*
D87*
X0298315Y0155511D02*
X0288379Y0165447D01*
X0335299Y0155511D02*
X0298315Y0155511D01*
D18*
X0140679Y0397347D02*
X0117679Y0397347D01*
X0359479Y0358247D02*
X0354774Y0362952D01*
X0200814Y0411612D02*
X0154944Y0411612D01*
X0214404Y0385054D02*
X0202579Y0396879D01*
D87*
X0376276Y0106050D02*
X0368942Y0113384D01*
D18*
X0571079Y0356347D02*
X0512679Y0356347D01*
D87*
X0111594Y0269232D02*
X0118347Y0275984D01*
X0139779Y0404975D02*
X0119507Y0404975D01*
X0492379Y0426447D02*
X0527015Y0391811D01*
X0233979Y0426447D02*
X0232879Y0425347D01*
X0233979Y0426447D02*
X0161251Y0426447D01*
X0232879Y0400747D02*
X0232879Y0401047D01*
X0079779Y0365247D02*
X0079779Y0312147D01*
X0119507Y0404975D02*
X0079779Y0365247D01*
X0079779Y0312147D02*
X0079147Y0311516D01*
X0161251Y0426447D02*
X0139779Y0404975D01*
X0233979Y0426447D02*
X0492379Y0426447D01*
X0527015Y0391811D02*
X0570472Y0391811D01*
X0232879Y0425347D02*
X0232879Y0400747D01*
D10*
X0135827Y0317974D02*
X0141232Y0312569D01*
X0311725Y0022808D02*
X0314929Y0019604D01*
X0142520Y0032579D02*
X0151181Y0023917D01*
X0141232Y0096433D02*
X0142520Y0095146D01*
X0142520Y0095146D02*
X0142520Y0032579D01*
X0308139Y0021179D02*
X0309768Y0022808D01*
X0434047Y0031587D02*
X0437823Y0035362D01*
X0314929Y0019604D02*
X0342846Y0019604D01*
X0280714Y0021179D02*
X0308139Y0021179D01*
X0151181Y0023917D02*
X0277976Y0023917D01*
X0437823Y0035362D02*
X0444047Y0035362D01*
X0444047Y0035362D02*
X0448181Y0039496D01*
X0141232Y0312569D02*
X0141232Y0096433D01*
X0309768Y0022808D02*
X0311725Y0022808D01*
X0379516Y0034941D02*
X0395658Y0018799D01*
X0434047Y0028831D02*
X0434047Y0031587D01*
X0342846Y0019604D02*
X0358183Y0034941D01*
X0277976Y0023917D02*
X0280714Y0021179D01*
X0358183Y0034941D02*
X0379516Y0034941D01*
X0135827Y0325492D02*
X0135827Y0317974D01*
X0424016Y0018799D02*
X0434047Y0028831D01*
X0395658Y0018799D02*
X0424016Y0018799D01*
D85*
X0354757Y0051903D02*
X0376739Y0051903D01*
X0315307Y0063315D02*
X0320398Y0068406D01*
X0394094Y0034547D02*
X0403232Y0034547D01*
X0225307Y0058019D02*
X0225307Y0063315D01*
X0255779Y0055247D02*
X0228079Y0055247D01*
X0320472Y0037697D02*
X0324016Y0034154D01*
X0376739Y0051903D02*
X0394094Y0034547D01*
X0326772Y0068406D02*
X0330315Y0064862D01*
X0330315Y0054626D02*
X0320472Y0044783D01*
X0255307Y0055719D02*
X0255779Y0055247D01*
X0403232Y0034547D02*
X0408181Y0039496D01*
X0330315Y0064862D02*
X0330315Y0054626D01*
X0307239Y0055247D02*
X0275979Y0055247D01*
X0324016Y0034154D02*
X0337008Y0034154D01*
X0275307Y0039496D02*
X0275307Y0054576D01*
X0275307Y0054576D02*
X0275979Y0055247D01*
X0315307Y0063315D02*
X0307239Y0055247D01*
X0255307Y0063315D02*
X0255307Y0055719D01*
X0320472Y0044783D02*
X0320472Y0037697D01*
X0337008Y0034154D02*
X0354757Y0051903D01*
X0275979Y0055247D02*
X0255779Y0055247D01*
X0320398Y0068406D02*
X0326772Y0068406D01*
X0228079Y0055247D02*
X0225307Y0058019D01*
D87*
X0477479Y0092326D02*
X0483920Y0085885D01*
X0422244Y0170276D02*
X0426181Y0166339D01*
X0426472Y0166047D02*
X0455479Y0166047D01*
X0477479Y0144047D02*
X0477479Y0092326D01*
X0483920Y0050188D02*
X0481379Y0047647D01*
X0455479Y0166047D02*
X0477479Y0144047D01*
X0483920Y0085885D02*
X0483920Y0050188D01*
X0426181Y0166339D02*
X0426472Y0166047D01*
D10*
X0381139Y0109199D02*
X0380327Y0109199D01*
X0317806Y0157674D02*
X0309652Y0157674D01*
X0380327Y0109199D02*
X0371106Y0118420D01*
X0371106Y0118420D02*
X0371106Y0122764D01*
X0371106Y0122764D02*
X0336195Y0157674D01*
X0309652Y0157674D02*
X0304479Y0162847D01*
X0336195Y0157674D02*
X0317806Y0157674D01*
X0371379Y0060747D02*
X0382079Y0060747D01*
X0389779Y0068447D02*
X0423049Y0068447D01*
X0371179Y0060947D02*
X0371379Y0060747D01*
X0423049Y0068447D02*
X0428181Y0063315D01*
X0382079Y0060747D02*
X0389779Y0068447D01*
X0380168Y0036516D02*
X0357531Y0036516D01*
X0300394Y0027067D02*
X0300394Y0043996D01*
X0317406Y0055413D02*
X0325307Y0063315D01*
X0303078Y0024382D02*
X0300394Y0027067D01*
X0311811Y0055413D02*
X0317406Y0055413D01*
X0312378Y0024382D02*
X0303078Y0024382D01*
X0315581Y0021179D02*
X0312378Y0024382D01*
X0396310Y0020374D02*
X0380168Y0036516D01*
X0342194Y0021179D02*
X0315581Y0021179D01*
X0428181Y0029496D02*
X0419059Y0020374D01*
X0357531Y0036516D02*
X0342194Y0021179D01*
X0419059Y0020374D02*
X0396310Y0020374D01*
X0300394Y0043996D02*
X0311811Y0055413D01*
X0289445Y0161319D02*
X0156701Y0161319D01*
X0398181Y0073315D02*
X0372187Y0073315D01*
X0360406Y0125120D02*
X0332180Y0153346D01*
X0360406Y0085096D02*
X0360406Y0125120D01*
X0372187Y0073315D02*
X0360406Y0085096D01*
X0156701Y0161319D02*
X0147244Y0170776D01*
X0332180Y0153346D02*
X0297418Y0153346D01*
X0297418Y0153346D02*
X0289445Y0161319D01*
D86*
X0479600Y0027069D02*
X0479600Y0039169D01*
X0465110Y0012010D02*
X0465110Y0012579D01*
X0486379Y0087647D02*
X0480279Y0093747D01*
X0480279Y0145747D02*
X0457028Y0168998D01*
X0486379Y0045947D02*
X0486379Y0087647D01*
X0480279Y0093747D02*
X0480279Y0145747D01*
X0465110Y0012579D02*
X0479600Y0027069D01*
X0479600Y0039169D02*
X0486379Y0045947D01*
X0457028Y0168998D02*
X0429134Y0168998D01*
D87*
X0471633Y0141393D02*
X0471633Y0090383D01*
X0391379Y0159847D02*
X0453179Y0159847D01*
X0453179Y0159847D02*
X0471633Y0141393D01*
X0389079Y0162147D02*
X0391379Y0159847D01*
X0472904Y0034219D02*
X0468181Y0029496D01*
X0478412Y0083604D02*
X0478412Y0055280D01*
X0478412Y0055280D02*
X0472904Y0049772D01*
X0471633Y0090383D02*
X0478412Y0083604D01*
X0472904Y0049772D02*
X0472904Y0034219D01*
X0389079Y0162147D02*
X0389079Y0164947D01*
X0475658Y0082463D02*
X0475658Y0056526D01*
X0468181Y0049050D02*
X0468181Y0039496D01*
X0468879Y0089242D02*
X0475658Y0082463D01*
X0475658Y0056526D02*
X0468181Y0049050D01*
X0383633Y0156293D02*
X0452533Y0156293D01*
X0468879Y0139947D02*
X0468879Y0089242D01*
X0381779Y0161147D02*
X0381779Y0158147D01*
X0381779Y0158147D02*
X0383633Y0156293D01*
X0452533Y0156293D02*
X0468879Y0139947D01*
X0379132Y0155413D02*
X0377279Y0157267D01*
X0472904Y0081322D02*
X0472904Y0057872D01*
X0379132Y0155413D02*
X0381006Y0153539D01*
X0472904Y0057872D02*
X0458181Y0043150D01*
X0377279Y0157267D02*
X0377279Y0160947D01*
X0451087Y0153539D02*
X0466079Y0138547D01*
X0458181Y0043150D02*
X0458181Y0039496D01*
X0381006Y0153539D02*
X0451087Y0153539D01*
X0466079Y0138547D02*
X0466079Y0088147D01*
X0466079Y0088147D02*
X0472904Y0081322D01*
X0481166Y0053234D02*
X0481166Y0084745D01*
X0454274Y0162647D02*
X0454228Y0162601D01*
X0474387Y0091524D02*
X0474387Y0142534D01*
X0394781Y0162601D02*
X0392030Y0165352D01*
X0463930Y0023747D02*
X0472879Y0023747D01*
X0458181Y0029496D02*
X0463930Y0023747D01*
X0474387Y0142534D02*
X0454274Y0162647D01*
X0389612Y0168587D02*
X0359237Y0168587D01*
X0477329Y0028197D02*
X0477329Y0049397D01*
X0392030Y0165352D02*
X0392030Y0166170D01*
X0359237Y0168587D02*
X0357087Y0166437D01*
X0481166Y0084745D02*
X0474387Y0091524D01*
X0454228Y0162601D02*
X0394781Y0162601D01*
X0477329Y0049397D02*
X0481166Y0053234D01*
X0472879Y0023747D02*
X0477329Y0028197D01*
X0392030Y0166170D02*
X0389612Y0168587D01*
X0357087Y0164075D02*
X0357087Y0166437D01*
D10*
X0281079Y0175547D02*
X0281079Y0202547D01*
X0277803Y0228711D02*
X0278279Y0229187D01*
X0372679Y0123415D02*
X0336847Y0159247D01*
X0372679Y0120809D02*
X0372679Y0123415D01*
X0278019Y0229187D02*
X0278279Y0229187D01*
X0286579Y0170047D02*
X0281079Y0175547D01*
X0305679Y0170047D02*
X0286579Y0170047D01*
X0281079Y0202547D02*
X0277803Y0205823D01*
X0381139Y0112349D02*
X0372679Y0120809D01*
X0277803Y0205823D02*
X0277803Y0228711D01*
X0336847Y0159247D02*
X0316479Y0159247D01*
X0316479Y0159247D02*
X0305679Y0170047D01*
X0277803Y0228972D02*
X0278019Y0229187D01*
X0300779Y0078547D02*
X0291712Y0087614D01*
X0291712Y0087614D02*
X0291712Y0118947D01*
X0305307Y0063315D02*
X0300779Y0067843D01*
X0300779Y0067843D02*
X0300779Y0078547D01*
D86*
X0325307Y0039496D02*
X0325307Y0039776D01*
X0325307Y0039776D02*
X0340157Y0054626D01*
X0340157Y0081693D02*
X0321161Y0100689D01*
X0340157Y0054626D02*
X0340157Y0081693D01*
D10*
X0280062Y0019604D02*
X0277324Y0022343D01*
X0139657Y0095781D02*
X0139657Y0311916D01*
X0310747Y0020445D02*
X0309905Y0019604D01*
X0139657Y0311916D02*
X0132677Y0318897D01*
X0140945Y0094493D02*
X0139657Y0095781D01*
X0277324Y0022343D02*
X0150529Y0022343D01*
X0140945Y0031926D02*
X0140945Y0094493D01*
X0309905Y0019604D02*
X0280062Y0019604D01*
X0132677Y0318897D02*
X0132677Y0325492D01*
X0150529Y0022343D02*
X0140945Y0031926D01*
X0276671Y0020768D02*
X0279410Y0018029D01*
X0395005Y0017224D02*
X0432283Y0017224D01*
X0279410Y0018029D02*
X0343499Y0018029D01*
X0138083Y0095128D02*
X0139370Y0093841D01*
X0432283Y0017224D02*
X0443307Y0028248D01*
X0138083Y0309994D02*
X0138083Y0095128D01*
X0139370Y0031274D02*
X0149876Y0020768D01*
X0138083Y0311264D02*
X0138083Y0309994D01*
X0128346Y0325492D02*
X0128346Y0321000D01*
X0149876Y0020768D02*
X0276671Y0020768D01*
X0443307Y0028248D02*
X0443307Y0032579D01*
X0378864Y0033366D02*
X0395005Y0017224D01*
X0358836Y0033366D02*
X0378864Y0033366D01*
X0343499Y0018029D02*
X0358836Y0033366D01*
X0128346Y0321000D02*
X0138083Y0311264D01*
X0139370Y0093841D02*
X0139370Y0031274D01*
X0136508Y0306158D02*
X0136508Y0094476D01*
X0149224Y0019193D02*
X0276019Y0019193D01*
X0136508Y0094476D02*
X0137795Y0093189D01*
X0276019Y0019193D02*
X0278757Y0016454D01*
X0453543Y0026673D02*
X0453543Y0057953D01*
X0124016Y0318653D02*
X0132895Y0309773D01*
X0359488Y0031791D02*
X0378211Y0031791D01*
X0132895Y0309771D02*
X0136508Y0306158D01*
X0137795Y0030622D02*
X0149224Y0019193D01*
X0378211Y0031791D02*
X0394353Y0015650D01*
X0344151Y0016454D02*
X0359488Y0031791D01*
X0132895Y0309773D02*
X0132895Y0309771D01*
X0394353Y0015650D02*
X0442520Y0015650D01*
X0137795Y0093189D02*
X0137795Y0030622D01*
X0453543Y0057953D02*
X0448181Y0063315D01*
X0442520Y0015650D02*
X0453543Y0026673D01*
X0124016Y0325492D02*
X0124016Y0318653D01*
X0278757Y0016454D02*
X0344151Y0016454D01*
X0134933Y0093709D02*
X0134933Y0305504D01*
X0148572Y0017618D02*
X0136220Y0029970D01*
X0134933Y0305504D02*
X0134935Y0305506D01*
X0377559Y0030217D02*
X0360140Y0030217D01*
X0451669Y0021461D02*
X0444283Y0014075D01*
X0444283Y0014075D02*
X0393701Y0014075D01*
X0265079Y0014469D02*
X0261929Y0017618D01*
X0267169Y0014469D02*
X0265079Y0014469D01*
X0269731Y0017030D02*
X0267169Y0014469D01*
X0136220Y0029970D02*
X0136220Y0092421D01*
X0134935Y0305506D02*
X0120866Y0319575D01*
X0360140Y0030217D02*
X0344803Y0014880D01*
X0344803Y0014880D02*
X0278105Y0014880D01*
X0278105Y0014880D02*
X0275955Y0017030D01*
X0136220Y0092421D02*
X0134933Y0093709D01*
X0275955Y0017030D02*
X0269731Y0017030D01*
X0261929Y0017618D02*
X0148572Y0017618D01*
X0120866Y0319575D02*
X0120866Y0325492D01*
X0393701Y0014075D02*
X0377559Y0030217D01*
X0261277Y0016043D02*
X0265015Y0012306D01*
X0265015Y0012306D02*
X0277758Y0012306D01*
X0349351Y0016043D02*
X0359362Y0016043D01*
X0147920Y0016043D02*
X0261277Y0016043D01*
X0362906Y0012500D02*
X0446063Y0012500D01*
X0342711Y0009404D02*
X0349351Y0016043D01*
X0133358Y0304852D02*
X0133358Y0093056D01*
X0454724Y0021161D02*
X0454724Y0022736D01*
X0278757Y0013305D02*
X0336597Y0013305D01*
X0359362Y0016043D02*
X0362906Y0012500D01*
X0117323Y0325492D02*
X0117323Y0320891D01*
X0133358Y0093056D02*
X0134646Y0091769D01*
X0336597Y0013305D02*
X0340498Y0009404D01*
X0117323Y0320891D02*
X0133360Y0304854D01*
X0133360Y0304854D02*
X0133358Y0304852D01*
X0134646Y0029317D02*
X0147920Y0016043D01*
X0277758Y0012306D02*
X0278757Y0013305D01*
X0446063Y0012500D02*
X0454724Y0021161D01*
X0340498Y0009404D02*
X0342711Y0009404D01*
X0134646Y0091769D02*
X0134646Y0029317D01*
X0344671Y0007829D02*
X0339846Y0007829D01*
X0133071Y0091117D02*
X0131783Y0092404D01*
X0147267Y0014469D02*
X0133071Y0028665D01*
X0339846Y0007829D02*
X0336944Y0010731D01*
X0350394Y0013551D02*
X0344671Y0007829D01*
X0112795Y0323192D02*
X0112795Y0325492D01*
X0133071Y0028665D02*
X0133071Y0091117D01*
X0131783Y0304200D02*
X0131785Y0304202D01*
X0244882Y0014469D02*
X0147267Y0014469D01*
X0131785Y0304202D02*
X0112795Y0323192D01*
X0248620Y0010731D02*
X0244882Y0014469D01*
X0131783Y0092404D02*
X0131783Y0304200D01*
X0336944Y0010731D02*
X0248620Y0010731D01*
X0131496Y0028013D02*
X0146615Y0012894D01*
X0339193Y0006254D02*
X0345323Y0006254D01*
X0130209Y0091752D02*
X0131496Y0090464D01*
X0146615Y0012894D02*
X0244230Y0012894D01*
X0131496Y0090464D02*
X0131496Y0028013D01*
X0336291Y0009156D02*
X0339193Y0006254D01*
X0244230Y0012894D02*
X0247967Y0009156D01*
X0457286Y0021496D02*
X0457618Y0021496D01*
X0345323Y0006254D02*
X0349995Y0010925D01*
X0108268Y0325492D02*
X0130211Y0303549D01*
X0446715Y0010925D02*
X0457286Y0021496D01*
X0349995Y0010925D02*
X0446715Y0010925D01*
X0130211Y0303549D02*
X0130211Y0093209D01*
X0247967Y0009156D02*
X0336291Y0009156D01*
X0130209Y0093207D02*
X0130209Y0091752D01*
X0130211Y0093209D02*
X0130209Y0093207D01*
D114*
X0521841Y0061896D02*
X0510425Y0050480D01*
D25*
X0553337Y0061506D02*
X0563379Y0071547D01*
X0563379Y0071547D02*
X0563379Y0098907D01*
X0554673Y0107613D02*
X0554673Y0130662D01*
X0563379Y0098907D02*
X0554673Y0107613D01*
D114*
X0510425Y0050480D02*
X0521451Y0061506D01*
X0552948Y0061896D02*
X0521841Y0061896D01*
D10*
X0261371Y0158094D02*
X0261371Y0153885D01*
X0261371Y0153885D02*
X0250321Y0142834D01*
X0250321Y0142834D02*
X0250321Y0115172D01*
X0190945Y0037697D02*
X0195012Y0033630D01*
X0219303Y0084154D02*
X0200000Y0084154D01*
X0250321Y0115172D02*
X0219303Y0084154D01*
X0195012Y0033630D02*
X0201173Y0033630D01*
X0201173Y0033630D02*
X0205307Y0029496D01*
X0200000Y0084154D02*
X0190945Y0075098D01*
X0190945Y0075098D02*
X0190945Y0037697D01*
X0261898Y0158621D02*
X0261371Y0158094D01*
X0205243Y0079097D02*
X0200787Y0074641D01*
X0200787Y0074641D02*
X0200787Y0037697D01*
X0264236Y0154522D02*
X0251896Y0142182D01*
X0216474Y0079097D02*
X0205243Y0079097D01*
X0251896Y0142182D02*
X0251896Y0114519D01*
X0203150Y0035335D02*
X0209469Y0035335D01*
X0251896Y0114519D02*
X0216474Y0079097D01*
X0209469Y0035335D02*
X0215307Y0029496D01*
X0200787Y0037697D02*
X0203150Y0035335D01*
X0264236Y0156201D02*
X0264236Y0154522D01*
X0253471Y0141530D02*
X0253471Y0113867D01*
X0266618Y0158462D02*
X0266618Y0154677D01*
X0253471Y0113867D02*
X0217064Y0077461D01*
X0217064Y0077461D02*
X0213386Y0077461D01*
X0211024Y0075098D02*
X0211024Y0045213D01*
X0213386Y0077461D02*
X0211024Y0075098D01*
X0266618Y0154677D02*
X0253471Y0141530D01*
X0211024Y0045213D02*
X0205307Y0039496D01*
X0255045Y0113215D02*
X0220866Y0079035D01*
X0255045Y0140878D02*
X0255045Y0113215D01*
X0269291Y0155123D02*
X0255045Y0140878D01*
X0220866Y0043937D02*
X0225307Y0039496D01*
X0269291Y0156201D02*
X0269291Y0155123D01*
X0220866Y0079035D02*
X0220866Y0043937D01*
X0463379Y0082447D02*
X0460549Y0085277D01*
X0460549Y0105995D02*
X0455149Y0111395D01*
X0460549Y0085277D02*
X0460549Y0105995D01*
X0455149Y0135577D02*
X0452393Y0138333D01*
X0452393Y0138333D02*
X0450135Y0138333D01*
X0457079Y0049147D02*
X0463379Y0055447D01*
X0455149Y0111395D02*
X0455149Y0135577D01*
X0463379Y0055447D02*
X0463379Y0082447D01*
X0458779Y0105262D02*
X0450135Y0113906D01*
X0433465Y0065001D02*
X0436869Y0068406D01*
X0458779Y0083877D02*
X0458779Y0105262D01*
X0414988Y0056303D02*
X0427572Y0056303D01*
X0443654Y0072384D02*
X0443654Y0075190D01*
X0436869Y0068406D02*
X0439675Y0068406D01*
X0450135Y0113906D02*
X0450135Y0134396D01*
X0443654Y0075190D02*
X0446306Y0077843D01*
X0446306Y0077843D02*
X0452744Y0077843D01*
X0427572Y0056303D02*
X0433465Y0062195D01*
X0439675Y0068406D02*
X0443654Y0072384D01*
X0433465Y0062195D02*
X0433465Y0065001D01*
X0452744Y0077843D02*
X0458779Y0083877D01*
X0398181Y0039496D02*
X0414988Y0056303D01*
D85*
X0409579Y0150447D02*
X0406979Y0147847D01*
X0364679Y0147847D02*
X0362379Y0150147D01*
X0406979Y0147847D02*
X0364679Y0147847D01*
X0337182Y0024969D02*
X0319835Y0024969D01*
X0361361Y0049147D02*
X0337182Y0024969D01*
X0362079Y0049147D02*
X0361361Y0049147D01*
X0319835Y0024969D02*
X0315307Y0029496D01*
D10*
X0313979Y0173247D02*
X0366979Y0173247D01*
X0369379Y0175647D02*
X0369379Y0230647D01*
X0373179Y0138847D02*
X0359479Y0138847D01*
X0359479Y0138847D02*
X0337379Y0160947D01*
X0337379Y0160947D02*
X0337252Y0160820D01*
X0362079Y0237947D02*
X0361279Y0237947D01*
X0366979Y0173247D02*
X0369379Y0175647D01*
X0312679Y0171947D02*
X0313979Y0173247D01*
X0381139Y0141876D02*
X0376208Y0141876D01*
X0363379Y0236647D02*
X0362079Y0237947D01*
X0337252Y0160820D02*
X0317130Y0160820D01*
X0312679Y0165272D02*
X0312679Y0171947D01*
X0369379Y0230647D02*
X0363379Y0236647D01*
X0317130Y0160820D02*
X0312679Y0165272D01*
X0376208Y0141876D02*
X0373179Y0138847D01*
D88*
X0399279Y0170947D02*
X0320379Y0170947D01*
X0320379Y0170947D02*
X0317879Y0168447D01*
X0404259Y0165967D02*
X0399279Y0170947D01*
D10*
X0313625Y0025362D02*
X0313030Y0025957D01*
X0352849Y0034061D02*
X0341542Y0022754D01*
X0314807Y0025362D02*
X0313625Y0025362D01*
X0315016Y0025154D02*
X0314807Y0025362D01*
X0394206Y0024705D02*
X0388639Y0030272D01*
X0312527Y0025957D02*
X0310630Y0027854D01*
X0356879Y0038091D02*
X0352849Y0034061D01*
X0380821Y0038091D02*
X0359449Y0038091D01*
X0408181Y0029496D02*
X0403390Y0024705D01*
X0398425Y0024705D02*
X0394206Y0024705D01*
X0298033Y0034547D02*
X0250358Y0034547D01*
X0341542Y0022754D02*
X0338189Y0022754D01*
X0310630Y0027854D02*
X0309449Y0029035D01*
X0317416Y0022754D02*
X0315016Y0025154D01*
X0313030Y0025957D02*
X0312598Y0025957D01*
X0359449Y0038091D02*
X0356879Y0038091D01*
X0250358Y0034547D02*
X0245307Y0029496D01*
X0403390Y0024705D02*
X0398425Y0024705D01*
X0338189Y0022754D02*
X0317416Y0022754D01*
X0309449Y0032185D02*
X0307087Y0034547D01*
X0309449Y0029035D02*
X0309449Y0032185D01*
X0307087Y0034547D02*
X0302756Y0034547D01*
X0312598Y0025957D02*
X0312527Y0025957D01*
X0388639Y0030272D02*
X0380821Y0038091D01*
X0440551Y0365256D02*
%LPD*%
G01*
D11*
X0440984Y0373957D03*
D12*
X0442953Y0365689D03*
D13*
X0460275Y0404272D03*
X0468937Y0365689D03*
D14*
X0487047Y0404272D03*
D15*
X0491378Y0365689D03*
D16*
X0494527Y0384980D03*
D17*
X0444921Y0403484D03*
D18*
X0476417Y0402697D03*
X0448071Y0367264D03*
X0452795Y0367264D03*
X0485079Y0367264D03*
D17*
X0441771Y0403484D03*
X0441771Y0400335D03*
X0441771Y0397185D03*
X0441771Y0394036D03*
X0441771Y0390886D03*
X0441771Y0387736D03*
X0441771Y0384587D03*
D17*
X0468937Y0402500D03*
X0453754Y0372160D03*
X0490984Y0402303D03*
X0461850Y0373563D03*
X0492953Y0397185D03*
X0476023Y0387736D03*
X0492559Y0367658D03*
X0453582Y0402500D03*
X0468937Y0373563D03*
X0442953Y0367658D03*
X0461457Y0367264D03*
X0461457Y0402303D03*
X0468937Y0380650D03*
X0468937Y0394823D03*
X0468937Y0387736D03*
X0476417Y0367264D03*
X0461850Y0394823D03*
X0457900Y0381097D03*
X0480354Y0373563D03*
X0480354Y0380650D03*
X0444527Y0382225D03*
X0457520Y0387736D03*
X0484660Y0398428D03*
X0487834Y0396791D03*
X0491378Y0371201D03*
X0492364Y0386162D03*
X0484685Y0401516D03*
D84*
X0457520Y0387736D02*
X0450039Y0387736D01*
X0474055Y0373563D02*
X0480354Y0373563D01*
X0467362Y0384193D02*
X0476811Y0384193D01*
X0461890Y0377106D02*
X0470512Y0377106D01*
X0476811Y0384193D02*
X0480354Y0380650D01*
X0457900Y0381097D02*
X0461890Y0377106D01*
X0457520Y0387736D02*
X0463819Y0387736D01*
X0463819Y0387736D02*
X0467362Y0384193D01*
X0470512Y0377106D02*
X0474055Y0373563D01*
X0450039Y0387736D02*
X0444527Y0382225D01*
D10*
X0472303Y0396595D02*
X0482826Y0396595D01*
X0441772Y0403484D02*
X0446496Y0398760D01*
X0470138Y0398760D02*
X0472303Y0396595D01*
X0446496Y0398760D02*
X0470138Y0398760D01*
X0482826Y0396595D02*
X0484660Y0398428D01*
X0486260Y0395217D02*
X0471732Y0395217D01*
X0471732Y0395217D02*
X0469567Y0397382D01*
X0469567Y0397382D02*
X0444724Y0397382D01*
X0487834Y0396791D02*
X0486260Y0395217D01*
X0444724Y0397382D02*
X0441772Y0400335D01*
X0491378Y0383799D02*
X0484291Y0390886D01*
X0448071Y0390886D02*
X0441771Y0384587D01*
X0484291Y0390886D02*
X0448071Y0390886D01*
X0491378Y0371201D02*
X0491378Y0383799D01*
X0446693Y0392264D02*
X0441771Y0397185D01*
X0486262Y0392264D02*
X0446693Y0392264D01*
X0492364Y0386162D02*
X0486262Y0392264D01*
X0481142Y0397973D02*
X0472874Y0397973D01*
X0470708Y0400138D02*
X0448268Y0400138D01*
X0484685Y0401516D02*
X0481142Y0397973D01*
X0448268Y0400138D02*
X0444921Y0403484D01*
X0472874Y0397973D02*
X0470708Y0400138D01*
G36*
X0483944Y0389822D02*
G01*
X0484026Y0389757D01*
X0490249Y0383534D01*
X0490380Y0383292D01*
X0490392Y0383189D01*
X0490392Y0372940D01*
X0490314Y0372676D01*
X0490223Y0372571D01*
X0490204Y0372555D01*
X0489870Y0372170D01*
X0489870Y0372170D01*
X0489659Y0371706D01*
X0489586Y0371201D01*
X0489659Y0370696D01*
X0489870Y0370232D01*
X0489870Y0370232D01*
X0490204Y0369847D01*
X0490633Y0369571D01*
X0491123Y0369427D01*
X0491123Y0369427D01*
X0491123Y0369427D01*
X0491633Y0369427D01*
X0491633Y0369427D01*
X0492122Y0369571D01*
X0492551Y0369847D01*
X0492885Y0370232D01*
X0493097Y0370696D01*
X0493170Y0371201D01*
X0493097Y0371706D01*
X0492885Y0372170D01*
X0492551Y0372555D01*
X0492551Y0372555D01*
X0492551Y0372555D01*
X0492533Y0372571D01*
X0492384Y0372803D01*
X0492364Y0372940D01*
X0492364Y0383654D01*
X0492373Y0383749D01*
X0492383Y0383799D01*
X0492373Y0383852D01*
X0492397Y0384126D01*
X0492566Y0384343D01*
X0492714Y0384416D01*
X0492853Y0384457D01*
X0493108Y0384532D01*
X0493537Y0384807D01*
X0493537Y0384807D01*
X0493670Y0384961D01*
X0493902Y0385109D01*
X0494177Y0385109D01*
X0494408Y0384961D01*
X0494522Y0384710D01*
X0494527Y0384641D01*
X0494527Y0366177D01*
X0494450Y0365913D01*
X0494242Y0365733D01*
X0494039Y0365689D01*
X0488323Y0365689D01*
X0488059Y0365767D01*
X0487879Y0365974D01*
X0487834Y0366177D01*
X0487834Y0370020D01*
X0482323Y0370020D01*
X0482323Y0366177D01*
X0482245Y0365913D01*
X0482037Y0365733D01*
X0481834Y0365689D01*
X0456039Y0365689D01*
X0455775Y0365767D01*
X0455595Y0365974D01*
X0455551Y0366177D01*
X0455551Y0370020D01*
X0445315Y0370020D01*
X0445315Y0366177D01*
X0445237Y0365913D01*
X0445029Y0365733D01*
X0444827Y0365689D01*
X0441472Y0365689D01*
X0441208Y0365767D01*
X0441028Y0365974D01*
X0440984Y0366177D01*
X0440984Y0382130D01*
X0441062Y0382394D01*
X0441269Y0382574D01*
X0441472Y0382618D01*
X0441853Y0382618D01*
X0442117Y0382541D01*
X0442297Y0382333D01*
X0442333Y0382182D01*
X0442335Y0382183D01*
X0442442Y0381563D01*
X0442442Y0381563D01*
X0442698Y0381025D01*
X0442698Y0381025D01*
X0442830Y0380873D01*
X0443090Y0380576D01*
X0443588Y0380249D01*
X0444156Y0380069D01*
X0444751Y0380048D01*
X0445330Y0380189D01*
X0445849Y0380481D01*
X0446241Y0380873D01*
X0455723Y0380873D01*
X0455864Y0380294D01*
X0455864Y0380294D01*
X0456156Y0379775D01*
X0456156Y0379775D01*
X0456855Y0379076D01*
X0460331Y0375600D01*
X0460509Y0375409D01*
X0460658Y0375319D01*
X0460679Y0375305D01*
X0460818Y0375199D01*
X0460883Y0375174D01*
X0460958Y0375137D01*
X0461018Y0375100D01*
X0461186Y0375053D01*
X0461210Y0375045D01*
X0461372Y0374981D01*
X0461442Y0374974D01*
X0461524Y0374958D01*
X0461592Y0374939D01*
X0461766Y0374939D01*
X0461791Y0374938D01*
X0461964Y0374920D01*
X0462034Y0374932D01*
X0462117Y0374939D01*
X0469412Y0374939D01*
X0469676Y0374862D01*
X0469757Y0374796D01*
X0472496Y0372057D01*
X0472674Y0371866D01*
X0472823Y0371776D01*
X0472844Y0371761D01*
X0472983Y0371656D01*
X0473048Y0371630D01*
X0473123Y0371593D01*
X0473183Y0371557D01*
X0473351Y0371509D01*
X0473375Y0371502D01*
X0473537Y0371438D01*
X0473607Y0371430D01*
X0473689Y0371415D01*
X0473757Y0371396D01*
X0473931Y0371396D01*
X0473956Y0371394D01*
X0474130Y0371377D01*
X0474199Y0371389D01*
X0474282Y0371396D01*
X0480502Y0371396D01*
X0480641Y0371415D01*
X0480944Y0371457D01*
X0481404Y0371656D01*
X0481491Y0371694D01*
X0481491Y0371694D01*
X0481491Y0371694D01*
X0481953Y0372070D01*
X0482297Y0372557D01*
X0482339Y0372676D01*
X0482496Y0373118D01*
X0482496Y0373118D01*
X0482496Y0373118D01*
X0482537Y0373712D01*
X0482537Y0373712D01*
X0482416Y0374296D01*
X0482416Y0374296D01*
X0482416Y0374296D01*
X0482141Y0374825D01*
X0482141Y0374825D01*
X0482141Y0374825D01*
X0481735Y0375260D01*
X0481425Y0375448D01*
X0481226Y0375570D01*
X0480652Y0375730D01*
X0480652Y0375730D01*
X0475155Y0375730D01*
X0474891Y0375808D01*
X0474810Y0375873D01*
X0472070Y0378613D01*
X0471949Y0378743D01*
X0471892Y0378803D01*
X0471843Y0378833D01*
X0471743Y0378894D01*
X0471723Y0378908D01*
X0471584Y0379013D01*
X0471584Y0379013D01*
X0471518Y0379039D01*
X0471444Y0379076D01*
X0471383Y0379113D01*
X0471215Y0379160D01*
X0471192Y0379168D01*
X0471030Y0379232D01*
X0471030Y0379232D01*
X0470959Y0379239D01*
X0470878Y0379255D01*
X0470810Y0379274D01*
X0470810Y0379274D01*
X0470635Y0379274D01*
X0470610Y0379275D01*
X0470502Y0379286D01*
X0470437Y0379293D01*
X0470437Y0379293D01*
X0470367Y0379281D01*
X0470284Y0379274D01*
X0462990Y0379274D01*
X0462726Y0379351D01*
X0462645Y0379417D01*
X0459327Y0382734D01*
X0459327Y0382734D01*
X0458972Y0383004D01*
X0458972Y0383004D01*
X0458417Y0383222D01*
X0457825Y0383283D01*
X0457825Y0383283D01*
X0457238Y0383182D01*
X0457238Y0383182D01*
X0456700Y0382926D01*
X0456700Y0382926D01*
X0456251Y0382534D01*
X0455924Y0382036D01*
X0455744Y0381468D01*
X0455744Y0381468D01*
X0455723Y0380873D01*
X0455723Y0380873D01*
X0446241Y0380873D01*
X0450794Y0385426D01*
X0451035Y0385558D01*
X0451139Y0385569D01*
X0457222Y0385569D01*
X0462719Y0385569D01*
X0462983Y0385491D01*
X0463064Y0385426D01*
X0465803Y0382687D01*
X0465981Y0382496D01*
X0466130Y0382405D01*
X0466151Y0382391D01*
X0466290Y0382286D01*
X0466356Y0382260D01*
X0466430Y0382223D01*
X0466490Y0382186D01*
X0466658Y0382139D01*
X0466682Y0382131D01*
X0466705Y0382122D01*
X0466844Y0382068D01*
X0466914Y0382060D01*
X0466996Y0382045D01*
X0467064Y0382026D01*
X0467238Y0382026D01*
X0467263Y0382024D01*
X0467437Y0382007D01*
X0467506Y0382019D01*
X0467589Y0382026D01*
X0475711Y0382026D01*
X0475975Y0381948D01*
X0476056Y0381883D01*
X0477645Y0380294D01*
X0478926Y0379012D01*
X0479282Y0378743D01*
X0479836Y0378524D01*
X0480429Y0378463D01*
X0480885Y0378542D01*
X0481016Y0378564D01*
X0481016Y0378565D01*
X0481016Y0378565D01*
X0481554Y0378820D01*
X0482003Y0379212D01*
X0482330Y0379710D01*
X0482510Y0380278D01*
X0482530Y0380873D01*
X0482494Y0381025D01*
X0482389Y0381452D01*
X0482097Y0381972D01*
X0478370Y0385699D01*
X0478191Y0385890D01*
X0478056Y0385973D01*
X0478043Y0385981D01*
X0478022Y0385995D01*
X0477883Y0386100D01*
X0477883Y0386100D01*
X0477817Y0386126D01*
X0477743Y0386163D01*
X0477682Y0386200D01*
X0477515Y0386247D01*
X0477491Y0386255D01*
X0477329Y0386319D01*
X0477329Y0386319D01*
X0477259Y0386326D01*
X0477177Y0386341D01*
X0477109Y0386360D01*
X0477109Y0386360D01*
X0476934Y0386360D01*
X0476910Y0386362D01*
X0476801Y0386373D01*
X0476736Y0386379D01*
X0476736Y0386379D01*
X0476667Y0386367D01*
X0476584Y0386360D01*
X0468462Y0386360D01*
X0468198Y0386438D01*
X0468117Y0386503D01*
X0465554Y0389066D01*
X0465422Y0389308D01*
X0465442Y0389582D01*
X0465606Y0389802D01*
X0465864Y0389898D01*
X0465899Y0389900D01*
X0483680Y0389900D01*
X0483944Y0389822D01*
G37*
G36*
X0473437Y0404194D02*
G01*
X0473617Y0403986D01*
X0473661Y0403784D01*
X0473661Y0399941D01*
X0479173Y0399941D01*
X0479173Y0403784D01*
X0479251Y0404047D01*
X0479458Y0404228D01*
X0479661Y0404272D01*
X0494039Y0404272D01*
X0494303Y0404194D01*
X0494483Y0403986D01*
X0494527Y0403784D01*
X0494527Y0387682D01*
X0494450Y0387418D01*
X0494242Y0387238D01*
X0493970Y0387199D01*
X0493719Y0387313D01*
X0493670Y0387362D01*
X0493537Y0387516D01*
X0493537Y0387516D01*
X0493537Y0387516D01*
X0493108Y0387791D01*
X0493108Y0387791D01*
X0493108Y0387791D01*
X0492619Y0387935D01*
X0492619Y0387935D01*
X0492187Y0387935D01*
X0491923Y0388013D01*
X0491842Y0388078D01*
X0487062Y0392859D01*
X0487001Y0392933D01*
X0486973Y0392975D01*
X0486764Y0393114D01*
X0486646Y0393193D01*
X0486646Y0393193D01*
X0486646Y0393193D01*
X0486301Y0393262D01*
X0486264Y0393281D01*
X0486221Y0393261D01*
X0486220Y0393261D01*
X0486212Y0393260D01*
X0486116Y0393250D01*
X0471858Y0393250D01*
X0471736Y0393286D01*
X0471650Y0393252D01*
X0471607Y0393250D01*
X0447303Y0393250D01*
X0447040Y0393328D01*
X0446958Y0393393D01*
X0444789Y0395562D01*
X0444657Y0395804D01*
X0444677Y0396078D01*
X0444842Y0396298D01*
X0445099Y0396395D01*
X0445134Y0396396D01*
X0468956Y0396396D01*
X0469220Y0396318D01*
X0469301Y0396253D01*
X0470932Y0394622D01*
X0470993Y0394548D01*
X0471021Y0394506D01*
X0471021Y0394506D01*
X0471021Y0394506D01*
X0471230Y0394366D01*
X0471347Y0394288D01*
X0471347Y0394288D01*
X0471348Y0394288D01*
X0471702Y0394217D01*
X0471721Y0394207D01*
X0471762Y0394217D01*
X0471782Y0394221D01*
X0471878Y0394230D01*
X0486114Y0394230D01*
X0486210Y0394221D01*
X0486213Y0394220D01*
X0486220Y0394219D01*
X0486257Y0394200D01*
X0486301Y0394219D01*
X0486644Y0394288D01*
X0486762Y0394366D01*
X0486971Y0394506D01*
X0486999Y0394548D01*
X0487060Y0394622D01*
X0487313Y0394875D01*
X0487554Y0395007D01*
X0487658Y0395018D01*
X0488090Y0395018D01*
X0488090Y0395018D01*
X0488579Y0395162D01*
X0489008Y0395437D01*
X0489342Y0395823D01*
X0489554Y0396287D01*
X0489626Y0396791D01*
X0489554Y0397296D01*
X0489342Y0397760D01*
X0489008Y0398146D01*
X0488579Y0398421D01*
X0488579Y0398421D01*
X0488579Y0398421D01*
X0488090Y0398565D01*
X0488090Y0398565D01*
X0487579Y0398565D01*
X0487579Y0398565D01*
X0487090Y0398421D01*
X0487085Y0398419D01*
X0487080Y0398418D01*
X0487057Y0398412D01*
X0487056Y0398415D01*
X0486813Y0398380D01*
X0486563Y0398494D01*
X0486414Y0398726D01*
X0486399Y0398794D01*
X0486379Y0398933D01*
X0486367Y0398959D01*
X0486167Y0399397D01*
X0486167Y0399397D01*
X0486167Y0399397D01*
X0485959Y0399638D01*
X0485844Y0399888D01*
X0485883Y0400160D01*
X0485959Y0400277D01*
X0486192Y0400547D01*
X0486192Y0400547D01*
X0486192Y0400547D01*
X0486404Y0401011D01*
X0486477Y0401516D01*
X0486404Y0402021D01*
X0486192Y0402485D01*
X0485858Y0402870D01*
X0485429Y0403146D01*
X0485429Y0403146D01*
X0485429Y0403146D01*
X0484940Y0403289D01*
X0484940Y0403289D01*
X0484430Y0403289D01*
X0484430Y0403289D01*
X0483941Y0403146D01*
X0483940Y0403146D01*
X0483940Y0403146D01*
X0483739Y0403016D01*
X0483511Y0402870D01*
X0483177Y0402485D01*
X0483177Y0402485D01*
X0482966Y0402021D01*
X0482893Y0401516D01*
X0482893Y0401516D01*
X0482908Y0401410D01*
X0482869Y0401138D01*
X0482770Y0400996D01*
X0480876Y0399102D01*
X0480635Y0398970D01*
X0480531Y0398959D01*
X0473485Y0398959D01*
X0473221Y0399036D01*
X0473139Y0399102D01*
X0473133Y0399108D01*
X0473021Y0399313D01*
X0472853Y0399390D01*
X0472828Y0399413D01*
X0471509Y0400733D01*
X0471448Y0400807D01*
X0471420Y0400849D01*
X0471177Y0401011D01*
X0471093Y0401067D01*
X0471093Y0401067D01*
X0470708Y0401143D01*
X0470708Y0401143D01*
X0470659Y0401133D01*
X0470563Y0401124D01*
X0448878Y0401124D01*
X0448614Y0401202D01*
X0448533Y0401267D01*
X0447033Y0402768D01*
X0446901Y0403009D01*
X0446890Y0403113D01*
X0446890Y0403784D01*
X0446967Y0404047D01*
X0447175Y0404228D01*
X0447378Y0404272D01*
X0473173Y0404272D01*
X0473437Y0404194D01*
G37*
X0089764Y0124705D02*
G01*
G75*
G36*
X0124984Y0137107D02*
X0124352Y0136981D01*
X0123636Y0136502D01*
X0123532Y0136346D01*
X0119034Y0136346D01*
X0118496Y0136239D01*
X0118040Y0135935D01*
X0117665Y0135560D01*
X0117020Y0135750D01*
X0116701Y0136228D01*
X0116115Y0136619D01*
X0115424Y0136757D01*
X0114733Y0136619D01*
X0114147Y0136228D01*
X0113755Y0135642D01*
X0113618Y0134951D01*
X0113755Y0134259D01*
X0113939Y0133984D01*
X0113623Y0133393D01*
X0112192Y0133393D01*
X0111909Y0133676D01*
X0111453Y0133981D01*
X0110916Y0134088D01*
X0107223Y0134088D01*
X0106828Y0134352D01*
X0106137Y0134489D01*
X0105446Y0134352D01*
X0104860Y0133960D01*
X0104468Y0133374D01*
X0104331Y0132683D01*
X0104468Y0131992D01*
X0104860Y0131406D01*
X0105446Y0131014D01*
X0106137Y0130877D01*
X0106828Y0131014D01*
X0107223Y0131278D01*
X0110334Y0131278D01*
X0110617Y0130995D01*
X0111073Y0130690D01*
X0111610Y0130583D01*
X0116081Y0130583D01*
X0116619Y0130690D01*
X0117074Y0130995D01*
X0119615Y0133536D01*
X0123532Y0133536D01*
X0123636Y0133380D01*
X0124352Y0132901D01*
X0125197Y0132733D01*
X0125197Y0129669D01*
X0124352Y0129501D01*
X0123636Y0129022D01*
X0123157Y0128306D01*
X0122989Y0127461D01*
X0123157Y0126616D01*
X0123636Y0125900D01*
X0124352Y0125421D01*
X0124984Y0125296D01*
X0124925Y0124705D01*
X0089764Y0124705D01*
X0089764Y0128927D01*
X0090257Y0129244D01*
X0090812Y0129010D01*
X0090715Y0128523D01*
X0090853Y0127832D01*
X0091244Y0127246D01*
X0091830Y0126854D01*
X0092521Y0126717D01*
X0093213Y0126854D01*
X0093799Y0127246D01*
X0094190Y0127832D01*
X0094328Y0128523D01*
X0094190Y0129214D01*
X0093799Y0129800D01*
X0093379Y0130081D01*
X0093177Y0130323D01*
X0093040Y0130829D01*
X0093153Y0131398D01*
X0092985Y0132243D01*
X0092640Y0132759D01*
X0092552Y0133170D01*
X0092640Y0133580D01*
X0092985Y0134096D01*
X0093153Y0134941D01*
X0092985Y0135786D01*
X0092506Y0136502D01*
X0091790Y0136981D01*
X0091158Y0137107D01*
X0091217Y0137697D01*
X0124926Y0137697D01*
X0124984Y0137107D01*
D02*
G37*
%LPC*%
G36*
X0100630Y0129366D02*
X0099939Y0129228D01*
X0099353Y0128837D01*
X0098961Y0128251D01*
X0098824Y0127559D01*
X0098961Y0126868D01*
X0099353Y0126282D01*
X0099939Y0125890D01*
X0100630Y0125753D01*
X0101321Y0125890D01*
X0101907Y0126282D01*
X0102299Y0126868D01*
X0102437Y0127559D01*
X0102299Y0128251D01*
X0101907Y0128837D01*
X0101321Y0129228D01*
X0100630Y0129366D01*
D02*
G37*
%LPD*%
D44*
X0108071Y0137303D02*
D03*
X0108071Y0125099D02*
D03*
D43*
X0090158Y0127166D02*
D03*
D85*
X0119034Y0134941D02*
X0125197Y0134941D01*
X0111610Y0131988D02*
X0116081Y0131988D01*
X0119034Y0134941D01*
X0106137Y0132683D02*
X0110916Y0132683D01*
X0111610Y0131988D01*
D17*
X0125197Y0134941D02*
D03*
X0125197Y0131201D02*
D03*
X0106137Y0132683D02*
D03*
X0091004Y0125990D02*
D03*
X0103706Y0130552D02*
D03*
X0100967Y0131608D02*
D03*
X0304590Y0168158D02*
G01*
G75*
G36*
X0366671Y0249457D02*
X0365786Y0248946D01*
X0364943Y0248103D01*
X0364347Y0247071D01*
X0364309Y0246929D01*
X0358457Y0246929D01*
X0357842Y0246807D01*
X0357321Y0246459D01*
X0357321Y0246459D01*
X0353692Y0242829D01*
X0338577Y0242829D01*
X0332992Y0248414D01*
X0332471Y0248762D01*
X0331857Y0248884D01*
X0331857Y0248884D01*
X0319746Y0248884D01*
X0319746Y0248884D01*
X0319131Y0248762D01*
X0318610Y0248414D01*
X0313321Y0243125D01*
X0313231Y0243125D01*
X0312508Y0242825D01*
X0312004Y0242321D01*
X0311687Y0242254D01*
X0311373Y0242233D01*
X0311166Y0242591D01*
X0310696Y0243062D01*
X0310340Y0243453D01*
X0310696Y0243845D01*
X0311166Y0244315D01*
X0311762Y0245347D01*
X0312070Y0246499D01*
X0312070Y0247691D01*
X0311762Y0248843D01*
X0311407Y0249457D01*
X0311748Y0250048D01*
X0366513Y0250048D01*
X0366671Y0249457D01*
D02*
G37*
G36*
X0364347Y0243576D02*
X0364943Y0242543D01*
X0365786Y0241700D01*
X0366819Y0241104D01*
X0367970Y0240796D01*
X0369162Y0240796D01*
X0370314Y0241104D01*
X0370929Y0241459D01*
X0371519Y0241118D01*
X0371519Y0224332D01*
X0370929Y0223991D01*
X0370314Y0224345D01*
X0369162Y0224654D01*
X0367970Y0224654D01*
X0366819Y0224345D01*
X0365786Y0223749D01*
X0364943Y0222906D01*
X0364347Y0221874D01*
X0364309Y0221732D01*
X0361594Y0221732D01*
X0345500Y0237826D01*
X0344979Y0238174D01*
X0344364Y0238297D01*
X0344364Y0238297D01*
X0339039Y0238297D01*
X0338308Y0239027D01*
X0338553Y0239618D01*
X0354357Y0239618D01*
X0354357Y0239618D01*
X0354972Y0239740D01*
X0355492Y0240088D01*
X0359122Y0243718D01*
X0364309Y0243718D01*
X0364347Y0243576D01*
D02*
G37*
G36*
X0328788Y0245082D02*
X0328676Y0244812D01*
X0328676Y0244029D01*
X0328963Y0243335D01*
X0329009Y0243164D01*
X0328912Y0242675D01*
X0328855Y0242651D01*
X0328792Y0242588D01*
X0325519Y0242588D01*
X0324904Y0242466D01*
X0324384Y0242118D01*
X0324384Y0242118D01*
X0320083Y0237817D01*
X0319735Y0237296D01*
X0319612Y0236682D01*
X0319612Y0236682D01*
X0319612Y0219616D01*
X0319612Y0219616D01*
X0319735Y0219002D01*
X0320083Y0218481D01*
X0332148Y0206415D01*
X0332148Y0206326D01*
X0332448Y0205602D01*
X0333002Y0205049D01*
X0333725Y0204749D01*
X0334508Y0204749D01*
X0335232Y0205049D01*
X0335786Y0205602D01*
X0336085Y0206326D01*
X0336085Y0207109D01*
X0335786Y0207833D01*
X0335232Y0208386D01*
X0334508Y0208686D01*
X0334419Y0208686D01*
X0332495Y0210610D01*
X0332809Y0211131D01*
X0333264Y0211040D01*
X0364309Y0211040D01*
X0364347Y0210899D01*
X0364943Y0209866D01*
X0365786Y0209023D01*
X0366819Y0208427D01*
X0367970Y0208119D01*
X0369162Y0208119D01*
X0370314Y0208427D01*
X0370929Y0208782D01*
X0371519Y0208441D01*
X0371519Y0199922D01*
X0370929Y0199581D01*
X0370314Y0199936D01*
X0369162Y0200245D01*
X0367970Y0200245D01*
X0366819Y0199936D01*
X0365786Y0199340D01*
X0364943Y0198497D01*
X0364347Y0197465D01*
X0364039Y0196313D01*
X0364039Y0195121D01*
X0364347Y0193969D01*
X0364943Y0192937D01*
X0365786Y0192094D01*
X0366819Y0191498D01*
X0367970Y0191189D01*
X0369162Y0191189D01*
X0370314Y0191498D01*
X0370929Y0191853D01*
X0371519Y0191512D01*
X0371519Y0189416D01*
X0370929Y0188963D01*
X0370701Y0189024D01*
X0369975Y0189024D01*
X0369274Y0188836D01*
X0368646Y0188473D01*
X0368133Y0187960D01*
X0367851Y0187473D01*
X0363691Y0187473D01*
X0357763Y0193401D01*
X0357763Y0203023D01*
X0358283Y0203543D01*
X0358583Y0204267D01*
X0358583Y0205050D01*
X0358283Y0205773D01*
X0357729Y0206327D01*
X0357006Y0206627D01*
X0356223Y0206627D01*
X0355499Y0206327D01*
X0354945Y0205773D01*
X0354646Y0205050D01*
X0354646Y0204267D01*
X0354945Y0203543D01*
X0355354Y0203134D01*
X0355354Y0192902D01*
X0355354Y0192902D01*
X0355446Y0192441D01*
X0355707Y0192050D01*
X0362340Y0185417D01*
X0362341Y0185417D01*
X0362731Y0185156D01*
X0363192Y0185064D01*
X0367851Y0185064D01*
X0368133Y0184576D01*
X0368409Y0184300D01*
X0368133Y0184023D01*
X0367770Y0183395D01*
X0367582Y0182694D01*
X0367582Y0181968D01*
X0367770Y0181268D01*
X0368133Y0180639D01*
X0368646Y0180126D01*
X0369274Y0179763D01*
X0369975Y0179575D01*
X0370701Y0179575D01*
X0370929Y0179636D01*
X0371519Y0179183D01*
X0371519Y0168158D01*
X0309596Y0168158D01*
X0309438Y0168749D01*
X0310323Y0169259D01*
X0311166Y0170102D01*
X0311762Y0171135D01*
X0312070Y0172286D01*
X0312070Y0173478D01*
X0311762Y0174630D01*
X0311166Y0175662D01*
X0310323Y0176505D01*
X0309290Y0177101D01*
X0308139Y0177410D01*
X0306947Y0177410D01*
X0305795Y0177101D01*
X0305181Y0176747D01*
X0304590Y0177087D01*
X0304590Y0216118D01*
X0305181Y0216459D01*
X0305795Y0216104D01*
X0306947Y0215796D01*
X0308139Y0215796D01*
X0309290Y0216104D01*
X0310323Y0216700D01*
X0311166Y0217543D01*
X0311762Y0218576D01*
X0312070Y0219727D01*
X0312070Y0220919D01*
X0311762Y0222071D01*
X0311166Y0223103D01*
X0310323Y0223946D01*
X0309290Y0224542D01*
X0308139Y0224851D01*
X0306947Y0224851D01*
X0305795Y0224542D01*
X0305181Y0224187D01*
X0304590Y0224529D01*
X0304590Y0235606D01*
X0305181Y0235947D01*
X0305795Y0235593D01*
X0306947Y0235284D01*
X0308139Y0235284D01*
X0309290Y0235593D01*
X0310323Y0236189D01*
X0311166Y0237032D01*
X0311762Y0238064D01*
X0312044Y0239116D01*
X0312209Y0239248D01*
X0312295Y0239295D01*
X0312661Y0239424D01*
X0313231Y0239188D01*
X0314015Y0239188D01*
X0314738Y0239487D01*
X0315292Y0240041D01*
X0315591Y0240764D01*
X0315591Y0240854D01*
X0320411Y0245673D01*
X0328393Y0245673D01*
X0328788Y0245082D01*
D02*
G37*
G36*
X0337239Y0235555D02*
X0337239Y0235555D01*
X0337760Y0235207D01*
X0338374Y0235085D01*
X0338374Y0235085D01*
X0343699Y0235085D01*
X0359793Y0218991D01*
X0359793Y0218991D01*
X0360314Y0218643D01*
X0360929Y0218521D01*
X0360929Y0218521D01*
X0364309Y0218521D01*
X0364347Y0218379D01*
X0364943Y0217347D01*
X0365503Y0216787D01*
X0365722Y0216386D01*
X0365503Y0215985D01*
X0364943Y0215426D01*
X0364347Y0214394D01*
X0364309Y0214252D01*
X0333929Y0214252D01*
X0325580Y0222601D01*
X0325580Y0228757D01*
X0325643Y0228821D01*
X0325942Y0229544D01*
X0325942Y0230327D01*
X0325643Y0231051D01*
X0325089Y0231604D01*
X0324365Y0231904D01*
X0323582Y0231904D01*
X0323414Y0231834D01*
X0322824Y0232229D01*
X0322824Y0236016D01*
X0326184Y0239377D01*
X0328792Y0239377D01*
X0328855Y0239314D01*
X0329578Y0239014D01*
X0330361Y0239014D01*
X0331085Y0239314D01*
X0331639Y0239867D01*
X0331771Y0240188D01*
X0332468Y0240326D01*
X0337239Y0235555D01*
D02*
G37*
%LPC*%
G36*
X0359186Y0238903D02*
X0358403Y0238903D01*
X0357679Y0238604D01*
X0357126Y0238050D01*
X0356826Y0237326D01*
X0356826Y0236543D01*
X0357126Y0235820D01*
X0357679Y0235266D01*
X0358403Y0234966D01*
X0359186Y0234966D01*
X0359910Y0235266D01*
X0360463Y0235820D01*
X0360763Y0236543D01*
X0360763Y0237326D01*
X0360463Y0238050D01*
X0359910Y0238604D01*
X0359186Y0238903D01*
D02*
G37*
G36*
X0313249Y0228988D02*
X0312466Y0228988D01*
X0311743Y0228688D01*
X0311189Y0228134D01*
X0310889Y0227411D01*
X0310889Y0226627D01*
X0311189Y0225904D01*
X0311743Y0225350D01*
X0312466Y0225051D01*
X0312839Y0225051D01*
X0315390Y0222500D01*
X0315390Y0200828D01*
X0312839Y0198278D01*
X0312466Y0198278D01*
X0311743Y0197978D01*
X0311189Y0197424D01*
X0310889Y0196701D01*
X0310889Y0195918D01*
X0311189Y0195194D01*
X0311743Y0194640D01*
X0312466Y0194341D01*
X0313249Y0194341D01*
X0313973Y0194640D01*
X0314527Y0195194D01*
X0314826Y0195918D01*
X0314826Y0196291D01*
X0317788Y0199253D01*
X0318093Y0199708D01*
X0318200Y0200246D01*
X0318200Y0223082D01*
X0318093Y0223620D01*
X0317788Y0224076D01*
X0314826Y0227038D01*
X0314826Y0227411D01*
X0314527Y0228134D01*
X0313973Y0228688D01*
X0313249Y0228988D01*
D02*
G37*
G36*
X0333722Y0188630D02*
X0332939Y0188630D01*
X0332215Y0188331D01*
X0331661Y0187777D01*
X0331362Y0187053D01*
X0331362Y0186270D01*
X0331661Y0185547D01*
X0332215Y0184993D01*
X0332939Y0184693D01*
X0333722Y0184693D01*
X0334445Y0184993D01*
X0334999Y0185547D01*
X0335299Y0186270D01*
X0335299Y0187053D01*
X0334999Y0187777D01*
X0334445Y0188331D01*
X0333722Y0188630D01*
D02*
G37*
G36*
X0308919Y0186458D02*
X0308135Y0186458D01*
X0307412Y0186158D01*
X0306858Y0185605D01*
X0306559Y0184881D01*
X0306559Y0184098D01*
X0306858Y0183375D01*
X0307412Y0182821D01*
X0308135Y0182521D01*
X0308919Y0182521D01*
X0309642Y0182821D01*
X0310196Y0183375D01*
X0310496Y0184098D01*
X0310496Y0184881D01*
X0310196Y0185605D01*
X0309642Y0186158D01*
X0308919Y0186458D01*
D02*
G37*
%LPD*%
D10*
X0356558Y0192902D02*
X0356558Y0204602D01*
X0356614Y0204658D01*
X0363192Y0186268D02*
X0370338Y0186268D01*
X0356558Y0192902D02*
X0363192Y0186268D01*
D85*
X0321218Y0219616D02*
X0334117Y0206718D01*
X0323974Y0221936D02*
X0333264Y0212646D01*
X0323974Y0221936D02*
X0323974Y0229936D01*
X0333264Y0212646D02*
X0368566Y0212646D01*
X0321218Y0219616D02*
X0321218Y0236682D01*
X0313623Y0241156D02*
X0319746Y0247279D01*
X0331857Y0247279D01*
X0321218Y0236682D02*
X0325519Y0240983D01*
X0329970Y0240983D01*
X0338374Y0236691D02*
X0344364Y0236691D01*
X0330644Y0244420D02*
X0338374Y0236691D01*
X0354357Y0241224D02*
X0358457Y0245323D01*
X0368566Y0245323D01*
X0344364Y0236691D02*
X0360929Y0220126D01*
X0368566Y0220126D01*
X0337912Y0241224D02*
X0354357Y0241224D01*
X0331857Y0247279D02*
X0337912Y0241224D01*
D88*
X0316795Y0200246D02*
X0316795Y0223082D01*
X0312858Y0227019D02*
X0316795Y0223082D01*
X0312858Y0196309D02*
X0316795Y0200246D01*
X0312858Y0196309D02*
X0312858Y0196309D01*
D39*
X0371125Y0177213D02*
D03*
D41*
X0371125Y0190205D02*
D03*
D193*
X0304984Y0196701D02*
D03*
D34*
X0338055Y0168552D02*
D03*
D42*
X0371125Y0232922D02*
D03*
D38*
X0371125Y0203985D02*
D03*
D40*
X0304984Y0230166D02*
D03*
D35*
X0341204Y0249654D02*
D03*
D37*
X0304984Y0168749D02*
D03*
X0371125Y0249457D02*
D03*
D17*
X0370338Y0186268D02*
D03*
X0369935Y0190187D02*
D03*
X0356614Y0204658D02*
D03*
X0356165Y0186268D02*
D03*
X0362958Y0200763D02*
D03*
X0362966Y0191912D02*
D03*
X0334117Y0206718D02*
D03*
X0340005Y0216697D02*
D03*
X0337256Y0201125D02*
D03*
X0310102Y0204575D02*
D03*
X0314039Y0201623D02*
D03*
X0334441Y0229693D02*
D03*
X0355681Y0181938D02*
D03*
X0342996Y0176420D02*
D03*
X0363523Y0183267D02*
D03*
X0312796Y0176351D02*
D03*
X0315515Y0169986D02*
D03*
X0325259Y0169986D02*
D03*
X0360316Y0170907D02*
D03*
X0364289Y0175212D02*
D03*
X0356009Y0217122D02*
D03*
X0361283Y0205560D02*
D03*
X0367188Y0203591D02*
D03*
X0367188Y0239024D02*
D03*
X0363251Y0233119D02*
D03*
X0367188Y0227213D02*
D03*
X0359314Y0240993D02*
D03*
X0317708Y0234807D02*
D03*
X0309313Y0232480D02*
D03*
X0308133Y0227213D02*
D03*
X0308133Y0211465D02*
D03*
X0308133Y0199654D02*
D03*
X0310102Y0193749D02*
D03*
X0308133Y0187843D02*
D03*
X0313623Y0241156D02*
D03*
X0323974Y0229936D02*
D03*
X0330644Y0244420D02*
D03*
X0329970Y0240983D02*
D03*
X0314944Y0180202D02*
D03*
X0342996Y0170127D02*
D03*
X0349472Y0236268D02*
D03*
X0337661Y0226811D02*
D03*
X0312858Y0227019D02*
D03*
X0312858Y0196309D02*
D03*
X0348192Y0226063D02*
D03*
X0359314Y0227213D02*
D03*
X0360424Y0178380D02*
D03*
X0338933Y0248583D02*
D03*
X0327485Y0176408D02*
D03*
X0329787Y0201623D02*
D03*
X0327031Y0243748D02*
D03*
X0338512Y0244520D02*
D03*
X0333812Y0169986D02*
D03*
X0356434Y0174696D02*
D03*
D33*
X0368566Y0220126D02*
D03*
X0368566Y0245323D02*
D03*
X0368566Y0212646D02*
D03*
X0368566Y0171111D02*
D03*
X0067106Y0260650D02*
%LPD*%
G01*
D150*
X0078720Y0169469D03*
X0090531Y0177343D03*
X0078720Y0185217D03*
D24*
X0073602Y0153760D03*
X0085413Y0153760D03*
X0081476Y0153760D03*
X0077539Y0153760D03*
D31*
X0121929Y0206122D03*
D106*
X0079704Y0259961D03*
D27*
X0103169Y0259961D03*
D31*
X0067795Y0206122D03*
D30*
X0120256Y0259961D03*
X0120256Y0259961D03*
D105*
X0105197Y0152284D03*
D32*
X0069173Y0152284D03*
D24*
X0111594Y0258450D03*
X0107657Y0258450D03*
X0094681Y0258450D03*
X0098681Y0258450D03*
X0115531Y0258450D03*
D237*
X0116811Y0166989D03*
D238*
X0116811Y0176989D03*
X0116811Y0186989D03*
D17*
X0103523Y0257894D03*
X0069075Y0198150D03*
X0086143Y0161349D03*
X0121100Y0227087D03*
X0121043Y0244311D03*
X0100732Y0218130D03*
X0069862Y0257894D03*
X0090925Y0259075D03*
X0100374Y0186831D03*
X0101993Y0251175D03*
X0085471Y0242638D03*
X0118681Y0160945D03*
X0080098Y0190629D03*
X0118484Y0153071D03*
X0070256Y0239882D03*
X0068582Y0156122D03*
X0077147Y0205138D03*
X0068654Y0163524D03*
X0069862Y0235059D03*
X0115456Y0196080D03*
X0090137Y0207304D03*
X0097835Y0242679D03*
X0077933Y0225414D03*
X0068878Y0217933D03*
X0097716Y0237225D03*
X0069173Y0210059D03*
X0110651Y0208209D03*
X0121301Y0195828D03*
X0114677Y0243851D03*
X0120227Y0258331D03*
X0104112Y0209902D03*
X0117147Y0201870D03*
X0110590Y0211312D03*
X0078228Y0237815D03*
X0117902Y0253463D03*
X0070649Y0245337D03*
X0085019Y0190589D03*
X0108190Y0237126D03*
X0089744Y0212198D03*
X0087677Y0255001D03*
X0073364Y0248257D03*
X0077088Y0190629D03*
X0089096Y0190629D03*
X0100137Y0206713D03*
X0074078Y0190629D03*
X0098208Y0184272D03*
X0106890Y0205178D03*
X0114138Y0201952D03*
X0097322Y0217348D03*
X0114350Y0156319D03*
X0085216Y0158485D03*
X0094222Y0191327D03*
X0111092Y0214280D03*
X0071067Y0190629D03*
X0076315Y0208031D03*
X0095988Y0222514D03*
X0098309Y0220192D03*
X0114547Y0159469D03*
X0119112Y0193171D03*
X0090375Y0220196D03*
X0091113Y0239074D03*
X0105376Y0220215D03*
X0108975Y0250259D03*
X0084567Y0255003D03*
X0090611Y0236044D03*
X0082692Y0249625D03*
X0102695Y0191789D03*
X0110905Y0243426D03*
X0084475Y0202126D03*
X0108740Y0155040D03*
X0105984Y0158091D03*
X0108740Y0158091D03*
X0103228Y0158091D03*
X0105984Y0155040D03*
X0071768Y0255564D03*
X0112465Y0195737D03*
D92*
X0110130Y0216792D02*
X0104112Y0210774D01*
X0117147Y0201870D02*
X0117185Y0201908D01*
X0117185Y0213485D02*
X0113878Y0216792D01*
X0104112Y0210774D02*
X0104112Y0209902D01*
X0117185Y0201908D02*
X0117185Y0213485D01*
X0113878Y0216792D02*
X0110130Y0216792D01*
X0081476Y0161190D02*
X0081476Y0153760D01*
X0113563Y0205768D02*
X0108721Y0200927D01*
X0108721Y0200927D02*
X0108721Y0188435D01*
X0113563Y0210296D02*
X0113563Y0205768D01*
X0108721Y0188435D02*
X0081476Y0161190D01*
X0110590Y0211312D02*
X0112546Y0211312D01*
X0112546Y0211312D02*
X0113563Y0210296D01*
X0108149Y0237085D02*
X0108149Y0219685D01*
X0085019Y0194016D02*
X0080334Y0198702D01*
X0107756Y0258485D02*
X0107657Y0258485D01*
X0108248Y0244054D02*
X0112854Y0248660D01*
X0098130Y0209666D02*
X0080492Y0209666D01*
X0112777Y0253463D02*
X0107756Y0258485D01*
X0108190Y0237126D02*
X0108248Y0237184D01*
X0080334Y0229509D02*
X0078228Y0231615D01*
X0080334Y0198702D02*
X0080334Y0229509D01*
X0078228Y0231615D02*
X0078228Y0237815D01*
X0112854Y0248660D02*
X0112854Y0253524D01*
X0117902Y0253463D02*
X0112777Y0253463D01*
X0108149Y0219685D02*
X0098130Y0209666D01*
X0070649Y0245337D02*
X0070805Y0245337D01*
X0085019Y0190589D02*
X0085019Y0194016D01*
X0078228Y0237914D02*
X0078228Y0237815D01*
X0108190Y0237126D02*
X0108149Y0237085D01*
X0070805Y0245337D02*
X0078228Y0237914D01*
X0108248Y0237184D02*
X0108248Y0244054D01*
X0089744Y0212198D02*
X0087156Y0214786D01*
X0085267Y0247067D02*
X0074554Y0247067D01*
X0094567Y0248111D02*
X0087677Y0255001D01*
X0092697Y0226398D02*
X0094567Y0228268D01*
X0087156Y0240713D02*
X0087794Y0241351D01*
X0074554Y0247067D02*
X0073364Y0248257D01*
X0092697Y0215151D02*
X0092697Y0226398D01*
X0087794Y0241351D02*
X0087794Y0244541D01*
X0087156Y0214786D02*
X0087156Y0240713D01*
X0089744Y0212198D02*
X0092697Y0215151D01*
X0087794Y0244541D02*
X0085267Y0247067D01*
X0094567Y0228268D02*
X0094567Y0248111D01*
X0094998Y0204744D02*
X0083149Y0204744D01*
X0081968Y0203563D02*
X0081968Y0201103D01*
X0096966Y0206713D02*
X0094998Y0204744D01*
X0083149Y0204744D02*
X0081968Y0203563D01*
X0089096Y0193975D02*
X0089096Y0190629D01*
X0100137Y0206713D02*
X0096966Y0206713D01*
X0081968Y0201103D02*
X0089096Y0193975D01*
X0097913Y0184567D02*
X0084724Y0184567D01*
X0098208Y0184272D02*
X0097913Y0184567D01*
X0074078Y0183796D02*
X0074078Y0190629D01*
X0076555Y0181319D02*
X0074078Y0183796D01*
X0081476Y0181319D02*
X0076555Y0181319D01*
X0106890Y0205178D02*
X0106949Y0205119D01*
X0106949Y0188973D02*
X0102247Y0184272D01*
X0106949Y0205119D02*
X0106949Y0188973D01*
X0084724Y0184567D02*
X0081476Y0181319D01*
X0102247Y0184272D02*
X0098208Y0184272D01*
X0108801Y0161930D02*
X0100571Y0161930D01*
X0114350Y0156319D02*
X0114350Y0156380D01*
X0097126Y0158485D02*
X0085216Y0158485D01*
X0114350Y0156380D02*
X0108801Y0161930D01*
X0100571Y0161930D02*
X0097126Y0158485D01*
X0106664Y0208672D02*
X0104567Y0206576D01*
X0104567Y0204215D02*
X0105018Y0203764D01*
X0105018Y0190019D02*
X0104094Y0189095D01*
X0109930Y0214280D02*
X0106664Y0211014D01*
X0101850Y0189095D02*
X0099618Y0191327D01*
X0105018Y0203764D02*
X0105018Y0190019D01*
X0106664Y0211014D02*
X0106664Y0208672D01*
X0104094Y0189095D02*
X0101850Y0189095D01*
X0104567Y0206576D02*
X0104567Y0204215D01*
X0111092Y0214280D02*
X0109930Y0214280D01*
X0099618Y0191327D02*
X0094222Y0191327D01*
X0072027Y0203744D02*
X0072027Y0195689D01*
X0076315Y0208031D02*
X0072027Y0203744D01*
X0072027Y0195689D02*
X0071067Y0194729D01*
X0071067Y0194729D02*
X0071067Y0190629D01*
X0110356Y0190002D02*
X0110356Y0187758D01*
X0109724Y0187126D02*
X0109724Y0164292D01*
X0113558Y0193205D02*
X0110356Y0190002D01*
X0119079Y0193205D02*
X0113558Y0193205D01*
X0119112Y0193171D02*
X0119079Y0193205D01*
X0110356Y0187758D02*
X0109724Y0187126D01*
X0109724Y0164292D02*
X0114547Y0159469D01*
X0090375Y0226439D02*
X0092932Y0228996D01*
X0092932Y0228996D02*
X0092932Y0237255D01*
X0090375Y0220196D02*
X0090375Y0226439D01*
X0092932Y0237255D02*
X0091113Y0239074D01*
X0108975Y0250259D02*
X0108975Y0247092D01*
X0104820Y0242937D02*
X0104820Y0220101D01*
X0108975Y0247092D02*
X0104820Y0242937D01*
X0088790Y0237865D02*
X0088790Y0240036D01*
X0089428Y0245218D02*
X0085021Y0249625D01*
D102*
X0082692Y0249625D02*
X0082692Y0253500D01*
D92*
X0085021Y0249625D02*
X0082692Y0249625D01*
X0090611Y0236044D02*
X0088790Y0237865D01*
D102*
X0082692Y0253500D02*
X0084195Y0255003D01*
D92*
X0089428Y0240674D02*
X0089428Y0245218D01*
X0088790Y0240036D02*
X0089428Y0240674D01*
X0102933Y0207442D02*
X0101791Y0208584D01*
X0084633Y0202284D02*
X0101850Y0202284D01*
X0101791Y0208584D02*
X0101791Y0211016D01*
X0102047Y0192437D02*
X0102047Y0202481D01*
X0101791Y0211016D02*
X0110905Y0220130D01*
X0110905Y0220130D02*
X0110905Y0243426D01*
X0101850Y0202284D02*
X0102047Y0202481D01*
X0102695Y0191789D02*
X0102047Y0192437D01*
X0084475Y0202126D02*
X0084633Y0202284D01*
X0102933Y0203367D02*
X0102933Y0207442D01*
X0102047Y0202481D02*
X0102933Y0203367D01*
X0076161Y0252776D02*
X0079015Y0252776D01*
X0073373Y0255564D02*
X0076161Y0252776D01*
X0095566Y0255335D02*
X0098681Y0258450D01*
X0071768Y0255564D02*
X0073373Y0255564D01*
X0089130Y0257326D02*
X0091122Y0255335D01*
X0079015Y0252776D02*
X0083566Y0257326D01*
X0083566Y0257326D02*
X0089130Y0257326D01*
X0091122Y0255335D02*
X0095566Y0255335D01*
X0117578Y0256359D02*
X0115610Y0258327D01*
X0117460Y0248012D02*
X0120295Y0250846D01*
X0120019Y0214469D02*
X0117460Y0217028D01*
X0120295Y0250846D02*
X0120295Y0255036D01*
X0112465Y0195737D02*
X0112465Y0196375D01*
X0120295Y0255036D02*
X0118972Y0256359D01*
X0120019Y0200729D02*
X0120019Y0214469D01*
X0115610Y0258327D02*
X0115531Y0258327D01*
X0118972Y0256359D02*
X0117578Y0256359D01*
X0114969Y0198878D02*
X0118169Y0198878D01*
X0117460Y0217028D02*
X0117460Y0248012D01*
X0112465Y0196375D02*
X0114969Y0198878D01*
X0118169Y0198878D02*
X0120019Y0200729D01*
G36*
X0103311Y0187148D02*
G01*
X0101831Y0185668D01*
X0101616Y0185558D01*
X0101555Y0185554D01*
X0099882Y0185554D01*
X0099653Y0185628D01*
X0099624Y0185651D01*
X0099301Y0185936D01*
X0098790Y0186176D01*
X0098763Y0186180D01*
X0098763Y0186180D01*
X0098467Y0186226D01*
X0098233Y0186263D01*
X0098205Y0186259D01*
X0098205Y0186259D01*
X0097701Y0186193D01*
X0097673Y0186189D01*
X0097648Y0186178D01*
X0097648Y0186178D01*
X0097322Y0186035D01*
X0097156Y0185962D01*
X0097130Y0185940D01*
X0097130Y0185940D01*
X0097126Y0185938D01*
X0097112Y0185930D01*
X0097110Y0185932D01*
X0096907Y0185850D01*
X0096880Y0185849D01*
X0084797Y0185849D01*
X0084763Y0185850D01*
X0084611Y0185864D01*
X0084578Y0185855D01*
X0084463Y0185824D01*
X0084430Y0185817D01*
X0084320Y0185797D01*
X0084279Y0185790D01*
X0084250Y0185773D01*
X0084228Y0185765D01*
X0084207Y0185755D01*
X0084174Y0185747D01*
X0084082Y0185682D01*
X0084049Y0185659D01*
X0084020Y0185641D01*
X0083888Y0185564D01*
X0083852Y0185521D01*
X0083789Y0185447D01*
X0083766Y0185422D01*
X0082691Y0184347D01*
X0082476Y0184237D01*
X0082239Y0184275D01*
X0082068Y0184445D01*
X0082034Y0184703D01*
X0082064Y0184845D01*
X0082064Y0184845D01*
X0082069Y0184865D01*
X0082069Y0185569D01*
X0081955Y0186104D01*
X0081926Y0186237D01*
X0081926Y0186237D01*
X0081922Y0186257D01*
X0081914Y0186276D01*
X0081914Y0186276D01*
X0081644Y0186882D01*
X0081644Y0186882D01*
X0081636Y0186900D01*
X0081222Y0187470D01*
X0081207Y0187483D01*
X0081207Y0187483D01*
X0080851Y0187804D01*
X0080699Y0187941D01*
X0080681Y0187951D01*
X0080681Y0187951D01*
X0080622Y0187986D01*
X0080090Y0188293D01*
X0080070Y0188299D01*
X0080070Y0188299D01*
X0079440Y0188504D01*
X0079440Y0188504D01*
X0079420Y0188510D01*
X0078783Y0188577D01*
X0078738Y0188582D01*
X0078518Y0188680D01*
X0078397Y0188889D01*
X0078422Y0189128D01*
X0078524Y0189265D01*
X0078567Y0189302D01*
X0078567Y0189302D01*
X0078588Y0189320D01*
X0078895Y0189794D01*
X0079057Y0190334D01*
X0079059Y0190662D01*
X0079060Y0190871D01*
X0079060Y0190871D01*
X0079060Y0190899D01*
X0079053Y0190926D01*
X0079053Y0190926D01*
X0078913Y0191415D01*
X0078913Y0191415D01*
X0078905Y0191442D01*
X0078604Y0191919D01*
X0078583Y0191937D01*
X0078583Y0191937D01*
X0078202Y0192274D01*
X0078202Y0192274D01*
X0078181Y0192293D01*
X0078156Y0192304D01*
X0078156Y0192304D01*
X0078080Y0192340D01*
X0077670Y0192532D01*
X0077642Y0192537D01*
X0077642Y0192537D01*
X0077362Y0192580D01*
X0077112Y0192619D01*
X0077085Y0192616D01*
X0077085Y0192616D01*
X0076971Y0192601D01*
X0076553Y0192546D01*
X0076527Y0192535D01*
X0076527Y0192535D01*
X0076082Y0192339D01*
X0076036Y0192319D01*
X0075834Y0192149D01*
X0075611Y0192059D01*
X0075377Y0192117D01*
X0075326Y0192156D01*
X0075191Y0192274D01*
X0075191Y0192274D01*
X0075171Y0192293D01*
X0074660Y0192532D01*
X0074632Y0192537D01*
X0074632Y0192537D01*
X0074350Y0192581D01*
X0074102Y0192619D01*
X0073542Y0192546D01*
X0073517Y0192535D01*
X0073517Y0192535D01*
X0073054Y0192331D01*
X0073026Y0192319D01*
X0072997Y0192295D01*
X0072989Y0192288D01*
X0072766Y0192198D01*
X0072532Y0192256D01*
X0072377Y0192440D01*
X0072349Y0192587D01*
X0072349Y0194037D01*
X0072423Y0194266D01*
X0072463Y0194313D01*
X0072882Y0194732D01*
X0072907Y0194755D01*
X0072918Y0194764D01*
X0073024Y0194853D01*
X0073101Y0194985D01*
X0073119Y0195014D01*
X0073126Y0195024D01*
X0073207Y0195139D01*
X0073215Y0195172D01*
X0073225Y0195193D01*
X0073233Y0195215D01*
X0073250Y0195244D01*
X0073256Y0195278D01*
X0073256Y0195278D01*
X0073277Y0195395D01*
X0073284Y0195428D01*
X0073315Y0195543D01*
X0073324Y0195576D01*
X0073321Y0195610D01*
X0073310Y0195728D01*
X0073309Y0195762D01*
X0073309Y0203051D01*
X0073383Y0203280D01*
X0073423Y0203327D01*
X0076022Y0205926D01*
X0076237Y0206036D01*
X0076285Y0206039D01*
X0076285Y0206039D01*
X0076300Y0206040D01*
X0076315Y0206040D01*
X0076873Y0206120D01*
X0077155Y0206248D01*
X0077362Y0206342D01*
X0077362Y0206342D01*
X0077387Y0206354D01*
X0077815Y0206722D01*
X0078122Y0207196D01*
X0078284Y0207737D01*
X0078285Y0207736D01*
X0078385Y0207937D01*
X0078566Y0208031D01*
X0078542Y0208031D01*
X0078347Y0208172D01*
X0078295Y0208303D01*
X0078287Y0208301D01*
X0078140Y0208817D01*
X0078140Y0208817D01*
X0078132Y0208844D01*
X0077831Y0209321D01*
X0077810Y0209340D01*
X0077810Y0209340D01*
X0077428Y0209676D01*
X0077428Y0209676D01*
X0077408Y0209695D01*
X0077383Y0209707D01*
X0077383Y0209707D01*
X0077362Y0209716D01*
X0076897Y0209935D01*
X0076869Y0209939D01*
X0076869Y0209939D01*
X0076696Y0209966D01*
X0076339Y0210022D01*
X0076311Y0210018D01*
X0076311Y0210018D01*
X0075884Y0209962D01*
X0075779Y0209948D01*
X0075754Y0209937D01*
X0075754Y0209937D01*
X0075303Y0209739D01*
X0075263Y0209721D01*
X0075119Y0209600D01*
X0074852Y0209376D01*
X0074852Y0209376D01*
X0074831Y0209358D01*
X0074518Y0208888D01*
X0074408Y0208537D01*
X0074358Y0208376D01*
X0074358Y0208376D01*
X0074350Y0208349D01*
X0074346Y0208179D01*
X0074344Y0208027D01*
X0074265Y0207799D01*
X0074230Y0207758D01*
X0071173Y0204701D01*
X0071148Y0204678D01*
X0071030Y0204580D01*
X0070954Y0204447D01*
X0070936Y0204419D01*
X0070848Y0204294D01*
X0070839Y0204261D01*
X0070829Y0204240D01*
X0070822Y0204218D01*
X0070804Y0204189D01*
X0070799Y0204155D01*
X0070799Y0204155D01*
X0070778Y0204038D01*
X0070771Y0204005D01*
X0070731Y0203857D01*
X0070744Y0203705D01*
X0070746Y0203671D01*
X0070746Y0196382D01*
X0070671Y0196153D01*
X0070632Y0196106D01*
X0070213Y0195687D01*
X0070188Y0195664D01*
X0070071Y0195566D01*
X0069994Y0195433D01*
X0069976Y0195405D01*
X0069888Y0195279D01*
X0069879Y0195246D01*
X0069870Y0195226D01*
X0069862Y0195204D01*
X0069845Y0195175D01*
X0069839Y0195141D01*
X0069839Y0195141D01*
X0069818Y0195024D01*
X0069811Y0194991D01*
X0069771Y0194843D01*
X0069774Y0194809D01*
X0069784Y0194690D01*
X0069786Y0194657D01*
X0069786Y0192307D01*
X0069711Y0192078D01*
X0069647Y0192009D01*
X0069583Y0191956D01*
X0069568Y0191933D01*
X0069568Y0191933D01*
X0069485Y0191808D01*
X0069271Y0191486D01*
X0069150Y0191099D01*
X0069111Y0190974D01*
X0069111Y0190974D01*
X0069102Y0190947D01*
X0069097Y0190665D01*
X0069092Y0190410D01*
X0069092Y0190410D01*
X0069092Y0190383D01*
X0069099Y0190356D01*
X0069099Y0190356D01*
X0069187Y0190036D01*
X0069240Y0189838D01*
X0069536Y0189357D01*
X0069568Y0189328D01*
X0069934Y0188997D01*
X0069954Y0188978D01*
X0070462Y0188732D01*
X0070632Y0188704D01*
X0071004Y0188641D01*
X0071004Y0188641D01*
X0071019Y0188639D01*
X0071067Y0188638D01*
X0071626Y0188718D01*
X0071815Y0188804D01*
X0072115Y0188940D01*
X0072115Y0188940D01*
X0072140Y0188952D01*
X0072161Y0188970D01*
X0072184Y0188985D01*
X0072189Y0188978D01*
X0072374Y0189055D01*
X0072609Y0189000D01*
X0072766Y0188817D01*
X0072796Y0188667D01*
X0072796Y0183869D01*
X0072795Y0183835D01*
X0072781Y0183683D01*
X0072821Y0183535D01*
X0072828Y0183502D01*
X0072829Y0183498D01*
X0072831Y0183484D01*
X0072849Y0183385D01*
X0072849Y0183385D01*
X0072855Y0183351D01*
X0072872Y0183322D01*
X0072880Y0183300D01*
X0072889Y0183279D01*
X0072898Y0183247D01*
X0072986Y0183121D01*
X0073004Y0183093D01*
X0073081Y0182960D01*
X0073198Y0182862D01*
X0073223Y0182839D01*
X0075597Y0180465D01*
X0075620Y0180440D01*
X0075642Y0180414D01*
X0075718Y0180322D01*
X0075851Y0180246D01*
X0075880Y0180228D01*
X0075900Y0180213D01*
X0076005Y0180140D01*
X0076038Y0180131D01*
X0076059Y0180121D01*
X0076080Y0180114D01*
X0076110Y0180097D01*
X0076155Y0180088D01*
X0076260Y0180070D01*
X0076294Y0180063D01*
X0076408Y0180032D01*
X0076441Y0180023D01*
X0076594Y0180036D01*
X0076628Y0180038D01*
X0078720Y0180038D01*
X0078720Y0172836D01*
X0078020Y0172762D01*
X0078001Y0172756D01*
X0078001Y0172756D01*
X0077383Y0172555D01*
X0077351Y0172545D01*
X0077333Y0172534D01*
X0077333Y0172534D01*
X0076889Y0172278D01*
X0076741Y0172193D01*
X0076218Y0171722D01*
X0076206Y0171705D01*
X0076206Y0171705D01*
X0076155Y0171636D01*
X0075804Y0171152D01*
X0075716Y0170954D01*
X0075526Y0170528D01*
X0075526Y0170528D01*
X0075518Y0170509D01*
X0075514Y0170489D01*
X0075514Y0170489D01*
X0075501Y0170428D01*
X0075372Y0169821D01*
X0075372Y0169117D01*
X0075501Y0168510D01*
X0075514Y0168448D01*
X0075514Y0168448D01*
X0075518Y0168428D01*
X0075526Y0168410D01*
X0075526Y0168410D01*
X0075716Y0167984D01*
X0075804Y0167785D01*
X0076155Y0167302D01*
X0076206Y0167233D01*
X0076206Y0167233D01*
X0076218Y0167216D01*
X0076741Y0166745D01*
X0076889Y0166660D01*
X0077333Y0166403D01*
X0077333Y0166403D01*
X0077351Y0166393D01*
X0077383Y0166383D01*
X0078001Y0166182D01*
X0078001Y0166182D01*
X0078020Y0166176D01*
X0078720Y0166102D01*
X0079420Y0166176D01*
X0079440Y0166182D01*
X0079440Y0166182D01*
X0080070Y0166387D01*
X0080070Y0166387D01*
X0080090Y0166393D01*
X0080622Y0166700D01*
X0080681Y0166735D01*
X0080681Y0166735D01*
X0080699Y0166745D01*
X0081222Y0167216D01*
X0081305Y0167329D01*
X0081363Y0167410D01*
X0081636Y0167785D01*
X0081779Y0168107D01*
X0081914Y0168410D01*
X0081914Y0168410D01*
X0081922Y0168428D01*
X0081926Y0168448D01*
X0081926Y0168448D01*
X0081955Y0168582D01*
X0082069Y0169117D01*
X0082069Y0169821D01*
X0081955Y0170356D01*
X0081926Y0170489D01*
X0081926Y0170489D01*
X0081922Y0170509D01*
X0081914Y0170528D01*
X0081914Y0170528D01*
X0081644Y0171134D01*
X0081644Y0171134D01*
X0081636Y0171152D01*
X0081222Y0171722D01*
X0081207Y0171735D01*
X0081207Y0171735D01*
X0080851Y0172056D01*
X0080699Y0172193D01*
X0080681Y0172203D01*
X0080681Y0172203D01*
X0080622Y0172238D01*
X0080090Y0172545D01*
X0080070Y0172551D01*
X0080070Y0172551D01*
X0079440Y0172756D01*
X0079440Y0172756D01*
X0079420Y0172762D01*
X0078720Y0172836D01*
X0078720Y0180038D01*
X0081403Y0180038D01*
X0081437Y0180036D01*
X0081556Y0180026D01*
X0081589Y0180023D01*
X0081622Y0180032D01*
X0081622Y0180032D01*
X0081737Y0180063D01*
X0081770Y0180070D01*
X0081888Y0180091D01*
X0081921Y0180097D01*
X0081951Y0180114D01*
X0081972Y0180121D01*
X0081993Y0180131D01*
X0082026Y0180140D01*
X0082151Y0180228D01*
X0082180Y0180246D01*
X0082313Y0180322D01*
X0082411Y0180440D01*
X0082434Y0180465D01*
X0083778Y0181809D01*
X0085141Y0183172D01*
X0085355Y0183281D01*
X0085416Y0183286D01*
X0096283Y0183286D01*
X0096513Y0183211D01*
X0096616Y0183100D01*
X0096677Y0183000D01*
X0097095Y0182622D01*
X0097537Y0182408D01*
X0097578Y0182388D01*
X0097603Y0182376D01*
X0097659Y0182366D01*
X0098145Y0182284D01*
X0098145Y0182284D01*
X0098160Y0182282D01*
X0098208Y0182281D01*
X0098767Y0182361D01*
X0099155Y0182538D01*
X0099256Y0182583D01*
X0099256Y0182583D01*
X0099281Y0182595D01*
X0099630Y0182896D01*
X0099853Y0182989D01*
X0099885Y0182991D01*
X0100524Y0182991D01*
X0100753Y0182916D01*
X0100895Y0182721D01*
X0100895Y0182480D01*
X0100799Y0182325D01*
X0094376Y0175901D01*
X0094161Y0175792D01*
X0093923Y0175830D01*
X0093753Y0176000D01*
X0093715Y0176238D01*
X0093727Y0176290D01*
X0093733Y0176302D01*
X0093738Y0176322D01*
X0093738Y0176322D01*
X0093788Y0176561D01*
X0093880Y0176991D01*
X0093880Y0177695D01*
X0093788Y0178125D01*
X0093738Y0178363D01*
X0093738Y0178363D01*
X0093733Y0178383D01*
X0093725Y0178402D01*
X0093725Y0178402D01*
X0093455Y0179008D01*
X0093455Y0179008D01*
X0093447Y0179026D01*
X0093033Y0179596D01*
X0093018Y0179609D01*
X0093018Y0179609D01*
X0092690Y0179905D01*
X0092510Y0180067D01*
X0092493Y0180077D01*
X0092493Y0180077D01*
X0091950Y0180390D01*
X0091901Y0180419D01*
X0091881Y0180425D01*
X0091881Y0180425D01*
X0091251Y0180630D01*
X0091251Y0180630D01*
X0091231Y0180636D01*
X0090898Y0180671D01*
X0090596Y0180703D01*
X0090531Y0180710D01*
X0089831Y0180636D01*
X0089812Y0180630D01*
X0089812Y0180630D01*
X0089242Y0180445D01*
X0089162Y0180419D01*
X0089144Y0180408D01*
X0089144Y0180408D01*
X0088784Y0180201D01*
X0088552Y0180067D01*
X0088029Y0179596D01*
X0088017Y0179579D01*
X0088017Y0179579D01*
X0087968Y0179512D01*
X0087615Y0179026D01*
X0087532Y0178839D01*
X0087337Y0178402D01*
X0087337Y0178402D01*
X0087329Y0178383D01*
X0087325Y0178363D01*
X0087325Y0178363D01*
X0087311Y0178296D01*
X0087183Y0177695D01*
X0087183Y0176991D01*
X0087311Y0176390D01*
X0087325Y0176322D01*
X0087325Y0176322D01*
X0087329Y0176302D01*
X0087337Y0176284D01*
X0087337Y0176284D01*
X0087532Y0175847D01*
X0087615Y0175659D01*
X0087968Y0175174D01*
X0088017Y0175107D01*
X0088017Y0175107D01*
X0088029Y0175090D01*
X0088552Y0174619D01*
X0088784Y0174485D01*
X0089144Y0174277D01*
X0089144Y0174277D01*
X0089162Y0174267D01*
X0089242Y0174241D01*
X0089812Y0174056D01*
X0089812Y0174056D01*
X0089831Y0174050D01*
X0090531Y0173976D01*
X0090596Y0173983D01*
X0090898Y0174015D01*
X0091231Y0174050D01*
X0091251Y0174056D01*
X0091251Y0174056D01*
X0091602Y0174170D01*
X0091843Y0174170D01*
X0092038Y0174029D01*
X0092112Y0173799D01*
X0092038Y0173570D01*
X0091998Y0173524D01*
X0080622Y0162147D01*
X0080596Y0162124D01*
X0080479Y0162026D01*
X0080403Y0161893D01*
X0080384Y0161865D01*
X0080297Y0161739D01*
X0080288Y0161707D01*
X0080278Y0161686D01*
X0080270Y0161664D01*
X0080253Y0161635D01*
X0080227Y0161484D01*
X0080219Y0161451D01*
X0080189Y0161336D01*
X0080189Y0161336D01*
X0080180Y0161303D01*
X0080193Y0161151D01*
X0080195Y0161117D01*
X0080195Y0155701D01*
X0080120Y0155472D01*
X0080042Y0155392D01*
X0079930Y0155306D01*
X0079915Y0155286D01*
X0079915Y0155286D01*
X0079817Y0155158D01*
X0079618Y0155022D01*
X0079377Y0155028D01*
X0079198Y0155158D01*
X0079100Y0155286D01*
X0079100Y0155286D01*
X0079085Y0155306D01*
X0078632Y0155653D01*
X0078105Y0155872D01*
X0078080Y0155875D01*
X0078080Y0155875D01*
X0077815Y0155910D01*
X0077539Y0155946D01*
X0077514Y0155943D01*
X0077034Y0155880D01*
X0076973Y0155872D01*
X0076446Y0155653D01*
X0075993Y0155306D01*
X0075978Y0155286D01*
X0075978Y0155286D01*
X0075880Y0155158D01*
X0075681Y0155022D01*
X0075440Y0155028D01*
X0075261Y0155158D01*
X0075163Y0155286D01*
X0075163Y0155286D01*
X0075148Y0155306D01*
X0074695Y0155653D01*
X0074168Y0155872D01*
X0074143Y0155875D01*
X0074143Y0155875D01*
X0073818Y0155918D01*
X0073602Y0155946D01*
X0073577Y0155943D01*
X0073107Y0155881D01*
X0073036Y0155872D01*
X0072509Y0155653D01*
X0072056Y0155306D01*
X0072041Y0155286D01*
X0071724Y0154874D01*
X0071724Y0154873D01*
X0071709Y0154853D01*
X0071703Y0154838D01*
X0071527Y0154680D01*
X0071368Y0154646D01*
X0071043Y0154646D01*
X0071043Y0152774D01*
X0070969Y0152545D01*
X0070774Y0152403D01*
X0070653Y0152384D01*
X0068285Y0152384D01*
X0068056Y0152459D01*
X0067914Y0152654D01*
X0067895Y0152774D01*
X0067895Y0245090D01*
X0067905Y0245120D01*
X0067895Y0245152D01*
X0067895Y0259471D01*
X0067970Y0259700D01*
X0068165Y0259842D01*
X0068285Y0259861D01*
X0076999Y0259861D01*
X0077228Y0259786D01*
X0077370Y0259591D01*
X0077370Y0259350D01*
X0077228Y0259156D01*
X0077090Y0259092D01*
X0076971Y0259063D01*
X0076759Y0258954D01*
X0076441Y0258790D01*
X0076382Y0258759D01*
X0075882Y0258323D01*
X0075869Y0258304D01*
X0075869Y0258304D01*
X0075609Y0257935D01*
X0075501Y0257781D01*
X0075380Y0257472D01*
X0075326Y0257331D01*
X0075260Y0257163D01*
X0075257Y0257140D01*
X0075257Y0257140D01*
X0075195Y0256670D01*
X0075193Y0256657D01*
X0075193Y0256497D01*
X0075119Y0256268D01*
X0074924Y0256126D01*
X0074683Y0256126D01*
X0074528Y0256221D01*
X0074331Y0256419D01*
X0074308Y0256444D01*
X0074209Y0256561D01*
X0074143Y0256600D01*
X0074077Y0256638D01*
X0074048Y0256656D01*
X0073923Y0256744D01*
X0073890Y0256752D01*
X0073869Y0256762D01*
X0073847Y0256770D01*
X0073818Y0256787D01*
X0073784Y0256793D01*
X0073784Y0256793D01*
X0073667Y0256814D01*
X0073634Y0256821D01*
X0073486Y0256861D01*
X0073452Y0256858D01*
X0073418Y0256861D01*
X0073419Y0256869D01*
X0073228Y0256913D01*
X0073171Y0256955D01*
X0072861Y0257228D01*
X0072350Y0257468D01*
X0072323Y0257472D01*
X0072323Y0257472D01*
X0072056Y0257514D01*
X0071792Y0257555D01*
X0071765Y0257551D01*
X0071765Y0257551D01*
X0071724Y0257546D01*
X0071233Y0257482D01*
X0071207Y0257471D01*
X0071207Y0257471D01*
X0070746Y0257267D01*
X0070716Y0257254D01*
X0070601Y0257157D01*
X0070305Y0256909D01*
X0070305Y0256909D01*
X0070284Y0256891D01*
X0070269Y0256868D01*
X0070269Y0256868D01*
X0070236Y0256820D01*
X0069971Y0256421D01*
X0069870Y0256095D01*
X0069811Y0255909D01*
X0069811Y0255909D01*
X0069803Y0255883D01*
X0069798Y0255600D01*
X0069793Y0255346D01*
X0069793Y0255346D01*
X0069793Y0255318D01*
X0069800Y0255291D01*
X0069800Y0255291D01*
X0069881Y0254995D01*
X0069941Y0254774D01*
X0070236Y0254293D01*
X0070269Y0254263D01*
X0070634Y0253933D01*
X0070655Y0253914D01*
X0071163Y0253668D01*
X0071193Y0253663D01*
X0071705Y0253577D01*
X0071705Y0253577D01*
X0071719Y0253574D01*
X0071768Y0253574D01*
X0072327Y0253654D01*
X0072568Y0253763D01*
X0072815Y0253876D01*
X0072815Y0253876D01*
X0072821Y0253878D01*
X0072841Y0253887D01*
X0072843Y0253883D01*
X0073049Y0253937D01*
X0073273Y0253849D01*
X0073302Y0253823D01*
X0075203Y0251921D01*
X0075226Y0251896D01*
X0075325Y0251779D01*
X0075359Y0251759D01*
X0075449Y0251708D01*
X0075457Y0251703D01*
X0075486Y0251684D01*
X0075492Y0251680D01*
X0075611Y0251597D01*
X0075644Y0251588D01*
X0075665Y0251578D01*
X0075687Y0251570D01*
X0075716Y0251553D01*
X0075867Y0251527D01*
X0075900Y0251519D01*
X0075966Y0251502D01*
X0076048Y0251480D01*
X0076200Y0251493D01*
X0076234Y0251494D01*
X0078942Y0251494D01*
X0078976Y0251493D01*
X0079082Y0251484D01*
X0079129Y0251480D01*
X0079277Y0251519D01*
X0079310Y0251527D01*
X0079427Y0251547D01*
X0079427Y0251547D01*
X0079461Y0251553D01*
X0079490Y0251570D01*
X0079512Y0251578D01*
X0079532Y0251588D01*
X0079565Y0251597D01*
X0079691Y0251684D01*
X0079719Y0251703D01*
X0079800Y0251749D01*
X0079852Y0251779D01*
X0079950Y0251896D01*
X0079973Y0251921D01*
X0080837Y0252785D01*
X0081052Y0252895D01*
X0081290Y0252857D01*
X0081460Y0252687D01*
X0081502Y0252510D01*
X0081502Y0251381D01*
X0081428Y0251152D01*
X0081363Y0251083D01*
X0081229Y0250970D01*
X0081229Y0250970D01*
X0081208Y0250952D01*
X0081192Y0250929D01*
X0081192Y0250929D01*
X0081165Y0250888D01*
X0080895Y0250482D01*
X0080771Y0250086D01*
X0080735Y0249970D01*
X0080735Y0249970D01*
X0080727Y0249943D01*
X0080722Y0249661D01*
X0080717Y0249407D01*
X0080717Y0249407D01*
X0080716Y0249379D01*
X0080724Y0249352D01*
X0080724Y0249352D01*
X0080863Y0248841D01*
X0080851Y0248600D01*
X0080701Y0248413D01*
X0080487Y0248349D01*
X0075682Y0248349D01*
X0075453Y0248423D01*
X0075307Y0248631D01*
X0075189Y0249044D01*
X0075189Y0249044D01*
X0075181Y0249070D01*
X0074880Y0249548D01*
X0074859Y0249566D01*
X0074859Y0249566D01*
X0074478Y0249903D01*
X0074478Y0249903D01*
X0074457Y0249921D01*
X0074432Y0249933D01*
X0074432Y0249933D01*
X0074349Y0249972D01*
X0073946Y0250161D01*
X0073389Y0250248D01*
X0073361Y0250244D01*
X0073361Y0250244D01*
X0072944Y0250190D01*
X0072829Y0250175D01*
X0072804Y0250164D01*
X0072803Y0250164D01*
X0072349Y0249964D01*
X0072312Y0249948D01*
X0072251Y0249896D01*
X0071901Y0249602D01*
X0071901Y0249602D01*
X0071880Y0249584D01*
X0071865Y0249561D01*
X0071865Y0249561D01*
X0071783Y0249438D01*
X0071567Y0249114D01*
X0071457Y0248761D01*
X0071407Y0248602D01*
X0071407Y0248602D01*
X0071399Y0248576D01*
X0071394Y0248294D01*
X0071389Y0248039D01*
X0071389Y0248039D01*
X0071389Y0248011D01*
X0071457Y0247761D01*
X0071446Y0247520D01*
X0071295Y0247332D01*
X0071062Y0247269D01*
X0071021Y0247273D01*
X0070674Y0247327D01*
X0070646Y0247324D01*
X0070646Y0247324D01*
X0070437Y0247296D01*
X0070114Y0247254D01*
X0070089Y0247243D01*
X0070089Y0247243D01*
X0069800Y0247116D01*
X0069597Y0247027D01*
X0069516Y0246958D01*
X0069187Y0246681D01*
X0069187Y0246681D01*
X0069165Y0246664D01*
X0069150Y0246640D01*
X0069150Y0246640D01*
X0069099Y0246564D01*
X0068852Y0246194D01*
X0068729Y0245798D01*
X0068692Y0245681D01*
X0068692Y0245681D01*
X0068684Y0245655D01*
X0068675Y0245154D01*
X0068675Y0245145D01*
X0068672Y0245137D01*
X0068674Y0245118D01*
X0068674Y0245091D01*
X0068681Y0245064D01*
X0068681Y0245064D01*
X0068762Y0244768D01*
X0068822Y0244546D01*
X0069092Y0244106D01*
X0069103Y0244089D01*
X0069118Y0244065D01*
X0069150Y0244036D01*
X0069516Y0243705D01*
X0069536Y0243686D01*
X0069934Y0243494D01*
X0070019Y0243452D01*
X0070044Y0243440D01*
X0070097Y0243431D01*
X0070586Y0243349D01*
X0070586Y0243349D01*
X0070601Y0243346D01*
X0070649Y0243346D01*
X0070749Y0243360D01*
X0070986Y0243319D01*
X0071080Y0243250D01*
X0074449Y0239880D01*
X0074558Y0239666D01*
X0074521Y0239428D01*
X0074350Y0239258D01*
X0074171Y0239215D01*
X0073650Y0239218D01*
X0073616Y0239218D01*
X0073284Y0239138D01*
X0073013Y0239073D01*
X0072971Y0239063D01*
X0072781Y0238965D01*
X0072509Y0238825D01*
X0072382Y0238759D01*
X0071882Y0238323D01*
X0071869Y0238304D01*
X0071869Y0238304D01*
X0071559Y0237864D01*
X0071501Y0237781D01*
X0071389Y0237495D01*
X0071295Y0237252D01*
X0071260Y0237163D01*
X0071257Y0237140D01*
X0071257Y0237140D01*
X0071195Y0236670D01*
X0071193Y0236657D01*
X0071193Y0236311D01*
X0071195Y0236297D01*
X0071250Y0235842D01*
X0071250Y0235842D01*
X0071253Y0235819D01*
X0071269Y0235777D01*
X0071333Y0235608D01*
X0071487Y0235198D01*
X0071501Y0235179D01*
X0071501Y0235179D01*
X0071850Y0234671D01*
X0071863Y0234652D01*
X0072358Y0234211D01*
X0072944Y0233901D01*
X0073290Y0233814D01*
X0073564Y0233745D01*
X0073564Y0233745D01*
X0073587Y0233739D01*
X0073977Y0233737D01*
X0074226Y0233736D01*
X0074226Y0233736D01*
X0074250Y0233736D01*
X0074895Y0233890D01*
X0075241Y0234069D01*
X0075463Y0234184D01*
X0075463Y0234184D01*
X0075484Y0234194D01*
X0075983Y0234630D01*
X0076238Y0234992D01*
X0076431Y0235137D01*
X0076671Y0235141D01*
X0076868Y0235002D01*
X0076947Y0234768D01*
X0076947Y0231688D01*
X0076945Y0231654D01*
X0076932Y0231501D01*
X0076971Y0231353D01*
X0076979Y0231320D01*
X0076999Y0231203D01*
X0076999Y0231203D01*
X0077005Y0231170D01*
X0077022Y0231140D01*
X0077030Y0231118D01*
X0077040Y0231098D01*
X0077049Y0231065D01*
X0077136Y0230939D01*
X0077155Y0230911D01*
X0077231Y0230778D01*
X0077348Y0230680D01*
X0077373Y0230657D01*
X0078938Y0229092D01*
X0079048Y0228877D01*
X0079052Y0228816D01*
X0079052Y0208401D01*
X0078978Y0208172D01*
X0078783Y0208031D01*
X0078712Y0208031D01*
X0078837Y0208012D01*
X0079008Y0207843D01*
X0079052Y0207663D01*
X0079052Y0198775D01*
X0079051Y0198741D01*
X0079038Y0198588D01*
X0079048Y0198551D01*
X0079077Y0198440D01*
X0079085Y0198407D01*
X0079105Y0198290D01*
X0079105Y0198290D01*
X0079111Y0198257D01*
X0079128Y0198227D01*
X0079136Y0198205D01*
X0079146Y0198185D01*
X0079155Y0198152D01*
X0079242Y0198026D01*
X0079261Y0197998D01*
X0079277Y0197970D01*
X0079337Y0197865D01*
X0079454Y0197767D01*
X0079479Y0197744D01*
X0083624Y0193599D01*
X0083733Y0193385D01*
X0083738Y0193324D01*
X0083738Y0192268D01*
X0083663Y0192039D01*
X0083599Y0191970D01*
X0083535Y0191916D01*
X0083520Y0191893D01*
X0083520Y0191893D01*
X0083479Y0191832D01*
X0083223Y0191446D01*
X0083135Y0191167D01*
X0083063Y0190934D01*
X0083063Y0190934D01*
X0083054Y0190908D01*
X0083049Y0190625D01*
X0083044Y0190371D01*
X0083044Y0190371D01*
X0083044Y0190343D01*
X0083051Y0190317D01*
X0083051Y0190317D01*
X0083154Y0189938D01*
X0083192Y0189799D01*
X0083488Y0189318D01*
X0083520Y0189289D01*
X0083886Y0188958D01*
X0083906Y0188939D01*
X0084414Y0188693D01*
X0084567Y0188667D01*
X0084956Y0188602D01*
X0084956Y0188602D01*
X0084971Y0188599D01*
X0085019Y0188599D01*
X0085578Y0188679D01*
X0085875Y0188813D01*
X0086067Y0188901D01*
X0086067Y0188901D01*
X0086092Y0188912D01*
X0086520Y0189281D01*
X0086744Y0189627D01*
X0086931Y0189779D01*
X0087172Y0189792D01*
X0087374Y0189661D01*
X0087403Y0189619D01*
X0087550Y0189381D01*
X0087564Y0189357D01*
X0087596Y0189328D01*
X0087962Y0188997D01*
X0087983Y0188978D01*
X0088491Y0188732D01*
X0088537Y0188724D01*
X0089032Y0188641D01*
X0089032Y0188641D01*
X0089047Y0188639D01*
X0089096Y0188638D01*
X0089654Y0188718D01*
X0090093Y0188917D01*
X0090143Y0188940D01*
X0090143Y0188940D01*
X0090168Y0188952D01*
X0090444Y0189189D01*
X0090575Y0189302D01*
X0090575Y0189302D01*
X0090596Y0189320D01*
X0090903Y0189794D01*
X0091065Y0190334D01*
X0091067Y0190662D01*
X0091068Y0190871D01*
X0091068Y0190871D01*
X0091068Y0190899D01*
X0091060Y0190926D01*
X0091060Y0190926D01*
X0090921Y0191415D01*
X0090921Y0191415D01*
X0090913Y0191442D01*
X0090612Y0191919D01*
X0090591Y0191937D01*
X0090591Y0191937D01*
X0090509Y0192010D01*
X0090387Y0192217D01*
X0090377Y0192302D01*
X0090377Y0193902D01*
X0090379Y0193936D01*
X0090380Y0193949D01*
X0090392Y0194089D01*
X0090383Y0194122D01*
X0090383Y0194122D01*
X0090352Y0194236D01*
X0090345Y0194270D01*
X0090319Y0194420D01*
X0090302Y0194450D01*
X0090294Y0194471D01*
X0090284Y0194492D01*
X0090275Y0194525D01*
X0090189Y0194648D01*
X0090187Y0194650D01*
X0090169Y0194679D01*
X0090093Y0194812D01*
X0090066Y0194834D01*
X0089975Y0194910D01*
X0089950Y0194933D01*
X0087368Y0197516D01*
X0085180Y0199703D01*
X0085071Y0199918D01*
X0085108Y0200156D01*
X0085294Y0200334D01*
X0085522Y0200437D01*
X0085522Y0200437D01*
X0085547Y0200449D01*
X0085863Y0200720D01*
X0085954Y0200799D01*
X0085954Y0200799D01*
X0085975Y0200817D01*
X0085990Y0200841D01*
X0086008Y0200862D01*
X0086017Y0200854D01*
X0086167Y0200976D01*
X0086307Y0201002D01*
X0100376Y0201002D01*
X0100605Y0200928D01*
X0100746Y0200733D01*
X0100765Y0200613D01*
X0100765Y0192833D01*
X0100691Y0192604D01*
X0100496Y0192462D01*
X0100255Y0192462D01*
X0100211Y0192480D01*
X0100196Y0192486D01*
X0100168Y0192506D01*
X0100135Y0192515D01*
X0100115Y0192524D01*
X0100093Y0192532D01*
X0100063Y0192549D01*
X0100030Y0192555D01*
X0100030Y0192555D01*
X0099913Y0192576D01*
X0099880Y0192583D01*
X0099732Y0192623D01*
X0099698Y0192620D01*
X0099579Y0192610D01*
X0099545Y0192608D01*
X0095895Y0192608D01*
X0095666Y0192683D01*
X0095638Y0192706D01*
X0095315Y0192990D01*
X0094804Y0193230D01*
X0094777Y0193235D01*
X0094777Y0193235D01*
X0094456Y0193285D01*
X0094246Y0193317D01*
X0094219Y0193314D01*
X0094219Y0193314D01*
X0093788Y0193257D01*
X0093687Y0193244D01*
X0093661Y0193233D01*
X0093661Y0193233D01*
X0093455Y0193142D01*
X0093170Y0193017D01*
X0093016Y0192887D01*
X0092759Y0192671D01*
X0092759Y0192671D01*
X0092738Y0192654D01*
X0092723Y0192630D01*
X0092723Y0192630D01*
X0092696Y0192590D01*
X0092425Y0192184D01*
X0092302Y0191788D01*
X0092265Y0191671D01*
X0092265Y0191671D01*
X0092257Y0191645D01*
X0092252Y0191363D01*
X0092247Y0191108D01*
X0092247Y0191108D01*
X0092247Y0191081D01*
X0092254Y0191054D01*
X0092254Y0191054D01*
X0092336Y0190753D01*
X0092395Y0190536D01*
X0092690Y0190055D01*
X0092723Y0190026D01*
X0093088Y0189695D01*
X0093109Y0189676D01*
X0093617Y0189430D01*
X0093667Y0189422D01*
X0094159Y0189339D01*
X0094159Y0189339D01*
X0094173Y0189336D01*
X0094222Y0189336D01*
X0094781Y0189416D01*
X0095295Y0189650D01*
X0095644Y0189951D01*
X0095866Y0190044D01*
X0095899Y0190045D01*
X0098926Y0190045D01*
X0099155Y0189971D01*
X0099202Y0189931D01*
X0100892Y0188240D01*
X0100915Y0188215D01*
X0100987Y0188130D01*
X0101014Y0188098D01*
X0101146Y0188022D01*
X0101175Y0188003D01*
X0101219Y0187972D01*
X0101300Y0187916D01*
X0101333Y0187907D01*
X0101354Y0187897D01*
X0101376Y0187889D01*
X0101405Y0187872D01*
X0101556Y0187846D01*
X0101589Y0187838D01*
X0101704Y0187807D01*
X0101737Y0187799D01*
X0101889Y0187812D01*
X0101923Y0187813D01*
X0103035Y0187813D01*
X0103265Y0187739D01*
X0103406Y0187544D01*
X0103406Y0187303D01*
X0103311Y0187148D01*
G37*
G36*
X0087896Y0211199D02*
G01*
X0087746Y0211011D01*
X0087532Y0210947D01*
X0082005Y0210947D01*
X0081776Y0211022D01*
X0081635Y0211217D01*
X0081615Y0211337D01*
X0081615Y0229436D01*
X0081617Y0229470D01*
X0081627Y0229588D01*
X0081630Y0229622D01*
X0081621Y0229655D01*
X0081591Y0229770D01*
X0081583Y0229803D01*
X0081563Y0229920D01*
X0081563Y0229920D01*
X0081557Y0229954D01*
X0081540Y0229983D01*
X0081532Y0230005D01*
X0081522Y0230026D01*
X0081513Y0230059D01*
X0081460Y0230135D01*
X0081426Y0230184D01*
X0081407Y0230213D01*
X0081331Y0230345D01*
X0081229Y0230430D01*
X0081214Y0230443D01*
X0081189Y0230466D01*
X0079624Y0232031D01*
X0079514Y0232246D01*
X0079510Y0232307D01*
X0079510Y0234097D01*
X0079584Y0234326D01*
X0079779Y0234468D01*
X0080020Y0234468D01*
X0080159Y0234388D01*
X0080189Y0234362D01*
X0080358Y0234211D01*
X0080384Y0234197D01*
X0080494Y0234139D01*
X0080944Y0233901D01*
X0081305Y0233810D01*
X0081564Y0233745D01*
X0081564Y0233745D01*
X0081587Y0233739D01*
X0081972Y0233737D01*
X0082226Y0233736D01*
X0082226Y0233736D01*
X0082250Y0233736D01*
X0082895Y0233890D01*
X0083288Y0234093D01*
X0083463Y0234184D01*
X0083463Y0234184D01*
X0083484Y0234194D01*
X0083983Y0234630D01*
X0084016Y0234677D01*
X0084351Y0235154D01*
X0084351Y0235154D01*
X0084365Y0235173D01*
X0084578Y0235719D01*
X0084597Y0235769D01*
X0084597Y0235769D01*
X0084606Y0235791D01*
X0084609Y0235814D01*
X0084609Y0235814D01*
X0084670Y0236284D01*
X0084672Y0236296D01*
X0084672Y0236643D01*
X0084671Y0236655D01*
X0084671Y0236655D01*
X0084615Y0237112D01*
X0084615Y0237112D01*
X0084613Y0237135D01*
X0084604Y0237157D01*
X0084604Y0237157D01*
X0084578Y0237227D01*
X0084378Y0237755D01*
X0084365Y0237775D01*
X0084365Y0237775D01*
X0084208Y0238003D01*
X0084003Y0238302D01*
X0083508Y0238743D01*
X0083487Y0238754D01*
X0083487Y0238754D01*
X0083463Y0238766D01*
X0082922Y0239053D01*
X0082708Y0239107D01*
X0082313Y0239206D01*
X0082279Y0239214D01*
X0082255Y0239215D01*
X0081675Y0239218D01*
X0081616Y0239218D01*
X0080971Y0239063D01*
X0080659Y0238902D01*
X0080383Y0238760D01*
X0080146Y0238721D01*
X0079930Y0238829D01*
X0079875Y0238898D01*
X0079800Y0239017D01*
X0079744Y0239106D01*
X0079723Y0239124D01*
X0079723Y0239124D01*
X0079342Y0239461D01*
X0079342Y0239461D01*
X0079321Y0239479D01*
X0079296Y0239491D01*
X0079296Y0239491D01*
X0079277Y0239500D01*
X0078810Y0239719D01*
X0078783Y0239723D01*
X0078783Y0239723D01*
X0078559Y0239758D01*
X0078276Y0239802D01*
X0078255Y0239806D01*
X0078039Y0239915D01*
X0072735Y0245219D01*
X0072626Y0245434D01*
X0072621Y0245497D01*
X0072621Y0245579D01*
X0072621Y0245579D01*
X0072622Y0245607D01*
X0072614Y0245633D01*
X0072558Y0245829D01*
X0072567Y0246070D01*
X0072715Y0246260D01*
X0072947Y0246326D01*
X0072997Y0246321D01*
X0073004Y0246320D01*
X0073316Y0246267D01*
X0073364Y0246267D01*
X0073364Y0246262D01*
X0073579Y0246207D01*
X0073669Y0246128D01*
X0073696Y0246097D01*
X0073718Y0246070D01*
X0073851Y0245994D01*
X0073879Y0245976D01*
X0073919Y0245948D01*
X0074004Y0245888D01*
X0074037Y0245879D01*
X0074058Y0245869D01*
X0074080Y0245862D01*
X0074109Y0245845D01*
X0074260Y0245818D01*
X0074293Y0245811D01*
X0074408Y0245780D01*
X0074408Y0245780D01*
X0074441Y0245771D01*
X0074593Y0245784D01*
X0074627Y0245786D01*
X0084575Y0245786D01*
X0084804Y0245711D01*
X0084851Y0245672D01*
X0086398Y0244124D01*
X0086508Y0243910D01*
X0086512Y0243849D01*
X0086512Y0242043D01*
X0086438Y0241814D01*
X0086398Y0241767D01*
X0086301Y0241671D01*
X0086276Y0241648D01*
X0086159Y0241549D01*
X0086118Y0241478D01*
X0086083Y0241417D01*
X0086064Y0241388D01*
X0085977Y0241263D01*
X0085968Y0241230D01*
X0085958Y0241209D01*
X0085950Y0241188D01*
X0085933Y0241158D01*
X0085927Y0241124D01*
X0085927Y0241124D01*
X0085907Y0241007D01*
X0085899Y0240974D01*
X0085860Y0240826D01*
X0085873Y0240674D01*
X0085875Y0240640D01*
X0085875Y0214859D01*
X0085873Y0214825D01*
X0085860Y0214672D01*
X0085899Y0214525D01*
X0085907Y0214491D01*
X0085927Y0214374D01*
X0085927Y0214374D01*
X0085933Y0214341D01*
X0085950Y0214311D01*
X0085958Y0214290D01*
X0085968Y0214269D01*
X0085977Y0214236D01*
X0086064Y0214111D01*
X0086083Y0214082D01*
X0086118Y0214020D01*
X0086159Y0213949D01*
X0086276Y0213851D01*
X0086301Y0213828D01*
X0087659Y0212471D01*
X0087768Y0212256D01*
X0087773Y0212188D01*
X0087771Y0212122D01*
X0087769Y0211980D01*
X0087769Y0211980D01*
X0087768Y0211952D01*
X0087776Y0211925D01*
X0087776Y0211925D01*
X0087908Y0211440D01*
X0087896Y0211199D01*
G37*
G36*
X0092887Y0256786D02*
G01*
X0092696Y0256639D01*
X0092565Y0256617D01*
X0091814Y0256617D01*
X0091585Y0256691D01*
X0091538Y0256731D01*
X0090088Y0258181D01*
X0090065Y0258206D01*
X0089967Y0258323D01*
X0089834Y0258400D01*
X0089806Y0258418D01*
X0089680Y0258506D01*
X0089647Y0258515D01*
X0089627Y0258524D01*
X0089605Y0258532D01*
X0089575Y0258549D01*
X0089542Y0258555D01*
X0089542Y0258555D01*
X0089425Y0258576D01*
X0089392Y0258583D01*
X0089244Y0258623D01*
X0089210Y0258620D01*
X0089091Y0258609D01*
X0089057Y0258608D01*
X0083639Y0258608D01*
X0083605Y0258609D01*
X0083452Y0258623D01*
X0083420Y0258614D01*
X0083305Y0258583D01*
X0083271Y0258576D01*
X0083185Y0258561D01*
X0083121Y0258549D01*
X0083091Y0258532D01*
X0083070Y0258524D01*
X0083049Y0258515D01*
X0083016Y0258506D01*
X0082942Y0258454D01*
X0082891Y0258418D01*
X0082862Y0258400D01*
X0082729Y0258323D01*
X0082691Y0258278D01*
X0082631Y0258206D01*
X0082608Y0258181D01*
X0081281Y0256854D01*
X0081067Y0256745D01*
X0080829Y0256783D01*
X0080659Y0256953D01*
X0080619Y0257083D01*
X0080618Y0257091D01*
X0080615Y0257112D01*
X0080615Y0257112D01*
X0080613Y0257135D01*
X0080604Y0257157D01*
X0080604Y0257157D01*
X0080533Y0257346D01*
X0080378Y0257755D01*
X0080365Y0257775D01*
X0080365Y0257775D01*
X0080159Y0258075D01*
X0080003Y0258302D01*
X0079508Y0258743D01*
X0078922Y0259053D01*
X0078899Y0259059D01*
X0078899Y0259059D01*
X0078763Y0259093D01*
X0078559Y0259221D01*
X0078469Y0259444D01*
X0078528Y0259678D01*
X0078713Y0259833D01*
X0078858Y0259861D01*
X0092336Y0259861D01*
X0092565Y0259786D01*
X0092707Y0259591D01*
X0092707Y0259350D01*
X0092696Y0259322D01*
X0092635Y0259174D01*
X0092569Y0259016D01*
X0092566Y0258990D01*
X0092566Y0258990D01*
X0092498Y0258475D01*
X0092495Y0258450D01*
X0092498Y0258425D01*
X0092566Y0257910D01*
X0092566Y0257910D01*
X0092569Y0257884D01*
X0092788Y0257357D01*
X0092803Y0257337D01*
X0092803Y0257337D01*
X0092875Y0257244D01*
X0092955Y0257017D01*
X0092887Y0256786D01*
G37*
G36*
X0096133Y0207712D02*
G01*
X0096130Y0207710D01*
X0096060Y0207627D01*
X0096032Y0207593D01*
X0096009Y0207568D01*
X0094581Y0206140D01*
X0094367Y0206031D01*
X0094306Y0206026D01*
X0083222Y0206026D01*
X0083188Y0206027D01*
X0083036Y0206041D01*
X0083003Y0206032D01*
X0082888Y0206001D01*
X0082855Y0205994D01*
X0082758Y0205977D01*
X0082704Y0205967D01*
X0082675Y0205950D01*
X0082653Y0205942D01*
X0082632Y0205933D01*
X0082599Y0205924D01*
X0082484Y0205843D01*
X0082474Y0205836D01*
X0082445Y0205818D01*
X0082313Y0205741D01*
X0082291Y0205715D01*
X0082265Y0205693D01*
X0082258Y0205702D01*
X0082099Y0205603D01*
X0081859Y0205620D01*
X0081675Y0205775D01*
X0081615Y0205981D01*
X0081615Y0207994D01*
X0081690Y0208224D01*
X0081885Y0208365D01*
X0082005Y0208384D01*
X0095872Y0208384D01*
X0096101Y0208310D01*
X0096243Y0208115D01*
X0096243Y0207874D01*
X0096133Y0207712D01*
G37*
G36*
X0108453Y0163316D02*
G01*
X0108235Y0163214D01*
X0108187Y0163211D01*
X0100644Y0163211D01*
X0100610Y0163213D01*
X0100457Y0163226D01*
X0100424Y0163217D01*
X0100309Y0163186D01*
X0100276Y0163179D01*
X0100168Y0163160D01*
X0100126Y0163152D01*
X0100096Y0163135D01*
X0100074Y0163127D01*
X0100054Y0163118D01*
X0100021Y0163109D01*
X0099913Y0163033D01*
X0099895Y0163021D01*
X0099867Y0163003D01*
X0099734Y0162926D01*
X0099653Y0162829D01*
X0099636Y0162809D01*
X0099613Y0162784D01*
X0096709Y0159880D01*
X0096494Y0159771D01*
X0096433Y0159766D01*
X0086890Y0159766D01*
X0086661Y0159841D01*
X0086632Y0159864D01*
X0086309Y0160149D01*
X0085798Y0160388D01*
X0085771Y0160393D01*
X0085771Y0160393D01*
X0085571Y0160424D01*
X0085241Y0160475D01*
X0085213Y0160472D01*
X0085213Y0160472D01*
X0084714Y0160406D01*
X0084681Y0160402D01*
X0084655Y0160391D01*
X0084655Y0160391D01*
X0084208Y0160194D01*
X0084164Y0160175D01*
X0084003Y0160039D01*
X0083753Y0159829D01*
X0083753Y0159829D01*
X0083732Y0159812D01*
X0083717Y0159788D01*
X0083717Y0159788D01*
X0083472Y0159420D01*
X0083283Y0159271D01*
X0083042Y0159261D01*
X0082842Y0159394D01*
X0082758Y0159636D01*
X0082758Y0160497D01*
X0082832Y0160726D01*
X0082872Y0160773D01*
X0107777Y0185678D01*
X0107992Y0185788D01*
X0108230Y0185750D01*
X0108400Y0185580D01*
X0108443Y0185403D01*
X0108443Y0164365D01*
X0108441Y0164331D01*
X0108428Y0164178D01*
X0108439Y0164136D01*
X0108467Y0164031D01*
X0108475Y0163997D01*
X0108495Y0163880D01*
X0108495Y0163880D01*
X0108501Y0163847D01*
X0108518Y0163817D01*
X0108526Y0163796D01*
X0108536Y0163775D01*
X0108542Y0163753D01*
X0108542Y0163750D01*
X0108543Y0163748D01*
X0108545Y0163742D01*
X0108543Y0163741D01*
X0108570Y0163526D01*
X0108453Y0163316D01*
G37*
G36*
X0105583Y0152547D02*
G01*
X0105389Y0152404D01*
X0105267Y0152384D01*
X0088362Y0152384D01*
X0088133Y0152459D01*
X0087991Y0152654D01*
X0087972Y0152774D01*
X0087972Y0154646D01*
X0087647Y0154646D01*
X0087418Y0154720D01*
X0087313Y0154837D01*
X0087306Y0154853D01*
X0087291Y0154873D01*
X0087291Y0154874D01*
X0087089Y0155136D01*
X0086959Y0155306D01*
X0086506Y0155653D01*
X0085979Y0155872D01*
X0085954Y0155875D01*
X0085929Y0155882D01*
X0085932Y0155892D01*
X0085756Y0155976D01*
X0085641Y0156188D01*
X0085672Y0156427D01*
X0085838Y0156601D01*
X0085863Y0156614D01*
X0086263Y0156796D01*
X0086264Y0156796D01*
X0086289Y0156808D01*
X0086638Y0157109D01*
X0086860Y0157202D01*
X0086893Y0157203D01*
X0097053Y0157203D01*
X0097087Y0157202D01*
X0097205Y0157191D01*
X0097239Y0157188D01*
X0097387Y0157228D01*
X0097420Y0157235D01*
X0097537Y0157256D01*
X0097537Y0157256D01*
X0097571Y0157262D01*
X0097600Y0157279D01*
X0097622Y0157287D01*
X0097643Y0157296D01*
X0097676Y0157305D01*
X0097801Y0157393D01*
X0097830Y0157411D01*
X0097881Y0157441D01*
X0097962Y0157488D01*
X0098060Y0157605D01*
X0098083Y0157630D01*
X0100987Y0160534D01*
X0101202Y0160643D01*
X0101263Y0160648D01*
X0102293Y0160648D01*
X0102522Y0160574D01*
X0102664Y0160379D01*
X0102664Y0160138D01*
X0102522Y0159943D01*
X0102450Y0159902D01*
X0102176Y0159781D01*
X0102115Y0159730D01*
X0101765Y0159436D01*
X0101765Y0159436D01*
X0101744Y0159418D01*
X0101729Y0159395D01*
X0101729Y0159395D01*
X0101704Y0159357D01*
X0101431Y0158948D01*
X0101319Y0158590D01*
X0101271Y0158436D01*
X0101271Y0158436D01*
X0101263Y0158409D01*
X0101258Y0158127D01*
X0101253Y0157873D01*
X0101253Y0157873D01*
X0101253Y0157845D01*
X0101260Y0157818D01*
X0101260Y0157818D01*
X0101355Y0157468D01*
X0101401Y0157300D01*
X0101696Y0156819D01*
X0101729Y0156790D01*
X0102094Y0156459D01*
X0102115Y0156441D01*
X0102623Y0156194D01*
X0103179Y0156101D01*
X0103228Y0156100D01*
X0103687Y0156166D01*
X0103924Y0156125D01*
X0104092Y0155952D01*
X0104126Y0155713D01*
X0104114Y0155664D01*
X0104027Y0155385D01*
X0104027Y0155385D01*
X0104019Y0155358D01*
X0104014Y0155076D01*
X0104009Y0154821D01*
X0104009Y0154821D01*
X0104008Y0154794D01*
X0104016Y0154767D01*
X0104016Y0154767D01*
X0104126Y0154361D01*
X0104157Y0154249D01*
X0104452Y0153768D01*
X0104871Y0153389D01*
X0105379Y0153143D01*
X0105391Y0153141D01*
X0105581Y0153005D01*
X0105656Y0152776D01*
X0105583Y0152547D01*
G37*
G36*
X0111498Y0250893D02*
G01*
X0111303Y0250751D01*
X0111062Y0250751D01*
X0110867Y0250893D01*
X0110808Y0251015D01*
X0110799Y0251045D01*
X0110799Y0251045D01*
X0110792Y0251072D01*
X0110777Y0251095D01*
X0110555Y0251447D01*
X0110491Y0251549D01*
X0110470Y0251567D01*
X0110470Y0251567D01*
X0110088Y0251904D01*
X0110088Y0251904D01*
X0110067Y0251923D01*
X0109557Y0252163D01*
X0109529Y0252167D01*
X0109529Y0252167D01*
X0109307Y0252202D01*
X0108999Y0252249D01*
X0108971Y0252246D01*
X0108971Y0252246D01*
X0108745Y0252216D01*
X0108439Y0252176D01*
X0108414Y0252165D01*
X0108414Y0252165D01*
X0107958Y0251965D01*
X0107923Y0251949D01*
X0107755Y0251808D01*
X0107512Y0251604D01*
X0107512Y0251604D01*
X0107490Y0251586D01*
X0107178Y0251116D01*
X0107054Y0250720D01*
X0107018Y0250604D01*
X0107018Y0250604D01*
X0107009Y0250577D01*
X0107004Y0250295D01*
X0107000Y0250041D01*
X0107000Y0250041D01*
X0106999Y0250013D01*
X0107006Y0249986D01*
X0107006Y0249986D01*
X0107087Y0249690D01*
X0107147Y0249468D01*
X0107443Y0248987D01*
X0107465Y0248967D01*
X0107565Y0248877D01*
X0107685Y0248668D01*
X0107693Y0248588D01*
X0107693Y0247784D01*
X0107619Y0247555D01*
X0107579Y0247508D01*
X0103966Y0243895D01*
X0103941Y0243872D01*
X0103823Y0243774D01*
X0103747Y0243641D01*
X0103729Y0243613D01*
X0103641Y0243487D01*
X0103632Y0243454D01*
X0103622Y0243433D01*
X0103614Y0243412D01*
X0103597Y0243382D01*
X0103592Y0243349D01*
X0103592Y0243349D01*
X0103571Y0243232D01*
X0103564Y0243199D01*
X0103549Y0243144D01*
X0103524Y0243051D01*
X0103537Y0242898D01*
X0103539Y0242864D01*
X0103539Y0221001D01*
X0103521Y0220885D01*
X0103419Y0220559D01*
X0103419Y0220559D01*
X0103411Y0220533D01*
X0103406Y0220251D01*
X0103401Y0219996D01*
X0103401Y0219996D01*
X0103401Y0219969D01*
X0103408Y0219942D01*
X0103408Y0219942D01*
X0103524Y0219516D01*
X0103549Y0219424D01*
X0103844Y0218943D01*
X0103954Y0218844D01*
X0104242Y0218583D01*
X0104263Y0218564D01*
X0104412Y0218492D01*
X0104585Y0218325D01*
X0104628Y0218088D01*
X0104517Y0217866D01*
X0097713Y0211061D01*
X0097498Y0210952D01*
X0097437Y0210947D01*
X0091950Y0210947D01*
X0091721Y0211022D01*
X0091579Y0211217D01*
X0091577Y0211449D01*
X0091651Y0211697D01*
X0091713Y0211904D01*
X0091713Y0211993D01*
X0091714Y0212197D01*
X0091790Y0212426D01*
X0091829Y0212471D01*
X0093551Y0214193D01*
X0093576Y0214216D01*
X0093661Y0214287D01*
X0093693Y0214314D01*
X0093770Y0214447D01*
X0093788Y0214476D01*
X0093795Y0214485D01*
X0093876Y0214601D01*
X0093885Y0214634D01*
X0093894Y0214655D01*
X0093902Y0214676D01*
X0093919Y0214706D01*
X0093925Y0214739D01*
X0093925Y0214739D01*
X0093946Y0214856D01*
X0093953Y0214890D01*
X0093984Y0215004D01*
X0093993Y0215037D01*
X0093990Y0215071D01*
X0093980Y0215190D01*
X0093978Y0215224D01*
X0093978Y0220796D01*
X0094052Y0221025D01*
X0094247Y0221167D01*
X0094488Y0221167D01*
X0094629Y0221085D01*
X0094854Y0220882D01*
X0094875Y0220863D01*
X0095383Y0220617D01*
X0095433Y0220608D01*
X0095924Y0220526D01*
X0095924Y0220526D01*
X0095939Y0220523D01*
X0095954Y0220523D01*
X0095969Y0220522D01*
X0095969Y0220518D01*
X0096180Y0220446D01*
X0096319Y0220249D01*
X0096337Y0220126D01*
X0096336Y0220079D01*
X0096334Y0219974D01*
X0096334Y0219974D01*
X0096334Y0219946D01*
X0096341Y0219919D01*
X0096341Y0219919D01*
X0096461Y0219480D01*
X0096449Y0219239D01*
X0096292Y0219048D01*
X0096270Y0219038D01*
X0096249Y0219021D01*
X0096249Y0219021D01*
X0095860Y0218693D01*
X0095860Y0218693D01*
X0095838Y0218675D01*
X0095823Y0218652D01*
X0095823Y0218652D01*
X0095740Y0218527D01*
X0095526Y0218205D01*
X0095410Y0217835D01*
X0095366Y0217693D01*
X0095366Y0217693D01*
X0095357Y0217667D01*
X0095352Y0217384D01*
X0095347Y0217130D01*
X0095347Y0217130D01*
X0095347Y0217102D01*
X0095354Y0217075D01*
X0095354Y0217075D01*
X0095452Y0216715D01*
X0095495Y0216558D01*
X0095791Y0216077D01*
X0095823Y0216048D01*
X0096189Y0215717D01*
X0096209Y0215698D01*
X0096595Y0215511D01*
X0096692Y0215464D01*
X0096717Y0215452D01*
X0096788Y0215440D01*
X0097259Y0215361D01*
X0097259Y0215361D01*
X0097274Y0215358D01*
X0097322Y0215358D01*
X0097881Y0215438D01*
X0098215Y0215589D01*
X0098370Y0215660D01*
X0098370Y0215660D01*
X0098395Y0215671D01*
X0098706Y0215939D01*
X0098801Y0216022D01*
X0098801Y0216022D01*
X0098823Y0216040D01*
X0099130Y0216513D01*
X0099291Y0217054D01*
X0099293Y0217382D01*
X0099295Y0217591D01*
X0099295Y0217591D01*
X0099295Y0217618D01*
X0099170Y0218054D01*
X0099179Y0218295D01*
X0099335Y0218490D01*
X0099356Y0218504D01*
X0099382Y0218515D01*
X0099730Y0218815D01*
X0099788Y0218865D01*
X0099788Y0218865D01*
X0099809Y0218884D01*
X0100116Y0219357D01*
X0100278Y0219898D01*
X0100280Y0220226D01*
X0100281Y0220435D01*
X0100281Y0220435D01*
X0100281Y0220462D01*
X0100274Y0220489D01*
X0100274Y0220489D01*
X0100134Y0220978D01*
X0100134Y0220978D01*
X0100126Y0221005D01*
X0099825Y0221482D01*
X0099804Y0221501D01*
X0099804Y0221501D01*
X0099423Y0221838D01*
X0099423Y0221838D01*
X0099402Y0221856D01*
X0099377Y0221868D01*
X0099377Y0221868D01*
X0099302Y0221903D01*
X0098891Y0222096D01*
X0098864Y0222100D01*
X0098864Y0222100D01*
X0098623Y0222138D01*
X0098333Y0222183D01*
X0098332Y0222183D01*
X0098116Y0222256D01*
X0097976Y0222453D01*
X0097959Y0222571D01*
X0097960Y0222756D01*
X0097960Y0222756D01*
X0097960Y0222784D01*
X0097953Y0222810D01*
X0097953Y0222810D01*
X0097813Y0223300D01*
X0097813Y0223300D01*
X0097805Y0223326D01*
X0097504Y0223804D01*
X0097483Y0223822D01*
X0097483Y0223822D01*
X0097102Y0224159D01*
X0097102Y0224159D01*
X0097081Y0224177D01*
X0096570Y0224417D01*
X0096542Y0224422D01*
X0096542Y0224422D01*
X0096201Y0224475D01*
X0096012Y0224504D01*
X0095985Y0224500D01*
X0095985Y0224500D01*
X0095563Y0224445D01*
X0095452Y0224431D01*
X0095427Y0224420D01*
X0095427Y0224420D01*
X0095269Y0224350D01*
X0094936Y0224204D01*
X0094629Y0223946D01*
X0094619Y0223937D01*
X0094395Y0223846D01*
X0094162Y0223905D01*
X0094007Y0224089D01*
X0093978Y0224235D01*
X0093978Y0225706D01*
X0094052Y0225935D01*
X0094092Y0225981D01*
X0095421Y0227310D01*
X0095446Y0227333D01*
X0095493Y0227372D01*
X0095563Y0227432D01*
X0095640Y0227564D01*
X0095658Y0227593D01*
X0095679Y0227623D01*
X0095746Y0227718D01*
X0095755Y0227751D01*
X0095765Y0227772D01*
X0095772Y0227794D01*
X0095789Y0227823D01*
X0095795Y0227857D01*
X0095795Y0227857D01*
X0095816Y0227974D01*
X0095823Y0228007D01*
X0095827Y0228021D01*
X0095838Y0228063D01*
X0095854Y0228122D01*
X0095863Y0228155D01*
X0095860Y0228189D01*
X0095850Y0228307D01*
X0095848Y0228341D01*
X0095848Y0248038D01*
X0095850Y0248072D01*
X0095860Y0248191D01*
X0095863Y0248225D01*
X0095854Y0248258D01*
X0095838Y0248317D01*
X0095827Y0248359D01*
X0095823Y0248373D01*
X0095816Y0248406D01*
X0095795Y0248523D01*
X0095795Y0248523D01*
X0095789Y0248557D01*
X0095772Y0248586D01*
X0095765Y0248608D01*
X0095755Y0248628D01*
X0095746Y0248661D01*
X0095679Y0248757D01*
X0095658Y0248787D01*
X0095640Y0248815D01*
X0095563Y0248948D01*
X0095480Y0249018D01*
X0095446Y0249046D01*
X0095421Y0249069D01*
X0091102Y0253388D01*
X0090993Y0253603D01*
X0091031Y0253841D01*
X0091201Y0254011D01*
X0091378Y0254054D01*
X0095493Y0254054D01*
X0095527Y0254052D01*
X0095645Y0254042D01*
X0095679Y0254039D01*
X0095827Y0254078D01*
X0095860Y0254086D01*
X0095977Y0254106D01*
X0095977Y0254106D01*
X0096011Y0254112D01*
X0096040Y0254129D01*
X0096062Y0254137D01*
X0096083Y0254147D01*
X0096116Y0254156D01*
X0096241Y0254243D01*
X0096270Y0254262D01*
X0096277Y0254266D01*
X0096402Y0254338D01*
X0096501Y0254455D01*
X0096524Y0254480D01*
X0098215Y0256172D01*
X0098429Y0256281D01*
X0098541Y0256282D01*
X0098681Y0256264D01*
X0099004Y0256306D01*
X0099221Y0256335D01*
X0099221Y0256335D01*
X0099247Y0256338D01*
X0099774Y0256557D01*
X0100227Y0256904D01*
X0100574Y0257357D01*
X0100792Y0257884D01*
X0100796Y0257910D01*
X0100796Y0257910D01*
X0100863Y0258425D01*
X0100867Y0258450D01*
X0100863Y0258475D01*
X0100796Y0258990D01*
X0100796Y0258990D01*
X0100792Y0259016D01*
X0100746Y0259127D01*
X0100666Y0259322D01*
X0100647Y0259562D01*
X0100773Y0259767D01*
X0100995Y0259859D01*
X0101026Y0259861D01*
X0105312Y0259861D01*
X0105541Y0259786D01*
X0105683Y0259591D01*
X0105683Y0259350D01*
X0105672Y0259322D01*
X0105599Y0259145D01*
X0105546Y0259016D01*
X0105542Y0258990D01*
X0105542Y0258990D01*
X0105474Y0258475D01*
X0105471Y0258450D01*
X0105474Y0258425D01*
X0105542Y0257910D01*
X0105542Y0257910D01*
X0105546Y0257884D01*
X0105764Y0257357D01*
X0106111Y0256904D01*
X0106564Y0256557D01*
X0107091Y0256338D01*
X0107193Y0256325D01*
X0107632Y0256267D01*
X0107657Y0256264D01*
X0107914Y0256298D01*
X0108151Y0256254D01*
X0108241Y0256187D01*
X0111458Y0252970D01*
X0111568Y0252755D01*
X0111573Y0252694D01*
X0111573Y0251122D01*
X0111498Y0250893D01*
G37*
G36*
X0112207Y0206231D02*
G01*
X0112167Y0206185D01*
X0108895Y0202913D01*
X0108681Y0202804D01*
X0108443Y0202841D01*
X0108272Y0203012D01*
X0108230Y0203189D01*
X0108230Y0203552D01*
X0108304Y0203781D01*
X0108365Y0203847D01*
X0108369Y0203851D01*
X0108369Y0203851D01*
X0108390Y0203869D01*
X0108697Y0204343D01*
X0108859Y0204883D01*
X0108861Y0205211D01*
X0108862Y0205420D01*
X0108862Y0205420D01*
X0108863Y0205448D01*
X0108855Y0205474D01*
X0108855Y0205474D01*
X0108715Y0205964D01*
X0108715Y0205964D01*
X0108707Y0205990D01*
X0108681Y0206033D01*
X0108437Y0206420D01*
X0108406Y0206468D01*
X0108385Y0206486D01*
X0108385Y0206486D01*
X0108004Y0206823D01*
X0108004Y0206823D01*
X0107983Y0206841D01*
X0107575Y0207033D01*
X0107399Y0207198D01*
X0107354Y0207434D01*
X0107465Y0207661D01*
X0107518Y0207715D01*
X0107543Y0207738D01*
X0107617Y0207799D01*
X0107661Y0207836D01*
X0107737Y0207968D01*
X0107755Y0207997D01*
X0107777Y0208028D01*
X0107843Y0208122D01*
X0107852Y0208155D01*
X0107862Y0208176D01*
X0107870Y0208198D01*
X0107887Y0208227D01*
X0107892Y0208261D01*
X0107892Y0208261D01*
X0107913Y0208378D01*
X0107920Y0208411D01*
X0107951Y0208526D01*
X0107960Y0208559D01*
X0107957Y0208593D01*
X0107947Y0208711D01*
X0107945Y0208745D01*
X0107945Y0210322D01*
X0108020Y0210551D01*
X0108059Y0210598D01*
X0108125Y0210663D01*
X0108339Y0210772D01*
X0108577Y0210734D01*
X0108757Y0210544D01*
X0108763Y0210521D01*
X0109058Y0210040D01*
X0109476Y0209662D01*
X0109984Y0209416D01*
X0110174Y0209384D01*
X0110526Y0209324D01*
X0110526Y0209324D01*
X0110541Y0209322D01*
X0110590Y0209321D01*
X0111148Y0209401D01*
X0111662Y0209635D01*
X0111682Y0209652D01*
X0111915Y0209713D01*
X0112139Y0209625D01*
X0112269Y0209422D01*
X0112281Y0209324D01*
X0112281Y0206460D01*
X0112207Y0206231D01*
G37*
G36*
X0121754Y0152545D02*
G01*
X0121559Y0152403D01*
X0121439Y0152384D01*
X0109459Y0152384D01*
X0109230Y0152459D01*
X0109088Y0152654D01*
X0109088Y0152894D01*
X0109230Y0153089D01*
X0109301Y0153124D01*
X0109299Y0153129D01*
X0109787Y0153351D01*
X0109787Y0153351D01*
X0109812Y0153363D01*
X0110240Y0153731D01*
X0110547Y0154205D01*
X0110709Y0154746D01*
X0110711Y0155073D01*
X0110712Y0155282D01*
X0110712Y0155282D01*
X0110712Y0155310D01*
X0110705Y0155337D01*
X0110705Y0155337D01*
X0110565Y0155826D01*
X0110565Y0155826D01*
X0110557Y0155853D01*
X0110256Y0156330D01*
X0110258Y0156331D01*
X0110174Y0156535D01*
X0110231Y0156769D01*
X0110240Y0156782D01*
X0110240Y0156782D01*
X0110470Y0157137D01*
X0110547Y0157256D01*
X0110617Y0157488D01*
X0110754Y0157687D01*
X0110981Y0157766D01*
X0111212Y0157697D01*
X0111266Y0157652D01*
X0112266Y0156652D01*
X0112375Y0156437D01*
X0112380Y0156369D01*
X0112378Y0156235D01*
X0112375Y0156101D01*
X0112375Y0156101D01*
X0112375Y0156073D01*
X0112382Y0156046D01*
X0112382Y0156046D01*
X0112503Y0155603D01*
X0112523Y0155529D01*
X0112818Y0155048D01*
X0112926Y0154950D01*
X0113216Y0154688D01*
X0113237Y0154669D01*
X0113745Y0154423D01*
X0113804Y0154413D01*
X0114287Y0154332D01*
X0114287Y0154332D01*
X0114301Y0154329D01*
X0114350Y0154329D01*
X0114909Y0154409D01*
X0115275Y0154575D01*
X0115397Y0154631D01*
X0115397Y0154631D01*
X0115423Y0154642D01*
X0115789Y0154958D01*
X0115829Y0154992D01*
X0115829Y0154993D01*
X0115850Y0155011D01*
X0116157Y0155484D01*
X0116319Y0156025D01*
X0116321Y0156353D01*
X0116322Y0156562D01*
X0116322Y0156562D01*
X0116322Y0156589D01*
X0116315Y0156616D01*
X0116315Y0156616D01*
X0116175Y0157105D01*
X0116175Y0157105D01*
X0116167Y0157132D01*
X0116152Y0157156D01*
X0116152Y0157156D01*
X0115884Y0157581D01*
X0115825Y0157815D01*
X0115914Y0158038D01*
X0115959Y0158084D01*
X0116026Y0158142D01*
X0116026Y0158142D01*
X0116047Y0158160D01*
X0116354Y0158634D01*
X0116516Y0159175D01*
X0116518Y0159502D01*
X0116519Y0159711D01*
X0116519Y0159711D01*
X0116519Y0159739D01*
X0116512Y0159766D01*
X0116512Y0159766D01*
X0116372Y0160255D01*
X0116372Y0160255D01*
X0116364Y0160282D01*
X0116063Y0160759D01*
X0116042Y0160778D01*
X0116042Y0160778D01*
X0115661Y0161114D01*
X0115661Y0161114D01*
X0115640Y0161133D01*
X0115129Y0161373D01*
X0115102Y0161377D01*
X0115102Y0161377D01*
X0114645Y0161448D01*
X0114571Y0161459D01*
X0114544Y0161456D01*
X0114529Y0161456D01*
X0114301Y0161533D01*
X0114258Y0161570D01*
X0114044Y0161784D01*
X0113935Y0161998D01*
X0113973Y0162236D01*
X0114143Y0162407D01*
X0114320Y0162449D01*
X0120825Y0162449D01*
X0120937Y0162471D01*
X0121018Y0162488D01*
X0121018Y0162488D01*
X0121056Y0162495D01*
X0121188Y0162583D01*
X0121222Y0162606D01*
X0121454Y0162672D01*
X0121680Y0162588D01*
X0121814Y0162388D01*
X0121828Y0162282D01*
X0121828Y0152774D01*
X0121754Y0152545D01*
G37*
G36*
X0118483Y0250847D02*
G01*
X0116606Y0248970D01*
X0116581Y0248947D01*
X0116464Y0248849D01*
X0116387Y0248716D01*
X0116369Y0248688D01*
X0116281Y0248562D01*
X0116272Y0248529D01*
X0116262Y0248508D01*
X0116255Y0248487D01*
X0116238Y0248457D01*
X0116211Y0248307D01*
X0116204Y0248273D01*
X0116173Y0248159D01*
X0116173Y0248159D01*
X0116164Y0248126D01*
X0116177Y0247973D01*
X0116179Y0247939D01*
X0116179Y0217244D01*
X0116104Y0217015D01*
X0115910Y0216873D01*
X0115669Y0216873D01*
X0115513Y0216968D01*
X0114835Y0217646D01*
X0114812Y0217671D01*
X0114757Y0217738D01*
X0114714Y0217789D01*
X0114582Y0217865D01*
X0114553Y0217883D01*
X0114428Y0217971D01*
X0114395Y0217980D01*
X0114374Y0217990D01*
X0114352Y0217997D01*
X0114323Y0218015D01*
X0114289Y0218020D01*
X0114289Y0218020D01*
X0114172Y0218041D01*
X0114139Y0218048D01*
X0113991Y0218088D01*
X0113957Y0218085D01*
X0113839Y0218075D01*
X0113805Y0218073D01*
X0111602Y0218073D01*
X0111372Y0218148D01*
X0111231Y0218343D01*
X0111231Y0218583D01*
X0111326Y0218739D01*
X0111760Y0219172D01*
X0111785Y0219195D01*
X0111860Y0219258D01*
X0111902Y0219294D01*
X0111979Y0219426D01*
X0111997Y0219455D01*
X0112019Y0219487D01*
X0112085Y0219580D01*
X0112093Y0219613D01*
X0112103Y0219634D01*
X0112111Y0219656D01*
X0112128Y0219685D01*
X0112134Y0219719D01*
X0112134Y0219719D01*
X0112155Y0219836D01*
X0112162Y0219869D01*
X0112193Y0219984D01*
X0112202Y0220017D01*
X0112199Y0220051D01*
X0112188Y0220169D01*
X0112187Y0220203D01*
X0112187Y0241750D01*
X0112261Y0241979D01*
X0112322Y0242045D01*
X0112384Y0242099D01*
X0112384Y0242099D01*
X0112405Y0242117D01*
X0112712Y0242591D01*
X0112874Y0243131D01*
X0112876Y0243459D01*
X0112877Y0243668D01*
X0112877Y0243668D01*
X0112878Y0243696D01*
X0112870Y0243722D01*
X0112870Y0243722D01*
X0112730Y0244212D01*
X0112730Y0244212D01*
X0112722Y0244238D01*
X0112421Y0244716D01*
X0112400Y0244734D01*
X0112400Y0244734D01*
X0112019Y0245071D01*
X0112019Y0245071D01*
X0111998Y0245089D01*
X0111902Y0245135D01*
X0111887Y0245142D01*
X0111711Y0245307D01*
X0111666Y0245543D01*
X0111777Y0245770D01*
X0113709Y0247702D01*
X0113734Y0247725D01*
X0113804Y0247785D01*
X0113851Y0247824D01*
X0113927Y0247956D01*
X0113946Y0247985D01*
X0113970Y0248019D01*
X0114033Y0248110D01*
X0114042Y0248143D01*
X0114052Y0248164D01*
X0114060Y0248185D01*
X0114077Y0248215D01*
X0114083Y0248248D01*
X0114083Y0248248D01*
X0114100Y0248348D01*
X0114103Y0248366D01*
X0114111Y0248399D01*
X0114142Y0248514D01*
X0114150Y0248547D01*
X0114147Y0248581D01*
X0114137Y0248699D01*
X0114136Y0248733D01*
X0114136Y0251792D01*
X0114210Y0252021D01*
X0114405Y0252163D01*
X0114525Y0252182D01*
X0116232Y0252182D01*
X0116461Y0252107D01*
X0116493Y0252081D01*
X0116508Y0252068D01*
X0116789Y0251813D01*
X0117257Y0251586D01*
X0117272Y0251579D01*
X0117297Y0251567D01*
X0117497Y0251533D01*
X0117839Y0251476D01*
X0117839Y0251476D01*
X0117854Y0251473D01*
X0117902Y0251473D01*
X0118152Y0251508D01*
X0118389Y0251467D01*
X0118557Y0251294D01*
X0118591Y0251056D01*
X0118483Y0250847D01*
G37*
G36*
X0121754Y0193392D02*
G01*
X0121559Y0193251D01*
X0121318Y0193251D01*
X0121123Y0193392D01*
X0121064Y0193514D01*
X0120937Y0193957D01*
X0120937Y0193957D01*
X0120930Y0193984D01*
X0120629Y0194461D01*
X0120608Y0194480D01*
X0120608Y0194480D01*
X0120226Y0194817D01*
X0120226Y0194817D01*
X0120205Y0194835D01*
X0119695Y0195075D01*
X0119667Y0195079D01*
X0119667Y0195079D01*
X0119383Y0195123D01*
X0119137Y0195162D01*
X0119109Y0195158D01*
X0119109Y0195158D01*
X0118664Y0195100D01*
X0118577Y0195088D01*
X0118552Y0195077D01*
X0118552Y0195077D01*
X0118113Y0194884D01*
X0118061Y0194861D01*
X0117811Y0194651D01*
X0117723Y0194578D01*
X0117500Y0194487D01*
X0117472Y0194486D01*
X0114671Y0194486D01*
X0114442Y0194561D01*
X0114300Y0194755D01*
X0114298Y0194988D01*
X0114434Y0195443D01*
X0114436Y0195771D01*
X0114437Y0195979D01*
X0114437Y0195979D01*
X0114437Y0196007D01*
X0114430Y0196034D01*
X0114430Y0196034D01*
X0114426Y0196047D01*
X0114383Y0196197D01*
X0114392Y0196438D01*
X0114482Y0196580D01*
X0115385Y0197483D01*
X0115600Y0197592D01*
X0115661Y0197597D01*
X0118096Y0197597D01*
X0118130Y0197595D01*
X0118248Y0197585D01*
X0118282Y0197582D01*
X0118315Y0197591D01*
X0118315Y0197591D01*
X0118430Y0197622D01*
X0118463Y0197629D01*
X0118557Y0197645D01*
X0118614Y0197656D01*
X0118644Y0197673D01*
X0118665Y0197680D01*
X0118686Y0197690D01*
X0118719Y0197699D01*
X0118844Y0197787D01*
X0118873Y0197805D01*
X0119005Y0197882D01*
X0119104Y0197999D01*
X0119127Y0198024D01*
X0120874Y0199771D01*
X0120899Y0199794D01*
X0120905Y0199799D01*
X0121016Y0199892D01*
X0121093Y0200025D01*
X0121111Y0200053D01*
X0121119Y0200065D01*
X0121312Y0200210D01*
X0121553Y0200215D01*
X0121750Y0200077D01*
X0121828Y0199842D01*
X0121828Y0193621D01*
X0121754Y0193392D01*
G37*
G36*
X0121754Y0256028D02*
G01*
X0121559Y0255887D01*
X0121318Y0255887D01*
X0121188Y0255959D01*
X0121174Y0255971D01*
X0121149Y0255993D01*
X0119929Y0257213D01*
X0119906Y0257238D01*
X0119808Y0257355D01*
X0119717Y0257408D01*
X0119676Y0257432D01*
X0119647Y0257450D01*
X0119522Y0257538D01*
X0119489Y0257547D01*
X0119468Y0257557D01*
X0119446Y0257564D01*
X0119417Y0257581D01*
X0119383Y0257587D01*
X0119383Y0257587D01*
X0119266Y0257608D01*
X0119233Y0257615D01*
X0119137Y0257641D01*
X0119085Y0257655D01*
X0119051Y0257652D01*
X0118933Y0257642D01*
X0118899Y0257640D01*
X0118271Y0257640D01*
X0118042Y0257715D01*
X0117995Y0257754D01*
X0117805Y0257945D01*
X0117695Y0258160D01*
X0117694Y0258271D01*
X0117714Y0258425D01*
X0117714Y0258425D01*
X0117717Y0258450D01*
X0117714Y0258475D01*
X0117646Y0258990D01*
X0117646Y0258990D01*
X0117643Y0259016D01*
X0117589Y0259145D01*
X0117516Y0259322D01*
X0117497Y0259562D01*
X0117623Y0259767D01*
X0117846Y0259859D01*
X0117876Y0259861D01*
X0121439Y0259861D01*
X0121668Y0259786D01*
X0121809Y0259591D01*
X0121828Y0259471D01*
X0121828Y0256257D01*
X0121754Y0256028D01*
G37*
G36*
X0121754Y0215127D02*
G01*
X0121559Y0214985D01*
X0121318Y0214985D01*
X0121119Y0215132D01*
X0121111Y0215144D01*
X0121093Y0215173D01*
X0121016Y0215305D01*
X0120990Y0215327D01*
X0120899Y0215404D01*
X0120874Y0215427D01*
X0118856Y0217445D01*
X0118747Y0217659D01*
X0118742Y0217720D01*
X0118742Y0247320D01*
X0118816Y0247549D01*
X0118856Y0247596D01*
X0121149Y0249889D01*
X0121174Y0249912D01*
X0121188Y0249923D01*
X0121411Y0250014D01*
X0121645Y0249955D01*
X0121800Y0249771D01*
X0121828Y0249625D01*
X0121828Y0215356D01*
X0121754Y0215127D01*
G37*
X0451612Y0145321D02*
%LPD*%
G01*
D17*
X0393344Y0118156D03*
X0393344Y0122880D03*
X0393344Y0113431D03*
X0393344Y0108707D03*
D20*
X0423413Y0107526D03*
D21*
X0392557Y0135036D03*
D19*
X0421789Y0144730D03*
D23*
X0451021Y0143028D03*
D22*
X0451021Y0119209D03*
D17*
X0450136Y0134140D03*
X0450136Y0138077D03*
D17*
X0433728Y0108414D03*
X0393187Y0143943D03*
X0449958Y0110164D03*
X0449742Y0118451D03*
X0416376Y0143746D03*
X0424723Y0119466D03*
X0442428Y0136120D03*
X0430848Y0123616D03*
X0434289Y0143746D03*
X0442519Y0143691D03*
X0412537Y0123766D03*
X0410367Y0131662D03*
X0450234Y0126620D03*
X0422872Y0124258D03*
X0436061Y0125439D03*
X0393344Y0134986D03*
X0415687Y0127998D03*
X0403891Y0108623D03*
X0393443Y0139120D03*
X0437689Y0128545D03*
X0437339Y0142409D03*
X0419463Y0128469D03*
X0432847Y0136341D03*
X0442065Y0128097D03*
X0441691Y0110045D03*
X0395865Y0137436D03*
X0431312Y0113131D03*
X0432813Y0127408D03*
X0422077Y0138552D03*
X0400627Y0137347D03*
X0405846Y0110912D03*
X0438212Y0110325D03*
X0408797Y0110317D03*
X0409489Y0124062D03*
X0410154Y0117027D03*
X0421673Y0135048D03*
X0441376Y0125045D03*
X0427203Y0123471D03*
X0423399Y0127517D03*
X0422773Y0131443D03*
X0411356Y0126620D03*
X0404008Y0123610D03*
X0409720Y0142150D03*
X0422577Y0142270D03*
D92*
X0419463Y0128469D02*
X0419486Y0128446D01*
X0421914Y0122014D02*
X0413987Y0122014D01*
X0423856Y0113136D02*
X0422288Y0114704D01*
X0421934Y0121994D02*
X0421914Y0122014D01*
X0436675Y0136341D02*
X0442065Y0130951D01*
X0401965Y0121346D02*
X0395987Y0127324D01*
X0425393Y0121994D02*
X0421934Y0121994D01*
X0444132Y0118549D02*
X0438620Y0113038D01*
X0442065Y0128097D02*
X0441051Y0128097D01*
X0432847Y0136341D02*
X0436675Y0136341D01*
X0442065Y0130951D02*
X0442065Y0128097D01*
X0438600Y0113136D02*
X0423856Y0113136D01*
X0438915Y0125960D02*
X0438915Y0123175D01*
X0419486Y0128446D02*
X0419486Y0122093D01*
X0395987Y0127324D02*
X0395987Y0137033D01*
X0441051Y0128097D02*
X0438915Y0125960D01*
X0427067Y0120321D02*
X0425393Y0121994D01*
X0436061Y0120321D02*
X0427067Y0120321D01*
X0399341Y0114704D02*
X0393344Y0108707D01*
X0413987Y0122014D02*
X0413319Y0121346D01*
X0442065Y0128097D02*
X0444132Y0126030D01*
X0438915Y0123175D02*
X0436061Y0120321D01*
X0441691Y0110045D02*
X0438600Y0113136D01*
X0422288Y0114704D02*
X0399341Y0114704D01*
X0444132Y0126030D02*
X0444132Y0118549D01*
X0413319Y0121346D02*
X0401965Y0121346D01*
X0416179Y0138530D02*
X0421789Y0138530D01*
X0401352Y0136364D02*
X0414014Y0136364D01*
X0414014Y0136364D02*
X0416179Y0138530D01*
X0421789Y0138530D02*
X0432813Y0127506D01*
X0432813Y0127506D02*
X0432813Y0127408D01*
X0407775Y0112841D02*
X0405846Y0110912D01*
X0438212Y0110325D02*
X0437862Y0110675D01*
X0422872Y0110675D02*
X0420706Y0112841D01*
X0420706Y0112841D02*
X0407775Y0112841D01*
X0437862Y0110675D02*
X0422872Y0110675D01*
X0441376Y0125045D02*
X0441376Y0121797D01*
X0441376Y0121797D02*
X0435820Y0116242D01*
X0425081Y0116242D02*
X0424189Y0116242D01*
X0435820Y0116242D02*
X0425081Y0116242D01*
X0425081Y0116242D02*
X0424403Y0116242D01*
X0420778Y0119652D02*
X0399467Y0119652D01*
X0399467Y0119652D02*
X0393344Y0113530D01*
X0424189Y0116242D02*
X0420778Y0119652D01*
X0404008Y0123610D02*
X0407019Y0126620D01*
X0407019Y0126620D02*
X0411356Y0126620D01*
G36*
X0394868Y0107108D02*
G01*
X0394727Y0107303D01*
X0394727Y0107544D01*
X0394805Y0107681D01*
X0394824Y0107702D01*
X0394842Y0107723D01*
X0395058Y0108183D01*
X0395136Y0108685D01*
X0395132Y0108712D01*
X0395132Y0108713D01*
X0395129Y0108742D01*
X0395173Y0108979D01*
X0395239Y0109068D01*
X0399676Y0113505D01*
X0399891Y0113614D01*
X0399952Y0113619D01*
X0406078Y0113619D01*
X0406307Y0113545D01*
X0406449Y0113350D01*
X0406449Y0113109D01*
X0406354Y0112954D01*
X0406199Y0112799D01*
X0405984Y0112690D01*
X0405916Y0112685D01*
X0405860Y0112686D01*
X0405652Y0112690D01*
X0405652Y0112690D01*
X0405625Y0112690D01*
X0405598Y0112683D01*
X0405598Y0112683D01*
X0405433Y0112638D01*
X0405135Y0112557D01*
X0404702Y0112291D01*
X0404361Y0111914D01*
X0404139Y0111457D01*
X0404064Y0111014D01*
X0404057Y0110971D01*
X0404057Y0110971D01*
X0404055Y0110956D01*
X0404054Y0110912D01*
X0404126Y0110409D01*
X0404314Y0109996D01*
X0404325Y0109972D01*
X0404325Y0109972D01*
X0404337Y0109947D01*
X0404668Y0109562D01*
X0404692Y0109547D01*
X0404692Y0109547D01*
X0404982Y0109359D01*
X0405095Y0109286D01*
X0405121Y0109278D01*
X0405121Y0109278D01*
X0405290Y0109227D01*
X0405581Y0109140D01*
X0405883Y0109138D01*
X0406062Y0109137D01*
X0406089Y0109137D01*
X0406116Y0109145D01*
X0406116Y0109145D01*
X0406551Y0109269D01*
X0406551Y0109269D01*
X0406578Y0109277D01*
X0406748Y0109384D01*
X0406796Y0109414D01*
X0407029Y0109473D01*
X0407253Y0109384D01*
X0407299Y0109339D01*
X0407601Y0108988D01*
X0407601Y0108988D01*
X0407619Y0108967D01*
X0407642Y0108952D01*
X0407642Y0108952D01*
X0408010Y0108714D01*
X0408045Y0108691D01*
X0408072Y0108683D01*
X0408072Y0108683D01*
X0408491Y0108558D01*
X0408532Y0108545D01*
X0408834Y0108543D01*
X0409012Y0108542D01*
X0409040Y0108542D01*
X0409067Y0108550D01*
X0409067Y0108550D01*
X0409502Y0108674D01*
X0409502Y0108674D01*
X0409529Y0108682D01*
X0409958Y0108953D01*
X0410295Y0109334D01*
X0410511Y0109794D01*
X0410589Y0110296D01*
X0410523Y0110799D01*
X0410512Y0110825D01*
X0410512Y0110825D01*
X0410342Y0111209D01*
X0410318Y0111449D01*
X0410440Y0111657D01*
X0410660Y0111754D01*
X0410699Y0111756D01*
X0420096Y0111756D01*
X0420325Y0111682D01*
X0420371Y0111642D01*
X0422002Y0110011D01*
X0422051Y0109952D01*
X0422069Y0109925D01*
X0422090Y0109893D01*
X0422180Y0109833D01*
X0422180Y0109833D01*
X0422366Y0109709D01*
X0422417Y0109675D01*
X0422417Y0109675D01*
X0422449Y0109654D01*
X0422486Y0109646D01*
X0422486Y0109646D01*
X0422626Y0109618D01*
X0422765Y0109591D01*
X0422765Y0109591D01*
X0422872Y0109569D01*
X0422941Y0109583D01*
X0423017Y0109591D01*
X0436347Y0109591D01*
X0436576Y0109516D01*
X0436668Y0109403D01*
X0436676Y0109409D01*
X0436691Y0109385D01*
X0436703Y0109360D01*
X0436962Y0109059D01*
X0437016Y0108996D01*
X0437016Y0108996D01*
X0437034Y0108975D01*
X0437057Y0108960D01*
X0437057Y0108960D01*
X0437437Y0108714D01*
X0437460Y0108699D01*
X0437487Y0108691D01*
X0437487Y0108691D01*
X0437656Y0108640D01*
X0437947Y0108553D01*
X0438249Y0108551D01*
X0438427Y0108550D01*
X0438455Y0108550D01*
X0438482Y0108558D01*
X0438482Y0108558D01*
X0438917Y0108682D01*
X0438917Y0108682D01*
X0438944Y0108690D01*
X0439373Y0108961D01*
X0439392Y0108982D01*
X0439392Y0108982D01*
X0439547Y0109157D01*
X0439754Y0109280D01*
X0439994Y0109257D01*
X0440167Y0109109D01*
X0440170Y0109105D01*
X0440181Y0109080D01*
X0440308Y0108932D01*
X0440495Y0108716D01*
X0440495Y0108716D01*
X0440513Y0108695D01*
X0440536Y0108680D01*
X0440536Y0108680D01*
X0440916Y0108434D01*
X0440939Y0108419D01*
X0440966Y0108411D01*
X0440966Y0108411D01*
X0441134Y0108360D01*
X0441426Y0108273D01*
X0441728Y0108271D01*
X0441906Y0108270D01*
X0441934Y0108270D01*
X0441961Y0108278D01*
X0441961Y0108278D01*
X0442396Y0108402D01*
X0442396Y0108402D01*
X0442422Y0108410D01*
X0442852Y0108681D01*
X0443188Y0109062D01*
X0443404Y0109522D01*
X0443482Y0110024D01*
X0443417Y0110527D01*
X0443405Y0110553D01*
X0443405Y0110553D01*
X0443247Y0110912D01*
X0443212Y0110992D01*
X0443049Y0111187D01*
X0442903Y0111360D01*
X0442903Y0111360D01*
X0442885Y0111381D01*
X0442462Y0111663D01*
X0442436Y0111671D01*
X0442436Y0111671D01*
X0442220Y0111738D01*
X0441977Y0111814D01*
X0441798Y0111818D01*
X0441603Y0111821D01*
X0441376Y0111900D01*
X0441335Y0111935D01*
X0440469Y0112801D01*
X0440359Y0113016D01*
X0440397Y0113254D01*
X0440469Y0113353D01*
X0444796Y0117680D01*
X0444855Y0117728D01*
X0444914Y0117767D01*
X0444974Y0117858D01*
X0444974Y0117858D01*
X0445043Y0117961D01*
X0445153Y0118126D01*
X0445153Y0118126D01*
X0445238Y0118549D01*
X0445230Y0118587D01*
X0445224Y0118619D01*
X0445216Y0118695D01*
X0445216Y0125884D01*
X0445224Y0125960D01*
X0445238Y0126030D01*
X0445216Y0126136D01*
X0445216Y0126136D01*
X0445153Y0126453D01*
X0445132Y0126484D01*
X0445132Y0126485D01*
X0445132Y0126485D01*
X0444992Y0126694D01*
X0444940Y0126772D01*
X0444914Y0126812D01*
X0444882Y0126833D01*
X0444855Y0126851D01*
X0444796Y0126899D01*
X0443965Y0127731D01*
X0443855Y0127945D01*
X0443855Y0128019D01*
X0443852Y0128019D01*
X0443852Y0128047D01*
X0443856Y0128075D01*
X0443791Y0128578D01*
X0443779Y0128604D01*
X0443779Y0128604D01*
X0443597Y0129018D01*
X0443586Y0129043D01*
X0443383Y0129286D01*
X0443259Y0129432D01*
X0443264Y0129436D01*
X0443158Y0129617D01*
X0443149Y0129700D01*
X0443149Y0130806D01*
X0443157Y0130882D01*
X0443171Y0130951D01*
X0443149Y0131058D01*
X0443149Y0131058D01*
X0443086Y0131374D01*
X0442847Y0131733D01*
X0442815Y0131754D01*
X0442788Y0131772D01*
X0442729Y0131821D01*
X0437545Y0137005D01*
X0437496Y0137064D01*
X0437457Y0137123D01*
X0437366Y0137183D01*
X0437366Y0137183D01*
X0437098Y0137362D01*
X0436675Y0137447D01*
X0436606Y0137433D01*
X0436530Y0137425D01*
X0434434Y0137425D01*
X0434205Y0137500D01*
X0434136Y0137564D01*
X0434042Y0137677D01*
X0433619Y0137958D01*
X0433592Y0137966D01*
X0433592Y0137966D01*
X0433376Y0138034D01*
X0433134Y0138110D01*
X0432880Y0138114D01*
X0432654Y0138118D01*
X0432654Y0138118D01*
X0432626Y0138119D01*
X0432599Y0138112D01*
X0432599Y0138112D01*
X0432402Y0138058D01*
X0432136Y0137985D01*
X0431703Y0137719D01*
X0431446Y0137436D01*
X0431380Y0137363D01*
X0431380Y0137363D01*
X0431362Y0137343D01*
X0431140Y0136886D01*
X0431093Y0136605D01*
X0431059Y0136399D01*
X0431059Y0136399D01*
X0431056Y0136385D01*
X0431056Y0136341D01*
X0431128Y0135838D01*
X0431301Y0135456D01*
X0431326Y0135401D01*
X0431326Y0135401D01*
X0431338Y0135375D01*
X0431607Y0135063D01*
X0431651Y0135011D01*
X0431651Y0135011D01*
X0431669Y0134990D01*
X0431693Y0134975D01*
X0431693Y0134975D01*
X0432072Y0134729D01*
X0432096Y0134714D01*
X0432122Y0134706D01*
X0432122Y0134706D01*
X0432291Y0134656D01*
X0432583Y0134569D01*
X0432884Y0134567D01*
X0433063Y0134566D01*
X0433091Y0134565D01*
X0433117Y0134573D01*
X0433117Y0134573D01*
X0433552Y0134697D01*
X0433552Y0134697D01*
X0433579Y0134705D01*
X0434009Y0134976D01*
X0434140Y0135124D01*
X0434347Y0135247D01*
X0434432Y0135256D01*
X0436064Y0135256D01*
X0436293Y0135182D01*
X0436340Y0135142D01*
X0440866Y0130616D01*
X0440975Y0130401D01*
X0440980Y0130340D01*
X0440980Y0129692D01*
X0440906Y0129463D01*
X0440879Y0129430D01*
X0440582Y0129102D01*
X0440509Y0129039D01*
X0440501Y0129033D01*
X0440465Y0129010D01*
X0440378Y0128951D01*
X0440378Y0128951D01*
X0440360Y0128939D01*
X0440360Y0128939D01*
X0440301Y0128900D01*
X0440269Y0128879D01*
X0440230Y0128820D01*
X0440182Y0128761D01*
X0440094Y0128673D01*
X0439879Y0128564D01*
X0439641Y0128601D01*
X0439471Y0128772D01*
X0439432Y0128898D01*
X0439415Y0129026D01*
X0439404Y0129052D01*
X0439404Y0129052D01*
X0439243Y0129416D01*
X0439210Y0129491D01*
X0439109Y0129612D01*
X0438901Y0129859D01*
X0438901Y0129859D01*
X0438883Y0129880D01*
X0438460Y0130162D01*
X0438434Y0130170D01*
X0438434Y0130170D01*
X0438244Y0130230D01*
X0437975Y0130313D01*
X0437721Y0130318D01*
X0437495Y0130322D01*
X0437495Y0130322D01*
X0437467Y0130323D01*
X0437441Y0130315D01*
X0437441Y0130315D01*
X0437276Y0130271D01*
X0436977Y0130189D01*
X0436544Y0129923D01*
X0436486Y0129859D01*
X0436222Y0129567D01*
X0436222Y0129567D01*
X0436203Y0129547D01*
X0435982Y0129089D01*
X0435898Y0128588D01*
X0435897Y0128545D01*
X0435969Y0128042D01*
X0436113Y0127726D01*
X0436168Y0127604D01*
X0436168Y0127604D01*
X0436179Y0127579D01*
X0436511Y0127194D01*
X0436534Y0127179D01*
X0436534Y0127179D01*
X0436828Y0126989D01*
X0436937Y0126918D01*
X0436964Y0126910D01*
X0436964Y0126910D01*
X0437221Y0126833D01*
X0437424Y0126772D01*
X0437469Y0126772D01*
X0437498Y0126772D01*
X0437727Y0126696D01*
X0437867Y0126500D01*
X0437878Y0126306D01*
X0437831Y0126067D01*
X0437831Y0126067D01*
X0437817Y0125998D01*
X0437809Y0125960D01*
X0437823Y0125891D01*
X0437831Y0125815D01*
X0437831Y0123786D01*
X0437756Y0123557D01*
X0437716Y0123510D01*
X0435726Y0121520D01*
X0435511Y0121410D01*
X0435450Y0121406D01*
X0428594Y0121406D01*
X0428365Y0121480D01*
X0428224Y0121675D01*
X0428224Y0121916D01*
X0428341Y0122092D01*
X0428364Y0122106D01*
X0428700Y0122487D01*
X0428916Y0122947D01*
X0428994Y0123449D01*
X0428991Y0123476D01*
X0428991Y0123476D01*
X0428986Y0123510D01*
X0428928Y0123952D01*
X0428917Y0123978D01*
X0428917Y0123978D01*
X0428794Y0124259D01*
X0428724Y0124417D01*
X0428650Y0124506D01*
X0428415Y0124785D01*
X0428415Y0124785D01*
X0428397Y0124806D01*
X0427974Y0125088D01*
X0427947Y0125096D01*
X0427947Y0125096D01*
X0427732Y0125164D01*
X0427489Y0125239D01*
X0427235Y0125244D01*
X0427009Y0125248D01*
X0427009Y0125248D01*
X0426981Y0125249D01*
X0426954Y0125241D01*
X0426954Y0125241D01*
X0426790Y0125197D01*
X0426491Y0125115D01*
X0426058Y0124849D01*
X0425885Y0124658D01*
X0425736Y0124493D01*
X0425736Y0124493D01*
X0425717Y0124473D01*
X0425496Y0124015D01*
X0425437Y0123669D01*
X0425414Y0123529D01*
X0425414Y0123529D01*
X0425411Y0123514D01*
X0425411Y0123471D01*
X0425404Y0123471D01*
X0425351Y0123260D01*
X0425166Y0123107D01*
X0425021Y0123079D01*
X0422159Y0123079D01*
X0422083Y0123086D01*
X0422021Y0123099D01*
X0422021Y0123099D01*
X0421914Y0123120D01*
X0421845Y0123106D01*
X0421769Y0123099D01*
X0420960Y0123099D01*
X0420731Y0123173D01*
X0420590Y0123368D01*
X0420571Y0123488D01*
X0420571Y0126896D01*
X0420645Y0127125D01*
X0420668Y0127154D01*
X0420961Y0127485D01*
X0420970Y0127477D01*
X0421117Y0127594D01*
X0421357Y0127606D01*
X0421559Y0127473D01*
X0421640Y0127285D01*
X0421640Y0127285D01*
X0421679Y0127014D01*
X0421889Y0126551D01*
X0422221Y0126166D01*
X0422244Y0126151D01*
X0422244Y0126151D01*
X0422539Y0125960D01*
X0422647Y0125890D01*
X0422674Y0125882D01*
X0422674Y0125882D01*
X0422898Y0125815D01*
X0423134Y0125745D01*
X0423436Y0125743D01*
X0423614Y0125742D01*
X0423642Y0125741D01*
X0423669Y0125749D01*
X0423669Y0125749D01*
X0424104Y0125873D01*
X0424104Y0125873D01*
X0424131Y0125881D01*
X0424560Y0126152D01*
X0424897Y0126533D01*
X0425113Y0126993D01*
X0425191Y0127495D01*
X0425125Y0127999D01*
X0425114Y0128024D01*
X0425114Y0128024D01*
X0424949Y0128398D01*
X0424920Y0128464D01*
X0424815Y0128588D01*
X0424611Y0128831D01*
X0424611Y0128831D01*
X0424593Y0128853D01*
X0424170Y0129134D01*
X0424144Y0129142D01*
X0424144Y0129142D01*
X0423817Y0129244D01*
X0423620Y0129384D01*
X0423543Y0129612D01*
X0423615Y0129842D01*
X0423725Y0129946D01*
X0423935Y0130078D01*
X0424271Y0130459D01*
X0424487Y0130919D01*
X0424565Y0131421D01*
X0424562Y0131449D01*
X0424562Y0131449D01*
X0424555Y0131502D01*
X0424499Y0131925D01*
X0424488Y0131950D01*
X0424488Y0131950D01*
X0424461Y0132013D01*
X0424295Y0132390D01*
X0424131Y0132584D01*
X0423986Y0132758D01*
X0423986Y0132758D01*
X0423968Y0132779D01*
X0423545Y0133060D01*
X0423518Y0133069D01*
X0423518Y0133069D01*
X0423131Y0133190D01*
X0422935Y0133329D01*
X0422858Y0133557D01*
X0422930Y0133787D01*
X0422955Y0133820D01*
X0423171Y0134064D01*
X0423387Y0134524D01*
X0423391Y0134551D01*
X0423399Y0134576D01*
X0423537Y0134773D01*
X0423765Y0134852D01*
X0423995Y0134781D01*
X0424047Y0134738D01*
X0430924Y0127861D01*
X0431034Y0127646D01*
X0431033Y0127520D01*
X0431024Y0127466D01*
X0431024Y0127466D01*
X0431021Y0127451D01*
X0431021Y0127408D01*
X0431093Y0126905D01*
X0431303Y0126442D01*
X0431541Y0126166D01*
X0431617Y0126078D01*
X0431617Y0126078D01*
X0431635Y0126057D01*
X0431658Y0126042D01*
X0431658Y0126042D01*
X0431949Y0125854D01*
X0432061Y0125781D01*
X0432088Y0125773D01*
X0432088Y0125773D01*
X0432461Y0125662D01*
X0432548Y0125635D01*
X0432850Y0125634D01*
X0433028Y0125633D01*
X0433056Y0125632D01*
X0433083Y0125640D01*
X0433083Y0125640D01*
X0433518Y0125764D01*
X0433518Y0125764D01*
X0433544Y0125772D01*
X0433568Y0125787D01*
X0433719Y0125882D01*
X0433974Y0126043D01*
X0434310Y0126424D01*
X0434526Y0126884D01*
X0434605Y0127386D01*
X0434601Y0127413D01*
X0434601Y0127413D01*
X0434589Y0127504D01*
X0434539Y0127889D01*
X0434527Y0127915D01*
X0434527Y0127915D01*
X0434382Y0128246D01*
X0434334Y0128355D01*
X0434264Y0128438D01*
X0434025Y0128722D01*
X0434025Y0128722D01*
X0434007Y0128743D01*
X0433584Y0129025D01*
X0433558Y0129033D01*
X0433558Y0129033D01*
X0433378Y0129089D01*
X0433099Y0129176D01*
X0432913Y0129180D01*
X0432826Y0129181D01*
X0432598Y0129260D01*
X0432557Y0129296D01*
X0423935Y0137918D01*
X0423826Y0138132D01*
X0423825Y0138253D01*
X0423868Y0138530D01*
X0423803Y0139034D01*
X0423791Y0139059D01*
X0423791Y0139059D01*
X0423654Y0139372D01*
X0423598Y0139499D01*
X0423435Y0139693D01*
X0423289Y0139866D01*
X0423289Y0139866D01*
X0423271Y0139888D01*
X0423248Y0139903D01*
X0423248Y0139903D01*
X0423200Y0139935D01*
X0423050Y0140124D01*
X0423041Y0140365D01*
X0423174Y0140565D01*
X0423257Y0140615D01*
X0423282Y0140627D01*
X0423308Y0140634D01*
X0423738Y0140905D01*
X0424074Y0141286D01*
X0424290Y0141746D01*
X0424368Y0142248D01*
X0424365Y0142275D01*
X0424365Y0142275D01*
X0424360Y0142314D01*
X0424302Y0142752D01*
X0424291Y0142777D01*
X0424291Y0142777D01*
X0424137Y0143127D01*
X0424098Y0143217D01*
X0423955Y0143386D01*
X0423789Y0143584D01*
X0423789Y0143584D01*
X0423771Y0143606D01*
X0423348Y0143887D01*
X0423321Y0143895D01*
X0423321Y0143895D01*
X0423220Y0143927D01*
X0422863Y0144039D01*
X0422609Y0144043D01*
X0422383Y0144047D01*
X0422383Y0144047D01*
X0422355Y0144048D01*
X0422328Y0144041D01*
X0422328Y0144041D01*
X0422164Y0143996D01*
X0421865Y0143914D01*
X0421432Y0143648D01*
X0421167Y0143356D01*
X0421110Y0143292D01*
X0421110Y0143292D01*
X0421091Y0143272D01*
X0420919Y0142916D01*
X0420882Y0142840D01*
X0420882Y0142840D01*
X0420870Y0142815D01*
X0420798Y0142387D01*
X0420788Y0142328D01*
X0420788Y0142328D01*
X0420785Y0142314D01*
X0420785Y0142270D01*
X0420805Y0142128D01*
X0411512Y0142128D01*
X0411508Y0142155D01*
X0411508Y0142155D01*
X0411495Y0142255D01*
X0411446Y0142631D01*
X0411435Y0142657D01*
X0411435Y0142657D01*
X0411253Y0143071D01*
X0411242Y0143096D01*
X0411123Y0143238D01*
X0410932Y0143464D01*
X0410932Y0143464D01*
X0410915Y0143485D01*
X0410492Y0143767D01*
X0410465Y0143775D01*
X0410465Y0143775D01*
X0410249Y0143843D01*
X0410007Y0143918D01*
X0409753Y0143923D01*
X0409527Y0143927D01*
X0409527Y0143927D01*
X0409499Y0143928D01*
X0409472Y0143920D01*
X0409472Y0143920D01*
X0409294Y0143872D01*
X0409009Y0143794D01*
X0408576Y0143528D01*
X0408518Y0143464D01*
X0408253Y0143172D01*
X0408253Y0143172D01*
X0408235Y0143152D01*
X0408013Y0142694D01*
X0407968Y0142424D01*
X0407931Y0142208D01*
X0407931Y0142208D01*
X0407929Y0142193D01*
X0407928Y0142150D01*
X0408000Y0141647D01*
X0408102Y0141423D01*
X0408199Y0141209D01*
X0408199Y0141209D01*
X0408211Y0141184D01*
X0408466Y0140888D01*
X0408524Y0140820D01*
X0408524Y0140820D01*
X0408542Y0140799D01*
X0408566Y0140784D01*
X0408566Y0140784D01*
X0408945Y0140538D01*
X0408969Y0140523D01*
X0408995Y0140515D01*
X0408995Y0140515D01*
X0409178Y0140460D01*
X0409455Y0140377D01*
X0409757Y0140376D01*
X0409936Y0140374D01*
X0409963Y0140374D01*
X0409990Y0140382D01*
X0409990Y0140382D01*
X0410425Y0140506D01*
X0410425Y0140506D01*
X0410452Y0140514D01*
X0410882Y0140785D01*
X0411218Y0141166D01*
X0411434Y0141626D01*
X0411512Y0142128D01*
X0420805Y0142128D01*
X0420857Y0141767D01*
X0421067Y0141304D01*
X0421399Y0140920D01*
X0421422Y0140904D01*
X0421422Y0140904D01*
X0421448Y0140888D01*
X0421599Y0140701D01*
X0421612Y0140460D01*
X0421481Y0140258D01*
X0421391Y0140204D01*
X0421365Y0140196D01*
X0421341Y0140182D01*
X0421341Y0140182D01*
X0420956Y0139945D01*
X0420932Y0139931D01*
X0420762Y0139743D01*
X0420553Y0139623D01*
X0420473Y0139614D01*
X0416324Y0139614D01*
X0416248Y0139622D01*
X0416179Y0139636D01*
X0416072Y0139614D01*
X0416072Y0139614D01*
X0415933Y0139587D01*
X0415793Y0139559D01*
X0415793Y0139559D01*
X0415756Y0139551D01*
X0415493Y0139376D01*
X0415488Y0139372D01*
X0415481Y0139381D01*
X0415481Y0139381D01*
X0415488Y0139372D01*
X0415429Y0139333D01*
X0415397Y0139312D01*
X0415358Y0139253D01*
X0415309Y0139194D01*
X0413678Y0137563D01*
X0413464Y0137454D01*
X0413403Y0137449D01*
X0402744Y0137449D01*
X0402515Y0137523D01*
X0402374Y0137718D01*
X0402358Y0137788D01*
X0402353Y0137829D01*
X0402341Y0137854D01*
X0402341Y0137854D01*
X0402166Y0138253D01*
X0402148Y0138294D01*
X0402010Y0138458D01*
X0401839Y0138662D01*
X0401839Y0138662D01*
X0401821Y0138683D01*
X0401398Y0138965D01*
X0401372Y0138973D01*
X0401372Y0138973D01*
X0401265Y0139006D01*
X0400913Y0139116D01*
X0400659Y0139121D01*
X0400433Y0139125D01*
X0400433Y0139125D01*
X0400405Y0139125D01*
X0400379Y0139118D01*
X0400379Y0139118D01*
X0400214Y0139073D01*
X0399915Y0138992D01*
X0399482Y0138726D01*
X0399141Y0138349D01*
X0398995Y0138048D01*
X0398932Y0137917D01*
X0398932Y0137917D01*
X0398920Y0137892D01*
X0398835Y0137391D01*
X0398835Y0137371D01*
X0398835Y0137363D01*
X0398835Y0137347D01*
X0398907Y0136844D01*
X0399016Y0136605D01*
X0399106Y0136407D01*
X0399106Y0136407D01*
X0399117Y0136382D01*
X0399386Y0136070D01*
X0399431Y0136018D01*
X0399431Y0136018D01*
X0399449Y0135997D01*
X0399472Y0135982D01*
X0399472Y0135982D01*
X0399852Y0135736D01*
X0399875Y0135721D01*
X0399902Y0135713D01*
X0399902Y0135713D01*
X0400035Y0135673D01*
X0400362Y0135575D01*
X0400404Y0135575D01*
X0400466Y0135574D01*
X0400681Y0135509D01*
X0400897Y0135364D01*
X0400897Y0135364D01*
X0400929Y0135343D01*
X0400967Y0135335D01*
X0400967Y0135335D01*
X0401100Y0135309D01*
X0401246Y0135280D01*
X0413868Y0135280D01*
X0413944Y0135272D01*
X0414014Y0135258D01*
X0414051Y0135266D01*
X0414120Y0135280D01*
X0414120Y0135280D01*
X0414120Y0135280D01*
X0414120Y0135280D01*
X0414305Y0135316D01*
X0414437Y0135343D01*
X0414705Y0135522D01*
X0414705Y0135522D01*
X0414796Y0135582D01*
X0414817Y0135614D01*
X0414835Y0135641D01*
X0414883Y0135700D01*
X0416514Y0137331D01*
X0416729Y0137440D01*
X0416790Y0137445D01*
X0420510Y0137445D01*
X0420740Y0137371D01*
X0420806Y0137310D01*
X0420899Y0137202D01*
X0420892Y0137196D01*
X0420995Y0137024D01*
X0420974Y0136784D01*
X0420819Y0136605D01*
X0420552Y0136441D01*
X0420529Y0136426D01*
X0420504Y0136399D01*
X0420206Y0136070D01*
X0420206Y0136070D01*
X0420188Y0136050D01*
X0419966Y0135592D01*
X0419910Y0135256D01*
X0419884Y0135106D01*
X0419884Y0135106D01*
X0419882Y0135091D01*
X0419881Y0135048D01*
X0419953Y0134545D01*
X0420164Y0134082D01*
X0420495Y0133697D01*
X0420519Y0133682D01*
X0420519Y0133682D01*
X0420835Y0133477D01*
X0420922Y0133421D01*
X0420948Y0133413D01*
X0420948Y0133413D01*
X0421313Y0133304D01*
X0421511Y0133167D01*
X0421591Y0132940D01*
X0421522Y0132709D01*
X0421490Y0132669D01*
X0421307Y0132466D01*
X0421307Y0132466D01*
X0421288Y0132445D01*
X0421066Y0131988D01*
X0420991Y0131541D01*
X0420985Y0131502D01*
X0420985Y0131502D01*
X0420982Y0131487D01*
X0420982Y0131443D01*
X0421054Y0130940D01*
X0421126Y0130781D01*
X0421252Y0130503D01*
X0421252Y0130503D01*
X0421264Y0130478D01*
X0421506Y0130196D01*
X0421577Y0130114D01*
X0421577Y0130114D01*
X0421595Y0130093D01*
X0421619Y0130078D01*
X0421619Y0130078D01*
X0421999Y0129832D01*
X0422022Y0129816D01*
X0422048Y0129808D01*
X0422048Y0129808D01*
X0422352Y0129718D01*
X0422550Y0129581D01*
X0422630Y0129353D01*
X0422561Y0129123D01*
X0422444Y0129012D01*
X0422278Y0128910D01*
X0422254Y0128895D01*
X0421923Y0128530D01*
X0421913Y0128519D01*
X0421910Y0128521D01*
X0421741Y0128389D01*
X0421500Y0128380D01*
X0421300Y0128515D01*
X0421221Y0128705D01*
X0421189Y0128951D01*
X0421178Y0128976D01*
X0421178Y0128976D01*
X0420998Y0129384D01*
X0420984Y0129416D01*
X0420857Y0129567D01*
X0420675Y0129784D01*
X0420675Y0129784D01*
X0420657Y0129805D01*
X0420234Y0130086D01*
X0420208Y0130095D01*
X0420208Y0130095D01*
X0419993Y0130162D01*
X0419749Y0130238D01*
X0419495Y0130242D01*
X0419269Y0130247D01*
X0419269Y0130247D01*
X0419242Y0130247D01*
X0419215Y0130240D01*
X0419215Y0130240D01*
X0418975Y0130175D01*
X0418751Y0130114D01*
X0418318Y0129848D01*
X0418290Y0129816D01*
X0417996Y0129492D01*
X0417996Y0129492D01*
X0417977Y0129471D01*
X0417788Y0129079D01*
X0417768Y0129039D01*
X0417768Y0129039D01*
X0417756Y0129014D01*
X0417704Y0128705D01*
X0417674Y0128528D01*
X0417674Y0128528D01*
X0417672Y0128513D01*
X0417671Y0128469D01*
X0417743Y0127966D01*
X0417831Y0127774D01*
X0417942Y0127529D01*
X0417942Y0127529D01*
X0417953Y0127504D01*
X0418285Y0127119D01*
X0418282Y0127116D01*
X0418392Y0126932D01*
X0418401Y0126845D01*
X0418401Y0123488D01*
X0418327Y0123259D01*
X0418132Y0123118D01*
X0418012Y0123099D01*
X0414132Y0123099D01*
X0414056Y0123106D01*
X0413987Y0123120D01*
X0413880Y0123099D01*
X0413880Y0123099D01*
X0413740Y0123071D01*
X0413601Y0123043D01*
X0413601Y0123043D01*
X0413563Y0123036D01*
X0413396Y0122924D01*
X0413295Y0122856D01*
X0413295Y0122856D01*
X0413205Y0122796D01*
X0413166Y0122737D01*
X0413117Y0122678D01*
X0412984Y0122545D01*
X0412769Y0122436D01*
X0412708Y0122431D01*
X0411279Y0122431D01*
X0411049Y0122505D01*
X0410908Y0122700D01*
X0410908Y0122941D01*
X0410953Y0123035D01*
X0410968Y0123058D01*
X0410986Y0123079D01*
X0410998Y0123104D01*
X0410998Y0123104D01*
X0411071Y0123259D01*
X0411202Y0123538D01*
X0411280Y0124040D01*
X0411277Y0124068D01*
X0411277Y0124068D01*
X0411232Y0124408D01*
X0411277Y0124644D01*
X0411451Y0124810D01*
X0411566Y0124844D01*
X0411572Y0124845D01*
X0411599Y0124845D01*
X0411626Y0124853D01*
X0411626Y0124853D01*
X0412061Y0124977D01*
X0412061Y0124977D01*
X0412088Y0124985D01*
X0412517Y0125256D01*
X0412854Y0125636D01*
X0413070Y0126096D01*
X0413148Y0126598D01*
X0413144Y0126626D01*
X0413144Y0126626D01*
X0413135Y0126696D01*
X0413082Y0127102D01*
X0413071Y0127127D01*
X0413071Y0127127D01*
X0412889Y0127542D01*
X0412877Y0127567D01*
X0412750Y0127719D01*
X0412568Y0127935D01*
X0412568Y0127935D01*
X0412550Y0127956D01*
X0412128Y0128238D01*
X0412101Y0128246D01*
X0412101Y0128246D01*
X0411885Y0128313D01*
X0411643Y0128389D01*
X0411389Y0128394D01*
X0411162Y0128398D01*
X0411162Y0128398D01*
X0411135Y0128398D01*
X0411108Y0128391D01*
X0411108Y0128391D01*
X0410881Y0128329D01*
X0410644Y0128265D01*
X0410212Y0127999D01*
X0410086Y0127861D01*
X0410061Y0127833D01*
X0409852Y0127713D01*
X0409772Y0127705D01*
X0407164Y0127705D01*
X0407088Y0127712D01*
X0407019Y0127726D01*
X0406912Y0127705D01*
X0406912Y0127705D01*
X0406772Y0127677D01*
X0406633Y0127649D01*
X0406633Y0127649D01*
X0406595Y0127642D01*
X0406388Y0127504D01*
X0406327Y0127463D01*
X0406327Y0127463D01*
X0406237Y0127402D01*
X0406198Y0127344D01*
X0406149Y0127285D01*
X0404361Y0125497D01*
X0404147Y0125387D01*
X0404079Y0125383D01*
X0404022Y0125384D01*
X0403815Y0125388D01*
X0403815Y0125388D01*
X0403787Y0125388D01*
X0403760Y0125381D01*
X0403760Y0125381D01*
X0403596Y0125336D01*
X0403297Y0125254D01*
X0402864Y0124989D01*
X0402740Y0124852D01*
X0402542Y0124633D01*
X0402542Y0124633D01*
X0402523Y0124612D01*
X0402338Y0124231D01*
X0402313Y0124180D01*
X0402313Y0124180D01*
X0402301Y0124155D01*
X0402246Y0123827D01*
X0402220Y0123669D01*
X0402220Y0123669D01*
X0402217Y0123654D01*
X0402217Y0123610D01*
X0402219Y0123595D01*
X0402219Y0123591D01*
X0402160Y0123358D01*
X0401974Y0123204D01*
X0401734Y0123188D01*
X0401554Y0123290D01*
X0397185Y0127659D01*
X0397076Y0127874D01*
X0397071Y0127935D01*
X0397071Y0135974D01*
X0397146Y0136203D01*
X0397169Y0136232D01*
X0397322Y0136406D01*
X0397363Y0136452D01*
X0397579Y0136912D01*
X0397657Y0137414D01*
X0397654Y0137441D01*
X0397654Y0137441D01*
X0397649Y0137480D01*
X0397591Y0137918D01*
X0397580Y0137943D01*
X0397580Y0137943D01*
X0397426Y0138294D01*
X0397387Y0138383D01*
X0397223Y0138577D01*
X0397078Y0138750D01*
X0397078Y0138750D01*
X0397060Y0138772D01*
X0396637Y0139053D01*
X0396610Y0139061D01*
X0396610Y0139061D01*
X0396407Y0139125D01*
X0396152Y0139205D01*
X0395898Y0139209D01*
X0395672Y0139213D01*
X0395672Y0139213D01*
X0395644Y0139214D01*
X0395617Y0139207D01*
X0395617Y0139207D01*
X0395319Y0139125D01*
X0395154Y0139080D01*
X0394721Y0138814D01*
X0394380Y0138438D01*
X0394158Y0137981D01*
X0394111Y0137699D01*
X0394077Y0137494D01*
X0394077Y0137494D01*
X0394074Y0137480D01*
X0394074Y0137436D01*
X0394082Y0137376D01*
X0394142Y0136960D01*
X0394146Y0136933D01*
X0394356Y0136470D01*
X0394586Y0136203D01*
X0394669Y0136107D01*
X0394669Y0136107D01*
X0394688Y0136085D01*
X0394724Y0136062D01*
X0394876Y0135875D01*
X0394902Y0135735D01*
X0394902Y0127469D01*
X0394895Y0127393D01*
X0394888Y0127362D01*
X0394881Y0127324D01*
X0394965Y0126901D01*
X0394999Y0126851D01*
X0395144Y0126633D01*
X0395144Y0126633D01*
X0395183Y0126574D01*
X0395205Y0126542D01*
X0395263Y0126503D01*
X0395322Y0126455D01*
X0400375Y0121403D01*
X0400484Y0121188D01*
X0400446Y0120950D01*
X0400276Y0120780D01*
X0400099Y0120737D01*
X0399612Y0120737D01*
X0399536Y0120745D01*
X0399467Y0120758D01*
X0399360Y0120737D01*
X0399360Y0120737D01*
X0399221Y0120709D01*
X0399082Y0120682D01*
X0399082Y0120682D01*
X0399044Y0120674D01*
X0398789Y0120504D01*
X0398776Y0120495D01*
X0398776Y0120495D01*
X0398685Y0120434D01*
X0398646Y0120376D01*
X0398597Y0120317D01*
X0395745Y0117464D01*
X0395530Y0117355D01*
X0395292Y0117392D01*
X0395122Y0117563D01*
X0395084Y0117800D01*
X0395136Y0118134D01*
X0395070Y0118638D01*
X0395059Y0118663D01*
X0395059Y0118663D01*
X0394911Y0118999D01*
X0394866Y0119103D01*
X0394848Y0119124D01*
X0394848Y0119124D01*
X0394753Y0119236D01*
X0394682Y0119321D01*
X0394617Y0119398D01*
X0394526Y0119622D01*
X0394525Y0119649D01*
X0394525Y0121390D01*
X0394600Y0121619D01*
X0394623Y0121648D01*
X0394842Y0121896D01*
X0395058Y0122356D01*
X0395136Y0122858D01*
X0395132Y0122886D01*
X0395132Y0122886D01*
X0395127Y0122924D01*
X0395070Y0123362D01*
X0395059Y0123387D01*
X0395059Y0123387D01*
X0394884Y0123786D01*
X0394866Y0123827D01*
X0394744Y0123971D01*
X0394556Y0124195D01*
X0394556Y0124195D01*
X0394539Y0124216D01*
X0394116Y0124497D01*
X0394089Y0124506D01*
X0394089Y0124506D01*
X0393966Y0124544D01*
X0393631Y0124649D01*
X0393377Y0124654D01*
X0393151Y0124658D01*
X0393151Y0124658D01*
X0393123Y0124658D01*
X0393096Y0124651D01*
X0393096Y0124651D01*
X0392659Y0124532D01*
X0392633Y0124525D01*
X0392609Y0124510D01*
X0392370Y0124487D01*
X0392162Y0124610D01*
X0392066Y0124831D01*
X0392065Y0124868D01*
X0392065Y0144831D01*
X0392139Y0145060D01*
X0392334Y0145202D01*
X0392455Y0145221D01*
X0451122Y0145221D01*
X0451351Y0145146D01*
X0451493Y0144951D01*
X0451512Y0144831D01*
X0451512Y0142387D01*
X0439130Y0142387D01*
X0439127Y0142415D01*
X0439127Y0142415D01*
X0439122Y0142453D01*
X0439065Y0142891D01*
X0439053Y0142916D01*
X0439053Y0142916D01*
X0438871Y0143331D01*
X0438860Y0143356D01*
X0438751Y0143485D01*
X0438551Y0143724D01*
X0438551Y0143724D01*
X0438533Y0143745D01*
X0438110Y0144026D01*
X0438084Y0144035D01*
X0438084Y0144035D01*
X0437868Y0144102D01*
X0437625Y0144178D01*
X0437371Y0144183D01*
X0437145Y0144187D01*
X0437145Y0144187D01*
X0437117Y0144187D01*
X0437091Y0144180D01*
X0437091Y0144180D01*
X0436926Y0144135D01*
X0436627Y0144054D01*
X0436194Y0143788D01*
X0435972Y0143543D01*
X0435872Y0143432D01*
X0435872Y0143432D01*
X0435853Y0143411D01*
X0435632Y0142954D01*
X0435547Y0142453D01*
X0435547Y0142409D01*
X0435619Y0141906D01*
X0435737Y0141647D01*
X0435818Y0141469D01*
X0435818Y0141469D01*
X0435829Y0141444D01*
X0436161Y0141059D01*
X0436184Y0141044D01*
X0436184Y0141044D01*
X0436524Y0140823D01*
X0436587Y0140783D01*
X0436614Y0140775D01*
X0436614Y0140775D01*
X0436857Y0140702D01*
X0437074Y0140637D01*
X0437376Y0140635D01*
X0437554Y0140634D01*
X0437582Y0140634D01*
X0437609Y0140642D01*
X0437609Y0140642D01*
X0438044Y0140766D01*
X0438044Y0140766D01*
X0438070Y0140774D01*
X0438500Y0141045D01*
X0438836Y0141425D01*
X0439052Y0141885D01*
X0439130Y0142387D01*
X0451512Y0142387D01*
X0451512Y0141072D01*
X0451437Y0140843D01*
X0451242Y0140702D01*
X0451023Y0140695D01*
X0450535Y0140823D01*
X0450535Y0140823D01*
X0450513Y0140829D01*
X0450489Y0140830D01*
X0450489Y0140830D01*
X0450179Y0140835D01*
X0449845Y0140840D01*
X0449822Y0140835D01*
X0449822Y0140835D01*
X0449217Y0140696D01*
X0449217Y0140696D01*
X0449195Y0140691D01*
X0449133Y0140660D01*
X0448861Y0140523D01*
X0448598Y0140391D01*
X0448580Y0140376D01*
X0448580Y0140376D01*
X0448109Y0139973D01*
X0448108Y0139973D01*
X0448091Y0139957D01*
X0448071Y0139931D01*
X0447715Y0139434D01*
X0447715Y0139434D01*
X0447701Y0139415D01*
X0447685Y0139376D01*
X0447461Y0138818D01*
X0447461Y0138818D01*
X0447452Y0138796D01*
X0447446Y0138750D01*
X0447360Y0138148D01*
X0447360Y0138148D01*
X0447358Y0138135D01*
X0447357Y0138077D01*
X0447420Y0137563D01*
X0447435Y0137438D01*
X0447435Y0137438D01*
X0447438Y0137414D01*
X0447674Y0136790D01*
X0447993Y0136326D01*
X0448061Y0136095D01*
X0447988Y0135877D01*
X0447715Y0135497D01*
X0447715Y0135497D01*
X0447701Y0135478D01*
X0447670Y0135401D01*
X0447461Y0134881D01*
X0447461Y0134881D01*
X0447452Y0134859D01*
X0447449Y0134836D01*
X0447360Y0134211D01*
X0447360Y0134211D01*
X0447358Y0134198D01*
X0447357Y0134140D01*
X0447438Y0133477D01*
X0447674Y0132853D01*
X0447773Y0132709D01*
X0448038Y0132322D01*
X0448052Y0132303D01*
X0448550Y0131859D01*
X0449140Y0131546D01*
X0449529Y0131449D01*
X0449765Y0131389D01*
X0449765Y0131389D01*
X0449787Y0131384D01*
X0450124Y0131382D01*
X0450431Y0131380D01*
X0450431Y0131380D01*
X0450455Y0131380D01*
X0450478Y0131386D01*
X0451031Y0131518D01*
X0451271Y0131500D01*
X0451454Y0131343D01*
X0451512Y0131139D01*
X0451512Y0107423D01*
X0451437Y0107194D01*
X0451242Y0107053D01*
X0451122Y0107034D01*
X0395097Y0107034D01*
X0394868Y0107108D01*
G37*
G36*
X0424570Y0117401D02*
G01*
X0424524Y0117441D01*
X0421734Y0120230D01*
X0421625Y0120445D01*
X0421663Y0120683D01*
X0421833Y0120853D01*
X0421936Y0120878D01*
X0421934Y0120888D01*
X0421934Y0120888D01*
X0422003Y0120902D01*
X0422079Y0120910D01*
X0424783Y0120910D01*
X0425012Y0120835D01*
X0425058Y0120795D01*
X0426197Y0119657D01*
X0426245Y0119598D01*
X0426263Y0119571D01*
X0426285Y0119539D01*
X0426375Y0119479D01*
X0426375Y0119479D01*
X0426505Y0119392D01*
X0426643Y0119299D01*
X0426681Y0119292D01*
X0426681Y0119292D01*
X0426830Y0119262D01*
X0426960Y0119236D01*
X0426960Y0119236D01*
X0427067Y0119215D01*
X0427136Y0119229D01*
X0427212Y0119236D01*
X0435916Y0119236D01*
X0435992Y0119229D01*
X0436061Y0119215D01*
X0436168Y0119236D01*
X0436168Y0119236D01*
X0436297Y0119262D01*
X0436536Y0119234D01*
X0436713Y0119070D01*
X0436760Y0118834D01*
X0436649Y0118604D01*
X0435485Y0117441D01*
X0435271Y0117331D01*
X0435210Y0117327D01*
X0424800Y0117327D01*
X0424570Y0117401D01*
G37*
M02*
