G75*
G70*
%OFA0B0*%
%FSLAX25Y25*%
%IPPOS*%
%LPD*%
%AMOC8*
5,1,8,0,0,1.08239X$1,22.5*
%
%AMM10*
21,1,0.025200,0.019680,0.000000,0.000000,0.000000*
21,1,0.015750,0.029130,0.000000,0.000000,0.000000*
1,1,0.009450,0.007870,-0.009840*
1,1,0.009450,-0.007870,-0.009840*
1,1,0.009450,-0.007870,0.009840*
1,1,0.009450,0.007870,0.009840*
%
%AMM2*
21,1,0.027170,0.052760,0.000000,0.000000,270.000000*
21,1,0.017320,0.062600,0.000000,0.000000,270.000000*
1,1,0.009840,-0.026380,-0.008660*
1,1,0.009840,-0.026380,0.008660*
1,1,0.009840,0.026380,0.008660*
1,1,0.009840,0.026380,-0.008660*
%
%AMM28*
21,1,0.038980,0.026770,0.000000,0.000000,0.000000*
21,1,0.026770,0.038980,0.000000,0.000000,0.000000*
1,1,0.012210,0.013390,-0.013390*
1,1,0.012210,-0.013390,-0.013390*
1,1,0.012210,-0.013390,0.013390*
1,1,0.012210,0.013390,0.013390*
%
%AMM29*
21,1,0.044880,0.049210,0.000000,0.000000,180.000000*
21,1,0.031500,0.062600,0.000000,0.000000,180.000000*
1,1,0.013390,-0.015750,0.024610*
1,1,0.013390,0.015750,0.024610*
1,1,0.013390,0.015750,-0.024610*
1,1,0.013390,-0.015750,-0.024610*
%
%AMM30*
21,1,0.033070,0.030710,0.000000,0.000000,90.000000*
21,1,0.022050,0.041730,0.000000,0.000000,90.000000*
1,1,0.011020,0.015350,0.011020*
1,1,0.011020,0.015350,-0.011020*
1,1,0.011020,-0.015350,-0.011020*
1,1,0.011020,-0.015350,0.011020*
%
%AMM31*
21,1,0.040950,0.030320,0.000000,0.000000,270.000000*
21,1,0.028350,0.042910,0.000000,0.000000,270.000000*
1,1,0.012600,-0.015160,-0.014170*
1,1,0.012600,-0.015160,0.014170*
1,1,0.012600,0.015160,0.014170*
1,1,0.012600,0.015160,-0.014170*
%
%AMM32*
21,1,0.040950,0.030320,0.000000,0.000000,0.000000*
21,1,0.028350,0.042910,0.000000,0.000000,0.000000*
1,1,0.012600,0.014170,-0.015160*
1,1,0.012600,-0.014170,-0.015160*
1,1,0.012600,-0.014170,0.015160*
1,1,0.012600,0.014170,0.015160*
%
%AMM33*
21,1,0.076380,0.036220,0.000000,0.000000,0.000000*
21,1,0.061810,0.050790,0.000000,0.000000,0.000000*
1,1,0.014570,0.030910,-0.018110*
1,1,0.014570,-0.030910,-0.018110*
1,1,0.014570,-0.030910,0.018110*
1,1,0.014570,0.030910,0.018110*
%
%AMM34*
21,1,0.048820,0.075980,0.000000,0.000000,180.000000*
21,1,0.034650,0.090160,0.000000,0.000000,180.000000*
1,1,0.014170,-0.017320,0.037990*
1,1,0.014170,0.017320,0.037990*
1,1,0.014170,0.017320,-0.037990*
1,1,0.014170,-0.017320,-0.037990*
%
%AMM35*
21,1,0.048820,0.075990,0.000000,0.000000,180.000000*
21,1,0.034650,0.090160,0.000000,0.000000,180.000000*
1,1,0.014170,-0.017320,0.037990*
1,1,0.014170,0.017320,0.037990*
1,1,0.014170,0.017320,-0.037990*
1,1,0.014170,-0.017320,-0.037990*
%
%AMM36*
21,1,0.143310,0.067720,0.000000,0.000000,180.000000*
21,1,0.120870,0.090160,0.000000,0.000000,180.000000*
1,1,0.022440,-0.060430,0.033860*
1,1,0.022440,0.060430,0.033860*
1,1,0.022440,0.060430,-0.033860*
1,1,0.022440,-0.060430,-0.033860*
%
%AMM37*
21,1,0.031100,0.026380,0.000000,0.000000,90.000000*
21,1,0.020470,0.037010,0.000000,0.000000,90.000000*
1,1,0.010630,0.013190,0.010240*
1,1,0.010630,0.013190,-0.010240*
1,1,0.010630,-0.013190,-0.010240*
1,1,0.010630,-0.013190,0.010240*
%
%AMM38*
21,1,0.023230,0.027950,0.000000,0.000000,90.000000*
21,1,0.014170,0.037010,0.000000,0.000000,90.000000*
1,1,0.009060,0.013980,0.007090*
1,1,0.009060,0.013980,-0.007090*
1,1,0.009060,-0.013980,-0.007090*
1,1,0.009060,-0.013980,0.007090*
%
%AMM39*
21,1,0.044880,0.049210,0.000000,0.000000,90.000000*
21,1,0.031500,0.062600,0.000000,0.000000,90.000000*
1,1,0.013390,0.024610,0.015750*
1,1,0.013390,0.024610,-0.015750*
1,1,0.013390,-0.024610,-0.015750*
1,1,0.013390,-0.024610,0.015750*
%
%AMM40*
21,1,0.041340,0.026770,0.000000,0.000000,90.000000*
21,1,0.029130,0.038980,0.000000,0.000000,90.000000*
1,1,0.012210,0.013390,0.014570*
1,1,0.012210,0.013390,-0.014570*
1,1,0.012210,-0.013390,-0.014570*
1,1,0.012210,-0.013390,0.014570*
%
%AMM41*
21,1,0.033070,0.030710,0.000000,0.000000,180.000000*
21,1,0.022050,0.041730,0.000000,0.000000,180.000000*
1,1,0.011020,-0.011020,0.015350*
1,1,0.011020,0.011020,0.015350*
1,1,0.011020,0.011020,-0.015350*
1,1,0.011020,-0.011020,-0.015350*
%
%AMM46*
21,1,0.033070,0.030710,0.000000,0.000000,0.000000*
21,1,0.022050,0.041730,0.000000,0.000000,0.000000*
1,1,0.011020,0.011020,-0.015350*
1,1,0.011020,-0.011020,-0.015350*
1,1,0.011020,-0.011020,0.015350*
1,1,0.011020,0.011020,0.015350*
%
%AMM47*
21,1,0.033070,0.030710,0.000000,0.000000,270.000000*
21,1,0.022050,0.041730,0.000000,0.000000,270.000000*
1,1,0.011020,-0.015350,-0.011020*
1,1,0.011020,-0.015350,0.011020*
1,1,0.011020,0.015350,0.011020*
1,1,0.011020,0.015350,-0.011020*
%
%AMM57*
21,1,0.080320,0.083460,0.000000,0.000000,0.000000*
21,1,0.059840,0.103940,0.000000,0.000000,0.000000*
1,1,0.020470,0.029920,-0.041730*
1,1,0.020470,-0.029920,-0.041730*
1,1,0.020470,-0.029920,0.041730*
1,1,0.020470,0.029920,0.041730*
%
%AMM58*
21,1,0.092130,0.073230,0.000000,0.000000,270.000000*
21,1,0.069290,0.096060,0.000000,0.000000,270.000000*
1,1,0.022840,-0.036610,-0.034650*
1,1,0.022840,-0.036610,0.034650*
1,1,0.022840,0.036610,0.034650*
1,1,0.022840,0.036610,-0.034650*
%
%AMM59*
21,1,0.084250,0.053540,0.000000,0.000000,180.000000*
21,1,0.065350,0.072440,0.000000,0.000000,180.000000*
1,1,0.018900,-0.032680,0.026770*
1,1,0.018900,0.032680,0.026770*
1,1,0.018900,0.032680,-0.026770*
1,1,0.018900,-0.032680,-0.026770*
%
%AMM60*
21,1,0.040950,0.030320,0.000000,0.000000,90.000000*
21,1,0.028350,0.042910,0.000000,0.000000,90.000000*
1,1,0.012600,0.015160,0.014170*
1,1,0.012600,0.015160,-0.014170*
1,1,0.012600,-0.015160,-0.014170*
1,1,0.012600,-0.015160,0.014170*
%
%AMM61*
21,1,0.041340,0.026770,0.000000,0.000000,0.000000*
21,1,0.029130,0.038980,0.000000,0.000000,0.000000*
1,1,0.012210,0.014570,-0.013390*
1,1,0.012210,-0.014570,-0.013390*
1,1,0.012210,-0.014570,0.013390*
1,1,0.012210,0.014570,0.013390*
%
%AMM62*
21,1,0.100000,0.111020,0.000000,0.000000,0.000000*
21,1,0.075590,0.135430,0.000000,0.000000,0.000000*
1,1,0.024410,0.037800,-0.055510*
1,1,0.024410,-0.037800,-0.055510*
1,1,0.024410,-0.037800,0.055510*
1,1,0.024410,0.037800,0.055510*
%
%AMM63*
21,1,0.076380,0.036220,0.000000,0.000000,90.000000*
21,1,0.061810,0.050790,0.000000,0.000000,90.000000*
1,1,0.014570,0.018110,0.030910*
1,1,0.014570,0.018110,-0.030910*
1,1,0.014570,-0.018110,-0.030910*
1,1,0.014570,-0.018110,0.030910*
%
%AMM64*
21,1,0.021260,0.016540,0.000000,0.000000,270.000000*
21,1,0.012600,0.025200,0.000000,0.000000,270.000000*
1,1,0.008660,-0.008270,-0.006300*
1,1,0.008660,-0.008270,0.006300*
1,1,0.008660,0.008270,0.006300*
1,1,0.008660,0.008270,-0.006300*
%
%AMM65*
21,1,0.029130,0.018900,0.000000,0.000000,90.000000*
21,1,0.018900,0.029130,0.000000,0.000000,90.000000*
1,1,0.010240,0.009450,0.009450*
1,1,0.010240,0.009450,-0.009450*
1,1,0.010240,-0.009450,-0.009450*
1,1,0.010240,-0.009450,0.009450*
%
%AMM8*
21,1,0.025200,0.019680,0.000000,0.000000,270.000000*
21,1,0.015750,0.029130,0.000000,0.000000,270.000000*
1,1,0.009450,-0.009840,-0.007870*
1,1,0.009450,-0.009840,0.007870*
1,1,0.009450,0.009840,0.007870*
1,1,0.009450,0.009840,-0.007870*
%
%AMM9*
21,1,0.038980,0.026770,0.000000,0.000000,270.000000*
21,1,0.026770,0.038980,0.000000,0.000000,270.000000*
1,1,0.012210,-0.013390,-0.013390*
1,1,0.012210,-0.013390,0.013390*
1,1,0.012210,0.013390,0.013390*
1,1,0.012210,0.013390,-0.013390*
%
%ADD115R,0.07874X0.02559*%
%ADD116R,0.17717X0.31890*%
%ADD120M2*%
%ADD121C,0.02913*%
%ADD127M8*%
%ADD128M9*%
%ADD129M10*%
%ADD150C,0.05118*%
%ADD151M28*%
%ADD152M29*%
%ADD153M30*%
%ADD154M31*%
%ADD155M32*%
%ADD156O,0.04488X0.06457*%
%ADD157O,0.03701X0.02913*%
%ADD158M33*%
%ADD159M34*%
%ADD160M35*%
%ADD161M36*%
%ADD162M37*%
%ADD163M38*%
%ADD164O,0.02913X0.09213*%
%ADD165O,0.09213X0.02913*%
%ADD166M39*%
%ADD167M40*%
%ADD168M41*%
%ADD17C,0.02362*%
%ADD180O,0.01339X0.02126*%
%ADD181O,0.05512X0.01535*%
%ADD182M46*%
%ADD183M47*%
%ADD194M57*%
%ADD195M58*%
%ADD196M59*%
%ADD197M60*%
%ADD198M61*%
%ADD199M62*%
%ADD200M63*%
%ADD201M64*%
%ADD202M65*%
%ADD203C,0.06457*%
%ADD212R,0.03543X0.03150*%
%ADD215R,0.03150X0.03543*%
%ADD223C,0.03100*%
%ADD226C,0.03900*%
%ADD233R,0.02559X0.01575*%
%ADD234R,0.01575X0.02559*%
%ADD235R,0.08661X0.04724*%
%ADD236R,0.25197X0.22835*%
%ADD237R,0.07874X0.07500*%
%ADD238O,0.07874X0.07500*%
%ADD33C,0.05906*%
%ADD56C,0.10236*%
%ADD57C,0.14567*%
%ADD58C,0.08661*%
%ADD59C,0.06693*%
%ADD62O,0.00787X0.01575*%
%ADD63O,0.03150X0.02362*%
%ADD64O,0.03937X0.05906*%
%ADD74C,0.06000*%
%ADD75R,0.04724X0.03543*%
%ADD76C,0.07874*%
%ADD77R,0.14173X0.10236*%
%ADD78R,0.03543X0.04724*%
%ADD79O,0.06693X0.06693*%
%ADD80R,0.06693X0.06693*%
%ADD81O,0.04331X0.09449*%
%ADD82C,0.04331*%
%ADD83R,0.04331X0.04331*%
X0000000Y0000000D02*
%LPD*%
G01*
D17*
X0393344Y0118156D03*
X0393344Y0122880D03*
X0393344Y0113431D03*
X0393344Y0108707D03*
X0450135Y0134140D03*
X0450135Y0138077D03*
D33*
X0368567Y0245323D03*
X0368567Y0220126D03*
X0368567Y0212646D03*
X0368567Y0195717D03*
D17*
X0370339Y0186268D03*
X0370339Y0182331D03*
D33*
X0368567Y0171111D03*
X0307543Y0247095D03*
X0307543Y0239811D03*
X0307543Y0220323D03*
X0307543Y0172882D03*
D17*
X0125197Y0134941D03*
X0125197Y0131201D03*
X0125197Y0127461D03*
X0090945Y0131398D03*
X0090945Y0134941D03*
D56*
X0545071Y0073315D03*
X0521843Y0073315D03*
X0499008Y0073315D03*
X0533654Y0050480D03*
X0510425Y0050480D03*
X0545071Y0041307D03*
X0521843Y0041307D03*
X0499008Y0041307D03*
D33*
X0468181Y0073315D03*
X0458181Y0073315D03*
X0448181Y0073315D03*
X0438181Y0073315D03*
X0428181Y0073315D03*
X0418181Y0073315D03*
X0408181Y0073315D03*
X0398181Y0073315D03*
X0468181Y0063315D03*
X0458181Y0063315D03*
X0448181Y0063315D03*
X0438181Y0063315D03*
X0428181Y0063315D03*
X0418181Y0063315D03*
X0408181Y0063315D03*
X0398181Y0063315D03*
X0468181Y0039496D03*
X0458181Y0039496D03*
X0448181Y0039496D03*
X0438181Y0039496D03*
X0428181Y0039496D03*
X0418181Y0039496D03*
X0408181Y0039496D03*
X0398181Y0039496D03*
X0468181Y0029496D03*
X0458181Y0029496D03*
X0448181Y0029496D03*
X0438181Y0029496D03*
X0428181Y0029496D03*
X0418181Y0029496D03*
X0408181Y0029496D03*
X0398181Y0029496D03*
X0155307Y0029496D03*
X0165307Y0029496D03*
X0175307Y0029496D03*
X0185307Y0029496D03*
X0195307Y0029496D03*
X0205307Y0029496D03*
X0215307Y0029496D03*
X0225307Y0029496D03*
X0235307Y0029496D03*
X0245307Y0029496D03*
X0255307Y0029496D03*
X0265307Y0029496D03*
X0275307Y0029496D03*
X0285307Y0029496D03*
X0295307Y0029496D03*
X0305307Y0029496D03*
X0315307Y0029496D03*
X0325307Y0029496D03*
X0335307Y0029496D03*
X0155307Y0039496D03*
X0165307Y0039496D03*
X0175307Y0039496D03*
X0185307Y0039496D03*
X0195307Y0039496D03*
X0205307Y0039496D03*
X0215307Y0039496D03*
X0225307Y0039496D03*
X0235307Y0039496D03*
X0245307Y0039496D03*
X0255307Y0039496D03*
X0265307Y0039496D03*
X0275307Y0039496D03*
X0285307Y0039496D03*
X0295307Y0039496D03*
X0305307Y0039496D03*
X0315307Y0039496D03*
X0325307Y0039496D03*
X0335307Y0039496D03*
X0155307Y0063315D03*
X0165307Y0063315D03*
X0175307Y0063315D03*
X0185307Y0063315D03*
X0195307Y0063315D03*
X0205307Y0063315D03*
X0215307Y0063315D03*
X0225307Y0063315D03*
X0235307Y0063315D03*
X0245307Y0063315D03*
X0255307Y0063315D03*
X0265307Y0063315D03*
X0275307Y0063315D03*
X0285307Y0063315D03*
X0295307Y0063315D03*
X0305307Y0063315D03*
X0315307Y0063315D03*
X0325307Y0063315D03*
X0335307Y0063315D03*
X0155307Y0073315D03*
X0165307Y0073315D03*
X0175307Y0073315D03*
X0185307Y0073315D03*
X0195307Y0073315D03*
X0205307Y0073315D03*
X0215307Y0073315D03*
X0225307Y0073315D03*
X0235307Y0073315D03*
X0245307Y0073315D03*
X0255307Y0073315D03*
X0265307Y0073315D03*
X0275307Y0073315D03*
X0285307Y0073315D03*
X0295307Y0073315D03*
X0305307Y0073315D03*
X0315307Y0073315D03*
X0325307Y0073315D03*
X0335307Y0073315D03*
D56*
X0124205Y0073315D03*
X0101370Y0073315D03*
X0112787Y0050480D03*
X0124205Y0041307D03*
X0101370Y0041307D03*
D57*
X0572236Y0021622D03*
D58*
X0562591Y0052331D03*
D57*
X0366724Y0021622D03*
D58*
X0083063Y0052331D03*
D57*
X0073417Y0021622D03*
G36*
G01*
X0134429Y0274803D02*
X0133248Y0274803D01*
G75*
G02*
X0132657Y0275394I0000000J0000591D01*
G01*
X0132657Y0281890D01*
G75*
G02*
X0133248Y0282480I0000591J0000000D01*
G01*
X0134429Y0282480D01*
G75*
G02*
X0135020Y0281890I0000000J-000591D01*
G01*
X0135020Y0275394D01*
G75*
G02*
X0134429Y0274803I-000591J0000000D01*
G01*
G37*
G36*
G01*
X0139429Y0274803D02*
X0138248Y0274803D01*
G75*
G02*
X0137657Y0275394I0000000J0000591D01*
G01*
X0137657Y0281890D01*
G75*
G02*
X0138248Y0282480I0000591J0000000D01*
G01*
X0139429Y0282480D01*
G75*
G02*
X0140020Y0281890I0000000J-000591D01*
G01*
X0140020Y0275394D01*
G75*
G02*
X0139429Y0274803I-000591J0000000D01*
G01*
G37*
G36*
G01*
X0144429Y0274803D02*
X0143248Y0274803D01*
G75*
G02*
X0142657Y0275394I0000000J0000591D01*
G01*
X0142657Y0281890D01*
G75*
G02*
X0143248Y0282480I0000591J0000000D01*
G01*
X0144429Y0282480D01*
G75*
G02*
X0145020Y0281890I0000000J-000591D01*
G01*
X0145020Y0275394D01*
G75*
G02*
X0144429Y0274803I-000591J0000000D01*
G01*
G37*
G36*
G01*
X0149429Y0274803D02*
X0148248Y0274803D01*
G75*
G02*
X0147657Y0275394I0000000J0000591D01*
G01*
X0147657Y0281890D01*
G75*
G02*
X0148248Y0282480I0000591J0000000D01*
G01*
X0149429Y0282480D01*
G75*
G02*
X0150020Y0281890I0000000J-000591D01*
G01*
X0150020Y0275394D01*
G75*
G02*
X0149429Y0274803I-000591J0000000D01*
G01*
G37*
G36*
G01*
X0149429Y0255315D02*
X0148248Y0255315D01*
G75*
G02*
X0147657Y0255906I0000000J0000591D01*
G01*
X0147657Y0262402D01*
G75*
G02*
X0148248Y0262992I0000591J0000000D01*
G01*
X0149429Y0262992D01*
G75*
G02*
X0150020Y0262402I0000000J-000591D01*
G01*
X0150020Y0255906D01*
G75*
G02*
X0149429Y0255315I-000591J0000000D01*
G01*
G37*
G36*
G01*
X0144429Y0255315D02*
X0143248Y0255315D01*
G75*
G02*
X0142657Y0255906I0000000J0000591D01*
G01*
X0142657Y0262402D01*
G75*
G02*
X0143248Y0262992I0000591J0000000D01*
G01*
X0144429Y0262992D01*
G75*
G02*
X0145020Y0262402I0000000J-000591D01*
G01*
X0145020Y0255906D01*
G75*
G02*
X0144429Y0255315I-000591J0000000D01*
G01*
G37*
G36*
G01*
X0139429Y0255315D02*
X0138248Y0255315D01*
G75*
G02*
X0137657Y0255906I0000000J0000591D01*
G01*
X0137657Y0262402D01*
G75*
G02*
X0138248Y0262992I0000591J0000000D01*
G01*
X0139429Y0262992D01*
G75*
G02*
X0140020Y0262402I0000000J-000591D01*
G01*
X0140020Y0255906D01*
G75*
G02*
X0139429Y0255315I-000591J0000000D01*
G01*
G37*
G36*
G01*
X0134429Y0255315D02*
X0133248Y0255315D01*
G75*
G02*
X0132657Y0255906I0000000J0000591D01*
G01*
X0132657Y0262402D01*
G75*
G02*
X0133248Y0262992I0000591J0000000D01*
G01*
X0134429Y0262992D01*
G75*
G02*
X0135020Y0262402I0000000J-000591D01*
G01*
X0135020Y0255906D01*
G75*
G02*
X0134429Y0255315I-000591J0000000D01*
G01*
G37*
D59*
X0175000Y0154327D03*
X0590000Y0287598D03*
X0590000Y0297598D03*
X0590000Y0307598D03*
X0590000Y0317598D03*
X0590000Y0327598D03*
X0600000Y0287598D03*
X0600000Y0297598D03*
X0600000Y0307598D03*
X0600000Y0317598D03*
X0600000Y0327598D03*
X0610000Y0287598D03*
X0610000Y0297598D03*
X0610000Y0307598D03*
X0610000Y0317598D03*
X0610000Y0327598D03*
X0225197Y0111319D03*
D62*
X0135895Y0329979D03*
X0132903Y0329979D03*
X0128277Y0329979D03*
X0123651Y0329979D03*
X0120344Y0329979D03*
X0117391Y0329979D03*
X0112765Y0329979D03*
X0108139Y0329979D03*
D17*
X0127982Y0369741D03*
X0135206Y0368068D03*
X0127135Y0365902D03*
X0127982Y0362458D03*
X0128277Y0359111D03*
X0135206Y0357831D03*
X0130049Y0352713D03*
X0135206Y0350154D03*
X0111879Y0378402D03*
X0127923Y0377221D03*
D63*
X0376167Y0190345D03*
D64*
X0411817Y0176580D03*
X0468412Y0176580D03*
X0473356Y0176580D03*
D59*
X0199508Y0154228D03*
X0160138Y0128642D03*
X0302145Y0118947D03*
X0267717Y0147146D03*
G36*
G01*
X0048866Y0356319D02*
X0048866Y0361201D01*
G75*
G02*
X0049378Y0361713I0000512J0000000D01*
G01*
X0053472Y0361713D01*
G75*
G02*
X0053984Y0361201I0000000J-000512D01*
G01*
X0053984Y0356319D01*
G75*
G02*
X0053472Y0355807I-000512J0000000D01*
G01*
X0049378Y0355807D01*
G75*
G02*
X0048866Y0356319I0000000J0000512D01*
G01*
G37*
G36*
G01*
X0056346Y0356319D02*
X0056346Y0361201D01*
G75*
G02*
X0056858Y0361713I0000512J0000000D01*
G01*
X0060953Y0361713D01*
G75*
G02*
X0061465Y0361201I0000000J-000512D01*
G01*
X0061465Y0356319D01*
G75*
G02*
X0060953Y0355807I-000512J0000000D01*
G01*
X0056858Y0355807D01*
G75*
G02*
X0056346Y0356319I0000000J0000512D01*
G01*
G37*
X0460379Y0134747D03*
X0312676Y0118947D03*
X0272835Y0100886D03*
X0262106Y0100591D03*
D74*
X0034252Y0125315D03*
G36*
G01*
X0031791Y0123524D02*
X0036713Y0123524D01*
G75*
G02*
X0037106Y0123130I0000000J-000394D01*
G01*
X0037106Y0119980D01*
G75*
G02*
X0036713Y0119587I-000394J0000000D01*
G01*
X0031791Y0119587D01*
G75*
G02*
X0031398Y0119980I0000000J0000394D01*
G01*
X0031398Y0123130D01*
G75*
G02*
X0031791Y0123524I0000394J0000000D01*
G01*
G37*
G36*
G01*
X0031791Y0116043D02*
X0036713Y0116043D01*
G75*
G02*
X0037106Y0115650I0000000J-000394D01*
G01*
X0037106Y0112500D01*
G75*
G02*
X0036713Y0112106I-000394J0000000D01*
G01*
X0031791Y0112106D01*
G75*
G02*
X0031398Y0112500I0000000J0000394D01*
G01*
X0031398Y0115650D01*
G75*
G02*
X0031791Y0116043I0000394J0000000D01*
G01*
G37*
X0034252Y0110315D03*
D59*
X0590000Y0340000D03*
X0590000Y0350000D03*
X0590000Y0360000D03*
X0590000Y0370000D03*
X0590000Y0380000D03*
X0600000Y0340000D03*
X0600000Y0350000D03*
X0600000Y0360000D03*
X0600000Y0370000D03*
X0600000Y0380000D03*
X0610000Y0340000D03*
X0610000Y0350000D03*
X0610000Y0360000D03*
X0610000Y0370000D03*
X0610000Y0380000D03*
D74*
X0214961Y0103524D03*
G36*
G01*
X0217421Y0105315D02*
X0212500Y0105315D01*
G75*
G02*
X0212106Y0105709I0000000J0000394D01*
G01*
X0212106Y0108858D01*
G75*
G02*
X0212500Y0109252I0000394J0000000D01*
G01*
X0217421Y0109252D01*
G75*
G02*
X0217815Y0108858I0000000J-000394D01*
G01*
X0217815Y0105709D01*
G75*
G02*
X0217421Y0105315I-000394J0000000D01*
G01*
G37*
G36*
G01*
X0217421Y0112795D02*
X0212500Y0112795D01*
G75*
G02*
X0212106Y0113189I0000000J0000394D01*
G01*
X0212106Y0116339D01*
G75*
G02*
X0212500Y0116732I0000394J0000000D01*
G01*
X0217421Y0116732D01*
G75*
G02*
X0217815Y0116339I0000000J-000394D01*
G01*
X0217815Y0113189D01*
G75*
G02*
X0217421Y0112795I-000394J0000000D01*
G01*
G37*
X0214961Y0118524D03*
D59*
X0341634Y0100689D03*
X0210630Y0154228D03*
G36*
G01*
X0033906Y0377126D02*
X0033906Y0374055D01*
G75*
G02*
X0033630Y0373780I-000276J0000000D01*
G01*
X0031425Y0373780D01*
G75*
G02*
X0031150Y0374055I0000000J0000276D01*
G01*
X0031150Y0377126D01*
G75*
G02*
X0031425Y0377402I0000276J0000000D01*
G01*
X0033630Y0377402D01*
G75*
G02*
X0033906Y0377126I0000000J-000276D01*
G01*
G37*
G36*
G01*
X0040205Y0377126D02*
X0040205Y0374055D01*
G75*
G02*
X0039929Y0373780I-000276J0000000D01*
G01*
X0037724Y0373780D01*
G75*
G02*
X0037449Y0374055I0000000J0000276D01*
G01*
X0037449Y0377126D01*
G75*
G02*
X0037724Y0377402I0000276J0000000D01*
G01*
X0039929Y0377402D01*
G75*
G02*
X0040205Y0377126I0000000J-000276D01*
G01*
G37*
X0291712Y0118947D03*
X0180807Y0128642D03*
D74*
X0190354Y0117933D03*
G36*
G01*
X0187894Y0116142D02*
X0192815Y0116142D01*
G75*
G02*
X0193209Y0115748I0000000J-000394D01*
G01*
X0193209Y0112598D01*
G75*
G02*
X0192815Y0112205I-000394J0000000D01*
G01*
X0187894Y0112205D01*
G75*
G02*
X0187500Y0112598I0000000J0000394D01*
G01*
X0187500Y0115748D01*
G75*
G02*
X0187894Y0116142I0000394J0000000D01*
G01*
G37*
G36*
G01*
X0187894Y0108661D02*
X0192815Y0108661D01*
G75*
G02*
X0193209Y0108268I0000000J-000394D01*
G01*
X0193209Y0105118D01*
G75*
G02*
X0192815Y0104724I-000394J0000000D01*
G01*
X0187894Y0104724D01*
G75*
G02*
X0187500Y0105118I0000000J0000394D01*
G01*
X0187500Y0108268D01*
G75*
G02*
X0187894Y0108661I0000394J0000000D01*
G01*
G37*
X0190354Y0102933D03*
X0488484Y0105413D03*
G36*
G01*
X0492028Y0110709D02*
X0492028Y0107992D01*
G75*
G02*
X0491122Y0107087I-000906J0000000D01*
G01*
X0485846Y0107087D01*
G75*
G02*
X0484941Y0107992I0000000J0000906D01*
G01*
X0484941Y0110709D01*
G75*
G02*
X0485846Y0111614I0000906J0000000D01*
G01*
X0491122Y0111614D01*
G75*
G02*
X0492028Y0110709I0000000J-000906D01*
G01*
G37*
G36*
G01*
X0492028Y0122126D02*
X0492028Y0119409D01*
G75*
G02*
X0491122Y0118504I-000906J0000000D01*
G01*
X0485846Y0118504D01*
G75*
G02*
X0484941Y0119409I0000000J0000906D01*
G01*
X0484941Y0122126D01*
G75*
G02*
X0485846Y0123032I0000906J0000000D01*
G01*
X0491122Y0123032D01*
G75*
G02*
X0492028Y0122126I0000000J-000906D01*
G01*
G37*
X0488484Y0124705D03*
D75*
X0480379Y0153351D03*
X0480379Y0166343D03*
D76*
X0070717Y0358760D03*
G36*
G01*
X0033906Y0319843D02*
X0033906Y0316772D01*
G75*
G02*
X0033630Y0316496I-000276J0000000D01*
G01*
X0031425Y0316496D01*
G75*
G02*
X0031150Y0316772I0000000J0000276D01*
G01*
X0031150Y0319843D01*
G75*
G02*
X0031425Y0320118I0000276J0000000D01*
G01*
X0033630Y0320118D01*
G75*
G02*
X0033906Y0319843I0000000J-000276D01*
G01*
G37*
G36*
G01*
X0040205Y0319843D02*
X0040205Y0316772D01*
G75*
G02*
X0039929Y0316496I-000276J0000000D01*
G01*
X0037724Y0316496D01*
G75*
G02*
X0037449Y0316772I0000000J0000276D01*
G01*
X0037449Y0319843D01*
G75*
G02*
X0037724Y0320118I0000276J0000000D01*
G01*
X0039929Y0320118D01*
G75*
G02*
X0040205Y0319843I0000000J-000276D01*
G01*
G37*
G36*
G01*
X0048866Y0379941D02*
X0048866Y0384823D01*
G75*
G02*
X0049378Y0385335I0000512J0000000D01*
G01*
X0053472Y0385335D01*
G75*
G02*
X0053984Y0384823I0000000J-000512D01*
G01*
X0053984Y0379941D01*
G75*
G02*
X0053472Y0379429I-000512J0000000D01*
G01*
X0049378Y0379429D01*
G75*
G02*
X0048866Y0379941I0000000J0000512D01*
G01*
G37*
G36*
G01*
X0056346Y0379941D02*
X0056346Y0384823D01*
G75*
G02*
X0056858Y0385335I0000512J0000000D01*
G01*
X0060953Y0385335D01*
G75*
G02*
X0061465Y0384823I0000000J-000512D01*
G01*
X0061465Y0379941D01*
G75*
G02*
X0060953Y0379429I-000512J0000000D01*
G01*
X0056858Y0379429D01*
G75*
G02*
X0056346Y0379941I0000000J0000512D01*
G01*
G37*
G36*
G01*
X0141791Y0289134D02*
X0141791Y0286457D01*
G75*
G02*
X0141457Y0286122I-000335J0000000D01*
G01*
X0138780Y0286122D01*
G75*
G02*
X0138445Y0286457I0000000J0000335D01*
G01*
X0138445Y0289134D01*
G75*
G02*
X0138780Y0289469I0000335J0000000D01*
G01*
X0141457Y0289469D01*
G75*
G02*
X0141791Y0289134I0000000J-000335D01*
G01*
G37*
G36*
G01*
X0135571Y0289134D02*
X0135571Y0286457D01*
G75*
G02*
X0135236Y0286122I-000335J0000000D01*
G01*
X0132559Y0286122D01*
G75*
G02*
X0132224Y0286457I0000000J0000335D01*
G01*
X0132224Y0289134D01*
G75*
G02*
X0132559Y0289469I0000335J0000000D01*
G01*
X0135236Y0289469D01*
G75*
G02*
X0135571Y0289134I0000000J-000335D01*
G01*
G37*
D59*
X0323279Y0118947D03*
D77*
X0529921Y0249606D03*
X0529921Y0364961D03*
D59*
X0281279Y0118947D03*
X0356299Y0158760D03*
G36*
G01*
X0051583Y0365453D02*
X0049693Y0365453D01*
G75*
G02*
X0049457Y0365689I0000000J0000236D01*
G01*
X0049457Y0367579D01*
G75*
G02*
X0049693Y0367815I0000236J0000000D01*
G01*
X0051583Y0367815D01*
G75*
G02*
X0051819Y0367579I0000000J-000236D01*
G01*
X0051819Y0365689D01*
G75*
G02*
X0051583Y0365453I-000236J0000000D01*
G01*
G37*
G36*
G01*
X0060244Y0365453D02*
X0058354Y0365453D01*
G75*
G02*
X0058118Y0365689I0000000J0000236D01*
G01*
X0058118Y0367579D01*
G75*
G02*
X0058354Y0367815I0000236J0000000D01*
G01*
X0060244Y0367815D01*
G75*
G02*
X0060480Y0367579I0000000J-000236D01*
G01*
X0060480Y0365689D01*
G75*
G02*
X0060244Y0365453I-000236J0000000D01*
G01*
G37*
X0285925Y0100689D03*
D74*
X0052362Y0125512D03*
G36*
G01*
X0049902Y0123720D02*
X0054823Y0123720D01*
G75*
G02*
X0055217Y0123327I0000000J-000394D01*
G01*
X0055217Y0120177D01*
G75*
G02*
X0054823Y0119783I-000394J0000000D01*
G01*
X0049902Y0119783D01*
G75*
G02*
X0049508Y0120177I0000000J0000394D01*
G01*
X0049508Y0123327D01*
G75*
G02*
X0049902Y0123720I0000394J0000000D01*
G01*
G37*
G36*
G01*
X0049902Y0116240D02*
X0054823Y0116240D01*
G75*
G02*
X0055217Y0115846I0000000J-000394D01*
G01*
X0055217Y0112697D01*
G75*
G02*
X0054823Y0112303I-000394J0000000D01*
G01*
X0049902Y0112303D01*
G75*
G02*
X0049508Y0112697I0000000J0000394D01*
G01*
X0049508Y0115846D01*
G75*
G02*
X0049902Y0116240I0000394J0000000D01*
G01*
G37*
X0052362Y0110512D03*
G36*
G01*
X0051583Y0373327D02*
X0049693Y0373327D01*
G75*
G02*
X0049457Y0373563I0000000J0000236D01*
G01*
X0049457Y0375453D01*
G75*
G02*
X0049693Y0375689I0000236J0000000D01*
G01*
X0051583Y0375689D01*
G75*
G02*
X0051819Y0375453I0000000J-000236D01*
G01*
X0051819Y0373563D01*
G75*
G02*
X0051583Y0373327I-000236J0000000D01*
G01*
G37*
G36*
G01*
X0060244Y0373327D02*
X0058354Y0373327D01*
G75*
G02*
X0058118Y0373563I0000000J0000236D01*
G01*
X0058118Y0375453D01*
G75*
G02*
X0058354Y0375689I0000236J0000000D01*
G01*
X0060244Y0375689D01*
G75*
G02*
X0060480Y0375453I0000000J-000236D01*
G01*
X0060480Y0373563D01*
G75*
G02*
X0060244Y0373327I-000236J0000000D01*
G01*
G37*
D59*
X0251083Y0100886D03*
D74*
X0203150Y0102933D03*
G36*
G01*
X0205610Y0104724D02*
X0200689Y0104724D01*
G75*
G02*
X0200295Y0105118I0000000J0000394D01*
G01*
X0200295Y0108268D01*
G75*
G02*
X0200689Y0108661I0000394J0000000D01*
G01*
X0205610Y0108661D01*
G75*
G02*
X0206004Y0108268I0000000J-000394D01*
G01*
X0206004Y0105118D01*
G75*
G02*
X0205610Y0104724I-000394J0000000D01*
G01*
G37*
G36*
G01*
X0205610Y0112205D02*
X0200689Y0112205D01*
G75*
G02*
X0200295Y0112599I0000000J0000394D01*
G01*
X0200295Y0115748D01*
G75*
G02*
X0200689Y0116142I0000394J0000000D01*
G01*
X0205610Y0116142D01*
G75*
G02*
X0206004Y0115748I0000000J-000394D01*
G01*
X0206004Y0112599D01*
G75*
G02*
X0205610Y0112205I-000394J0000000D01*
G01*
G37*
X0203150Y0117933D03*
D59*
X0215679Y0128647D03*
X0270846Y0118947D03*
G36*
G01*
X0528583Y0375591D02*
X0530472Y0375591D01*
G75*
G02*
X0530709Y0375354I0000000J-000236D01*
G01*
X0530709Y0373465D01*
G75*
G02*
X0530472Y0373228I-000236J0000000D01*
G01*
X0528583Y0373228D01*
G75*
G02*
X0528346Y0373465I0000000J0000236D01*
G01*
X0528346Y0375354D01*
G75*
G02*
X0528583Y0375591I0000236J0000000D01*
G01*
G37*
G36*
G01*
X0519921Y0375591D02*
X0521811Y0375591D01*
G75*
G02*
X0522047Y0375354I0000000J-000236D01*
G01*
X0522047Y0373465D01*
G75*
G02*
X0521811Y0373228I-000236J0000000D01*
G01*
X0519921Y0373228D01*
G75*
G02*
X0519685Y0373465I0000000J0000236D01*
G01*
X0519685Y0375354D01*
G75*
G02*
X0519921Y0375591I0000236J0000000D01*
G01*
G37*
X0331594Y0100689D03*
X0344279Y0118947D03*
X0153543Y0113681D03*
D78*
X0446075Y0168147D03*
X0433083Y0168147D03*
D79*
X0051969Y0260827D03*
X0051969Y0250827D03*
X0051969Y0240827D03*
X0051969Y0230827D03*
X0051969Y0220827D03*
D80*
X0051969Y0210827D03*
D78*
X0452683Y0168147D03*
X0465675Y0168147D03*
D59*
X0570472Y0411811D03*
X0570472Y0401811D03*
X0570472Y0391811D03*
X0570472Y0381811D03*
X0570472Y0371811D03*
X0560472Y0411811D03*
X0560472Y0401811D03*
X0560472Y0391811D03*
X0560472Y0381811D03*
X0560472Y0371811D03*
X0550472Y0411811D03*
X0550472Y0401811D03*
X0550472Y0391811D03*
X0550472Y0381811D03*
X0550472Y0371811D03*
X0188189Y0154232D03*
D74*
X0182382Y0103012D03*
G36*
G01*
X0184843Y0104803D02*
X0179921Y0104803D01*
G75*
G02*
X0179528Y0105197I0000000J0000394D01*
G01*
X0179528Y0108346D01*
G75*
G02*
X0179921Y0108740I0000394J0000000D01*
G01*
X0184843Y0108740D01*
G75*
G02*
X0185236Y0108346I0000000J-000394D01*
G01*
X0185236Y0105197D01*
G75*
G02*
X0184843Y0104803I-000394J0000000D01*
G01*
G37*
G36*
G01*
X0184843Y0112284D02*
X0179921Y0112284D01*
G75*
G02*
X0179528Y0112677I0000000J0000394D01*
G01*
X0179528Y0115827D01*
G75*
G02*
X0179921Y0116221I0000394J0000000D01*
G01*
X0184843Y0116221D01*
G75*
G02*
X0185236Y0115827I0000000J-000394D01*
G01*
X0185236Y0112677D01*
G75*
G02*
X0184843Y0112284I-000394J0000000D01*
G01*
G37*
X0182382Y0118012D03*
D59*
X0170079Y0128642D03*
D78*
X0410827Y0162106D03*
X0397835Y0162106D03*
D74*
X0061417Y0125512D03*
G36*
G01*
X0058957Y0123721D02*
X0063878Y0123721D01*
G75*
G02*
X0064272Y0123327I0000000J-000394D01*
G01*
X0064272Y0120177D01*
G75*
G02*
X0063878Y0119784I-000394J0000000D01*
G01*
X0058957Y0119784D01*
G75*
G02*
X0058563Y0120177I0000000J0000394D01*
G01*
X0058563Y0123327D01*
G75*
G02*
X0058957Y0123721I0000394J0000000D01*
G01*
G37*
G36*
G01*
X0058957Y0116240D02*
X0063878Y0116240D01*
G75*
G02*
X0064272Y0115846I0000000J-000394D01*
G01*
X0064272Y0112697D01*
G75*
G02*
X0063878Y0112303I-000394J0000000D01*
G01*
X0058957Y0112303D01*
G75*
G02*
X0058563Y0112697I0000000J0000394D01*
G01*
X0058563Y0115846D01*
G75*
G02*
X0058957Y0116240I0000394J0000000D01*
G01*
G37*
X0061417Y0110512D03*
X0499902Y0105413D03*
G36*
G01*
X0503445Y0110709D02*
X0503445Y0107992D01*
G75*
G02*
X0502539Y0107087I-000906J0000000D01*
G01*
X0497264Y0107087D01*
G75*
G02*
X0496358Y0107992I0000000J0000906D01*
G01*
X0496358Y0110709D01*
G75*
G02*
X0497264Y0111614I0000906J0000000D01*
G01*
X0502539Y0111614D01*
G75*
G02*
X0503445Y0110709I0000000J-000906D01*
G01*
G37*
G36*
G01*
X0503445Y0122126D02*
X0503445Y0119409D01*
G75*
G02*
X0502539Y0118504I-000906J0000000D01*
G01*
X0497264Y0118504D01*
G75*
G02*
X0496358Y0119409I0000000J0000906D01*
G01*
X0496358Y0122126D01*
G75*
G02*
X0497264Y0123032I0000906J0000000D01*
G01*
X0502539Y0123032D01*
G75*
G02*
X0503445Y0122126I0000000J-000906D01*
G01*
G37*
X0499902Y0124705D03*
D76*
X0070717Y0311516D03*
D59*
X0590000Y0234803D03*
X0590000Y0244803D03*
X0590000Y0254803D03*
X0590000Y0264803D03*
X0590000Y0274803D03*
X0600000Y0234803D03*
X0600000Y0244803D03*
X0600000Y0254803D03*
X0600000Y0264803D03*
X0600000Y0274803D03*
X0610000Y0234803D03*
X0610000Y0244803D03*
X0610000Y0254803D03*
X0610000Y0264803D03*
X0610000Y0274803D03*
X0304479Y0162847D03*
G36*
G01*
X0367478Y0406932D02*
X0367478Y0406932D01*
G75*
G02*
X0374159Y0406932I0003341J-003341D01*
G01*
X0375829Y0405261D01*
G75*
G02*
X0375829Y0398580I-003341J-003341D01*
G01*
X0375829Y0398580D01*
G75*
G02*
X0369148Y0398580I-003341J0003341D01*
G01*
X0367478Y0400250D01*
G75*
G02*
X0367478Y0406932I0003341J0003341D01*
G01*
G37*
G36*
G01*
X0374958Y0415593D02*
X0374958Y0415593D01*
G75*
G02*
X0381639Y0415593I0003341J-003341D01*
G01*
X0383310Y0413923D01*
G75*
G02*
X0383310Y0407241I-003341J-003341D01*
G01*
X0383310Y0407241D01*
G75*
G02*
X0376628Y0407241I-003341J0003341D01*
G01*
X0374958Y0408912D01*
G75*
G02*
X0374958Y0415593I0003341J0003341D01*
G01*
G37*
G36*
G01*
X0399367Y0415593D02*
X0399367Y0415593D01*
G75*
G02*
X0406049Y0415593I0003341J-003341D01*
G01*
X0407719Y0413923D01*
G75*
G02*
X0407719Y0407241I-003341J-003341D01*
G01*
X0407719Y0407241D01*
G75*
G02*
X0401038Y0407241I-003341J0003341D01*
G01*
X0399367Y0408912D01*
G75*
G02*
X0399367Y0415593I0003341J0003341D01*
G01*
G37*
G36*
G01*
X0389525Y0406932D02*
X0389525Y0406932D01*
G75*
G02*
X0396206Y0406932I0003341J-003341D01*
G01*
X0397877Y0405261D01*
G75*
G02*
X0397877Y0398580I-003341J-003341D01*
G01*
X0397877Y0398580D01*
G75*
G02*
X0391195Y0398580I-003341J0003341D01*
G01*
X0389525Y0400250D01*
G75*
G02*
X0389525Y0406932I0003341J0003341D01*
G01*
G37*
G36*
G01*
X0352911Y0415593D02*
X0352911Y0415593D01*
G75*
G02*
X0359592Y0415593I0003341J-003341D01*
G01*
X0361262Y0413923D01*
G75*
G02*
X0361262Y0407241I-003341J-003341D01*
G01*
X0361262Y0407241D01*
G75*
G02*
X0354581Y0407241I-003341J0003341D01*
G01*
X0352911Y0408912D01*
G75*
G02*
X0352911Y0415593I0003341J0003341D01*
G01*
G37*
X0310531Y0100689D03*
X0202165Y0128543D03*
X0191535Y0128543D03*
G36*
G01*
X0033906Y0329882D02*
X0033906Y0326811D01*
G75*
G02*
X0033630Y0326535I-000276J0000000D01*
G01*
X0031425Y0326535D01*
G75*
G02*
X0031150Y0326811I0000000J0000276D01*
G01*
X0031150Y0329882D01*
G75*
G02*
X0031425Y0330157I0000276J0000000D01*
G01*
X0033630Y0330157D01*
G75*
G02*
X0033906Y0329882I0000000J-000276D01*
G01*
G37*
G36*
G01*
X0040205Y0329882D02*
X0040205Y0326811D01*
G75*
G02*
X0039929Y0326535I-000276J0000000D01*
G01*
X0037724Y0326535D01*
G75*
G02*
X0037449Y0326811I0000000J0000276D01*
G01*
X0037449Y0329882D01*
G75*
G02*
X0037724Y0330157I0000276J0000000D01*
G01*
X0039929Y0330157D01*
G75*
G02*
X0040205Y0329882I0000000J-000276D01*
G01*
G37*
D80*
X0288504Y0391732D03*
D79*
X0278504Y0391732D03*
X0268504Y0391732D03*
X0258504Y0391732D03*
X0248504Y0391732D03*
X0238504Y0391732D03*
X0228504Y0391732D03*
X0218504Y0391732D03*
D59*
X0333679Y0118947D03*
G36*
G01*
X0033906Y0367087D02*
X0033906Y0364016D01*
G75*
G02*
X0033630Y0363740I-000276J0000000D01*
G01*
X0031425Y0363740D01*
G75*
G02*
X0031150Y0364016I0000000J0000276D01*
G01*
X0031150Y0367087D01*
G75*
G02*
X0031425Y0367362I0000276J0000000D01*
G01*
X0033630Y0367362D01*
G75*
G02*
X0033906Y0367087I0000000J-000276D01*
G01*
G37*
G36*
G01*
X0040205Y0367087D02*
X0040205Y0364016D01*
G75*
G02*
X0039929Y0363740I-000276J0000000D01*
G01*
X0037724Y0363740D01*
G75*
G02*
X0037449Y0364016I0000000J0000276D01*
G01*
X0037449Y0367087D01*
G75*
G02*
X0037724Y0367362I0000276J0000000D01*
G01*
X0039929Y0367362D01*
G75*
G02*
X0040205Y0367087I0000000J-000276D01*
G01*
G37*
D74*
X0164567Y0117756D03*
G36*
G01*
X0162106Y0115965D02*
X0167028Y0115965D01*
G75*
G02*
X0167421Y0115571I0000000J-000394D01*
G01*
X0167421Y0112421D01*
G75*
G02*
X0167028Y0112028I-000394J0000000D01*
G01*
X0162106Y0112028D01*
G75*
G02*
X0161713Y0112421I0000000J0000394D01*
G01*
X0161713Y0115571D01*
G75*
G02*
X0162106Y0115965I0000394J0000000D01*
G01*
G37*
G36*
G01*
X0162106Y0108484D02*
X0167028Y0108484D01*
G75*
G02*
X0167421Y0108090I0000000J-000394D01*
G01*
X0167421Y0104941D01*
G75*
G02*
X0167028Y0104547I-000394J0000000D01*
G01*
X0162106Y0104547D01*
G75*
G02*
X0161713Y0104941I0000000J0000394D01*
G01*
X0161713Y0108090D01*
G75*
G02*
X0162106Y0108484I0000394J0000000D01*
G01*
G37*
X0164567Y0102756D03*
D59*
X0317879Y0168447D03*
G36*
G01*
X0048866Y0309075D02*
X0048866Y0313957D01*
G75*
G02*
X0049378Y0314469I0000512J0000000D01*
G01*
X0053472Y0314469D01*
G75*
G02*
X0053984Y0313957I0000000J-000512D01*
G01*
X0053984Y0309075D01*
G75*
G02*
X0053472Y0308563I-000512J0000000D01*
G01*
X0049378Y0308563D01*
G75*
G02*
X0048866Y0309075I0000000J0000512D01*
G01*
G37*
G36*
G01*
X0056346Y0309075D02*
X0056346Y0313957D01*
G75*
G02*
X0056858Y0314469I0000512J0000000D01*
G01*
X0060953Y0314469D01*
G75*
G02*
X0061465Y0313957I0000000J-000512D01*
G01*
X0061465Y0309075D01*
G75*
G02*
X0060953Y0308563I-000512J0000000D01*
G01*
X0056858Y0308563D01*
G75*
G02*
X0056346Y0309075I0000000J0000512D01*
G01*
G37*
X0296752Y0100689D03*
D76*
X0070717Y0335138D03*
D59*
X0321161Y0100689D03*
G36*
G01*
X0048866Y0332697D02*
X0048866Y0337579D01*
G75*
G02*
X0049378Y0338091I0000512J0000000D01*
G01*
X0053472Y0338091D01*
G75*
G02*
X0053984Y0337579I0000000J-000512D01*
G01*
X0053984Y0332697D01*
G75*
G02*
X0053472Y0332185I-000512J0000000D01*
G01*
X0049378Y0332185D01*
G75*
G02*
X0048866Y0332697I0000000J0000512D01*
G01*
G37*
G36*
G01*
X0056346Y0332697D02*
X0056346Y0337579D01*
G75*
G02*
X0056858Y0338091I0000512J0000000D01*
G01*
X0060953Y0338091D01*
G75*
G02*
X0061465Y0337579I0000000J-000512D01*
G01*
X0061465Y0332697D01*
G75*
G02*
X0060953Y0332185I-000512J0000000D01*
G01*
X0056858Y0332185D01*
G75*
G02*
X0056346Y0332697I0000000J0000512D01*
G01*
G37*
G36*
G01*
X0337146Y0421417D02*
X0337146Y0418740D01*
G75*
G02*
X0336811Y0418406I-000335J0000000D01*
G01*
X0334134Y0418406D01*
G75*
G02*
X0333799Y0418740I0000000J0000335D01*
G01*
X0333799Y0421417D01*
G75*
G02*
X0334134Y0421752I0000335J0000000D01*
G01*
X0336811Y0421752D01*
G75*
G02*
X0337146Y0421417I0000000J-000335D01*
G01*
G37*
G36*
G01*
X0343366Y0421417D02*
X0343366Y0418740D01*
G75*
G02*
X0343032Y0418406I-000335J0000000D01*
G01*
X0340354Y0418406D01*
G75*
G02*
X0340020Y0418740I0000000J0000335D01*
G01*
X0340020Y0421417D01*
G75*
G02*
X0340354Y0421752I0000335J0000000D01*
G01*
X0343032Y0421752D01*
G75*
G02*
X0343366Y0421417I0000000J-000335D01*
G01*
G37*
D81*
X0341339Y0406201D03*
X0312598Y0406201D03*
D82*
X0333268Y0402756D03*
X0330118Y0409646D03*
X0326969Y0402756D03*
X0323819Y0409646D03*
D83*
X0320669Y0402756D03*
D59*
X0260413Y0118947D03*
D76*
X0070717Y0287894D03*
D75*
X0374803Y0169783D03*
X0374803Y0156791D03*
G36*
G01*
X0305114Y0420619D02*
X0302043Y0420619D01*
G75*
G02*
X0301768Y0420894I0000000J0000276D01*
G01*
X0301768Y0423099D01*
G75*
G02*
X0302043Y0423375I0000276J0000000D01*
G01*
X0305114Y0423375D01*
G75*
G02*
X0305390Y0423099I0000000J-000276D01*
G01*
X0305390Y0420894D01*
G75*
G02*
X0305114Y0420619I-000276J0000000D01*
G01*
G37*
G36*
G01*
X0305114Y0414320D02*
X0302043Y0414320D01*
G75*
G02*
X0301768Y0414595I0000000J0000276D01*
G01*
X0301768Y0416800D01*
G75*
G02*
X0302043Y0417076I0000276J0000000D01*
G01*
X0305114Y0417076D01*
G75*
G02*
X0305390Y0416800I0000000J-000276D01*
G01*
X0305390Y0414595D01*
G75*
G02*
X0305114Y0414320I-000276J0000000D01*
G01*
G37*
D59*
X0153543Y0101870D03*
D74*
X0043307Y0125512D03*
G36*
G01*
X0040846Y0123720D02*
X0045768Y0123720D01*
G75*
G02*
X0046161Y0123327I0000000J-000394D01*
G01*
X0046161Y0120177D01*
G75*
G02*
X0045768Y0119783I-000394J0000000D01*
G01*
X0040846Y0119783D01*
G75*
G02*
X0040453Y0120177I0000000J0000394D01*
G01*
X0040453Y0123327D01*
G75*
G02*
X0040846Y0123720I0000394J0000000D01*
G01*
G37*
G36*
G01*
X0040846Y0116240D02*
X0045768Y0116240D01*
G75*
G02*
X0046161Y0115846I0000000J-000394D01*
G01*
X0046161Y0112697D01*
G75*
G02*
X0045768Y0112303I-000394J0000000D01*
G01*
X0040846Y0112303D01*
G75*
G02*
X0040453Y0112697I0000000J0000394D01*
G01*
X0040453Y0115846D01*
G75*
G02*
X0040846Y0116240I0000394J0000000D01*
G01*
G37*
X0043307Y0110512D03*
G36*
X0595016Y0442031D02*
G01*
X0595158Y0441836D01*
X0595177Y0441716D01*
X0595177Y0441318D01*
X0595177Y0441318D01*
X0595657Y0441318D01*
X0595887Y0441244D01*
X0596028Y0441049D01*
X0596034Y0441029D01*
X0596556Y0439082D01*
X0597301Y0436885D01*
X0598189Y0434743D01*
X0598189Y0434743D01*
X0599215Y0432662D01*
X0600374Y0430654D01*
X0600374Y0430654D01*
X0601663Y0428725D01*
X0603075Y0426886D01*
X0603075Y0426885D01*
X0604604Y0425142D01*
X0604604Y0425142D01*
X0606244Y0423502D01*
X0606244Y0423502D01*
X0607988Y0421972D01*
X0607988Y0421972D01*
X0609828Y0420561D01*
X0611756Y0419272D01*
X0611756Y0419272D01*
X0613765Y0418112D01*
X0615845Y0417087D01*
X0615845Y0417087D01*
X0617988Y0416199D01*
X0620184Y0415453D01*
X0622019Y0414962D01*
X0622221Y0414831D01*
X0622270Y0414704D01*
X0622308Y0414665D01*
X0622704Y0414665D01*
X0622933Y0414591D01*
X0623075Y0414396D01*
X0623094Y0414274D01*
X0623003Y0392441D01*
X0622993Y0392355D01*
X0622944Y0392143D01*
X0622868Y0391987D01*
X0622760Y0391852D01*
X0622624Y0391745D01*
X0622605Y0391736D01*
X0622366Y0391704D01*
X0622154Y0391819D01*
X0622050Y0392037D01*
X0622047Y0392088D01*
X0622047Y0392430D01*
X0618784Y0392989D01*
X0618758Y0392995D01*
X0615140Y0393875D01*
X0615119Y0393880D01*
X0611895Y0394857D01*
X0611868Y0394867D01*
X0609331Y0395842D01*
X0609314Y0395849D01*
X0606868Y0396926D01*
X0606855Y0396931D01*
X0604018Y0398301D01*
X0603997Y0398312D01*
X0600874Y0400069D01*
X0600842Y0400089D01*
X0597617Y0402337D01*
X0597603Y0402347D01*
X0594671Y0404595D01*
X0594644Y0404617D01*
X0592202Y0406864D01*
X0592190Y0406875D01*
X0589453Y0409613D01*
X0589429Y0409639D01*
X0586988Y0412567D01*
X0586972Y0412589D01*
X0585212Y0415033D01*
X0585204Y0415044D01*
X0583443Y0417686D01*
X0583430Y0417707D01*
X0581964Y0420247D01*
X0581956Y0420263D01*
X0580490Y0423096D01*
X0580478Y0423123D01*
X0579109Y0426350D01*
X0579103Y0426365D01*
X0577637Y0430275D01*
X0577624Y0430315D01*
X0576649Y0434119D01*
X0576642Y0434148D01*
X0576056Y0437471D01*
X0576053Y0437488D01*
X0575661Y0440428D01*
X0575660Y0440437D01*
X0575615Y0440846D01*
X0575173Y0440846D01*
X0574943Y0440921D01*
X0574802Y0441116D01*
X0574785Y0441280D01*
X0574809Y0441491D01*
X0574867Y0441655D01*
X0574959Y0441800D01*
X0575082Y0441923D01*
X0575238Y0442021D01*
X0575380Y0442075D01*
X0575530Y0442100D01*
X0575595Y0442106D01*
X0594787Y0442106D01*
X0595016Y0442031D01*
G37*
G36*
X0621758Y0415032D02*
G01*
X0622019Y0414962D01*
X0622221Y0414831D01*
X0622270Y0414704D01*
X0622308Y0414665D01*
X0623330Y0414665D01*
X0623406Y0414658D01*
X0624699Y0414401D01*
X0624699Y0414401D01*
X0626998Y0414098D01*
X0629313Y0413946D01*
X0629313Y0413946D01*
X0630473Y0413937D01*
X0639940Y0413937D01*
X0640169Y0413863D01*
X0640216Y0413823D01*
X0644768Y0409271D01*
X0644877Y0409056D01*
X0644882Y0408995D01*
X0644882Y0315941D01*
X0644807Y0315712D01*
X0644613Y0315570D01*
X0644492Y0315551D01*
X0636614Y0315551D01*
X0636126Y0315541D01*
X0635162Y0315380D01*
X0634238Y0315063D01*
X0633379Y0314598D01*
X0633379Y0314598D01*
X0632608Y0313998D01*
X0631946Y0313279D01*
X0631412Y0312461D01*
X0631019Y0311566D01*
X0630779Y0310619D01*
X0630699Y0309646D01*
X0630779Y0308672D01*
X0631019Y0307725D01*
X0631412Y0306830D01*
X0631946Y0306012D01*
X0632608Y0305293D01*
X0633379Y0304693D01*
X0633379Y0304693D01*
X0634238Y0304228D01*
X0635162Y0303911D01*
X0636126Y0303750D01*
X0636614Y0303740D01*
X0644492Y0303740D01*
X0644721Y0303666D01*
X0644863Y0303471D01*
X0644882Y0303350D01*
X0644882Y0055962D01*
X0644807Y0055733D01*
X0644775Y0055694D01*
X0639780Y0050418D01*
X0639568Y0050303D01*
X0639495Y0050296D01*
X0622433Y0050392D01*
X0622205Y0050467D01*
X0622064Y0050663D01*
X0622046Y0050781D01*
X0622047Y0392430D01*
X0621584Y0392509D01*
X0621370Y0392621D01*
X0621264Y0392837D01*
X0621260Y0392893D01*
X0621260Y0414621D01*
X0621270Y0414708D01*
X0621277Y0414742D01*
X0621401Y0414949D01*
X0621622Y0415043D01*
X0621758Y0415032D01*
G37*
G36*
X0071613Y0442028D02*
G01*
X0071700Y0442018D01*
X0071911Y0441968D01*
X0072067Y0441892D01*
X0072202Y0441784D01*
X0072309Y0441648D01*
X0072386Y0441487D01*
X0072424Y0441329D01*
X0072426Y0441246D01*
X0072357Y0441015D01*
X0072166Y0440869D01*
X0072036Y0440846D01*
X0071586Y0440846D01*
X0071065Y0437808D01*
X0071060Y0437782D01*
X0070180Y0434164D01*
X0070174Y0434143D01*
X0069197Y0430919D01*
X0069188Y0430892D01*
X0068212Y0428355D01*
X0068205Y0428338D01*
X0067129Y0425892D01*
X0067123Y0425880D01*
X0065753Y0423042D01*
X0065742Y0423021D01*
X0063986Y0419898D01*
X0063966Y0419866D01*
X0061718Y0416641D01*
X0061707Y0416627D01*
X0059459Y0413695D01*
X0059437Y0413668D01*
X0057191Y0411226D01*
X0057179Y0411215D01*
X0054442Y0408477D01*
X0054416Y0408453D01*
X0051487Y0406013D01*
X0051465Y0405996D01*
X0049021Y0404236D01*
X0049010Y0404228D01*
X0046369Y0402468D01*
X0046347Y0402454D01*
X0043807Y0400989D01*
X0043791Y0400980D01*
X0040958Y0399515D01*
X0040931Y0399502D01*
X0037704Y0398133D01*
X0037689Y0398127D01*
X0033780Y0396661D01*
X0033739Y0396648D01*
X0029936Y0395673D01*
X0029907Y0395667D01*
X0026583Y0395080D01*
X0026567Y0395078D01*
X0023626Y0394686D01*
X0023618Y0394685D01*
X0023617Y0394684D01*
X0023617Y0394684D01*
X0023617Y0394241D01*
X0023542Y0394012D01*
X0023347Y0393870D01*
X0023270Y0393854D01*
X0022867Y0393809D01*
X0022780Y0393809D01*
X0022563Y0393834D01*
X0022400Y0393891D01*
X0022254Y0393983D01*
X0022131Y0394106D01*
X0022034Y0394262D01*
X0021980Y0394404D01*
X0021954Y0394554D01*
X0021949Y0394619D01*
X0021949Y0413685D01*
X0022023Y0413914D01*
X0022218Y0414056D01*
X0022339Y0414075D01*
X0022736Y0414075D01*
X0022736Y0414075D01*
X0022736Y0414432D01*
X0022811Y0414661D01*
X0023006Y0414803D01*
X0023050Y0414815D01*
X0023245Y0414853D01*
X0025485Y0415454D01*
X0027682Y0416199D01*
X0029824Y0417087D01*
X0029824Y0417087D01*
X0031904Y0418113D01*
X0033913Y0419272D01*
X0033913Y0419272D01*
X0035841Y0420561D01*
X0035841Y0420561D01*
X0037681Y0421973D01*
X0037681Y0421973D01*
X0039425Y0423502D01*
X0039425Y0423502D01*
X0041065Y0425142D01*
X0041065Y0425142D01*
X0042594Y0426886D01*
X0042594Y0426886D01*
X0044006Y0428726D01*
X0044006Y0428726D01*
X0045295Y0430654D01*
X0045295Y0430654D01*
X0046454Y0432663D01*
X0047480Y0434743D01*
X0047480Y0434743D01*
X0048368Y0436885D01*
X0049113Y0439082D01*
X0049714Y0441322D01*
X0049809Y0441803D01*
X0049927Y0442013D01*
X0050146Y0442114D01*
X0050193Y0442117D01*
X0071613Y0442028D01*
G37*
G36*
X0023665Y0414852D02*
G01*
X0023877Y0414804D01*
X0024033Y0414729D01*
X0024168Y0414621D01*
X0024276Y0414486D01*
X0024361Y0414310D01*
X0024397Y0414184D01*
X0024407Y0414096D01*
X0024409Y0414053D01*
X0024404Y0395130D01*
X0024330Y0394901D01*
X0024135Y0394760D01*
X0024066Y0394744D01*
X0023626Y0394686D01*
X0023618Y0394685D01*
X0023617Y0394684D01*
X0023617Y0394684D01*
X0023524Y0054429D01*
X0023524Y0050193D01*
X0023449Y0049964D01*
X0023254Y0049822D01*
X0023134Y0049803D01*
X0005729Y0049803D01*
X0005500Y0049878D01*
X0005454Y0049917D01*
X0000867Y0054504D01*
X0000758Y0054718D01*
X0000753Y0054779D01*
X0000777Y0303350D01*
X0000851Y0303580D01*
X0001046Y0303721D01*
X0001167Y0303740D01*
X0009055Y0303740D01*
X0009544Y0303750D01*
X0009544Y0303750D01*
X0010508Y0303910D01*
X0010508Y0303910D01*
X0011432Y0304228D01*
X0011432Y0304228D01*
X0012291Y0304693D01*
X0013062Y0305293D01*
X0013062Y0305293D01*
X0013724Y0306012D01*
X0014259Y0306830D01*
X0014259Y0306830D01*
X0014651Y0307725D01*
X0014891Y0308672D01*
X0014891Y0308672D01*
X0014972Y0309646D01*
X0014891Y0310620D01*
X0014891Y0310620D01*
X0014651Y0311567D01*
X0014259Y0312462D01*
X0014259Y0312462D01*
X0013724Y0313280D01*
X0013062Y0313999D01*
X0013062Y0313999D01*
X0012291Y0314599D01*
X0011432Y0315064D01*
X0011432Y0315064D01*
X0010508Y0315381D01*
X0010508Y0315381D01*
X0009544Y0315542D01*
X0009544Y0315542D01*
X0009055Y0315551D01*
X0001168Y0315551D01*
X0000939Y0315626D01*
X0000797Y0315820D01*
X0000778Y0315941D01*
X0000787Y0408995D01*
X0000861Y0409224D01*
X0000901Y0409270D01*
X0005454Y0413823D01*
X0005668Y0413932D01*
X0005729Y0413937D01*
X0015197Y0413937D01*
X0016357Y0413947D01*
X0018301Y0414074D01*
X0018327Y0414075D01*
X0022736Y0414075D01*
X0022736Y0414075D01*
X0022736Y0414432D01*
X0022811Y0414661D01*
X0023006Y0414803D01*
X0023050Y0414815D01*
X0023251Y0414855D01*
X0023252Y0414853D01*
X0023328Y0414862D01*
X0023578Y0414862D01*
X0023665Y0414852D01*
G37*
G36*
X0590097Y0463780D02*
G01*
X0590326Y0463706D01*
X0590372Y0463666D01*
X0594925Y0459113D01*
X0595035Y0458899D01*
X0595039Y0458838D01*
X0595039Y0449370D01*
X0595049Y0448210D01*
X0595049Y0448210D01*
X0595176Y0446262D01*
X0595177Y0446237D01*
X0595177Y0441318D01*
X0595177Y0441318D01*
X0595575Y0441318D01*
X0595804Y0441244D01*
X0595945Y0441049D01*
X0595965Y0440928D01*
X0595965Y0440890D01*
X0595955Y0440804D01*
X0595906Y0440592D01*
X0595831Y0440435D01*
X0595724Y0440300D01*
X0595588Y0440192D01*
X0595412Y0440108D01*
X0595287Y0440071D01*
X0595199Y0440062D01*
X0595155Y0440059D01*
X0576052Y0440059D01*
X0575823Y0440133D01*
X0575681Y0440328D01*
X0575665Y0440397D01*
X0575661Y0440428D01*
X0575660Y0440437D01*
X0575615Y0440846D01*
X0071586Y0440846D01*
X0071507Y0440383D01*
X0071395Y0440170D01*
X0071179Y0440063D01*
X0071122Y0440059D01*
X0049883Y0440059D01*
X0049654Y0440133D01*
X0049512Y0440328D01*
X0049507Y0440550D01*
X0049714Y0441322D01*
X0050166Y0443597D01*
X0050166Y0443597D01*
X0050469Y0445896D01*
X0050620Y0448210D01*
X0050630Y0449370D01*
X0050630Y0458838D01*
X0050704Y0459067D01*
X0050744Y0459113D01*
X0055393Y0463763D01*
X0055608Y0463872D01*
X0055669Y0463877D01*
X0590097Y0463780D01*
G37*
X0440551Y0365256D02*
%LPD*%
G01*
D115*
X0450039Y0394036D03*
X0450039Y0390099D03*
X0450039Y0386162D03*
X0450039Y0382225D03*
X0450039Y0378287D03*
X0450039Y0374350D03*
X0487834Y0374350D03*
X0487834Y0378287D03*
X0487834Y0382225D03*
X0487834Y0386162D03*
X0487834Y0390099D03*
X0487834Y0394036D03*
D116*
X0468937Y0384193D03*
X0089764Y0124705D02*
G01*
G75*
D120*
X0104469Y0134929D02*
D03*
X0104469Y0127449D02*
D03*
X0096004Y0127449D02*
D03*
X0096004Y0131189D02*
D03*
X0120118Y0134929D02*
D03*
X0120118Y0127449D02*
D03*
X0111654Y0127449D02*
D03*
X0111654Y0131189D02*
D03*
D120*
X0096004Y0134929D02*
D03*
X0111654Y0134929D02*
D03*
D121*
X0125197Y0134941D02*
D03*
X0125197Y0131201D02*
D03*
X0125197Y0127461D02*
D03*
X0090945Y0131398D02*
D03*
X0090945Y0134941D02*
D03*
X0374311Y0173278D02*
G01*
G75*
D151*
X0427008Y0259695D02*
D03*
X0433228Y0259695D02*
D03*
D128*
X0481988Y0332195D02*
D03*
X0481988Y0325975D02*
D03*
X0482087Y0321664D02*
D03*
X0482087Y0315443D02*
D03*
D152*
X0467913Y0337845D02*
D03*
X0460433Y0337845D02*
D03*
X0480315Y0337845D02*
D03*
X0472834Y0337845D02*
D03*
D153*
X0466240Y0291979D02*
D03*
X0466240Y0298278D02*
D03*
X0470866Y0291979D02*
D03*
X0470866Y0298278D02*
D03*
X0451279Y0209203D02*
D03*
X0451279Y0215502D02*
D03*
X0437992Y0206349D02*
D03*
X0437992Y0200050D02*
D03*
X0481496Y0291487D02*
D03*
X0481496Y0297786D02*
D03*
X0481791Y0311369D02*
D03*
X0481791Y0305069D02*
D03*
X0476476Y0291487D02*
D03*
X0476476Y0297786D02*
D03*
D154*
X0437087Y0217372D02*
D03*
X0446339Y0213632D02*
D03*
X0442402Y0193061D02*
D03*
X0433150Y0196802D02*
D03*
D154*
X0437087Y0209892D02*
D03*
X0433150Y0189321D02*
D03*
D155*
X0443406Y0198751D02*
D03*
X0447146Y0208002D02*
D03*
X0445079Y0300562D02*
D03*
X0441338Y0291310D02*
D03*
X0401968Y0185955D02*
D03*
X0398228Y0176703D02*
D03*
X0384252Y0176703D02*
D03*
X0387992Y0185955D02*
D03*
X0411811Y0176703D02*
D03*
X0415551Y0185955D02*
D03*
X0424311Y0209440D02*
D03*
X0428051Y0218692D02*
D03*
X0391339Y0204656D02*
D03*
X0395079Y0213908D02*
D03*
D155*
X0450886Y0198751D02*
D03*
X0437598Y0300562D02*
D03*
X0394488Y0185955D02*
D03*
X0380512Y0185955D02*
D03*
X0408071Y0185955D02*
D03*
X0431791Y0209440D02*
D03*
X0387598Y0213908D02*
D03*
D156*
X0411817Y0176580D02*
D03*
X0468412Y0176580D02*
D03*
X0473356Y0176580D02*
D03*
D157*
X0376167Y0190345D02*
D03*
D158*
X0451476Y0189223D02*
D03*
X0451476Y0177805D02*
D03*
D159*
X0453051Y0284065D02*
D03*
X0434941Y0284065D02*
D03*
X0453051Y0225798D02*
D03*
X0434941Y0225798D02*
D03*
X0462303Y0225798D02*
D03*
X0480413Y0225798D02*
D03*
X0462303Y0284065D02*
D03*
X0480413Y0284065D02*
D03*
X0425689Y0284065D02*
D03*
X0407579Y0284065D02*
D03*
X0380217Y0284065D02*
D03*
X0398327Y0284065D02*
D03*
X0407185Y0225798D02*
D03*
X0425295Y0225798D02*
D03*
X0397539Y0225798D02*
D03*
X0379429Y0225798D02*
D03*
D160*
X0443996Y0284065D02*
D03*
X0443996Y0225798D02*
D03*
X0471358Y0225798D02*
D03*
X0471358Y0284065D02*
D03*
X0416634Y0284065D02*
D03*
X0389272Y0284065D02*
D03*
X0416240Y0225798D02*
D03*
X0388484Y0225798D02*
D03*
D161*
X0443996Y0259656D02*
D03*
X0443996Y0250207D02*
D03*
X0471358Y0250207D02*
D03*
X0471358Y0259656D02*
D03*
X0416634Y0259656D02*
D03*
X0389272Y0259656D02*
D03*
X0416240Y0250207D02*
D03*
X0388484Y0250207D02*
D03*
D162*
X0405905Y0250306D02*
D03*
X0398819Y0250306D02*
D03*
X0398819Y0260345D02*
D03*
X0405905Y0260345D02*
D03*
X0384941Y0296861D02*
D03*
X0377854Y0296861D02*
D03*
X0377854Y0306900D02*
D03*
X0384941Y0306900D02*
D03*
X0461614Y0259853D02*
D03*
X0454527Y0259853D02*
D03*
X0454527Y0249813D02*
D03*
X0461614Y0249813D02*
D03*
D163*
X0405905Y0253750D02*
D03*
X0405905Y0256900D02*
D03*
X0398819Y0256900D02*
D03*
X0398819Y0253750D02*
D03*
X0384941Y0300306D02*
D03*
X0384941Y0303455D02*
D03*
X0377854Y0303455D02*
D03*
X0377854Y0300306D02*
D03*
X0454527Y0253258D02*
D03*
X0454527Y0256408D02*
D03*
X0461614Y0256408D02*
D03*
X0461614Y0253258D02*
D03*
D164*
X0379744Y0316939D02*
D03*
X0384744Y0316939D02*
D03*
X0389744Y0316939D02*
D03*
X0394744Y0316939D02*
D03*
X0399744Y0316939D02*
D03*
X0404744Y0316939D02*
D03*
X0409744Y0316939D02*
D03*
X0414744Y0316939D02*
D03*
X0379744Y0335837D02*
D03*
X0384744Y0335837D02*
D03*
X0389744Y0335837D02*
D03*
X0394744Y0335837D02*
D03*
X0399744Y0335837D02*
D03*
X0404744Y0335837D02*
D03*
X0409744Y0335837D02*
D03*
X0414744Y0335837D02*
D03*
X0456181Y0336034D02*
D03*
X0451181Y0336034D02*
D03*
X0446181Y0336034D02*
D03*
X0441181Y0336034D02*
D03*
X0436181Y0336034D02*
D03*
X0431181Y0336034D02*
D03*
X0426181Y0336034D02*
D03*
X0421181Y0336034D02*
D03*
X0456181Y0317136D02*
D03*
X0451181Y0317136D02*
D03*
X0446181Y0317136D02*
D03*
X0441181Y0317136D02*
D03*
X0436181Y0317136D02*
D03*
X0431181Y0317136D02*
D03*
X0426181Y0317136D02*
D03*
X0421181Y0317136D02*
D03*
X0462086Y0310739D02*
D03*
X0467086Y0310739D02*
D03*
X0472087Y0310739D02*
D03*
X0477087Y0310739D02*
D03*
X0462086Y0329636D02*
D03*
X0467086Y0329636D02*
D03*
X0472087Y0329636D02*
D03*
X0477087Y0329636D02*
D03*
D165*
X0460335Y0191959D02*
D03*
X0460335Y0186959D02*
D03*
X0460335Y0181959D02*
D03*
X0460335Y0176959D02*
D03*
X0479233Y0191959D02*
D03*
X0479233Y0186959D02*
D03*
X0479233Y0181959D02*
D03*
X0479233Y0176959D02*
D03*
X0477461Y0198810D02*
D03*
X0477461Y0203809D02*
D03*
X0477461Y0208809D02*
D03*
X0477461Y0213810D02*
D03*
X0458563Y0198810D02*
D03*
X0458563Y0203809D02*
D03*
X0458563Y0208809D02*
D03*
X0458563Y0213810D02*
D03*
D166*
X0379232Y0198337D02*
D03*
X0379232Y0190857D02*
D03*
X0386122Y0190857D02*
D03*
X0386122Y0198337D02*
D03*
X0393012Y0198337D02*
D03*
X0393012Y0190857D02*
D03*
X0399902Y0190857D02*
D03*
X0399902Y0198337D02*
D03*
X0406791Y0198337D02*
D03*
X0406791Y0190857D02*
D03*
X0413681Y0190857D02*
D03*
X0413681Y0198337D02*
D03*
X0420571Y0198337D02*
D03*
X0420571Y0190857D02*
D03*
X0427461Y0190857D02*
D03*
X0427461Y0198337D02*
D03*
X0439961Y0176585D02*
D03*
X0439961Y0184065D02*
D03*
X0432776Y0184164D02*
D03*
X0432776Y0176683D02*
D03*
D167*
X0417717Y0204636D02*
D03*
X0417717Y0217628D02*
D03*
X0380512Y0217235D02*
D03*
X0380512Y0204243D02*
D03*
X0401673Y0204636D02*
D03*
X0401673Y0217628D02*
D03*
X0409842Y0217628D02*
D03*
X0409842Y0204636D02*
D03*
D168*
X0427264Y0184262D02*
D03*
X0420965Y0184262D02*
D03*
X0420866Y0178652D02*
D03*
X0427165Y0178652D02*
D03*
X0424803Y0205227D02*
D03*
X0431102Y0205227D02*
D03*
X0460728Y0303396D02*
D03*
X0467027Y0303396D02*
D03*
X0395669Y0218613D02*
D03*
X0389370Y0218613D02*
D03*
X0105285Y0328895D02*
G01*
G75*
D180*
X0108139Y0329979D02*
D03*
X0112765Y0329979D02*
D03*
X0135895Y0329979D02*
D03*
X0132903Y0329979D02*
D03*
X0128277Y0329979D02*
D03*
X0117391Y0329979D02*
D03*
X0123651Y0329979D02*
D03*
X0120344Y0329979D02*
D03*
D181*
X0132628Y0347596D02*
D03*
X0132628Y0350155D02*
D03*
X0132628Y0352714D02*
D03*
X0132628Y0355273D02*
D03*
X0132628Y0357832D02*
D03*
X0132628Y0360391D02*
D03*
X0132628Y0362950D02*
D03*
X0132628Y0365509D02*
D03*
X0132628Y0368068D02*
D03*
X0132628Y0370627D02*
D03*
X0132628Y0373186D02*
D03*
X0132628Y0375745D02*
D03*
X0109635Y0347596D02*
D03*
X0109635Y0350155D02*
D03*
X0109635Y0352714D02*
D03*
X0109635Y0355273D02*
D03*
X0109635Y0357832D02*
D03*
X0109635Y0360391D02*
D03*
X0109635Y0362950D02*
D03*
X0109635Y0365509D02*
D03*
X0109635Y0368068D02*
D03*
X0109635Y0370627D02*
D03*
X0109635Y0373186D02*
D03*
X0109635Y0375745D02*
D03*
D151*
X0109655Y0379682D02*
D03*
X0115876Y0379682D02*
D03*
X0126407Y0379682D02*
D03*
X0120186Y0379682D02*
D03*
D182*
X0128415Y0342478D02*
D03*
X0134714Y0342478D02*
D03*
X0115423Y0342084D02*
D03*
X0121722Y0342084D02*
D03*
D183*
X0123498Y0331454D02*
D03*
X0123498Y0337753D02*
D03*
X0117175Y0337753D02*
D03*
X0117175Y0331454D02*
D03*
X0112549Y0331454D02*
D03*
X0112549Y0337753D02*
D03*
X0132726Y0337655D02*
D03*
X0132726Y0331356D02*
D03*
X0107923Y0337753D02*
D03*
X0107923Y0331454D02*
D03*
X0128120Y0337753D02*
D03*
X0128120Y0331454D02*
D03*
D121*
X0111879Y0378403D02*
D03*
X0127923Y0377222D02*
D03*
X0135206Y0350155D02*
D03*
X0130049Y0352714D02*
D03*
X0128277Y0359112D02*
D03*
X0135206Y0357832D02*
D03*
X0127982Y0362458D02*
D03*
X0127135Y0365903D02*
D03*
X0135206Y0368068D02*
D03*
X0127982Y0369741D02*
D03*
X0304590Y0168158D02*
G01*
G75*
D194*
X0335102Y0193749D02*
D03*
X0318960Y0193749D02*
D03*
D195*
X0349669Y0174808D02*
D03*
X0349669Y0192525D02*
D03*
D196*
X0336873Y0175638D02*
D03*
X0321125Y0175638D02*
D03*
D197*
X0313934Y0237416D02*
D03*
X0323186Y0233676D02*
D03*
D197*
X0323186Y0241156D02*
D03*
D120*
X0346021Y0247095D02*
D03*
D120*
X0346021Y0243355D02*
D03*
X0346021Y0239615D02*
D03*
X0354485Y0239615D02*
D03*
X0354485Y0247095D02*
D03*
D198*
X0358337Y0233094D02*
D03*
X0345345Y0233094D02*
D03*
D199*
X0318980Y0216977D02*
D03*
X0346342Y0216977D02*
D03*
D200*
X0340051Y0233382D02*
D03*
X0328633Y0233382D02*
D03*
D151*
X0359236Y0200835D02*
D03*
X0353015Y0200835D02*
D03*
X0348645Y0200835D02*
D03*
X0342425Y0200835D02*
D03*
D201*
X0308559Y0177946D02*
D03*
X0308559Y0182080D02*
D03*
X0359114Y0219820D02*
D03*
X0359114Y0223954D02*
D03*
X0359114Y0215107D02*
D03*
X0359114Y0210973D02*
D03*
X0360006Y0195458D02*
D03*
X0360006Y0191324D02*
D03*
D202*
X0340903Y0239665D02*
D03*
X0340903Y0243602D02*
D03*
X0327228Y0240567D02*
D03*
X0335889Y0240567D02*
D03*
X0327228Y0246964D02*
D03*
X0335889Y0246964D02*
D03*
D129*
X0318855Y0247095D02*
D03*
X0322399Y0247095D02*
D03*
D127*
X0354856Y0223757D02*
D03*
X0354856Y0220213D02*
D03*
X0354856Y0214713D02*
D03*
X0354856Y0211170D02*
D03*
X0360006Y0183157D02*
D03*
X0360006Y0186701D02*
D03*
D121*
X0370338Y0186268D02*
D03*
X0370338Y0182331D02*
D03*
D203*
X0307543Y0239811D02*
D03*
X0307543Y0172882D02*
D03*
X0307543Y0220323D02*
D03*
X0368566Y0220126D02*
D03*
X0368566Y0245323D02*
D03*
X0368566Y0195717D02*
D03*
X0368566Y0212646D02*
D03*
X0368566Y0171111D02*
D03*
X0307543Y0247095D02*
D03*
X0067106Y0260650D02*
%LPD*%
G01*
G36*
G01*
X0102815Y0193042D02*
X0102815Y0194400D01*
G75*
G02*
X0103395Y0194981I0000581J0000000D01*
G01*
X0104557Y0194981D01*
G75*
G02*
X0105137Y0194400I0000000J-000581D01*
G01*
X0105137Y0193042D01*
G75*
G02*
X0104557Y0192461I-000581J0000000D01*
G01*
X0103395Y0192461D01*
G75*
G02*
X0102815Y0193042I0000000J0000581D01*
G01*
G37*
G36*
G01*
X0106634Y0193042D02*
X0106634Y0194400D01*
G75*
G02*
X0107214Y0194981I0000581J0000000D01*
G01*
X0108376Y0194981D01*
G75*
G02*
X0108956Y0194400I0000000J-000581D01*
G01*
X0108956Y0193042D01*
G75*
G02*
X0108376Y0192461I-000581J0000000D01*
G01*
X0107214Y0192461D01*
G75*
G02*
X0106634Y0193042I0000000J0000581D01*
G01*
G37*
G36*
G01*
X0087391Y0251615D02*
X0088750Y0251615D01*
G75*
G02*
X0089330Y0251034I0000000J-000581D01*
G01*
X0089330Y0249872D01*
G75*
G02*
X0088750Y0249292I-000581J0000000D01*
G01*
X0087391Y0249292D01*
G75*
G02*
X0086811Y0249872I0000000J0000581D01*
G01*
X0086811Y0251034D01*
G75*
G02*
X0087391Y0251615I0000581J0000000D01*
G01*
G37*
G36*
G01*
X0087391Y0247796D02*
X0088750Y0247796D01*
G75*
G02*
X0089330Y0247215I0000000J-000581D01*
G01*
X0089330Y0246054D01*
G75*
G02*
X0088750Y0245473I-000581J0000000D01*
G01*
X0087391Y0245473D01*
G75*
G02*
X0086811Y0246054I0000000J0000581D01*
G01*
X0086811Y0247215D01*
G75*
G02*
X0087391Y0247796I0000581J0000000D01*
G01*
G37*
G36*
G01*
X0102588Y0241088D02*
X0102588Y0239070D01*
G75*
G02*
X0101727Y0238209I-000861J0000000D01*
G01*
X0100005Y0238209D01*
G75*
G02*
X0099143Y0239070I0000000J0000861D01*
G01*
X0099143Y0241088D01*
G75*
G02*
X0100005Y0241949I0000861J0000000D01*
G01*
X0101727Y0241949D01*
G75*
G02*
X0102588Y0241088I0000000J-000861D01*
G01*
G37*
G36*
G01*
X0096387Y0241088D02*
X0096387Y0239070D01*
G75*
G02*
X0095526Y0238209I-000861J0000000D01*
G01*
X0093804Y0238209D01*
G75*
G02*
X0092943Y0239070I0000000J0000861D01*
G01*
X0092943Y0241088D01*
G75*
G02*
X0093804Y0241949I0000861J0000000D01*
G01*
X0095526Y0241949D01*
G75*
G02*
X0096387Y0241088I0000000J-000861D01*
G01*
G37*
G36*
G01*
X0077559Y0194597D02*
X0077559Y0193239D01*
G75*
G02*
X0076978Y0192658I-000581J0000000D01*
G01*
X0075817Y0192658D01*
G75*
G02*
X0075236Y0193239I0000000J0000581D01*
G01*
X0075236Y0194597D01*
G75*
G02*
X0075817Y0195178I0000581J0000000D01*
G01*
X0076978Y0195178D01*
G75*
G02*
X0077559Y0194597I0000000J-000581D01*
G01*
G37*
G36*
G01*
X0073740Y0194597D02*
X0073740Y0193239D01*
G75*
G02*
X0073159Y0192658I-000581J0000000D01*
G01*
X0071998Y0192658D01*
G75*
G02*
X0071417Y0193239I0000000J0000581D01*
G01*
X0071417Y0194597D01*
G75*
G02*
X0071998Y0195178I0000581J0000000D01*
G01*
X0073159Y0195178D01*
G75*
G02*
X0073740Y0194597I0000000J-000581D01*
G01*
G37*
D215*
X0093386Y0245788D03*
X0100866Y0245788D03*
X0097126Y0253662D03*
G36*
G01*
X0077559Y0198780D02*
X0077559Y0197422D01*
G75*
G02*
X0076978Y0196841I-000581J0000000D01*
G01*
X0075817Y0196841D01*
G75*
G02*
X0075236Y0197422I0000000J0000581D01*
G01*
X0075236Y0198780D01*
G75*
G02*
X0075817Y0199361I0000581J0000000D01*
G01*
X0076978Y0199361D01*
G75*
G02*
X0077559Y0198780I0000000J-000581D01*
G01*
G37*
G36*
G01*
X0073740Y0198780D02*
X0073740Y0197422D01*
G75*
G02*
X0073159Y0196841I-000581J0000000D01*
G01*
X0071998Y0196841D01*
G75*
G02*
X0071417Y0197422I0000000J0000581D01*
G01*
X0071417Y0198780D01*
G75*
G02*
X0071998Y0199361I0000581J0000000D01*
G01*
X0073159Y0199361D01*
G75*
G02*
X0073740Y0198780I0000000J-000581D01*
G01*
G37*
G36*
G01*
X0101476Y0194400D02*
X0101476Y0193042D01*
G75*
G02*
X0100895Y0192461I-000581J0000000D01*
G01*
X0099734Y0192461D01*
G75*
G02*
X0099153Y0193042I0000000J0000581D01*
G01*
X0099153Y0194400D01*
G75*
G02*
X0099734Y0194981I0000581J0000000D01*
G01*
X0100895Y0194981D01*
G75*
G02*
X0101476Y0194400I0000000J-000581D01*
G01*
G37*
G36*
G01*
X0097657Y0194400D02*
X0097657Y0193042D01*
G75*
G02*
X0097076Y0192461I-000581J0000000D01*
G01*
X0095915Y0192461D01*
G75*
G02*
X0095334Y0193042I0000000J0000581D01*
G01*
X0095334Y0194400D01*
G75*
G02*
X0095915Y0194981I0000581J0000000D01*
G01*
X0097076Y0194981D01*
G75*
G02*
X0097657Y0194400I0000000J-000581D01*
G01*
G37*
G36*
G01*
X0113740Y0198160D02*
X0113740Y0199518D01*
G75*
G02*
X0114321Y0200099I0000581J0000000D01*
G01*
X0115482Y0200099D01*
G75*
G02*
X0116063Y0199518I0000000J-000581D01*
G01*
X0116063Y0198160D01*
G75*
G02*
X0115482Y0197579I-000581J0000000D01*
G01*
X0114321Y0197579D01*
G75*
G02*
X0113740Y0198160I0000000J0000581D01*
G01*
G37*
G36*
G01*
X0117559Y0198160D02*
X0117559Y0199518D01*
G75*
G02*
X0118139Y0200099I0000581J0000000D01*
G01*
X0119301Y0200099D01*
G75*
G02*
X0119882Y0199518I0000000J-000581D01*
G01*
X0119882Y0198160D01*
G75*
G02*
X0119301Y0197579I-000581J0000000D01*
G01*
X0118139Y0197579D01*
G75*
G02*
X0117559Y0198160I0000000J0000581D01*
G01*
G37*
G36*
G01*
X0086968Y0193042D02*
X0086968Y0194400D01*
G75*
G02*
X0087549Y0194981I0000581J0000000D01*
G01*
X0088710Y0194981D01*
G75*
G02*
X0089291Y0194400I0000000J-000581D01*
G01*
X0089291Y0193042D01*
G75*
G02*
X0088710Y0192461I-000581J0000000D01*
G01*
X0087549Y0192461D01*
G75*
G02*
X0086968Y0193042I0000000J0000581D01*
G01*
G37*
G36*
G01*
X0090787Y0193042D02*
X0090787Y0194400D01*
G75*
G02*
X0091368Y0194981I0000581J0000000D01*
G01*
X0092529Y0194981D01*
G75*
G02*
X0093110Y0194400I0000000J-000581D01*
G01*
X0093110Y0193042D01*
G75*
G02*
X0092529Y0192461I-000581J0000000D01*
G01*
X0091368Y0192461D01*
G75*
G02*
X0090787Y0193042I0000000J0000581D01*
G01*
G37*
G36*
G01*
X0113740Y0232806D02*
X0113740Y0234164D01*
G75*
G02*
X0114321Y0234744I0000581J0000000D01*
G01*
X0115482Y0234744D01*
G75*
G02*
X0116063Y0234164I0000000J-000581D01*
G01*
X0116063Y0232806D01*
G75*
G02*
X0115482Y0232225I-000581J0000000D01*
G01*
X0114321Y0232225D01*
G75*
G02*
X0113740Y0232806I0000000J0000581D01*
G01*
G37*
G36*
G01*
X0117559Y0232806D02*
X0117559Y0234164D01*
G75*
G02*
X0118139Y0234744I0000581J0000000D01*
G01*
X0119301Y0234744D01*
G75*
G02*
X0119882Y0234164I0000000J-000581D01*
G01*
X0119882Y0232806D01*
G75*
G02*
X0119301Y0232225I-000581J0000000D01*
G01*
X0118139Y0232225D01*
G75*
G02*
X0117559Y0232806I0000000J0000581D01*
G01*
G37*
D235*
X0107067Y0168367D03*
D150*
X0078720Y0169469D03*
X0090531Y0177343D03*
X0078720Y0185217D03*
D236*
X0082263Y0177343D03*
D235*
X0107067Y0186319D03*
G36*
G01*
X0087293Y0243839D02*
X0088651Y0243839D01*
G75*
G02*
X0089232Y0243258I0000000J-000581D01*
G01*
X0089232Y0242097D01*
G75*
G02*
X0088651Y0241516I-000581J0000000D01*
G01*
X0087293Y0241516D01*
G75*
G02*
X0086712Y0242097I0000000J0000581D01*
G01*
X0086712Y0243258D01*
G75*
G02*
X0087293Y0243839I0000581J0000000D01*
G01*
G37*
G36*
G01*
X0087293Y0240020D02*
X0088651Y0240020D01*
G75*
G02*
X0089232Y0239439I0000000J-000581D01*
G01*
X0089232Y0238278D01*
G75*
G02*
X0088651Y0237697I-000581J0000000D01*
G01*
X0087293Y0237697D01*
G75*
G02*
X0086712Y0238278I0000000J0000581D01*
G01*
X0086712Y0239439D01*
G75*
G02*
X0087293Y0240020I0000581J0000000D01*
G01*
G37*
G36*
G01*
X0073627Y0205335D02*
X0071609Y0205335D01*
G75*
G02*
X0070748Y0206196I0000000J0000861D01*
G01*
X0070748Y0207919D01*
G75*
G02*
X0071609Y0208780I0000861J0000000D01*
G01*
X0073627Y0208780D01*
G75*
G02*
X0074488Y0207919I0000000J-000861D01*
G01*
X0074488Y0206196D01*
G75*
G02*
X0073627Y0205335I-000861J0000000D01*
G01*
G37*
G36*
G01*
X0073627Y0211536D02*
X0071609Y0211536D01*
G75*
G02*
X0070748Y0212397I0000000J0000861D01*
G01*
X0070748Y0214119D01*
G75*
G02*
X0071609Y0214981I0000861J0000000D01*
G01*
X0073627Y0214981D01*
G75*
G02*
X0074488Y0214119I0000000J-000861D01*
G01*
X0074488Y0212397D01*
G75*
G02*
X0073627Y0211536I-000861J0000000D01*
G01*
G37*
G36*
G01*
X0077559Y0202963D02*
X0077559Y0201605D01*
G75*
G02*
X0076978Y0201024I-000581J0000000D01*
G01*
X0075817Y0201024D01*
G75*
G02*
X0075236Y0201605I0000000J0000581D01*
G01*
X0075236Y0202963D01*
G75*
G02*
X0075817Y0203544I0000581J0000000D01*
G01*
X0076978Y0203544D01*
G75*
G02*
X0077559Y0202963I0000000J-000581D01*
G01*
G37*
G36*
G01*
X0073740Y0202963D02*
X0073740Y0201605D01*
G75*
G02*
X0073159Y0201024I-000581J0000000D01*
G01*
X0071998Y0201024D01*
G75*
G02*
X0071417Y0201605I0000000J0000581D01*
G01*
X0071417Y0202963D01*
G75*
G02*
X0071998Y0203544I0000581J0000000D01*
G01*
X0073159Y0203544D01*
G75*
G02*
X0073740Y0202963I0000000J-000581D01*
G01*
G37*
G36*
G01*
X0073012Y0158854D02*
X0073012Y0160871D01*
G75*
G02*
X0073873Y0161733I0000861J0000000D01*
G01*
X0075595Y0161733D01*
G75*
G02*
X0076456Y0160871I0000000J-000861D01*
G01*
X0076456Y0158854D01*
G75*
G02*
X0075595Y0157993I-000861J0000000D01*
G01*
X0073873Y0157993D01*
G75*
G02*
X0073012Y0158854I0000000J0000861D01*
G01*
G37*
G36*
G01*
X0079212Y0158854D02*
X0079212Y0160871D01*
G75*
G02*
X0080074Y0161733I0000861J0000000D01*
G01*
X0081796Y0161733D01*
G75*
G02*
X0082657Y0160871I0000000J-000861D01*
G01*
X0082657Y0158854D01*
G75*
G02*
X0081796Y0157993I-000861J0000000D01*
G01*
X0080074Y0157993D01*
G75*
G02*
X0079212Y0158854I0000000J0000861D01*
G01*
G37*
G36*
G01*
X0071609Y0226693D02*
X0073627Y0226693D01*
G75*
G02*
X0074488Y0225832I0000000J-000861D01*
G01*
X0074488Y0224110D01*
G75*
G02*
X0073627Y0223248I-000861J0000000D01*
G01*
X0071609Y0223248D01*
G75*
G02*
X0070748Y0224110I0000000J0000861D01*
G01*
X0070748Y0225832D01*
G75*
G02*
X0071609Y0226693I0000861J0000000D01*
G01*
G37*
G36*
G01*
X0071609Y0220493D02*
X0073627Y0220493D01*
G75*
G02*
X0074488Y0219631I0000000J-000861D01*
G01*
X0074488Y0217909D01*
G75*
G02*
X0073627Y0217048I-000861J0000000D01*
G01*
X0071609Y0217048D01*
G75*
G02*
X0070748Y0217909I0000000J0000861D01*
G01*
X0070748Y0219631D01*
G75*
G02*
X0071609Y0220493I0000861J0000000D01*
G01*
G37*
G36*
G01*
X0075787Y0231014D02*
X0075787Y0229656D01*
G75*
G02*
X0075206Y0229075I-000581J0000000D01*
G01*
X0074045Y0229075D01*
G75*
G02*
X0073464Y0229656I0000000J0000581D01*
G01*
X0073464Y0231014D01*
G75*
G02*
X0074045Y0231595I0000581J0000000D01*
G01*
X0075206Y0231595D01*
G75*
G02*
X0075787Y0231014I0000000J-000581D01*
G01*
G37*
G36*
G01*
X0071968Y0231014D02*
X0071968Y0229656D01*
G75*
G02*
X0071387Y0229075I-000581J0000000D01*
G01*
X0070226Y0229075D01*
G75*
G02*
X0069645Y0229656I0000000J0000581D01*
G01*
X0069645Y0231014D01*
G75*
G02*
X0070226Y0231595I0000581J0000000D01*
G01*
X0071387Y0231595D01*
G75*
G02*
X0071968Y0231014I0000000J-000581D01*
G01*
G37*
G36*
G01*
X0088464Y0196575D02*
X0087480Y0196575D01*
G75*
G02*
X0086988Y0197067I0000000J0000492D01*
G01*
X0086988Y0201989D01*
G75*
G02*
X0087480Y0202481I0000492J0000000D01*
G01*
X0088464Y0202481D01*
G75*
G02*
X0088956Y0201989I0000000J-000492D01*
G01*
X0088956Y0197067D01*
G75*
G02*
X0088464Y0196575I-000492J0000000D01*
G01*
G37*
G36*
G01*
X0091614Y0196575D02*
X0090630Y0196575D01*
G75*
G02*
X0090137Y0197067I0000000J0000492D01*
G01*
X0090137Y0201989D01*
G75*
G02*
X0090630Y0202481I0000492J0000000D01*
G01*
X0091614Y0202481D01*
G75*
G02*
X0092106Y0201989I0000000J-000492D01*
G01*
X0092106Y0197067D01*
G75*
G02*
X0091614Y0196575I-000492J0000000D01*
G01*
G37*
G36*
G01*
X0094763Y0196575D02*
X0093779Y0196575D01*
G75*
G02*
X0093287Y0197067I0000000J0000492D01*
G01*
X0093287Y0201989D01*
G75*
G02*
X0093779Y0202481I0000492J0000000D01*
G01*
X0094763Y0202481D01*
G75*
G02*
X0095256Y0201989I0000000J-000492D01*
G01*
X0095256Y0197067D01*
G75*
G02*
X0094763Y0196575I-000492J0000000D01*
G01*
G37*
G36*
G01*
X0097913Y0196575D02*
X0096929Y0196575D01*
G75*
G02*
X0096437Y0197067I0000000J0000492D01*
G01*
X0096437Y0201989D01*
G75*
G02*
X0096929Y0202481I0000492J0000000D01*
G01*
X0097913Y0202481D01*
G75*
G02*
X0098405Y0201989I0000000J-000492D01*
G01*
X0098405Y0197067D01*
G75*
G02*
X0097913Y0196575I-000492J0000000D01*
G01*
G37*
G36*
G01*
X0101063Y0196575D02*
X0100078Y0196575D01*
G75*
G02*
X0099586Y0197067I0000000J0000492D01*
G01*
X0099586Y0201989D01*
G75*
G02*
X0100078Y0202481I0000492J0000000D01*
G01*
X0101063Y0202481D01*
G75*
G02*
X0101555Y0201989I0000000J-000492D01*
G01*
X0101555Y0197067D01*
G75*
G02*
X0101063Y0196575I-000492J0000000D01*
G01*
G37*
G36*
G01*
X0104212Y0196575D02*
X0103228Y0196575D01*
G75*
G02*
X0102736Y0197067I0000000J0000492D01*
G01*
X0102736Y0201989D01*
G75*
G02*
X0103228Y0202481I0000492J0000000D01*
G01*
X0104212Y0202481D01*
G75*
G02*
X0104704Y0201989I0000000J-000492D01*
G01*
X0104704Y0197067D01*
G75*
G02*
X0104212Y0196575I-000492J0000000D01*
G01*
G37*
G36*
G01*
X0107362Y0196575D02*
X0106378Y0196575D01*
G75*
G02*
X0105886Y0197067I0000000J0000492D01*
G01*
X0105886Y0201989D01*
G75*
G02*
X0106378Y0202481I0000492J0000000D01*
G01*
X0107362Y0202481D01*
G75*
G02*
X0107854Y0201989I0000000J-000492D01*
G01*
X0107854Y0197067D01*
G75*
G02*
X0107362Y0196575I-000492J0000000D01*
G01*
G37*
G36*
G01*
X0110512Y0196575D02*
X0109527Y0196575D01*
G75*
G02*
X0109035Y0197067I0000000J0000492D01*
G01*
X0109035Y0201989D01*
G75*
G02*
X0109527Y0202481I0000492J0000000D01*
G01*
X0110512Y0202481D01*
G75*
G02*
X0111004Y0201989I0000000J-000492D01*
G01*
X0111004Y0197067D01*
G75*
G02*
X0110512Y0196575I-000492J0000000D01*
G01*
G37*
G36*
G01*
X0117893Y0203957D02*
X0112972Y0203957D01*
G75*
G02*
X0112480Y0204449I0000000J0000492D01*
G01*
X0112480Y0205433D01*
G75*
G02*
X0112972Y0205926I0000492J0000000D01*
G01*
X0117893Y0205926D01*
G75*
G02*
X0118386Y0205433I0000000J-000492D01*
G01*
X0118386Y0204449D01*
G75*
G02*
X0117893Y0203957I-000492J0000000D01*
G01*
G37*
G36*
G01*
X0117893Y0207107D02*
X0112972Y0207107D01*
G75*
G02*
X0112480Y0207599I0000000J0000492D01*
G01*
X0112480Y0208583D01*
G75*
G02*
X0112972Y0209075I0000492J0000000D01*
G01*
X0117893Y0209075D01*
G75*
G02*
X0118386Y0208583I0000000J-000492D01*
G01*
X0118386Y0207599D01*
G75*
G02*
X0117893Y0207107I-000492J0000000D01*
G01*
G37*
G36*
G01*
X0117893Y0210256D02*
X0112972Y0210256D01*
G75*
G02*
X0112480Y0210748I0000000J0000492D01*
G01*
X0112480Y0211733D01*
G75*
G02*
X0112972Y0212225I0000492J0000000D01*
G01*
X0117893Y0212225D01*
G75*
G02*
X0118386Y0211733I0000000J-000492D01*
G01*
X0118386Y0210748D01*
G75*
G02*
X0117893Y0210256I-000492J0000000D01*
G01*
G37*
G36*
G01*
X0117893Y0213406D02*
X0112972Y0213406D01*
G75*
G02*
X0112480Y0213898I0000000J0000492D01*
G01*
X0112480Y0214882D01*
G75*
G02*
X0112972Y0215374I0000492J0000000D01*
G01*
X0117893Y0215374D01*
G75*
G02*
X0118386Y0214882I0000000J-000492D01*
G01*
X0118386Y0213898D01*
G75*
G02*
X0117893Y0213406I-000492J0000000D01*
G01*
G37*
G36*
G01*
X0117893Y0216556D02*
X0112972Y0216556D01*
G75*
G02*
X0112480Y0217048I0000000J0000492D01*
G01*
X0112480Y0218032D01*
G75*
G02*
X0112972Y0218524I0000492J0000000D01*
G01*
X0117893Y0218524D01*
G75*
G02*
X0118386Y0218032I0000000J-000492D01*
G01*
X0118386Y0217048D01*
G75*
G02*
X0117893Y0216556I-000492J0000000D01*
G01*
G37*
G36*
G01*
X0117893Y0219705D02*
X0112972Y0219705D01*
G75*
G02*
X0112480Y0220197I0000000J0000492D01*
G01*
X0112480Y0221181D01*
G75*
G02*
X0112972Y0221674I0000492J0000000D01*
G01*
X0117893Y0221674D01*
G75*
G02*
X0118386Y0221181I0000000J-000492D01*
G01*
X0118386Y0220197D01*
G75*
G02*
X0117893Y0219705I-000492J0000000D01*
G01*
G37*
G36*
G01*
X0117893Y0222855D02*
X0112972Y0222855D01*
G75*
G02*
X0112480Y0223347I0000000J0000492D01*
G01*
X0112480Y0224331D01*
G75*
G02*
X0112972Y0224823I0000492J0000000D01*
G01*
X0117893Y0224823D01*
G75*
G02*
X0118386Y0224331I0000000J-000492D01*
G01*
X0118386Y0223347D01*
G75*
G02*
X0117893Y0222855I-000492J0000000D01*
G01*
G37*
G36*
G01*
X0117893Y0226004D02*
X0112972Y0226004D01*
G75*
G02*
X0112480Y0226496I0000000J0000492D01*
G01*
X0112480Y0227481D01*
G75*
G02*
X0112972Y0227973I0000492J0000000D01*
G01*
X0117893Y0227973D01*
G75*
G02*
X0118386Y0227481I0000000J-000492D01*
G01*
X0118386Y0226496D01*
G75*
G02*
X0117893Y0226004I-000492J0000000D01*
G01*
G37*
G36*
G01*
X0110512Y0229449D02*
X0109527Y0229449D01*
G75*
G02*
X0109035Y0229941I0000000J0000492D01*
G01*
X0109035Y0234863D01*
G75*
G02*
X0109527Y0235355I0000492J0000000D01*
G01*
X0110512Y0235355D01*
G75*
G02*
X0111004Y0234863I0000000J-000492D01*
G01*
X0111004Y0229941D01*
G75*
G02*
X0110512Y0229449I-000492J0000000D01*
G01*
G37*
G36*
G01*
X0107362Y0229449D02*
X0106378Y0229449D01*
G75*
G02*
X0105886Y0229941I0000000J0000492D01*
G01*
X0105886Y0234863D01*
G75*
G02*
X0106378Y0235355I0000492J0000000D01*
G01*
X0107362Y0235355D01*
G75*
G02*
X0107854Y0234863I0000000J-000492D01*
G01*
X0107854Y0229941D01*
G75*
G02*
X0107362Y0229449I-000492J0000000D01*
G01*
G37*
G36*
G01*
X0104212Y0229449D02*
X0103228Y0229449D01*
G75*
G02*
X0102736Y0229941I0000000J0000492D01*
G01*
X0102736Y0234863D01*
G75*
G02*
X0103228Y0235355I0000492J0000000D01*
G01*
X0104212Y0235355D01*
G75*
G02*
X0104704Y0234863I0000000J-000492D01*
G01*
X0104704Y0229941D01*
G75*
G02*
X0104212Y0229449I-000492J0000000D01*
G01*
G37*
G36*
G01*
X0101063Y0229449D02*
X0100078Y0229449D01*
G75*
G02*
X0099586Y0229941I0000000J0000492D01*
G01*
X0099586Y0234863D01*
G75*
G02*
X0100078Y0235355I0000492J0000000D01*
G01*
X0101063Y0235355D01*
G75*
G02*
X0101555Y0234863I0000000J-000492D01*
G01*
X0101555Y0229941D01*
G75*
G02*
X0101063Y0229449I-000492J0000000D01*
G01*
G37*
G36*
G01*
X0097913Y0229449D02*
X0096929Y0229449D01*
G75*
G02*
X0096437Y0229941I0000000J0000492D01*
G01*
X0096437Y0234863D01*
G75*
G02*
X0096929Y0235355I0000492J0000000D01*
G01*
X0097913Y0235355D01*
G75*
G02*
X0098405Y0234863I0000000J-000492D01*
G01*
X0098405Y0229941D01*
G75*
G02*
X0097913Y0229449I-000492J0000000D01*
G01*
G37*
G36*
G01*
X0094763Y0229449D02*
X0093779Y0229449D01*
G75*
G02*
X0093287Y0229941I0000000J0000492D01*
G01*
X0093287Y0234863D01*
G75*
G02*
X0093779Y0235355I0000492J0000000D01*
G01*
X0094763Y0235355D01*
G75*
G02*
X0095256Y0234863I0000000J-000492D01*
G01*
X0095256Y0229941D01*
G75*
G02*
X0094763Y0229449I-000492J0000000D01*
G01*
G37*
G36*
G01*
X0091614Y0229449D02*
X0090630Y0229449D01*
G75*
G02*
X0090137Y0229941I0000000J0000492D01*
G01*
X0090137Y0234863D01*
G75*
G02*
X0090630Y0235355I0000492J0000000D01*
G01*
X0091614Y0235355D01*
G75*
G02*
X0092106Y0234863I0000000J-000492D01*
G01*
X0092106Y0229941D01*
G75*
G02*
X0091614Y0229449I-000492J0000000D01*
G01*
G37*
G36*
G01*
X0088464Y0229449D02*
X0087480Y0229449D01*
G75*
G02*
X0086988Y0229941I0000000J0000492D01*
G01*
X0086988Y0234863D01*
G75*
G02*
X0087480Y0235355I0000492J0000000D01*
G01*
X0088464Y0235355D01*
G75*
G02*
X0088956Y0234863I0000000J-000492D01*
G01*
X0088956Y0229941D01*
G75*
G02*
X0088464Y0229449I-000492J0000000D01*
G01*
G37*
G36*
G01*
X0085019Y0226004D02*
X0080098Y0226004D01*
G75*
G02*
X0079606Y0226496I0000000J0000492D01*
G01*
X0079606Y0227481D01*
G75*
G02*
X0080098Y0227973I0000492J0000000D01*
G01*
X0085019Y0227973D01*
G75*
G02*
X0085512Y0227481I0000000J-000492D01*
G01*
X0085512Y0226496D01*
G75*
G02*
X0085019Y0226004I-000492J0000000D01*
G01*
G37*
G36*
G01*
X0085019Y0222855D02*
X0080098Y0222855D01*
G75*
G02*
X0079606Y0223347I0000000J0000492D01*
G01*
X0079606Y0224331D01*
G75*
G02*
X0080098Y0224823I0000492J0000000D01*
G01*
X0085019Y0224823D01*
G75*
G02*
X0085512Y0224331I0000000J-000492D01*
G01*
X0085512Y0223347D01*
G75*
G02*
X0085019Y0222855I-000492J0000000D01*
G01*
G37*
G36*
G01*
X0085019Y0219705D02*
X0080098Y0219705D01*
G75*
G02*
X0079606Y0220197I0000000J0000492D01*
G01*
X0079606Y0221181D01*
G75*
G02*
X0080098Y0221674I0000492J0000000D01*
G01*
X0085019Y0221674D01*
G75*
G02*
X0085512Y0221181I0000000J-000492D01*
G01*
X0085512Y0220197D01*
G75*
G02*
X0085019Y0219705I-000492J0000000D01*
G01*
G37*
G36*
G01*
X0085019Y0216556D02*
X0080098Y0216556D01*
G75*
G02*
X0079606Y0217048I0000000J0000492D01*
G01*
X0079606Y0218032D01*
G75*
G02*
X0080098Y0218524I0000492J0000000D01*
G01*
X0085019Y0218524D01*
G75*
G02*
X0085512Y0218032I0000000J-000492D01*
G01*
X0085512Y0217048D01*
G75*
G02*
X0085019Y0216556I-000492J0000000D01*
G01*
G37*
G36*
G01*
X0085019Y0213406D02*
X0080098Y0213406D01*
G75*
G02*
X0079606Y0213898I0000000J0000492D01*
G01*
X0079606Y0214882D01*
G75*
G02*
X0080098Y0215374I0000492J0000000D01*
G01*
X0085019Y0215374D01*
G75*
G02*
X0085512Y0214882I0000000J-000492D01*
G01*
X0085512Y0213898D01*
G75*
G02*
X0085019Y0213406I-000492J0000000D01*
G01*
G37*
G36*
G01*
X0085019Y0210256D02*
X0080098Y0210256D01*
G75*
G02*
X0079606Y0210748I0000000J0000492D01*
G01*
X0079606Y0211733D01*
G75*
G02*
X0080098Y0212225I0000492J0000000D01*
G01*
X0085019Y0212225D01*
G75*
G02*
X0085512Y0211733I0000000J-000492D01*
G01*
X0085512Y0210748D01*
G75*
G02*
X0085019Y0210256I-000492J0000000D01*
G01*
G37*
G36*
G01*
X0085019Y0207107D02*
X0080098Y0207107D01*
G75*
G02*
X0079606Y0207599I0000000J0000492D01*
G01*
X0079606Y0208583D01*
G75*
G02*
X0080098Y0209075I0000492J0000000D01*
G01*
X0085019Y0209075D01*
G75*
G02*
X0085512Y0208583I0000000J-000492D01*
G01*
X0085512Y0207599D01*
G75*
G02*
X0085019Y0207107I-000492J0000000D01*
G01*
G37*
G36*
G01*
X0085019Y0203957D02*
X0080098Y0203957D01*
G75*
G02*
X0079606Y0204449I0000000J0000492D01*
G01*
X0079606Y0205433D01*
G75*
G02*
X0080098Y0205926I0000492J0000000D01*
G01*
X0085019Y0205926D01*
G75*
G02*
X0085512Y0205433I0000000J-000492D01*
G01*
X0085512Y0204449D01*
G75*
G02*
X0085019Y0203957I-000492J0000000D01*
G01*
G37*
G36*
G01*
X0106565Y0238583D02*
X0105206Y0238583D01*
G75*
G02*
X0104626Y0239164I0000000J0000581D01*
G01*
X0104626Y0240325D01*
G75*
G02*
X0105206Y0240906I0000581J0000000D01*
G01*
X0106565Y0240906D01*
G75*
G02*
X0107145Y0240325I0000000J-000581D01*
G01*
X0107145Y0239164D01*
G75*
G02*
X0106565Y0238583I-000581J0000000D01*
G01*
G37*
G36*
G01*
X0106565Y0242402D02*
X0105206Y0242402D01*
G75*
G02*
X0104626Y0242983I0000000J0000581D01*
G01*
X0104626Y0244144D01*
G75*
G02*
X0105206Y0244725I0000581J0000000D01*
G01*
X0106565Y0244725D01*
G75*
G02*
X0107145Y0244144I0000000J-000581D01*
G01*
X0107145Y0242983D01*
G75*
G02*
X0106565Y0242402I-000581J0000000D01*
G01*
G37*
G36*
G01*
X0083169Y0231506D02*
X0083169Y0230148D01*
G75*
G02*
X0082588Y0229567I-000581J0000000D01*
G01*
X0081427Y0229567D01*
G75*
G02*
X0080846Y0230148I0000000J0000581D01*
G01*
X0080846Y0231506D01*
G75*
G02*
X0081427Y0232087I0000581J0000000D01*
G01*
X0082588Y0232087D01*
G75*
G02*
X0083169Y0231506I0000000J-000581D01*
G01*
G37*
G36*
G01*
X0079350Y0231506D02*
X0079350Y0230148D01*
G75*
G02*
X0078769Y0229567I-000581J0000000D01*
G01*
X0077608Y0229567D01*
G75*
G02*
X0077027Y0230148I0000000J0000581D01*
G01*
X0077027Y0231506D01*
G75*
G02*
X0077608Y0232087I0000581J0000000D01*
G01*
X0078769Y0232087D01*
G75*
G02*
X0079350Y0231506I0000000J-000581D01*
G01*
G37*
G36*
G01*
X0105206Y0255150D02*
X0106565Y0255150D01*
G75*
G02*
X0107145Y0254569I0000000J-000581D01*
G01*
X0107145Y0253408D01*
G75*
G02*
X0106565Y0252827I-000581J0000000D01*
G01*
X0105206Y0252827D01*
G75*
G02*
X0104626Y0253408I0000000J0000581D01*
G01*
X0104626Y0254569D01*
G75*
G02*
X0105206Y0255150I0000581J0000000D01*
G01*
G37*
G36*
G01*
X0105206Y0251331D02*
X0106565Y0251331D01*
G75*
G02*
X0107145Y0250750I0000000J-000581D01*
G01*
X0107145Y0249589D01*
G75*
G02*
X0106565Y0249008I-000581J0000000D01*
G01*
X0105206Y0249008D01*
G75*
G02*
X0104626Y0249589I0000000J0000581D01*
G01*
X0104626Y0250750D01*
G75*
G02*
X0105206Y0251331I0000581J0000000D01*
G01*
G37*
D212*
X0110807Y0253662D03*
X0110807Y0246181D03*
X0118681Y0249922D03*
G36*
G01*
X0085039Y0194597D02*
X0085039Y0193239D01*
G75*
G02*
X0084458Y0192658I-000581J0000000D01*
G01*
X0083297Y0192658D01*
G75*
G02*
X0082716Y0193239I0000000J0000581D01*
G01*
X0082716Y0194597D01*
G75*
G02*
X0083297Y0195178I0000581J0000000D01*
G01*
X0084458Y0195178D01*
G75*
G02*
X0085039Y0194597I0000000J-000581D01*
G01*
G37*
G36*
G01*
X0081220Y0194597D02*
X0081220Y0193239D01*
G75*
G02*
X0080639Y0192658I-000581J0000000D01*
G01*
X0079478Y0192658D01*
G75*
G02*
X0078897Y0193239I0000000J0000581D01*
G01*
X0078897Y0194597D01*
G75*
G02*
X0079478Y0195178I0000581J0000000D01*
G01*
X0080639Y0195178D01*
G75*
G02*
X0081220Y0194597I0000000J-000581D01*
G01*
G37*
G36*
G01*
X0120078Y0240724D02*
X0120078Y0238706D01*
G75*
G02*
X0119217Y0237845I-000861J0000000D01*
G01*
X0117495Y0237845D01*
G75*
G02*
X0116634Y0238706I0000000J0000861D01*
G01*
X0116634Y0240724D01*
G75*
G02*
X0117495Y0241585I0000861J0000000D01*
G01*
X0119217Y0241585D01*
G75*
G02*
X0120078Y0240724I0000000J-000861D01*
G01*
G37*
G36*
G01*
X0113878Y0240724D02*
X0113878Y0238706D01*
G75*
G02*
X0113016Y0237845I-000861J0000000D01*
G01*
X0111294Y0237845D01*
G75*
G02*
X0110433Y0238706I0000000J0000861D01*
G01*
X0110433Y0240724D01*
G75*
G02*
X0111294Y0241585I0000861J0000000D01*
G01*
X0113016Y0241585D01*
G75*
G02*
X0113878Y0240724I0000000J-000861D01*
G01*
G37*
D226*
X0077933Y0256477D03*
X0073933Y0236477D03*
X0081933Y0236477D03*
D223*
X0075433Y0251477D03*
X0080433Y0251477D03*
X0075433Y0246477D03*
X0080433Y0246477D03*
X0075433Y0241477D03*
X0080433Y0241477D03*
D237*
X0116811Y0166989D03*
D238*
X0116811Y0176989D03*
X0116811Y0186989D03*
X0451612Y0145321D02*
%LPD*%
G01*
G36*
G01*
X0397518Y0129494D02*
X0397518Y0130833D01*
G75*
G02*
X0398069Y0131384I0000551J0000000D01*
G01*
X0399171Y0131384D01*
G75*
G02*
X0399722Y0130833I0000000J-000551D01*
G01*
X0399722Y0129494D01*
G75*
G02*
X0399171Y0128943I-000551J0000000D01*
G01*
X0398069Y0128943D01*
G75*
G02*
X0397518Y0129494I0000000J0000551D01*
G01*
G37*
G36*
G01*
X0393738Y0129494D02*
X0393738Y0130833D01*
G75*
G02*
X0394289Y0131384I0000551J0000000D01*
G01*
X0395392Y0131384D01*
G75*
G02*
X0395943Y0130833I0000000J-000551D01*
G01*
X0395943Y0129494D01*
G75*
G02*
X0395392Y0128943I-000551J0000000D01*
G01*
X0394289Y0128943D01*
G75*
G02*
X0393738Y0129494I0000000J0000551D01*
G01*
G37*
G36*
G01*
X0424014Y0114730D02*
X0425352Y0114730D01*
G75*
G02*
X0425903Y0114179I0000000J-000551D01*
G01*
X0425903Y0113077D01*
G75*
G02*
X0425352Y0112526I-000551J0000000D01*
G01*
X0424014Y0112526D01*
G75*
G02*
X0423462Y0113077I0000000J0000551D01*
G01*
X0423462Y0114179D01*
G75*
G02*
X0424014Y0114730I0000551J0000000D01*
G01*
G37*
G36*
G01*
X0424014Y0118510D02*
X0425352Y0118510D01*
G75*
G02*
X0425903Y0117959I0000000J-000551D01*
G01*
X0425903Y0116856D01*
G75*
G02*
X0425352Y0116305I-000551J0000000D01*
G01*
X0424014Y0116305D01*
G75*
G02*
X0423462Y0116856I0000000J0000551D01*
G01*
X0423462Y0117959D01*
G75*
G02*
X0424014Y0118510I0000551J0000000D01*
G01*
G37*
G36*
G01*
X0410923Y0143392D02*
X0412380Y0143392D01*
G75*
G02*
X0412911Y0142860I0000000J-000531D01*
G01*
X0412911Y0141797D01*
G75*
G02*
X0412380Y0141266I-000531J0000000D01*
G01*
X0410923Y0141266D01*
G75*
G02*
X0410392Y0141797I0000000J0000531D01*
G01*
X0410392Y0142860D01*
G75*
G02*
X0410923Y0143392I0000531J0000000D01*
G01*
G37*
G36*
G01*
X0410923Y0139376D02*
X0412380Y0139376D01*
G75*
G02*
X0412911Y0138845I0000000J-000531D01*
G01*
X0412911Y0137782D01*
G75*
G02*
X0412380Y0137250I-000531J0000000D01*
G01*
X0410923Y0137250D01*
G75*
G02*
X0410392Y0137782I0000000J0000531D01*
G01*
X0410392Y0138845D01*
G75*
G02*
X0410923Y0139376I0000531J0000000D01*
G01*
G37*
G36*
G01*
X0421895Y0111049D02*
X0421895Y0109868D01*
G75*
G02*
X0421305Y0109278I-000591J0000000D01*
G01*
X0414809Y0109278D01*
G75*
G02*
X0414218Y0109868I0000000J0000591D01*
G01*
X0414218Y0111049D01*
G75*
G02*
X0414809Y0111640I0000591J0000000D01*
G01*
X0421305Y0111640D01*
G75*
G02*
X0421895Y0111049I0000000J-000591D01*
G01*
G37*
G36*
G01*
X0421895Y0116049D02*
X0421895Y0114868D01*
G75*
G02*
X0421305Y0114278I-000591J0000000D01*
G01*
X0414809Y0114278D01*
G75*
G02*
X0414218Y0114868I0000000J0000591D01*
G01*
X0414218Y0116049D01*
G75*
G02*
X0414809Y0116640I0000591J0000000D01*
G01*
X0421305Y0116640D01*
G75*
G02*
X0421895Y0116049I0000000J-000591D01*
G01*
G37*
G36*
G01*
X0421895Y0121049D02*
X0421895Y0119868D01*
G75*
G02*
X0421305Y0119278I-000591J0000000D01*
G01*
X0414809Y0119278D01*
G75*
G02*
X0414218Y0119868I0000000J0000591D01*
G01*
X0414218Y0121049D01*
G75*
G02*
X0414809Y0121640I0000591J0000000D01*
G01*
X0421305Y0121640D01*
G75*
G02*
X0421895Y0121049I0000000J-000591D01*
G01*
G37*
G36*
G01*
X0421895Y0126049D02*
X0421895Y0124868D01*
G75*
G02*
X0421305Y0124278I-000591J0000000D01*
G01*
X0414809Y0124278D01*
G75*
G02*
X0414218Y0124868I0000000J0000591D01*
G01*
X0414218Y0126049D01*
G75*
G02*
X0414809Y0126640I0000591J0000000D01*
G01*
X0421305Y0126640D01*
G75*
G02*
X0421895Y0126049I0000000J-000591D01*
G01*
G37*
G36*
G01*
X0402407Y0126049D02*
X0402407Y0124868D01*
G75*
G02*
X0401817Y0124278I-000591J0000000D01*
G01*
X0395321Y0124278D01*
G75*
G02*
X0394730Y0124868I0000000J0000591D01*
G01*
X0394730Y0126049D01*
G75*
G02*
X0395321Y0126640I0000591J0000000D01*
G01*
X0401817Y0126640D01*
G75*
G02*
X0402407Y0126049I0000000J-000591D01*
G01*
G37*
G36*
G01*
X0402407Y0121049D02*
X0402407Y0119868D01*
G75*
G02*
X0401817Y0119278I-000591J0000000D01*
G01*
X0395321Y0119278D01*
G75*
G02*
X0394730Y0119868I0000000J0000591D01*
G01*
X0394730Y0121049D01*
G75*
G02*
X0395321Y0121640I0000591J0000000D01*
G01*
X0401817Y0121640D01*
G75*
G02*
X0402407Y0121049I0000000J-000591D01*
G01*
G37*
G36*
G01*
X0402407Y0116049D02*
X0402407Y0114868D01*
G75*
G02*
X0401817Y0114278I-000591J0000000D01*
G01*
X0395321Y0114278D01*
G75*
G02*
X0394730Y0114868I0000000J0000591D01*
G01*
X0394730Y0116049D01*
G75*
G02*
X0395321Y0116640I0000591J0000000D01*
G01*
X0401817Y0116640D01*
G75*
G02*
X0402407Y0116049I0000000J-000591D01*
G01*
G37*
G36*
G01*
X0402407Y0111049D02*
X0402407Y0109868D01*
G75*
G02*
X0401817Y0109278I-000591J0000000D01*
G01*
X0395321Y0109278D01*
G75*
G02*
X0394730Y0109868I0000000J0000591D01*
G01*
X0394730Y0111049D01*
G75*
G02*
X0395321Y0111640I0000591J0000000D01*
G01*
X0401817Y0111640D01*
G75*
G02*
X0402407Y0111049I0000000J-000591D01*
G01*
G37*
D233*
X0436415Y0110321D03*
X0436415Y0112880D03*
X0436415Y0115439D03*
X0428935Y0115439D03*
X0428935Y0112880D03*
X0428935Y0110321D03*
D17*
X0393344Y0118156D03*
X0393344Y0122880D03*
X0393344Y0113431D03*
X0393344Y0108707D03*
X0450136Y0134140D03*
X0450136Y0138077D03*
G36*
G01*
X0420254Y0129409D02*
X0418797Y0129409D01*
G75*
G02*
X0418266Y0129941I0000000J0000531D01*
G01*
X0418266Y0131004D01*
G75*
G02*
X0418797Y0131535I0000531J0000000D01*
G01*
X0420254Y0131535D01*
G75*
G02*
X0420785Y0131004I0000000J-000531D01*
G01*
X0420785Y0129941D01*
G75*
G02*
X0420254Y0129409I-000531J0000000D01*
G01*
G37*
G36*
G01*
X0420254Y0133425D02*
X0418797Y0133425D01*
G75*
G02*
X0418266Y0133956I0000000J0000531D01*
G01*
X0418266Y0135019D01*
G75*
G02*
X0418797Y0135551I0000531J0000000D01*
G01*
X0420254Y0135551D01*
G75*
G02*
X0420785Y0135019I0000000J-000531D01*
G01*
X0420785Y0133956D01*
G75*
G02*
X0420254Y0133425I-000531J0000000D01*
G01*
G37*
G36*
G01*
X0414919Y0135472D02*
X0416258Y0135472D01*
G75*
G02*
X0416809Y0134921I0000000J-000551D01*
G01*
X0416809Y0133819D01*
G75*
G02*
X0416258Y0133267I-000551J0000000D01*
G01*
X0414919Y0133267D01*
G75*
G02*
X0414368Y0133819I0000000J0000551D01*
G01*
X0414368Y0134921D01*
G75*
G02*
X0414919Y0135472I0000551J0000000D01*
G01*
G37*
G36*
G01*
X0414919Y0131693D02*
X0416258Y0131693D01*
G75*
G02*
X0416809Y0131141I0000000J-000551D01*
G01*
X0416809Y0130039D01*
G75*
G02*
X0416258Y0129488I-000551J0000000D01*
G01*
X0414919Y0129488D01*
G75*
G02*
X0414368Y0130039I0000000J0000551D01*
G01*
X0414368Y0131141D01*
G75*
G02*
X0414919Y0131693I0000551J0000000D01*
G01*
G37*
G36*
G01*
X0418797Y0143392D02*
X0420254Y0143392D01*
G75*
G02*
X0420785Y0142860I0000000J-000531D01*
G01*
X0420785Y0141797D01*
G75*
G02*
X0420254Y0141266I-000531J0000000D01*
G01*
X0418797Y0141266D01*
G75*
G02*
X0418266Y0141797I0000000J0000531D01*
G01*
X0418266Y0142860D01*
G75*
G02*
X0418797Y0143392I0000531J0000000D01*
G01*
G37*
G36*
G01*
X0418797Y0139376D02*
X0420254Y0139376D01*
G75*
G02*
X0420785Y0138845I0000000J-000531D01*
G01*
X0420785Y0137782D01*
G75*
G02*
X0420254Y0137250I-000531J0000000D01*
G01*
X0418797Y0137250D01*
G75*
G02*
X0418266Y0137782I0000000J0000531D01*
G01*
X0418266Y0138845D01*
G75*
G02*
X0418797Y0139376I0000531J0000000D01*
G01*
G37*
G36*
G01*
X0407203Y0137329D02*
X0405864Y0137329D01*
G75*
G02*
X0405313Y0137880I0000000J0000551D01*
G01*
X0405313Y0138982D01*
G75*
G02*
X0405864Y0139534I0000551J0000000D01*
G01*
X0407203Y0139534D01*
G75*
G02*
X0407754Y0138982I0000000J-000551D01*
G01*
X0407754Y0137880D01*
G75*
G02*
X0407203Y0137329I-000551J0000000D01*
G01*
G37*
G36*
G01*
X0407203Y0141108D02*
X0405864Y0141108D01*
G75*
G02*
X0405313Y0141660I0000000J0000551D01*
G01*
X0405313Y0142762D01*
G75*
G02*
X0405864Y0143313I0000551J0000000D01*
G01*
X0407203Y0143313D01*
G75*
G02*
X0407754Y0142762I0000000J-000551D01*
G01*
X0407754Y0141660D01*
G75*
G02*
X0407203Y0141108I-000551J0000000D01*
G01*
G37*
G36*
G01*
X0430332Y0133471D02*
X0428994Y0133471D01*
G75*
G02*
X0428443Y0134022I0000000J0000551D01*
G01*
X0428443Y0135124D01*
G75*
G02*
X0428994Y0135675I0000551J0000000D01*
G01*
X0430332Y0135675D01*
G75*
G02*
X0430884Y0135124I0000000J-000551D01*
G01*
X0430884Y0134022D01*
G75*
G02*
X0430332Y0133471I-000551J0000000D01*
G01*
G37*
G36*
G01*
X0430332Y0137250D02*
X0428994Y0137250D01*
G75*
G02*
X0428443Y0137801I0000000J0000551D01*
G01*
X0428443Y0138904D01*
G75*
G02*
X0428994Y0139455I0000551J0000000D01*
G01*
X0430332Y0139455D01*
G75*
G02*
X0430884Y0138904I0000000J-000551D01*
G01*
X0430884Y0137801D01*
G75*
G02*
X0430332Y0137250I-000551J0000000D01*
G01*
G37*
G36*
G01*
X0424742Y0130223D02*
X0424742Y0131679D01*
G75*
G02*
X0425273Y0132211I0000531J0000000D01*
G01*
X0426336Y0132211D01*
G75*
G02*
X0426868Y0131679I0000000J-000531D01*
G01*
X0426868Y0130223D01*
G75*
G02*
X0426336Y0129691I-000531J0000000D01*
G01*
X0425273Y0129691D01*
G75*
G02*
X0424742Y0130223I0000000J0000531D01*
G01*
G37*
G36*
G01*
X0428758Y0130223D02*
X0428758Y0131679D01*
G75*
G02*
X0429289Y0132211I0000531J0000000D01*
G01*
X0430352Y0132211D01*
G75*
G02*
X0430884Y0131679I0000000J-000531D01*
G01*
X0430884Y0130223D01*
G75*
G02*
X0430352Y0129691I-000531J0000000D01*
G01*
X0429289Y0129691D01*
G75*
G02*
X0428758Y0130223I0000000J0000531D01*
G01*
G37*
G36*
G01*
X0448167Y0122511D02*
X0448167Y0120493D01*
G75*
G02*
X0447306Y0119632I-000861J0000000D01*
G01*
X0445583Y0119632D01*
G75*
G02*
X0444722Y0120493I0000000J0000861D01*
G01*
X0444722Y0122511D01*
G75*
G02*
X0445583Y0123372I0000861J0000000D01*
G01*
X0447306Y0123372D01*
G75*
G02*
X0448167Y0122511I0000000J-000861D01*
G01*
G37*
G36*
G01*
X0441966Y0122511D02*
X0441966Y0120493D01*
G75*
G02*
X0441105Y0119632I-000861J0000000D01*
G01*
X0439383Y0119632D01*
G75*
G02*
X0438521Y0120493I0000000J0000861D01*
G01*
X0438521Y0122511D01*
G75*
G02*
X0439383Y0123372I0000861J0000000D01*
G01*
X0441105Y0123372D01*
G75*
G02*
X0441966Y0122511I0000000J-000861D01*
G01*
G37*
G36*
G01*
X0441651Y0115656D02*
X0441651Y0117112D01*
G75*
G02*
X0442183Y0117644I0000531J0000000D01*
G01*
X0443246Y0117644D01*
G75*
G02*
X0443777Y0117112I0000000J-000531D01*
G01*
X0443777Y0115656D01*
G75*
G02*
X0443246Y0115124I-000531J0000000D01*
G01*
X0442183Y0115124D01*
G75*
G02*
X0441651Y0115656I0000000J0000531D01*
G01*
G37*
G36*
G01*
X0445667Y0115656D02*
X0445667Y0117112D01*
G75*
G02*
X0446199Y0117644I0000531J0000000D01*
G01*
X0447262Y0117644D01*
G75*
G02*
X0447793Y0117112I0000000J-000531D01*
G01*
X0447793Y0115656D01*
G75*
G02*
X0447262Y0115124I-000531J0000000D01*
G01*
X0446199Y0115124D01*
G75*
G02*
X0445667Y0115656I0000000J0000531D01*
G01*
G37*
G36*
G01*
X0430884Y0127742D02*
X0430884Y0126286D01*
G75*
G02*
X0430352Y0125754I-000531J0000000D01*
G01*
X0429289Y0125754D01*
G75*
G02*
X0428758Y0126286I0000000J0000531D01*
G01*
X0428758Y0127742D01*
G75*
G02*
X0429289Y0128274I0000531J0000000D01*
G01*
X0430352Y0128274D01*
G75*
G02*
X0430884Y0127742I0000000J-000531D01*
G01*
G37*
G36*
G01*
X0426868Y0127742D02*
X0426868Y0126286D01*
G75*
G02*
X0426336Y0125754I-000531J0000000D01*
G01*
X0425273Y0125754D01*
G75*
G02*
X0424742Y0126286I0000000J0000531D01*
G01*
X0424742Y0127742D01*
G75*
G02*
X0425273Y0128274I0000531J0000000D01*
G01*
X0426336Y0128274D01*
G75*
G02*
X0426868Y0127742I0000000J-000531D01*
G01*
G37*
G36*
G01*
X0425569Y0133533D02*
X0424112Y0133533D01*
G75*
G02*
X0423581Y0134064I0000000J0000531D01*
G01*
X0423581Y0135127D01*
G75*
G02*
X0424112Y0135659I0000531J0000000D01*
G01*
X0425569Y0135659D01*
G75*
G02*
X0426100Y0135127I0000000J-000531D01*
G01*
X0426100Y0134064D01*
G75*
G02*
X0425569Y0133533I-000531J0000000D01*
G01*
G37*
G36*
G01*
X0425569Y0137549D02*
X0424112Y0137549D01*
G75*
G02*
X0423581Y0138080I0000000J0000531D01*
G01*
X0423581Y0139143D01*
G75*
G02*
X0424112Y0139674I0000531J0000000D01*
G01*
X0425569Y0139674D01*
G75*
G02*
X0426100Y0139143I0000000J-000531D01*
G01*
X0426100Y0138080D01*
G75*
G02*
X0425569Y0137549I-000531J0000000D01*
G01*
G37*
G36*
G01*
X0442911Y0126935D02*
X0442911Y0128274D01*
G75*
G02*
X0443462Y0128825I0000551J0000000D01*
G01*
X0444565Y0128825D01*
G75*
G02*
X0445116Y0128274I0000000J-000551D01*
G01*
X0445116Y0126935D01*
G75*
G02*
X0444565Y0126384I-000551J0000000D01*
G01*
X0443462Y0126384D01*
G75*
G02*
X0442911Y0126935I0000000J0000551D01*
G01*
G37*
G36*
G01*
X0446691Y0126935D02*
X0446691Y0128274D01*
G75*
G02*
X0447242Y0128825I0000551J0000000D01*
G01*
X0448344Y0128825D01*
G75*
G02*
X0448895Y0128274I0000000J-000551D01*
G01*
X0448895Y0126935D01*
G75*
G02*
X0448344Y0126384I-000551J0000000D01*
G01*
X0447242Y0126384D01*
G75*
G02*
X0446691Y0126935I0000000J0000551D01*
G01*
G37*
G36*
G01*
X0405864Y0135472D02*
X0407203Y0135472D01*
G75*
G02*
X0407754Y0134921I0000000J-000551D01*
G01*
X0407754Y0133819D01*
G75*
G02*
X0407203Y0133267I-000551J0000000D01*
G01*
X0405864Y0133267D01*
G75*
G02*
X0405313Y0133819I0000000J0000551D01*
G01*
X0405313Y0134921D01*
G75*
G02*
X0405864Y0135472I0000551J0000000D01*
G01*
G37*
G36*
G01*
X0405864Y0131693D02*
X0407203Y0131693D01*
G75*
G02*
X0407754Y0131141I0000000J-000551D01*
G01*
X0407754Y0130039D01*
G75*
G02*
X0407203Y0129488I-000551J0000000D01*
G01*
X0405864Y0129488D01*
G75*
G02*
X0405313Y0130039I0000000J0000551D01*
G01*
X0405313Y0131141D01*
G75*
G02*
X0405864Y0131693I0000551J0000000D01*
G01*
G37*
G36*
G01*
X0430884Y0142998D02*
X0430884Y0141541D01*
G75*
G02*
X0430352Y0141010I-000531J0000000D01*
G01*
X0429289Y0141010D01*
G75*
G02*
X0428758Y0141541I0000000J0000531D01*
G01*
X0428758Y0142998D01*
G75*
G02*
X0429289Y0143530I0000531J0000000D01*
G01*
X0430352Y0143530D01*
G75*
G02*
X0430884Y0142998I0000000J-000531D01*
G01*
G37*
G36*
G01*
X0426868Y0142998D02*
X0426868Y0141541D01*
G75*
G02*
X0426336Y0141010I-000531J0000000D01*
G01*
X0425273Y0141010D01*
G75*
G02*
X0424742Y0141541I0000000J0000531D01*
G01*
X0424742Y0142998D01*
G75*
G02*
X0425273Y0143530I0000531J0000000D01*
G01*
X0426336Y0143530D01*
G75*
G02*
X0426868Y0142998I0000000J-000531D01*
G01*
G37*
D234*
X0401625Y0141778D03*
X0399066Y0141778D03*
X0396507Y0141778D03*
X0396507Y0134297D03*
X0399066Y0134297D03*
X0401625Y0134297D03*
G36*
G01*
X0447574Y0132992D02*
X0447574Y0131811D01*
G75*
G02*
X0446983Y0131220I-000591J0000000D01*
G01*
X0442948Y0131220D01*
G75*
G02*
X0442357Y0131811I0000000J0000591D01*
G01*
X0442357Y0132992D01*
G75*
G02*
X0442948Y0133582I0000591J0000000D01*
G01*
X0446983Y0133582D01*
G75*
G02*
X0447574Y0132992I0000000J-000591D01*
G01*
G37*
G36*
G01*
X0447574Y0136732D02*
X0447574Y0135551D01*
G75*
G02*
X0446983Y0134960I-000591J0000000D01*
G01*
X0442948Y0134960D01*
G75*
G02*
X0442357Y0135551I0000000J0000591D01*
G01*
X0442357Y0136732D01*
G75*
G02*
X0442948Y0137323I0000591J0000000D01*
G01*
X0446983Y0137323D01*
G75*
G02*
X0447574Y0136732I0000000J-000591D01*
G01*
G37*
G36*
G01*
X0447574Y0140472D02*
X0447574Y0139291D01*
G75*
G02*
X0446983Y0138701I-000591J0000000D01*
G01*
X0442948Y0138701D01*
G75*
G02*
X0442357Y0139291I0000000J0000591D01*
G01*
X0442357Y0140472D01*
G75*
G02*
X0442948Y0141063I0000591J0000000D01*
G01*
X0446983Y0141063D01*
G75*
G02*
X0447574Y0140472I0000000J-000591D01*
G01*
G37*
G36*
G01*
X0438617Y0140472D02*
X0438617Y0139291D01*
G75*
G02*
X0438027Y0138701I-000591J0000000D01*
G01*
X0433991Y0138701D01*
G75*
G02*
X0433401Y0139291I0000000J0000591D01*
G01*
X0433401Y0140472D01*
G75*
G02*
X0433991Y0141063I0000591J0000000D01*
G01*
X0438027Y0141063D01*
G75*
G02*
X0438617Y0140472I0000000J-000591D01*
G01*
G37*
G36*
G01*
X0438617Y0136732D02*
X0438617Y0135551D01*
G75*
G02*
X0438027Y0134960I-000591J0000000D01*
G01*
X0433991Y0134960D01*
G75*
G02*
X0433401Y0135551I0000000J0000591D01*
G01*
X0433401Y0136732D01*
G75*
G02*
X0433991Y0137323I0000591J0000000D01*
G01*
X0438027Y0137323D01*
G75*
G02*
X0438617Y0136732I0000000J-000591D01*
G01*
G37*
G36*
G01*
X0438617Y0132992D02*
X0438617Y0131811D01*
G75*
G02*
X0438027Y0131220I-000591J0000000D01*
G01*
X0433991Y0131220D01*
G75*
G02*
X0433401Y0131811I0000000J0000591D01*
G01*
X0433401Y0132992D01*
G75*
G02*
X0433991Y0133582I0000591J0000000D01*
G01*
X0438027Y0133582D01*
G75*
G02*
X0438617Y0132992I0000000J-000591D01*
G01*
G37*
G36*
G01*
X0436691Y0121108D02*
X0436691Y0119770D01*
G75*
G02*
X0436140Y0119219I-000551J0000000D01*
G01*
X0435037Y0119219D01*
G75*
G02*
X0434486Y0119770I0000000J0000551D01*
G01*
X0434486Y0121108D01*
G75*
G02*
X0435037Y0121660I0000551J0000000D01*
G01*
X0436140Y0121660D01*
G75*
G02*
X0436691Y0121108I0000000J-000551D01*
G01*
G37*
G36*
G01*
X0432911Y0121108D02*
X0432911Y0119770D01*
G75*
G02*
X0432360Y0119219I-000551J0000000D01*
G01*
X0431258Y0119219D01*
G75*
G02*
X0430706Y0119770I0000000J0000551D01*
G01*
X0430706Y0121108D01*
G75*
G02*
X0431258Y0121660I0000551J0000000D01*
G01*
X0432360Y0121660D01*
G75*
G02*
X0432911Y0121108I0000000J-000551D01*
G01*
G37*
G36*
G01*
X0414919Y0143313D02*
X0416258Y0143313D01*
G75*
G02*
X0416809Y0142762I0000000J-000551D01*
G01*
X0416809Y0141660D01*
G75*
G02*
X0416258Y0141108I-000551J0000000D01*
G01*
X0414919Y0141108D01*
G75*
G02*
X0414368Y0141660I0000000J0000551D01*
G01*
X0414368Y0142762D01*
G75*
G02*
X0414919Y0143313I0000551J0000000D01*
G01*
G37*
G36*
G01*
X0414919Y0139534D02*
X0416258Y0139534D01*
G75*
G02*
X0416809Y0138982I0000000J-000551D01*
G01*
X0416809Y0137880D01*
G75*
G02*
X0416258Y0137329I-000551J0000000D01*
G01*
X0414919Y0137329D01*
G75*
G02*
X0414368Y0137880I0000000J0000551D01*
G01*
X0414368Y0138982D01*
G75*
G02*
X0414919Y0139534I0000551J0000000D01*
G01*
G37*
G36*
G01*
X0410923Y0135551D02*
X0412380Y0135551D01*
G75*
G02*
X0412911Y0135019I0000000J-000531D01*
G01*
X0412911Y0133956D01*
G75*
G02*
X0412380Y0133425I-000531J0000000D01*
G01*
X0410923Y0133425D01*
G75*
G02*
X0410392Y0133956I0000000J0000531D01*
G01*
X0410392Y0135019D01*
G75*
G02*
X0410923Y0135551I0000531J0000000D01*
G01*
G37*
G36*
G01*
X0410923Y0131535D02*
X0412380Y0131535D01*
G75*
G02*
X0412911Y0131004I0000000J-000531D01*
G01*
X0412911Y0129941D01*
G75*
G02*
X0412380Y0129409I-000531J0000000D01*
G01*
X0410923Y0129409D01*
G75*
G02*
X0410392Y0129941I0000000J0000531D01*
G01*
X0410392Y0131004D01*
G75*
G02*
X0410923Y0131535I0000531J0000000D01*
G01*
G37*
M02*
