G75*
G70*
%OFA0B0*%
%FSLAX25Y25*%
%IPPOS*%
%LPD*%
%AMOC8*
5,1,8,0,0,1.08239X$1,22.5*
%
%ADD11C,0.10236*%
%ADD12C,0.05906*%
%ADD13C,0.14567*%
%ADD14C,0.08661*%
%ADD15C,0.06693*%
%ADD16C,0.02362*%
%ADD37C,0.02756*%
%ADD46C,0.06000*%
%ADD49C,0.07874*%
%ADD51C,0.05118*%
%ADD56O,0.06693X0.06693*%
%ADD57R,0.06693X0.06693*%
%ADD58O,0.04331X0.09449*%
%ADD59C,0.04331*%
%ADD60R,0.04331X0.04331*%
%ADD80C,0.03150*%
%ADD86C,0.03937*%
X0000000Y0000000D02*
%LPD*%
G01*
D11*
X0545071Y0073315D03*
X0521843Y0073315D03*
X0499008Y0073315D03*
X0533654Y0050480D03*
X0510425Y0050480D03*
X0545071Y0041307D03*
X0521843Y0041307D03*
X0499008Y0041307D03*
D12*
X0468181Y0073315D03*
X0458181Y0073315D03*
X0448181Y0073315D03*
X0438181Y0073315D03*
X0428181Y0073315D03*
X0418181Y0073315D03*
X0408181Y0073315D03*
X0398181Y0073315D03*
X0468181Y0063315D03*
X0458181Y0063315D03*
X0448181Y0063315D03*
X0438181Y0063315D03*
X0428181Y0063315D03*
X0418181Y0063315D03*
X0408181Y0063315D03*
X0398181Y0063315D03*
X0468181Y0039496D03*
X0458181Y0039496D03*
X0448181Y0039496D03*
X0438181Y0039496D03*
X0428181Y0039496D03*
X0418181Y0039496D03*
X0408181Y0039496D03*
X0398181Y0039496D03*
X0468181Y0029496D03*
X0458181Y0029496D03*
X0448181Y0029496D03*
X0438181Y0029496D03*
X0428181Y0029496D03*
X0418181Y0029496D03*
X0408181Y0029496D03*
X0398181Y0029496D03*
X0155307Y0029496D03*
X0165307Y0029496D03*
X0175307Y0029496D03*
X0185307Y0029496D03*
X0195307Y0029496D03*
X0205307Y0029496D03*
X0215307Y0029496D03*
X0225307Y0029496D03*
X0235307Y0029496D03*
X0245307Y0029496D03*
X0255307Y0029496D03*
X0265307Y0029496D03*
X0275307Y0029496D03*
X0285307Y0029496D03*
X0295307Y0029496D03*
X0305307Y0029496D03*
X0315307Y0029496D03*
X0325307Y0029496D03*
X0335307Y0029496D03*
X0155307Y0039496D03*
X0165307Y0039496D03*
X0175307Y0039496D03*
X0185307Y0039496D03*
X0195307Y0039496D03*
X0205307Y0039496D03*
X0215307Y0039496D03*
X0225307Y0039496D03*
X0235307Y0039496D03*
X0245307Y0039496D03*
X0255307Y0039496D03*
X0265307Y0039496D03*
X0275307Y0039496D03*
X0285307Y0039496D03*
X0295307Y0039496D03*
X0305307Y0039496D03*
X0315307Y0039496D03*
X0325307Y0039496D03*
X0335307Y0039496D03*
X0155307Y0063315D03*
X0165307Y0063315D03*
X0175307Y0063315D03*
X0185307Y0063315D03*
X0195307Y0063315D03*
X0205307Y0063315D03*
X0215307Y0063315D03*
X0225307Y0063315D03*
X0235307Y0063315D03*
X0245307Y0063315D03*
X0255307Y0063315D03*
X0265307Y0063315D03*
X0275307Y0063315D03*
X0285307Y0063315D03*
X0295307Y0063315D03*
X0305307Y0063315D03*
X0315307Y0063315D03*
X0325307Y0063315D03*
X0335307Y0063315D03*
X0155307Y0073315D03*
X0165307Y0073315D03*
X0175307Y0073315D03*
X0185307Y0073315D03*
X0195307Y0073315D03*
X0205307Y0073315D03*
X0215307Y0073315D03*
X0225307Y0073315D03*
X0235307Y0073315D03*
X0245307Y0073315D03*
X0255307Y0073315D03*
X0265307Y0073315D03*
X0275307Y0073315D03*
X0285307Y0073315D03*
X0295307Y0073315D03*
X0305307Y0073315D03*
X0315307Y0073315D03*
X0325307Y0073315D03*
X0335307Y0073315D03*
D11*
X0124205Y0073315D03*
X0101370Y0073315D03*
X0112787Y0050480D03*
X0124205Y0041307D03*
X0101370Y0041307D03*
D13*
X0572236Y0021622D03*
D14*
X0562591Y0052331D03*
D13*
X0366724Y0021622D03*
D14*
X0083063Y0052331D03*
D13*
X0073417Y0021622D03*
D15*
X0175000Y0154327D03*
D16*
X0381139Y0141876D03*
X0381139Y0112349D03*
X0381139Y0109199D03*
X0381139Y0106050D03*
X0450135Y0134396D03*
X0450135Y0138333D03*
D15*
X0590000Y0287598D03*
X0590000Y0297598D03*
X0590000Y0307598D03*
X0590000Y0317598D03*
X0590000Y0327598D03*
X0600000Y0287598D03*
X0600000Y0297598D03*
X0600000Y0307598D03*
X0600000Y0317598D03*
X0600000Y0327598D03*
X0610000Y0287598D03*
X0610000Y0297598D03*
X0610000Y0307598D03*
X0610000Y0317598D03*
X0610000Y0327598D03*
X0225197Y0111319D03*
D16*
X0127982Y0369741D03*
X0135206Y0368068D03*
X0127135Y0365902D03*
X0127982Y0362458D03*
X0128277Y0359111D03*
X0135206Y0357831D03*
X0130049Y0352713D03*
X0135206Y0350154D03*
X0111879Y0378402D03*
X0127923Y0377221D03*
D15*
X0199508Y0154228D03*
D37*
X0073602Y0107894D03*
X0077539Y0107894D03*
X0081476Y0107894D03*
X0085413Y0107894D03*
X0111594Y0258484D03*
X0107657Y0258484D03*
X0093681Y0258484D03*
X0089744Y0258484D03*
D15*
X0160138Y0128642D03*
X0302145Y0118947D03*
X0267717Y0147146D03*
X0460379Y0134747D03*
X0312676Y0118947D03*
X0272835Y0100886D03*
X0262106Y0100591D03*
D46*
X0034252Y0125315D03*
X0034252Y0110315D03*
D15*
X0590000Y0340000D03*
X0590000Y0350000D03*
X0590000Y0360000D03*
X0590000Y0370000D03*
X0590000Y0380000D03*
X0600000Y0340000D03*
X0600000Y0350000D03*
X0600000Y0360000D03*
X0600000Y0370000D03*
X0600000Y0380000D03*
X0610000Y0340000D03*
X0610000Y0350000D03*
X0610000Y0360000D03*
X0610000Y0370000D03*
X0610000Y0380000D03*
D46*
X0214961Y0103524D03*
X0214961Y0118524D03*
D15*
X0341634Y0100689D03*
X0210630Y0154228D03*
X0291712Y0118947D03*
X0180807Y0128642D03*
D46*
X0190354Y0117933D03*
X0190354Y0102933D03*
X0488484Y0105413D03*
X0488484Y0124705D03*
D51*
X0581524Y0159418D03*
X0581524Y0171229D03*
X0581524Y0183040D03*
X0561839Y0159418D03*
X0561839Y0171229D03*
X0561839Y0183040D03*
X0542154Y0159418D03*
X0542154Y0171229D03*
X0542154Y0183040D03*
D15*
X0323279Y0118947D03*
X0281279Y0118947D03*
X0356299Y0158760D03*
X0285925Y0100689D03*
D46*
X0052362Y0125512D03*
X0052362Y0110512D03*
D15*
X0251083Y0100886D03*
D46*
X0203150Y0102933D03*
X0203150Y0117933D03*
D15*
X0215679Y0128647D03*
X0270846Y0118947D03*
X0331594Y0100689D03*
X0344279Y0118947D03*
X0153543Y0113681D03*
D56*
X0051969Y0260827D03*
X0051969Y0250827D03*
X0051969Y0240827D03*
X0051969Y0230827D03*
X0051969Y0220827D03*
D57*
X0051969Y0210827D03*
D15*
X0570472Y0411811D03*
X0570472Y0401811D03*
X0570472Y0391811D03*
X0570472Y0381811D03*
X0570472Y0371811D03*
X0560472Y0411811D03*
X0560472Y0401811D03*
X0560472Y0391811D03*
X0560472Y0381811D03*
X0560472Y0371811D03*
X0550472Y0411811D03*
X0550472Y0401811D03*
X0550472Y0391811D03*
X0550472Y0381811D03*
X0550472Y0371811D03*
X0188189Y0154232D03*
D46*
X0182382Y0103012D03*
X0182382Y0118012D03*
D15*
X0170079Y0128642D03*
D46*
X0061417Y0125512D03*
X0061417Y0110512D03*
X0499902Y0105413D03*
X0499902Y0124705D03*
D15*
X0590000Y0234803D03*
X0590000Y0244803D03*
X0590000Y0254803D03*
X0590000Y0264803D03*
X0590000Y0274803D03*
X0600000Y0234803D03*
X0600000Y0244803D03*
X0600000Y0254803D03*
X0600000Y0264803D03*
X0600000Y0274803D03*
X0610000Y0234803D03*
X0610000Y0244803D03*
X0610000Y0254803D03*
X0610000Y0264803D03*
X0610000Y0274803D03*
X0304479Y0162847D03*
G36*
G01*
X0367478Y0406932D02*
X0367478Y0406932D01*
G75*
G02*
X0374159Y0406932I0003341J-003341D01*
G01*
X0375829Y0405261D01*
G75*
G02*
X0375829Y0398580I-003341J-003341D01*
G01*
X0375829Y0398580D01*
G75*
G02*
X0369148Y0398580I-003341J0003341D01*
G01*
X0367478Y0400250D01*
G75*
G02*
X0367478Y0406932I0003341J0003341D01*
G01*
G37*
G36*
G01*
X0374958Y0415593D02*
X0374958Y0415593D01*
G75*
G02*
X0381639Y0415593I0003341J-003341D01*
G01*
X0383310Y0413923D01*
G75*
G02*
X0383310Y0407241I-003341J-003341D01*
G01*
X0383310Y0407241D01*
G75*
G02*
X0376628Y0407241I-003341J0003341D01*
G01*
X0374958Y0408912D01*
G75*
G02*
X0374958Y0415593I0003341J0003341D01*
G01*
G37*
G36*
G01*
X0399367Y0415593D02*
X0399367Y0415593D01*
G75*
G02*
X0406049Y0415593I0003341J-003341D01*
G01*
X0407719Y0413923D01*
G75*
G02*
X0407719Y0407241I-003341J-003341D01*
G01*
X0407719Y0407241D01*
G75*
G02*
X0401038Y0407241I-003341J0003341D01*
G01*
X0399367Y0408912D01*
G75*
G02*
X0399367Y0415593I0003341J0003341D01*
G01*
G37*
G36*
G01*
X0389525Y0406932D02*
X0389525Y0406932D01*
G75*
G02*
X0396206Y0406932I0003341J-003341D01*
G01*
X0397877Y0405261D01*
G75*
G02*
X0397877Y0398580I-003341J-003341D01*
G01*
X0397877Y0398580D01*
G75*
G02*
X0391195Y0398580I-003341J0003341D01*
G01*
X0389525Y0400250D01*
G75*
G02*
X0389525Y0406932I0003341J0003341D01*
G01*
G37*
G36*
G01*
X0352911Y0415593D02*
X0352911Y0415593D01*
G75*
G02*
X0359592Y0415593I0003341J-003341D01*
G01*
X0361262Y0413923D01*
G75*
G02*
X0361262Y0407241I-003341J-003341D01*
G01*
X0361262Y0407241D01*
G75*
G02*
X0354581Y0407241I-003341J0003341D01*
G01*
X0352911Y0408912D01*
G75*
G02*
X0352911Y0415593I0003341J0003341D01*
G01*
G37*
X0310531Y0100689D03*
X0202165Y0128543D03*
X0191535Y0128543D03*
D57*
X0288504Y0391732D03*
D56*
X0278504Y0391732D03*
X0268504Y0391732D03*
X0258504Y0391732D03*
X0248504Y0391732D03*
X0238504Y0391732D03*
X0228504Y0391732D03*
X0218504Y0391732D03*
D15*
X0333679Y0118947D03*
D46*
X0164567Y0117756D03*
X0164567Y0102756D03*
D15*
X0317879Y0168447D03*
X0296752Y0100689D03*
X0321161Y0100689D03*
D58*
X0341339Y0406201D03*
X0312598Y0406201D03*
D59*
X0333268Y0402756D03*
X0330118Y0409646D03*
X0326969Y0402756D03*
X0323819Y0409646D03*
D60*
X0320669Y0402756D03*
D15*
X0260413Y0118947D03*
X0153543Y0101870D03*
D16*
X0361874Y0228000D03*
X0329492Y0222784D03*
X0329561Y0202184D03*
X0336972Y0200245D03*
X0308035Y0195815D03*
D46*
X0043307Y0125512D03*
X0043307Y0110512D03*
D16*
X0349308Y0387992D03*
X0397589Y0387992D03*
X0453494Y0387992D03*
X0496407Y0387992D03*
X0354774Y0373032D03*
X0094587Y0289961D03*
X0098032Y0287894D03*
X0093406Y0284941D03*
X0093701Y0270965D03*
X0185974Y0388314D03*
X0182530Y0390381D03*
X0187156Y0393333D03*
X0186860Y0407310D03*
D16*
X0127165Y0275984D03*
X0275460Y0167554D03*
X0365153Y0242721D03*
X0099479Y0335747D03*
X0079147Y0311516D03*
X0232779Y0416347D03*
X0232879Y0401047D03*
X0260728Y0381004D03*
D49*
X0010236Y0121063D03*
D16*
X0100669Y0264038D03*
X0526622Y0111319D03*
X0220866Y0418504D03*
D49*
X0010236Y0084055D03*
D16*
X0455118Y0088878D03*
X0065948Y0107717D03*
D49*
X0010236Y0337500D03*
D16*
X0150394Y0251870D03*
X0172047Y0380610D03*
X0602803Y0143224D03*
X0418504Y0147539D03*
X0318799Y0191339D03*
X0377813Y0127113D03*
X0454589Y0105557D03*
X0511811Y0092815D03*
X0340551Y0343209D03*
X0489764Y0343701D03*
D49*
X0010236Y0284055D03*
D16*
X0377716Y0091384D03*
X0518679Y0171147D03*
X0569535Y0215075D03*
X0531543Y0237713D03*
X0259449Y0231398D03*
D49*
X0010236Y0380315D03*
D16*
X0203937Y0381791D03*
X0557087Y0232579D03*
X0111811Y0023524D03*
X0531937Y0221374D03*
X0526425Y0099114D03*
X0571506Y0133447D03*
D49*
X0450394Y0452559D03*
D16*
X0029079Y0318547D03*
X0529181Y0212713D03*
D49*
X0010827Y0057185D03*
X0408957Y0452756D03*
D16*
X0375197Y0341240D03*
X0097244Y0060138D03*
X0304823Y0388976D03*
D49*
X0633465Y0126870D03*
D16*
X0504136Y0373524D03*
X0111811Y0097343D03*
D49*
X0010236Y0160531D03*
D16*
X0537402Y0006201D03*
X0527606Y0132577D03*
X0527803Y0144799D03*
D49*
X0633465Y0166339D03*
D16*
X0600779Y0171747D03*
X0355118Y0392815D03*
X0339764Y0236516D03*
X0219679Y0409047D03*
X0127848Y0183247D03*
X0492913Y0393996D03*
X0197779Y0415547D03*
X0490157Y0193996D03*
X0353937Y0340453D03*
X0120079Y0262847D03*
D49*
X0105610Y0452657D03*
D16*
X0496457Y0168406D03*
D49*
X0279331Y0452657D03*
D16*
X0336614Y0390059D03*
D49*
X0192421Y0452657D03*
X0582776Y0452756D03*
D16*
X0531740Y0229642D03*
X0277953Y0201969D03*
D49*
X0633465Y0343307D03*
D16*
X0526622Y0106398D03*
X0439079Y0171465D03*
D49*
X0495866Y0452756D03*
X0633465Y0207776D03*
D16*
X0051969Y0186516D03*
X0029079Y0328547D03*
X0046079Y0293547D03*
D49*
X0633465Y0058465D03*
D16*
X0601575Y0216043D03*
X0583071Y0010138D03*
X0555906Y0336122D03*
D49*
X0633465Y0386122D03*
D16*
X0343701Y0387697D03*
X0150079Y0286547D03*
D49*
X0633465Y0246752D03*
D16*
X0028083Y0365551D03*
X0487401Y0226270D03*
X0191339Y0380610D03*
X0324016Y0181004D03*
X0523479Y0171147D03*
X0079134Y0083760D03*
D49*
X0062795Y0452657D03*
D16*
X0605779Y0171247D03*
X0105118Y0097343D03*
X0052362Y0153051D03*
D49*
X0238878Y0452657D03*
D16*
X0118504Y0004626D03*
X0601031Y0198933D03*
X0454379Y0143147D03*
X0359843Y0347539D03*
X0289779Y0417347D03*
X0340157Y0251870D03*
X0457695Y0171373D03*
X0072079Y0295547D03*
X0107165Y0103161D03*
X0492520Y0277067D03*
D49*
X0010236Y0201969D03*
X0633465Y0089862D03*
D16*
X0154134Y0400295D03*
D49*
X0322146Y0452756D03*
X0537303Y0452559D03*
X0363976Y0452756D03*
D16*
X0117979Y0384947D03*
X0371949Y0237402D03*
X0528045Y0197213D03*
X0149079Y0266547D03*
X0350394Y0253839D03*
X0365354Y0251870D03*
X0299213Y0231396D03*
X0432185Y0344741D03*
D49*
X0010236Y0240945D03*
X0147441Y0452657D03*
D16*
X0028122Y0375591D03*
X0371879Y0200047D03*
D49*
X0633465Y0289862D03*
D16*
X0487722Y0259104D03*
X0143594Y0246752D03*
X0143886Y0287697D03*
X0108465Y0097343D03*
X0300787Y0400394D03*
X0310433Y0393307D03*
X0144254Y0096752D03*
X0135257Y0310749D03*
X0150602Y0381421D03*
X0123425Y0297638D03*
X0135827Y0325492D03*
X0229134Y0080020D03*
X0305279Y0184547D03*
X0281779Y0228747D03*
X0345669Y0350787D03*
X0379979Y0354147D03*
X0345472Y0240059D03*
X0265354Y0380791D03*
X0426181Y0166339D03*
X0422244Y0170276D03*
X0424213Y0168307D03*
X0481379Y0047647D03*
X0342717Y0281496D03*
X0343307Y0301969D03*
X0546801Y0127119D03*
X0556327Y0219654D03*
X0256386Y0156910D03*
X0250000Y0158563D03*
X0245201Y0150607D03*
X0292608Y0141642D03*
X0239579Y0080347D03*
X0237852Y0150607D03*
X0371179Y0060947D03*
X0303154Y0143161D03*
X0232776Y0158264D03*
X0223707Y0156089D03*
X0300929Y0140935D03*
X0219978Y0156098D03*
X0244199Y0138482D03*
X0296779Y0136907D03*
X0233071Y0133762D03*
X0235925Y0079331D03*
X0239900Y0133366D03*
X0183071Y0137301D03*
X0149803Y0057579D03*
X0179921Y0139665D03*
X0170079Y0137301D03*
X0147244Y0170776D03*
X0469685Y0166437D03*
X0469685Y0162894D03*
X0469685Y0169587D03*
X0341732Y0011766D03*
X0429134Y0168998D03*
X0465110Y0012010D03*
X0397919Y0166212D03*
X0378979Y0150947D03*
X0376379Y0150847D03*
X0389079Y0162147D03*
X0389079Y0164947D03*
X0381779Y0161147D03*
X0381779Y0158147D03*
X0379132Y0155413D03*
X0377279Y0160947D03*
X0422279Y0053547D03*
X0432179Y0053547D03*
X0426779Y0053547D03*
X0372441Y0151870D03*
X0372279Y0161247D03*
X0246979Y0126847D03*
X0247409Y0117628D03*
X0357087Y0164075D03*
X0357087Y0166437D03*
X0347579Y0162347D03*
X0347579Y0158947D03*
X0205807Y0097343D03*
X0278279Y0229187D03*
X0354228Y0299524D03*
X0354732Y0292313D03*
X0351868Y0293618D03*
X0351868Y0325689D03*
X0341142Y0297244D03*
X0339479Y0281247D03*
X0212545Y0081791D03*
X0175394Y0079823D03*
X0114579Y0297347D03*
X0153839Y0380474D03*
X0158779Y0135847D03*
X0132677Y0325492D03*
X0310747Y0020445D03*
X0443307Y0032579D03*
X0128346Y0325492D03*
X0124016Y0325492D03*
X0120866Y0325492D03*
X0451669Y0021461D03*
X0117323Y0325492D03*
X0454724Y0022736D03*
X0350394Y0013551D03*
X0112795Y0325492D03*
X0457618Y0021496D03*
X0108268Y0325492D03*
D80*
X0579378Y0138158D03*
D16*
X0543945Y0217240D03*
X0538433Y0119587D03*
X0507379Y0393247D03*
D80*
X0579299Y0207843D03*
D16*
X0500879Y0335647D03*
D80*
X0554673Y0127512D03*
X0554673Y0130662D03*
X0579378Y0134615D03*
X0554673Y0207056D03*
X0554673Y0210205D03*
D16*
X0538433Y0111319D03*
D80*
X0579299Y0204300D03*
D16*
X0543945Y0233776D03*
X0543945Y0225508D03*
X0538433Y0103051D03*
X0563453Y0213788D03*
X0563510Y0134615D03*
X0366380Y0318028D03*
X0261898Y0158621D03*
X0264236Y0156201D03*
X0266618Y0158462D03*
X0269291Y0156201D03*
X0270709Y0014668D03*
X0250000Y0013453D03*
X0266142Y0016831D03*
X0255512Y0013453D03*
X0457079Y0049147D03*
X0364020Y0315272D03*
X0570500Y0138158D03*
X0565382Y0203906D03*
X0569535Y0203906D03*
X0566489Y0138552D03*
X0361659Y0312516D03*
X0143736Y0249896D03*
X0409579Y0150447D03*
X0362379Y0150147D03*
X0341142Y0322441D03*
X0339979Y0331047D03*
X0413179Y0148247D03*
X0362079Y0049147D03*
X0372479Y0143647D03*
X0305479Y0092947D03*
X0348379Y0289547D03*
X0348379Y0330614D03*
X0361579Y0303147D03*
X0361279Y0237947D03*
X0295379Y0403847D03*
X0299707Y0390157D03*
X0404259Y0165967D03*
X0302756Y0034547D03*
X0298033Y0034547D03*
D86*
X0432179Y0053547D02*
X0462200Y0053547D01*
X0462300Y0053647D02*
X0466379Y0053647D01*
X0466379Y0053647D02*
X0490379Y0029647D01*
X0490379Y0029647D02*
X0518579Y0029647D01*
X0521843Y0032911D02*
X0521843Y0041307D01*
X0426779Y0053547D02*
X0422279Y0053547D01*
X0518579Y0029647D02*
X0521843Y0032911D01*
X0462200Y0053547D02*
X0462300Y0053647D01*
X0432179Y0053547D02*
X0426779Y0053547D01*
M02*
