M48
INCH,TZ
T01C0.013750
T02C0.029550
T03C0.032000
T04C0.039200
T05C0.043300
T06C0.078700
T07C0.086600
T08C0.145700
%
T01
X9341Y28494
X9370Y27096
X9459Y28996
X9803Y28789
X11188Y37840
X12714Y36590
X12792Y37722
X12798Y36246
X12798Y36974
X12828Y35911
X13005Y35271
X13521Y36807
X13521Y35783
X13521Y35015
X18253Y39038
X18597Y38831
X18686Y40731
X18716Y39333
X30804Y19582
X32949Y22278
X32956Y20218
X33697Y20024
X34931Y38799
X35477Y37303
X36187Y22800
X38114Y14188
X38114Y11235
X38114Y10920
X38114Y10605
X39759Y38799
X45014Y13833
X45014Y13440
X45349Y38799
X49641Y38799
X2808Y36555
X2812Y37559
X2908Y32855
X2908Y31855
X4608Y29355
X5197Y18652
X5236Y15305
X6595Y10772
X7208Y29555
X7913Y8376
X7915Y31152
X9724Y6014
X9948Y33575
X10067Y26404
X10512Y9734
X10717Y10316
X10798Y32325
X10846Y9734
X11181Y9734
X11181Y2352
X11280Y32628
X11458Y29735
X11668Y32505
X11738Y31935
X11798Y38495
X11850Y463
X12008Y26285
X12343Y29764
X12365Y32355
X12717Y27598
X12785Y18325
X12828Y32405
X13478Y32195
X13778Y32415
X13898Y30354
X14045Y9675
X14080Y25070
X14108Y29155
X14291Y24754
X14724Y17078
X14724Y16211
X14908Y26655
X14980Y5758
X15008Y28655
X15039Y25187
X15060Y38142
X15384Y38047
X15413Y40030
X15878Y13585
X17205Y38061
X17539Y7982
X18002Y15817
X18435Y15413
X19134Y38061
X19498Y15365
X19778Y41555
X20394Y38179
X20581Y9734
X21280Y7953
X21968Y40905
X21998Y16535
X22087Y41850
X22371Y16535
X22508Y13495
X22904Y16417
X22913Y8002
X23248Y13575
X23278Y16752
X23278Y41635
X23288Y40105
X23444Y15876
X23593Y7933
X23808Y15365
X23958Y8035
X24428Y15835
X24658Y13185
X24698Y12685
X24868Y11765
X25000Y1345
X25238Y11385
X25258Y14409
X25315Y17057
X25551Y1345
X25945Y23140
X25958Y1285
X26014Y16722
X26073Y38100
X26535Y38079
X26575Y1703
X26929Y1703
X26938Y16875
X27354Y15695
X27400Y16073
X27546Y16755
X27795Y20197
X27828Y22919
X28016Y20738
X28022Y5049
X28178Y22875
X28248Y15305
X28338Y16865
X28468Y17570
X28728Y17305
X28978Y41735
X29043Y17570
X29238Y14223
X29538Y40385
X29608Y15261
X29628Y17285
X29921Y23140
X29971Y39016
X30013Y14223
X30079Y40039
X30482Y38898
X30528Y18455
X30548Y9295
X31043Y39331
X31880Y19134
X32402Y18100
X33661Y39006
X33948Y28125
X33976Y23652
X33998Y33105
X34016Y25187
X34055Y34321
X34114Y32244
X34114Y29724
X34272Y28150
X34331Y30197
X34358Y1552
X34370Y38770
X34547Y24006
X34567Y35079
X34758Y16235
X34758Y15895
X34838Y33061
X34838Y28955
X35039Y25384
X35187Y32569
X35187Y29362
X35394Y34045
X35423Y29952
X35473Y29231
X35512Y39281
X35709Y16644
X35709Y16407
X35984Y34754
X36128Y23795
X36158Y30315
X36166Y31252
X36208Y4915
X36238Y15015
X36402Y31527
X36515Y24272
X36535Y25187
X36638Y31803
X36798Y3625
X37118Y6095
X37188Y20005
X37195Y23740
X37228Y16125
X37244Y15187
X37248Y14365
X37520Y34124
X37638Y15085
X37728Y16095
X37772Y9138
X37781Y12711
X37898Y15095
X37913Y15541
X37998Y35415
X38178Y16115
X38178Y15815
X38318Y6795
X38390Y5306
X38758Y1375
X38908Y16495
X38908Y16215
X39792Y16621
X40426Y16597
X40958Y15045
X41318Y14825
X41850Y14754
X42224Y17028
X42228Y5355
X42421Y16831
X42588Y2245
X42618Y16634
X42678Y5355
X42913Y16900
X43128Y1475
X43218Y5355
X43219Y34474
X43908Y17146
X44724Y1565
X44728Y4615
X45438Y14315
X45459Y10556
X45512Y8888
X45708Y4915
X45769Y17137
X46718Y1585
X46969Y16959
X46969Y16644
X46969Y16289
X48138Y4765
X48740Y22627
X48772Y25910
X48976Y34370
X49016Y19400
X49252Y27707
X49291Y39400
X49646Y16841
X50088Y33565
X50414Y37352
X50738Y39325
X51181Y9281
X51868Y17115
X52348Y17115
X52643Y9911
X52662Y11132
X52662Y10640
X52761Y13258
X52780Y14480
X52804Y19721
X52918Y21271
X53154Y23771
X53174Y22964
X53194Y22137
X53740Y620
X53843Y11959
X53843Y11132
X53843Y10305
X54394Y23378
X54394Y22551
X54394Y21724
X54680Y12712
X55591Y33612
X55633Y21965
X55709Y23258
X56345Y21379
X56351Y13461
X56538Y20391
X56649Y13855
X56954Y21507
X56954Y20391
X57050Y13816
X57151Y13345
X58307Y1014
X60078Y17175
X60103Y19893
X60157Y21604
X60280Y14322
X60578Y17125
X7360Y10789
X7754Y10789
X8148Y10789
X8541Y10789
X8974Y25848
X9368Y25848
X10766Y25848
X11159Y25848
X28479Y19298
X28479Y22605
X28814Y19298
X29030Y22605
X29148Y19298
X29244Y22162
X29454Y22605
X29483Y19298
X29724Y18728
X30005Y22605
X55467Y21021
X55467Y20706
X55467Y13066
X55467Y12751
X57930Y20784
X57930Y20430
X57938Y13816
X57938Y13461
X49921Y35723
X50193Y35087
X49979Y34702
X50620Y34273
X50660Y33937
X50463Y33347
X50187Y33091
X50069Y32560
X50463Y32264
X50660Y32756
X50660Y31575
X50660Y30000
X50187Y30020
X49076Y29728
X48029Y29753
X47707Y30041
X46654Y30116
X45542Y30000
X44754Y30000
X45227Y31004
X45872Y31010
X45812Y32256
X45345Y32166
X45177Y32646
X44754Y32363
X45176Y33531
X44480Y33703
X44439Y34095
X44439Y34489
X45121Y34395
X45431Y34884
X45044Y35201
X45441Y35631
X45830Y35252
X45905Y34528
X45857Y34095
X47173Y35080
X47173Y35709
X48092Y35723
X48947Y35723
X48724Y35081
X48140Y34056
X47747Y32609
X48494Y32560
X48061Y32050
X47472Y31052
X46526Y29095
X45594Y29028
X45148Y29410
X44754Y28819
X45581Y28032
X47580Y27864
X47622Y28270
X48409Y28280
X48674Y28683
X50111Y28606
X49702Y29241
X50542Y29474
X17860Y17285
X18012Y17538
X17854Y17825
X17854Y18180
X18856Y17846
X19130Y17741
X19373Y17954
X18823Y17441
X20302Y18181
X21279Y18180
X21279Y17806
X21279Y17432
X27795Y17313
X26149Y17340
X26978Y17362
X29502Y18084
X28745Y18093
X27966Y18119
X26137Y18167
X27069Y18169
X27771Y18341
X26165Y18515
X29374Y18602
X28059Y18632
X29508Y18907
X25974Y18963
X27521Y19040
X28767Y19051
X26446Y19205
X27457Y19328
X27480Y19622
X27079Y19864
X27885Y19996
X27559Y20049
X28277Y20059
X29360Y20079
X28988Y20129
X28638Y20169
X27980Y20390
X29508Y20699
X27933Y20768
X27509Y21082
X27795Y21201
X28299Y21299
X26836Y21321
X29348Y21364
X27539Y21387
X26165Y21456
X26224Y21752
X27494Y21935
X25995Y21947
X28868Y22274
X28876Y22750
X29045Y22992
X28632Y23002
X29527Y23018
X28547Y17323
X28941Y17323
X26004Y23002
X26476Y23002
X26948Y23002
X27421Y23002
X23436Y17377
X25404Y17377
X22097Y17416
X23514Y18243
X24577Y18400
X25404Y18518
X22097Y18755
X23003Y19148
X23987Y19188
X24617Y19739
X25404Y19778
X22097Y20172
X22806Y20408
X25404Y20487
X23497Y20573
X25050Y20999
X24184Y21510
X25129Y21747
X22097Y21904
X25404Y22219
X22922Y22537
X23790Y22810
X25129Y22810
X24542Y17249
X24936Y17249
X21999Y22928
X22471Y22928
X22943Y22928
X23416Y22928
X10732Y27644
X12189Y27486
X14216Y26581
X11182Y26564
X12740Y26187
X12076Y26149
X14197Y25793
X10693Y25793
X13449Y25754
X11323Y25754
X14216Y25045
X13449Y25045
X12740Y25045
X12031Y25045
X11323Y25045
X12740Y24337
X10693Y24297
X12031Y23904
X11323Y23904
X13809Y23473
X14118Y23471
X13646Y23156
X14197Y22841
X11086Y22801
X12583Y22703
X10732Y22683
X13685Y22644
X14315Y27762
X14000Y27762
X13685Y27762
X13370Y27762
X13055Y27762
X12740Y27762
X12425Y27762
X14315Y27447
X29173Y30423
X29248Y33353
X29292Y31683
X29292Y28317
X29525Y28507
X29581Y29787
X29581Y30098
X29735Y33121
X29963Y31530
X30055Y32228
X30118Y29600
X30255Y28667
X30547Y28395
X30650Y33435
X30696Y32798
X30738Y32421
X30813Y31114
X30817Y29877
X31093Y28356
X31174Y30442
X31299Y29153
X31359Y31102
X31368Y32149
X31477Y30392
X31575Y28317
X32372Y33440
X32540Y29124
X32830Y30929
X33060Y31868
X33061Y30368
X33062Y31161
X33268Y31404
X33288Y28218
X33346Y31063
X33653Y32440
X33861Y30305
X33950Y32389
X34075Y28248
X34091Y31742
X34260Y32395
X34278Y28962
X34351Y30344
X34410Y31344
X34563Y32019
X34567Y29045
X34868Y29778
X34886Y32744
X34894Y33045
X35266Y28238
X35473Y32876
X35498Y33461
X35507Y32577
X35764Y33242
X35902Y31600
X35948Y30753
X36018Y30240
X36018Y29340
X36018Y29039
X36018Y28738
X36018Y28437
X36022Y29832
X36398Y31368
X36654Y31151
X38729Y28196
X38946Y29945
X38986Y33198
X39134Y32785
X39233Y29852
X39272Y32204
X39272Y31929
X39272Y31653
X39449Y32765
X39469Y28189
X39577Y32204
X39577Y31929
X39774Y33179
X29236Y32884
X29236Y32490
X29236Y32096
X29236Y31198
X29236Y30798
X39705Y29872
X39705Y29478
X39705Y29084
X39705Y28691
X49975Y39062
X49499Y39031
X49267Y38841
X49031Y39062
X48794Y38861
X48558Y39062
X48322Y38861
X48086Y39062
X47849Y38861
X47613Y39062
X47377Y38861
X47141Y39062
X46905Y38861
X46668Y39062
X46432Y38861
X46196Y39062
X45960Y38861
X45723Y39062
X45487Y38861
X45251Y39062
X45015Y38861
X44779Y39062
X44542Y38861
X44306Y39062
X44070Y38861
X43834Y39062
X43597Y38861
X43361Y39062
X43125Y38861
X42889Y39062
X42653Y38861
X42416Y39062
X42180Y38861
X41944Y39062
X41708Y38861
X41471Y39062
X41235Y38861
X40999Y39062
X40763Y38861
X40527Y39062
X40290Y38861
X40054Y39062
X39818Y38861
X39582Y39062
X39267Y38904
X39274Y38369
X39701Y38175
X40152Y38165
X40594Y38158
X41067Y38160
X41572Y37113
X41882Y37113
X42129Y37586
X42727Y37383
X43023Y37374
X42866Y37103
X42749Y36421
X43004Y36153
X43101Y35612
X42662Y35612
X42202Y35732
X42202Y35400
X42202Y35105
X42208Y34814
X41878Y34130
X41333Y34134
X41471Y33550
X42101Y33629
X42171Y32797
X42186Y32411
X42534Y32605
X42768Y32805
X43025Y32372
X43718Y32071
X44316Y32054
X44663Y32350
X45438Y32175
X45420Y32730
X45430Y33277
X46138Y33150
X46093Y32351
X46119Y31586
X46141Y30776
X45438Y30736
X45438Y31021
X45438Y31306
X45438Y30435
X44650Y30119
X44663Y29834
X44695Y29536
X44645Y29054
X44241Y29003
X43611Y28525
X43234Y28537
X42298Y28393
X41973Y28993
X41765Y28790
X41783Y29317
X41425Y29364
X41976Y29548
X42182Y30691
X42405Y30920
X42451Y31603
X42742Y31614
X42255Y31822
X41586Y31822
X40720Y32011
X40526Y32225
X40322Y32429
X40120Y32631
X40123Y31818
X40570Y31353
X40583Y30652
X40207Y30750
X40330Y30282
X40532Y29745
X40292Y29519
X40098Y29121
X40290Y28865
X40391Y28482
X40431Y28176
X40133Y28274
X39629Y28476
X39573Y28777
X39629Y29339
X39482Y29584
X39739Y29967
X39757Y30458
X38529Y30850
X38219Y31164
X38401Y31385
X38436Y31905
X36983Y31975
X36983Y31660
X36983Y31345
X36983Y31030
X36983Y30715
X36983Y30400
X36983Y30086
X37122Y29808
X36983Y29534
X36983Y29219
X36983Y28904
X36983Y28589
X36983Y28274
X36983Y27960
X37340Y27872
X37123Y27628
X37432Y26926
X37436Y25991
X37809Y25947
X37811Y26232
X38184Y25991
X38086Y25125
X38401Y25125
X38716Y25125
X39031Y25125
X39345Y25125
X39660Y25125
X39975Y25125
X40290Y25125
X40605Y25125
X41196Y25322
X41550Y25125
X41865Y25125
X42180Y25125
X42495Y25125
X42810Y25125
X43125Y25125
X43440Y25125
X43755Y25125
X44070Y25125
X44582Y25164
X44488Y25819
X44886Y25855
X45231Y25810
X45510Y26112
X45452Y25357
X45763Y25125
X46826Y25125
X47220Y25125
X47581Y25149
X47573Y25612
X47803Y26057
X47884Y26930
X48324Y26707
X47138Y26395
X46675Y26076
X46718Y26927
X46275Y26975
X45790Y27403
X45782Y27688
X45714Y28048
X45711Y28344
X46441Y28245
X46432Y28629
X46441Y28954
X46102Y29282
X46441Y29662
X46425Y30014
X46445Y30309
X46128Y29991
X47123Y29563
X47126Y29119
X48302Y29263
X48282Y29784
X48283Y30173
X47458Y30638
X47158Y30599
X47135Y31052
X47135Y31339
X47135Y31626
X47135Y32042
X47135Y32328
X47117Y32752
X47117Y33060
X47117Y33349
X46893Y34089
X46613Y34184
X46301Y34579
X46599Y34899
X46599Y35465
X46606Y35751
X46515Y36412
X46718Y37157
X46550Y37389
X46850Y37424
X47475Y37588
X47771Y37588
X48397Y37383
X48683Y37383
X48519Y37100
X48415Y36424
X48574Y36155
X48754Y35578
X48278Y35578
X47792Y35732
X47792Y35400
X47792Y35105
X47799Y34814
X48562Y34592
X48558Y34215
X49361Y34207
X49334Y34541
X49629Y34109
X50108Y34066
X50133Y33471
X50133Y33078
X50133Y32684
X50133Y32290
X50133Y31897
X50133Y31503
X50133Y31109
X50133Y30715
X50094Y30086
X50133Y29692
X50133Y29377
X50133Y29003
X50005Y28520
X50094Y28156
X50133Y27526
X49849Y27416
X50133Y26975
X50112Y25813
X50133Y25125
X49109Y28393
X48983Y28688
X48114Y28203
X46122Y27911
X45245Y27463
X45113Y27074
X44775Y27145
X44352Y27467
X43912Y27566
X43171Y27488
X42643Y26552
X42503Y26273
X42432Y25966
X42170Y26656
X41339Y26627
X41147Y26302
X40403Y26648
X40477Y27496
X40183Y27496
X39892Y27496
X38706Y27438
X38676Y26975
X38951Y26444
X38977Y25540
X40087Y25413
X37771Y25125
X37456Y25125
X37141Y25125
X38335Y28029
X38491Y28268
X38263Y28560
X38046Y28987
X38487Y28985
X38585Y29669
X38069Y29958
X37793Y29404
X37782Y30613
X36983Y32290
X36983Y32605
X36983Y32920
X36983Y33235
X36983Y33550
X36983Y33865
X36983Y34180
X36983Y34495
X36983Y34810
X37502Y35424
X37062Y36030
X36983Y36503
X37554Y37101
X37554Y37420
X37554Y37738
X37554Y38056
X37554Y38375
X37918Y38701
X37200Y38744
X38796Y37913
X38663Y37334
X39227Y36424
X39460Y35720
X39446Y35400
X39451Y35112
X39452Y34814
X40239Y34592
X40248Y34179
X40758Y34564
X41048Y34780
X41048Y35353
X41011Y35739
X40407Y35605
X39907Y35612
X40247Y36158
X40126Y36824
X40443Y36824
X40789Y36824
X39779Y36835
X41590Y36424
X43806Y35739
X43804Y35340
X43804Y34901
X43722Y34517
X42995Y34539
X43046Y34257
X44188Y34125
X44512Y34117
X44534Y33625
X44944Y33905
X45015Y34734
X44992Y35105
X45005Y35400
X45015Y35900
X45310Y35637
X45979Y35592
X45779Y36134
X45850Y37010
X45619Y37590
X44909Y37383
X44617Y37383
X44759Y37093
X44636Y36424
X43990Y37544
X43662Y37595
X45657Y34586
X45856Y34180
X47469Y34130
X48003Y33511
X48003Y32750
X48003Y31989
X48002Y31227
X44319Y31280
X44523Y30955
X44361Y30067
X45440Y28967
X44641Y26344
X44197Y26440
X44104Y26710
X43901Y26347
X41395Y27689
X41337Y27972
X39764Y33505
X39385Y33156
X38298Y33301
X38347Y34030
X38659Y33998
X39122Y34130
X37587Y33823
X43909Y32768
X49395Y35312
X49357Y35777
X49639Y36099
X50130Y36138
X49532Y36690
X49798Y37002
X50133Y37684
X50133Y38078
X50113Y38663
X49542Y38471
X49345Y37588
X50005Y34780
X17362Y22067
X17155Y21723
X17657Y21604
X19055Y21634
T02
X32067Y40276
X32382Y40965
X32697Y40276
X33012Y40965
X33327Y40276
X31260Y40876G85X31260Y40364
X34134Y40876G85X34134Y40364
X10693Y27132
X10693Y26660
X14236Y24297
X10693Y23431
T03
X3425Y12531
X3425Y11031
X4331Y12551
X4331Y11051
X5236Y12551
X5236Y11051
X6142Y12551
X6142Y11051
X16457Y11776
X16457Y10276
X18238Y11801
X18238Y10301
X19035Y11793
X19035Y10293
X20315Y11793
X20315Y10293
X21496Y11852
X21496Y10352
X48848Y12470
X48848Y10541
X49990Y12470
X49990Y10541
X44038Y33767
X42460Y33767
X41038Y33767
T04
X1024Y38031
X1024Y33750
X1024Y28406
X1024Y24094
X1024Y20197
X1024Y16053
X1024Y12106
X1024Y8406
X1083Y5719
X6280Y45266
X10561Y45266
X14744Y45266
X19242Y45266
X23888Y45266
X27933Y45266
X32215Y45276
X36398Y45276
X40896Y45276
X45039Y45256
X49587Y45276
X53730Y45256
X58278Y45276
X63346Y38612
X63346Y34331
X63346Y28986
X63346Y24675
X63346Y20778
X63346Y16634
X63346Y12687
X63346Y8986
X63346Y5846
X5197Y26083
X5197Y25083
X5197Y24083
X5197Y23083
X5197Y22083
X5197Y21083
X14026Y12864
X15020Y12864
X16014Y12864
X17008Y12864
X17500Y16358
X18081Y12864
X18839Y16348
X19154Y12854
X19951Y16348
X20217Y12854
X21063Y16348
X21568Y12865
X21850Y39173
X22520Y11132
X22850Y39173
X23850Y39173
X24850Y39173
X25108Y10089
X25850Y39173
X26041Y11895
X26208Y15465
X26211Y10059
X26850Y39173
X27085Y11895
X27283Y10089
X27850Y39173
X28128Y11895
X28593Y10069
X28850Y39173
X29171Y11895
X29675Y10069
X30214Y11895
X30448Y16285
X31053Y10069
X31268Y11895
X31788Y16845
X32116Y10069
X32328Y11895
X33159Y10069
X33368Y11895
X34163Y10069
X34428Y11895
X35630Y15876
X46038Y13475
X55047Y41181
X55047Y40181
X55047Y39181
X55047Y38181
X55047Y37181
X56047Y41181
X56047Y40181
X56047Y39181
X56047Y38181
X56047Y37181
X57047Y41181
X57047Y40181
X57047Y39181
X57047Y38181
X57047Y37181
X59000Y38000
X59000Y37000
X59000Y36000
X59000Y35000
X59000Y34000
X59000Y32760
X59000Y31760
X59000Y30760
X59000Y29760
X59000Y28760
X59000Y27480
X59000Y26480
X59000Y25480
X59000Y24480
X59000Y23480
X60000Y38000
X60000Y37000
X60000Y36000
X60000Y35000
X60000Y34000
X60000Y32760
X60000Y31760
X60000Y30760
X60000Y29760
X60000Y28760
X60000Y27480
X60000Y26480
X60000Y25480
X60000Y24480
X60000Y23480
X61000Y38000
X61000Y37000
X61000Y36000
X61000Y35000
X61000Y34000
X61000Y32760
X61000Y31760
X61000Y30760
X61000Y29760
X61000Y28760
X61000Y27480
X61000Y26480
X61000Y25480
X61000Y24480
X61000Y23480
X50719Y35434
X50719Y30689
X44616Y30709
X44616Y31457
X44616Y33150
X44616Y35611
X44616Y28189
X50719Y28012
X50719Y28741
X36559Y29202
X37347Y30384
X38134Y29202
X29433Y29124
X31433Y29524
X31433Y28724
X49818Y25440
X40739Y26411
X40739Y25611
X38739Y26011
T05
X15531Y7331
X15531Y6331
X15531Y3950
X15531Y2950
X16531Y7331
X16531Y6331
X16531Y3950
X16531Y2950
X17531Y7331
X17531Y6331
X17531Y3950
X17531Y2950
X18531Y7331
X18531Y6331
X18531Y3950
X18531Y2950
X19531Y7331
X19531Y6331
X19531Y3950
X19531Y2950
X20531Y7331
X20531Y6331
X20531Y3950
X20531Y2950
X21531Y7331
X21531Y6331
X21531Y3950
X21531Y2950
X22531Y7331
X22531Y6331
X22531Y3950
X22531Y2950
X23531Y7331
X23531Y6331
X23531Y3950
X23531Y2950
X24531Y7331
X24531Y6331
X24531Y3950
X24531Y2950
X25531Y7331
X25531Y6331
X25531Y3950
X25531Y2950
X26531Y7331
X26531Y6331
X26531Y3950
X26531Y2950
X27531Y7331
X27531Y6331
X27531Y3950
X27531Y2950
X28531Y7331
X28531Y6331
X28531Y3950
X28531Y2950
X29531Y7331
X29531Y6331
X29531Y3950
X29531Y2950
X30531Y7331
X30531Y6331
X30531Y3950
X30531Y2950
X31531Y7331
X31531Y6331
X31531Y3950
X31531Y2950
X32531Y7331
X32531Y6331
X32531Y3950
X32531Y2950
X33531Y7331
X33531Y6331
X33531Y3950
X33531Y2950
X39818Y7331
X39818Y6331
X39818Y3950
X39818Y2950
X40818Y7331
X40818Y6331
X40818Y3950
X40818Y2950
X41818Y7331
X41818Y6331
X41818Y3950
X41818Y2950
X42818Y7331
X42818Y6331
X42818Y3950
X42818Y2950
X43818Y7331
X43818Y6331
X43818Y3950
X43818Y2950
X44818Y7331
X44818Y6331
X44818Y3950
X44818Y2950
X45818Y7331
X45818Y6331
X45818Y3950
X45818Y2950
X46818Y7331
X46818Y6331
X46818Y3950
X46818Y2950
X36382Y33011
X37382Y33011
X38382Y33011
T06
X35709Y41142
X37165Y40276
X37913Y41142
X39370Y40276
X40354Y41142
T07
X8306Y5233
X10137Y7331
X10137Y4131
X11279Y5048
X12420Y7331
X12420Y4131
X49901Y7331
X49901Y4131
X51043Y5048
X52184Y7331
X52184Y4131
X53365Y5048
X54507Y7331
X54507Y4131
X56259Y5233
T08
X7342Y2162
X36672Y2162
X57224Y2162
M30
