G75*
G70*
%OFA0B0*%
%FSLAX25Y25*%
%IPPOS*%
%LPD*%
%AMOC8*
5,1,8,0,0,1.08239X$1,22.5*
%
%AMM152*
21,1,0.041340,0.026770,-0.000000,-0.000000,180.000000*
21,1,0.029130,0.038980,-0.000000,-0.000000,180.000000*
1,1,0.012210,-0.014570,0.013390*
1,1,0.012210,0.014570,0.013390*
1,1,0.012210,0.014570,-0.013390*
1,1,0.012210,-0.014570,-0.013390*
%
%AMM153*
21,1,0.076380,0.036220,-0.000000,-0.000000,270.000000*
21,1,0.061810,0.050790,-0.000000,-0.000000,270.000000*
1,1,0.014570,-0.018110,-0.030910*
1,1,0.014570,-0.018110,0.030910*
1,1,0.014570,0.018110,0.030910*
1,1,0.014570,0.018110,-0.030910*
%
%AMM156*
21,1,0.029130,0.018900,-0.000000,-0.000000,270.000000*
21,1,0.018900,0.029130,-0.000000,-0.000000,270.000000*
1,1,0.010240,-0.009450,-0.009450*
1,1,0.010240,-0.009450,0.009450*
1,1,0.010240,0.009450,0.009450*
1,1,0.010240,0.009450,-0.009450*
%
%AMM157*
21,1,0.025200,0.019680,-0.000000,-0.000000,180.000000*
21,1,0.015750,0.029130,-0.000000,-0.000000,180.000000*
1,1,0.009450,-0.007870,0.009840*
1,1,0.009450,0.007870,0.009840*
1,1,0.009450,0.007870,-0.009840*
1,1,0.009450,-0.007870,-0.009840*
%
%AMM158*
21,1,0.025200,0.019680,-0.000000,-0.000000,90.000000*
21,1,0.015750,0.029130,-0.000000,-0.000000,90.000000*
1,1,0.009450,0.009840,0.007870*
1,1,0.009450,0.009840,-0.007870*
1,1,0.009450,-0.009840,-0.007870*
1,1,0.009450,-0.009840,0.007870*
%
%AMM164*
21,1,0.029130,0.018900,-0.000000,-0.000000,180.000000*
21,1,0.018900,0.029130,-0.000000,-0.000000,180.000000*
1,1,0.010240,-0.009450,0.009450*
1,1,0.010240,0.009450,0.009450*
1,1,0.010240,0.009450,-0.009450*
1,1,0.010240,-0.009450,-0.009450*
%
%AMM165*
21,1,0.111810,0.050390,-0.000000,-0.000000,270.000000*
21,1,0.093700,0.068500,-0.000000,-0.000000,270.000000*
1,1,0.018110,-0.025200,-0.046850*
1,1,0.018110,-0.025200,0.046850*
1,1,0.018110,0.025200,0.046850*
1,1,0.018110,0.025200,-0.046850*
%
%AMM166*
21,1,0.038980,0.026770,-0.000000,-0.000000,90.000000*
21,1,0.026770,0.038980,-0.000000,-0.000000,90.000000*
1,1,0.012210,0.013390,0.013390*
1,1,0.012210,0.013390,-0.013390*
1,1,0.012210,-0.013390,-0.013390*
1,1,0.012210,-0.013390,0.013390*
%
%AMM167*
21,1,0.127560,0.075590,-0.000000,-0.000000,0.000000*
21,1,0.103150,0.100000,-0.000000,-0.000000,0.000000*
1,1,0.024410,0.051580,-0.037800*
1,1,0.024410,-0.051580,-0.037800*
1,1,0.024410,-0.051580,0.037800*
1,1,0.024410,0.051580,0.037800*
%
%AMM168*
21,1,0.123620,0.083460,-0.000000,-0.000000,180.000000*
21,1,0.097240,0.109840,-0.000000,-0.000000,180.000000*
1,1,0.026380,-0.048620,0.041730*
1,1,0.026380,0.048620,0.041730*
1,1,0.026380,0.048620,-0.041730*
1,1,0.026380,-0.048620,-0.041730*
%
%AMM240*
21,1,0.029530,0.026380,-0.000000,-0.000000,90.000000*
21,1,0.020470,0.035430,-0.000000,-0.000000,90.000000*
1,1,0.009060,0.013190,0.010240*
1,1,0.009060,0.013190,-0.010240*
1,1,0.009060,-0.013190,-0.010240*
1,1,0.009060,-0.013190,0.010240*
%
%AMM241*
21,1,0.021650,0.027950,-0.000000,-0.000000,90.000000*
21,1,0.014170,0.035430,-0.000000,-0.000000,90.000000*
1,1,0.007480,0.013980,0.007090*
1,1,0.007480,0.013980,-0.007090*
1,1,0.007480,-0.013980,-0.007090*
1,1,0.007480,-0.013980,0.007090*
%
%AMM244*
21,1,0.031500,0.018900,-0.000000,-0.000000,270.000000*
21,1,0.022840,0.027560,-0.000000,-0.000000,270.000000*
1,1,0.008660,-0.009450,-0.011420*
1,1,0.008660,-0.009450,0.011420*
1,1,0.008660,0.009450,0.011420*
1,1,0.008660,0.009450,-0.011420*
%
%AMM246*
21,1,0.031500,0.018900,-0.000000,-0.000000,0.000000*
21,1,0.022840,0.027560,-0.000000,-0.000000,0.000000*
1,1,0.008660,0.011420,-0.009450*
1,1,0.008660,-0.011420,-0.009450*
1,1,0.008660,-0.011420,0.009450*
1,1,0.008660,0.011420,0.009450*
%
%AMM248*
21,1,0.039370,0.030320,-0.000000,-0.000000,90.000000*
21,1,0.028350,0.041340,-0.000000,-0.000000,90.000000*
1,1,0.011020,0.015160,0.014170*
1,1,0.011020,0.015160,-0.014170*
1,1,0.011020,-0.015160,-0.014170*
1,1,0.011020,-0.015160,0.014170*
%
%AMM25*
21,1,0.025200,0.019680,0.000000,0.000000,0.000000*
21,1,0.015750,0.029130,0.000000,0.000000,0.000000*
1,1,0.009450,0.007870,-0.009840*
1,1,0.009450,-0.007870,-0.009840*
1,1,0.009450,-0.007870,0.009840*
1,1,0.009450,0.007870,0.009840*
%
%AMM251*
21,1,0.031500,0.030710,-0.000000,-0.000000,180.000000*
21,1,0.022050,0.040160,-0.000000,-0.000000,180.000000*
1,1,0.009450,-0.011020,0.015350*
1,1,0.009450,0.011020,0.015350*
1,1,0.009450,0.011020,-0.015350*
1,1,0.009450,-0.011020,-0.015350*
%
%AMM26*
21,1,0.025200,0.019680,0.000000,0.000000,270.000000*
21,1,0.015750,0.029130,0.000000,0.000000,270.000000*
1,1,0.009450,-0.009840,-0.007870*
1,1,0.009450,-0.009840,0.007870*
1,1,0.009450,0.009840,0.007870*
1,1,0.009450,0.009840,-0.007870*
%
%AMM266*
21,1,0.037400,0.026770,-0.000000,-0.000000,270.000000*
21,1,0.026770,0.037400,-0.000000,-0.000000,270.000000*
1,1,0.010630,-0.013390,-0.013390*
1,1,0.010630,-0.013390,0.013390*
1,1,0.010630,0.013390,0.013390*
1,1,0.010630,0.013390,-0.013390*
%
%AMM267*
21,1,0.029530,0.026380,-0.000000,-0.000000,180.000000*
21,1,0.020470,0.035430,-0.000000,-0.000000,180.000000*
1,1,0.009060,-0.010240,0.013190*
1,1,0.009060,0.010240,0.013190*
1,1,0.009060,0.010240,-0.013190*
1,1,0.009060,-0.010240,-0.013190*
%
%AMM268*
21,1,0.021650,0.027950,-0.000000,-0.000000,180.000000*
21,1,0.014170,0.035430,-0.000000,-0.000000,180.000000*
1,1,0.007480,-0.007090,0.013980*
1,1,0.007480,0.007090,0.013980*
1,1,0.007480,0.007090,-0.013980*
1,1,0.007480,-0.007090,-0.013980*
%
%AMM269*
21,1,0.037400,0.026770,-0.000000,-0.000000,180.000000*
21,1,0.026770,0.037400,-0.000000,-0.000000,180.000000*
1,1,0.010630,-0.013390,0.013390*
1,1,0.010630,0.013390,0.013390*
1,1,0.010630,0.013390,-0.013390*
1,1,0.010630,-0.013390,-0.013390*
%
%AMM270*
21,1,0.082680,0.045670,-0.000000,-0.000000,0.000000*
21,1,0.067320,0.061020,-0.000000,-0.000000,0.000000*
1,1,0.015350,0.033660,-0.022840*
1,1,0.015350,-0.033660,-0.022840*
1,1,0.015350,-0.033660,0.022840*
1,1,0.015350,0.033660,0.022840*
%
%AMM271*
21,1,0.062990,0.020470,-0.000000,-0.000000,0.000000*
21,1,0.053940,0.029530,-0.000000,-0.000000,0.000000*
1,1,0.009060,0.026970,-0.010240*
1,1,0.009060,-0.026970,-0.010240*
1,1,0.009060,-0.026970,0.010240*
1,1,0.009060,0.026970,0.010240*
%
%AMM272*
21,1,0.039370,0.030320,-0.000000,-0.000000,0.000000*
21,1,0.028350,0.041340,-0.000000,-0.000000,0.000000*
1,1,0.011020,0.014170,-0.015160*
1,1,0.011020,-0.014170,-0.015160*
1,1,0.011020,-0.014170,0.015160*
1,1,0.011020,0.014170,0.015160*
%
%AMM273*
21,1,0.016540,0.028980,-0.000000,-0.000000,0.000000*
21,1,0.010080,0.035430,-0.000000,-0.000000,0.000000*
1,1,0.006460,0.005040,-0.014490*
1,1,0.006460,-0.005040,-0.014490*
1,1,0.006460,-0.005040,0.014490*
1,1,0.006460,0.005040,0.014490*
%
%AMM274*
21,1,0.074800,0.036220,-0.000000,-0.000000,180.000000*
21,1,0.061810,0.049210,-0.000000,-0.000000,180.000000*
1,1,0.012990,-0.030910,0.018110*
1,1,0.012990,0.030910,0.018110*
1,1,0.012990,0.030910,-0.018110*
1,1,0.012990,-0.030910,-0.018110*
%
%AMM275*
21,1,0.039760,0.026770,-0.000000,-0.000000,180.000000*
21,1,0.029130,0.037400,-0.000000,-0.000000,180.000000*
1,1,0.010630,-0.014570,0.013390*
1,1,0.010630,0.014570,0.013390*
1,1,0.010630,0.014570,-0.013390*
1,1,0.010630,-0.014570,-0.013390*
%
%AMM276*
21,1,0.031500,0.049610,-0.000000,-0.000000,180.000000*
21,1,0.022050,0.059060,-0.000000,-0.000000,180.000000*
1,1,0.009450,-0.011020,0.024800*
1,1,0.009450,0.011020,0.024800*
1,1,0.009450,0.011020,-0.024800*
1,1,0.009450,-0.011020,-0.024800*
%
%AMM277*
21,1,0.074800,0.036220,-0.000000,-0.000000,270.000000*
21,1,0.061810,0.049210,-0.000000,-0.000000,270.000000*
1,1,0.012990,-0.018110,-0.030910*
1,1,0.012990,-0.018110,0.030910*
1,1,0.012990,0.018110,0.030910*
1,1,0.012990,0.018110,-0.030910*
%
%AMM278*
21,1,0.031500,0.030710,-0.000000,-0.000000,270.000000*
21,1,0.022050,0.040160,-0.000000,-0.000000,270.000000*
1,1,0.009450,-0.015350,-0.011020*
1,1,0.009450,-0.015350,0.011020*
1,1,0.009450,0.015350,0.011020*
1,1,0.009450,0.015350,-0.011020*
%
%AMM34*
21,1,0.038980,0.026770,0.000000,0.000000,270.000000*
21,1,0.026770,0.038980,0.000000,0.000000,270.000000*
1,1,0.012210,-0.013390,-0.013390*
1,1,0.012210,-0.013390,0.013390*
1,1,0.012210,0.013390,0.013390*
1,1,0.012210,0.013390,-0.013390*
%
%AMM38*
21,1,0.029130,0.018900,0.000000,0.000000,180.000000*
21,1,0.018900,0.029130,0.000000,0.000000,180.000000*
1,1,0.010240,-0.009450,0.009450*
1,1,0.010240,0.009450,0.009450*
1,1,0.010240,0.009450,-0.009450*
1,1,0.010240,-0.009450,-0.009450*
%
%ADD10R,0.04331X0.04331*%
%ADD11C,0.04331*%
%ADD112M25*%
%ADD113M26*%
%ADD114C,0.02913*%
%ADD115C,0.06457*%
%ADD12O,0.04331X0.09449*%
%ADD126M34*%
%ADD127O,0.02520X0.09213*%
%ADD13O,0.06693X0.07283*%
%ADD132M38*%
%ADD14C,0.10236*%
%ADD15C,0.05906*%
%ADD153C,0.05118*%
%ADD16C,0.14567*%
%ADD164R,0.07500X0.07874*%
%ADD165O,0.07500X0.07874*%
%ADD167C,0.03900*%
%ADD17C,0.08661*%
%ADD171R,0.05709X0.01772*%
%ADD172R,0.04803X0.02559*%
%ADD18C,0.02362*%
%ADD222C,0.04724*%
%ADD223C,0.04294*%
%ADD248R,0.01772X0.01870*%
%ADD250O,0.05354X0.01378*%
%ADD253R,0.09843X0.07087*%
%ADD254R,0.01870X0.01772*%
%ADD256R,0.04331X0.04724*%
%ADD334M152*%
%ADD335M153*%
%ADD338M156*%
%ADD339M157*%
%ADD340M158*%
%ADD346M164*%
%ADD347M165*%
%ADD348M166*%
%ADD349M167*%
%ADD350M168*%
%ADD40C,0.06000*%
%ADD446M240*%
%ADD447M241*%
%ADD450M244*%
%ADD452M246*%
%ADD454M248*%
%ADD457M251*%
%ADD472M266*%
%ADD473M267*%
%ADD474M268*%
%ADD475M269*%
%ADD476M270*%
%ADD477M271*%
%ADD478M272*%
%ADD479M273*%
%ADD480M274*%
%ADD481M275*%
%ADD482M276*%
%ADD483M277*%
%ADD484M278*%
X0000000Y0000000D02*
%LPD*%
G01*
D10*
X0156102Y0306201D03*
D11*
X0159252Y0313091D03*
X0162402Y0306201D03*
X0165551Y0313091D03*
X0168701Y0306201D03*
D12*
X0176772Y0309646D03*
X0148031Y0309646D03*
G36*
G01*
X0153346Y0361024D02*
X0153346Y0366339D01*
G75*
G02*
X0154331Y0367323I0000984J0000000D01*
G01*
X0159055Y0367323D01*
G75*
G02*
X0160039Y0366339I0000000J-000984D01*
G01*
X0160039Y0361024D01*
G75*
G02*
X0159055Y0360039I-000984J0000000D01*
G01*
X0154331Y0360039D01*
G75*
G02*
X0153346Y0361024I0000000J0000984D01*
G01*
G37*
D13*
X0166535Y0363681D03*
X0176378Y0363681D03*
X0186220Y0363681D03*
X0196063Y0363681D03*
D14*
X0545071Y0073315D03*
X0521843Y0073315D03*
X0499008Y0073315D03*
X0533654Y0050480D03*
X0510425Y0050480D03*
X0545071Y0041307D03*
X0521843Y0041307D03*
X0499008Y0041307D03*
D15*
X0468181Y0073315D03*
X0458181Y0073315D03*
X0448181Y0073315D03*
X0438181Y0073315D03*
X0428181Y0073315D03*
X0418181Y0073315D03*
X0408181Y0073315D03*
X0398181Y0073315D03*
X0468181Y0063315D03*
X0458181Y0063315D03*
X0448181Y0063315D03*
X0438181Y0063315D03*
X0428181Y0063315D03*
X0418181Y0063315D03*
X0408181Y0063315D03*
X0398181Y0063315D03*
X0468181Y0039496D03*
X0458181Y0039496D03*
X0448181Y0039496D03*
X0438181Y0039496D03*
X0428181Y0039496D03*
X0418181Y0039496D03*
X0408181Y0039496D03*
X0398181Y0039496D03*
X0468181Y0029496D03*
X0458181Y0029496D03*
X0448181Y0029496D03*
X0438181Y0029496D03*
X0428181Y0029496D03*
X0418181Y0029496D03*
X0408181Y0029496D03*
X0398181Y0029496D03*
X0155307Y0029496D03*
X0165307Y0029496D03*
X0175307Y0029496D03*
X0185307Y0029496D03*
X0195307Y0029496D03*
X0205307Y0029496D03*
X0215307Y0029496D03*
X0225307Y0029496D03*
X0235307Y0029496D03*
X0245307Y0029496D03*
X0255307Y0029496D03*
X0265307Y0029496D03*
X0275307Y0029496D03*
X0285307Y0029496D03*
X0295307Y0029496D03*
X0305307Y0029496D03*
X0315307Y0029496D03*
X0325307Y0029496D03*
X0335307Y0029496D03*
X0155307Y0039496D03*
X0165307Y0039496D03*
X0175307Y0039496D03*
X0185307Y0039496D03*
X0195307Y0039496D03*
X0205307Y0039496D03*
X0215307Y0039496D03*
X0225307Y0039496D03*
X0235307Y0039496D03*
X0245307Y0039496D03*
X0255307Y0039496D03*
X0265307Y0039496D03*
X0275307Y0039496D03*
X0285307Y0039496D03*
X0295307Y0039496D03*
X0305307Y0039496D03*
X0315307Y0039496D03*
X0325307Y0039496D03*
X0335307Y0039496D03*
X0155307Y0063315D03*
X0165307Y0063315D03*
X0175307Y0063315D03*
X0185307Y0063315D03*
X0195307Y0063315D03*
X0205307Y0063315D03*
X0215307Y0063315D03*
X0225307Y0063315D03*
X0235307Y0063315D03*
X0245307Y0063315D03*
X0255307Y0063315D03*
X0265307Y0063315D03*
X0275307Y0063315D03*
X0285307Y0063315D03*
X0295307Y0063315D03*
X0305307Y0063315D03*
X0315307Y0063315D03*
X0325307Y0063315D03*
X0335307Y0063315D03*
X0155307Y0073315D03*
X0165307Y0073315D03*
X0175307Y0073315D03*
X0185307Y0073315D03*
X0195307Y0073315D03*
X0205307Y0073315D03*
X0215307Y0073315D03*
X0225307Y0073315D03*
X0235307Y0073315D03*
X0245307Y0073315D03*
X0255307Y0073315D03*
X0265307Y0073315D03*
X0275307Y0073315D03*
X0285307Y0073315D03*
X0295307Y0073315D03*
X0305307Y0073315D03*
X0315307Y0073315D03*
X0325307Y0073315D03*
X0335307Y0073315D03*
D14*
X0124205Y0073315D03*
X0101370Y0073315D03*
X0112787Y0050480D03*
X0124205Y0041307D03*
X0101370Y0041307D03*
D16*
X0572236Y0021622D03*
D17*
X0562591Y0052331D03*
D16*
X0366724Y0021622D03*
D17*
X0083063Y0052331D03*
D16*
X0073417Y0021622D03*
D15*
X0446161Y0281890D03*
X0446161Y0307087D03*
X0446161Y0314567D03*
X0446161Y0331496D03*
D18*
X0444390Y0340945D03*
X0444390Y0344882D03*
D15*
X0446161Y0356102D03*
X0507185Y0280118D03*
X0507185Y0287402D03*
X0507185Y0306890D03*
X0507185Y0354331D03*
D40*
X0177658Y0268110D03*
X0196949Y0268110D03*
X0521949Y0173819D03*
X0521949Y0193110D03*
D18*
X0269488Y0230020D03*
X0274213Y0230020D03*
X0264764Y0230020D03*
X0260039Y0230020D03*
X0285472Y0173228D03*
X0289409Y0173228D03*
D40*
X0512106Y0173819D03*
X0512106Y0193110D03*
D14*
X0544882Y0072854D03*
X0521654Y0072854D03*
X0498819Y0072854D03*
X0533465Y0050020D03*
X0510236Y0050020D03*
X0544882Y0040846D03*
X0521654Y0040846D03*
X0498819Y0040846D03*
D15*
X0467992Y0072854D03*
X0457992Y0072854D03*
X0447992Y0072854D03*
X0437992Y0072854D03*
X0427992Y0072854D03*
X0417992Y0072854D03*
X0407992Y0072854D03*
X0397992Y0072854D03*
X0467992Y0062854D03*
X0457992Y0062854D03*
X0447992Y0062854D03*
X0437992Y0062854D03*
X0427992Y0062854D03*
X0417992Y0062854D03*
X0407992Y0062854D03*
X0397992Y0062854D03*
X0467992Y0039035D03*
X0457992Y0039035D03*
X0447992Y0039035D03*
X0437992Y0039035D03*
X0427992Y0039035D03*
X0417992Y0039035D03*
X0407992Y0039035D03*
X0397992Y0039035D03*
X0467992Y0029035D03*
X0457992Y0029035D03*
X0447992Y0029035D03*
X0437992Y0029035D03*
X0427992Y0029035D03*
X0417992Y0029035D03*
X0407992Y0029035D03*
X0397992Y0029035D03*
X0155118Y0029035D03*
X0165118Y0029035D03*
X0175118Y0029035D03*
X0185118Y0029035D03*
X0195118Y0029035D03*
X0205118Y0029035D03*
X0215118Y0029035D03*
X0225118Y0029035D03*
X0235118Y0029035D03*
X0245118Y0029035D03*
X0255118Y0029035D03*
X0265118Y0029035D03*
X0275118Y0029035D03*
X0285118Y0029035D03*
X0295118Y0029035D03*
X0305118Y0029035D03*
X0315118Y0029035D03*
X0325118Y0029035D03*
X0335118Y0029035D03*
X0155118Y0039035D03*
X0165118Y0039035D03*
X0175118Y0039035D03*
X0185118Y0039035D03*
X0195118Y0039035D03*
X0205118Y0039035D03*
X0215118Y0039035D03*
X0225118Y0039035D03*
X0235118Y0039035D03*
X0245118Y0039035D03*
X0255118Y0039035D03*
X0265118Y0039035D03*
X0275118Y0039035D03*
X0285118Y0039035D03*
X0295118Y0039035D03*
X0305118Y0039035D03*
X0315118Y0039035D03*
X0325118Y0039035D03*
X0335118Y0039035D03*
X0155118Y0062854D03*
X0165118Y0062854D03*
X0175118Y0062854D03*
X0185118Y0062854D03*
X0195118Y0062854D03*
X0205118Y0062854D03*
X0215118Y0062854D03*
X0225118Y0062854D03*
X0235118Y0062854D03*
X0245118Y0062854D03*
X0255118Y0062854D03*
X0265118Y0062854D03*
X0275118Y0062854D03*
X0285118Y0062854D03*
X0295118Y0062854D03*
X0305118Y0062854D03*
X0315118Y0062854D03*
X0325118Y0062854D03*
X0335118Y0062854D03*
X0155118Y0072854D03*
X0165118Y0072854D03*
X0175118Y0072854D03*
X0185118Y0072854D03*
X0195118Y0072854D03*
X0205118Y0072854D03*
X0215118Y0072854D03*
X0225118Y0072854D03*
X0235118Y0072854D03*
X0245118Y0072854D03*
X0255118Y0072854D03*
X0265118Y0072854D03*
X0275118Y0072854D03*
X0285118Y0072854D03*
X0295118Y0072854D03*
X0305118Y0072854D03*
X0315118Y0072854D03*
X0325118Y0072854D03*
X0335118Y0072854D03*
D14*
X0124016Y0072854D03*
X0101181Y0072854D03*
X0112598Y0050020D03*
X0124016Y0040846D03*
X0101181Y0040846D03*
D16*
X0572047Y0021161D03*
D17*
X0562402Y0051870D03*
D16*
X0366535Y0021161D03*
D17*
X0082874Y0051870D03*
D16*
X0073228Y0021161D03*
D18*
X0471309Y0367395D03*
X0471014Y0381371D03*
X0475640Y0384324D03*
X0472195Y0386391D03*
D40*
X0435335Y0362776D03*
X0435335Y0377776D03*
D18*
X0229429Y0229282D03*
X0234154Y0229282D03*
X0224705Y0229282D03*
X0219980Y0229282D03*
X0245413Y0172490D03*
X0249350Y0172490D03*
X0212795Y0181791D03*
X0212795Y0178051D03*
X0212795Y0174311D03*
X0178543Y0178248D03*
X0178543Y0181791D03*
G36*
G01*
X0425925Y0250984D02*
X0428996Y0250984D01*
G75*
G02*
X0429272Y0250709I0000000J-000276D01*
G01*
X0429272Y0248504D01*
G75*
G02*
X0428996Y0248228I-000276J0000000D01*
G01*
X0425925Y0248228D01*
G75*
G02*
X0425650Y0248504I0000000J0000276D01*
G01*
X0425650Y0250709D01*
G75*
G02*
X0425925Y0250984I0000276J0000000D01*
G01*
G37*
G36*
G01*
X0425925Y0244685D02*
X0428996Y0244685D01*
G75*
G02*
X0429272Y0244409I0000000J-000276D01*
G01*
X0429272Y0242205D01*
G75*
G02*
X0428996Y0241929I-000276J0000000D01*
G01*
X0425925Y0241929D01*
G75*
G02*
X0425650Y0242205I0000000J0000276D01*
G01*
X0425650Y0244409D01*
G75*
G02*
X0425925Y0244685I0000276J0000000D01*
G01*
G37*
G36*
G01*
X0402303Y0250984D02*
X0405374Y0250984D01*
G75*
G02*
X0405650Y0250709I0000000J-000276D01*
G01*
X0405650Y0248504D01*
G75*
G02*
X0405374Y0248228I-000276J0000000D01*
G01*
X0402303Y0248228D01*
G75*
G02*
X0402028Y0248504I0000000J0000276D01*
G01*
X0402028Y0250709D01*
G75*
G02*
X0402303Y0250984I0000276J0000000D01*
G01*
G37*
G36*
G01*
X0402303Y0244685D02*
X0405374Y0244685D01*
G75*
G02*
X0405650Y0244409I0000000J-000276D01*
G01*
X0405650Y0242205D01*
G75*
G02*
X0405374Y0241929I-000276J0000000D01*
G01*
X0402303Y0241929D01*
G75*
G02*
X0402028Y0242205I0000000J0000276D01*
G01*
X0402028Y0244409D01*
G75*
G02*
X0402303Y0244685I0000276J0000000D01*
G01*
G37*
G36*
G01*
X0307677Y0203593D02*
X0318898Y0203593D01*
G75*
G02*
X0319882Y0202608I0000000J-000984D01*
G01*
X0319882Y0199754D01*
G75*
G02*
X0318898Y0198770I-000984J0000000D01*
G01*
X0307677Y0198770D01*
G75*
G02*
X0306693Y0199754I0000000J0000984D01*
G01*
X0306693Y0202608D01*
G75*
G02*
X0307677Y0203593I0000984J0000000D01*
G01*
G37*
G36*
G01*
X0307677Y0180266D02*
X0318898Y0180266D01*
G75*
G02*
X0319882Y0179282I0000000J-000984D01*
G01*
X0319882Y0176427D01*
G75*
G02*
X0318898Y0175443I-000984J0000000D01*
G01*
X0307677Y0175443D01*
G75*
G02*
X0306693Y0176427I0000000J0000984D01*
G01*
X0306693Y0179282D01*
G75*
G02*
X0307677Y0180266I0000984J0000000D01*
G01*
G37*
G36*
G01*
X0331437Y0250984D02*
X0334508Y0250984D01*
G75*
G02*
X0334783Y0250709I0000000J-000276D01*
G01*
X0334783Y0248504D01*
G75*
G02*
X0334508Y0248228I-000276J0000000D01*
G01*
X0331437Y0248228D01*
G75*
G02*
X0331161Y0248504I0000000J0000276D01*
G01*
X0331161Y0250709D01*
G75*
G02*
X0331437Y0250984I0000276J0000000D01*
G01*
G37*
G36*
G01*
X0331437Y0244685D02*
X0334508Y0244685D01*
G75*
G02*
X0334783Y0244409I0000000J-000276D01*
G01*
X0334783Y0242205D01*
G75*
G02*
X0334508Y0241929I-000276J0000000D01*
G01*
X0331437Y0241929D01*
G75*
G02*
X0331161Y0242205I0000000J0000276D01*
G01*
X0331161Y0244409D01*
G75*
G02*
X0331437Y0244685I0000276J0000000D01*
G01*
G37*
G36*
G01*
X0339173Y0203297D02*
X0350394Y0203297D01*
G75*
G02*
X0351378Y0202313I0000000J-000984D01*
G01*
X0351378Y0199459D01*
G75*
G02*
X0350394Y0198474I-000984J0000000D01*
G01*
X0339173Y0198474D01*
G75*
G02*
X0338189Y0199459I0000000J0000984D01*
G01*
X0338189Y0202313D01*
G75*
G02*
X0339173Y0203297I0000984J0000000D01*
G01*
G37*
G36*
G01*
X0339173Y0179970D02*
X0350394Y0179970D01*
G75*
G02*
X0351378Y0178986I0000000J-000984D01*
G01*
X0351378Y0176132D01*
G75*
G02*
X0350394Y0175148I-000984J0000000D01*
G01*
X0339173Y0175148D01*
G75*
G02*
X0338189Y0176132I0000000J0000984D01*
G01*
X0338189Y0178986D01*
G75*
G02*
X0339173Y0179970I0000984J0000000D01*
G01*
G37*
G36*
G01*
X0436417Y0215920D02*
X0436417Y0217938D01*
G75*
G02*
X0437279Y0218799I0000861J0000000D01*
G01*
X0439001Y0218799D01*
G75*
G02*
X0439862Y0217938I0000000J-000861D01*
G01*
X0439862Y0215920D01*
G75*
G02*
X0439001Y0215059I-000861J0000000D01*
G01*
X0437279Y0215059D01*
G75*
G02*
X0436417Y0215920I0000000J0000861D01*
G01*
G37*
G36*
G01*
X0442618Y0215920D02*
X0442618Y0217938D01*
G75*
G02*
X0443479Y0218799I0000861J0000000D01*
G01*
X0445202Y0218799D01*
G75*
G02*
X0446063Y0217938I0000000J-000861D01*
G01*
X0446063Y0215920D01*
G75*
G02*
X0445202Y0215059I-000861J0000000D01*
G01*
X0443479Y0215059D01*
G75*
G02*
X0442618Y0215920I0000000J0000861D01*
G01*
G37*
G36*
G01*
X0325532Y0250984D02*
X0328602Y0250984D01*
G75*
G02*
X0328878Y0250709I0000000J-000276D01*
G01*
X0328878Y0248504D01*
G75*
G02*
X0328602Y0248228I-000276J0000000D01*
G01*
X0325532Y0248228D01*
G75*
G02*
X0325256Y0248504I0000000J0000276D01*
G01*
X0325256Y0250709D01*
G75*
G02*
X0325532Y0250984I0000276J0000000D01*
G01*
G37*
G36*
G01*
X0325532Y0244685D02*
X0328602Y0244685D01*
G75*
G02*
X0328878Y0244409I0000000J-000276D01*
G01*
X0328878Y0242205D01*
G75*
G02*
X0328602Y0241929I-000276J0000000D01*
G01*
X0325532Y0241929D01*
G75*
G02*
X0325256Y0242205I0000000J0000276D01*
G01*
X0325256Y0244409D01*
G75*
G02*
X0325532Y0244685I0000276J0000000D01*
G01*
G37*
G36*
G01*
X0334902Y0238386D02*
X0338917Y0238386D01*
G75*
G02*
X0339272Y0238032I0000000J-000354D01*
G01*
X0339272Y0235197D01*
G75*
G02*
X0338917Y0234843I-000354J0000000D01*
G01*
X0334902Y0234843D01*
G75*
G02*
X0334547Y0235197I0000000J0000354D01*
G01*
X0334547Y0238032D01*
G75*
G02*
X0334902Y0238386I0000354J0000000D01*
G01*
G37*
G36*
G01*
X0334902Y0225394D02*
X0338917Y0225394D01*
G75*
G02*
X0339272Y0225039I0000000J-000354D01*
G01*
X0339272Y0222205D01*
G75*
G02*
X0338917Y0221850I-000354J0000000D01*
G01*
X0334902Y0221850D01*
G75*
G02*
X0334547Y0222205I0000000J0000354D01*
G01*
X0334547Y0225039D01*
G75*
G02*
X0334902Y0225394I0000354J0000000D01*
G01*
G37*
G36*
G01*
X0540098Y0378937D02*
X0543169Y0378937D01*
G75*
G02*
X0543445Y0378661I0000000J-000276D01*
G01*
X0543445Y0376457D01*
G75*
G02*
X0543169Y0376181I-000276J0000000D01*
G01*
X0540098Y0376181D01*
G75*
G02*
X0539823Y0376457I0000000J0000276D01*
G01*
X0539823Y0378661D01*
G75*
G02*
X0540098Y0378937I0000276J0000000D01*
G01*
G37*
G36*
G01*
X0540098Y0372638D02*
X0543169Y0372638D01*
G75*
G02*
X0543445Y0372362I0000000J-000276D01*
G01*
X0543445Y0370158D01*
G75*
G02*
X0543169Y0369882I-000276J0000000D01*
G01*
X0540098Y0369882D01*
G75*
G02*
X0539823Y0370158I0000000J0000276D01*
G01*
X0539823Y0372362D01*
G75*
G02*
X0540098Y0372638I0000276J0000000D01*
G01*
G37*
G36*
G01*
X0349154Y0250984D02*
X0352224Y0250984D01*
G75*
G02*
X0352500Y0250709I0000000J-000276D01*
G01*
X0352500Y0248504D01*
G75*
G02*
X0352224Y0248228I-000276J0000000D01*
G01*
X0349154Y0248228D01*
G75*
G02*
X0348878Y0248504I0000000J0000276D01*
G01*
X0348878Y0250709D01*
G75*
G02*
X0349154Y0250984I0000276J0000000D01*
G01*
G37*
G36*
G01*
X0349154Y0244685D02*
X0352224Y0244685D01*
G75*
G02*
X0352500Y0244409I0000000J-000276D01*
G01*
X0352500Y0242205D01*
G75*
G02*
X0352224Y0241929I-000276J0000000D01*
G01*
X0349154Y0241929D01*
G75*
G02*
X0348878Y0242205I0000000J0000276D01*
G01*
X0348878Y0244409D01*
G75*
G02*
X0349154Y0244685I0000276J0000000D01*
G01*
G37*
G36*
G01*
X0313720Y0250984D02*
X0316791Y0250984D01*
G75*
G02*
X0317067Y0250709I0000000J-000276D01*
G01*
X0317067Y0248504D01*
G75*
G02*
X0316791Y0248228I-000276J0000000D01*
G01*
X0313720Y0248228D01*
G75*
G02*
X0313445Y0248504I0000000J0000276D01*
G01*
X0313445Y0250709D01*
G75*
G02*
X0313720Y0250984I0000276J0000000D01*
G01*
G37*
G36*
G01*
X0313720Y0244685D02*
X0316791Y0244685D01*
G75*
G02*
X0317067Y0244409I0000000J-000276D01*
G01*
X0317067Y0242205D01*
G75*
G02*
X0316791Y0241929I-000276J0000000D01*
G01*
X0313720Y0241929D01*
G75*
G02*
X0313445Y0242205I0000000J0000276D01*
G01*
X0313445Y0244409D01*
G75*
G02*
X0313720Y0244685I0000276J0000000D01*
G01*
G37*
G36*
G01*
X0303406Y0238976D02*
X0307421Y0238976D01*
G75*
G02*
X0307776Y0238622I0000000J-000354D01*
G01*
X0307776Y0235787D01*
G75*
G02*
X0307421Y0235433I-000354J0000000D01*
G01*
X0303406Y0235433D01*
G75*
G02*
X0303051Y0235787I0000000J0000354D01*
G01*
X0303051Y0238622D01*
G75*
G02*
X0303406Y0238976I0000354J0000000D01*
G01*
G37*
G36*
G01*
X0303406Y0225984D02*
X0307421Y0225984D01*
G75*
G02*
X0307776Y0225630I0000000J-000354D01*
G01*
X0307776Y0222795D01*
G75*
G02*
X0307421Y0222441I-000354J0000000D01*
G01*
X0303406Y0222441D01*
G75*
G02*
X0303051Y0222795I0000000J0000354D01*
G01*
X0303051Y0225630D01*
G75*
G02*
X0303406Y0225984I0000354J0000000D01*
G01*
G37*
G36*
G01*
X0396398Y0250984D02*
X0399469Y0250984D01*
G75*
G02*
X0399744Y0250709I0000000J-000276D01*
G01*
X0399744Y0248504D01*
G75*
G02*
X0399469Y0248228I-000276J0000000D01*
G01*
X0396398Y0248228D01*
G75*
G02*
X0396122Y0248504I0000000J0000276D01*
G01*
X0396122Y0250709D01*
G75*
G02*
X0396398Y0250984I0000276J0000000D01*
G01*
G37*
G36*
G01*
X0396398Y0244685D02*
X0399469Y0244685D01*
G75*
G02*
X0399744Y0244409I0000000J-000276D01*
G01*
X0399744Y0242205D01*
G75*
G02*
X0399469Y0241929I-000276J0000000D01*
G01*
X0396398Y0241929D01*
G75*
G02*
X0396122Y0242205I0000000J0000276D01*
G01*
X0396122Y0244409D01*
G75*
G02*
X0396398Y0244685I0000276J0000000D01*
G01*
G37*
G36*
G01*
X0301909Y0250984D02*
X0304980Y0250984D01*
G75*
G02*
X0305256Y0250709I0000000J-000276D01*
G01*
X0305256Y0248504D01*
G75*
G02*
X0304980Y0248228I-000276J0000000D01*
G01*
X0301909Y0248228D01*
G75*
G02*
X0301634Y0248504I0000000J0000276D01*
G01*
X0301634Y0250709D01*
G75*
G02*
X0301909Y0250984I0000276J0000000D01*
G01*
G37*
G36*
G01*
X0301909Y0244685D02*
X0304980Y0244685D01*
G75*
G02*
X0305256Y0244409I0000000J-000276D01*
G01*
X0305256Y0242205D01*
G75*
G02*
X0304980Y0241929I-000276J0000000D01*
G01*
X0301909Y0241929D01*
G75*
G02*
X0301634Y0242205I0000000J0000276D01*
G01*
X0301634Y0244409D01*
G75*
G02*
X0301909Y0244685I0000276J0000000D01*
G01*
G37*
G36*
G01*
X0467894Y0203445D02*
X0479114Y0203445D01*
G75*
G02*
X0480098Y0202461I0000000J-000984D01*
G01*
X0480098Y0199606D01*
G75*
G02*
X0479114Y0198622I-000984J0000000D01*
G01*
X0467894Y0198622D01*
G75*
G02*
X0466909Y0199606I0000000J0000984D01*
G01*
X0466909Y0202461D01*
G75*
G02*
X0467894Y0203445I0000984J0000000D01*
G01*
G37*
G36*
G01*
X0467894Y0180118D02*
X0479114Y0180118D01*
G75*
G02*
X0480098Y0179134I0000000J-000984D01*
G01*
X0480098Y0176280D01*
G75*
G02*
X0479114Y0175295I-000984J0000000D01*
G01*
X0467894Y0175295D01*
G75*
G02*
X0466909Y0176280I0000000J0000984D01*
G01*
X0466909Y0179134D01*
G75*
G02*
X0467894Y0180118I0000984J0000000D01*
G01*
G37*
G36*
G01*
X0306496Y0215920D02*
X0306496Y0217938D01*
G75*
G02*
X0307357Y0218799I0000861J0000000D01*
G01*
X0309080Y0218799D01*
G75*
G02*
X0309941Y0217938I0000000J-000861D01*
G01*
X0309941Y0215920D01*
G75*
G02*
X0309080Y0215059I-000861J0000000D01*
G01*
X0307357Y0215059D01*
G75*
G02*
X0306496Y0215920I0000000J0000861D01*
G01*
G37*
G36*
G01*
X0312697Y0215920D02*
X0312697Y0217938D01*
G75*
G02*
X0313558Y0218799I0000861J0000000D01*
G01*
X0315281Y0218799D01*
G75*
G02*
X0316142Y0217938I0000000J-000861D01*
G01*
X0316142Y0215920D01*
G75*
G02*
X0315281Y0215059I-000861J0000000D01*
G01*
X0313558Y0215059D01*
G75*
G02*
X0312697Y0215920I0000000J0000861D01*
G01*
G37*
G36*
G01*
X0404134Y0203445D02*
X0415354Y0203445D01*
G75*
G02*
X0416339Y0202461I0000000J-000984D01*
G01*
X0416339Y0199606D01*
G75*
G02*
X0415354Y0198622I-000984J0000000D01*
G01*
X0404134Y0198622D01*
G75*
G02*
X0403150Y0199606I0000000J0000984D01*
G01*
X0403150Y0202461D01*
G75*
G02*
X0404134Y0203445I0000984J0000000D01*
G01*
G37*
G36*
G01*
X0404134Y0180118D02*
X0415354Y0180118D01*
G75*
G02*
X0416339Y0179134I0000000J-000984D01*
G01*
X0416339Y0176280D01*
G75*
G02*
X0415354Y0175295I-000984J0000000D01*
G01*
X0404134Y0175295D01*
G75*
G02*
X0403150Y0176280I0000000J0000984D01*
G01*
X0403150Y0179134D01*
G75*
G02*
X0404134Y0180118I0000984J0000000D01*
G01*
G37*
G36*
G01*
X0445768Y0210591D02*
X0445768Y0207520D01*
G75*
G02*
X0445492Y0207244I-000276J0000000D01*
G01*
X0443287Y0207244D01*
G75*
G02*
X0443012Y0207520I0000000J0000276D01*
G01*
X0443012Y0210591D01*
G75*
G02*
X0443287Y0210866I0000276J0000000D01*
G01*
X0445492Y0210866D01*
G75*
G02*
X0445768Y0210591I0000000J-000276D01*
G01*
G37*
G36*
G01*
X0439469Y0210591D02*
X0439469Y0207520D01*
G75*
G02*
X0439193Y0207244I-000276J0000000D01*
G01*
X0436988Y0207244D01*
G75*
G02*
X0436713Y0207520I0000000J0000276D01*
G01*
X0436713Y0210591D01*
G75*
G02*
X0436988Y0210866I0000276J0000000D01*
G01*
X0439193Y0210866D01*
G75*
G02*
X0439469Y0210591I0000000J-000276D01*
G01*
G37*
G36*
G01*
X0551909Y0378937D02*
X0554980Y0378937D01*
G75*
G02*
X0555256Y0378661I0000000J-000276D01*
G01*
X0555256Y0376457D01*
G75*
G02*
X0554980Y0376181I-000276J0000000D01*
G01*
X0551909Y0376181D01*
G75*
G02*
X0551634Y0376457I0000000J0000276D01*
G01*
X0551634Y0378661D01*
G75*
G02*
X0551909Y0378937I0000276J0000000D01*
G01*
G37*
G36*
G01*
X0551909Y0372638D02*
X0554980Y0372638D01*
G75*
G02*
X0555256Y0372362I0000000J-000276D01*
G01*
X0555256Y0370158D01*
G75*
G02*
X0554980Y0369882I-000276J0000000D01*
G01*
X0551909Y0369882D01*
G75*
G02*
X0551634Y0370158I0000000J0000276D01*
G01*
X0551634Y0372362D01*
G75*
G02*
X0551909Y0372638I0000276J0000000D01*
G01*
G37*
G36*
G01*
X0404921Y0215920D02*
X0404921Y0217938D01*
G75*
G02*
X0405782Y0218799I0000861J0000000D01*
G01*
X0407505Y0218799D01*
G75*
G02*
X0408366Y0217938I0000000J-000861D01*
G01*
X0408366Y0215920D01*
G75*
G02*
X0407505Y0215059I-000861J0000000D01*
G01*
X0405782Y0215059D01*
G75*
G02*
X0404921Y0215920I0000000J0000861D01*
G01*
G37*
G36*
G01*
X0411122Y0215920D02*
X0411122Y0217938D01*
G75*
G02*
X0411983Y0218799I0000861J0000000D01*
G01*
X0413706Y0218799D01*
G75*
G02*
X0414567Y0217938I0000000J-000861D01*
G01*
X0414567Y0215920D01*
G75*
G02*
X0413706Y0215059I-000861J0000000D01*
G01*
X0411983Y0215059D01*
G75*
G02*
X0411122Y0215920I0000000J0000861D01*
G01*
G37*
G36*
G01*
X0372776Y0250984D02*
X0375846Y0250984D01*
G75*
G02*
X0376122Y0250709I0000000J-000276D01*
G01*
X0376122Y0248504D01*
G75*
G02*
X0375846Y0248228I-000276J0000000D01*
G01*
X0372776Y0248228D01*
G75*
G02*
X0372500Y0248504I0000000J0000276D01*
G01*
X0372500Y0250709D01*
G75*
G02*
X0372776Y0250984I0000276J0000000D01*
G01*
G37*
G36*
G01*
X0372776Y0244685D02*
X0375846Y0244685D01*
G75*
G02*
X0376122Y0244409I0000000J-000276D01*
G01*
X0376122Y0242205D01*
G75*
G02*
X0375846Y0241929I-000276J0000000D01*
G01*
X0372776Y0241929D01*
G75*
G02*
X0372500Y0242205I0000000J0000276D01*
G01*
X0372500Y0244409D01*
G75*
G02*
X0372776Y0244685I0000276J0000000D01*
G01*
G37*
G36*
G01*
X0337343Y0250984D02*
X0340413Y0250984D01*
G75*
G02*
X0340689Y0250709I0000000J-000276D01*
G01*
X0340689Y0248504D01*
G75*
G02*
X0340413Y0248228I-000276J0000000D01*
G01*
X0337343Y0248228D01*
G75*
G02*
X0337067Y0248504I0000000J0000276D01*
G01*
X0337067Y0250709D01*
G75*
G02*
X0337343Y0250984I0000276J0000000D01*
G01*
G37*
G36*
G01*
X0337343Y0244685D02*
X0340413Y0244685D01*
G75*
G02*
X0340689Y0244409I0000000J-000276D01*
G01*
X0340689Y0242205D01*
G75*
G02*
X0340413Y0241929I-000276J0000000D01*
G01*
X0337343Y0241929D01*
G75*
G02*
X0337067Y0242205I0000000J0000276D01*
G01*
X0337067Y0244409D01*
G75*
G02*
X0337343Y0244685I0000276J0000000D01*
G01*
G37*
G36*
G01*
X0339961Y0215920D02*
X0339961Y0217938D01*
G75*
G02*
X0340822Y0218799I0000861J0000000D01*
G01*
X0342544Y0218799D01*
G75*
G02*
X0343406Y0217938I0000000J-000861D01*
G01*
X0343406Y0215920D01*
G75*
G02*
X0342544Y0215059I-000861J0000000D01*
G01*
X0340822Y0215059D01*
G75*
G02*
X0339961Y0215920I0000000J0000861D01*
G01*
G37*
G36*
G01*
X0346161Y0215920D02*
X0346161Y0217938D01*
G75*
G02*
X0347023Y0218799I0000861J0000000D01*
G01*
X0348745Y0218799D01*
G75*
G02*
X0349606Y0217938I0000000J-000861D01*
G01*
X0349606Y0215920D01*
G75*
G02*
X0348745Y0215059I-000861J0000000D01*
G01*
X0347023Y0215059D01*
G75*
G02*
X0346161Y0215920I0000000J0000861D01*
G01*
G37*
G36*
G01*
X0370669Y0203445D02*
X0381890Y0203445D01*
G75*
G02*
X0382874Y0202461I0000000J-000984D01*
G01*
X0382874Y0199606D01*
G75*
G02*
X0381890Y0198622I-000984J0000000D01*
G01*
X0370669Y0198622D01*
G75*
G02*
X0369685Y0199606I0000000J0000984D01*
G01*
X0369685Y0202461D01*
G75*
G02*
X0370669Y0203445I0000984J0000000D01*
G01*
G37*
G36*
G01*
X0370669Y0180118D02*
X0381890Y0180118D01*
G75*
G02*
X0382874Y0179134I0000000J-000984D01*
G01*
X0382874Y0176280D01*
G75*
G02*
X0381890Y0175295I-000984J0000000D01*
G01*
X0370669Y0175295D01*
G75*
G02*
X0369685Y0176280I0000000J0000984D01*
G01*
X0369685Y0179134D01*
G75*
G02*
X0370669Y0180118I0000984J0000000D01*
G01*
G37*
G36*
G01*
X0371457Y0215920D02*
X0371457Y0217938D01*
G75*
G02*
X0372318Y0218799I0000861J0000000D01*
G01*
X0374040Y0218799D01*
G75*
G02*
X0374902Y0217938I0000000J-000861D01*
G01*
X0374902Y0215920D01*
G75*
G02*
X0374040Y0215059I-000861J0000000D01*
G01*
X0372318Y0215059D01*
G75*
G02*
X0371457Y0215920I0000000J0000861D01*
G01*
G37*
G36*
G01*
X0377658Y0215920D02*
X0377658Y0217938D01*
G75*
G02*
X0378519Y0218799I0000861J0000000D01*
G01*
X0380241Y0218799D01*
G75*
G02*
X0381102Y0217938I0000000J-000861D01*
G01*
X0381102Y0215920D01*
G75*
G02*
X0380241Y0215059I-000861J0000000D01*
G01*
X0378519Y0215059D01*
G75*
G02*
X0377658Y0215920I0000000J0000861D01*
G01*
G37*
G36*
G01*
X0414114Y0250984D02*
X0417185Y0250984D01*
G75*
G02*
X0417461Y0250709I0000000J-000276D01*
G01*
X0417461Y0248504D01*
G75*
G02*
X0417185Y0248228I-000276J0000000D01*
G01*
X0414114Y0248228D01*
G75*
G02*
X0413839Y0248504I0000000J0000276D01*
G01*
X0413839Y0250709D01*
G75*
G02*
X0414114Y0250984I0000276J0000000D01*
G01*
G37*
G36*
G01*
X0414114Y0244685D02*
X0417185Y0244685D01*
G75*
G02*
X0417461Y0244409I0000000J-000276D01*
G01*
X0417461Y0242205D01*
G75*
G02*
X0417185Y0241929I-000276J0000000D01*
G01*
X0414114Y0241929D01*
G75*
G02*
X0413839Y0242205I0000000J0000276D01*
G01*
X0413839Y0244409D01*
G75*
G02*
X0414114Y0244685I0000276J0000000D01*
G01*
G37*
G36*
G01*
X0315846Y0210591D02*
X0315846Y0207520D01*
G75*
G02*
X0315571Y0207244I-000276J0000000D01*
G01*
X0313366Y0207244D01*
G75*
G02*
X0313091Y0207520I0000000J0000276D01*
G01*
X0313091Y0210591D01*
G75*
G02*
X0313366Y0210866I0000276J0000000D01*
G01*
X0315571Y0210866D01*
G75*
G02*
X0315846Y0210591I0000000J-000276D01*
G01*
G37*
G36*
G01*
X0309547Y0210591D02*
X0309547Y0207520D01*
G75*
G02*
X0309272Y0207244I-000276J0000000D01*
G01*
X0307067Y0207244D01*
G75*
G02*
X0306791Y0207520I0000000J0000276D01*
G01*
X0306791Y0210591D01*
G75*
G02*
X0307067Y0210866I0000276J0000000D01*
G01*
X0309272Y0210866D01*
G75*
G02*
X0309547Y0210591I0000000J-000276D01*
G01*
G37*
G36*
G01*
X0319626Y0250984D02*
X0322697Y0250984D01*
G75*
G02*
X0322972Y0250709I0000000J-000276D01*
G01*
X0322972Y0248504D01*
G75*
G02*
X0322697Y0248228I-000276J0000000D01*
G01*
X0319626Y0248228D01*
G75*
G02*
X0319350Y0248504I0000000J0000276D01*
G01*
X0319350Y0250709D01*
G75*
G02*
X0319626Y0250984I0000276J0000000D01*
G01*
G37*
G36*
G01*
X0319626Y0244685D02*
X0322697Y0244685D01*
G75*
G02*
X0322972Y0244409I0000000J-000276D01*
G01*
X0322972Y0242205D01*
G75*
G02*
X0322697Y0241929I-000276J0000000D01*
G01*
X0319626Y0241929D01*
G75*
G02*
X0319350Y0242205I0000000J0000276D01*
G01*
X0319350Y0244409D01*
G75*
G02*
X0319626Y0244685I0000276J0000000D01*
G01*
G37*
G36*
G01*
X0313248Y0238386D02*
X0317264Y0238386D01*
G75*
G02*
X0317618Y0238032I0000000J-000354D01*
G01*
X0317618Y0235197D01*
G75*
G02*
X0317264Y0234843I-000354J0000000D01*
G01*
X0313248Y0234843D01*
G75*
G02*
X0312894Y0235197I0000000J0000354D01*
G01*
X0312894Y0238032D01*
G75*
G02*
X0313248Y0238386I0000354J0000000D01*
G01*
G37*
G36*
G01*
X0313248Y0225394D02*
X0317264Y0225394D01*
G75*
G02*
X0317618Y0225039I0000000J-000354D01*
G01*
X0317618Y0222205D01*
G75*
G02*
X0317264Y0221850I-000354J0000000D01*
G01*
X0313248Y0221850D01*
G75*
G02*
X0312894Y0222205I0000000J0000354D01*
G01*
X0312894Y0225039D01*
G75*
G02*
X0313248Y0225394I0000354J0000000D01*
G01*
G37*
G36*
G01*
X0384587Y0250984D02*
X0387658Y0250984D01*
G75*
G02*
X0387933Y0250709I0000000J-000276D01*
G01*
X0387933Y0248504D01*
G75*
G02*
X0387658Y0248228I-000276J0000000D01*
G01*
X0384587Y0248228D01*
G75*
G02*
X0384311Y0248504I0000000J0000276D01*
G01*
X0384311Y0250709D01*
G75*
G02*
X0384587Y0250984I0000276J0000000D01*
G01*
G37*
G36*
G01*
X0384587Y0244685D02*
X0387658Y0244685D01*
G75*
G02*
X0387933Y0244409I0000000J-000276D01*
G01*
X0387933Y0242205D01*
G75*
G02*
X0387658Y0241929I-000276J0000000D01*
G01*
X0384587Y0241929D01*
G75*
G02*
X0384311Y0242205I0000000J0000276D01*
G01*
X0384311Y0244409D01*
G75*
G02*
X0384587Y0244685I0000276J0000000D01*
G01*
G37*
G36*
G01*
X0349311Y0210591D02*
X0349311Y0207520D01*
G75*
G02*
X0349035Y0207244I-000276J0000000D01*
G01*
X0346831Y0207244D01*
G75*
G02*
X0346555Y0207520I0000000J0000276D01*
G01*
X0346555Y0210591D01*
G75*
G02*
X0346831Y0210866I0000276J0000000D01*
G01*
X0349035Y0210866D01*
G75*
G02*
X0349311Y0210591I0000000J-000276D01*
G01*
G37*
G36*
G01*
X0343012Y0210591D02*
X0343012Y0207520D01*
G75*
G02*
X0342736Y0207244I-000276J0000000D01*
G01*
X0340532Y0207244D01*
G75*
G02*
X0340256Y0207520I0000000J0000276D01*
G01*
X0340256Y0210591D01*
G75*
G02*
X0340532Y0210866I0000276J0000000D01*
G01*
X0342736Y0210866D01*
G75*
G02*
X0343012Y0210591I0000000J-000276D01*
G01*
G37*
G36*
G01*
X0378681Y0250984D02*
X0381752Y0250984D01*
G75*
G02*
X0382028Y0250709I0000000J-000276D01*
G01*
X0382028Y0248504D01*
G75*
G02*
X0381752Y0248228I-000276J0000000D01*
G01*
X0378681Y0248228D01*
G75*
G02*
X0378406Y0248504I0000000J0000276D01*
G01*
X0378406Y0250709D01*
G75*
G02*
X0378681Y0250984I0000276J0000000D01*
G01*
G37*
G36*
G01*
X0378681Y0244685D02*
X0381752Y0244685D01*
G75*
G02*
X0382028Y0244409I0000000J-000276D01*
G01*
X0382028Y0242205D01*
G75*
G02*
X0381752Y0241929I-000276J0000000D01*
G01*
X0378681Y0241929D01*
G75*
G02*
X0378406Y0242205I0000000J0000276D01*
G01*
X0378406Y0244409D01*
G75*
G02*
X0378681Y0244685I0000276J0000000D01*
G01*
G37*
G36*
G01*
X0431831Y0250984D02*
X0434902Y0250984D01*
G75*
G02*
X0435177Y0250709I0000000J-000276D01*
G01*
X0435177Y0248504D01*
G75*
G02*
X0434902Y0248228I-000276J0000000D01*
G01*
X0431831Y0248228D01*
G75*
G02*
X0431555Y0248504I0000000J0000276D01*
G01*
X0431555Y0250709D01*
G75*
G02*
X0431831Y0250984I0000276J0000000D01*
G01*
G37*
G36*
G01*
X0431831Y0244685D02*
X0434902Y0244685D01*
G75*
G02*
X0435177Y0244409I0000000J-000276D01*
G01*
X0435177Y0242205D01*
G75*
G02*
X0434902Y0241929I-000276J0000000D01*
G01*
X0431831Y0241929D01*
G75*
G02*
X0431555Y0242205I0000000J0000276D01*
G01*
X0431555Y0244409D01*
G75*
G02*
X0431831Y0244685I0000276J0000000D01*
G01*
G37*
G36*
G01*
X0437736Y0250984D02*
X0440807Y0250984D01*
G75*
G02*
X0441083Y0250709I0000000J-000276D01*
G01*
X0441083Y0248504D01*
G75*
G02*
X0440807Y0248228I-000276J0000000D01*
G01*
X0437736Y0248228D01*
G75*
G02*
X0437461Y0248504I0000000J0000276D01*
G01*
X0437461Y0250709D01*
G75*
G02*
X0437736Y0250984I0000276J0000000D01*
G01*
G37*
G36*
G01*
X0437736Y0244685D02*
X0440807Y0244685D01*
G75*
G02*
X0441083Y0244409I0000000J-000276D01*
G01*
X0441083Y0242205D01*
G75*
G02*
X0440807Y0241929I-000276J0000000D01*
G01*
X0437736Y0241929D01*
G75*
G02*
X0437461Y0242205I0000000J0000276D01*
G01*
X0437461Y0244409D01*
G75*
G02*
X0437736Y0244685I0000276J0000000D01*
G01*
G37*
G36*
G01*
X0420020Y0250984D02*
X0423091Y0250984D01*
G75*
G02*
X0423366Y0250709I0000000J-000276D01*
G01*
X0423366Y0248504D01*
G75*
G02*
X0423091Y0248228I-000276J0000000D01*
G01*
X0420020Y0248228D01*
G75*
G02*
X0419744Y0248504I0000000J0000276D01*
G01*
X0419744Y0250709D01*
G75*
G02*
X0420020Y0250984I0000276J0000000D01*
G01*
G37*
G36*
G01*
X0420020Y0244685D02*
X0423091Y0244685D01*
G75*
G02*
X0423366Y0244409I0000000J-000276D01*
G01*
X0423366Y0242205D01*
G75*
G02*
X0423091Y0241929I-000276J0000000D01*
G01*
X0420020Y0241929D01*
G75*
G02*
X0419744Y0242205I0000000J0000276D01*
G01*
X0419744Y0244409D01*
G75*
G02*
X0420020Y0244685I0000276J0000000D01*
G01*
G37*
G36*
G01*
X0477264Y0210591D02*
X0477264Y0207520D01*
G75*
G02*
X0476988Y0207244I-000276J0000000D01*
G01*
X0474783Y0207244D01*
G75*
G02*
X0474508Y0207520I0000000J0000276D01*
G01*
X0474508Y0210591D01*
G75*
G02*
X0474783Y0210866I0000276J0000000D01*
G01*
X0476988Y0210866D01*
G75*
G02*
X0477264Y0210591I0000000J-000276D01*
G01*
G37*
G36*
G01*
X0470965Y0210591D02*
X0470965Y0207520D01*
G75*
G02*
X0470689Y0207244I-000276J0000000D01*
G01*
X0468484Y0207244D01*
G75*
G02*
X0468209Y0207520I0000000J0000276D01*
G01*
X0468209Y0210591D01*
G75*
G02*
X0468484Y0210866I0000276J0000000D01*
G01*
X0470689Y0210866D01*
G75*
G02*
X0470965Y0210591I0000000J-000276D01*
G01*
G37*
G36*
G01*
X0506791Y0179095D02*
X0506791Y0176024D01*
G75*
G02*
X0506516Y0175748I-000276J0000000D01*
G01*
X0504311Y0175748D01*
G75*
G02*
X0504035Y0176024I0000000J0000276D01*
G01*
X0504035Y0179095D01*
G75*
G02*
X0504311Y0179370I0000276J0000000D01*
G01*
X0506516Y0179370D01*
G75*
G02*
X0506791Y0179095I0000000J-000276D01*
G01*
G37*
G36*
G01*
X0500492Y0179095D02*
X0500492Y0176024D01*
G75*
G02*
X0500217Y0175748I-000276J0000000D01*
G01*
X0498012Y0175748D01*
G75*
G02*
X0497736Y0176024I0000000J0000276D01*
G01*
X0497736Y0179095D01*
G75*
G02*
X0498012Y0179370I0000276J0000000D01*
G01*
X0500217Y0179370D01*
G75*
G02*
X0500492Y0179095I0000000J-000276D01*
G01*
G37*
G36*
G01*
X0467913Y0215920D02*
X0467913Y0217938D01*
G75*
G02*
X0468775Y0218799I0000861J0000000D01*
G01*
X0470497Y0218799D01*
G75*
G02*
X0471358Y0217938I0000000J-000861D01*
G01*
X0471358Y0215920D01*
G75*
G02*
X0470497Y0215059I-000861J0000000D01*
G01*
X0468775Y0215059D01*
G75*
G02*
X0467913Y0215920I0000000J0000861D01*
G01*
G37*
G36*
G01*
X0474114Y0215920D02*
X0474114Y0217938D01*
G75*
G02*
X0474975Y0218799I0000861J0000000D01*
G01*
X0476698Y0218799D01*
G75*
G02*
X0477559Y0217938I0000000J-000861D01*
G01*
X0477559Y0215920D01*
G75*
G02*
X0476698Y0215059I-000861J0000000D01*
G01*
X0474975Y0215059D01*
G75*
G02*
X0474114Y0215920I0000000J0000861D01*
G01*
G37*
G36*
G01*
X0390492Y0250984D02*
X0393563Y0250984D01*
G75*
G02*
X0393839Y0250709I0000000J-000276D01*
G01*
X0393839Y0248504D01*
G75*
G02*
X0393563Y0248228I-000276J0000000D01*
G01*
X0390492Y0248228D01*
G75*
G02*
X0390217Y0248504I0000000J0000276D01*
G01*
X0390217Y0250709D01*
G75*
G02*
X0390492Y0250984I0000276J0000000D01*
G01*
G37*
G36*
G01*
X0390492Y0244685D02*
X0393563Y0244685D01*
G75*
G02*
X0393839Y0244409I0000000J-000276D01*
G01*
X0393839Y0242205D01*
G75*
G02*
X0393563Y0241929I-000276J0000000D01*
G01*
X0390492Y0241929D01*
G75*
G02*
X0390217Y0242205I0000000J0000276D01*
G01*
X0390217Y0244409D01*
G75*
G02*
X0390492Y0244685I0000276J0000000D01*
G01*
G37*
G36*
G01*
X0360965Y0250984D02*
X0364035Y0250984D01*
G75*
G02*
X0364311Y0250709I0000000J-000276D01*
G01*
X0364311Y0248504D01*
G75*
G02*
X0364035Y0248228I-000276J0000000D01*
G01*
X0360965Y0248228D01*
G75*
G02*
X0360689Y0248504I0000000J0000276D01*
G01*
X0360689Y0250709D01*
G75*
G02*
X0360965Y0250984I0000276J0000000D01*
G01*
G37*
G36*
G01*
X0360965Y0244685D02*
X0364035Y0244685D01*
G75*
G02*
X0364311Y0244409I0000000J-000276D01*
G01*
X0364311Y0242205D01*
G75*
G02*
X0364035Y0241929I-000276J0000000D01*
G01*
X0360965Y0241929D01*
G75*
G02*
X0360689Y0242205I0000000J0000276D01*
G01*
X0360689Y0244409D01*
G75*
G02*
X0360965Y0244685I0000276J0000000D01*
G01*
G37*
G36*
G01*
X0344744Y0238386D02*
X0348760Y0238386D01*
G75*
G02*
X0349114Y0238032I0000000J-000354D01*
G01*
X0349114Y0235197D01*
G75*
G02*
X0348760Y0234843I-000354J0000000D01*
G01*
X0344744Y0234843D01*
G75*
G02*
X0344390Y0235197I0000000J0000354D01*
G01*
X0344390Y0238032D01*
G75*
G02*
X0344744Y0238386I0000354J0000000D01*
G01*
G37*
G36*
G01*
X0344744Y0225394D02*
X0348760Y0225394D01*
G75*
G02*
X0349114Y0225039I0000000J-000354D01*
G01*
X0349114Y0222205D01*
G75*
G02*
X0348760Y0221850I-000354J0000000D01*
G01*
X0344744Y0221850D01*
G75*
G02*
X0344390Y0222205I0000000J0000354D01*
G01*
X0344390Y0225039D01*
G75*
G02*
X0344744Y0225394I0000354J0000000D01*
G01*
G37*
G36*
G01*
X0497736Y0181929D02*
X0497736Y0185000D01*
G75*
G02*
X0498012Y0185276I0000276J0000000D01*
G01*
X0500217Y0185276D01*
G75*
G02*
X0500492Y0185000I0000000J-000276D01*
G01*
X0500492Y0181929D01*
G75*
G02*
X0500217Y0181654I-000276J0000000D01*
G01*
X0498012Y0181654D01*
G75*
G02*
X0497736Y0181929I0000000J0000276D01*
G01*
G37*
G36*
G01*
X0504035Y0181929D02*
X0504035Y0185000D01*
G75*
G02*
X0504311Y0185276I0000276J0000000D01*
G01*
X0506516Y0185276D01*
G75*
G02*
X0506791Y0185000I0000000J-000276D01*
G01*
X0506791Y0181929D01*
G75*
G02*
X0506516Y0181654I-000276J0000000D01*
G01*
X0504311Y0181654D01*
G75*
G02*
X0504035Y0181929I0000000J0000276D01*
G01*
G37*
G36*
G01*
X0414272Y0210591D02*
X0414272Y0207520D01*
G75*
G02*
X0413996Y0207244I-000276J0000000D01*
G01*
X0411791Y0207244D01*
G75*
G02*
X0411516Y0207520I0000000J0000276D01*
G01*
X0411516Y0210591D01*
G75*
G02*
X0411791Y0210866I0000276J0000000D01*
G01*
X0413996Y0210866D01*
G75*
G02*
X0414272Y0210591I0000000J-000276D01*
G01*
G37*
G36*
G01*
X0407972Y0210591D02*
X0407972Y0207520D01*
G75*
G02*
X0407697Y0207244I-000276J0000000D01*
G01*
X0405492Y0207244D01*
G75*
G02*
X0405217Y0207520I0000000J0000276D01*
G01*
X0405217Y0210591D01*
G75*
G02*
X0405492Y0210866I0000276J0000000D01*
G01*
X0407697Y0210866D01*
G75*
G02*
X0407972Y0210591I0000000J-000276D01*
G01*
G37*
G36*
G01*
X0380807Y0210591D02*
X0380807Y0207520D01*
G75*
G02*
X0380532Y0207244I-000276J0000000D01*
G01*
X0378327Y0207244D01*
G75*
G02*
X0378051Y0207520I0000000J0000276D01*
G01*
X0378051Y0210591D01*
G75*
G02*
X0378327Y0210866I0000276J0000000D01*
G01*
X0380532Y0210866D01*
G75*
G02*
X0380807Y0210591I0000000J-000276D01*
G01*
G37*
G36*
G01*
X0374508Y0210591D02*
X0374508Y0207520D01*
G75*
G02*
X0374232Y0207244I-000276J0000000D01*
G01*
X0372028Y0207244D01*
G75*
G02*
X0371752Y0207520I0000000J0000276D01*
G01*
X0371752Y0210591D01*
G75*
G02*
X0372028Y0210866I0000276J0000000D01*
G01*
X0374232Y0210866D01*
G75*
G02*
X0374508Y0210591I0000000J-000276D01*
G01*
G37*
G36*
G01*
X0366870Y0250984D02*
X0369941Y0250984D01*
G75*
G02*
X0370217Y0250709I0000000J-000276D01*
G01*
X0370217Y0248504D01*
G75*
G02*
X0369941Y0248228I-000276J0000000D01*
G01*
X0366870Y0248228D01*
G75*
G02*
X0366595Y0248504I0000000J0000276D01*
G01*
X0366595Y0250709D01*
G75*
G02*
X0366870Y0250984I0000276J0000000D01*
G01*
G37*
G36*
G01*
X0366870Y0244685D02*
X0369941Y0244685D01*
G75*
G02*
X0370217Y0244409I0000000J-000276D01*
G01*
X0370217Y0242205D01*
G75*
G02*
X0369941Y0241929I-000276J0000000D01*
G01*
X0366870Y0241929D01*
G75*
G02*
X0366595Y0242205I0000000J0000276D01*
G01*
X0366595Y0244409D01*
G75*
G02*
X0366870Y0244685I0000276J0000000D01*
G01*
G37*
G36*
G01*
X0343248Y0250984D02*
X0346319Y0250984D01*
G75*
G02*
X0346595Y0250709I0000000J-000276D01*
G01*
X0346595Y0248504D01*
G75*
G02*
X0346319Y0248228I-000276J0000000D01*
G01*
X0343248Y0248228D01*
G75*
G02*
X0342972Y0248504I0000000J0000276D01*
G01*
X0342972Y0250709D01*
G75*
G02*
X0343248Y0250984I0000276J0000000D01*
G01*
G37*
G36*
G01*
X0343248Y0244685D02*
X0346319Y0244685D01*
G75*
G02*
X0346595Y0244409I0000000J-000276D01*
G01*
X0346595Y0242205D01*
G75*
G02*
X0346319Y0241929I-000276J0000000D01*
G01*
X0343248Y0241929D01*
G75*
G02*
X0342972Y0242205I0000000J0000276D01*
G01*
X0342972Y0244409D01*
G75*
G02*
X0343248Y0244685I0000276J0000000D01*
G01*
G37*
G36*
G01*
X0435630Y0203445D02*
X0446850Y0203445D01*
G75*
G02*
X0447835Y0202461I0000000J-000984D01*
G01*
X0447835Y0199606D01*
G75*
G02*
X0446850Y0198622I-000984J0000000D01*
G01*
X0435630Y0198622D01*
G75*
G02*
X0434646Y0199606I0000000J0000984D01*
G01*
X0434646Y0202461D01*
G75*
G02*
X0435630Y0203445I0000984J0000000D01*
G01*
G37*
G36*
G01*
X0435630Y0180118D02*
X0446850Y0180118D01*
G75*
G02*
X0447835Y0179134I0000000J-000984D01*
G01*
X0447835Y0176280D01*
G75*
G02*
X0446850Y0175295I-000984J0000000D01*
G01*
X0435630Y0175295D01*
G75*
G02*
X0434646Y0176280I0000000J0000984D01*
G01*
X0434646Y0179134D01*
G75*
G02*
X0435630Y0180118I0000984J0000000D01*
G01*
G37*
G36*
G01*
X0408209Y0250984D02*
X0411280Y0250984D01*
G75*
G02*
X0411555Y0250709I0000000J-000276D01*
G01*
X0411555Y0248504D01*
G75*
G02*
X0411280Y0248228I-000276J0000000D01*
G01*
X0408209Y0248228D01*
G75*
G02*
X0407933Y0248504I0000000J0000276D01*
G01*
X0407933Y0250709D01*
G75*
G02*
X0408209Y0250984I0000276J0000000D01*
G01*
G37*
G36*
G01*
X0408209Y0244685D02*
X0411280Y0244685D01*
G75*
G02*
X0411555Y0244409I0000000J-000276D01*
G01*
X0411555Y0242205D01*
G75*
G02*
X0411280Y0241929I-000276J0000000D01*
G01*
X0408209Y0241929D01*
G75*
G02*
X0407933Y0242205I0000000J0000276D01*
G01*
X0407933Y0244409D01*
G75*
G02*
X0408209Y0244685I0000276J0000000D01*
G01*
G37*
G36*
G01*
X0307815Y0250984D02*
X0310886Y0250984D01*
G75*
G02*
X0311161Y0250709I0000000J-000276D01*
G01*
X0311161Y0248504D01*
G75*
G02*
X0310886Y0248228I-000276J0000000D01*
G01*
X0307815Y0248228D01*
G75*
G02*
X0307539Y0248504I0000000J0000276D01*
G01*
X0307539Y0250709D01*
G75*
G02*
X0307815Y0250984I0000276J0000000D01*
G01*
G37*
G36*
G01*
X0307815Y0244685D02*
X0310886Y0244685D01*
G75*
G02*
X0311161Y0244409I0000000J-000276D01*
G01*
X0311161Y0242205D01*
G75*
G02*
X0310886Y0241929I-000276J0000000D01*
G01*
X0307815Y0241929D01*
G75*
G02*
X0307539Y0242205I0000000J0000276D01*
G01*
X0307539Y0244409D01*
G75*
G02*
X0307815Y0244685I0000276J0000000D01*
G01*
G37*
X0510138Y0359055D02*
G01*
G75*
D334*
X0480223Y0282677D02*
D03*
X0493215Y0282677D02*
D03*
D335*
X0460363Y0282283D02*
D03*
X0471780Y0282283D02*
D03*
X0460363Y0290315D02*
D03*
X0471780Y0290315D02*
D03*
D338*
X0497736Y0304331D02*
D03*
X0497736Y0300394D02*
D03*
X0501083Y0289764D02*
D03*
X0492421Y0289764D02*
D03*
X0501870Y0295012D02*
D03*
X0493209Y0295012D02*
D03*
D339*
X0489983Y0347638D02*
D03*
X0493527Y0347638D02*
D03*
X0480592Y0310905D02*
D03*
X0477048Y0310905D02*
D03*
X0488589Y0295800D02*
D03*
X0485046Y0295800D02*
D03*
X0481365Y0347638D02*
D03*
X0484908Y0347638D02*
D03*
X0501870Y0343701D02*
D03*
X0498327Y0343701D02*
D03*
D340*
X0476385Y0294225D02*
D03*
X0476385Y0290681D02*
D03*
X0497152Y0281823D02*
D03*
X0497152Y0285367D02*
D03*
X0448388Y0340140D02*
D03*
X0448388Y0336596D02*
D03*
D114*
X0444390Y0340945D02*
D03*
X0444390Y0344882D02*
D03*
D115*
X0507185Y0287402D02*
D03*
X0507185Y0354331D02*
D03*
X0507185Y0306890D02*
D03*
X0446162Y0307087D02*
D03*
X0446162Y0281890D02*
D03*
X0446162Y0331496D02*
D03*
X0446162Y0314567D02*
D03*
X0446162Y0356102D02*
D03*
X0507185Y0280118D02*
D03*
D346*
X0452264Y0281102D02*
D03*
X0452264Y0289764D02*
D03*
X0490180Y0343701D02*
D03*
X0494117Y0343701D02*
D03*
X0485499Y0343701D02*
D03*
X0481562Y0343701D02*
D03*
X0488786Y0289764D02*
D03*
X0484849Y0289764D02*
D03*
X0465853Y0311378D02*
D03*
X0461916Y0311378D02*
D03*
X0458077Y0348819D02*
D03*
X0462015Y0348819D02*
D03*
D347*
X0460925Y0302756D02*
D03*
X0471949Y0302756D02*
D03*
D348*
X0493603Y0307079D02*
D03*
X0493603Y0300859D02*
D03*
X0479509Y0307079D02*
D03*
X0479509Y0300859D02*
D03*
X0484200Y0307079D02*
D03*
X0484200Y0300859D02*
D03*
X0488892Y0307079D02*
D03*
X0488892Y0300859D02*
D03*
X0480690Y0294835D02*
D03*
X0480690Y0288614D02*
D03*
D127*
X0485066Y0336941D02*
D03*
X0490066Y0336941D02*
D03*
X0495066Y0336941D02*
D03*
X0500066Y0336941D02*
D03*
X0485066Y0314304D02*
D03*
X0490066Y0314304D02*
D03*
X0495066Y0314304D02*
D03*
X0500066Y0314304D02*
D03*
X0461999Y0342224D02*
D03*
X0466999Y0342224D02*
D03*
X0471999Y0342224D02*
D03*
X0476999Y0342224D02*
D03*
X0461999Y0318799D02*
D03*
X0466999Y0318799D02*
D03*
X0471999Y0318799D02*
D03*
X0476999Y0318799D02*
D03*
D349*
X0492566Y0325623D02*
D03*
D350*
X0469499Y0330512D02*
D03*
X0177362Y0171555D02*
G01*
G75*
D114*
X0212795Y0181791D02*
D03*
X0212795Y0178051D02*
D03*
X0212795Y0174311D02*
D03*
X0178543Y0178248D02*
D03*
X0178543Y0181791D02*
D03*
D132*
X0205315Y0181791D02*
D03*
X0209252Y0181791D02*
D03*
X0194192Y0181791D02*
D03*
X0190255Y0181791D02*
D03*
X0185826Y0181791D02*
D03*
X0181889Y0181791D02*
D03*
X0205315Y0174508D02*
D03*
X0209252Y0174508D02*
D03*
D113*
X0201930Y0174311D02*
D03*
X0201930Y0177854D02*
D03*
D126*
X0198045Y0181024D02*
D03*
X0198045Y0174803D02*
D03*
D112*
X0185433Y0177854D02*
D03*
X0181890Y0177854D02*
D03*
X0193799Y0174311D02*
D03*
X0190256Y0174311D02*
D03*
X0208661Y0177912D02*
D03*
X0205118Y0177912D02*
D03*
X0181890Y0174311D02*
D03*
X0185433Y0174311D02*
D03*
X0296654Y0171752D02*
%LPD*%
G01*
D18*
X0269489Y0230020D03*
X0274213Y0230020D03*
X0264764Y0230020D03*
X0260040Y0230020D03*
X0285473Y0173228D03*
X0289410Y0173228D03*
G36*
G01*
X0266060Y0188681D02*
X0267241Y0188681D01*
G75*
G02*
X0267832Y0188091I0000000J-000591D01*
G01*
X0267832Y0184055D01*
G75*
G02*
X0267241Y0183465I-000591J0000000D01*
G01*
X0266060Y0183465D01*
G75*
G02*
X0265470Y0184055I0000000J0000591D01*
G01*
X0265470Y0188091D01*
G75*
G02*
X0266060Y0188681I0000591J0000000D01*
G01*
G37*
G36*
G01*
X0269801Y0188681D02*
X0270982Y0188681D01*
G75*
G02*
X0271572Y0188091I0000000J-000591D01*
G01*
X0271572Y0184055D01*
G75*
G02*
X0270982Y0183465I-000591J0000000D01*
G01*
X0269801Y0183465D01*
G75*
G02*
X0269210Y0184055I0000000J0000591D01*
G01*
X0269210Y0188091D01*
G75*
G02*
X0269801Y0188681I0000591J0000000D01*
G01*
G37*
G36*
G01*
X0273541Y0188681D02*
X0274722Y0188681D01*
G75*
G02*
X0275312Y0188091I0000000J-000591D01*
G01*
X0275312Y0184055D01*
G75*
G02*
X0274722Y0183465I-000591J0000000D01*
G01*
X0273541Y0183465D01*
G75*
G02*
X0272950Y0184055I0000000J0000591D01*
G01*
X0272950Y0188091D01*
G75*
G02*
X0273541Y0188681I0000591J0000000D01*
G01*
G37*
G36*
G01*
X0273541Y0179724D02*
X0274722Y0179724D01*
G75*
G02*
X0275312Y0179134I0000000J-000591D01*
G01*
X0275312Y0175098D01*
G75*
G02*
X0274722Y0174508I-000591J0000000D01*
G01*
X0273541Y0174508D01*
G75*
G02*
X0272950Y0175098I0000000J0000591D01*
G01*
X0272950Y0179134D01*
G75*
G02*
X0273541Y0179724I0000591J0000000D01*
G01*
G37*
G36*
G01*
X0266060Y0179724D02*
X0267241Y0179724D01*
G75*
G02*
X0267832Y0179134I0000000J-000591D01*
G01*
X0267832Y0175098D01*
G75*
G02*
X0267241Y0174508I-000591J0000000D01*
G01*
X0266060Y0174508D01*
G75*
G02*
X0265470Y0175098I0000000J0000591D01*
G01*
X0265470Y0179134D01*
G75*
G02*
X0266060Y0179724I0000591J0000000D01*
G01*
G37*
G36*
G01*
X0288347Y0188406D02*
X0288347Y0189744D01*
G75*
G02*
X0288898Y0190295I0000551J0000000D01*
G01*
X0290000Y0190295D01*
G75*
G02*
X0290552Y0189744I0000000J-000551D01*
G01*
X0290552Y0188406D01*
G75*
G02*
X0290000Y0187854I-000551J0000000D01*
G01*
X0288898Y0187854D01*
G75*
G02*
X0288347Y0188406I0000000J0000551D01*
G01*
G37*
G36*
G01*
X0292126Y0188406D02*
X0292126Y0189744D01*
G75*
G02*
X0292678Y0190295I0000551J0000000D01*
G01*
X0293780Y0190295D01*
G75*
G02*
X0294331Y0189744I0000000J-000551D01*
G01*
X0294331Y0188406D01*
G75*
G02*
X0293780Y0187854I-000551J0000000D01*
G01*
X0292678Y0187854D01*
G75*
G02*
X0292126Y0188406I0000000J0000551D01*
G01*
G37*
G36*
G01*
X0265630Y0214921D02*
X0264292Y0214921D01*
G75*
G02*
X0263741Y0215472I0000000J0000551D01*
G01*
X0263741Y0216575D01*
G75*
G02*
X0264292Y0217126I0000551J0000000D01*
G01*
X0265630Y0217126D01*
G75*
G02*
X0266182Y0216575I0000000J-000551D01*
G01*
X0266182Y0215472D01*
G75*
G02*
X0265630Y0214921I-000551J0000000D01*
G01*
G37*
G36*
G01*
X0265630Y0218701D02*
X0264292Y0218701D01*
G75*
G02*
X0263741Y0219252I0000000J0000551D01*
G01*
X0263741Y0220354D01*
G75*
G02*
X0264292Y0220906I0000551J0000000D01*
G01*
X0265630Y0220906D01*
G75*
G02*
X0266182Y0220354I0000000J-000551D01*
G01*
X0266182Y0219252D01*
G75*
G02*
X0265630Y0218701I-000551J0000000D01*
G01*
G37*
G36*
G01*
X0260630Y0228268D02*
X0261969Y0228268D01*
G75*
G02*
X0262520Y0227717I0000000J-000551D01*
G01*
X0262520Y0226614D01*
G75*
G02*
X0261969Y0226063I-000551J0000000D01*
G01*
X0260630Y0226063D01*
G75*
G02*
X0260079Y0226614I0000000J0000551D01*
G01*
X0260079Y0227717D01*
G75*
G02*
X0260630Y0228268I0000551J0000000D01*
G01*
G37*
G36*
G01*
X0260630Y0224488D02*
X0261969Y0224488D01*
G75*
G02*
X0262520Y0223937I0000000J-000551D01*
G01*
X0262520Y0222835D01*
G75*
G02*
X0261969Y0222283I-000551J0000000D01*
G01*
X0260630Y0222283D01*
G75*
G02*
X0260079Y0222835I0000000J0000551D01*
G01*
X0260079Y0223937D01*
G75*
G02*
X0260630Y0224488I0000551J0000000D01*
G01*
G37*
G36*
G01*
X0269371Y0206516D02*
X0268032Y0206516D01*
G75*
G02*
X0267481Y0207067I0000000J0000551D01*
G01*
X0267481Y0208169D01*
G75*
G02*
X0268032Y0208721I0000551J0000000D01*
G01*
X0269371Y0208721D01*
G75*
G02*
X0269922Y0208169I0000000J-000551D01*
G01*
X0269922Y0207067D01*
G75*
G02*
X0269371Y0206516I-000551J0000000D01*
G01*
G37*
G36*
G01*
X0269371Y0210295D02*
X0268032Y0210295D01*
G75*
G02*
X0267481Y0210846I0000000J0000551D01*
G01*
X0267481Y0211949D01*
G75*
G02*
X0268032Y0212500I0000551J0000000D01*
G01*
X0269371Y0212500D01*
G75*
G02*
X0269922Y0211949I0000000J-000551D01*
G01*
X0269922Y0210846D01*
G75*
G02*
X0269371Y0210295I-000551J0000000D01*
G01*
G37*
G36*
G01*
X0264292Y0228071D02*
X0265630Y0228071D01*
G75*
G02*
X0266182Y0227520I0000000J-000551D01*
G01*
X0266182Y0226417D01*
G75*
G02*
X0265630Y0225866I-000551J0000000D01*
G01*
X0264292Y0225866D01*
G75*
G02*
X0263741Y0226417I0000000J0000551D01*
G01*
X0263741Y0227520D01*
G75*
G02*
X0264292Y0228071I0000551J0000000D01*
G01*
G37*
G36*
G01*
X0264292Y0224291D02*
X0265630Y0224291D01*
G75*
G02*
X0266182Y0223740I0000000J-000551D01*
G01*
X0266182Y0222638D01*
G75*
G02*
X0265630Y0222087I-000551J0000000D01*
G01*
X0264292Y0222087D01*
G75*
G02*
X0263741Y0222638I0000000J0000551D01*
G01*
X0263741Y0223740D01*
G75*
G02*
X0264292Y0224291I0000551J0000000D01*
G01*
G37*
G36*
G01*
X0285808Y0222795D02*
X0284469Y0222795D01*
G75*
G02*
X0283918Y0223346I0000000J0000551D01*
G01*
X0283918Y0224449D01*
G75*
G02*
X0284469Y0225000I0000551J0000000D01*
G01*
X0285808Y0225000D01*
G75*
G02*
X0286359Y0224449I0000000J-000551D01*
G01*
X0286359Y0223346D01*
G75*
G02*
X0285808Y0222795I-000551J0000000D01*
G01*
G37*
G36*
G01*
X0285808Y0226575D02*
X0284469Y0226575D01*
G75*
G02*
X0283918Y0227126I0000000J0000551D01*
G01*
X0283918Y0228228D01*
G75*
G02*
X0284469Y0228780I0000551J0000000D01*
G01*
X0285808Y0228780D01*
G75*
G02*
X0286359Y0228228I0000000J-000551D01*
G01*
X0286359Y0227126D01*
G75*
G02*
X0285808Y0226575I-000551J0000000D01*
G01*
G37*
G36*
G01*
X0293308Y0192286D02*
X0292520Y0192286D01*
G75*
G02*
X0292126Y0192680I0000000J0000394D01*
G01*
X0292126Y0197700D01*
G75*
G02*
X0292520Y0198093I0000394J0000000D01*
G01*
X0293308Y0198093D01*
G75*
G02*
X0293701Y0197700I0000000J-000394D01*
G01*
X0293701Y0192680D01*
G75*
G02*
X0293308Y0192286I-000394J0000000D01*
G01*
G37*
G36*
G01*
X0290748Y0192286D02*
X0289961Y0192286D01*
G75*
G02*
X0289567Y0192680I0000000J0000394D01*
G01*
X0289567Y0197700D01*
G75*
G02*
X0289961Y0198093I0000394J0000000D01*
G01*
X0290748Y0198093D01*
G75*
G02*
X0291142Y0197700I0000000J-000394D01*
G01*
X0291142Y0192680D01*
G75*
G02*
X0290748Y0192286I-000394J0000000D01*
G01*
G37*
G36*
G01*
X0288189Y0192286D02*
X0287402Y0192286D01*
G75*
G02*
X0287008Y0192680I0000000J0000394D01*
G01*
X0287008Y0197700D01*
G75*
G02*
X0287402Y0198093I0000394J0000000D01*
G01*
X0288189Y0198093D01*
G75*
G02*
X0288583Y0197700I0000000J-000394D01*
G01*
X0288583Y0192680D01*
G75*
G02*
X0288189Y0192286I-000394J0000000D01*
G01*
G37*
G36*
G01*
X0285630Y0192286D02*
X0284843Y0192286D01*
G75*
G02*
X0284449Y0192680I0000000J0000394D01*
G01*
X0284449Y0197700D01*
G75*
G02*
X0284843Y0198093I0000394J0000000D01*
G01*
X0285630Y0198093D01*
G75*
G02*
X0286024Y0197700I0000000J-000394D01*
G01*
X0286024Y0192680D01*
G75*
G02*
X0285630Y0192286I-000394J0000000D01*
G01*
G37*
G36*
G01*
X0283071Y0192286D02*
X0282284Y0192286D01*
G75*
G02*
X0281890Y0192680I0000000J0000394D01*
G01*
X0281890Y0197700D01*
G75*
G02*
X0282284Y0198093I0000394J0000000D01*
G01*
X0283071Y0198093D01*
G75*
G02*
X0283465Y0197700I0000000J-000394D01*
G01*
X0283465Y0192680D01*
G75*
G02*
X0283071Y0192286I-000394J0000000D01*
G01*
G37*
G36*
G01*
X0280512Y0192286D02*
X0279725Y0192286D01*
G75*
G02*
X0279331Y0192680I0000000J0000394D01*
G01*
X0279331Y0197700D01*
G75*
G02*
X0279725Y0198093I0000394J0000000D01*
G01*
X0280512Y0198093D01*
G75*
G02*
X0280906Y0197700I0000000J-000394D01*
G01*
X0280906Y0192680D01*
G75*
G02*
X0280512Y0192286I-000394J0000000D01*
G01*
G37*
G36*
G01*
X0277953Y0192286D02*
X0277166Y0192286D01*
G75*
G02*
X0276772Y0192680I0000000J0000394D01*
G01*
X0276772Y0197700D01*
G75*
G02*
X0277166Y0198093I0000394J0000000D01*
G01*
X0277953Y0198093D01*
G75*
G02*
X0278347Y0197700I0000000J-000394D01*
G01*
X0278347Y0192680D01*
G75*
G02*
X0277953Y0192286I-000394J0000000D01*
G01*
G37*
G36*
G01*
X0277953Y0214826D02*
X0277166Y0214826D01*
G75*
G02*
X0276772Y0215219I0000000J0000394D01*
G01*
X0276772Y0220239D01*
G75*
G02*
X0277166Y0220633I0000394J0000000D01*
G01*
X0277953Y0220633D01*
G75*
G02*
X0278347Y0220239I0000000J-000394D01*
G01*
X0278347Y0215219D01*
G75*
G02*
X0277953Y0214826I-000394J0000000D01*
G01*
G37*
G36*
G01*
X0280512Y0214826D02*
X0279725Y0214826D01*
G75*
G02*
X0279331Y0215219I0000000J0000394D01*
G01*
X0279331Y0220239D01*
G75*
G02*
X0279725Y0220633I0000394J0000000D01*
G01*
X0280512Y0220633D01*
G75*
G02*
X0280906Y0220239I0000000J-000394D01*
G01*
X0280906Y0215219D01*
G75*
G02*
X0280512Y0214826I-000394J0000000D01*
G01*
G37*
G36*
G01*
X0283071Y0214826D02*
X0282284Y0214826D01*
G75*
G02*
X0281890Y0215219I0000000J0000394D01*
G01*
X0281890Y0220239D01*
G75*
G02*
X0282284Y0220633I0000394J0000000D01*
G01*
X0283071Y0220633D01*
G75*
G02*
X0283465Y0220239I0000000J-000394D01*
G01*
X0283465Y0215219D01*
G75*
G02*
X0283071Y0214826I-000394J0000000D01*
G01*
G37*
G36*
G01*
X0285630Y0214826D02*
X0284843Y0214826D01*
G75*
G02*
X0284449Y0215219I0000000J0000394D01*
G01*
X0284449Y0220239D01*
G75*
G02*
X0284843Y0220633I0000394J0000000D01*
G01*
X0285630Y0220633D01*
G75*
G02*
X0286024Y0220239I0000000J-000394D01*
G01*
X0286024Y0215219D01*
G75*
G02*
X0285630Y0214826I-000394J0000000D01*
G01*
G37*
G36*
G01*
X0288189Y0214826D02*
X0287402Y0214826D01*
G75*
G02*
X0287008Y0215219I0000000J0000394D01*
G01*
X0287008Y0220239D01*
G75*
G02*
X0287402Y0220633I0000394J0000000D01*
G01*
X0288189Y0220633D01*
G75*
G02*
X0288583Y0220239I0000000J-000394D01*
G01*
X0288583Y0215219D01*
G75*
G02*
X0288189Y0214826I-000394J0000000D01*
G01*
G37*
G36*
G01*
X0290748Y0214826D02*
X0289961Y0214826D01*
G75*
G02*
X0289567Y0215219I0000000J0000394D01*
G01*
X0289567Y0220239D01*
G75*
G02*
X0289961Y0220633I0000394J0000000D01*
G01*
X0290748Y0220633D01*
G75*
G02*
X0291142Y0220239I0000000J-000394D01*
G01*
X0291142Y0215219D01*
G75*
G02*
X0290748Y0214826I-000394J0000000D01*
G01*
G37*
G36*
G01*
X0293308Y0214826D02*
X0292520Y0214826D01*
G75*
G02*
X0292126Y0215219I0000000J0000394D01*
G01*
X0292126Y0220239D01*
G75*
G02*
X0292520Y0220633I0000394J0000000D01*
G01*
X0293308Y0220633D01*
G75*
G02*
X0293701Y0220239I0000000J-000394D01*
G01*
X0293701Y0215219D01*
G75*
G02*
X0293308Y0214826I-000394J0000000D01*
G01*
G37*
G36*
G01*
X0285437Y0174643D02*
X0281894Y0174643D01*
G75*
G02*
X0280910Y0175627I0000000J0000984D01*
G01*
X0280910Y0177694D01*
G75*
G02*
X0281894Y0178678I0000984J0000000D01*
G01*
X0285437Y0178678D01*
G75*
G02*
X0286422Y0177694I0000000J-000984D01*
G01*
X0286422Y0175627D01*
G75*
G02*
X0285437Y0174643I-000984J0000000D01*
G01*
G37*
G36*
G01*
X0285437Y0181828D02*
X0281894Y0181828D01*
G75*
G02*
X0280910Y0182812I0000000J0000984D01*
G01*
X0280910Y0184879D01*
G75*
G02*
X0281894Y0185863I0000984J0000000D01*
G01*
X0285437Y0185863D01*
G75*
G02*
X0286422Y0184879I0000000J-000984D01*
G01*
X0286422Y0182812D01*
G75*
G02*
X0285437Y0181828I-000984J0000000D01*
G01*
G37*
G36*
G01*
X0271713Y0220886D02*
X0273170Y0220886D01*
G75*
G02*
X0273701Y0220354I0000000J-000531D01*
G01*
X0273701Y0219291D01*
G75*
G02*
X0273170Y0218760I-000531J0000000D01*
G01*
X0271713Y0218760D01*
G75*
G02*
X0271182Y0219291I0000000J0000531D01*
G01*
X0271182Y0220354D01*
G75*
G02*
X0271713Y0220886I0000531J0000000D01*
G01*
G37*
G36*
G01*
X0271713Y0216870D02*
X0273170Y0216870D01*
G75*
G02*
X0273701Y0216339I0000000J-000531D01*
G01*
X0273701Y0215276D01*
G75*
G02*
X0273170Y0214744I-000531J0000000D01*
G01*
X0271713Y0214744D01*
G75*
G02*
X0271182Y0215276I0000000J0000531D01*
G01*
X0271182Y0216339D01*
G75*
G02*
X0271713Y0216870I0000531J0000000D01*
G01*
G37*
G36*
G01*
X0260788Y0180453D02*
X0262126Y0180453D01*
G75*
G02*
X0262678Y0179902I0000000J-000551D01*
G01*
X0262678Y0178799D01*
G75*
G02*
X0262126Y0178248I-000551J0000000D01*
G01*
X0260788Y0178248D01*
G75*
G02*
X0260237Y0178799I0000000J0000551D01*
G01*
X0260237Y0179902D01*
G75*
G02*
X0260788Y0180453I0000551J0000000D01*
G01*
G37*
G36*
G01*
X0260788Y0176673D02*
X0262126Y0176673D01*
G75*
G02*
X0262678Y0176122I0000000J-000551D01*
G01*
X0262678Y0175020D01*
G75*
G02*
X0262126Y0174469I-000551J0000000D01*
G01*
X0260788Y0174469D01*
G75*
G02*
X0260237Y0175020I0000000J0000551D01*
G01*
X0260237Y0176122D01*
G75*
G02*
X0260788Y0176673I0000551J0000000D01*
G01*
G37*
G36*
G01*
X0267973Y0228563D02*
X0269430Y0228563D01*
G75*
G02*
X0269961Y0228032I0000000J-000531D01*
G01*
X0269961Y0226969D01*
G75*
G02*
X0269430Y0226437I-000531J0000000D01*
G01*
X0267973Y0226437D01*
G75*
G02*
X0267441Y0226969I0000000J0000531D01*
G01*
X0267441Y0228032D01*
G75*
G02*
X0267973Y0228563I0000531J0000000D01*
G01*
G37*
G36*
G01*
X0267973Y0224547D02*
X0269430Y0224547D01*
G75*
G02*
X0269961Y0224016I0000000J-000531D01*
G01*
X0269961Y0222953D01*
G75*
G02*
X0269430Y0222421I-000531J0000000D01*
G01*
X0267973Y0222421D01*
G75*
G02*
X0267441Y0222953I0000000J0000531D01*
G01*
X0267441Y0224016D01*
G75*
G02*
X0267973Y0224547I0000531J0000000D01*
G01*
G37*
G36*
G01*
X0271713Y0212630D02*
X0273169Y0212630D01*
G75*
G02*
X0273701Y0212098I0000000J-000531D01*
G01*
X0273701Y0211035D01*
G75*
G02*
X0273169Y0210504I-000531J0000000D01*
G01*
X0271713Y0210504D01*
G75*
G02*
X0271181Y0211035I0000000J0000531D01*
G01*
X0271181Y0212098D01*
G75*
G02*
X0271713Y0212630I0000531J0000000D01*
G01*
G37*
G36*
G01*
X0271713Y0208614D02*
X0273169Y0208614D01*
G75*
G02*
X0273701Y0208082I0000000J-000531D01*
G01*
X0273701Y0207019D01*
G75*
G02*
X0273169Y0206488I-000531J0000000D01*
G01*
X0271713Y0206488D01*
G75*
G02*
X0271181Y0207019I0000000J0000531D01*
G01*
X0271181Y0208082D01*
G75*
G02*
X0271713Y0208614I0000531J0000000D01*
G01*
G37*
G36*
G01*
X0289469Y0185863D02*
X0293012Y0185863D01*
G75*
G02*
X0293997Y0184879I0000000J-000984D01*
G01*
X0293997Y0182812D01*
G75*
G02*
X0293012Y0181828I-000984J0000000D01*
G01*
X0289469Y0181828D01*
G75*
G02*
X0288485Y0182812I0000000J0000984D01*
G01*
X0288485Y0184879D01*
G75*
G02*
X0289469Y0185863I0000984J0000000D01*
G01*
G37*
G36*
G01*
X0289469Y0178678D02*
X0293012Y0178678D01*
G75*
G02*
X0293997Y0177694I0000000J-000984D01*
G01*
X0293997Y0175627D01*
G75*
G02*
X0293012Y0174643I-000984J0000000D01*
G01*
X0289469Y0174643D01*
G75*
G02*
X0288485Y0175627I0000000J0000984D01*
G01*
X0288485Y0177694D01*
G75*
G02*
X0289469Y0178678I0000984J0000000D01*
G01*
G37*
G36*
G01*
X0260571Y0212579D02*
X0262028Y0212579D01*
G75*
G02*
X0262560Y0212047I0000000J-000531D01*
G01*
X0262560Y0210984D01*
G75*
G02*
X0262028Y0210453I-000531J0000000D01*
G01*
X0260571Y0210453D01*
G75*
G02*
X0260040Y0210984I0000000J0000531D01*
G01*
X0260040Y0212047D01*
G75*
G02*
X0260571Y0212579I0000531J0000000D01*
G01*
G37*
G36*
G01*
X0260571Y0208563D02*
X0262028Y0208563D01*
G75*
G02*
X0262560Y0208032I0000000J-000531D01*
G01*
X0262560Y0206969D01*
G75*
G02*
X0262028Y0206437I-000531J0000000D01*
G01*
X0260571Y0206437D01*
G75*
G02*
X0260040Y0206969I0000000J0000531D01*
G01*
X0260040Y0208032D01*
G75*
G02*
X0260571Y0208563I0000531J0000000D01*
G01*
G37*
G36*
G01*
X0294075Y0222264D02*
X0292619Y0222264D01*
G75*
G02*
X0292087Y0222795I0000000J0000531D01*
G01*
X0292087Y0223858D01*
G75*
G02*
X0292619Y0224390I0000531J0000000D01*
G01*
X0294075Y0224390D01*
G75*
G02*
X0294607Y0223858I0000000J-000531D01*
G01*
X0294607Y0222795D01*
G75*
G02*
X0294075Y0222264I-000531J0000000D01*
G01*
G37*
G36*
G01*
X0294075Y0226280D02*
X0292619Y0226280D01*
G75*
G02*
X0292087Y0226811I0000000J0000531D01*
G01*
X0292087Y0227874D01*
G75*
G02*
X0292619Y0228406I0000531J0000000D01*
G01*
X0294075Y0228406D01*
G75*
G02*
X0294607Y0227874I0000000J-000531D01*
G01*
X0294607Y0226811D01*
G75*
G02*
X0294075Y0226280I-000531J0000000D01*
G01*
G37*
G36*
G01*
X0282126Y0222717D02*
X0280670Y0222717D01*
G75*
G02*
X0280138Y0223248I0000000J0000531D01*
G01*
X0280138Y0224311D01*
G75*
G02*
X0280670Y0224843I0000531J0000000D01*
G01*
X0282126Y0224843D01*
G75*
G02*
X0282658Y0224311I0000000J-000531D01*
G01*
X0282658Y0223248D01*
G75*
G02*
X0282126Y0222717I-000531J0000000D01*
G01*
G37*
G36*
G01*
X0282126Y0226732D02*
X0280670Y0226732D01*
G75*
G02*
X0280138Y0227264I0000000J0000531D01*
G01*
X0280138Y0228327D01*
G75*
G02*
X0280670Y0228858I0000531J0000000D01*
G01*
X0282126Y0228858D01*
G75*
G02*
X0282658Y0228327I0000000J-000531D01*
G01*
X0282658Y0227264D01*
G75*
G02*
X0282126Y0226732I-000531J0000000D01*
G01*
G37*
G36*
G01*
X0267973Y0221181D02*
X0269430Y0221181D01*
G75*
G02*
X0269961Y0220650I0000000J-000531D01*
G01*
X0269961Y0219587D01*
G75*
G02*
X0269430Y0219055I-000531J0000000D01*
G01*
X0267973Y0219055D01*
G75*
G02*
X0267441Y0219587I0000000J0000531D01*
G01*
X0267441Y0220650D01*
G75*
G02*
X0267973Y0221181I0000531J0000000D01*
G01*
G37*
G36*
G01*
X0267973Y0217165D02*
X0269430Y0217165D01*
G75*
G02*
X0269961Y0216634I0000000J-000531D01*
G01*
X0269961Y0215571D01*
G75*
G02*
X0269430Y0215039I-000531J0000000D01*
G01*
X0267973Y0215039D01*
G75*
G02*
X0267441Y0215571I0000000J0000531D01*
G01*
X0267441Y0216634D01*
G75*
G02*
X0267973Y0217165I0000531J0000000D01*
G01*
G37*
G36*
G01*
X0276890Y0228878D02*
X0278229Y0228878D01*
G75*
G02*
X0278780Y0228327I0000000J-000551D01*
G01*
X0278780Y0227224D01*
G75*
G02*
X0278229Y0226673I-000551J0000000D01*
G01*
X0276890Y0226673D01*
G75*
G02*
X0276339Y0227224I0000000J0000551D01*
G01*
X0276339Y0228327D01*
G75*
G02*
X0276890Y0228878I0000551J0000000D01*
G01*
G37*
G36*
G01*
X0276890Y0225098D02*
X0278229Y0225098D01*
G75*
G02*
X0278780Y0224547I0000000J-000551D01*
G01*
X0278780Y0223445D01*
G75*
G02*
X0278229Y0222894I-000551J0000000D01*
G01*
X0276890Y0222894D01*
G75*
G02*
X0276339Y0223445I0000000J0000551D01*
G01*
X0276339Y0224547D01*
G75*
G02*
X0276890Y0225098I0000551J0000000D01*
G01*
G37*
G36*
G01*
X0287105Y0189730D02*
X0287105Y0188392D01*
G75*
G02*
X0286554Y0187840I-000551J0000000D01*
G01*
X0285452Y0187840D01*
G75*
G02*
X0284900Y0188392I0000000J0000551D01*
G01*
X0284900Y0189730D01*
G75*
G02*
X0285452Y0190281I0000551J0000000D01*
G01*
X0286554Y0190281D01*
G75*
G02*
X0287105Y0189730I0000000J-000551D01*
G01*
G37*
G36*
G01*
X0283326Y0189730D02*
X0283326Y0188392D01*
G75*
G02*
X0282775Y0187840I-000551J0000000D01*
G01*
X0281672Y0187840D01*
G75*
G02*
X0281121Y0188392I0000000J0000551D01*
G01*
X0281121Y0189730D01*
G75*
G02*
X0281672Y0190281I0000551J0000000D01*
G01*
X0282775Y0190281D01*
G75*
G02*
X0283326Y0189730I0000000J-000551D01*
G01*
G37*
G36*
G01*
X0273170Y0222224D02*
X0271713Y0222224D01*
G75*
G02*
X0271182Y0222756I0000000J0000531D01*
G01*
X0271182Y0223819D01*
G75*
G02*
X0271713Y0224350I0000531J0000000D01*
G01*
X0273170Y0224350D01*
G75*
G02*
X0273701Y0223819I0000000J-000531D01*
G01*
X0273701Y0222756D01*
G75*
G02*
X0273170Y0222224I-000531J0000000D01*
G01*
G37*
G36*
G01*
X0273170Y0226240D02*
X0271713Y0226240D01*
G75*
G02*
X0271182Y0226772I0000000J0000531D01*
G01*
X0271182Y0227835D01*
G75*
G02*
X0271713Y0228366I0000531J0000000D01*
G01*
X0273170Y0228366D01*
G75*
G02*
X0273701Y0227835I0000000J-000531D01*
G01*
X0273701Y0226772D01*
G75*
G02*
X0273170Y0226240I-000531J0000000D01*
G01*
G37*
G36*
G01*
X0261811Y0204823D02*
X0262993Y0204823D01*
G75*
G02*
X0263583Y0204232I0000000J-000591D01*
G01*
X0263583Y0200197D01*
G75*
G02*
X0262993Y0199606I-000591J0000000D01*
G01*
X0261811Y0199606D01*
G75*
G02*
X0261221Y0200197I0000000J0000591D01*
G01*
X0261221Y0204232D01*
G75*
G02*
X0261811Y0204823I0000591J0000000D01*
G01*
G37*
G36*
G01*
X0265552Y0204823D02*
X0266733Y0204823D01*
G75*
G02*
X0267323Y0204232I0000000J-000591D01*
G01*
X0267323Y0200197D01*
G75*
G02*
X0266733Y0199606I-000591J0000000D01*
G01*
X0265552Y0199606D01*
G75*
G02*
X0264961Y0200197I0000000J0000591D01*
G01*
X0264961Y0204232D01*
G75*
G02*
X0265552Y0204823I0000591J0000000D01*
G01*
G37*
G36*
G01*
X0269292Y0204823D02*
X0270473Y0204823D01*
G75*
G02*
X0271063Y0204232I0000000J-000591D01*
G01*
X0271063Y0200197D01*
G75*
G02*
X0270473Y0199606I-000591J0000000D01*
G01*
X0269292Y0199606D01*
G75*
G02*
X0268701Y0200197I0000000J0000591D01*
G01*
X0268701Y0204232D01*
G75*
G02*
X0269292Y0204823I0000591J0000000D01*
G01*
G37*
G36*
G01*
X0269292Y0195866D02*
X0270473Y0195866D01*
G75*
G02*
X0271063Y0195276I0000000J-000591D01*
G01*
X0271063Y0191240D01*
G75*
G02*
X0270473Y0190650I-000591J0000000D01*
G01*
X0269292Y0190650D01*
G75*
G02*
X0268701Y0191240I0000000J0000591D01*
G01*
X0268701Y0195276D01*
G75*
G02*
X0269292Y0195866I0000591J0000000D01*
G01*
G37*
G36*
G01*
X0261811Y0195866D02*
X0262993Y0195866D01*
G75*
G02*
X0263583Y0195276I0000000J-000591D01*
G01*
X0263583Y0191240D01*
G75*
G02*
X0262993Y0190650I-000591J0000000D01*
G01*
X0261811Y0190650D01*
G75*
G02*
X0261221Y0191240I0000000J0000591D01*
G01*
X0261221Y0195276D01*
G75*
G02*
X0261811Y0195866I0000591J0000000D01*
G01*
G37*
G36*
G01*
X0265630Y0206516D02*
X0264292Y0206516D01*
G75*
G02*
X0263741Y0207067I0000000J0000551D01*
G01*
X0263741Y0208169D01*
G75*
G02*
X0264292Y0208721I0000551J0000000D01*
G01*
X0265630Y0208721D01*
G75*
G02*
X0266182Y0208169I0000000J-000551D01*
G01*
X0266182Y0207067D01*
G75*
G02*
X0265630Y0206516I-000551J0000000D01*
G01*
G37*
G36*
G01*
X0265630Y0210295D02*
X0264292Y0210295D01*
G75*
G02*
X0263741Y0210846I0000000J0000551D01*
G01*
X0263741Y0211949D01*
G75*
G02*
X0264292Y0212500I0000551J0000000D01*
G01*
X0265630Y0212500D01*
G75*
G02*
X0266182Y0211949I0000000J-000551D01*
G01*
X0266182Y0210846D01*
G75*
G02*
X0265630Y0210295I-000551J0000000D01*
G01*
G37*
X0256595Y0171014D02*
%LPD*%
G01*
D18*
X0229430Y0229282D03*
X0234154Y0229282D03*
X0224705Y0229282D03*
X0219981Y0229282D03*
X0245414Y0172490D03*
X0249351Y0172490D03*
X0104921Y0278839D02*
%LPD*%
G01*
G36*
G01*
X0122086Y0268209D02*
X0122086Y0271280D01*
G75*
G02*
X0122362Y0271556I0000276J0000000D01*
G01*
X0124567Y0271556D01*
G75*
G02*
X0124842Y0271280I0000000J-000276D01*
G01*
X0124842Y0268209D01*
G75*
G02*
X0124567Y0267933I-000276J0000000D01*
G01*
X0122362Y0267933D01*
G75*
G02*
X0122086Y0268209I0000000J0000276D01*
G01*
G37*
G36*
G01*
X0128386Y0268209D02*
X0128386Y0271280D01*
G75*
G02*
X0128661Y0271556I0000276J0000000D01*
G01*
X0130866Y0271556D01*
G75*
G02*
X0131141Y0271280I0000000J-000276D01*
G01*
X0131141Y0268209D01*
G75*
G02*
X0130866Y0267933I-000276J0000000D01*
G01*
X0128661Y0267933D01*
G75*
G02*
X0128386Y0268209I0000000J0000276D01*
G01*
G37*
G36*
G01*
X0142952Y0271280D02*
X0142952Y0268209D01*
G75*
G02*
X0142677Y0267933I-000276J0000000D01*
G01*
X0140472Y0267933D01*
G75*
G02*
X0140197Y0268209I0000000J0000276D01*
G01*
X0140197Y0271280D01*
G75*
G02*
X0140472Y0271556I0000276J0000000D01*
G01*
X0142677Y0271556D01*
G75*
G02*
X0142952Y0271280I0000000J-000276D01*
G01*
G37*
G36*
G01*
X0136653Y0271280D02*
X0136653Y0268209D01*
G75*
G02*
X0136378Y0267933I-000276J0000000D01*
G01*
X0134173Y0267933D01*
G75*
G02*
X0133897Y0268209I0000000J0000276D01*
G01*
X0133897Y0271280D01*
G75*
G02*
X0134173Y0271556I0000276J0000000D01*
G01*
X0136378Y0271556D01*
G75*
G02*
X0136653Y0271280I0000000J-000276D01*
G01*
G37*
G36*
G01*
X0140098Y0252028D02*
X0135964Y0252028D01*
G75*
G02*
X0135571Y0252422I0000000J0000394D01*
G01*
X0135571Y0255571D01*
G75*
G02*
X0135964Y0255965I0000394J0000000D01*
G01*
X0140098Y0255965D01*
G75*
G02*
X0140492Y0255571I0000000J-000394D01*
G01*
X0140492Y0252422D01*
G75*
G02*
X0140098Y0252028I-000394J0000000D01*
G01*
G37*
G36*
G01*
X0140098Y0259902D02*
X0135964Y0259902D01*
G75*
G02*
X0135571Y0260296I0000000J0000394D01*
G01*
X0135571Y0263445D01*
G75*
G02*
X0135964Y0263839I0000394J0000000D01*
G01*
X0140098Y0263839D01*
G75*
G02*
X0140492Y0263445I0000000J-000394D01*
G01*
X0140492Y0260296D01*
G75*
G02*
X0140098Y0259902I-000394J0000000D01*
G01*
G37*
G36*
G01*
X0121791Y0248878D02*
X0125925Y0248878D01*
G75*
G02*
X0126319Y0248485I0000000J-000394D01*
G01*
X0126319Y0245335D01*
G75*
G02*
X0125925Y0244941I-000394J0000000D01*
G01*
X0121791Y0244941D01*
G75*
G02*
X0121397Y0245335I0000000J0000394D01*
G01*
X0121397Y0248485D01*
G75*
G02*
X0121791Y0248878I0000394J0000000D01*
G01*
G37*
G36*
G01*
X0121791Y0241004D02*
X0125925Y0241004D01*
G75*
G02*
X0126319Y0240611I0000000J-000394D01*
G01*
X0126319Y0237461D01*
G75*
G02*
X0125925Y0237067I-000394J0000000D01*
G01*
X0121791Y0237067D01*
G75*
G02*
X0121397Y0237461I0000000J0000394D01*
G01*
X0121397Y0240611D01*
G75*
G02*
X0121791Y0241004I0000394J0000000D01*
G01*
G37*
G36*
G01*
X0119586Y0276989D02*
X0119586Y0274311D01*
G75*
G02*
X0119252Y0273977I-000335J0000000D01*
G01*
X0116575Y0273977D01*
G75*
G02*
X0116240Y0274311I0000000J0000335D01*
G01*
X0116240Y0276989D01*
G75*
G02*
X0116575Y0277323I0000335J0000000D01*
G01*
X0119252Y0277323D01*
G75*
G02*
X0119586Y0276989I0000000J-000335D01*
G01*
G37*
G36*
G01*
X0113366Y0276989D02*
X0113366Y0274311D01*
G75*
G02*
X0113031Y0273977I-000335J0000000D01*
G01*
X0110354Y0273977D01*
G75*
G02*
X0110019Y0274311I0000000J0000335D01*
G01*
X0110019Y0276989D01*
G75*
G02*
X0110354Y0277323I0000335J0000000D01*
G01*
X0113031Y0277323D01*
G75*
G02*
X0113366Y0276989I0000000J-000335D01*
G01*
G37*
G36*
G01*
X0117519Y0232894D02*
X0117519Y0230217D01*
G75*
G02*
X0117185Y0229882I-000335J0000000D01*
G01*
X0114508Y0229882D01*
G75*
G02*
X0114173Y0230217I0000000J0000335D01*
G01*
X0114173Y0232894D01*
G75*
G02*
X0114508Y0233229I0000335J0000000D01*
G01*
X0117185Y0233229D01*
G75*
G02*
X0117519Y0232894I0000000J-000335D01*
G01*
G37*
G36*
G01*
X0111299Y0232894D02*
X0111299Y0230217D01*
G75*
G02*
X0110964Y0229882I-000335J0000000D01*
G01*
X0108287Y0229882D01*
G75*
G02*
X0107952Y0230217I0000000J0000335D01*
G01*
X0107952Y0232894D01*
G75*
G02*
X0108287Y0233229I0000335J0000000D01*
G01*
X0110964Y0233229D01*
G75*
G02*
X0111299Y0232894I0000000J-000335D01*
G01*
G37*
G36*
G01*
X0133012Y0252028D02*
X0128878Y0252028D01*
G75*
G02*
X0128484Y0252422I0000000J0000394D01*
G01*
X0128484Y0255571D01*
G75*
G02*
X0128878Y0255965I0000394J0000000D01*
G01*
X0133012Y0255965D01*
G75*
G02*
X0133405Y0255571I0000000J-000394D01*
G01*
X0133405Y0252422D01*
G75*
G02*
X0133012Y0252028I-000394J0000000D01*
G01*
G37*
G36*
G01*
X0133012Y0259902D02*
X0128878Y0259902D01*
G75*
G02*
X0128484Y0260296I0000000J0000394D01*
G01*
X0128484Y0263445D01*
G75*
G02*
X0128878Y0263839I0000394J0000000D01*
G01*
X0133012Y0263839D01*
G75*
G02*
X0133405Y0263445I0000000J-000394D01*
G01*
X0133405Y0260296D01*
G75*
G02*
X0133012Y0259902I-000394J0000000D01*
G01*
G37*
G36*
G01*
X0128878Y0248878D02*
X0133012Y0248878D01*
G75*
G02*
X0133405Y0248485I0000000J-000394D01*
G01*
X0133405Y0245335D01*
G75*
G02*
X0133012Y0244941I-000394J0000000D01*
G01*
X0128878Y0244941D01*
G75*
G02*
X0128484Y0245335I0000000J0000394D01*
G01*
X0128484Y0248485D01*
G75*
G02*
X0128878Y0248878I0000394J0000000D01*
G01*
G37*
G36*
G01*
X0128878Y0241004D02*
X0133012Y0241004D01*
G75*
G02*
X0133405Y0240611I0000000J-000394D01*
G01*
X0133405Y0237461D01*
G75*
G02*
X0133012Y0237067I-000394J0000000D01*
G01*
X0128878Y0237067D01*
G75*
G02*
X0128484Y0237461I0000000J0000394D01*
G01*
X0128484Y0240611D01*
G75*
G02*
X0128878Y0241004I0000394J0000000D01*
G01*
G37*
G36*
G01*
X0118838Y0252028D02*
X0114704Y0252028D01*
G75*
G02*
X0114311Y0252422I0000000J0000394D01*
G01*
X0114311Y0255571D01*
G75*
G02*
X0114704Y0255965I0000394J0000000D01*
G01*
X0118838Y0255965D01*
G75*
G02*
X0119232Y0255571I0000000J-000394D01*
G01*
X0119232Y0252422D01*
G75*
G02*
X0118838Y0252028I-000394J0000000D01*
G01*
G37*
G36*
G01*
X0118838Y0259902D02*
X0114704Y0259902D01*
G75*
G02*
X0114311Y0260296I0000000J0000394D01*
G01*
X0114311Y0263445D01*
G75*
G02*
X0114704Y0263839I0000394J0000000D01*
G01*
X0118838Y0263839D01*
G75*
G02*
X0119232Y0263445I0000000J-000394D01*
G01*
X0119232Y0260296D01*
G75*
G02*
X0118838Y0259902I-000394J0000000D01*
G01*
G37*
G36*
G01*
X0107618Y0248878D02*
X0111752Y0248878D01*
G75*
G02*
X0112145Y0248485I0000000J-000394D01*
G01*
X0112145Y0245335D01*
G75*
G02*
X0111752Y0244941I-000394J0000000D01*
G01*
X0107618Y0244941D01*
G75*
G02*
X0107224Y0245335I0000000J0000394D01*
G01*
X0107224Y0248485D01*
G75*
G02*
X0107618Y0248878I0000394J0000000D01*
G01*
G37*
G36*
G01*
X0107618Y0241004D02*
X0111752Y0241004D01*
G75*
G02*
X0112145Y0240611I0000000J-000394D01*
G01*
X0112145Y0237461D01*
G75*
G02*
X0111752Y0237067I-000394J0000000D01*
G01*
X0107618Y0237067D01*
G75*
G02*
X0107224Y0237461I0000000J0000394D01*
G01*
X0107224Y0240611D01*
G75*
G02*
X0107618Y0241004I0000394J0000000D01*
G01*
G37*
G36*
G01*
X0119586Y0271083D02*
X0119586Y0268406D01*
G75*
G02*
X0119252Y0268071I-000335J0000000D01*
G01*
X0116575Y0268071D01*
G75*
G02*
X0116240Y0268406I0000000J0000335D01*
G01*
X0116240Y0271083D01*
G75*
G02*
X0116575Y0271418I0000335J0000000D01*
G01*
X0119252Y0271418D01*
G75*
G02*
X0119586Y0271083I0000000J-000335D01*
G01*
G37*
G36*
G01*
X0113366Y0271083D02*
X0113366Y0268406D01*
G75*
G02*
X0113031Y0268071I-000335J0000000D01*
G01*
X0110354Y0268071D01*
G75*
G02*
X0110019Y0268406I0000000J0000335D01*
G01*
X0110019Y0271083D01*
G75*
G02*
X0110354Y0271418I0000335J0000000D01*
G01*
X0113031Y0271418D01*
G75*
G02*
X0113366Y0271083I0000000J-000335D01*
G01*
G37*
G36*
G01*
X0111752Y0252028D02*
X0107618Y0252028D01*
G75*
G02*
X0107224Y0252422I0000000J0000394D01*
G01*
X0107224Y0255571D01*
G75*
G02*
X0107618Y0255965I0000394J0000000D01*
G01*
X0111752Y0255965D01*
G75*
G02*
X0112145Y0255571I0000000J-000394D01*
G01*
X0112145Y0252422D01*
G75*
G02*
X0111752Y0252028I-000394J0000000D01*
G01*
G37*
G36*
G01*
X0111752Y0259902D02*
X0107618Y0259902D01*
G75*
G02*
X0107224Y0260296I0000000J0000394D01*
G01*
X0107224Y0263445D01*
G75*
G02*
X0107618Y0263839I0000394J0000000D01*
G01*
X0111752Y0263839D01*
G75*
G02*
X0112145Y0263445I0000000J-000394D01*
G01*
X0112145Y0260296D01*
G75*
G02*
X0111752Y0259902I-000394J0000000D01*
G01*
G37*
G36*
G01*
X0114704Y0248878D02*
X0118838Y0248878D01*
G75*
G02*
X0119232Y0248485I0000000J-000394D01*
G01*
X0119232Y0245335D01*
G75*
G02*
X0118838Y0244941I-000394J0000000D01*
G01*
X0114704Y0244941D01*
G75*
G02*
X0114311Y0245335I0000000J0000394D01*
G01*
X0114311Y0248485D01*
G75*
G02*
X0114704Y0248878I0000394J0000000D01*
G01*
G37*
G36*
G01*
X0114704Y0241004D02*
X0118838Y0241004D01*
G75*
G02*
X0119232Y0240611I0000000J-000394D01*
G01*
X0119232Y0237461D01*
G75*
G02*
X0118838Y0237067I-000394J0000000D01*
G01*
X0114704Y0237067D01*
G75*
G02*
X0114311Y0237461I0000000J0000394D01*
G01*
X0114311Y0240611D01*
G75*
G02*
X0114704Y0241004I0000394J0000000D01*
G01*
G37*
G36*
G01*
X0135964Y0248878D02*
X0140098Y0248878D01*
G75*
G02*
X0140492Y0248485I0000000J-000394D01*
G01*
X0140492Y0245335D01*
G75*
G02*
X0140098Y0244941I-000394J0000000D01*
G01*
X0135964Y0244941D01*
G75*
G02*
X0135571Y0245335I0000000J0000394D01*
G01*
X0135571Y0248485D01*
G75*
G02*
X0135964Y0248878I0000394J0000000D01*
G01*
G37*
G36*
G01*
X0135964Y0241004D02*
X0140098Y0241004D01*
G75*
G02*
X0140492Y0240611I0000000J-000394D01*
G01*
X0140492Y0237461D01*
G75*
G02*
X0140098Y0237067I-000394J0000000D01*
G01*
X0135964Y0237067D01*
G75*
G02*
X0135571Y0237461I0000000J0000394D01*
G01*
X0135571Y0240611D01*
G75*
G02*
X0135964Y0241004I0000394J0000000D01*
G01*
G37*
G36*
G01*
X0125925Y0252028D02*
X0121791Y0252028D01*
G75*
G02*
X0121397Y0252422I0000000J0000394D01*
G01*
X0121397Y0255571D01*
G75*
G02*
X0121791Y0255965I0000394J0000000D01*
G01*
X0125925Y0255965D01*
G75*
G02*
X0126319Y0255571I0000000J-000394D01*
G01*
X0126319Y0252422D01*
G75*
G02*
X0125925Y0252028I-000394J0000000D01*
G01*
G37*
G36*
G01*
X0125925Y0259902D02*
X0121791Y0259902D01*
G75*
G02*
X0121397Y0260296I0000000J0000394D01*
G01*
X0121397Y0263445D01*
G75*
G02*
X0121791Y0263839I0000394J0000000D01*
G01*
X0125925Y0263839D01*
G75*
G02*
X0126319Y0263445I0000000J-000394D01*
G01*
X0126319Y0260296D01*
G75*
G02*
X0125925Y0259902I-000394J0000000D01*
G01*
G37*
X0290157Y0280413D02*
%LPD*%
G01*
D153*
X0381338Y0292027D03*
X0373464Y0303838D03*
X0365590Y0292027D03*
D167*
X0294330Y0291240D03*
X0314330Y0287240D03*
X0314330Y0295240D03*
D164*
X0383818Y0330118D03*
D165*
X0373818Y0330118D03*
X0363818Y0330118D03*
G36*
G01*
X0369862Y0287772D02*
X0369862Y0289130D01*
G75*
G02*
X0370442Y0289711I0000581J0000000D01*
G01*
X0371604Y0289711D01*
G75*
G02*
X0372185Y0289130I0000000J-000581D01*
G01*
X0372185Y0287772D01*
G75*
G02*
X0371604Y0287191I-000581J0000000D01*
G01*
X0370442Y0287191D01*
G75*
G02*
X0369862Y0287772I0000000J0000581D01*
G01*
G37*
G36*
G01*
X0373681Y0287772D02*
X0373681Y0289130D01*
G75*
G02*
X0374261Y0289711I0000581J0000000D01*
G01*
X0375423Y0289711D01*
G75*
G02*
X0376003Y0289130I0000000J-000581D01*
G01*
X0376003Y0287772D01*
G75*
G02*
X0375423Y0287191I-000581J0000000D01*
G01*
X0374261Y0287191D01*
G75*
G02*
X0373681Y0287772I0000000J0000581D01*
G01*
G37*
G36*
G01*
X0384330Y0303061D02*
X0384330Y0304419D01*
G75*
G02*
X0384911Y0305000I0000581J0000000D01*
G01*
X0386072Y0305000D01*
G75*
G02*
X0386653Y0304419I0000000J-000581D01*
G01*
X0386653Y0303061D01*
G75*
G02*
X0386072Y0302480I-000581J0000000D01*
G01*
X0384911Y0302480D01*
G75*
G02*
X0384330Y0303061I0000000J0000581D01*
G01*
G37*
G36*
G01*
X0388149Y0303061D02*
X0388149Y0304419D01*
G75*
G02*
X0388730Y0305000I0000581J0000000D01*
G01*
X0389891Y0305000D01*
G75*
G02*
X0390472Y0304419I0000000J-000581D01*
G01*
X0390472Y0303061D01*
G75*
G02*
X0389891Y0302480I-000581J0000000D01*
G01*
X0388730Y0302480D01*
G75*
G02*
X0388149Y0303061I0000000J0000581D01*
G01*
G37*
G36*
G01*
X0334448Y0329257D02*
X0334448Y0327239D01*
G75*
G02*
X0333587Y0326378I-000861J0000000D01*
G01*
X0331865Y0326378D01*
G75*
G02*
X0331003Y0327239I0000000J0000861D01*
G01*
X0331003Y0329257D01*
G75*
G02*
X0331865Y0330118I0000861J0000000D01*
G01*
X0333587Y0330118D01*
G75*
G02*
X0334448Y0329257I0000000J-000861D01*
G01*
G37*
G36*
G01*
X0328248Y0329257D02*
X0328248Y0327239D01*
G75*
G02*
X0327386Y0326378I-000861J0000000D01*
G01*
X0325664Y0326378D01*
G75*
G02*
X0324803Y0327239I0000000J0000861D01*
G01*
X0324803Y0329257D01*
G75*
G02*
X0325664Y0330118I0000861J0000000D01*
G01*
X0327386Y0330118D01*
G75*
G02*
X0328248Y0329257I0000000J-000861D01*
G01*
G37*
G36*
G01*
X0376003Y0284931D02*
X0376003Y0283572D01*
G75*
G02*
X0375423Y0282992I-000581J0000000D01*
G01*
X0374261Y0282992D01*
G75*
G02*
X0373681Y0283572I0000000J0000581D01*
G01*
X0373681Y0284931D01*
G75*
G02*
X0374261Y0285511I0000581J0000000D01*
G01*
X0375423Y0285511D01*
G75*
G02*
X0376003Y0284931I0000000J-000581D01*
G01*
G37*
G36*
G01*
X0372185Y0284931D02*
X0372185Y0283572D01*
G75*
G02*
X0371604Y0282992I-000581J0000000D01*
G01*
X0370442Y0282992D01*
G75*
G02*
X0369862Y0283572I0000000J0000581D01*
G01*
X0369862Y0284931D01*
G75*
G02*
X0370442Y0285511I0000581J0000000D01*
G01*
X0371604Y0285511D01*
G75*
G02*
X0372185Y0284931I0000000J-000581D01*
G01*
G37*
G36*
G01*
X0316302Y0323927D02*
X0316302Y0325285D01*
G75*
G02*
X0316882Y0325866I0000581J0000000D01*
G01*
X0318044Y0325866D01*
G75*
G02*
X0318624Y0325285I0000000J-000581D01*
G01*
X0318624Y0323927D01*
G75*
G02*
X0318044Y0323346I-000581J0000000D01*
G01*
X0316882Y0323346D01*
G75*
G02*
X0316302Y0323927I0000000J0000581D01*
G01*
G37*
G36*
G01*
X0320120Y0323927D02*
X0320120Y0325285D01*
G75*
G02*
X0320701Y0325866I0000581J0000000D01*
G01*
X0321863Y0325866D01*
G75*
G02*
X0322443Y0325285I0000000J-000581D01*
G01*
X0322443Y0323927D01*
G75*
G02*
X0321863Y0323346I-000581J0000000D01*
G01*
X0320701Y0323346D01*
G75*
G02*
X0320120Y0323927I0000000J0000581D01*
G01*
G37*
G36*
G01*
X0324389Y0322057D02*
X0324389Y0323415D01*
G75*
G02*
X0324970Y0323996I0000581J0000000D01*
G01*
X0326131Y0323996D01*
G75*
G02*
X0326712Y0323415I0000000J-000581D01*
G01*
X0326712Y0322057D01*
G75*
G02*
X0326131Y0321476I-000581J0000000D01*
G01*
X0324970Y0321476D01*
G75*
G02*
X0324389Y0322057I0000000J0000581D01*
G01*
G37*
G36*
G01*
X0328208Y0322057D02*
X0328208Y0323415D01*
G75*
G02*
X0328789Y0323996I0000581J0000000D01*
G01*
X0329950Y0323996D01*
G75*
G02*
X0330531Y0323415I0000000J-000581D01*
G01*
X0330531Y0322057D01*
G75*
G02*
X0329950Y0321476I-000581J0000000D01*
G01*
X0328789Y0321476D01*
G75*
G02*
X0328208Y0322057I0000000J0000581D01*
G01*
G37*
G36*
G01*
X0295777Y0329389D02*
X0297135Y0329389D01*
G75*
G02*
X0297716Y0328809I0000000J-000581D01*
G01*
X0297716Y0327647D01*
G75*
G02*
X0297135Y0327067I-000581J0000000D01*
G01*
X0295777Y0327067D01*
G75*
G02*
X0295196Y0327647I0000000J0000581D01*
G01*
X0295196Y0328809D01*
G75*
G02*
X0295777Y0329389I0000581J0000000D01*
G01*
G37*
G36*
G01*
X0295777Y0325570D02*
X0297135Y0325570D01*
G75*
G02*
X0297716Y0324990I0000000J-000581D01*
G01*
X0297716Y0323828D01*
G75*
G02*
X0297135Y0323248I-000581J0000000D01*
G01*
X0295777Y0323248D01*
G75*
G02*
X0295196Y0323828I0000000J0000581D01*
G01*
X0295196Y0324990D01*
G75*
G02*
X0295777Y0325570I0000581J0000000D01*
G01*
G37*
G36*
G01*
X0345295Y0311801D02*
X0345295Y0310443D01*
G75*
G02*
X0344714Y0309862I-000581J0000000D01*
G01*
X0343553Y0309862D01*
G75*
G02*
X0342972Y0310443I0000000J0000581D01*
G01*
X0342972Y0311801D01*
G75*
G02*
X0343553Y0312382I0000581J0000000D01*
G01*
X0344714Y0312382D01*
G75*
G02*
X0345295Y0311801I0000000J-000581D01*
G01*
G37*
G36*
G01*
X0341476Y0311801D02*
X0341476Y0310443D01*
G75*
G02*
X0340895Y0309862I-000581J0000000D01*
G01*
X0339734Y0309862D01*
G75*
G02*
X0339153Y0310443I0000000J0000581D01*
G01*
X0339153Y0311801D01*
G75*
G02*
X0339734Y0312382I0000581J0000000D01*
G01*
X0340895Y0312382D01*
G75*
G02*
X0341476Y0311801I0000000J-000581D01*
G01*
G37*
G36*
G01*
X0339153Y0306506D02*
X0339153Y0307864D01*
G75*
G02*
X0339734Y0308444I0000581J0000000D01*
G01*
X0340895Y0308444D01*
G75*
G02*
X0341476Y0307864I0000000J-000581D01*
G01*
X0341476Y0306506D01*
G75*
G02*
X0340895Y0305925I-000581J0000000D01*
G01*
X0339734Y0305925D01*
G75*
G02*
X0339153Y0306506I0000000J0000581D01*
G01*
G37*
G36*
G01*
X0342972Y0306506D02*
X0342972Y0307864D01*
G75*
G02*
X0343553Y0308444I0000581J0000000D01*
G01*
X0344714Y0308444D01*
G75*
G02*
X0345295Y0307864I0000000J-000581D01*
G01*
X0345295Y0306506D01*
G75*
G02*
X0344714Y0305925I-000581J0000000D01*
G01*
X0343553Y0305925D01*
G75*
G02*
X0342972Y0306506I0000000J0000581D01*
G01*
G37*
G36*
G01*
X0386633Y0308946D02*
X0386633Y0307588D01*
G75*
G02*
X0386053Y0307007I-000581J0000000D01*
G01*
X0384891Y0307007D01*
G75*
G02*
X0384311Y0307588I0000000J0000581D01*
G01*
X0384311Y0308946D01*
G75*
G02*
X0384891Y0309527I0000581J0000000D01*
G01*
X0386053Y0309527D01*
G75*
G02*
X0386633Y0308946I0000000J-000581D01*
G01*
G37*
G36*
G01*
X0382814Y0308946D02*
X0382814Y0307588D01*
G75*
G02*
X0382234Y0307007I-000581J0000000D01*
G01*
X0381072Y0307007D01*
G75*
G02*
X0380492Y0307588I0000000J0000581D01*
G01*
X0380492Y0308946D01*
G75*
G02*
X0381072Y0309527I0000581J0000000D01*
G01*
X0382234Y0309527D01*
G75*
G02*
X0382814Y0308946I0000000J-000581D01*
G01*
G37*
D171*
X0332283Y0285531D03*
X0332283Y0288090D03*
X0332283Y0290649D03*
X0332283Y0293208D03*
X0332283Y0295767D03*
X0332283Y0298326D03*
X0332283Y0300885D03*
X0355511Y0300885D03*
X0355511Y0298326D03*
X0355511Y0295767D03*
X0355511Y0293208D03*
X0355511Y0290649D03*
X0355511Y0288090D03*
X0355511Y0285531D03*
G36*
G01*
X0322460Y0329025D02*
X0322460Y0327667D01*
G75*
G02*
X0321879Y0327086I-000581J0000000D01*
G01*
X0320718Y0327086D01*
G75*
G02*
X0320137Y0327667I0000000J0000581D01*
G01*
X0320137Y0329025D01*
G75*
G02*
X0320718Y0329606I0000581J0000000D01*
G01*
X0321879Y0329606D01*
G75*
G02*
X0322460Y0329025I0000000J-000581D01*
G01*
G37*
G36*
G01*
X0318641Y0329025D02*
X0318641Y0327667D01*
G75*
G02*
X0318061Y0327086I-000581J0000000D01*
G01*
X0316899Y0327086D01*
G75*
G02*
X0316318Y0327667I0000000J0000581D01*
G01*
X0316318Y0329025D01*
G75*
G02*
X0316899Y0329606I0000581J0000000D01*
G01*
X0318061Y0329606D01*
G75*
G02*
X0318641Y0329025I0000000J-000581D01*
G01*
G37*
G36*
G01*
X0316318Y0331407D02*
X0316318Y0332765D01*
G75*
G02*
X0316899Y0333346I0000581J0000000D01*
G01*
X0318061Y0333346D01*
G75*
G02*
X0318641Y0332765I0000000J-000581D01*
G01*
X0318641Y0331407D01*
G75*
G02*
X0318061Y0330826I-000581J0000000D01*
G01*
X0316899Y0330826D01*
G75*
G02*
X0316318Y0331407I0000000J0000581D01*
G01*
G37*
G36*
G01*
X0320137Y0331407D02*
X0320137Y0332765D01*
G75*
G02*
X0320718Y0333346I0000581J0000000D01*
G01*
X0321879Y0333346D01*
G75*
G02*
X0322460Y0332765I0000000J-000581D01*
G01*
X0322460Y0331407D01*
G75*
G02*
X0321879Y0330826I-000581J0000000D01*
G01*
X0320718Y0330826D01*
G75*
G02*
X0320137Y0331407I0000000J0000581D01*
G01*
G37*
G36*
G01*
X0376555Y0321958D02*
X0376555Y0323317D01*
G75*
G02*
X0377135Y0323897I0000581J0000000D01*
G01*
X0378297Y0323897D01*
G75*
G02*
X0378877Y0323317I0000000J-000581D01*
G01*
X0378877Y0321958D01*
G75*
G02*
X0378297Y0321378I-000581J0000000D01*
G01*
X0377135Y0321378D01*
G75*
G02*
X0376555Y0321958I0000000J0000581D01*
G01*
G37*
G36*
G01*
X0380374Y0321958D02*
X0380374Y0323317D01*
G75*
G02*
X0380954Y0323897I0000581J0000000D01*
G01*
X0382116Y0323897D01*
G75*
G02*
X0382696Y0323317I0000000J-000581D01*
G01*
X0382696Y0321958D01*
G75*
G02*
X0382116Y0321378I-000581J0000000D01*
G01*
X0380954Y0321378D01*
G75*
G02*
X0380374Y0321958I0000000J0000581D01*
G01*
G37*
G36*
G01*
X0369862Y0292660D02*
X0369862Y0294019D01*
G75*
G02*
X0370442Y0294599I0000581J0000000D01*
G01*
X0371604Y0294599D01*
G75*
G02*
X0372185Y0294019I0000000J-000581D01*
G01*
X0372185Y0292660D01*
G75*
G02*
X0371604Y0292080I-000581J0000000D01*
G01*
X0370442Y0292080D01*
G75*
G02*
X0369862Y0292660I0000000J0000581D01*
G01*
G37*
G36*
G01*
X0373681Y0292660D02*
X0373681Y0294019D01*
G75*
G02*
X0374261Y0294599I0000581J0000000D01*
G01*
X0375423Y0294599D01*
G75*
G02*
X0376003Y0294019I0000000J-000581D01*
G01*
X0376003Y0292660D01*
G75*
G02*
X0375423Y0292080I-000581J0000000D01*
G01*
X0374261Y0292080D01*
G75*
G02*
X0373681Y0292660I0000000J0000581D01*
G01*
G37*
G36*
G01*
X0342047Y0315738D02*
X0342047Y0314380D01*
G75*
G02*
X0341466Y0313799I-000581J0000000D01*
G01*
X0340305Y0313799D01*
G75*
G02*
X0339724Y0314380I0000000J0000581D01*
G01*
X0339724Y0315738D01*
G75*
G02*
X0340305Y0316319I0000581J0000000D01*
G01*
X0341466Y0316319D01*
G75*
G02*
X0342047Y0315738I0000000J-000581D01*
G01*
G37*
G36*
G01*
X0338228Y0315738D02*
X0338228Y0314380D01*
G75*
G02*
X0337647Y0313799I-000581J0000000D01*
G01*
X0336486Y0313799D01*
G75*
G02*
X0335905Y0314380I0000000J0000581D01*
G01*
X0335905Y0315738D01*
G75*
G02*
X0336486Y0316319I0000581J0000000D01*
G01*
X0337647Y0316319D01*
G75*
G02*
X0338228Y0315738I0000000J-000581D01*
G01*
G37*
G36*
G01*
X0390374Y0323317D02*
X0390374Y0321958D01*
G75*
G02*
X0389793Y0321378I-000581J0000000D01*
G01*
X0388631Y0321378D01*
G75*
G02*
X0388051Y0321958I0000000J0000581D01*
G01*
X0388051Y0323317D01*
G75*
G02*
X0388631Y0323897I0000581J0000000D01*
G01*
X0389793Y0323897D01*
G75*
G02*
X0390374Y0323317I0000000J-000581D01*
G01*
G37*
G36*
G01*
X0386555Y0323317D02*
X0386555Y0321958D01*
G75*
G02*
X0385974Y0321378I-000581J0000000D01*
G01*
X0384813Y0321378D01*
G75*
G02*
X0384232Y0321958I0000000J0000581D01*
G01*
X0384232Y0323317D01*
G75*
G02*
X0384813Y0323897I0000581J0000000D01*
G01*
X0385974Y0323897D01*
G75*
G02*
X0386555Y0323317I0000000J-000581D01*
G01*
G37*
G36*
G01*
X0337913Y0307864D02*
X0337913Y0306506D01*
G75*
G02*
X0337332Y0305925I-000581J0000000D01*
G01*
X0336171Y0305925D01*
G75*
G02*
X0335590Y0306506I0000000J0000581D01*
G01*
X0335590Y0307864D01*
G75*
G02*
X0336171Y0308444I0000581J0000000D01*
G01*
X0337332Y0308444D01*
G75*
G02*
X0337913Y0307864I0000000J-000581D01*
G01*
G37*
G36*
G01*
X0334094Y0307864D02*
X0334094Y0306506D01*
G75*
G02*
X0333513Y0305925I-000581J0000000D01*
G01*
X0332352Y0305925D01*
G75*
G02*
X0331771Y0306506I0000000J0000581D01*
G01*
X0331771Y0307864D01*
G75*
G02*
X0332352Y0308444I0000581J0000000D01*
G01*
X0333513Y0308444D01*
G75*
G02*
X0334094Y0307864I0000000J-000581D01*
G01*
G37*
G36*
G01*
X0326663Y0283248D02*
X0325305Y0283248D01*
G75*
G02*
X0324724Y0283828I0000000J0000581D01*
G01*
X0324724Y0284990D01*
G75*
G02*
X0325305Y0285570I0000581J0000000D01*
G01*
X0326663Y0285570D01*
G75*
G02*
X0327244Y0284990I0000000J-000581D01*
G01*
X0327244Y0283828D01*
G75*
G02*
X0326663Y0283248I-000581J0000000D01*
G01*
G37*
G36*
G01*
X0326663Y0287067D02*
X0325305Y0287067D01*
G75*
G02*
X0324724Y0287647I0000000J0000581D01*
G01*
X0324724Y0288809D01*
G75*
G02*
X0325305Y0289389I0000581J0000000D01*
G01*
X0326663Y0289389D01*
G75*
G02*
X0327244Y0288809I0000000J-000581D01*
G01*
X0327244Y0287647D01*
G75*
G02*
X0326663Y0287067I-000581J0000000D01*
G01*
G37*
G36*
G01*
X0352775Y0311801D02*
X0352775Y0310443D01*
G75*
G02*
X0352194Y0309862I-000581J0000000D01*
G01*
X0351033Y0309862D01*
G75*
G02*
X0350452Y0310443I0000000J0000581D01*
G01*
X0350452Y0311801D01*
G75*
G02*
X0351033Y0312382I0000581J0000000D01*
G01*
X0352194Y0312382D01*
G75*
G02*
X0352775Y0311801I0000000J-000581D01*
G01*
G37*
G36*
G01*
X0348956Y0311801D02*
X0348956Y0310443D01*
G75*
G02*
X0348376Y0309862I-000581J0000000D01*
G01*
X0347214Y0309862D01*
G75*
G02*
X0346633Y0310443I0000000J0000581D01*
G01*
X0346633Y0311801D01*
G75*
G02*
X0347214Y0312382I0000581J0000000D01*
G01*
X0348376Y0312382D01*
G75*
G02*
X0348956Y0311801I0000000J-000581D01*
G01*
G37*
G36*
G01*
X0354114Y0310443D02*
X0354114Y0311801D01*
G75*
G02*
X0354694Y0312382I0000581J0000000D01*
G01*
X0355856Y0312382D01*
G75*
G02*
X0356437Y0311801I0000000J-000581D01*
G01*
X0356437Y0310443D01*
G75*
G02*
X0355856Y0309862I-000581J0000000D01*
G01*
X0354694Y0309862D01*
G75*
G02*
X0354114Y0310443I0000000J0000581D01*
G01*
G37*
G36*
G01*
X0357933Y0310443D02*
X0357933Y0311801D01*
G75*
G02*
X0358513Y0312382I0000581J0000000D01*
G01*
X0359675Y0312382D01*
G75*
G02*
X0360255Y0311801I0000000J-000581D01*
G01*
X0360255Y0310443D01*
G75*
G02*
X0359675Y0309862I-000581J0000000D01*
G01*
X0358513Y0309862D01*
G75*
G02*
X0357933Y0310443I0000000J0000581D01*
G01*
G37*
G36*
G01*
X0322923Y0283248D02*
X0321564Y0283248D01*
G75*
G02*
X0320984Y0283828I0000000J0000581D01*
G01*
X0320984Y0284990D01*
G75*
G02*
X0321564Y0285570I0000581J0000000D01*
G01*
X0322923Y0285570D01*
G75*
G02*
X0323503Y0284990I0000000J-000581D01*
G01*
X0323503Y0283828D01*
G75*
G02*
X0322923Y0283248I-000581J0000000D01*
G01*
G37*
G36*
G01*
X0322923Y0287067D02*
X0321564Y0287067D01*
G75*
G02*
X0320984Y0287647I0000000J0000581D01*
G01*
X0320984Y0288809D01*
G75*
G02*
X0321564Y0289389I0000581J0000000D01*
G01*
X0322923Y0289389D01*
G75*
G02*
X0323503Y0288809I0000000J-000581D01*
G01*
X0323503Y0287647D01*
G75*
G02*
X0322923Y0287067I-000581J0000000D01*
G01*
G37*
D172*
X0312244Y0332086D03*
X0312244Y0328346D03*
X0312244Y0324606D03*
X0301929Y0324606D03*
X0301929Y0332086D03*
G36*
G01*
X0346732Y0314380D02*
X0346732Y0315738D01*
G75*
G02*
X0347313Y0316319I0000581J0000000D01*
G01*
X0348474Y0316319D01*
G75*
G02*
X0349055Y0315738I0000000J-000581D01*
G01*
X0349055Y0314380D01*
G75*
G02*
X0348474Y0313799I-000581J0000000D01*
G01*
X0347313Y0313799D01*
G75*
G02*
X0346732Y0314380I0000000J0000581D01*
G01*
G37*
G36*
G01*
X0350551Y0314380D02*
X0350551Y0315738D01*
G75*
G02*
X0351131Y0316319I0000581J0000000D01*
G01*
X0352293Y0316319D01*
G75*
G02*
X0352874Y0315738I0000000J-000581D01*
G01*
X0352874Y0314380D01*
G75*
G02*
X0352293Y0313799I-000581J0000000D01*
G01*
X0351131Y0313799D01*
G75*
G02*
X0350551Y0314380I0000000J0000581D01*
G01*
G37*
G36*
G01*
X0334143Y0318484D02*
X0332785Y0318484D01*
G75*
G02*
X0332204Y0319065I0000000J0000581D01*
G01*
X0332204Y0320226D01*
G75*
G02*
X0332785Y0320807I0000581J0000000D01*
G01*
X0334143Y0320807D01*
G75*
G02*
X0334724Y0320226I0000000J-000581D01*
G01*
X0334724Y0319065D01*
G75*
G02*
X0334143Y0318484I-000581J0000000D01*
G01*
G37*
G36*
G01*
X0334143Y0322303D02*
X0332785Y0322303D01*
G75*
G02*
X0332204Y0322883I0000000J0000581D01*
G01*
X0332204Y0324045D01*
G75*
G02*
X0332785Y0324626I0000581J0000000D01*
G01*
X0334143Y0324626D01*
G75*
G02*
X0334724Y0324045I0000000J-000581D01*
G01*
X0334724Y0322883D01*
G75*
G02*
X0334143Y0322303I-000581J0000000D01*
G01*
G37*
G36*
G01*
X0325305Y0298051D02*
X0326663Y0298051D01*
G75*
G02*
X0327244Y0297470I0000000J-000581D01*
G01*
X0327244Y0296309D01*
G75*
G02*
X0326663Y0295728I-000581J0000000D01*
G01*
X0325305Y0295728D01*
G75*
G02*
X0324724Y0296309I0000000J0000581D01*
G01*
X0324724Y0297470D01*
G75*
G02*
X0325305Y0298051I0000581J0000000D01*
G01*
G37*
G36*
G01*
X0325305Y0294232D02*
X0326663Y0294232D01*
G75*
G02*
X0327244Y0293651I0000000J-000581D01*
G01*
X0327244Y0292490D01*
G75*
G02*
X0326663Y0291909I-000581J0000000D01*
G01*
X0325305Y0291909D01*
G75*
G02*
X0324724Y0292490I0000000J0000581D01*
G01*
X0324724Y0293651D01*
G75*
G02*
X0325305Y0294232I0000581J0000000D01*
G01*
G37*
G36*
G01*
X0368425Y0299006D02*
X0368425Y0297647D01*
G75*
G02*
X0367844Y0297067I-000581J0000000D01*
G01*
X0366683Y0297067D01*
G75*
G02*
X0366102Y0297647I0000000J0000581D01*
G01*
X0366102Y0299006D01*
G75*
G02*
X0366683Y0299586I0000581J0000000D01*
G01*
X0367844Y0299586D01*
G75*
G02*
X0368425Y0299006I0000000J-000581D01*
G01*
G37*
G36*
G01*
X0364606Y0299006D02*
X0364606Y0297647D01*
G75*
G02*
X0364025Y0297067I-000581J0000000D01*
G01*
X0362864Y0297067D01*
G75*
G02*
X0362283Y0297647I0000000J0000581D01*
G01*
X0362283Y0299006D01*
G75*
G02*
X0362864Y0299586I0000581J0000000D01*
G01*
X0364025Y0299586D01*
G75*
G02*
X0364606Y0299006I0000000J-000581D01*
G01*
G37*
G36*
G01*
X0376003Y0299006D02*
X0376003Y0297647D01*
G75*
G02*
X0375423Y0297067I-000581J0000000D01*
G01*
X0374261Y0297067D01*
G75*
G02*
X0373681Y0297647I0000000J0000581D01*
G01*
X0373681Y0299006D01*
G75*
G02*
X0374261Y0299586I0000581J0000000D01*
G01*
X0375423Y0299586D01*
G75*
G02*
X0376003Y0299006I0000000J-000581D01*
G01*
G37*
G36*
G01*
X0372185Y0299006D02*
X0372185Y0297647D01*
G75*
G02*
X0371604Y0297067I-000581J0000000D01*
G01*
X0370442Y0297067D01*
G75*
G02*
X0369862Y0297647I0000000J0000581D01*
G01*
X0369862Y0299006D01*
G75*
G02*
X0370442Y0299586I0000581J0000000D01*
G01*
X0371604Y0299586D01*
G75*
G02*
X0372185Y0299006I0000000J-000581D01*
G01*
G37*
G36*
G01*
X0321564Y0298051D02*
X0322923Y0298051D01*
G75*
G02*
X0323503Y0297470I0000000J-000581D01*
G01*
X0323503Y0296309D01*
G75*
G02*
X0322923Y0295728I-000581J0000000D01*
G01*
X0321564Y0295728D01*
G75*
G02*
X0320984Y0296309I0000000J0000581D01*
G01*
X0320984Y0297470D01*
G75*
G02*
X0321564Y0298051I0000581J0000000D01*
G01*
G37*
G36*
G01*
X0321564Y0294232D02*
X0322923Y0294232D01*
G75*
G02*
X0323503Y0293651I0000000J-000581D01*
G01*
X0323503Y0292490D01*
G75*
G02*
X0322923Y0291909I-000581J0000000D01*
G01*
X0321564Y0291909D01*
G75*
G02*
X0320984Y0292490I0000000J0000581D01*
G01*
X0320984Y0293651D01*
G75*
G02*
X0321564Y0294232I0000581J0000000D01*
G01*
G37*
G36*
G01*
X0355925Y0307864D02*
X0355925Y0306506D01*
G75*
G02*
X0355344Y0305925I-000581J0000000D01*
G01*
X0354183Y0305925D01*
G75*
G02*
X0353602Y0306506I0000000J0000581D01*
G01*
X0353602Y0307864D01*
G75*
G02*
X0354183Y0308444I0000581J0000000D01*
G01*
X0355344Y0308444D01*
G75*
G02*
X0355925Y0307864I0000000J-000581D01*
G01*
G37*
G36*
G01*
X0352106Y0307864D02*
X0352106Y0306506D01*
G75*
G02*
X0351525Y0305925I-000581J0000000D01*
G01*
X0350364Y0305925D01*
G75*
G02*
X0349783Y0306506I0000000J0000581D01*
G01*
X0349783Y0307864D01*
G75*
G02*
X0350364Y0308444I0000581J0000000D01*
G01*
X0351525Y0308444D01*
G75*
G02*
X0352106Y0307864I0000000J-000581D01*
G01*
G37*
G36*
G01*
X0317824Y0298051D02*
X0319183Y0298051D01*
G75*
G02*
X0319763Y0297470I0000000J-000581D01*
G01*
X0319763Y0296309D01*
G75*
G02*
X0319183Y0295728I-000581J0000000D01*
G01*
X0317824Y0295728D01*
G75*
G02*
X0317244Y0296309I0000000J0000581D01*
G01*
X0317244Y0297470D01*
G75*
G02*
X0317824Y0298051I0000581J0000000D01*
G01*
G37*
G36*
G01*
X0317824Y0294232D02*
X0319183Y0294232D01*
G75*
G02*
X0319763Y0293651I0000000J-000581D01*
G01*
X0319763Y0292490D01*
G75*
G02*
X0319183Y0291909I-000581J0000000D01*
G01*
X0317824Y0291909D01*
G75*
G02*
X0317244Y0292490I0000000J0000581D01*
G01*
X0317244Y0293651D01*
G75*
G02*
X0317824Y0294232I0000581J0000000D01*
G01*
G37*
G36*
G01*
X0317824Y0289389D02*
X0319183Y0289389D01*
G75*
G02*
X0319763Y0288809I0000000J-000581D01*
G01*
X0319763Y0287647D01*
G75*
G02*
X0319183Y0287067I-000581J0000000D01*
G01*
X0317824Y0287067D01*
G75*
G02*
X0317244Y0287647I0000000J0000581D01*
G01*
X0317244Y0288809D01*
G75*
G02*
X0317824Y0289389I0000581J0000000D01*
G01*
G37*
G36*
G01*
X0317824Y0285570D02*
X0319183Y0285570D01*
G75*
G02*
X0319763Y0284990I0000000J-000581D01*
G01*
X0319763Y0283828D01*
G75*
G02*
X0319183Y0283248I-000581J0000000D01*
G01*
X0317824Y0283248D01*
G75*
G02*
X0317244Y0283828I0000000J0000581D01*
G01*
X0317244Y0284990D01*
G75*
G02*
X0317824Y0285570I0000581J0000000D01*
G01*
G37*
G36*
G01*
X0303011Y0295196D02*
X0303011Y0296535D01*
G75*
G02*
X0303562Y0297086I0000551J0000000D01*
G01*
X0304665Y0297086D01*
G75*
G02*
X0305216Y0296535I0000000J-000551D01*
G01*
X0305216Y0295196D01*
G75*
G02*
X0304665Y0294645I-000551J0000000D01*
G01*
X0303562Y0294645D01*
G75*
G02*
X0303011Y0295196I0000000J0000551D01*
G01*
G37*
G36*
G01*
X0306791Y0295196D02*
X0306791Y0296535D01*
G75*
G02*
X0307342Y0297086I0000551J0000000D01*
G01*
X0308444Y0297086D01*
G75*
G02*
X0308995Y0296535I0000000J-000551D01*
G01*
X0308995Y0295196D01*
G75*
G02*
X0308444Y0294645I-000551J0000000D01*
G01*
X0307342Y0294645D01*
G75*
G02*
X0306791Y0295196I0000000J0000551D01*
G01*
G37*
G36*
G01*
X0357952Y0321456D02*
X0357952Y0320000D01*
G75*
G02*
X0357421Y0319468I-000531J0000000D01*
G01*
X0356358Y0319468D01*
G75*
G02*
X0355826Y0320000I0000000J0000531D01*
G01*
X0355826Y0321456D01*
G75*
G02*
X0356358Y0321988I0000531J0000000D01*
G01*
X0357421Y0321988D01*
G75*
G02*
X0357952Y0321456I0000000J-000531D01*
G01*
G37*
G36*
G01*
X0353937Y0321456D02*
X0353937Y0320000D01*
G75*
G02*
X0353405Y0319468I-000531J0000000D01*
G01*
X0352342Y0319468D01*
G75*
G02*
X0351811Y0320000I0000000J0000531D01*
G01*
X0351811Y0321456D01*
G75*
G02*
X0352342Y0321988I0000531J0000000D01*
G01*
X0353405Y0321988D01*
G75*
G02*
X0353937Y0321456I0000000J-000531D01*
G01*
G37*
G36*
G01*
X0297224Y0306923D02*
X0295767Y0306923D01*
G75*
G02*
X0295236Y0307455I0000000J0000531D01*
G01*
X0295236Y0308518D01*
G75*
G02*
X0295767Y0309049I0000531J0000000D01*
G01*
X0297224Y0309049D01*
G75*
G02*
X0297755Y0308518I0000000J-000531D01*
G01*
X0297755Y0307455D01*
G75*
G02*
X0297224Y0306923I-000531J0000000D01*
G01*
G37*
G36*
G01*
X0297224Y0310939D02*
X0295767Y0310939D01*
G75*
G02*
X0295236Y0311471I0000000J0000531D01*
G01*
X0295236Y0312534D01*
G75*
G02*
X0295767Y0313065I0000531J0000000D01*
G01*
X0297224Y0313065D01*
G75*
G02*
X0297755Y0312534I0000000J-000531D01*
G01*
X0297755Y0311471D01*
G75*
G02*
X0297224Y0310939I-000531J0000000D01*
G01*
G37*
G36*
G01*
X0297834Y0282972D02*
X0297834Y0284153D01*
G75*
G02*
X0298425Y0284744I0000591J0000000D01*
G01*
X0303051Y0284744D01*
G75*
G02*
X0303641Y0284153I0000000J-000591D01*
G01*
X0303641Y0282972D01*
G75*
G02*
X0303051Y0282382I-000591J0000000D01*
G01*
X0298425Y0282382D01*
G75*
G02*
X0297834Y0282972I0000000J0000591D01*
G01*
G37*
G36*
G01*
X0297834Y0290452D02*
X0297834Y0291633D01*
G75*
G02*
X0298425Y0292224I0000591J0000000D01*
G01*
X0303051Y0292224D01*
G75*
G02*
X0303641Y0291633I0000000J-000591D01*
G01*
X0303641Y0290452D01*
G75*
G02*
X0303051Y0289862I-000591J0000000D01*
G01*
X0298425Y0289862D01*
G75*
G02*
X0297834Y0290452I0000000J0000591D01*
G01*
G37*
G36*
G01*
X0305216Y0286712D02*
X0305216Y0287893D01*
G75*
G02*
X0305807Y0288484I0000591J0000000D01*
G01*
X0310433Y0288484D01*
G75*
G02*
X0311023Y0287893I0000000J-000591D01*
G01*
X0311023Y0286712D01*
G75*
G02*
X0310433Y0286122I-000591J0000000D01*
G01*
X0305807Y0286122D01*
G75*
G02*
X0305216Y0286712I0000000J0000591D01*
G01*
G37*
G36*
G01*
X0295787Y0320904D02*
X0297126Y0320904D01*
G75*
G02*
X0297677Y0320352I0000000J-000551D01*
G01*
X0297677Y0319250D01*
G75*
G02*
X0297126Y0318699I-000551J0000000D01*
G01*
X0295787Y0318699D01*
G75*
G02*
X0295236Y0319250I0000000J0000551D01*
G01*
X0295236Y0320352D01*
G75*
G02*
X0295787Y0320904I0000551J0000000D01*
G01*
G37*
G36*
G01*
X0295787Y0317124D02*
X0297126Y0317124D01*
G75*
G02*
X0297677Y0316573I0000000J-000551D01*
G01*
X0297677Y0315471D01*
G75*
G02*
X0297126Y0314919I-000551J0000000D01*
G01*
X0295787Y0314919D01*
G75*
G02*
X0295236Y0315471I0000000J0000551D01*
G01*
X0295236Y0316573D01*
G75*
G02*
X0295787Y0317124I0000551J0000000D01*
G01*
G37*
G36*
G01*
X0326574Y0317833D02*
X0326574Y0316652D01*
G75*
G02*
X0325984Y0316061I-000591J0000000D01*
G01*
X0320275Y0316061D01*
G75*
G02*
X0319685Y0316652I0000000J0000591D01*
G01*
X0319685Y0317833D01*
G75*
G02*
X0320275Y0318423I0000591J0000000D01*
G01*
X0325984Y0318423D01*
G75*
G02*
X0326574Y0317833I0000000J-000591D01*
G01*
G37*
G36*
G01*
X0326574Y0312833D02*
X0326574Y0311652D01*
G75*
G02*
X0325984Y0311061I-000591J0000000D01*
G01*
X0320275Y0311061D01*
G75*
G02*
X0319685Y0311652I0000000J0000591D01*
G01*
X0319685Y0312833D01*
G75*
G02*
X0320275Y0313423I0000591J0000000D01*
G01*
X0325984Y0313423D01*
G75*
G02*
X0326574Y0312833I0000000J-000591D01*
G01*
G37*
G36*
G01*
X0326574Y0307833D02*
X0326574Y0306652D01*
G75*
G02*
X0325984Y0306061I-000591J0000000D01*
G01*
X0320275Y0306061D01*
G75*
G02*
X0319685Y0306652I0000000J0000591D01*
G01*
X0319685Y0307833D01*
G75*
G02*
X0320275Y0308423I0000591J0000000D01*
G01*
X0325984Y0308423D01*
G75*
G02*
X0326574Y0307833I0000000J-000591D01*
G01*
G37*
G36*
G01*
X0326574Y0302833D02*
X0326574Y0301652D01*
G75*
G02*
X0325984Y0301061I-000591J0000000D01*
G01*
X0320275Y0301061D01*
G75*
G02*
X0319685Y0301652I0000000J0000591D01*
G01*
X0319685Y0302833D01*
G75*
G02*
X0320275Y0303423I0000591J0000000D01*
G01*
X0325984Y0303423D01*
G75*
G02*
X0326574Y0302833I0000000J-000591D01*
G01*
G37*
G36*
G01*
X0306299Y0302833D02*
X0306299Y0301652D01*
G75*
G02*
X0305708Y0301061I-000591J0000000D01*
G01*
X0300000Y0301061D01*
G75*
G02*
X0299409Y0301652I0000000J0000591D01*
G01*
X0299409Y0302833D01*
G75*
G02*
X0300000Y0303423I0000591J0000000D01*
G01*
X0305708Y0303423D01*
G75*
G02*
X0306299Y0302833I0000000J-000591D01*
G01*
G37*
G36*
G01*
X0306299Y0307833D02*
X0306299Y0306652D01*
G75*
G02*
X0305708Y0306061I-000591J0000000D01*
G01*
X0300000Y0306061D01*
G75*
G02*
X0299409Y0306652I0000000J0000591D01*
G01*
X0299409Y0307833D01*
G75*
G02*
X0300000Y0308423I0000591J0000000D01*
G01*
X0305708Y0308423D01*
G75*
G02*
X0306299Y0307833I0000000J-000591D01*
G01*
G37*
G36*
G01*
X0306299Y0312833D02*
X0306299Y0311652D01*
G75*
G02*
X0305708Y0311061I-000591J0000000D01*
G01*
X0300000Y0311061D01*
G75*
G02*
X0299409Y0311652I0000000J0000591D01*
G01*
X0299409Y0312833D01*
G75*
G02*
X0300000Y0313423I0000591J0000000D01*
G01*
X0305708Y0313423D01*
G75*
G02*
X0306299Y0312833I0000000J-000591D01*
G01*
G37*
G36*
G01*
X0306299Y0317833D02*
X0306299Y0316652D01*
G75*
G02*
X0305708Y0316061I-000591J0000000D01*
G01*
X0300000Y0316061D01*
G75*
G02*
X0299409Y0316652I0000000J0000591D01*
G01*
X0299409Y0317833D01*
G75*
G02*
X0300000Y0318423I0000591J0000000D01*
G01*
X0305708Y0318423D01*
G75*
G02*
X0306299Y0317833I0000000J-000591D01*
G01*
G37*
X0502510Y0391804D02*
G01*
G75*
D446*
X0450541Y0306765D02*
D03*
X0450541Y0332060D02*
D03*
X0450541Y0316804D02*
D03*
X0450541Y0322020D02*
D03*
X0457628Y0291509D02*
D03*
X0450541Y0291509D02*
D03*
X0450541Y0301548D02*
D03*
X0457628Y0301548D02*
D03*
X0457628Y0332060D02*
D03*
X0457628Y0322020D02*
D03*
X0457628Y0316804D02*
D03*
X0457628Y0306765D02*
D03*
D447*
X0450541Y0310210D02*
D03*
X0450541Y0325465D02*
D03*
X0450541Y0313359D02*
D03*
X0450541Y0328615D02*
D03*
X0450541Y0298103D02*
D03*
X0450541Y0294954D02*
D03*
X0457628Y0294954D02*
D03*
X0457628Y0298103D02*
D03*
X0457628Y0325465D02*
D03*
X0457628Y0328615D02*
D03*
X0457628Y0310210D02*
D03*
X0457628Y0313359D02*
D03*
D450*
X0448573Y0253615D02*
D03*
X0452510Y0253615D02*
D03*
X0454085Y0257158D02*
D03*
X0458022Y0257158D02*
D03*
X0446211Y0274481D02*
D03*
X0450148Y0274481D02*
D03*
X0417558Y0332183D02*
D03*
X0421495Y0332183D02*
D03*
X0425754Y0332183D02*
D03*
X0429691Y0332183D02*
D03*
X0469076Y0299716D02*
D03*
X0473013Y0299716D02*
D03*
X0469076Y0303439D02*
D03*
X0473013Y0303439D02*
D03*
X0471492Y0266607D02*
D03*
X0467555Y0266607D02*
D03*
X0382858Y0255674D02*
D03*
X0418606Y0255913D02*
D03*
X0403691Y0332183D02*
D03*
X0435975Y0278025D02*
D03*
X0435975Y0282355D02*
D03*
X0439405Y0286574D02*
D03*
X0450682Y0286519D02*
D03*
X0430266Y0316179D02*
D03*
X0439055Y0316179D02*
D03*
X0442992Y0324664D02*
D03*
X0378075Y0354530D02*
D03*
X0403691Y0336686D02*
D03*
X0444636Y0253615D02*
D03*
X0458022Y0286610D02*
D03*
X0479675Y0285212D02*
D03*
X0493740Y0285212D02*
D03*
X0479675Y0289442D02*
D03*
X0493740Y0289442D02*
D03*
X0454037Y0336350D02*
D03*
X0498573Y0338261D02*
D03*
X0432038Y0278025D02*
D03*
X0442992Y0316179D02*
D03*
X0434203Y0316179D02*
D03*
X0434203Y0320667D02*
D03*
X0430266Y0320667D02*
D03*
X0376132Y0340623D02*
D03*
X0380069Y0340623D02*
D03*
X0382012Y0354530D02*
D03*
X0467457Y0283706D02*
D03*
X0471394Y0283706D02*
D03*
X0497678Y0285212D02*
D03*
X0454085Y0286610D02*
D03*
X0439055Y0324664D02*
D03*
X0446745Y0286519D02*
D03*
X0443342Y0286574D02*
D03*
X0483612Y0289442D02*
D03*
X0457974Y0336350D02*
D03*
X0494636Y0338261D02*
D03*
X0422543Y0255913D02*
D03*
X0448573Y0253615D02*
D03*
X0475345Y0278639D02*
D03*
X0479282Y0278639D02*
D03*
X0483612Y0285212D02*
D03*
X0399754Y0336686D02*
D03*
X0399754Y0332183D02*
D03*
X0432038Y0282355D02*
D03*
X0386795Y0255674D02*
D03*
X0396111Y0255674D02*
D03*
X0392174Y0255674D02*
D03*
X0489803Y0289442D02*
D03*
X0498573Y0334324D02*
D03*
X0494636Y0334324D02*
D03*
X0498573Y0321922D02*
D03*
X0494636Y0321922D02*
D03*
X0498573Y0317788D02*
D03*
X0494636Y0317788D02*
D03*
X0498573Y0309520D02*
D03*
X0494636Y0309520D02*
D03*
X0498573Y0313654D02*
D03*
X0494636Y0313654D02*
D03*
X0498573Y0305387D02*
D03*
X0494636Y0305387D02*
D03*
X0498573Y0326056D02*
D03*
X0494636Y0326056D02*
D03*
X0498573Y0330190D02*
D03*
X0494636Y0330190D02*
D03*
D452*
X0443583Y0302828D02*
D03*
X0443583Y0298595D02*
D03*
X0398179Y0386686D02*
D03*
X0402904Y0386686D02*
D03*
X0407628Y0386686D02*
D03*
X0412352Y0386686D02*
D03*
X0482431Y0258339D02*
D03*
X0478297Y0258339D02*
D03*
X0387117Y0350560D02*
D03*
X0387117Y0346623D02*
D03*
X0498046Y0259521D02*
D03*
X0498046Y0263457D02*
D03*
X0443583Y0294658D02*
D03*
X0443583Y0306765D02*
D03*
X0391289Y0351056D02*
D03*
X0391289Y0347119D02*
D03*
X0416062Y0378832D02*
D03*
X0416062Y0374895D02*
D03*
X0412352Y0374895D02*
D03*
X0412352Y0378832D02*
D03*
X0412352Y0364245D02*
D03*
X0412352Y0368182D02*
D03*
X0412352Y0382749D02*
D03*
X0407628Y0382749D02*
D03*
X0398179Y0382749D02*
D03*
X0402904Y0382749D02*
D03*
X0497011Y0349555D02*
D03*
X0497011Y0345618D02*
D03*
X0446801Y0346528D02*
D03*
X0446801Y0350465D02*
D03*
X0446801Y0356765D02*
D03*
X0446801Y0360702D02*
D03*
X0474754Y0346528D02*
D03*
X0474754Y0350465D02*
D03*
X0451329Y0371922D02*
D03*
X0451329Y0367985D02*
D03*
X0480659Y0371922D02*
D03*
X0480659Y0367985D02*
D03*
X0493455Y0371922D02*
D03*
X0493455Y0367985D02*
D03*
X0476563Y0378832D02*
D03*
X0476563Y0382769D02*
D03*
X0498179Y0379206D02*
D03*
X0498179Y0375269D02*
D03*
X0497982Y0382355D02*
D03*
X0497982Y0386292D02*
D03*
X0498046Y0271047D02*
D03*
X0498046Y0267110D02*
D03*
X0482431Y0254402D02*
D03*
X0478297Y0254402D02*
D03*
X0474557Y0367985D02*
D03*
X0474557Y0371922D02*
D03*
X0470227Y0367985D02*
D03*
X0470227Y0371922D02*
D03*
X0461762Y0367985D02*
D03*
X0461762Y0371922D02*
D03*
X0457596Y0382769D02*
D03*
X0457596Y0378832D02*
D03*
X0418849Y0350465D02*
D03*
X0418849Y0346528D02*
D03*
X0489124Y0367985D02*
D03*
X0489124Y0371922D02*
D03*
X0438753Y0382769D02*
D03*
X0438753Y0378832D02*
D03*
X0442864Y0367985D02*
D03*
X0442864Y0371922D02*
D03*
X0455659Y0367985D02*
D03*
X0455659Y0371922D02*
D03*
X0419773Y0382769D02*
D03*
X0419773Y0378832D02*
D03*
X0423966Y0367985D02*
D03*
X0423966Y0371922D02*
D03*
X0432431Y0367985D02*
D03*
X0432431Y0371922D02*
D03*
X0436762Y0367985D02*
D03*
X0436762Y0371922D02*
D03*
X0418985Y0364245D02*
D03*
X0418985Y0368182D02*
D03*
D454*
X0462953Y0261548D02*
D03*
X0470693Y0271023D02*
D03*
X0489026Y0294393D02*
D03*
D457*
X0415305Y0262965D02*
D03*
X0421605Y0262965D02*
D03*
X0451919Y0261587D02*
D03*
X0458219Y0261587D02*
D03*
X0451919Y0266213D02*
D03*
X0458219Y0266213D02*
D03*
D454*
X0479774Y0298134D02*
D03*
X0470693Y0278503D02*
D03*
X0461441Y0274763D02*
D03*
X0462953Y0254068D02*
D03*
X0472205Y0257808D02*
D03*
X0489026Y0301874D02*
D03*
D222*
X0424597Y0337670D02*
D03*
X0410384Y0337670D02*
D03*
X0440384Y0337670D02*
D03*
D223*
X0387392Y0260111D02*
D03*
X0407392Y0264111D02*
D03*
X0407392Y0256111D02*
D03*
D15*
X0498179Y0254402D02*
D03*
D472*
X0454479Y0271410D02*
D03*
X0454479Y0277631D02*
D03*
D473*
X0425049Y0342198D02*
D03*
X0425049Y0349284D02*
D03*
X0435089Y0349284D02*
D03*
X0435089Y0342198D02*
D03*
X0453002Y0349284D02*
D03*
X0480955Y0349284D02*
D03*
X0463041Y0353221D02*
D03*
X0407923Y0378418D02*
D03*
X0407923Y0371332D02*
D03*
X0397884Y0371332D02*
D03*
X0397884Y0378418D02*
D03*
X0490994Y0360308D02*
D03*
X0490994Y0353221D02*
D03*
X0480955Y0353221D02*
D03*
X0480955Y0360308D02*
D03*
X0480955Y0342198D02*
D03*
X0490994Y0349284D02*
D03*
X0490994Y0342198D02*
D03*
X0463041Y0360308D02*
D03*
X0453002Y0353221D02*
D03*
X0453002Y0360308D02*
D03*
X0453002Y0342198D02*
D03*
X0463041Y0349284D02*
D03*
X0463041Y0342198D02*
D03*
X0462057Y0384127D02*
D03*
X0462057Y0377040D02*
D03*
X0472097Y0377040D02*
D03*
X0472097Y0384127D02*
D03*
X0480955Y0384127D02*
D03*
X0480955Y0377040D02*
D03*
X0490994Y0377040D02*
D03*
X0490994Y0384127D02*
D03*
X0443159Y0384127D02*
D03*
X0443159Y0377040D02*
D03*
X0453199Y0377040D02*
D03*
X0453199Y0384127D02*
D03*
X0424262Y0384127D02*
D03*
X0424262Y0377040D02*
D03*
X0434301Y0377040D02*
D03*
X0434301Y0384127D02*
D03*
X0425049Y0360308D02*
D03*
X0425049Y0353221D02*
D03*
X0435089Y0353221D02*
D03*
X0435089Y0360308D02*
D03*
X0397490Y0360308D02*
D03*
X0397490Y0353221D02*
D03*
X0407530Y0353221D02*
D03*
X0407530Y0360308D02*
D03*
X0407530Y0342198D02*
D03*
X0407530Y0349284D02*
D03*
X0397490Y0349284D02*
D03*
X0397490Y0342198D02*
D03*
D474*
X0431644Y0349284D02*
D03*
X0428494Y0349284D02*
D03*
X0428494Y0342198D02*
D03*
X0431644Y0342198D02*
D03*
X0456447Y0349284D02*
D03*
X0484400Y0349284D02*
D03*
X0459597Y0353221D02*
D03*
X0401329Y0371332D02*
D03*
X0404478Y0371332D02*
D03*
X0404478Y0378418D02*
D03*
X0401329Y0378418D02*
D03*
X0484400Y0353221D02*
D03*
X0487549Y0353221D02*
D03*
X0487549Y0360308D02*
D03*
X0484400Y0360308D02*
D03*
X0487549Y0349284D02*
D03*
X0484400Y0342198D02*
D03*
X0487549Y0342198D02*
D03*
X0456447Y0353221D02*
D03*
X0459597Y0360308D02*
D03*
X0456447Y0360308D02*
D03*
X0459596Y0349284D02*
D03*
X0456447Y0342198D02*
D03*
X0459596Y0342198D02*
D03*
X0465502Y0384127D02*
D03*
X0468652Y0384127D02*
D03*
X0468652Y0377040D02*
D03*
X0465502Y0377040D02*
D03*
X0484399Y0384127D02*
D03*
X0487549Y0384127D02*
D03*
X0487549Y0377040D02*
D03*
X0484399Y0377040D02*
D03*
X0446604Y0384127D02*
D03*
X0449754Y0384127D02*
D03*
X0449754Y0377040D02*
D03*
X0446604Y0377040D02*
D03*
X0427707Y0384127D02*
D03*
X0430856Y0384127D02*
D03*
X0430856Y0377040D02*
D03*
X0427707Y0377040D02*
D03*
X0428494Y0360308D02*
D03*
X0431644Y0360308D02*
D03*
X0431644Y0353221D02*
D03*
X0428494Y0353221D02*
D03*
X0400935Y0360308D02*
D03*
X0404085Y0360308D02*
D03*
X0404085Y0353221D02*
D03*
X0400935Y0353221D02*
D03*
X0404085Y0342198D02*
D03*
X0400935Y0342198D02*
D03*
X0400935Y0349284D02*
D03*
X0404085Y0349284D02*
D03*
D475*
X0392707Y0264934D02*
D03*
X0392707Y0259944D02*
D03*
X0398927Y0259944D02*
D03*
X0398927Y0264934D02*
D03*
D476*
X0380069Y0271824D02*
D03*
X0412746Y0271824D02*
D03*
X0380069Y0325957D02*
D03*
X0412746Y0325957D02*
D03*
D477*
X0390305Y0289855D02*
D03*
X0390305Y0281194D02*
D03*
X0390305Y0285524D02*
D03*
X0390305Y0294186D02*
D03*
X0390305Y0298517D02*
D03*
X0390305Y0302847D02*
D03*
X0390305Y0307178D02*
D03*
X0390305Y0311509D02*
D03*
D478*
X0371998Y0370465D02*
D03*
X0385202Y0370465D02*
D03*
X0379479Y0378497D02*
D03*
X0392682Y0378497D02*
D03*
X0375738Y0361213D02*
D03*
X0388942Y0361213D02*
D03*
X0388942Y0387749D02*
D03*
X0477116Y0272828D02*
D03*
X0480856Y0263576D02*
D03*
X0375738Y0387749D02*
D03*
D248*
X0378075Y0344692D02*
D03*
X0382012Y0344692D02*
D03*
X0378075Y0350696D02*
D03*
X0380043Y0350696D02*
D03*
X0380043Y0344692D02*
D03*
X0382012Y0350696D02*
D03*
D479*
X0468640Y0288044D02*
D03*
X0473758Y0288044D02*
D03*
X0471199Y0288044D02*
D03*
X0468640Y0295525D02*
D03*
X0473758Y0295525D02*
D03*
D250*
X0465423Y0307552D02*
D03*
X0488415Y0310111D02*
D03*
X0488415Y0307552D02*
D03*
X0465423Y0330583D02*
D03*
X0488415Y0333142D02*
D03*
X0488415Y0335702D02*
D03*
X0488415Y0330583D02*
D03*
X0488415Y0328024D02*
D03*
X0488415Y0325465D02*
D03*
X0488415Y0322906D02*
D03*
X0488415Y0320347D02*
D03*
X0488415Y0317788D02*
D03*
X0488415Y0315229D02*
D03*
X0488415Y0312670D02*
D03*
X0465423Y0335702D02*
D03*
X0465423Y0333142D02*
D03*
X0465423Y0328024D02*
D03*
X0465423Y0325465D02*
D03*
X0465423Y0322906D02*
D03*
X0465423Y0320347D02*
D03*
X0465423Y0317788D02*
D03*
X0465423Y0315229D02*
D03*
X0465423Y0312670D02*
D03*
X0465423Y0310111D02*
D03*
D480*
X0491486Y0269965D02*
D03*
X0491486Y0258547D02*
D03*
D481*
X0433396Y0267830D02*
D03*
X0446388Y0267830D02*
D03*
X0497473Y0279030D02*
D03*
X0484481Y0279030D02*
D03*
D253*
X0434621Y0293235D02*
D03*
X0434621Y0307802D02*
D03*
D254*
X0383045Y0348678D02*
D03*
X0383045Y0346710D02*
D03*
X0377041Y0346710D02*
D03*
X0377041Y0348678D02*
D03*
D482*
X0448032Y0280712D02*
D03*
X0442127Y0280712D02*
D03*
D478*
X0379479Y0370465D02*
D03*
X0392682Y0370465D02*
D03*
X0385202Y0378497D02*
D03*
X0484597Y0272828D02*
D03*
X0371998Y0378497D02*
D03*
D256*
X0445229Y0331371D02*
D03*
X0438536Y0331371D02*
D03*
D483*
X0428868Y0257834D02*
D03*
X0440285Y0257834D02*
D03*
D484*
X0497785Y0292198D02*
D03*
X0497785Y0298497D02*
D03*
X0166142Y0247539D02*
G01*
G75*
D114*
X0190551Y0216338D02*
D03*
X0176575Y0216043D02*
D03*
X0171555Y0217224D02*
D03*
X0173622Y0220669D02*
D03*
M02*
