M48
INCH,TZ
T01C0.013750
T02C0.027600
T03C0.032000
T04C0.039200
T05C0.043300
T06C0.078700
T07C0.086600
T08C0.145700
%
T01
X9341Y28494
X9370Y27096
X9459Y28996
X9803Y28789
X11188Y37840
X12714Y36590
X12792Y37722
X12798Y36246
X12798Y36974
X12828Y35911
X13005Y35271
X13521Y36807
X13521Y35783
X13521Y35015
X18253Y39038
X18597Y38831
X18686Y40731
X18716Y39333
X30804Y19582
X32949Y22278
X32956Y20218
X33697Y20024
X34931Y38799
X35477Y37303
X36187Y22800
X38114Y14188
X38114Y11235
X38114Y10920
X38114Y10605
X39759Y38799
X45014Y13833
X45014Y13440
X45349Y38799
X49641Y38799
X2808Y36555
X2812Y37559
X2908Y32855
X2908Y31855
X4608Y29355
X5197Y18652
X5236Y15305
X6595Y10772
X7208Y29555
X7913Y8376
X7915Y31152
X9724Y6014
X9948Y33575
X10067Y26404
X10512Y9734
X10717Y10316
X10798Y32325
X10846Y9734
X11181Y9734
X11181Y2352
X11280Y32628
X11458Y29735
X11668Y32505
X11738Y31935
X11798Y38495
X11850Y463
X12008Y26285
X12343Y29764
X12365Y32355
X12717Y27598
X12785Y18325
X12828Y32405
X13478Y32195
X13778Y32415
X13898Y30354
X14045Y9675
X14080Y25070
X14108Y29155
X14291Y24754
X14724Y17078
X14724Y16211
X14908Y26655
X14980Y5758
X15008Y28655
X15039Y25187
X15060Y38142
X15384Y38047
X15413Y40030
X15878Y13585
X17205Y38061
X17539Y7982
X18002Y15817
X18435Y15413
X19134Y38061
X19498Y15365
X19778Y41555
X20394Y38179
X20581Y9734
X21280Y7953
X21968Y40905
X21998Y16535
X22087Y41850
X22371Y16535
X22508Y13495
X22904Y16417
X22913Y8002
X23248Y13575
X23278Y16752
X23278Y41635
X23288Y40105
X23444Y15876
X23593Y7933
X23808Y15365
X23958Y8035
X24428Y15835
X24658Y13185
X24698Y12685
X24868Y11765
X25000Y1345
X25238Y11385
X25258Y14409
X25315Y17057
X25551Y1345
X25945Y23140
X25958Y1285
X26014Y16722
X26073Y38100
X26535Y38079
X26575Y1703
X26929Y1703
X26938Y16875
X27354Y15695
X27400Y16073
X27546Y16755
X27795Y20197
X27828Y22919
X28016Y20738
X28022Y5049
X28178Y22875
X28248Y15305
X28338Y16865
X28468Y17570
X28728Y17305
X28978Y41735
X29043Y17570
X29238Y14223
X29538Y40385
X29608Y15261
X29628Y17285
X29921Y23140
X29971Y39016
X30013Y14223
X30079Y40039
X30482Y38898
X30528Y18455
X30548Y9295
X31043Y39331
X31880Y19134
X32402Y18100
X33661Y39006
X33948Y28125
X33976Y23652
X33998Y33105
X34016Y25187
X34055Y34321
X34114Y32244
X34114Y29724
X34272Y28150
X34331Y30197
X34358Y1552
X34370Y38770
X34547Y24006
X34567Y35079
X34758Y16235
X34758Y15895
X34838Y33061
X34838Y28955
X35039Y25384
X35187Y32569
X35187Y29362
X35394Y34045
X35423Y29952
X35473Y29231
X35512Y39281
X35709Y16644
X35709Y16407
X35984Y34754
X36128Y23795
X36158Y30315
X36166Y31252
X36208Y4915
X36238Y15015
X36402Y31527
X36515Y24272
X36535Y25187
X36638Y31803
X36798Y3625
X37118Y6095
X37188Y20005
X37195Y23740
X37228Y16125
X37244Y15187
X37248Y14365
X37520Y34124
X37638Y15085
X37728Y16095
X37772Y9138
X37781Y12711
X37898Y15095
X37913Y15541
X37998Y35415
X38178Y16115
X38178Y15815
X38318Y6795
X38390Y5306
X38758Y1375
X38908Y16495
X38908Y16215
X39792Y16621
X40426Y16597
X40958Y15045
X41318Y14825
X41850Y14754
X42224Y17028
X42228Y5355
X42421Y16831
X42588Y2245
X42618Y16634
X42678Y5355
X42913Y16900
X43128Y1475
X43218Y5355
X43219Y34474
X43908Y17146
X44724Y1565
X44728Y4615
X45438Y14315
X45459Y10556
X45512Y8888
X45708Y4915
X45769Y17137
X46718Y1585
X46969Y16959
X46969Y16644
X46969Y16289
X48138Y4765
X48740Y22627
X48772Y25910
X48976Y34370
X49016Y19400
X49252Y27707
X49291Y39400
X49646Y16841
X50088Y33565
X50414Y37352
X50738Y39325
X51181Y9281
X51868Y17115
X52348Y17115
X52643Y9911
X52662Y11132
X52662Y10640
X52761Y13258
X52780Y14480
X52804Y19721
X52918Y21271
X53154Y23771
X53174Y22964
X53194Y22137
X53740Y620
X53843Y11959
X53843Y11132
X53843Y10305
X54394Y23378
X54394Y22551
X54394Y21724
X54680Y12712
X55591Y33612
X55633Y21965
X55709Y23258
X56345Y21379
X56351Y13461
X56538Y20391
X56649Y13855
X56954Y21507
X56954Y20391
X57050Y13816
X57151Y13345
X58307Y1014
X60078Y17175
X60103Y19893
X60157Y21604
X60280Y14322
X60578Y17125
X7360Y10789
X7754Y10789
X8148Y10789
X8541Y10789
X8974Y25848
X9368Y25848
X10766Y25848
X11159Y25848
X28479Y19298
X28479Y22605
X28814Y19298
X29030Y22605
X29148Y19298
X29244Y22162
X29454Y22605
X29483Y19298
X29724Y18728
X30005Y22605
X55467Y21021
X55467Y20706
X55467Y13066
X55467Y12751
X57930Y20784
X57930Y20430
X57938Y13816
X57938Y13461
X44295Y36766
X44453Y38223
X45358Y40250
X45375Y37216
X45752Y38774
X45790Y38110
X46146Y40231
X46146Y36727
X46185Y39483
X46185Y37357
X46894Y40250
X46894Y39483
X46894Y38774
X46894Y38065
X46894Y37357
X47602Y38774
X47642Y36727
X48035Y38065
X48035Y37357
X48466Y39843
X48468Y40152
X48783Y39680
X49098Y40231
X49138Y37120
X49236Y38617
X49256Y36766
X49295Y39719
X44177Y40349
X44177Y40034
X44177Y39719
X44177Y39404
X44177Y39089
X44177Y38774
X44177Y38459
X44492Y40349
X9100Y12599
X9252Y12852
X9094Y13139
X9094Y13494
X10096Y13160
X10370Y13055
X10613Y13268
X10063Y12755
X11542Y13495
X12519Y13494
X12519Y13120
X12519Y12746
X37697Y21970
X39252Y22122
X39262Y22564
X39065Y23489
X39537Y23519
X39390Y23854
X39596Y24405
X39734Y24691
X39744Y25015
X40236Y25608
X40236Y25938
X40571Y25980
X39931Y26541
X40336Y27051
X40817Y27014
X41122Y26905
X41703Y26590
X41378Y27938
X41378Y28155
X41171Y28198
X41171Y28513
X41101Y28960
X39281Y28948
X38976Y29027
X38720Y28353
X38484Y28348
X38484Y28102
X38337Y27594
X38100Y27584
X37777Y27454
X37756Y27777
X37738Y27139
X37728Y26824
X37726Y26497
X37707Y26133
X37707Y25818
X37864Y25517
X37864Y25261
X37805Y24273
X38199Y23235
X40167Y23338
X40167Y23131
X40167Y23574
X42136Y23584
X42136Y23348
X42136Y23111
X42451Y23348
X42451Y23584
X42451Y23820
X42136Y23922
X42766Y23672
X42766Y23436
X42766Y23200
X43799Y22915
X44046Y22033
X44321Y21856
X44272Y21501
X44153Y20911
X44356Y20259
X45587Y20378
X45679Y20881
X45905Y21383
X45709Y21698
X46589Y21354
X47037Y21639
X47569Y21836
X47972Y21379
X47972Y21133
X47972Y20887
X47697Y20395
X47687Y20149
X47687Y19883
X46557Y20167
X46488Y20386
X46555Y19454
X46053Y19287
X45699Y18863
X45138Y18234
X46506Y18204
X43740Y17629
X43445Y17629
X42687Y19985
X42687Y21432
X43348Y21479
X40620Y21301
X40403Y20724
X39134Y21232
X39340Y21472
X39508Y27541
X39754Y27541
X40006Y27541
X39665Y29499
X39951Y29804
X39941Y31005
X40817Y30966
X41041Y32056
X41447Y32048
X41545Y32354
X41309Y32570
X40986Y32572
X40786Y32291
X40494Y32454
X40482Y32135
X40177Y32275
X40138Y31960
X38346Y32678
X38274Y30867
X38140Y30554
X38140Y30239
X38880Y30288
X42274Y30143
X42716Y29946
X42766Y29552
X43563Y29165
X43396Y27781
X43396Y27564
X43189Y27495
X42972Y27728
X44105Y26748
X45925Y27220
X46222Y27591
X46663Y28332
X46668Y28575
X46624Y29326
X47008Y29326
X47470Y29159
X47464Y30116
X47825Y30320
X47123Y30554
X47231Y31473
X47470Y31993
X47967Y32121
X47884Y31678
X48229Y32848
X47205Y32663
X46663Y32289
X45935Y32216
X45886Y32771
X46161Y31737
X45654Y30951
X45374Y30793
X45463Y30321
X45876Y30684
X45876Y29701
X46358Y29523
X46362Y30146
X46033Y29050
X45207Y29474
X44941Y31399
X44508Y31399
X44118Y31399
X43627Y31364
X43120Y31241
X42618Y31409
X42549Y31088
X42175Y31111
X41900Y32728
X42962Y32383
X42746Y24749
X43791Y24167
X45718Y24470
X45974Y24047
X46053Y23476
X45441Y23106
X47293Y23210
X47293Y23456
X47293Y23702
X47293Y23948
X47293Y24194
X46902Y24225
X46250Y24873
X46053Y25326
X46240Y26381
X47018Y26974
X47352Y26812
X47490Y27860
X48405Y29464
X48051Y33253
X47362Y33598
X45120Y33104
X44618Y33104
X44126Y33104
X43592Y33200
X43100Y33200
X41525Y33230
X38789Y33938
X38297Y33948
X13004Y35272
X13520Y35016
X13520Y35784
X12827Y35912
X12798Y36246
X12713Y36591
X12798Y36975
X12792Y37723
X13520Y36807
X11187Y37841
X31552Y16999
X31280Y17635
X31494Y18020
X30853Y18449
X30813Y18785
X31010Y19375
X31286Y19631
X31404Y20162
X31010Y20458
X30813Y19966
X30813Y21147
X30813Y22722
X31286Y22702
X32397Y22994
X33444Y22969
X33766Y22681
X34819Y22606
X35931Y22722
X36719Y22722
X35601Y21712
X35661Y20466
X36128Y20556
X36296Y20076
X36719Y20359
X36297Y19191
X36993Y19019
X37034Y18627
X37034Y18233
X36352Y18327
X36042Y17838
X36429Y17521
X36032Y17091
X35643Y17470
X35568Y18194
X35616Y18627
X34300Y17642
X34300Y17013
X33381Y16999
X32526Y16999
X32749Y17641
X33333Y18666
X33726Y20113
X32979Y20162
X33412Y20672
X34001Y21670
X34947Y23627
X35879Y23694
X35931Y24099
X36719Y23903
X36325Y23312
X33851Y24452
X33893Y24858
X33064Y24442
X32997Y24098
X32703Y24375
X31362Y24116
X31771Y23481
X30931Y23248
X9093Y25908
X12023Y25833
X10353Y25789
X6987Y25789
X7177Y25556
X8457Y25500
X8768Y25500
X11791Y25346
X10200Y25118
X10898Y25026
X8270Y24963
X7337Y24826
X7065Y24534
X12105Y24431
X11468Y24385
X11091Y24343
X9784Y24268
X8547Y24264
X7026Y23988
X9112Y23907
X7823Y23782
X9772Y23722
X10819Y23713
X9062Y23604
X6987Y23506
X12110Y22709
X7794Y22541
X9599Y22251
X10538Y22021
X9038Y22020
X9831Y22019
X10074Y21813
X6888Y21793
X9733Y21735
X11110Y21428
X8975Y21220
X11059Y21131
X6918Y21006
X10412Y20990
X11065Y20821
X7632Y20803
X9014Y20730
X10014Y20671
X10689Y20518
X7715Y20514
X8448Y20213
X11414Y20195
X11715Y20187
X6908Y19815
X11546Y19608
X12131Y19583
X11247Y19574
X11912Y19317
X10270Y19179
X9423Y19133
X8910Y19063
X8010Y19063
X7709Y19063
X7408Y19063
X7107Y19063
X8502Y19059
X10038Y18683
X9821Y18427
X6866Y16352
X8615Y16135
X11868Y16095
X11455Y15947
X8522Y15848
X10874Y15809
X10599Y15809
X10323Y15809
X11435Y15632
X6859Y15612
X10874Y15504
X10599Y15504
X11849Y15307
X11554Y25845
X11160Y25845
X10766Y25845
X9868Y25845
X9468Y25845
X8542Y15376
X8148Y15376
X7754Y15376
X7361Y15376
X45023Y12662
X44996Y11016
X44974Y11845
X44252Y14369
X44243Y13612
X44206Y12810
X44169Y11004
X44137Y12504
X43821Y11032
X43769Y12854
X43734Y14241
X43606Y12544
X43429Y14375
X43373Y10841
X43285Y13634
X43281Y12741
X43131Y11313
X43085Y12362
X42720Y12347
X42472Y11946
X42340Y12752
X42287Y12426
X42277Y13144
X42257Y14227
X42207Y13855
X42167Y13505
X41946Y12847
X41637Y14375
X41568Y12800
X41254Y12376
X41135Y12662
X41037Y13166
X41015Y11703
X40972Y14215
X40949Y12406
X40880Y11032
X40584Y11091
X40401Y12361
X40389Y10862
X40062Y13735
X39586Y13743
X39344Y13912
X39334Y13499
X39318Y14394
X45013Y13414
X45013Y13808
X39334Y10871
X39334Y11343
X39334Y11815
X39334Y12288
T02
X32067Y40276
X32382Y40965
X32697Y40276
X33012Y40965
X33327Y40276
X31260Y40876G85X31260Y40364
X34134Y40876G85X34134Y40364
X44807Y36727
X45279Y36727
X47642Y40270
X48508Y36727
T03
X3425Y12531
X3425Y11031
X4331Y12551
X4331Y11051
X5236Y12551
X5236Y11051
X6142Y12551
X6142Y11051
X16457Y11776
X16457Y10276
X18238Y11801
X18238Y10301
X19035Y11793
X19035Y10293
X20315Y11793
X20315Y10293
X21496Y11852
X21496Y10352
X48848Y12470
X48848Y10541
X49990Y12470
X49990Y10541
T04
X1024Y38031
X1024Y33750
X1024Y28406
X1024Y24094
X1024Y20197
X1024Y16053
X1024Y12106
X1024Y8406
X1083Y5719
X6280Y45266
X10561Y45266
X14744Y45266
X19242Y45266
X23888Y45266
X27933Y45266
X32215Y45276
X36398Y45276
X40896Y45276
X45039Y45256
X49587Y45276
X53730Y45256
X58278Y45276
X63346Y38612
X63346Y34331
X63346Y28986
X63346Y24675
X63346Y20778
X63346Y16634
X63346Y12687
X63346Y8986
X63346Y5846
X5197Y26083
X5197Y25083
X5197Y24083
X5197Y23083
X5197Y22083
X5197Y21083
X14026Y12864
X15020Y12864
X16014Y12864
X17008Y12864
X17500Y16358
X18081Y12864
X18839Y16348
X19154Y12854
X19951Y16348
X20217Y12854
X21063Y16348
X21568Y12865
X21850Y39173
X22520Y11132
X22850Y39173
X23850Y39173
X24850Y39173
X25108Y10089
X25850Y39173
X26041Y11895
X26208Y15465
X26211Y10059
X26850Y39173
X27085Y11895
X27283Y10089
X27850Y39173
X28128Y11895
X28593Y10069
X28850Y39173
X29171Y11895
X29675Y10069
X30214Y11895
X30448Y16285
X31053Y10069
X31268Y11895
X31788Y16845
X32116Y10069
X32328Y11895
X33159Y10069
X33368Y11895
X34163Y10069
X34428Y11895
X35630Y15876
X46038Y13475
X55047Y41181
X55047Y40181
X55047Y39181
X55047Y38181
X55047Y37181
X56047Y41181
X56047Y40181
X56047Y39181
X56047Y38181
X56047Y37181
X57047Y41181
X57047Y40181
X57047Y39181
X57047Y38181
X57047Y37181
X59000Y38000
X59000Y37000
X59000Y36000
X59000Y35000
X59000Y34000
X59000Y32760
X59000Y31760
X59000Y30760
X59000Y29760
X59000Y28760
X59000Y27480
X59000Y26480
X59000Y25480
X59000Y24480
X59000Y23480
X60000Y38000
X60000Y37000
X60000Y36000
X60000Y35000
X60000Y34000
X60000Y32760
X60000Y31760
X60000Y30760
X60000Y29760
X60000Y28760
X60000Y27480
X60000Y26480
X60000Y25480
X60000Y24480
X60000Y23480
X61000Y38000
X61000Y37000
X61000Y36000
X61000Y35000
X61000Y34000
X61000Y32760
X61000Y31760
X61000Y30760
X61000Y29760
X61000Y28760
X61000Y27480
X61000Y26480
X61000Y25480
X61000Y24480
X61000Y23480
X30754Y17288
X30754Y22033
X36857Y22013
X36857Y21265
X36857Y19572
X36857Y17111
X36857Y24533
X30754Y24710
X30754Y23981
X7872Y18522
X9054Y17734
X7872Y16947
X7794Y25648
X8194Y23648
X7394Y23648
T05
X15531Y7331
X15531Y6331
X15531Y3950
X15531Y2950
X16531Y7331
X16531Y6331
X16531Y3950
X16531Y2950
X17531Y7331
X17531Y6331
X17531Y3950
X17531Y2950
X18531Y7331
X18531Y6331
X18531Y3950
X18531Y2950
X19531Y7331
X19531Y6331
X19531Y3950
X19531Y2950
X20531Y7331
X20531Y6331
X20531Y3950
X20531Y2950
X21531Y7331
X21531Y6331
X21531Y3950
X21531Y2950
X22531Y7331
X22531Y6331
X22531Y3950
X22531Y2950
X23531Y7331
X23531Y6331
X23531Y3950
X23531Y2950
X24531Y7331
X24531Y6331
X24531Y3950
X24531Y2950
X25531Y7331
X25531Y6331
X25531Y3950
X25531Y2950
X26531Y7331
X26531Y6331
X26531Y3950
X26531Y2950
X27531Y7331
X27531Y6331
X27531Y3950
X27531Y2950
X28531Y7331
X28531Y6331
X28531Y3950
X28531Y2950
X29531Y7331
X29531Y6331
X29531Y3950
X29531Y2950
X30531Y7331
X30531Y6331
X30531Y3950
X30531Y2950
X31531Y7331
X31531Y6331
X31531Y3950
X31531Y2950
X32531Y7331
X32531Y6331
X32531Y3950
X32531Y2950
X33531Y7331
X33531Y6331
X33531Y3950
X33531Y2950
X39818Y7331
X39818Y6331
X39818Y3950
X39818Y2950
X40818Y7331
X40818Y6331
X40818Y3950
X40818Y2950
X41818Y7331
X41818Y6331
X41818Y3950
X41818Y2950
X42818Y7331
X42818Y6331
X42818Y3950
X42818Y2950
X43818Y7331
X43818Y6331
X43818Y3950
X43818Y2950
X44818Y7331
X44818Y6331
X44818Y3950
X44818Y2950
X45818Y7331
X45818Y6331
X45818Y3950
X45818Y2950
X46818Y7331
X46818Y6331
X46818Y3950
X46818Y2950
X11681Y18699
X11681Y17699
X11681Y16699
T06
X35709Y41142
X37165Y40276
X37913Y41142
X39370Y40276
X40354Y41142
T07
X8306Y5233
X10137Y7331
X10137Y4131
X11279Y5048
X12420Y7331
X12420Y4131
X49901Y7331
X49901Y4131
X51043Y5048
X52184Y7331
X52184Y4131
X53365Y5048
X54507Y7331
X54507Y4131
X56259Y5233
T08
X7342Y2162
X36672Y2162
X57224Y2162
M30
