M48
INCH,TZ
T01C0.013750
T02C0.029550
T03C0.032000
T04C0.039200
T05C0.043300
T06C0.078700
T07C0.086600
T08C0.145700
%
T01
X9341Y28494
X9370Y27096
X9459Y28996
X9803Y28789
X11188Y37840
X12714Y36590
X12792Y37722
X12798Y36246
X12798Y36974
X12828Y35911
X13005Y35271
X13521Y36807
X13521Y35783
X13521Y35015
X18253Y39038
X18597Y38831
X18686Y40731
X18716Y39333
X30804Y19582
X32949Y22278
X32956Y20218
X33697Y20024
X34931Y38799
X35477Y37303
X36187Y22800
X38114Y14188
X38114Y11235
X38114Y10920
X38114Y10605
X39759Y38799
X45014Y13833
X45014Y13440
X45349Y38799
X49641Y38799
X2808Y36555
X2812Y37559
X2908Y32855
X2908Y31855
X4608Y29355
X5197Y18652
X5236Y15305
X6595Y10772
X7208Y29555
X7913Y8376
X7915Y31152
X9724Y6014
X9948Y33575
X10067Y26404
X10512Y9734
X10717Y10316
X10798Y32325
X10846Y9734
X11181Y9734
X11181Y2352
X11280Y32628
X11458Y29735
X11668Y32505
X11738Y31935
X11798Y38495
X11850Y463
X12008Y26285
X12343Y29764
X12365Y32355
X12717Y27598
X12785Y18325
X12828Y32405
X13478Y32195
X13778Y32415
X13898Y30354
X14045Y9675
X14080Y25070
X14108Y29155
X14291Y24754
X14724Y17078
X14724Y16211
X14908Y26655
X14980Y5758
X15008Y28655
X15039Y25187
X15060Y38142
X15384Y38047
X15413Y40030
X15878Y13585
X17205Y38061
X17539Y7982
X18002Y15817
X18435Y15413
X19134Y38061
X19498Y15365
X19778Y41555
X20394Y38179
X20581Y9734
X21280Y7953
X21968Y40905
X21998Y16535
X22087Y41850
X22371Y16535
X22508Y13495
X22904Y16417
X22913Y8002
X23248Y13575
X23278Y16752
X23278Y41635
X23288Y40105
X23444Y15876
X23593Y7933
X23808Y15365
X23958Y8035
X24428Y15835
X24658Y13185
X24698Y12685
X24868Y11765
X25000Y1345
X25238Y11385
X25258Y14409
X25315Y17057
X25551Y1345
X25945Y23140
X25958Y1285
X26014Y16722
X26073Y38100
X26535Y38079
X26575Y1703
X26929Y1703
X26938Y16875
X27354Y15695
X27400Y16073
X27546Y16755
X27795Y20197
X27828Y22919
X28016Y20738
X28022Y5049
X28178Y22875
X28248Y15305
X28338Y16865
X28468Y17570
X28728Y17305
X28978Y41735
X29043Y17570
X29238Y14223
X29538Y40385
X29608Y15261
X29628Y17285
X29921Y23140
X29971Y39016
X30013Y14223
X30079Y40039
X30482Y38898
X30528Y18455
X30548Y9295
X31043Y39331
X31880Y19134
X32402Y18100
X33661Y39006
X33948Y28125
X33976Y23652
X33998Y33105
X34016Y25187
X34055Y34321
X34114Y32244
X34114Y29724
X34272Y28150
X34331Y30197
X34358Y1552
X34370Y38770
X34547Y24006
X34567Y35079
X34758Y16235
X34758Y15895
X34838Y33061
X34838Y28955
X35039Y25384
X35187Y32569
X35187Y29362
X35394Y34045
X35423Y29952
X35473Y29231
X35512Y39281
X35709Y16644
X35709Y16407
X35984Y34754
X36128Y23795
X36158Y30315
X36166Y31252
X36208Y4915
X36238Y15015
X36402Y31527
X36515Y24272
X36535Y25187
X36638Y31803
X36798Y3625
X37118Y6095
X37188Y20005
X37195Y23740
X37228Y16125
X37244Y15187
X37248Y14365
X37520Y34124
X37638Y15085
X37728Y16095
X37772Y9138
X37781Y12711
X37898Y15095
X37913Y15541
X37998Y35415
X38178Y16115
X38178Y15815
X38318Y6795
X38390Y5306
X38758Y1375
X38908Y16495
X38908Y16215
X39792Y16621
X40426Y16597
X40958Y15045
X41318Y14825
X41850Y14754
X42224Y17028
X42228Y5355
X42421Y16831
X42588Y2245
X42618Y16634
X42678Y5355
X42913Y16900
X43128Y1475
X43218Y5355
X43219Y34474
X43908Y17146
X44724Y1565
X44728Y4615
X45438Y14315
X45459Y10556
X45512Y8888
X45708Y4915
X45769Y17137
X46718Y1585
X46969Y16959
X46969Y16644
X46969Y16289
X48138Y4765
X48740Y22627
X48772Y25910
X48976Y34370
X49016Y19400
X49252Y27707
X49291Y39400
X49646Y16841
X50088Y33565
X50414Y37352
X50738Y39325
X51181Y9281
X51868Y17115
X52348Y17115
X52643Y9911
X52662Y11132
X52662Y10640
X52761Y13258
X52780Y14480
X52804Y19721
X52918Y21271
X53154Y23771
X53174Y22964
X53194Y22137
X53740Y620
X53843Y11959
X53843Y11132
X53843Y10305
X54394Y23378
X54394Y22551
X54394Y21724
X54680Y12712
X55591Y33612
X55633Y21965
X55709Y23258
X56345Y21379
X56351Y13461
X56538Y20391
X56649Y13855
X56954Y21507
X56954Y20391
X57050Y13816
X57151Y13345
X58307Y1014
X60078Y17175
X60103Y19893
X60157Y21604
X60280Y14322
X60578Y17125
X7360Y10789
X7754Y10789
X8148Y10789
X8541Y10789
X8974Y25848
X9368Y25848
X10766Y25848
X11159Y25848
X28479Y19298
X28479Y22605
X28814Y19298
X29030Y22605
X29148Y19298
X29244Y22162
X29454Y22605
X29483Y19298
X29724Y18728
X30005Y22605
X55467Y21021
X55467Y20706
X55467Y13066
X55467Y12751
X57930Y20784
X57930Y20430
X57938Y13816
X57938Y13461
X49921Y35723
X50193Y35087
X49979Y34702
X50620Y34273
X50660Y33937
X50463Y33347
X50187Y33091
X50069Y32560
X50463Y32264
X50660Y32756
X50660Y31575
X50660Y30000
X50187Y30020
X49076Y29728
X48029Y29753
X47707Y30041
X46654Y30116
X45542Y30000
X44754Y30000
X45227Y31004
X45872Y31010
X45812Y32256
X45345Y32166
X45177Y32646
X44754Y32363
X45176Y33531
X44480Y33703
X44439Y34095
X44439Y34489
X45121Y34395
X45431Y34884
X45044Y35201
X45441Y35631
X45830Y35252
X45905Y34528
X45857Y34095
X47173Y35080
X47173Y35709
X48092Y35723
X48947Y35723
X48724Y35081
X48140Y34056
X47747Y32609
X48494Y32560
X48061Y32050
X47472Y31052
X46526Y29095
X45594Y29028
X45148Y29410
X44754Y28819
X45581Y28032
X47580Y27864
X47622Y28270
X48409Y28280
X48674Y28683
X50111Y28606
X49702Y29241
X50542Y29474
X17860Y17285
X18012Y17538
X17854Y17825
X17854Y18180
X18856Y17846
X19130Y17741
X19373Y17954
X18823Y17441
X20302Y18181
X21279Y18180
X21279Y17806
X21279Y17432
X27795Y17313
X26149Y17340
X26978Y17362
X29502Y18084
X28745Y18093
X27966Y18119
X26137Y18167
X27069Y18169
X27771Y18341
X26165Y18515
X29374Y18602
X28059Y18632
X29508Y18907
X25974Y18963
X27521Y19040
X28767Y19051
X26446Y19205
X27457Y19328
X27480Y19622
X27079Y19864
X27885Y19996
X27559Y20049
X28277Y20059
X29360Y20079
X28988Y20129
X28638Y20169
X27980Y20390
X29508Y20699
X27933Y20768
X27509Y21082
X27795Y21201
X28299Y21299
X26836Y21321
X29348Y21364
X27539Y21387
X26165Y21456
X26224Y21752
X27494Y21935
X25995Y21947
X28868Y22274
X28876Y22750
X29045Y22992
X28632Y23002
X29527Y23018
X28547Y17323
X28941Y17323
X26004Y23002
X26476Y23002
X26948Y23002
X27421Y23002
X23436Y17377
X25404Y17377
X22097Y17416
X23514Y18243
X24577Y18400
X25404Y18518
X22097Y18755
X23003Y19148
X23987Y19188
X24617Y19739
X25404Y19778
X22097Y20172
X22806Y20408
X25404Y20487
X23497Y20573
X25050Y20999
X24184Y21510
X25129Y21747
X22097Y21904
X25404Y22219
X22922Y22537
X23790Y22810
X25129Y22810
X24542Y17249
X24936Y17249
X21999Y22928
X22471Y22928
X22943Y22928
X23416Y22928
X12874Y27727
X15804Y27652
X14134Y27608
X10768Y27608
X10958Y27375
X12238Y27319
X12549Y27319
X15572Y27165
X13981Y26937
X14679Y26845
X12051Y26782
X11118Y26645
X10846Y26353
X15886Y26250
X15249Y26204
X14872Y26162
X13565Y26087
X12328Y26083
X10807Y25807
X12893Y25726
X11604Y25601
X13553Y25541
X14600Y25532
X12843Y25423
X10768Y25325
X15891Y24528
X11575Y24360
X13380Y24070
X14319Y23840
X12819Y23839
X13612Y23838
X13855Y23632
X10669Y23612
X13514Y23554
X14891Y23247
X12756Y23039
X14840Y22950
X10699Y22825
X14193Y22809
X14846Y22640
X11413Y22622
X12795Y22549
X13795Y22490
X14470Y22337
X11496Y22333
X12229Y22032
X15195Y22014
X15496Y22006
X10689Y21634
X15327Y21427
X15912Y21402
X15028Y21393
X15693Y21136
X14051Y20998
X13204Y20952
X12691Y20882
X11791Y20882
X11490Y20882
X11189Y20882
X10888Y20882
X12283Y20878
X13819Y20502
X13602Y20246
X10647Y18171
X12396Y17954
X15649Y17914
X15236Y17766
X12303Y17667
X14655Y17628
X14380Y17628
X14104Y17628
X15216Y17451
X10640Y17431
X14655Y17323
X14380Y17323
X15630Y17126
X15335Y27664
X14941Y27664
X14547Y27664
X13649Y27664
X13249Y27664
X12323Y17195
X11929Y17195
X11535Y17195
X11142Y17195
X29292Y28159
X29768Y28190
X30000Y28380
X30236Y28159
X30473Y28360
X30709Y28159
X30945Y28360
X31181Y28159
X31418Y28360
X31654Y28159
X31890Y28360
X32126Y28159
X32362Y28360
X32599Y28159
X32835Y28360
X33071Y28159
X33307Y28360
X33544Y28159
X33780Y28360
X34016Y28159
X34252Y28360
X34488Y28159
X34725Y28360
X34961Y28159
X35197Y28360
X35433Y28159
X35670Y28360
X35906Y28159
X36142Y28360
X36378Y28159
X36614Y28360
X36851Y28159
X37087Y28360
X37323Y28159
X37559Y28360
X37796Y28159
X38032Y28360
X38268Y28159
X38504Y28360
X38740Y28159
X38977Y28360
X39213Y28159
X39449Y28360
X39685Y28159
X40000Y28317
X39993Y28852
X39566Y29046
X39115Y29056
X38673Y29063
X38200Y29061
X37695Y30108
X37385Y30108
X37138Y29635
X36540Y29838
X36244Y29847
X36401Y30118
X36518Y30800
X36263Y31068
X36166Y31609
X36605Y31609
X37065Y31489
X37065Y31821
X37065Y32116
X37059Y32407
X37389Y33091
X37934Y33087
X37796Y33671
X37166Y33592
X37096Y34424
X37081Y34810
X36733Y34616
X36499Y34416
X36242Y34849
X35549Y35150
X34951Y35167
X34604Y34871
X33829Y35046
X33847Y34491
X33837Y33944
X33129Y34071
X33174Y34870
X33148Y35635
X33126Y36445
X33829Y36485
X33829Y36200
X33829Y35915
X33829Y36786
X34617Y37102
X34604Y37387
X34572Y37685
X34622Y38167
X35026Y38218
X35656Y38696
X36033Y38684
X36969Y38828
X37294Y38228
X37502Y38431
X37484Y37904
X37842Y37857
X37291Y37673
X37085Y36530
X36862Y36301
X36816Y35618
X36525Y35607
X37012Y35399
X37681Y35399
X38547Y35210
X38741Y34996
X38945Y34792
X39147Y34590
X39144Y35403
X38697Y35868
X38684Y36569
X39060Y36471
X38937Y36939
X38735Y37476
X38975Y37702
X39169Y38100
X38977Y38356
X38876Y38739
X38836Y39045
X39134Y38947
X39638Y38745
X39694Y38444
X39638Y37882
X39785Y37637
X39528Y37254
X39510Y36763
X40738Y36371
X41048Y36057
X40866Y35836
X40831Y35316
X42284Y35246
X42284Y35561
X42284Y35876
X42284Y36191
X42284Y36506
X42284Y36821
X42284Y37135
X42145Y37413
X42284Y37687
X42284Y38002
X42284Y38317
X42284Y38632
X42284Y38947
X42284Y39261
X41927Y39349
X42144Y39593
X41835Y40295
X41831Y41230
X41458Y41274
X41456Y40989
X41083Y41230
X41181Y42096
X40866Y42096
X40551Y42096
X40236Y42096
X39922Y42096
X39607Y42096
X39292Y42096
X38977Y42096
X38662Y42096
X38071Y41899
X37717Y42096
X37402Y42096
X37087Y42096
X36772Y42096
X36457Y42096
X36142Y42096
X35827Y42096
X35512Y42096
X35197Y42096
X34685Y42057
X34779Y41402
X34381Y41366
X34036Y41411
X33757Y41109
X33815Y41864
X33504Y42096
X32441Y42096
X32047Y42096
X31686Y42072
X31694Y41609
X31464Y41164
X31383Y40291
X30943Y40514
X32129Y40826
X32592Y41145
X32549Y40294
X32992Y40246
X33477Y39818
X33485Y39533
X33553Y39173
X33556Y38877
X32826Y38976
X32835Y38592
X32826Y38267
X33165Y37939
X32826Y37559
X32842Y37207
X32822Y36912
X33139Y37230
X32144Y37658
X32141Y38102
X30965Y37958
X30985Y37437
X30984Y37048
X31809Y36583
X32109Y36622
X32132Y36169
X32132Y35882
X32132Y35595
X32132Y35179
X32132Y34893
X32150Y34469
X32150Y34161
X32150Y33872
X32374Y33132
X32654Y33037
X32966Y32642
X32668Y32322
X32668Y31756
X32661Y31470
X32752Y30809
X32549Y30064
X32717Y29832
X32417Y29797
X31792Y29633
X31496Y29633
X30870Y29838
X30584Y29838
X30748Y30121
X30852Y30797
X30693Y31066
X30513Y31643
X30989Y31643
X31475Y31489
X31475Y31821
X31475Y32116
X31468Y32407
X30705Y32629
X30709Y33006
X29906Y33014
X29933Y32680
X29638Y33112
X29159Y33155
X29134Y33750
X29134Y34143
X29134Y34537
X29134Y34931
X29134Y35324
X29134Y35718
X29134Y36112
X29134Y36506
X29173Y37135
X29134Y37529
X29134Y37844
X29134Y38218
X29262Y38701
X29173Y39065
X29134Y39695
X29418Y39805
X29134Y40246
X29155Y41408
X29134Y42096
X30158Y38828
X30284Y38533
X31153Y39018
X33145Y39310
X34022Y39758
X34154Y40147
X34492Y40076
X34915Y39754
X35355Y39655
X36096Y39733
X36624Y40669
X36764Y40948
X36835Y41255
X37097Y40565
X37928Y40594
X38120Y40919
X38864Y40573
X38790Y39725
X39084Y39725
X39375Y39725
X40561Y39783
X40591Y40246
X40316Y40777
X40290Y41681
X39180Y41808
X41496Y42096
X41811Y42096
X42126Y42096
X40932Y39192
X40776Y38953
X41004Y38661
X41221Y38234
X40780Y38236
X40682Y37552
X41198Y37263
X41474Y37817
X41485Y36608
X42284Y34931
X42284Y34616
X42284Y34301
X42284Y33986
X42284Y33671
X42284Y33356
X42284Y33041
X42284Y32726
X42284Y32411
X41765Y31797
X42205Y31191
X42284Y30718
X41713Y30120
X41713Y29801
X41713Y29483
X41713Y29165
X41713Y28846
X41349Y28520
X42067Y28477
X40471Y29308
X40604Y29887
X40040Y30797
X39807Y31501
X39821Y31821
X39816Y32109
X39815Y32407
X39028Y32629
X39019Y33042
X38509Y32657
X38219Y32441
X38219Y31868
X38256Y31482
X38860Y31616
X39360Y31609
X39020Y31063
X39141Y30397
X38824Y30397
X38478Y30397
X39488Y30386
X37677Y30797
X35461Y31482
X35463Y31881
X35463Y32320
X35545Y32704
X36272Y32682
X36221Y32964
X35079Y33096
X34755Y33104
X34733Y33596
X34323Y33316
X34252Y32487
X34275Y32116
X34262Y31821
X34252Y31321
X33957Y31584
X33288Y31629
X33488Y31087
X33417Y30211
X33648Y29631
X34358Y29838
X34650Y29838
X34508Y30128
X34631Y30797
X35277Y29677
X35605Y29626
X33610Y32635
X33411Y33041
X31798Y33091
X31264Y33710
X31264Y34471
X31264Y35232
X31265Y35994
X34948Y35941
X34744Y36266
X34906Y37154
X33827Y38254
X34626Y40877
X35070Y40781
X35163Y40511
X35366Y40874
X37872Y39532
X37930Y39249
X39503Y33716
X39882Y34065
X40969Y33920
X40920Y33191
X40608Y33223
X40145Y33091
X41680Y33398
X35358Y34453
X29872Y31909
X29910Y31444
X29628Y31122
X29137Y31083
X29735Y30531
X29469Y30219
X29134Y29537
X29134Y29143
X29154Y28558
X29725Y28750
X29922Y29633
X29262Y32441
X47564Y38432
X47220Y38639
X47101Y38137
X47131Y36739
X16854Y24514
X18311Y24356
X20338Y23451
X17304Y23434
X18862Y23057
X18198Y23019
X20319Y22663
X16815Y22663
X19571Y22624
X17445Y22624
X20338Y21915
X19571Y21915
X18862Y21915
X18153Y21915
X17445Y21915
X18862Y21207
X16815Y21167
X18153Y20774
X17445Y20774
X19931Y20343
X20240Y20341
X19768Y20026
X20319Y19711
X17208Y19671
X18705Y19573
X16854Y19553
X19807Y19514
X20437Y24632
X20122Y24632
X19807Y24632
X19492Y24632
X19177Y24632
X18862Y24632
X18547Y24632
X20437Y24317
T02
X32067Y40276
X32382Y40965
X32697Y40276
X33012Y40965
X33327Y40276
X31260Y40876G85X31260Y40364
X34134Y40876G85X34134Y40364
X16815Y24002
X16815Y23530
X20358Y21167
X16815Y20301
T03
X3425Y12531
X3425Y11031
X4331Y12551
X4331Y11051
X5236Y12551
X5236Y11051
X6142Y12551
X6142Y11051
X16457Y11776
X16457Y10276
X18238Y11801
X18238Y10301
X19035Y11793
X19035Y10293
X20315Y11793
X20315Y10293
X21496Y11852
X21496Y10352
X48848Y12470
X48848Y10541
X49990Y12470
X49990Y10541
X35229Y33454
X36807Y33454
X38229Y33454
T04
X1024Y38031
X1024Y33750
X1024Y28406
X1024Y24094
X1024Y20197
X1024Y16053
X1024Y12106
X1024Y8406
X1083Y5719
X6280Y45266
X10561Y45266
X14744Y45266
X19242Y45266
X23888Y45266
X27933Y45266
X32215Y45276
X36398Y45276
X40896Y45276
X45039Y45256
X49587Y45276
X53730Y45256
X58278Y45276
X63346Y38612
X63346Y34331
X63346Y28986
X63346Y24675
X63346Y20778
X63346Y16634
X63346Y12687
X63346Y8986
X63346Y5846
X5197Y26083
X5197Y25083
X5197Y24083
X5197Y23083
X5197Y22083
X5197Y21083
X14026Y12864
X15020Y12864
X16014Y12864
X17008Y12864
X17500Y16358
X18081Y12864
X18839Y16348
X19154Y12854
X19951Y16348
X20217Y12854
X21063Y16348
X21568Y12865
X21850Y39173
X22520Y11132
X22850Y39173
X23850Y39173
X24850Y39173
X25108Y10089
X25850Y39173
X26041Y11895
X26208Y15465
X26211Y10059
X26850Y39173
X27085Y11895
X27283Y10089
X27850Y39173
X28128Y11895
X28593Y10069
X28850Y39173
X29171Y11895
X29675Y10069
X30214Y11895
X30448Y16285
X31053Y10069
X31268Y11895
X31788Y16845
X32116Y10069
X32328Y11895
X33159Y10069
X33368Y11895
X34163Y10069
X34428Y11895
X35630Y15876
X46038Y13475
X55047Y41181
X55047Y40181
X55047Y39181
X55047Y38181
X55047Y37181
X56047Y41181
X56047Y40181
X56047Y39181
X56047Y38181
X56047Y37181
X57047Y41181
X57047Y40181
X57047Y39181
X57047Y38181
X57047Y37181
X59000Y38000
X59000Y37000
X59000Y36000
X59000Y35000
X59000Y34000
X59000Y32760
X59000Y31760
X59000Y30760
X59000Y29760
X59000Y28760
X59000Y27480
X59000Y26480
X59000Y25480
X59000Y24480
X59000Y23480
X60000Y38000
X60000Y37000
X60000Y36000
X60000Y35000
X60000Y34000
X60000Y32760
X60000Y31760
X60000Y30760
X60000Y29760
X60000Y28760
X60000Y27480
X60000Y26480
X60000Y25480
X60000Y24480
X60000Y23480
X61000Y38000
X61000Y37000
X61000Y36000
X61000Y35000
X61000Y34000
X61000Y32760
X61000Y31760
X61000Y30760
X61000Y29760
X61000Y28760
X61000Y27480
X61000Y26480
X61000Y25480
X61000Y24480
X61000Y23480
X50719Y35434
X50719Y30689
X44616Y30709
X44616Y31457
X44616Y33150
X44616Y35611
X44616Y28189
X50719Y28012
X50719Y28741
X11653Y20341
X12835Y19553
X11653Y18766
X11575Y27467
X11975Y25467
X11175Y25467
X29449Y41781
X38528Y40810
X38528Y41610
X40528Y41210
T05
X15531Y7331
X15531Y6331
X15531Y3950
X15531Y2950
X16531Y7331
X16531Y6331
X16531Y3950
X16531Y2950
X17531Y7331
X17531Y6331
X17531Y3950
X17531Y2950
X18531Y7331
X18531Y6331
X18531Y3950
X18531Y2950
X19531Y7331
X19531Y6331
X19531Y3950
X19531Y2950
X20531Y7331
X20531Y6331
X20531Y3950
X20531Y2950
X21531Y7331
X21531Y6331
X21531Y3950
X21531Y2950
X22531Y7331
X22531Y6331
X22531Y3950
X22531Y2950
X23531Y7331
X23531Y6331
X23531Y3950
X23531Y2950
X24531Y7331
X24531Y6331
X24531Y3950
X24531Y2950
X25531Y7331
X25531Y6331
X25531Y3950
X25531Y2950
X26531Y7331
X26531Y6331
X26531Y3950
X26531Y2950
X27531Y7331
X27531Y6331
X27531Y3950
X27531Y2950
X28531Y7331
X28531Y6331
X28531Y3950
X28531Y2950
X29531Y7331
X29531Y6331
X29531Y3950
X29531Y2950
X30531Y7331
X30531Y6331
X30531Y3950
X30531Y2950
X31531Y7331
X31531Y6331
X31531Y3950
X31531Y2950
X32531Y7331
X32531Y6331
X32531Y3950
X32531Y2950
X33531Y7331
X33531Y6331
X33531Y3950
X33531Y2950
X39818Y7331
X39818Y6331
X39818Y3950
X39818Y2950
X40818Y7331
X40818Y6331
X40818Y3950
X40818Y2950
X41818Y7331
X41818Y6331
X41818Y3950
X41818Y2950
X42818Y7331
X42818Y6331
X42818Y3950
X42818Y2950
X43818Y7331
X43818Y6331
X43818Y3950
X43818Y2950
X44818Y7331
X44818Y6331
X44818Y3950
X44818Y2950
X45818Y7331
X45818Y6331
X45818Y3950
X45818Y2950
X46818Y7331
X46818Y6331
X46818Y3950
X46818Y2950
X15462Y20518
X15462Y19518
X15462Y18518
T06
X35709Y41142
X37165Y40276
X37913Y41142
X39370Y40276
X40354Y41142
T07
X8306Y5233
X10137Y7331
X10137Y4131
X11279Y5048
X12420Y7331
X12420Y4131
X49901Y7331
X49901Y4131
X51043Y5048
X52184Y7331
X52184Y4131
X53365Y5048
X54507Y7331
X54507Y4131
X56259Y5233
T08
X7342Y2162
X36672Y2162
X57224Y2162
M30
