G75*
G70*
%OFA0B0*%
%FSLAX25Y25*%
%IPPOS*%
%LPD*%
%AMOC8*
5,1,8,0,0,1.08239X$1,22.5*
%
%AMM146*
21,1,0.092130,0.073230,-0.000000,-0.000000,90.000000*
21,1,0.069290,0.096060,-0.000000,-0.000000,90.000000*
1,1,0.022840,0.036610,0.034650*
1,1,0.022840,0.036610,-0.034650*
1,1,0.022840,-0.036610,-0.034650*
1,1,0.022840,-0.036610,0.034650*
%
%AMM147*
21,1,0.100000,0.111020,-0.000000,-0.000000,180.000000*
21,1,0.075590,0.135430,-0.000000,-0.000000,180.000000*
1,1,0.024410,-0.037800,0.055510*
1,1,0.024410,0.037800,0.055510*
1,1,0.024410,0.037800,-0.055510*
1,1,0.024410,-0.037800,-0.055510*
%
%AMM148*
21,1,0.080320,0.083460,-0.000000,-0.000000,180.000000*
21,1,0.059840,0.103940,-0.000000,-0.000000,180.000000*
1,1,0.020470,-0.029920,0.041730*
1,1,0.020470,0.029920,0.041730*
1,1,0.020470,0.029920,-0.041730*
1,1,0.020470,-0.029920,-0.041730*
%
%AMM149*
21,1,0.084250,0.053540,-0.000000,-0.000000,0.000000*
21,1,0.065350,0.072440,-0.000000,-0.000000,0.000000*
1,1,0.018900,0.032680,-0.026770*
1,1,0.018900,-0.032680,-0.026770*
1,1,0.018900,-0.032680,0.026770*
1,1,0.018900,0.032680,0.026770*
%
%AMM150*
21,1,0.040950,0.030320,-0.000000,-0.000000,270.000000*
21,1,0.028350,0.042910,-0.000000,-0.000000,270.000000*
1,1,0.012600,-0.015160,-0.014170*
1,1,0.012600,-0.015160,0.014170*
1,1,0.012600,0.015160,0.014170*
1,1,0.012600,0.015160,-0.014170*
%
%AMM151*
21,1,0.027170,0.052760,-0.000000,-0.000000,90.000000*
21,1,0.017320,0.062600,-0.000000,-0.000000,90.000000*
1,1,0.009840,0.026380,0.008660*
1,1,0.009840,0.026380,-0.008660*
1,1,0.009840,-0.026380,-0.008660*
1,1,0.009840,-0.026380,0.008660*
%
%AMM152*
21,1,0.041340,0.026770,-0.000000,-0.000000,180.000000*
21,1,0.029130,0.038980,-0.000000,-0.000000,180.000000*
1,1,0.012210,-0.014570,0.013390*
1,1,0.012210,0.014570,0.013390*
1,1,0.012210,0.014570,-0.013390*
1,1,0.012210,-0.014570,-0.013390*
%
%AMM153*
21,1,0.076380,0.036220,-0.000000,-0.000000,270.000000*
21,1,0.061810,0.050790,-0.000000,-0.000000,270.000000*
1,1,0.014570,-0.018110,-0.030910*
1,1,0.014570,-0.018110,0.030910*
1,1,0.014570,0.018110,0.030910*
1,1,0.014570,0.018110,-0.030910*
%
%AMM154*
21,1,0.038980,0.026770,-0.000000,-0.000000,180.000000*
21,1,0.026770,0.038980,-0.000000,-0.000000,180.000000*
1,1,0.012210,-0.013390,0.013390*
1,1,0.012210,0.013390,0.013390*
1,1,0.012210,0.013390,-0.013390*
1,1,0.012210,-0.013390,-0.013390*
%
%AMM155*
21,1,0.021260,0.016540,-0.000000,-0.000000,90.000000*
21,1,0.012600,0.025200,-0.000000,-0.000000,90.000000*
1,1,0.008660,0.008270,0.006300*
1,1,0.008660,0.008270,-0.006300*
1,1,0.008660,-0.008270,-0.006300*
1,1,0.008660,-0.008270,0.006300*
%
%AMM156*
21,1,0.029130,0.018900,-0.000000,-0.000000,270.000000*
21,1,0.018900,0.029130,-0.000000,-0.000000,270.000000*
1,1,0.010240,-0.009450,-0.009450*
1,1,0.010240,-0.009450,0.009450*
1,1,0.010240,0.009450,0.009450*
1,1,0.010240,0.009450,-0.009450*
%
%AMM157*
21,1,0.025200,0.019680,-0.000000,-0.000000,180.000000*
21,1,0.015750,0.029130,-0.000000,-0.000000,180.000000*
1,1,0.009450,-0.007870,0.009840*
1,1,0.009450,0.007870,0.009840*
1,1,0.009450,0.007870,-0.009840*
1,1,0.009450,-0.007870,-0.009840*
%
%AMM158*
21,1,0.025200,0.019680,-0.000000,-0.000000,90.000000*
21,1,0.015750,0.029130,-0.000000,-0.000000,90.000000*
1,1,0.009450,0.009840,0.007870*
1,1,0.009450,0.009840,-0.007870*
1,1,0.009450,-0.009840,-0.007870*
1,1,0.009450,-0.009840,0.007870*
%
%AMM175*
21,1,0.040950,0.030320,-0.000000,-0.000000,0.000000*
21,1,0.028350,0.042910,-0.000000,-0.000000,0.000000*
1,1,0.012600,0.014170,-0.015160*
1,1,0.012600,-0.014170,-0.015160*
1,1,0.012600,-0.014170,0.015160*
1,1,0.012600,0.014170,0.015160*
%
%AMM176*
21,1,0.033070,0.030710,-0.000000,-0.000000,0.000000*
21,1,0.022050,0.041730,-0.000000,-0.000000,0.000000*
1,1,0.011020,0.011020,-0.015350*
1,1,0.011020,-0.011020,-0.015350*
1,1,0.011020,-0.011020,0.015350*
1,1,0.011020,0.011020,0.015350*
%
%AMM19*
21,1,0.027170,0.052760,0.000000,0.000000,270.000000*
21,1,0.017320,0.062600,0.000000,0.000000,270.000000*
1,1,0.009840,-0.026380,-0.008660*
1,1,0.009840,-0.026380,0.008660*
1,1,0.009840,0.026380,0.008660*
1,1,0.009840,0.026380,-0.008660*
%
%AMM55*
21,1,0.029530,0.026380,0.000000,0.000000,270.000000*
21,1,0.020470,0.035430,0.000000,0.000000,270.000000*
1,1,0.009060,-0.013190,-0.010240*
1,1,0.009060,-0.013190,0.010240*
1,1,0.009060,0.013190,0.010240*
1,1,0.009060,0.013190,-0.010240*
%
%AMM56*
21,1,0.021650,0.027950,0.000000,0.000000,270.000000*
21,1,0.014170,0.035430,0.000000,0.000000,270.000000*
1,1,0.007480,-0.013980,-0.007090*
1,1,0.007480,-0.013980,0.007090*
1,1,0.007480,0.013980,0.007090*
1,1,0.007480,0.013980,-0.007090*
%
%AMM57*
21,1,0.016540,0.028980,0.000000,0.000000,90.000000*
21,1,0.010080,0.035430,0.000000,0.000000,90.000000*
1,1,0.006460,0.014490,0.005040*
1,1,0.006460,0.014490,-0.005040*
1,1,0.006460,-0.014490,-0.005040*
1,1,0.006460,-0.014490,0.005040*
%
%AMM58*
21,1,0.027560,0.030710,0.000000,0.000000,180.000000*
21,1,0.018900,0.039370,0.000000,0.000000,180.000000*
1,1,0.008660,-0.009450,0.015350*
1,1,0.008660,0.009450,0.015350*
1,1,0.008660,0.009450,-0.015350*
1,1,0.008660,-0.009450,-0.015350*
%
%AMM59*
21,1,0.031500,0.018900,0.000000,0.000000,90.000000*
21,1,0.022840,0.027560,0.000000,0.000000,90.000000*
1,1,0.008660,0.009450,0.011420*
1,1,0.008660,0.009450,-0.011420*
1,1,0.008660,-0.009450,-0.011420*
1,1,0.008660,-0.009450,0.011420*
%
%AMM60*
21,1,0.035430,0.072440,0.000000,0.000000,90.000000*
21,1,0.025200,0.082680,0.000000,0.000000,90.000000*
1,1,0.010240,0.036220,0.012600*
1,1,0.010240,0.036220,-0.012600*
1,1,0.010240,-0.036220,-0.012600*
1,1,0.010240,-0.036220,0.012600*
%
%AMM61*
21,1,0.031500,0.018900,0.000000,0.000000,180.000000*
21,1,0.022840,0.027560,0.000000,0.000000,180.000000*
1,1,0.008660,-0.011420,0.009450*
1,1,0.008660,0.011420,0.009450*
1,1,0.008660,0.011420,-0.009450*
1,1,0.008660,-0.011420,-0.009450*
%
%AMM62*
21,1,0.027560,0.030710,0.000000,0.000000,270.000000*
21,1,0.018900,0.039370,0.000000,0.000000,270.000000*
1,1,0.008660,-0.015350,-0.009450*
1,1,0.008660,-0.015350,0.009450*
1,1,0.008660,0.015350,0.009450*
1,1,0.008660,0.015350,-0.009450*
%
%AMM63*
21,1,0.039370,0.030320,0.000000,0.000000,270.000000*
21,1,0.028350,0.041340,0.000000,0.000000,270.000000*
1,1,0.011020,-0.015160,-0.014170*
1,1,0.011020,-0.015160,0.014170*
1,1,0.011020,0.015160,0.014170*
1,1,0.011020,0.015160,-0.014170*
%
%AMM64*
21,1,0.047240,0.075980,0.000000,0.000000,0.000000*
21,1,0.034650,0.088580,0.000000,0.000000,0.000000*
1,1,0.012600,0.017320,-0.037990*
1,1,0.012600,-0.017320,-0.037990*
1,1,0.012600,-0.017320,0.037990*
1,1,0.012600,0.017320,0.037990*
%
%AMM65*
21,1,0.043310,0.035430,0.000000,0.000000,0.000000*
21,1,0.031500,0.047240,0.000000,0.000000,0.000000*
1,1,0.011810,0.015750,-0.017720*
1,1,0.011810,-0.015750,-0.017720*
1,1,0.011810,-0.015750,0.017720*
1,1,0.011810,0.015750,0.017720*
%
%AMM66*
21,1,0.031500,0.030710,0.000000,0.000000,0.000000*
21,1,0.022050,0.040160,0.000000,0.000000,0.000000*
1,1,0.009450,0.011020,-0.015350*
1,1,0.009450,-0.011020,-0.015350*
1,1,0.009450,-0.011020,0.015350*
1,1,0.009450,0.011020,0.015350*
%
%AMM67*
21,1,0.035430,0.072440,0.000000,0.000000,0.000000*
21,1,0.025200,0.082680,0.000000,0.000000,0.000000*
1,1,0.010240,0.012600,-0.036220*
1,1,0.010240,-0.012600,-0.036220*
1,1,0.010240,-0.012600,0.036220*
1,1,0.010240,0.012600,0.036220*
%
%AMM68*
21,1,0.141730,0.067720,0.000000,0.000000,0.000000*
21,1,0.120870,0.088580,0.000000,0.000000,0.000000*
1,1,0.020870,0.060430,-0.033860*
1,1,0.020870,-0.060430,-0.033860*
1,1,0.020870,-0.060430,0.033860*
1,1,0.020870,0.060430,0.033860*
%
%AMM69*
21,1,0.047240,0.075990,0.000000,0.000000,0.000000*
21,1,0.034650,0.088580,0.000000,0.000000,0.000000*
1,1,0.012600,0.017320,-0.037990*
1,1,0.012600,-0.017320,-0.037990*
1,1,0.012600,-0.017320,0.037990*
1,1,0.012600,0.017320,0.037990*
%
%AMM70*
21,1,0.090550,0.073230,0.000000,0.000000,90.000000*
21,1,0.069290,0.094490,0.000000,0.000000,90.000000*
1,1,0.021260,0.036610,0.034650*
1,1,0.021260,0.036610,-0.034650*
1,1,0.021260,-0.036610,-0.034650*
1,1,0.021260,-0.036610,0.034650*
%
%ADD10R,0.04331X0.04331*%
%ADD106M19*%
%ADD11C,0.04331*%
%ADD114C,0.02913*%
%ADD115C,0.06457*%
%ADD12O,0.04331X0.09449*%
%ADD13O,0.06693X0.07283*%
%ADD138R,0.02559X0.01575*%
%ADD139R,0.01575X0.02559*%
%ADD14C,0.10236*%
%ADD142R,0.03543X0.03150*%
%ADD144C,0.05118*%
%ADD146R,0.03150X0.03543*%
%ADD15C,0.05906*%
%ADD154C,0.03100*%
%ADD158C,0.03900*%
%ADD16C,0.14567*%
%ADD17C,0.08661*%
%ADD18C,0.02362*%
%ADD189M55*%
%ADD190M56*%
%ADD191M57*%
%ADD192O,0.05118X0.01260*%
%ADD193O,0.01260X0.05118*%
%ADD194O,0.04724X0.01575*%
%ADD195C,0.03494*%
%ADD196M58*%
%ADD197M59*%
%ADD198R,0.01772X0.01378*%
%ADD199R,0.01378X0.01772*%
%ADD200M60*%
%ADD201M61*%
%ADD202M62*%
%ADD203M63*%
%ADD204O,0.09055X0.02756*%
%ADD205M64*%
%ADD206M65*%
%ADD207M66*%
%ADD208M67*%
%ADD209M68*%
%ADD210M69*%
%ADD211C,0.03543*%
%ADD212M70*%
%ADD213C,0.04724*%
%ADD214C,0.04294*%
%ADD254O,0.02520X0.01535*%
%ADD255O,0.01535X0.02520*%
%ADD257O,0.09213X0.02913*%
%ADD328M146*%
%ADD329M147*%
%ADD330M148*%
%ADD331M149*%
%ADD332M150*%
%ADD333M151*%
%ADD334M152*%
%ADD335M153*%
%ADD336M154*%
%ADD337M155*%
%ADD338M156*%
%ADD339M157*%
%ADD340M158*%
%ADD351R,0.01181X0.05512*%
%ADD352R,0.08661X0.04724*%
%ADD353R,0.25197X0.22835*%
%ADD354R,0.07874X0.07500*%
%ADD355O,0.07874X0.07500*%
%ADD371M175*%
%ADD372M176*%
%ADD373R,0.02559X0.07874*%
%ADD374R,0.31890X0.17717*%
%ADD40C,0.06000*%
%ADD55O,0.00984X0.01969*%
%ADD57O,0.01969X0.00984*%
X0000000Y0000000D02*
%LPD*%
G01*
G36*
G01*
X0253661Y0373622D02*
X0253661Y0374803D01*
G75*
G02*
X0254252Y0375394I0000591J0000000D01*
G01*
X0260748Y0375394D01*
G75*
G02*
X0261339Y0374803I0000000J-000591D01*
G01*
X0261339Y0373622D01*
G75*
G02*
X0260748Y0373031I-000591J0000000D01*
G01*
X0254252Y0373031D01*
G75*
G02*
X0253661Y0373622I0000000J0000591D01*
G01*
G37*
G36*
G01*
X0253661Y0368622D02*
X0253661Y0369803D01*
G75*
G02*
X0254252Y0370394I0000591J0000000D01*
G01*
X0260748Y0370394D01*
G75*
G02*
X0261339Y0369803I0000000J-000591D01*
G01*
X0261339Y0368622D01*
G75*
G02*
X0260748Y0368031I-000591J0000000D01*
G01*
X0254252Y0368031D01*
G75*
G02*
X0253661Y0368622I0000000J0000591D01*
G01*
G37*
G36*
G01*
X0253661Y0363622D02*
X0253661Y0364803D01*
G75*
G02*
X0254252Y0365394I0000591J0000000D01*
G01*
X0260748Y0365394D01*
G75*
G02*
X0261339Y0364803I0000000J-000591D01*
G01*
X0261339Y0363622D01*
G75*
G02*
X0260748Y0363031I-000591J0000000D01*
G01*
X0254252Y0363031D01*
G75*
G02*
X0253661Y0363622I0000000J0000591D01*
G01*
G37*
G36*
G01*
X0253661Y0358622D02*
X0253661Y0359803D01*
G75*
G02*
X0254252Y0360394I0000591J0000000D01*
G01*
X0260748Y0360394D01*
G75*
G02*
X0261339Y0359803I0000000J-000591D01*
G01*
X0261339Y0358622D01*
G75*
G02*
X0260748Y0358031I-000591J0000000D01*
G01*
X0254252Y0358031D01*
G75*
G02*
X0253661Y0358622I0000000J0000591D01*
G01*
G37*
G36*
G01*
X0234173Y0358622D02*
X0234173Y0359803D01*
G75*
G02*
X0234764Y0360394I0000591J0000000D01*
G01*
X0241260Y0360394D01*
G75*
G02*
X0241850Y0359803I0000000J-000591D01*
G01*
X0241850Y0358622D01*
G75*
G02*
X0241260Y0358031I-000591J0000000D01*
G01*
X0234764Y0358031D01*
G75*
G02*
X0234173Y0358622I0000000J0000591D01*
G01*
G37*
G36*
G01*
X0234173Y0363622D02*
X0234173Y0364803D01*
G75*
G02*
X0234764Y0365394I0000591J0000000D01*
G01*
X0241260Y0365394D01*
G75*
G02*
X0241850Y0364803I0000000J-000591D01*
G01*
X0241850Y0363622D01*
G75*
G02*
X0241260Y0363031I-000591J0000000D01*
G01*
X0234764Y0363031D01*
G75*
G02*
X0234173Y0363622I0000000J0000591D01*
G01*
G37*
G36*
G01*
X0234173Y0368622D02*
X0234173Y0369803D01*
G75*
G02*
X0234764Y0370394I0000591J0000000D01*
G01*
X0241260Y0370394D01*
G75*
G02*
X0241850Y0369803I0000000J-000591D01*
G01*
X0241850Y0368622D01*
G75*
G02*
X0241260Y0368031I-000591J0000000D01*
G01*
X0234764Y0368031D01*
G75*
G02*
X0234173Y0368622I0000000J0000591D01*
G01*
G37*
G36*
G01*
X0234173Y0373622D02*
X0234173Y0374803D01*
G75*
G02*
X0234764Y0375394I0000591J0000000D01*
G01*
X0241260Y0375394D01*
G75*
G02*
X0241850Y0374803I0000000J-000591D01*
G01*
X0241850Y0373622D01*
G75*
G02*
X0241260Y0373031I-000591J0000000D01*
G01*
X0234764Y0373031D01*
G75*
G02*
X0234173Y0373622I0000000J0000591D01*
G01*
G37*
G36*
G01*
X0219587Y0344134D02*
X0219587Y0346811D01*
G75*
G02*
X0219921Y0347146I0000335J0000000D01*
G01*
X0222598Y0347146D01*
G75*
G02*
X0222933Y0346811I0000000J-000335D01*
G01*
X0222933Y0344134D01*
G75*
G02*
X0222598Y0343800I-000335J0000000D01*
G01*
X0219921Y0343800D01*
G75*
G02*
X0219587Y0344134I0000000J0000335D01*
G01*
G37*
G36*
G01*
X0225807Y0344134D02*
X0225807Y0346811D01*
G75*
G02*
X0226142Y0347146I0000335J0000000D01*
G01*
X0228819Y0347146D01*
G75*
G02*
X0229154Y0346811I0000000J-000335D01*
G01*
X0229154Y0344134D01*
G75*
G02*
X0228819Y0343800I-000335J0000000D01*
G01*
X0226142Y0343800D01*
G75*
G02*
X0225807Y0344134I0000000J0000335D01*
G01*
G37*
G36*
G01*
X0219587Y0351811D02*
X0219587Y0354488D01*
G75*
G02*
X0219921Y0354823I0000335J0000000D01*
G01*
X0222598Y0354823D01*
G75*
G02*
X0222933Y0354488I0000000J-000335D01*
G01*
X0222933Y0351811D01*
G75*
G02*
X0222598Y0351477I-000335J0000000D01*
G01*
X0219921Y0351477D01*
G75*
G02*
X0219587Y0351811I0000000J0000335D01*
G01*
G37*
G36*
G01*
X0225807Y0351811D02*
X0225807Y0354488D01*
G75*
G02*
X0226142Y0354823I0000335J0000000D01*
G01*
X0228819Y0354823D01*
G75*
G02*
X0229154Y0354488I0000000J-000335D01*
G01*
X0229154Y0351811D01*
G75*
G02*
X0228819Y0351477I-000335J0000000D01*
G01*
X0226142Y0351477D01*
G75*
G02*
X0225807Y0351811I0000000J0000335D01*
G01*
G37*
G36*
G01*
X0219587Y0359488D02*
X0219587Y0362166D01*
G75*
G02*
X0219921Y0362500I0000335J0000000D01*
G01*
X0222598Y0362500D01*
G75*
G02*
X0222933Y0362166I0000000J-000335D01*
G01*
X0222933Y0359488D01*
G75*
G02*
X0222598Y0359154I-000335J0000000D01*
G01*
X0219921Y0359154D01*
G75*
G02*
X0219587Y0359488I0000000J0000335D01*
G01*
G37*
G36*
G01*
X0225807Y0359488D02*
X0225807Y0362166D01*
G75*
G02*
X0226142Y0362500I0000335J0000000D01*
G01*
X0228819Y0362500D01*
G75*
G02*
X0229154Y0362166I0000000J-000335D01*
G01*
X0229154Y0359488D01*
G75*
G02*
X0228819Y0359154I-000335J0000000D01*
G01*
X0226142Y0359154D01*
G75*
G02*
X0225807Y0359488I0000000J0000335D01*
G01*
G37*
G36*
G01*
X0219587Y0367165D02*
X0219587Y0369843D01*
G75*
G02*
X0219921Y0370177I0000335J0000000D01*
G01*
X0222598Y0370177D01*
G75*
G02*
X0222933Y0369843I0000000J-000335D01*
G01*
X0222933Y0367165D01*
G75*
G02*
X0222598Y0366831I-000335J0000000D01*
G01*
X0219921Y0366831D01*
G75*
G02*
X0219587Y0367165I0000000J0000335D01*
G01*
G37*
G36*
G01*
X0225807Y0367165D02*
X0225807Y0369843D01*
G75*
G02*
X0226142Y0370177I0000335J0000000D01*
G01*
X0228819Y0370177D01*
G75*
G02*
X0229154Y0369843I0000000J-000335D01*
G01*
X0229154Y0367165D01*
G75*
G02*
X0228819Y0366831I-000335J0000000D01*
G01*
X0226142Y0366831D01*
G75*
G02*
X0225807Y0367165I0000000J0000335D01*
G01*
G37*
G36*
G01*
X0219587Y0374843D02*
X0219587Y0377520D01*
G75*
G02*
X0219921Y0377854I0000335J0000000D01*
G01*
X0222598Y0377854D01*
G75*
G02*
X0222933Y0377520I0000000J-000335D01*
G01*
X0222933Y0374843D01*
G75*
G02*
X0222598Y0374508I-000335J0000000D01*
G01*
X0219921Y0374508D01*
G75*
G02*
X0219587Y0374843I0000000J0000335D01*
G01*
G37*
G36*
G01*
X0225807Y0374843D02*
X0225807Y0377520D01*
G75*
G02*
X0226142Y0377854I0000335J0000000D01*
G01*
X0228819Y0377854D01*
G75*
G02*
X0229154Y0377520I0000000J-000335D01*
G01*
X0229154Y0374843D01*
G75*
G02*
X0228819Y0374508I-000335J0000000D01*
G01*
X0226142Y0374508D01*
G75*
G02*
X0225807Y0374843I0000000J0000335D01*
G01*
G37*
G36*
G01*
X0146063Y0344902D02*
X0146063Y0346476D01*
G75*
G02*
X0146850Y0347264I0000787J0000000D01*
G01*
X0153937Y0347264D01*
G75*
G02*
X0154724Y0346476I0000000J-000787D01*
G01*
X0154724Y0344902D01*
G75*
G02*
X0153937Y0344114I-000787J0000000D01*
G01*
X0146850Y0344114D01*
G75*
G02*
X0146063Y0344902I0000000J0000787D01*
G01*
G37*
G36*
G01*
X0146063Y0340413D02*
X0146063Y0341988D01*
G75*
G02*
X0146850Y0342776I0000787J0000000D01*
G01*
X0153937Y0342776D01*
G75*
G02*
X0154724Y0341988I0000000J-000787D01*
G01*
X0154724Y0340413D01*
G75*
G02*
X0153937Y0339626I-000787J0000000D01*
G01*
X0146850Y0339626D01*
G75*
G02*
X0146063Y0340413I0000000J0000787D01*
G01*
G37*
G36*
G01*
X0162598Y0326280D02*
X0162598Y0347146D01*
G75*
G02*
X0163583Y0348130I0000984J0000000D01*
G01*
X0186811Y0348130D01*
G75*
G02*
X0187795Y0347146I0000000J-000984D01*
G01*
X0187795Y0326280D01*
G75*
G02*
X0186811Y0325295I-000984J0000000D01*
G01*
X0163583Y0325295D01*
G75*
G02*
X0162598Y0326280I0000000J0000984D01*
G01*
G37*
G36*
G01*
X0146063Y0331437D02*
X0146063Y0333012D01*
G75*
G02*
X0146850Y0333799I0000787J0000000D01*
G01*
X0153937Y0333799D01*
G75*
G02*
X0154724Y0333012I0000000J-000787D01*
G01*
X0154724Y0331437D01*
G75*
G02*
X0153937Y0330650I-000787J0000000D01*
G01*
X0146850Y0330650D01*
G75*
G02*
X0146063Y0331437I0000000J0000787D01*
G01*
G37*
G36*
G01*
X0146063Y0326949D02*
X0146063Y0328524D01*
G75*
G02*
X0146850Y0329311I0000787J0000000D01*
G01*
X0153937Y0329311D01*
G75*
G02*
X0154724Y0328524I0000000J-000787D01*
G01*
X0154724Y0326949D01*
G75*
G02*
X0153937Y0326161I-000787J0000000D01*
G01*
X0146850Y0326161D01*
G75*
G02*
X0146063Y0326949I0000000J0000787D01*
G01*
G37*
D10*
X0156102Y0306201D03*
D11*
X0159252Y0313091D03*
X0162402Y0306201D03*
X0165551Y0313091D03*
X0168701Y0306201D03*
D12*
X0176772Y0309646D03*
X0148031Y0309646D03*
G36*
G01*
X0153346Y0361024D02*
X0153346Y0366339D01*
G75*
G02*
X0154331Y0367323I0000984J0000000D01*
G01*
X0159055Y0367323D01*
G75*
G02*
X0160039Y0366339I0000000J-000984D01*
G01*
X0160039Y0361024D01*
G75*
G02*
X0159055Y0360039I-000984J0000000D01*
G01*
X0154331Y0360039D01*
G75*
G02*
X0153346Y0361024I0000000J0000984D01*
G01*
G37*
D13*
X0166535Y0363681D03*
X0176378Y0363681D03*
X0186220Y0363681D03*
X0196063Y0363681D03*
D14*
X0545071Y0073315D03*
X0521843Y0073315D03*
X0499008Y0073315D03*
X0533654Y0050480D03*
X0510425Y0050480D03*
X0545071Y0041307D03*
X0521843Y0041307D03*
X0499008Y0041307D03*
D15*
X0468181Y0073315D03*
X0458181Y0073315D03*
X0448181Y0073315D03*
X0438181Y0073315D03*
X0428181Y0073315D03*
X0418181Y0073315D03*
X0408181Y0073315D03*
X0398181Y0073315D03*
X0468181Y0063315D03*
X0458181Y0063315D03*
X0448181Y0063315D03*
X0438181Y0063315D03*
X0428181Y0063315D03*
X0418181Y0063315D03*
X0408181Y0063315D03*
X0398181Y0063315D03*
X0468181Y0039496D03*
X0458181Y0039496D03*
X0448181Y0039496D03*
X0438181Y0039496D03*
X0428181Y0039496D03*
X0418181Y0039496D03*
X0408181Y0039496D03*
X0398181Y0039496D03*
X0468181Y0029496D03*
X0458181Y0029496D03*
X0448181Y0029496D03*
X0438181Y0029496D03*
X0428181Y0029496D03*
X0418181Y0029496D03*
X0408181Y0029496D03*
X0398181Y0029496D03*
X0155307Y0029496D03*
X0165307Y0029496D03*
X0175307Y0029496D03*
X0185307Y0029496D03*
X0195307Y0029496D03*
X0205307Y0029496D03*
X0215307Y0029496D03*
X0225307Y0029496D03*
X0235307Y0029496D03*
X0245307Y0029496D03*
X0255307Y0029496D03*
X0265307Y0029496D03*
X0275307Y0029496D03*
X0285307Y0029496D03*
X0295307Y0029496D03*
X0305307Y0029496D03*
X0315307Y0029496D03*
X0325307Y0029496D03*
X0335307Y0029496D03*
X0155307Y0039496D03*
X0165307Y0039496D03*
X0175307Y0039496D03*
X0185307Y0039496D03*
X0195307Y0039496D03*
X0205307Y0039496D03*
X0215307Y0039496D03*
X0225307Y0039496D03*
X0235307Y0039496D03*
X0245307Y0039496D03*
X0255307Y0039496D03*
X0265307Y0039496D03*
X0275307Y0039496D03*
X0285307Y0039496D03*
X0295307Y0039496D03*
X0305307Y0039496D03*
X0315307Y0039496D03*
X0325307Y0039496D03*
X0335307Y0039496D03*
X0155307Y0063315D03*
X0165307Y0063315D03*
X0175307Y0063315D03*
X0185307Y0063315D03*
X0195307Y0063315D03*
X0205307Y0063315D03*
X0215307Y0063315D03*
X0225307Y0063315D03*
X0235307Y0063315D03*
X0245307Y0063315D03*
X0255307Y0063315D03*
X0265307Y0063315D03*
X0275307Y0063315D03*
X0285307Y0063315D03*
X0295307Y0063315D03*
X0305307Y0063315D03*
X0315307Y0063315D03*
X0325307Y0063315D03*
X0335307Y0063315D03*
X0155307Y0073315D03*
X0165307Y0073315D03*
X0175307Y0073315D03*
X0185307Y0073315D03*
X0195307Y0073315D03*
X0205307Y0073315D03*
X0215307Y0073315D03*
X0225307Y0073315D03*
X0235307Y0073315D03*
X0245307Y0073315D03*
X0255307Y0073315D03*
X0265307Y0073315D03*
X0275307Y0073315D03*
X0285307Y0073315D03*
X0295307Y0073315D03*
X0305307Y0073315D03*
X0315307Y0073315D03*
X0325307Y0073315D03*
X0335307Y0073315D03*
D14*
X0124205Y0073315D03*
X0101370Y0073315D03*
X0112787Y0050480D03*
X0124205Y0041307D03*
X0101370Y0041307D03*
D16*
X0572236Y0021622D03*
D17*
X0562591Y0052331D03*
D16*
X0366724Y0021622D03*
D17*
X0083063Y0052331D03*
D16*
X0073417Y0021622D03*
G36*
G01*
X0238287Y0256791D02*
X0238287Y0251870D01*
G75*
G02*
X0237894Y0251476I-000394J0000000D01*
G01*
X0234744Y0251476D01*
G75*
G02*
X0234350Y0251870I0000000J0000394D01*
G01*
X0234350Y0256791D01*
G75*
G02*
X0234744Y0257185I0000394J0000000D01*
G01*
X0237894Y0257185D01*
G75*
G02*
X0238287Y0256791I0000000J-000394D01*
G01*
G37*
G36*
G01*
X0230807Y0256791D02*
X0230807Y0251870D01*
G75*
G02*
X0230413Y0251476I-000394J0000000D01*
G01*
X0227264Y0251476D01*
G75*
G02*
X0226870Y0251870I0000000J0000394D01*
G01*
X0226870Y0256791D01*
G75*
G02*
X0227264Y0257185I0000394J0000000D01*
G01*
X0230413Y0257185D01*
G75*
G02*
X0230807Y0256791I0000000J-000394D01*
G01*
G37*
G36*
G01*
X0238287Y0268602D02*
X0238287Y0263681D01*
G75*
G02*
X0237894Y0263287I-000394J0000000D01*
G01*
X0234744Y0263287D01*
G75*
G02*
X0234350Y0263681I0000000J0000394D01*
G01*
X0234350Y0268602D01*
G75*
G02*
X0234744Y0268996I0000394J0000000D01*
G01*
X0237894Y0268996D01*
G75*
G02*
X0238287Y0268602I0000000J-000394D01*
G01*
G37*
G36*
G01*
X0230807Y0268602D02*
X0230807Y0263681D01*
G75*
G02*
X0230413Y0263287I-000394J0000000D01*
G01*
X0227264Y0263287D01*
G75*
G02*
X0226870Y0263681I0000000J0000394D01*
G01*
X0226870Y0268602D01*
G75*
G02*
X0227264Y0268996I0000394J0000000D01*
G01*
X0230413Y0268996D01*
G75*
G02*
X0230807Y0268602I0000000J-000394D01*
G01*
G37*
G36*
G01*
X0501304Y0172736D02*
X0499286Y0172736D01*
G75*
G02*
X0498425Y0173597I0000000J0000861D01*
G01*
X0498425Y0175320D01*
G75*
G02*
X0499286Y0176181I0000861J0000000D01*
G01*
X0501304Y0176181D01*
G75*
G02*
X0502165Y0175320I0000000J-000861D01*
G01*
X0502165Y0173597D01*
G75*
G02*
X0501304Y0172736I-000861J0000000D01*
G01*
G37*
G36*
G01*
X0501304Y0178937D02*
X0499286Y0178937D01*
G75*
G02*
X0498425Y0179798I0000000J0000861D01*
G01*
X0498425Y0181521D01*
G75*
G02*
X0499286Y0182382I0000861J0000000D01*
G01*
X0501304Y0182382D01*
G75*
G02*
X0502165Y0181521I0000000J-000861D01*
G01*
X0502165Y0179798D01*
G75*
G02*
X0501304Y0178937I-000861J0000000D01*
G01*
G37*
D15*
X0446161Y0281890D03*
X0446161Y0307087D03*
X0446161Y0314567D03*
X0446161Y0331496D03*
D18*
X0444390Y0340945D03*
X0444390Y0344882D03*
D15*
X0446161Y0356102D03*
X0507185Y0280118D03*
X0507185Y0287402D03*
X0507185Y0306890D03*
X0507185Y0354331D03*
G36*
G01*
X0483543Y0228937D02*
X0482362Y0228937D01*
G75*
G02*
X0481772Y0229528I0000000J0000591D01*
G01*
X0481772Y0236024D01*
G75*
G02*
X0482362Y0236614I0000591J0000000D01*
G01*
X0483543Y0236614D01*
G75*
G02*
X0484134Y0236024I0000000J-000591D01*
G01*
X0484134Y0229528D01*
G75*
G02*
X0483543Y0228937I-000591J0000000D01*
G01*
G37*
G36*
G01*
X0488543Y0228937D02*
X0487362Y0228937D01*
G75*
G02*
X0486772Y0229528I0000000J0000591D01*
G01*
X0486772Y0236024D01*
G75*
G02*
X0487362Y0236614I0000591J0000000D01*
G01*
X0488543Y0236614D01*
G75*
G02*
X0489134Y0236024I0000000J-000591D01*
G01*
X0489134Y0229528D01*
G75*
G02*
X0488543Y0228937I-000591J0000000D01*
G01*
G37*
G36*
G01*
X0493543Y0228937D02*
X0492362Y0228937D01*
G75*
G02*
X0491772Y0229528I0000000J0000591D01*
G01*
X0491772Y0236024D01*
G75*
G02*
X0492362Y0236614I0000591J0000000D01*
G01*
X0493543Y0236614D01*
G75*
G02*
X0494134Y0236024I0000000J-000591D01*
G01*
X0494134Y0229528D01*
G75*
G02*
X0493543Y0228937I-000591J0000000D01*
G01*
G37*
G36*
G01*
X0498543Y0228937D02*
X0497362Y0228937D01*
G75*
G02*
X0496772Y0229528I0000000J0000591D01*
G01*
X0496772Y0236024D01*
G75*
G02*
X0497362Y0236614I0000591J0000000D01*
G01*
X0498543Y0236614D01*
G75*
G02*
X0499134Y0236024I0000000J-000591D01*
G01*
X0499134Y0229528D01*
G75*
G02*
X0498543Y0228937I-000591J0000000D01*
G01*
G37*
G36*
G01*
X0498543Y0248425D02*
X0497362Y0248425D01*
G75*
G02*
X0496772Y0249016I0000000J0000591D01*
G01*
X0496772Y0255512D01*
G75*
G02*
X0497362Y0256102I0000591J0000000D01*
G01*
X0498543Y0256102D01*
G75*
G02*
X0499134Y0255512I0000000J-000591D01*
G01*
X0499134Y0249016D01*
G75*
G02*
X0498543Y0248425I-000591J0000000D01*
G01*
G37*
G36*
G01*
X0493543Y0248425D02*
X0492362Y0248425D01*
G75*
G02*
X0491772Y0249016I0000000J0000591D01*
G01*
X0491772Y0255512D01*
G75*
G02*
X0492362Y0256102I0000591J0000000D01*
G01*
X0493543Y0256102D01*
G75*
G02*
X0494134Y0255512I0000000J-000591D01*
G01*
X0494134Y0249016D01*
G75*
G02*
X0493543Y0248425I-000591J0000000D01*
G01*
G37*
G36*
G01*
X0488543Y0248425D02*
X0487362Y0248425D01*
G75*
G02*
X0486772Y0249016I0000000J0000591D01*
G01*
X0486772Y0255512D01*
G75*
G02*
X0487362Y0256102I0000591J0000000D01*
G01*
X0488543Y0256102D01*
G75*
G02*
X0489134Y0255512I0000000J-000591D01*
G01*
X0489134Y0249016D01*
G75*
G02*
X0488543Y0248425I-000591J0000000D01*
G01*
G37*
G36*
G01*
X0483543Y0248425D02*
X0482362Y0248425D01*
G75*
G02*
X0481772Y0249016I0000000J0000591D01*
G01*
X0481772Y0255512D01*
G75*
G02*
X0482362Y0256102I0000591J0000000D01*
G01*
X0483543Y0256102D01*
G75*
G02*
X0484134Y0255512I0000000J-000591D01*
G01*
X0484134Y0249016D01*
G75*
G02*
X0483543Y0248425I-000591J0000000D01*
G01*
G37*
G36*
G01*
X0252067Y0268602D02*
X0252067Y0263681D01*
G75*
G02*
X0251673Y0263287I-000394J0000000D01*
G01*
X0248524Y0263287D01*
G75*
G02*
X0248130Y0263681I0000000J0000394D01*
G01*
X0248130Y0268602D01*
G75*
G02*
X0248524Y0268996I0000394J0000000D01*
G01*
X0251673Y0268996D01*
G75*
G02*
X0252067Y0268602I0000000J-000394D01*
G01*
G37*
G36*
G01*
X0244587Y0268602D02*
X0244587Y0263681D01*
G75*
G02*
X0244193Y0263287I-000394J0000000D01*
G01*
X0241043Y0263287D01*
G75*
G02*
X0240650Y0263681I0000000J0000394D01*
G01*
X0240650Y0268602D01*
G75*
G02*
X0241043Y0268996I0000394J0000000D01*
G01*
X0244193Y0268996D01*
G75*
G02*
X0244587Y0268602I0000000J-000394D01*
G01*
G37*
G36*
G01*
X0493430Y0172736D02*
X0491412Y0172736D01*
G75*
G02*
X0490551Y0173597I0000000J0000861D01*
G01*
X0490551Y0175320D01*
G75*
G02*
X0491412Y0176181I0000861J0000000D01*
G01*
X0493430Y0176181D01*
G75*
G02*
X0494291Y0175320I0000000J-000861D01*
G01*
X0494291Y0173597D01*
G75*
G02*
X0493430Y0172736I-000861J0000000D01*
G01*
G37*
G36*
G01*
X0493430Y0178937D02*
X0491412Y0178937D01*
G75*
G02*
X0490551Y0179798I0000000J0000861D01*
G01*
X0490551Y0181521D01*
G75*
G02*
X0491412Y0182382I0000861J0000000D01*
G01*
X0493430Y0182382D01*
G75*
G02*
X0494291Y0181521I0000000J-000861D01*
G01*
X0494291Y0179798D01*
G75*
G02*
X0493430Y0178937I-000861J0000000D01*
G01*
G37*
G36*
G01*
X0459587Y0252165D02*
X0460768Y0252165D01*
G75*
G02*
X0461358Y0251575I0000000J-000591D01*
G01*
X0461358Y0245079D01*
G75*
G02*
X0460768Y0244488I-000591J0000000D01*
G01*
X0459587Y0244488D01*
G75*
G02*
X0458996Y0245079I0000000J0000591D01*
G01*
X0458996Y0251575D01*
G75*
G02*
X0459587Y0252165I0000591J0000000D01*
G01*
G37*
G36*
G01*
X0454587Y0252165D02*
X0455768Y0252165D01*
G75*
G02*
X0456358Y0251575I0000000J-000591D01*
G01*
X0456358Y0245079D01*
G75*
G02*
X0455768Y0244488I-000591J0000000D01*
G01*
X0454587Y0244488D01*
G75*
G02*
X0453996Y0245079I0000000J0000591D01*
G01*
X0453996Y0251575D01*
G75*
G02*
X0454587Y0252165I0000591J0000000D01*
G01*
G37*
G36*
G01*
X0449587Y0252165D02*
X0450768Y0252165D01*
G75*
G02*
X0451358Y0251575I0000000J-000591D01*
G01*
X0451358Y0245079D01*
G75*
G02*
X0450768Y0244488I-000591J0000000D01*
G01*
X0449587Y0244488D01*
G75*
G02*
X0448996Y0245079I0000000J0000591D01*
G01*
X0448996Y0251575D01*
G75*
G02*
X0449587Y0252165I0000591J0000000D01*
G01*
G37*
G36*
G01*
X0444587Y0252165D02*
X0445768Y0252165D01*
G75*
G02*
X0446358Y0251575I0000000J-000591D01*
G01*
X0446358Y0245079D01*
G75*
G02*
X0445768Y0244488I-000591J0000000D01*
G01*
X0444587Y0244488D01*
G75*
G02*
X0443996Y0245079I0000000J0000591D01*
G01*
X0443996Y0251575D01*
G75*
G02*
X0444587Y0252165I0000591J0000000D01*
G01*
G37*
G36*
G01*
X0444587Y0232677D02*
X0445768Y0232677D01*
G75*
G02*
X0446358Y0232087I0000000J-000591D01*
G01*
X0446358Y0225591D01*
G75*
G02*
X0445768Y0225000I-000591J0000000D01*
G01*
X0444587Y0225000D01*
G75*
G02*
X0443996Y0225591I0000000J0000591D01*
G01*
X0443996Y0232087D01*
G75*
G02*
X0444587Y0232677I0000591J0000000D01*
G01*
G37*
G36*
G01*
X0449587Y0232677D02*
X0450768Y0232677D01*
G75*
G02*
X0451358Y0232087I0000000J-000591D01*
G01*
X0451358Y0225591D01*
G75*
G02*
X0450768Y0225000I-000591J0000000D01*
G01*
X0449587Y0225000D01*
G75*
G02*
X0448996Y0225591I0000000J0000591D01*
G01*
X0448996Y0232087D01*
G75*
G02*
X0449587Y0232677I0000591J0000000D01*
G01*
G37*
G36*
G01*
X0454587Y0232677D02*
X0455768Y0232677D01*
G75*
G02*
X0456358Y0232087I0000000J-000591D01*
G01*
X0456358Y0225591D01*
G75*
G02*
X0455768Y0225000I-000591J0000000D01*
G01*
X0454587Y0225000D01*
G75*
G02*
X0453996Y0225591I0000000J0000591D01*
G01*
X0453996Y0232087D01*
G75*
G02*
X0454587Y0232677I0000591J0000000D01*
G01*
G37*
G36*
G01*
X0459587Y0232677D02*
X0460768Y0232677D01*
G75*
G02*
X0461358Y0232087I0000000J-000591D01*
G01*
X0461358Y0225591D01*
G75*
G02*
X0460768Y0225000I-000591J0000000D01*
G01*
X0459587Y0225000D01*
G75*
G02*
X0458996Y0225591I0000000J0000591D01*
G01*
X0458996Y0232087D01*
G75*
G02*
X0459587Y0232677I0000591J0000000D01*
G01*
G37*
G36*
G01*
X0273484Y0237205D02*
X0270413Y0237205D01*
G75*
G02*
X0270138Y0237480I0000000J0000276D01*
G01*
X0270138Y0239685D01*
G75*
G02*
X0270413Y0239961I0000276J0000000D01*
G01*
X0273484Y0239961D01*
G75*
G02*
X0273760Y0239685I0000000J-000276D01*
G01*
X0273760Y0237480D01*
G75*
G02*
X0273484Y0237205I-000276J0000000D01*
G01*
G37*
G36*
G01*
X0273484Y0243504D02*
X0270413Y0243504D01*
G75*
G02*
X0270138Y0243780I0000000J0000276D01*
G01*
X0270138Y0245984D01*
G75*
G02*
X0270413Y0246260I0000276J0000000D01*
G01*
X0273484Y0246260D01*
G75*
G02*
X0273760Y0245984I0000000J-000276D01*
G01*
X0273760Y0243780D01*
G75*
G02*
X0273484Y0243504I-000276J0000000D01*
G01*
G37*
G36*
G01*
X0448839Y0217224D02*
X0451595Y0217224D01*
G75*
G02*
X0452579Y0216240I0000000J-000984D01*
G01*
X0452579Y0209547D01*
G75*
G02*
X0451595Y0208563I-000984J0000000D01*
G01*
X0448839Y0208563D01*
G75*
G02*
X0447854Y0209547I0000000J0000984D01*
G01*
X0447854Y0216240D01*
G75*
G02*
X0448839Y0217224I0000984J0000000D01*
G01*
G37*
G36*
G01*
X0430807Y0200689D02*
X0451673Y0200689D01*
G75*
G02*
X0452658Y0199705I0000000J-000984D01*
G01*
X0452658Y0176476D01*
G75*
G02*
X0451673Y0175492I-000984J0000000D01*
G01*
X0430807Y0175492D01*
G75*
G02*
X0429823Y0176476I0000000J0000984D01*
G01*
X0429823Y0199705D01*
G75*
G02*
X0430807Y0200689I0000984J0000000D01*
G01*
G37*
G36*
G01*
X0430886Y0217224D02*
X0433642Y0217224D01*
G75*
G02*
X0434626Y0216240I0000000J-000984D01*
G01*
X0434626Y0209547D01*
G75*
G02*
X0433642Y0208563I-000984J0000000D01*
G01*
X0430886Y0208563D01*
G75*
G02*
X0429902Y0209547I0000000J0000984D01*
G01*
X0429902Y0216240D01*
G75*
G02*
X0430886Y0217224I0000984J0000000D01*
G01*
G37*
D40*
X0177658Y0268110D03*
G36*
G01*
X0182953Y0264567D02*
X0180236Y0264567D01*
G75*
G02*
X0179331Y0265472I0000000J0000906D01*
G01*
X0179331Y0270748D01*
G75*
G02*
X0180236Y0271654I0000906J0000000D01*
G01*
X0182953Y0271654D01*
G75*
G02*
X0183858Y0270748I0000000J-000906D01*
G01*
X0183858Y0265472D01*
G75*
G02*
X0182953Y0264567I-000906J0000000D01*
G01*
G37*
G36*
G01*
X0194370Y0264567D02*
X0191654Y0264567D01*
G75*
G02*
X0190748Y0265472I0000000J0000906D01*
G01*
X0190748Y0270748D01*
G75*
G02*
X0191654Y0271654I0000906J0000000D01*
G01*
X0194370Y0271654D01*
G75*
G02*
X0195276Y0270748I0000000J-000906D01*
G01*
X0195276Y0265472D01*
G75*
G02*
X0194370Y0264567I-000906J0000000D01*
G01*
G37*
X0196949Y0268110D03*
G36*
G01*
X0238287Y0244980D02*
X0238287Y0240059D01*
G75*
G02*
X0237894Y0239665I-000394J0000000D01*
G01*
X0234744Y0239665D01*
G75*
G02*
X0234350Y0240059I0000000J0000394D01*
G01*
X0234350Y0244980D01*
G75*
G02*
X0234744Y0245374I0000394J0000000D01*
G01*
X0237894Y0245374D01*
G75*
G02*
X0238287Y0244980I0000000J-000394D01*
G01*
G37*
G36*
G01*
X0230807Y0244980D02*
X0230807Y0240059D01*
G75*
G02*
X0230413Y0239665I-000394J0000000D01*
G01*
X0227264Y0239665D01*
G75*
G02*
X0226870Y0240059I0000000J0000394D01*
G01*
X0226870Y0244980D01*
G75*
G02*
X0227264Y0245374I0000394J0000000D01*
G01*
X0230413Y0245374D01*
G75*
G02*
X0230807Y0244980I0000000J-000394D01*
G01*
G37*
G36*
G01*
X0352047Y0217224D02*
X0354803Y0217224D01*
G75*
G02*
X0355787Y0216240I0000000J-000984D01*
G01*
X0355787Y0209547D01*
G75*
G02*
X0354803Y0208563I-000984J0000000D01*
G01*
X0352047Y0208563D01*
G75*
G02*
X0351063Y0209547I0000000J0000984D01*
G01*
X0351063Y0216240D01*
G75*
G02*
X0352047Y0217224I0000984J0000000D01*
G01*
G37*
G36*
G01*
X0334016Y0200689D02*
X0354882Y0200689D01*
G75*
G02*
X0355866Y0199705I0000000J-000984D01*
G01*
X0355866Y0176476D01*
G75*
G02*
X0354882Y0175492I-000984J0000000D01*
G01*
X0334016Y0175492D01*
G75*
G02*
X0333032Y0176476I0000000J0000984D01*
G01*
X0333032Y0199705D01*
G75*
G02*
X0334016Y0200689I0000984J0000000D01*
G01*
G37*
G36*
G01*
X0334095Y0217224D02*
X0336850Y0217224D01*
G75*
G02*
X0337835Y0216240I0000000J-000984D01*
G01*
X0337835Y0209547D01*
G75*
G02*
X0336850Y0208563I-000984J0000000D01*
G01*
X0334095Y0208563D01*
G75*
G02*
X0333110Y0209547I0000000J0000984D01*
G01*
X0333110Y0216240D01*
G75*
G02*
X0334095Y0217224I0000984J0000000D01*
G01*
G37*
G36*
G01*
X0384311Y0217224D02*
X0387067Y0217224D01*
G75*
G02*
X0388051Y0216240I0000000J-000984D01*
G01*
X0388051Y0209547D01*
G75*
G02*
X0387067Y0208563I-000984J0000000D01*
G01*
X0384311Y0208563D01*
G75*
G02*
X0383327Y0209547I0000000J0000984D01*
G01*
X0383327Y0216240D01*
G75*
G02*
X0384311Y0217224I0000984J0000000D01*
G01*
G37*
G36*
G01*
X0366280Y0200689D02*
X0387146Y0200689D01*
G75*
G02*
X0388130Y0199705I0000000J-000984D01*
G01*
X0388130Y0176476D01*
G75*
G02*
X0387146Y0175492I-000984J0000000D01*
G01*
X0366280Y0175492D01*
G75*
G02*
X0365295Y0176476I0000000J0000984D01*
G01*
X0365295Y0199705D01*
G75*
G02*
X0366280Y0200689I0000984J0000000D01*
G01*
G37*
G36*
G01*
X0366358Y0217224D02*
X0369114Y0217224D01*
G75*
G02*
X0370098Y0216240I0000000J-000984D01*
G01*
X0370098Y0209547D01*
G75*
G02*
X0369114Y0208563I-000984J0000000D01*
G01*
X0366358Y0208563D01*
G75*
G02*
X0365374Y0209547I0000000J0000984D01*
G01*
X0365374Y0216240D01*
G75*
G02*
X0366358Y0217224I0000984J0000000D01*
G01*
G37*
G36*
G01*
X0347756Y0252165D02*
X0348937Y0252165D01*
G75*
G02*
X0349528Y0251575I0000000J-000591D01*
G01*
X0349528Y0245079D01*
G75*
G02*
X0348937Y0244488I-000591J0000000D01*
G01*
X0347756Y0244488D01*
G75*
G02*
X0347165Y0245079I0000000J0000591D01*
G01*
X0347165Y0251575D01*
G75*
G02*
X0347756Y0252165I0000591J0000000D01*
G01*
G37*
G36*
G01*
X0342756Y0252165D02*
X0343937Y0252165D01*
G75*
G02*
X0344528Y0251575I0000000J-000591D01*
G01*
X0344528Y0245079D01*
G75*
G02*
X0343937Y0244488I-000591J0000000D01*
G01*
X0342756Y0244488D01*
G75*
G02*
X0342165Y0245079I0000000J0000591D01*
G01*
X0342165Y0251575D01*
G75*
G02*
X0342756Y0252165I0000591J0000000D01*
G01*
G37*
G36*
G01*
X0337756Y0252165D02*
X0338937Y0252165D01*
G75*
G02*
X0339528Y0251575I0000000J-000591D01*
G01*
X0339528Y0245079D01*
G75*
G02*
X0338937Y0244488I-000591J0000000D01*
G01*
X0337756Y0244488D01*
G75*
G02*
X0337165Y0245079I0000000J0000591D01*
G01*
X0337165Y0251575D01*
G75*
G02*
X0337756Y0252165I0000591J0000000D01*
G01*
G37*
G36*
G01*
X0332756Y0252165D02*
X0333937Y0252165D01*
G75*
G02*
X0334528Y0251575I0000000J-000591D01*
G01*
X0334528Y0245079D01*
G75*
G02*
X0333937Y0244488I-000591J0000000D01*
G01*
X0332756Y0244488D01*
G75*
G02*
X0332165Y0245079I0000000J0000591D01*
G01*
X0332165Y0251575D01*
G75*
G02*
X0332756Y0252165I0000591J0000000D01*
G01*
G37*
G36*
G01*
X0332756Y0232677D02*
X0333937Y0232677D01*
G75*
G02*
X0334528Y0232087I0000000J-000591D01*
G01*
X0334528Y0225591D01*
G75*
G02*
X0333937Y0225000I-000591J0000000D01*
G01*
X0332756Y0225000D01*
G75*
G02*
X0332165Y0225591I0000000J0000591D01*
G01*
X0332165Y0232087D01*
G75*
G02*
X0332756Y0232677I0000591J0000000D01*
G01*
G37*
G36*
G01*
X0337756Y0232677D02*
X0338937Y0232677D01*
G75*
G02*
X0339528Y0232087I0000000J-000591D01*
G01*
X0339528Y0225591D01*
G75*
G02*
X0338937Y0225000I-000591J0000000D01*
G01*
X0337756Y0225000D01*
G75*
G02*
X0337165Y0225591I0000000J0000591D01*
G01*
X0337165Y0232087D01*
G75*
G02*
X0337756Y0232677I0000591J0000000D01*
G01*
G37*
G36*
G01*
X0342756Y0232677D02*
X0343937Y0232677D01*
G75*
G02*
X0344528Y0232087I0000000J-000591D01*
G01*
X0344528Y0225591D01*
G75*
G02*
X0343937Y0225000I-000591J0000000D01*
G01*
X0342756Y0225000D01*
G75*
G02*
X0342165Y0225591I0000000J0000591D01*
G01*
X0342165Y0232087D01*
G75*
G02*
X0342756Y0232677I0000591J0000000D01*
G01*
G37*
G36*
G01*
X0347756Y0232677D02*
X0348937Y0232677D01*
G75*
G02*
X0349528Y0232087I0000000J-000591D01*
G01*
X0349528Y0225591D01*
G75*
G02*
X0348937Y0225000I-000591J0000000D01*
G01*
X0347756Y0225000D01*
G75*
G02*
X0347165Y0225591I0000000J0000591D01*
G01*
X0347165Y0232087D01*
G75*
G02*
X0347756Y0232677I0000591J0000000D01*
G01*
G37*
G36*
G01*
X0481102Y0217224D02*
X0483858Y0217224D01*
G75*
G02*
X0484843Y0216240I0000000J-000984D01*
G01*
X0484843Y0209547D01*
G75*
G02*
X0483858Y0208563I-000984J0000000D01*
G01*
X0481102Y0208563D01*
G75*
G02*
X0480118Y0209547I0000000J0000984D01*
G01*
X0480118Y0216240D01*
G75*
G02*
X0481102Y0217224I0000984J0000000D01*
G01*
G37*
G36*
G01*
X0463071Y0200689D02*
X0483937Y0200689D01*
G75*
G02*
X0484921Y0199705I0000000J-000984D01*
G01*
X0484921Y0176476D01*
G75*
G02*
X0483937Y0175492I-000984J0000000D01*
G01*
X0463071Y0175492D01*
G75*
G02*
X0462087Y0176476I0000000J0000984D01*
G01*
X0462087Y0199705D01*
G75*
G02*
X0463071Y0200689I0000984J0000000D01*
G01*
G37*
G36*
G01*
X0463150Y0217224D02*
X0465906Y0217224D01*
G75*
G02*
X0466890Y0216240I0000000J-000984D01*
G01*
X0466890Y0209547D01*
G75*
G02*
X0465906Y0208563I-000984J0000000D01*
G01*
X0463150Y0208563D01*
G75*
G02*
X0462165Y0209547I0000000J0000984D01*
G01*
X0462165Y0216240D01*
G75*
G02*
X0463150Y0217224I0000984J0000000D01*
G01*
G37*
X0521949Y0173819D03*
G36*
G01*
X0525492Y0179114D02*
X0525492Y0176398D01*
G75*
G02*
X0524587Y0175492I-000906J0000000D01*
G01*
X0519311Y0175492D01*
G75*
G02*
X0518406Y0176398I0000000J0000906D01*
G01*
X0518406Y0179114D01*
G75*
G02*
X0519311Y0180020I0000906J0000000D01*
G01*
X0524587Y0180020D01*
G75*
G02*
X0525492Y0179114I0000000J-000906D01*
G01*
G37*
G36*
G01*
X0525492Y0190532D02*
X0525492Y0187815D01*
G75*
G02*
X0524587Y0186910I-000906J0000000D01*
G01*
X0519311Y0186910D01*
G75*
G02*
X0518406Y0187815I0000000J0000906D01*
G01*
X0518406Y0190532D01*
G75*
G02*
X0519311Y0191437I0000906J0000000D01*
G01*
X0524587Y0191437D01*
G75*
G02*
X0525492Y0190532I0000000J-000906D01*
G01*
G37*
X0521949Y0193110D03*
G36*
G01*
X0430433Y0252165D02*
X0431614Y0252165D01*
G75*
G02*
X0432205Y0251575I0000000J-000591D01*
G01*
X0432205Y0245079D01*
G75*
G02*
X0431614Y0244488I-000591J0000000D01*
G01*
X0430433Y0244488D01*
G75*
G02*
X0429843Y0245079I0000000J0000591D01*
G01*
X0429843Y0251575D01*
G75*
G02*
X0430433Y0252165I0000591J0000000D01*
G01*
G37*
G36*
G01*
X0425433Y0252165D02*
X0426614Y0252165D01*
G75*
G02*
X0427205Y0251575I0000000J-000591D01*
G01*
X0427205Y0245079D01*
G75*
G02*
X0426614Y0244488I-000591J0000000D01*
G01*
X0425433Y0244488D01*
G75*
G02*
X0424843Y0245079I0000000J0000591D01*
G01*
X0424843Y0251575D01*
G75*
G02*
X0425433Y0252165I0000591J0000000D01*
G01*
G37*
G36*
G01*
X0420433Y0252165D02*
X0421614Y0252165D01*
G75*
G02*
X0422205Y0251575I0000000J-000591D01*
G01*
X0422205Y0245079D01*
G75*
G02*
X0421614Y0244488I-000591J0000000D01*
G01*
X0420433Y0244488D01*
G75*
G02*
X0419843Y0245079I0000000J0000591D01*
G01*
X0419843Y0251575D01*
G75*
G02*
X0420433Y0252165I0000591J0000000D01*
G01*
G37*
G36*
G01*
X0415433Y0252165D02*
X0416614Y0252165D01*
G75*
G02*
X0417205Y0251575I0000000J-000591D01*
G01*
X0417205Y0245079D01*
G75*
G02*
X0416614Y0244488I-000591J0000000D01*
G01*
X0415433Y0244488D01*
G75*
G02*
X0414843Y0245079I0000000J0000591D01*
G01*
X0414843Y0251575D01*
G75*
G02*
X0415433Y0252165I0000591J0000000D01*
G01*
G37*
G36*
G01*
X0415433Y0232677D02*
X0416614Y0232677D01*
G75*
G02*
X0417205Y0232087I0000000J-000591D01*
G01*
X0417205Y0225591D01*
G75*
G02*
X0416614Y0225000I-000591J0000000D01*
G01*
X0415433Y0225000D01*
G75*
G02*
X0414843Y0225591I0000000J0000591D01*
G01*
X0414843Y0232087D01*
G75*
G02*
X0415433Y0232677I0000591J0000000D01*
G01*
G37*
G36*
G01*
X0420433Y0232677D02*
X0421614Y0232677D01*
G75*
G02*
X0422205Y0232087I0000000J-000591D01*
G01*
X0422205Y0225591D01*
G75*
G02*
X0421614Y0225000I-000591J0000000D01*
G01*
X0420433Y0225000D01*
G75*
G02*
X0419843Y0225591I0000000J0000591D01*
G01*
X0419843Y0232087D01*
G75*
G02*
X0420433Y0232677I0000591J0000000D01*
G01*
G37*
G36*
G01*
X0425433Y0232677D02*
X0426614Y0232677D01*
G75*
G02*
X0427205Y0232087I0000000J-000591D01*
G01*
X0427205Y0225591D01*
G75*
G02*
X0426614Y0225000I-000591J0000000D01*
G01*
X0425433Y0225000D01*
G75*
G02*
X0424843Y0225591I0000000J0000591D01*
G01*
X0424843Y0232087D01*
G75*
G02*
X0425433Y0232677I0000591J0000000D01*
G01*
G37*
G36*
G01*
X0430433Y0232677D02*
X0431614Y0232677D01*
G75*
G02*
X0432205Y0232087I0000000J-000591D01*
G01*
X0432205Y0225591D01*
G75*
G02*
X0431614Y0225000I-000591J0000000D01*
G01*
X0430433Y0225000D01*
G75*
G02*
X0429843Y0225591I0000000J0000591D01*
G01*
X0429843Y0232087D01*
G75*
G02*
X0430433Y0232677I0000591J0000000D01*
G01*
G37*
D18*
X0269488Y0230020D03*
X0274213Y0230020D03*
X0264764Y0230020D03*
X0260039Y0230020D03*
X0285472Y0173228D03*
X0289409Y0173228D03*
D40*
X0512106Y0173819D03*
G36*
G01*
X0515650Y0179114D02*
X0515650Y0176398D01*
G75*
G02*
X0514744Y0175492I-000906J0000000D01*
G01*
X0509469Y0175492D01*
G75*
G02*
X0508563Y0176398I0000000J0000906D01*
G01*
X0508563Y0179114D01*
G75*
G02*
X0509469Y0180020I0000906J0000000D01*
G01*
X0514744Y0180020D01*
G75*
G02*
X0515650Y0179114I0000000J-000906D01*
G01*
G37*
G36*
G01*
X0515650Y0190532D02*
X0515650Y0187815D01*
G75*
G02*
X0514744Y0186910I-000906J0000000D01*
G01*
X0509469Y0186910D01*
G75*
G02*
X0508563Y0187815I0000000J0000906D01*
G01*
X0508563Y0190532D01*
G75*
G02*
X0509469Y0191437I0000906J0000000D01*
G01*
X0514744Y0191437D01*
G75*
G02*
X0515650Y0190532I0000000J-000906D01*
G01*
G37*
X0512106Y0193110D03*
D14*
X0544882Y0072854D03*
X0521654Y0072854D03*
X0498819Y0072854D03*
X0533465Y0050020D03*
X0510236Y0050020D03*
X0544882Y0040846D03*
X0521654Y0040846D03*
X0498819Y0040846D03*
D15*
X0467992Y0072854D03*
X0457992Y0072854D03*
X0447992Y0072854D03*
X0437992Y0072854D03*
X0427992Y0072854D03*
X0417992Y0072854D03*
X0407992Y0072854D03*
X0397992Y0072854D03*
X0467992Y0062854D03*
X0457992Y0062854D03*
X0447992Y0062854D03*
X0437992Y0062854D03*
X0427992Y0062854D03*
X0417992Y0062854D03*
X0407992Y0062854D03*
X0397992Y0062854D03*
X0467992Y0039035D03*
X0457992Y0039035D03*
X0447992Y0039035D03*
X0437992Y0039035D03*
X0427992Y0039035D03*
X0417992Y0039035D03*
X0407992Y0039035D03*
X0397992Y0039035D03*
X0467992Y0029035D03*
X0457992Y0029035D03*
X0447992Y0029035D03*
X0437992Y0029035D03*
X0427992Y0029035D03*
X0417992Y0029035D03*
X0407992Y0029035D03*
X0397992Y0029035D03*
X0155118Y0029035D03*
X0165118Y0029035D03*
X0175118Y0029035D03*
X0185118Y0029035D03*
X0195118Y0029035D03*
X0205118Y0029035D03*
X0215118Y0029035D03*
X0225118Y0029035D03*
X0235118Y0029035D03*
X0245118Y0029035D03*
X0255118Y0029035D03*
X0265118Y0029035D03*
X0275118Y0029035D03*
X0285118Y0029035D03*
X0295118Y0029035D03*
X0305118Y0029035D03*
X0315118Y0029035D03*
X0325118Y0029035D03*
X0335118Y0029035D03*
X0155118Y0039035D03*
X0165118Y0039035D03*
X0175118Y0039035D03*
X0185118Y0039035D03*
X0195118Y0039035D03*
X0205118Y0039035D03*
X0215118Y0039035D03*
X0225118Y0039035D03*
X0235118Y0039035D03*
X0245118Y0039035D03*
X0255118Y0039035D03*
X0265118Y0039035D03*
X0275118Y0039035D03*
X0285118Y0039035D03*
X0295118Y0039035D03*
X0305118Y0039035D03*
X0315118Y0039035D03*
X0325118Y0039035D03*
X0335118Y0039035D03*
X0155118Y0062854D03*
X0165118Y0062854D03*
X0175118Y0062854D03*
X0185118Y0062854D03*
X0195118Y0062854D03*
X0205118Y0062854D03*
X0215118Y0062854D03*
X0225118Y0062854D03*
X0235118Y0062854D03*
X0245118Y0062854D03*
X0255118Y0062854D03*
X0265118Y0062854D03*
X0275118Y0062854D03*
X0285118Y0062854D03*
X0295118Y0062854D03*
X0305118Y0062854D03*
X0315118Y0062854D03*
X0325118Y0062854D03*
X0335118Y0062854D03*
X0155118Y0072854D03*
X0165118Y0072854D03*
X0175118Y0072854D03*
X0185118Y0072854D03*
X0195118Y0072854D03*
X0205118Y0072854D03*
X0215118Y0072854D03*
X0225118Y0072854D03*
X0235118Y0072854D03*
X0245118Y0072854D03*
X0255118Y0072854D03*
X0265118Y0072854D03*
X0275118Y0072854D03*
X0285118Y0072854D03*
X0295118Y0072854D03*
X0305118Y0072854D03*
X0315118Y0072854D03*
X0325118Y0072854D03*
X0335118Y0072854D03*
D14*
X0124016Y0072854D03*
X0101181Y0072854D03*
X0112598Y0050020D03*
X0124016Y0040846D03*
X0101181Y0040846D03*
D16*
X0572047Y0021161D03*
D17*
X0562402Y0051870D03*
D16*
X0366535Y0021161D03*
D17*
X0082874Y0051870D03*
D16*
X0073228Y0021161D03*
G36*
G01*
X0319783Y0217224D02*
X0322539Y0217224D01*
G75*
G02*
X0323524Y0216240I0000000J-000984D01*
G01*
X0323524Y0209547D01*
G75*
G02*
X0322539Y0208563I-000984J0000000D01*
G01*
X0319783Y0208563D01*
G75*
G02*
X0318799Y0209547I0000000J0000984D01*
G01*
X0318799Y0216240D01*
G75*
G02*
X0319783Y0217224I0000984J0000000D01*
G01*
G37*
G36*
G01*
X0301752Y0200689D02*
X0322618Y0200689D01*
G75*
G02*
X0323602Y0199705I0000000J-000984D01*
G01*
X0323602Y0176476D01*
G75*
G02*
X0322618Y0175492I-000984J0000000D01*
G01*
X0301752Y0175492D01*
G75*
G02*
X0300768Y0176476I0000000J0000984D01*
G01*
X0300768Y0199705D01*
G75*
G02*
X0301752Y0200689I0000984J0000000D01*
G01*
G37*
G36*
G01*
X0301831Y0217224D02*
X0304587Y0217224D01*
G75*
G02*
X0305571Y0216240I0000000J-000984D01*
G01*
X0305571Y0209547D01*
G75*
G02*
X0304587Y0208563I-000984J0000000D01*
G01*
X0301831Y0208563D01*
G75*
G02*
X0300846Y0209547I0000000J0000984D01*
G01*
X0300846Y0216240D01*
G75*
G02*
X0301831Y0217224I0000984J0000000D01*
G01*
G37*
D18*
X0471309Y0367395D03*
X0471014Y0381371D03*
X0475640Y0384324D03*
X0472195Y0386391D03*
D55*
X0497982Y0390525D03*
X0499951Y0390525D03*
D57*
X0459203Y0390722D03*
G36*
G01*
X0041043Y0154921D02*
X0046161Y0154921D01*
G75*
G02*
X0047146Y0153937I0000000J-000984D01*
G01*
X0047146Y0146063D01*
G75*
G02*
X0046161Y0145079I-000984J0000000D01*
G01*
X0041043Y0145079D01*
G75*
G02*
X0040059Y0146063I0000000J0000984D01*
G01*
X0040059Y0153937D01*
G75*
G02*
X0041043Y0154921I0000984J0000000D01*
G01*
G37*
G36*
G01*
X0041043Y0139173D02*
X0046161Y0139173D01*
G75*
G02*
X0047146Y0138189I0000000J-000984D01*
G01*
X0047146Y0130315D01*
G75*
G02*
X0046161Y0129331I-000984J0000000D01*
G01*
X0041043Y0129331D01*
G75*
G02*
X0040059Y0130315I0000000J0000984D01*
G01*
X0040059Y0138189D01*
G75*
G02*
X0041043Y0139173I0000984J0000000D01*
G01*
G37*
G36*
G01*
X0083563Y0185000D02*
X0083563Y0181929D01*
G75*
G02*
X0083287Y0181654I-000276J0000000D01*
G01*
X0081083Y0181654D01*
G75*
G02*
X0080807Y0181929I0000000J0000276D01*
G01*
X0080807Y0185000D01*
G75*
G02*
X0081083Y0185276I0000276J0000000D01*
G01*
X0083287Y0185276D01*
G75*
G02*
X0083563Y0185000I0000000J-000276D01*
G01*
G37*
G36*
G01*
X0077264Y0185000D02*
X0077264Y0181929D01*
G75*
G02*
X0076988Y0181654I-000276J0000000D01*
G01*
X0074783Y0181654D01*
G75*
G02*
X0074508Y0181929I0000000J0000276D01*
G01*
X0074508Y0185000D01*
G75*
G02*
X0074783Y0185276I0000276J0000000D01*
G01*
X0076988Y0185276D01*
G75*
G02*
X0077264Y0185000I0000000J-000276D01*
G01*
G37*
G36*
G01*
X0252067Y0256791D02*
X0252067Y0251870D01*
G75*
G02*
X0251673Y0251476I-000394J0000000D01*
G01*
X0248524Y0251476D01*
G75*
G02*
X0248130Y0251870I0000000J0000394D01*
G01*
X0248130Y0256791D01*
G75*
G02*
X0248524Y0257185I0000394J0000000D01*
G01*
X0251673Y0257185D01*
G75*
G02*
X0252067Y0256791I0000000J-000394D01*
G01*
G37*
G36*
G01*
X0244587Y0256791D02*
X0244587Y0251870D01*
G75*
G02*
X0244193Y0251476I-000394J0000000D01*
G01*
X0241043Y0251476D01*
G75*
G02*
X0240650Y0251870I0000000J0000394D01*
G01*
X0240650Y0256791D01*
G75*
G02*
X0241043Y0257185I0000394J0000000D01*
G01*
X0244193Y0257185D01*
G75*
G02*
X0244587Y0256791I0000000J-000394D01*
G01*
G37*
G36*
G01*
X0265610Y0237205D02*
X0262539Y0237205D01*
G75*
G02*
X0262264Y0237480I0000000J0000276D01*
G01*
X0262264Y0239685D01*
G75*
G02*
X0262539Y0239961I0000276J0000000D01*
G01*
X0265610Y0239961D01*
G75*
G02*
X0265886Y0239685I0000000J-000276D01*
G01*
X0265886Y0237480D01*
G75*
G02*
X0265610Y0237205I-000276J0000000D01*
G01*
G37*
G36*
G01*
X0265610Y0243504D02*
X0262539Y0243504D01*
G75*
G02*
X0262264Y0243780I0000000J0000276D01*
G01*
X0262264Y0245984D01*
G75*
G02*
X0262539Y0246260I0000276J0000000D01*
G01*
X0265610Y0246260D01*
G75*
G02*
X0265886Y0245984I0000000J-000276D01*
G01*
X0265886Y0243780D01*
G75*
G02*
X0265610Y0243504I-000276J0000000D01*
G01*
G37*
G36*
G01*
X0416575Y0217224D02*
X0419331Y0217224D01*
G75*
G02*
X0420315Y0216240I0000000J-000984D01*
G01*
X0420315Y0209547D01*
G75*
G02*
X0419331Y0208563I-000984J0000000D01*
G01*
X0416575Y0208563D01*
G75*
G02*
X0415591Y0209547I0000000J0000984D01*
G01*
X0415591Y0216240D01*
G75*
G02*
X0416575Y0217224I0000984J0000000D01*
G01*
G37*
G36*
G01*
X0398543Y0200689D02*
X0419409Y0200689D01*
G75*
G02*
X0420394Y0199705I0000000J-000984D01*
G01*
X0420394Y0176476D01*
G75*
G02*
X0419409Y0175492I-000984J0000000D01*
G01*
X0398543Y0175492D01*
G75*
G02*
X0397559Y0176476I0000000J0000984D01*
G01*
X0397559Y0199705D01*
G75*
G02*
X0398543Y0200689I0000984J0000000D01*
G01*
G37*
G36*
G01*
X0398622Y0217224D02*
X0401378Y0217224D01*
G75*
G02*
X0402362Y0216240I0000000J-000984D01*
G01*
X0402362Y0209547D01*
G75*
G02*
X0401378Y0208563I-000984J0000000D01*
G01*
X0398622Y0208563D01*
G75*
G02*
X0397638Y0209547I0000000J0000984D01*
G01*
X0397638Y0216240D01*
G75*
G02*
X0398622Y0217224I0000984J0000000D01*
G01*
G37*
G36*
G01*
X0252067Y0244980D02*
X0252067Y0240059D01*
G75*
G02*
X0251673Y0239665I-000394J0000000D01*
G01*
X0248524Y0239665D01*
G75*
G02*
X0248130Y0240059I0000000J0000394D01*
G01*
X0248130Y0244980D01*
G75*
G02*
X0248524Y0245374I0000394J0000000D01*
G01*
X0251673Y0245374D01*
G75*
G02*
X0252067Y0244980I0000000J-000394D01*
G01*
G37*
G36*
G01*
X0244587Y0244980D02*
X0244587Y0240059D01*
G75*
G02*
X0244193Y0239665I-000394J0000000D01*
G01*
X0241043Y0239665D01*
G75*
G02*
X0240650Y0240059I0000000J0000394D01*
G01*
X0240650Y0244980D01*
G75*
G02*
X0241043Y0245374I0000394J0000000D01*
G01*
X0244193Y0245374D01*
G75*
G02*
X0244587Y0244980I0000000J-000394D01*
G01*
G37*
G36*
G01*
X0209390Y0197835D02*
X0212461Y0197835D01*
G75*
G02*
X0212736Y0197559I0000000J-000276D01*
G01*
X0212736Y0195354D01*
G75*
G02*
X0212461Y0195079I-000276J0000000D01*
G01*
X0209390Y0195079D01*
G75*
G02*
X0209114Y0195354I0000000J0000276D01*
G01*
X0209114Y0197559D01*
G75*
G02*
X0209390Y0197835I0000276J0000000D01*
G01*
G37*
G36*
G01*
X0209390Y0191535D02*
X0212461Y0191535D01*
G75*
G02*
X0212736Y0191260I0000000J-000276D01*
G01*
X0212736Y0189055D01*
G75*
G02*
X0212461Y0188780I-000276J0000000D01*
G01*
X0209390Y0188780D01*
G75*
G02*
X0209114Y0189055I0000000J0000276D01*
G01*
X0209114Y0191260D01*
G75*
G02*
X0209390Y0191535I0000276J0000000D01*
G01*
G37*
D40*
X0435335Y0362776D03*
G36*
G01*
X0437795Y0364567D02*
X0432874Y0364567D01*
G75*
G02*
X0432480Y0364961I0000000J0000394D01*
G01*
X0432480Y0368110D01*
G75*
G02*
X0432874Y0368504I0000394J0000000D01*
G01*
X0437795Y0368504D01*
G75*
G02*
X0438189Y0368110I0000000J-000394D01*
G01*
X0438189Y0364961D01*
G75*
G02*
X0437795Y0364567I-000394J0000000D01*
G01*
G37*
G36*
G01*
X0437795Y0372047D02*
X0432874Y0372047D01*
G75*
G02*
X0432480Y0372441I0000000J0000394D01*
G01*
X0432480Y0375591D01*
G75*
G02*
X0432874Y0375984I0000394J0000000D01*
G01*
X0437795Y0375984D01*
G75*
G02*
X0438189Y0375591I0000000J-000394D01*
G01*
X0438189Y0372441D01*
G75*
G02*
X0437795Y0372047I-000394J0000000D01*
G01*
G37*
X0435335Y0377776D03*
G36*
G01*
X0499114Y0202461D02*
X0497933Y0202461D01*
G75*
G02*
X0497343Y0203051I0000000J0000591D01*
G01*
X0497343Y0207677D01*
G75*
G02*
X0497933Y0208268I0000591J0000000D01*
G01*
X0499114Y0208268D01*
G75*
G02*
X0499705Y0207677I0000000J-000591D01*
G01*
X0499705Y0203051D01*
G75*
G02*
X0499114Y0202461I-000591J0000000D01*
G01*
G37*
G36*
G01*
X0506595Y0202461D02*
X0505413Y0202461D01*
G75*
G02*
X0504823Y0203051I0000000J0000591D01*
G01*
X0504823Y0207677D01*
G75*
G02*
X0505413Y0208268I0000591J0000000D01*
G01*
X0506595Y0208268D01*
G75*
G02*
X0507185Y0207677I0000000J-000591D01*
G01*
X0507185Y0203051D01*
G75*
G02*
X0506595Y0202461I-000591J0000000D01*
G01*
G37*
G36*
G01*
X0502854Y0209843D02*
X0501673Y0209843D01*
G75*
G02*
X0501083Y0210433I0000000J0000591D01*
G01*
X0501083Y0215059D01*
G75*
G02*
X0501673Y0215650I0000591J0000000D01*
G01*
X0502854Y0215650D01*
G75*
G02*
X0503445Y0215059I0000000J-000591D01*
G01*
X0503445Y0210433D01*
G75*
G02*
X0502854Y0209843I-000591J0000000D01*
G01*
G37*
D18*
X0229429Y0229282D03*
X0234154Y0229282D03*
X0224705Y0229282D03*
X0219980Y0229282D03*
X0245413Y0172490D03*
X0249350Y0172490D03*
G36*
G01*
X0376752Y0252165D02*
X0377933Y0252165D01*
G75*
G02*
X0378524Y0251575I0000000J-000591D01*
G01*
X0378524Y0245079D01*
G75*
G02*
X0377933Y0244488I-000591J0000000D01*
G01*
X0376752Y0244488D01*
G75*
G02*
X0376161Y0245079I0000000J0000591D01*
G01*
X0376161Y0251575D01*
G75*
G02*
X0376752Y0252165I0000591J0000000D01*
G01*
G37*
G36*
G01*
X0371752Y0252165D02*
X0372933Y0252165D01*
G75*
G02*
X0373524Y0251575I0000000J-000591D01*
G01*
X0373524Y0245079D01*
G75*
G02*
X0372933Y0244488I-000591J0000000D01*
G01*
X0371752Y0244488D01*
G75*
G02*
X0371161Y0245079I0000000J0000591D01*
G01*
X0371161Y0251575D01*
G75*
G02*
X0371752Y0252165I0000591J0000000D01*
G01*
G37*
G36*
G01*
X0366752Y0252165D02*
X0367933Y0252165D01*
G75*
G02*
X0368524Y0251575I0000000J-000591D01*
G01*
X0368524Y0245079D01*
G75*
G02*
X0367933Y0244488I-000591J0000000D01*
G01*
X0366752Y0244488D01*
G75*
G02*
X0366161Y0245079I0000000J0000591D01*
G01*
X0366161Y0251575D01*
G75*
G02*
X0366752Y0252165I0000591J0000000D01*
G01*
G37*
G36*
G01*
X0361752Y0252165D02*
X0362933Y0252165D01*
G75*
G02*
X0363524Y0251575I0000000J-000591D01*
G01*
X0363524Y0245079D01*
G75*
G02*
X0362933Y0244488I-000591J0000000D01*
G01*
X0361752Y0244488D01*
G75*
G02*
X0361161Y0245079I0000000J0000591D01*
G01*
X0361161Y0251575D01*
G75*
G02*
X0361752Y0252165I0000591J0000000D01*
G01*
G37*
G36*
G01*
X0361752Y0232677D02*
X0362933Y0232677D01*
G75*
G02*
X0363524Y0232087I0000000J-000591D01*
G01*
X0363524Y0225591D01*
G75*
G02*
X0362933Y0225000I-000591J0000000D01*
G01*
X0361752Y0225000D01*
G75*
G02*
X0361161Y0225591I0000000J0000591D01*
G01*
X0361161Y0232087D01*
G75*
G02*
X0361752Y0232677I0000591J0000000D01*
G01*
G37*
G36*
G01*
X0366752Y0232677D02*
X0367933Y0232677D01*
G75*
G02*
X0368524Y0232087I0000000J-000591D01*
G01*
X0368524Y0225591D01*
G75*
G02*
X0367933Y0225000I-000591J0000000D01*
G01*
X0366752Y0225000D01*
G75*
G02*
X0366161Y0225591I0000000J0000591D01*
G01*
X0366161Y0232087D01*
G75*
G02*
X0366752Y0232677I0000591J0000000D01*
G01*
G37*
G36*
G01*
X0371752Y0232677D02*
X0372933Y0232677D01*
G75*
G02*
X0373524Y0232087I0000000J-000591D01*
G01*
X0373524Y0225591D01*
G75*
G02*
X0372933Y0225000I-000591J0000000D01*
G01*
X0371752Y0225000D01*
G75*
G02*
X0371161Y0225591I0000000J0000591D01*
G01*
X0371161Y0232087D01*
G75*
G02*
X0371752Y0232677I0000591J0000000D01*
G01*
G37*
G36*
G01*
X0376752Y0232677D02*
X0377933Y0232677D01*
G75*
G02*
X0378524Y0232087I0000000J-000591D01*
G01*
X0378524Y0225591D01*
G75*
G02*
X0377933Y0225000I-000591J0000000D01*
G01*
X0376752Y0225000D01*
G75*
G02*
X0376161Y0225591I0000000J0000591D01*
G01*
X0376161Y0232087D01*
G75*
G02*
X0376752Y0232677I0000591J0000000D01*
G01*
G37*
G36*
G01*
X0082185Y0174311D02*
X0083366Y0174311D01*
G75*
G02*
X0083957Y0173720I0000000J-000591D01*
G01*
X0083957Y0169095D01*
G75*
G02*
X0083366Y0168504I-000591J0000000D01*
G01*
X0082185Y0168504D01*
G75*
G02*
X0081595Y0169095I0000000J0000591D01*
G01*
X0081595Y0173720D01*
G75*
G02*
X0082185Y0174311I0000591J0000000D01*
G01*
G37*
G36*
G01*
X0074705Y0174311D02*
X0075886Y0174311D01*
G75*
G02*
X0076476Y0173720I0000000J-000591D01*
G01*
X0076476Y0169095D01*
G75*
G02*
X0075886Y0168504I-000591J0000000D01*
G01*
X0074705Y0168504D01*
G75*
G02*
X0074114Y0169095I0000000J0000591D01*
G01*
X0074114Y0173720D01*
G75*
G02*
X0074705Y0174311I0000591J0000000D01*
G01*
G37*
G36*
G01*
X0078445Y0166929D02*
X0079626Y0166929D01*
G75*
G02*
X0080217Y0166339I0000000J-000591D01*
G01*
X0080217Y0161713D01*
G75*
G02*
X0079626Y0161122I-000591J0000000D01*
G01*
X0078445Y0161122D01*
G75*
G02*
X0077854Y0161713I0000000J0000591D01*
G01*
X0077854Y0166339D01*
G75*
G02*
X0078445Y0166929I0000591J0000000D01*
G01*
G37*
G36*
G01*
X0404843Y0252165D02*
X0406024Y0252165D01*
G75*
G02*
X0406614Y0251575I0000000J-000591D01*
G01*
X0406614Y0245079D01*
G75*
G02*
X0406024Y0244488I-000591J0000000D01*
G01*
X0404843Y0244488D01*
G75*
G02*
X0404252Y0245079I0000000J0000591D01*
G01*
X0404252Y0251575D01*
G75*
G02*
X0404843Y0252165I0000591J0000000D01*
G01*
G37*
G36*
G01*
X0399843Y0252165D02*
X0401024Y0252165D01*
G75*
G02*
X0401614Y0251575I0000000J-000591D01*
G01*
X0401614Y0245079D01*
G75*
G02*
X0401024Y0244488I-000591J0000000D01*
G01*
X0399843Y0244488D01*
G75*
G02*
X0399252Y0245079I0000000J0000591D01*
G01*
X0399252Y0251575D01*
G75*
G02*
X0399843Y0252165I0000591J0000000D01*
G01*
G37*
G36*
G01*
X0394843Y0252165D02*
X0396024Y0252165D01*
G75*
G02*
X0396614Y0251575I0000000J-000591D01*
G01*
X0396614Y0245079D01*
G75*
G02*
X0396024Y0244488I-000591J0000000D01*
G01*
X0394843Y0244488D01*
G75*
G02*
X0394252Y0245079I0000000J0000591D01*
G01*
X0394252Y0251575D01*
G75*
G02*
X0394843Y0252165I0000591J0000000D01*
G01*
G37*
G36*
G01*
X0389843Y0252165D02*
X0391024Y0252165D01*
G75*
G02*
X0391614Y0251575I0000000J-000591D01*
G01*
X0391614Y0245079D01*
G75*
G02*
X0391024Y0244488I-000591J0000000D01*
G01*
X0389843Y0244488D01*
G75*
G02*
X0389252Y0245079I0000000J0000591D01*
G01*
X0389252Y0251575D01*
G75*
G02*
X0389843Y0252165I0000591J0000000D01*
G01*
G37*
G36*
G01*
X0389843Y0232677D02*
X0391024Y0232677D01*
G75*
G02*
X0391614Y0232087I0000000J-000591D01*
G01*
X0391614Y0225591D01*
G75*
G02*
X0391024Y0225000I-000591J0000000D01*
G01*
X0389843Y0225000D01*
G75*
G02*
X0389252Y0225591I0000000J0000591D01*
G01*
X0389252Y0232087D01*
G75*
G02*
X0389843Y0232677I0000591J0000000D01*
G01*
G37*
G36*
G01*
X0394843Y0232677D02*
X0396024Y0232677D01*
G75*
G02*
X0396614Y0232087I0000000J-000591D01*
G01*
X0396614Y0225591D01*
G75*
G02*
X0396024Y0225000I-000591J0000000D01*
G01*
X0394843Y0225000D01*
G75*
G02*
X0394252Y0225591I0000000J0000591D01*
G01*
X0394252Y0232087D01*
G75*
G02*
X0394843Y0232677I0000591J0000000D01*
G01*
G37*
G36*
G01*
X0399843Y0232677D02*
X0401024Y0232677D01*
G75*
G02*
X0401614Y0232087I0000000J-000591D01*
G01*
X0401614Y0225591D01*
G75*
G02*
X0401024Y0225000I-000591J0000000D01*
G01*
X0399843Y0225000D01*
G75*
G02*
X0399252Y0225591I0000000J0000591D01*
G01*
X0399252Y0232087D01*
G75*
G02*
X0399843Y0232677I0000591J0000000D01*
G01*
G37*
G36*
G01*
X0404843Y0232677D02*
X0406024Y0232677D01*
G75*
G02*
X0406614Y0232087I0000000J-000591D01*
G01*
X0406614Y0225591D01*
G75*
G02*
X0406024Y0225000I-000591J0000000D01*
G01*
X0404843Y0225000D01*
G75*
G02*
X0404252Y0225591I0000000J0000591D01*
G01*
X0404252Y0232087D01*
G75*
G02*
X0404843Y0232677I0000591J0000000D01*
G01*
G37*
X0212795Y0181791D03*
X0212795Y0178051D03*
X0212795Y0174311D03*
X0178543Y0178248D03*
X0178543Y0181791D03*
G36*
X0595016Y0442031D02*
G01*
X0595158Y0441836D01*
X0595177Y0441716D01*
X0595177Y0441318D01*
X0595177Y0441318D01*
X0595657Y0441318D01*
X0595887Y0441244D01*
X0596028Y0441049D01*
X0596034Y0441029D01*
X0596556Y0439082D01*
X0597301Y0436885D01*
X0598189Y0434743D01*
X0598189Y0434743D01*
X0599215Y0432663D01*
X0599215Y0432662D01*
X0600374Y0430654D01*
X0601663Y0428725D01*
X0601663Y0428725D01*
X0603075Y0426886D01*
X0603075Y0426885D01*
X0604604Y0425142D01*
X0604604Y0425142D01*
X0606244Y0423502D01*
X0606244Y0423502D01*
X0607988Y0421972D01*
X0607988Y0421972D01*
X0609828Y0420561D01*
X0611756Y0419272D01*
X0611756Y0419272D01*
X0613765Y0418112D01*
X0615845Y0417087D01*
X0615845Y0417087D01*
X0617988Y0416199D01*
X0620184Y0415453D01*
X0622019Y0414962D01*
X0622221Y0414831D01*
X0622270Y0414704D01*
X0622308Y0414665D01*
X0622704Y0414665D01*
X0622933Y0414591D01*
X0623075Y0414396D01*
X0623094Y0414274D01*
X0623003Y0392441D01*
X0622993Y0392355D01*
X0622944Y0392143D01*
X0622868Y0391987D01*
X0622760Y0391852D01*
X0622624Y0391745D01*
X0622605Y0391736D01*
X0622366Y0391704D01*
X0622154Y0391819D01*
X0622050Y0392037D01*
X0622047Y0392088D01*
X0622047Y0392430D01*
X0618784Y0392989D01*
X0618758Y0392995D01*
X0615140Y0393875D01*
X0615119Y0393880D01*
X0611895Y0394857D01*
X0611868Y0394867D01*
X0609331Y0395842D01*
X0609314Y0395849D01*
X0606868Y0396926D01*
X0606855Y0396931D01*
X0604018Y0398301D01*
X0603997Y0398312D01*
X0600874Y0400069D01*
X0600842Y0400089D01*
X0597617Y0402337D01*
X0597603Y0402347D01*
X0594671Y0404595D01*
X0594644Y0404617D01*
X0592202Y0406864D01*
X0592190Y0406875D01*
X0589453Y0409613D01*
X0589429Y0409639D01*
X0586988Y0412567D01*
X0586972Y0412589D01*
X0585212Y0415033D01*
X0585204Y0415044D01*
X0583443Y0417686D01*
X0583430Y0417707D01*
X0581964Y0420247D01*
X0581956Y0420263D01*
X0580490Y0423096D01*
X0580478Y0423123D01*
X0579109Y0426350D01*
X0579103Y0426365D01*
X0577637Y0430275D01*
X0577624Y0430315D01*
X0576649Y0434119D01*
X0576642Y0434148D01*
X0576056Y0437471D01*
X0576053Y0437488D01*
X0575661Y0440428D01*
X0575660Y0440437D01*
X0575615Y0440846D01*
X0575173Y0440846D01*
X0574943Y0440921D01*
X0574802Y0441116D01*
X0574785Y0441280D01*
X0574809Y0441491D01*
X0574867Y0441655D01*
X0574959Y0441800D01*
X0575082Y0441923D01*
X0575238Y0442021D01*
X0575380Y0442075D01*
X0575530Y0442100D01*
X0575595Y0442106D01*
X0594787Y0442106D01*
X0595016Y0442031D01*
G37*
G36*
X0621758Y0415032D02*
G01*
X0622019Y0414962D01*
X0622221Y0414831D01*
X0622270Y0414704D01*
X0622308Y0414665D01*
X0623330Y0414665D01*
X0623406Y0414658D01*
X0624699Y0414401D01*
X0624699Y0414401D01*
X0626998Y0414098D01*
X0629313Y0413946D01*
X0629313Y0413946D01*
X0630473Y0413937D01*
X0639940Y0413937D01*
X0640169Y0413863D01*
X0640216Y0413823D01*
X0644768Y0409271D01*
X0644877Y0409056D01*
X0644882Y0408995D01*
X0644882Y0315941D01*
X0644807Y0315712D01*
X0644613Y0315570D01*
X0644492Y0315551D01*
X0636614Y0315551D01*
X0636126Y0315541D01*
X0635162Y0315380D01*
X0634238Y0315063D01*
X0633379Y0314598D01*
X0633379Y0314598D01*
X0632608Y0313998D01*
X0632608Y0313998D01*
X0631946Y0313279D01*
X0631412Y0312461D01*
X0631412Y0312461D01*
X0631019Y0311566D01*
X0630779Y0310619D01*
X0630699Y0309646D01*
X0630779Y0308672D01*
X0631019Y0307725D01*
X0631412Y0306830D01*
X0631412Y0306830D01*
X0631946Y0306012D01*
X0632608Y0305293D01*
X0632608Y0305293D01*
X0633379Y0304693D01*
X0633379Y0304693D01*
X0634238Y0304228D01*
X0635162Y0303911D01*
X0636126Y0303750D01*
X0636614Y0303740D01*
X0644492Y0303740D01*
X0644721Y0303666D01*
X0644863Y0303471D01*
X0644882Y0303350D01*
X0644882Y0055962D01*
X0644807Y0055733D01*
X0644775Y0055694D01*
X0639780Y0050418D01*
X0639568Y0050303D01*
X0639495Y0050296D01*
X0622433Y0050392D01*
X0622205Y0050467D01*
X0622064Y0050663D01*
X0622046Y0050781D01*
X0622047Y0392430D01*
X0621584Y0392509D01*
X0621370Y0392621D01*
X0621264Y0392837D01*
X0621260Y0392893D01*
X0621260Y0414621D01*
X0621270Y0414708D01*
X0621277Y0414742D01*
X0621401Y0414949D01*
X0621622Y0415043D01*
X0621758Y0415032D01*
G37*
G36*
X0071613Y0442028D02*
G01*
X0071700Y0442018D01*
X0071911Y0441968D01*
X0072067Y0441892D01*
X0072202Y0441784D01*
X0072309Y0441648D01*
X0072386Y0441487D01*
X0072424Y0441329D01*
X0072426Y0441246D01*
X0072357Y0441015D01*
X0072166Y0440869D01*
X0072036Y0440846D01*
X0071586Y0440846D01*
X0071065Y0437808D01*
X0071060Y0437782D01*
X0070180Y0434164D01*
X0070174Y0434143D01*
X0069197Y0430919D01*
X0069188Y0430892D01*
X0068212Y0428355D01*
X0068205Y0428338D01*
X0067129Y0425892D01*
X0067123Y0425880D01*
X0065753Y0423042D01*
X0065742Y0423021D01*
X0063986Y0419898D01*
X0063966Y0419866D01*
X0061718Y0416641D01*
X0061707Y0416627D01*
X0059459Y0413695D01*
X0059437Y0413668D01*
X0057191Y0411226D01*
X0057179Y0411215D01*
X0054442Y0408477D01*
X0054416Y0408453D01*
X0051487Y0406013D01*
X0051465Y0405996D01*
X0049021Y0404236D01*
X0049010Y0404228D01*
X0046369Y0402468D01*
X0046347Y0402454D01*
X0043807Y0400989D01*
X0043791Y0400980D01*
X0040958Y0399515D01*
X0040931Y0399502D01*
X0037704Y0398133D01*
X0037689Y0398127D01*
X0033780Y0396661D01*
X0033739Y0396648D01*
X0029936Y0395673D01*
X0029907Y0395667D01*
X0026583Y0395080D01*
X0026567Y0395078D01*
X0023626Y0394686D01*
X0023618Y0394685D01*
X0023617Y0394684D01*
X0023617Y0394684D01*
X0023617Y0394241D01*
X0023542Y0394012D01*
X0023347Y0393870D01*
X0023270Y0393854D01*
X0022867Y0393809D01*
X0022780Y0393809D01*
X0022563Y0393834D01*
X0022400Y0393891D01*
X0022254Y0393983D01*
X0022131Y0394106D01*
X0022034Y0394262D01*
X0021980Y0394404D01*
X0021954Y0394554D01*
X0021949Y0394619D01*
X0021949Y0413685D01*
X0022023Y0413914D01*
X0022218Y0414056D01*
X0022339Y0414075D01*
X0022736Y0414075D01*
X0022736Y0414075D01*
X0022736Y0414432D01*
X0022811Y0414661D01*
X0023006Y0414803D01*
X0023050Y0414815D01*
X0023245Y0414853D01*
X0025485Y0415454D01*
X0027682Y0416199D01*
X0029824Y0417087D01*
X0029824Y0417087D01*
X0031904Y0418113D01*
X0033913Y0419272D01*
X0033913Y0419272D01*
X0035841Y0420561D01*
X0035841Y0420561D01*
X0037681Y0421973D01*
X0037681Y0421973D01*
X0039425Y0423502D01*
X0039425Y0423502D01*
X0041065Y0425142D01*
X0041065Y0425142D01*
X0042594Y0426886D01*
X0042594Y0426886D01*
X0044006Y0428726D01*
X0044006Y0428726D01*
X0045295Y0430654D01*
X0045295Y0430654D01*
X0046454Y0432663D01*
X0047480Y0434743D01*
X0047480Y0434743D01*
X0048368Y0436885D01*
X0049113Y0439082D01*
X0049714Y0441322D01*
X0049809Y0441803D01*
X0049927Y0442013D01*
X0050146Y0442114D01*
X0050193Y0442117D01*
X0071613Y0442028D01*
G37*
G36*
X0023665Y0414852D02*
G01*
X0023877Y0414804D01*
X0024033Y0414729D01*
X0024168Y0414621D01*
X0024276Y0414486D01*
X0024361Y0414310D01*
X0024397Y0414184D01*
X0024407Y0414096D01*
X0024409Y0414053D01*
X0024404Y0395130D01*
X0024330Y0394901D01*
X0024135Y0394760D01*
X0024066Y0394744D01*
X0023626Y0394686D01*
X0023618Y0394685D01*
X0023617Y0394684D01*
X0023617Y0394684D01*
X0023524Y0054429D01*
X0023524Y0050193D01*
X0023449Y0049964D01*
X0023254Y0049822D01*
X0023134Y0049803D01*
X0005729Y0049803D01*
X0005500Y0049878D01*
X0005454Y0049917D01*
X0000867Y0054504D01*
X0000758Y0054718D01*
X0000753Y0054779D01*
X0000777Y0303350D01*
X0000851Y0303580D01*
X0001046Y0303721D01*
X0001167Y0303740D01*
X0009055Y0303740D01*
X0009544Y0303750D01*
X0009544Y0303750D01*
X0010508Y0303910D01*
X0010508Y0303910D01*
X0011432Y0304228D01*
X0011432Y0304228D01*
X0012291Y0304693D01*
X0013062Y0305293D01*
X0013062Y0305293D01*
X0013724Y0306012D01*
X0014259Y0306830D01*
X0014259Y0306830D01*
X0014651Y0307725D01*
X0014891Y0308672D01*
X0014891Y0308672D01*
X0014972Y0309646D01*
X0014891Y0310620D01*
X0014891Y0310620D01*
X0014651Y0311567D01*
X0014259Y0312462D01*
X0014259Y0312462D01*
X0013724Y0313280D01*
X0013062Y0313999D01*
X0013062Y0313999D01*
X0012291Y0314599D01*
X0011432Y0315064D01*
X0011432Y0315064D01*
X0010508Y0315381D01*
X0010508Y0315381D01*
X0009544Y0315542D01*
X0009544Y0315542D01*
X0009055Y0315551D01*
X0001168Y0315551D01*
X0000939Y0315626D01*
X0000797Y0315821D01*
X0000778Y0315941D01*
X0000787Y0408995D01*
X0000861Y0409224D01*
X0000901Y0409270D01*
X0005454Y0413823D01*
X0005668Y0413932D01*
X0005729Y0413937D01*
X0015197Y0413937D01*
X0016357Y0413947D01*
X0018301Y0414074D01*
X0018327Y0414075D01*
X0022736Y0414075D01*
X0022736Y0414075D01*
X0022736Y0414432D01*
X0022811Y0414661D01*
X0023006Y0414803D01*
X0023050Y0414815D01*
X0023251Y0414855D01*
X0023252Y0414853D01*
X0023328Y0414862D01*
X0023578Y0414862D01*
X0023665Y0414852D01*
G37*
G36*
X0590097Y0463780D02*
G01*
X0590326Y0463706D01*
X0590372Y0463666D01*
X0594925Y0459113D01*
X0595035Y0458899D01*
X0595039Y0458838D01*
X0595039Y0449370D01*
X0595049Y0448210D01*
X0595049Y0448210D01*
X0595176Y0446263D01*
X0595177Y0446237D01*
X0595177Y0441318D01*
X0595177Y0441318D01*
X0595575Y0441318D01*
X0595804Y0441244D01*
X0595945Y0441049D01*
X0595965Y0440928D01*
X0595965Y0440890D01*
X0595955Y0440804D01*
X0595906Y0440592D01*
X0595831Y0440435D01*
X0595724Y0440300D01*
X0595588Y0440192D01*
X0595412Y0440108D01*
X0595287Y0440071D01*
X0595199Y0440062D01*
X0595155Y0440059D01*
X0576052Y0440059D01*
X0575823Y0440133D01*
X0575681Y0440328D01*
X0575665Y0440397D01*
X0575661Y0440428D01*
X0575660Y0440437D01*
X0575615Y0440846D01*
X0071586Y0440846D01*
X0071507Y0440383D01*
X0071395Y0440170D01*
X0071179Y0440063D01*
X0071122Y0440059D01*
X0049883Y0440059D01*
X0049654Y0440133D01*
X0049512Y0440328D01*
X0049507Y0440550D01*
X0049714Y0441322D01*
X0050166Y0443597D01*
X0050166Y0443597D01*
X0050469Y0445896D01*
X0050620Y0448210D01*
X0050630Y0449370D01*
X0050630Y0458838D01*
X0050704Y0459067D01*
X0050744Y0459113D01*
X0055393Y0463763D01*
X0055608Y0463872D01*
X0055669Y0463877D01*
X0590097Y0463780D01*
G37*
X0510138Y0359055D02*
G01*
G75*
D328*
X0465059Y0334688D02*
D03*
X0465059Y0352405D02*
D03*
D329*
X0468386Y0310236D02*
D03*
X0495748Y0310236D02*
D03*
D330*
X0479626Y0333464D02*
D03*
X0495768Y0333464D02*
D03*
D331*
X0477855Y0351575D02*
D03*
X0493603Y0351575D02*
D03*
D332*
X0500794Y0289797D02*
D03*
X0491542Y0293537D02*
D03*
D332*
X0491542Y0286057D02*
D03*
D333*
X0468707Y0280118D02*
D03*
D333*
X0468707Y0283858D02*
D03*
X0468707Y0287598D02*
D03*
X0460243Y0287598D02*
D03*
X0460243Y0280118D02*
D03*
D334*
X0456391Y0294119D02*
D03*
X0469383Y0294119D02*
D03*
D335*
X0474677Y0293831D02*
D03*
X0486095Y0293831D02*
D03*
D336*
X0455492Y0326378D02*
D03*
X0461713Y0326378D02*
D03*
X0466083Y0326378D02*
D03*
X0472303Y0326378D02*
D03*
D337*
X0506169Y0349267D02*
D03*
X0506169Y0345133D02*
D03*
X0455614Y0307393D02*
D03*
X0455614Y0303259D02*
D03*
X0455614Y0312106D02*
D03*
X0455614Y0316240D02*
D03*
X0454722Y0331755D02*
D03*
X0454722Y0335889D02*
D03*
D338*
X0473825Y0287548D02*
D03*
X0473825Y0283611D02*
D03*
X0487500Y0286646D02*
D03*
X0478839Y0286646D02*
D03*
X0487500Y0280249D02*
D03*
X0478839Y0280249D02*
D03*
D339*
X0495873Y0280118D02*
D03*
X0492329Y0280118D02*
D03*
D340*
X0459872Y0303456D02*
D03*
X0459872Y0307000D02*
D03*
X0459872Y0312500D02*
D03*
X0459872Y0316043D02*
D03*
X0454722Y0344056D02*
D03*
X0454722Y0340512D02*
D03*
D114*
X0444390Y0340945D02*
D03*
X0444390Y0344882D02*
D03*
D115*
X0507185Y0287402D02*
D03*
X0507185Y0354331D02*
D03*
X0507185Y0306890D02*
D03*
X0446162Y0307087D02*
D03*
X0446162Y0281890D02*
D03*
X0446162Y0331496D02*
D03*
X0446162Y0314567D02*
D03*
X0446162Y0356102D02*
D03*
X0507185Y0280118D02*
D03*
X0177362Y0171555D02*
G01*
G75*
D106*
X0192067Y0181779D02*
D03*
X0192067Y0174299D02*
D03*
X0183602Y0174299D02*
D03*
X0183602Y0178039D02*
D03*
X0207716Y0181779D02*
D03*
X0207716Y0174299D02*
D03*
X0199252Y0174299D02*
D03*
X0199252Y0178039D02*
D03*
D106*
X0183602Y0181779D02*
D03*
X0199252Y0181779D02*
D03*
D114*
X0212795Y0181791D02*
D03*
X0212795Y0178051D02*
D03*
X0212795Y0174311D02*
D03*
X0178543Y0178248D02*
D03*
X0178543Y0181791D02*
D03*
X0296654Y0171752D02*
%LPD*%
G01*
D18*
X0269489Y0230020D03*
X0274213Y0230020D03*
X0264764Y0230020D03*
X0260040Y0230020D03*
X0285473Y0173228D03*
X0289410Y0173228D03*
G36*
G01*
X0279036Y0189193D02*
X0277579Y0189193D01*
G75*
G02*
X0277048Y0189724I0000000J0000531D01*
G01*
X0277048Y0190787D01*
G75*
G02*
X0277579Y0191319I0000531J0000000D01*
G01*
X0279036Y0191319D01*
G75*
G02*
X0279567Y0190787I0000000J-000531D01*
G01*
X0279567Y0189724D01*
G75*
G02*
X0279036Y0189193I-000531J0000000D01*
G01*
G37*
G36*
G01*
X0279036Y0185177D02*
X0277579Y0185177D01*
G75*
G02*
X0277048Y0185709I0000000J0000531D01*
G01*
X0277048Y0186772D01*
G75*
G02*
X0277579Y0187303I0000531J0000000D01*
G01*
X0279036Y0187303D01*
G75*
G02*
X0279567Y0186772I0000000J-000531D01*
G01*
X0279567Y0185709D01*
G75*
G02*
X0279036Y0185177I-000531J0000000D01*
G01*
G37*
G36*
G01*
X0294725Y0212441D02*
X0294725Y0210984D01*
G75*
G02*
X0294193Y0210453I-000531J0000000D01*
G01*
X0293130Y0210453D01*
G75*
G02*
X0292599Y0210984I0000000J0000531D01*
G01*
X0292599Y0212441D01*
G75*
G02*
X0293130Y0212972I0000531J0000000D01*
G01*
X0294193Y0212972D01*
G75*
G02*
X0294725Y0212441I0000000J-000531D01*
G01*
G37*
G36*
G01*
X0290709Y0212441D02*
X0290709Y0210984D01*
G75*
G02*
X0290178Y0210453I-000531J0000000D01*
G01*
X0289115Y0210453D01*
G75*
G02*
X0288583Y0210984I0000000J0000531D01*
G01*
X0288583Y0212441D01*
G75*
G02*
X0289115Y0212972I0000531J0000000D01*
G01*
X0290178Y0212972D01*
G75*
G02*
X0290709Y0212441I0000000J-000531D01*
G01*
G37*
G36*
G01*
X0262382Y0201469D02*
X0261201Y0201469D01*
G75*
G02*
X0260611Y0202059I0000000J0000591D01*
G01*
X0260611Y0208555D01*
G75*
G02*
X0261201Y0209146I0000591J0000000D01*
G01*
X0262382Y0209146D01*
G75*
G02*
X0262973Y0208555I0000000J-000591D01*
G01*
X0262973Y0202059D01*
G75*
G02*
X0262382Y0201469I-000591J0000000D01*
G01*
G37*
G36*
G01*
X0267382Y0201469D02*
X0266201Y0201469D01*
G75*
G02*
X0265611Y0202059I0000000J0000591D01*
G01*
X0265611Y0208555D01*
G75*
G02*
X0266201Y0209146I0000591J0000000D01*
G01*
X0267382Y0209146D01*
G75*
G02*
X0267973Y0208555I0000000J-000591D01*
G01*
X0267973Y0202059D01*
G75*
G02*
X0267382Y0201469I-000591J0000000D01*
G01*
G37*
G36*
G01*
X0272382Y0201469D02*
X0271201Y0201469D01*
G75*
G02*
X0270611Y0202059I0000000J0000591D01*
G01*
X0270611Y0208555D01*
G75*
G02*
X0271201Y0209146I0000591J0000000D01*
G01*
X0272382Y0209146D01*
G75*
G02*
X0272973Y0208555I0000000J-000591D01*
G01*
X0272973Y0202059D01*
G75*
G02*
X0272382Y0201469I-000591J0000000D01*
G01*
G37*
G36*
G01*
X0277382Y0201469D02*
X0276201Y0201469D01*
G75*
G02*
X0275611Y0202059I0000000J0000591D01*
G01*
X0275611Y0208555D01*
G75*
G02*
X0276201Y0209146I0000591J0000000D01*
G01*
X0277382Y0209146D01*
G75*
G02*
X0277973Y0208555I0000000J-000591D01*
G01*
X0277973Y0202059D01*
G75*
G02*
X0277382Y0201469I-000591J0000000D01*
G01*
G37*
G36*
G01*
X0277382Y0220957D02*
X0276201Y0220957D01*
G75*
G02*
X0275611Y0221547I0000000J0000591D01*
G01*
X0275611Y0228043D01*
G75*
G02*
X0276201Y0228634I0000591J0000000D01*
G01*
X0277382Y0228634D01*
G75*
G02*
X0277973Y0228043I0000000J-000591D01*
G01*
X0277973Y0221547D01*
G75*
G02*
X0277382Y0220957I-000591J0000000D01*
G01*
G37*
G36*
G01*
X0272382Y0220957D02*
X0271201Y0220957D01*
G75*
G02*
X0270611Y0221547I0000000J0000591D01*
G01*
X0270611Y0228043D01*
G75*
G02*
X0271201Y0228634I0000591J0000000D01*
G01*
X0272382Y0228634D01*
G75*
G02*
X0272973Y0228043I0000000J-000591D01*
G01*
X0272973Y0221547D01*
G75*
G02*
X0272382Y0220957I-000591J0000000D01*
G01*
G37*
G36*
G01*
X0267382Y0220957D02*
X0266201Y0220957D01*
G75*
G02*
X0265611Y0221547I0000000J0000591D01*
G01*
X0265611Y0228043D01*
G75*
G02*
X0266201Y0228634I0000591J0000000D01*
G01*
X0267382Y0228634D01*
G75*
G02*
X0267973Y0228043I0000000J-000591D01*
G01*
X0267973Y0221547D01*
G75*
G02*
X0267382Y0220957I-000591J0000000D01*
G01*
G37*
G36*
G01*
X0262382Y0220957D02*
X0261201Y0220957D01*
G75*
G02*
X0260611Y0221547I0000000J0000591D01*
G01*
X0260611Y0228043D01*
G75*
G02*
X0261201Y0228634I0000591J0000000D01*
G01*
X0262382Y0228634D01*
G75*
G02*
X0262973Y0228043I0000000J-000591D01*
G01*
X0262973Y0221547D01*
G75*
G02*
X0262382Y0220957I-000591J0000000D01*
G01*
G37*
D139*
X0261654Y0186949D03*
X0264213Y0186949D03*
X0266772Y0186949D03*
X0266772Y0194429D03*
X0264213Y0194429D03*
X0261654Y0194429D03*
G36*
G01*
X0280742Y0203110D02*
X0280742Y0204567D01*
G75*
G02*
X0281274Y0205098I0000531J0000000D01*
G01*
X0282337Y0205098D01*
G75*
G02*
X0282868Y0204567I0000000J-000531D01*
G01*
X0282868Y0203110D01*
G75*
G02*
X0282337Y0202579I-000531J0000000D01*
G01*
X0281274Y0202579D01*
G75*
G02*
X0280742Y0203110I0000000J0000531D01*
G01*
G37*
G36*
G01*
X0284758Y0203110D02*
X0284758Y0204567D01*
G75*
G02*
X0285289Y0205098I0000531J0000000D01*
G01*
X0286352Y0205098D01*
G75*
G02*
X0286884Y0204567I0000000J-000531D01*
G01*
X0286884Y0203110D01*
G75*
G02*
X0286352Y0202579I-000531J0000000D01*
G01*
X0285289Y0202579D01*
G75*
G02*
X0284758Y0203110I0000000J0000531D01*
G01*
G37*
G36*
G01*
X0286805Y0208445D02*
X0286805Y0207106D01*
G75*
G02*
X0286254Y0206555I-000551J0000000D01*
G01*
X0285152Y0206555D01*
G75*
G02*
X0284600Y0207106I0000000J0000551D01*
G01*
X0284600Y0208445D01*
G75*
G02*
X0285152Y0208996I0000551J0000000D01*
G01*
X0286254Y0208996D01*
G75*
G02*
X0286805Y0208445I0000000J-000551D01*
G01*
G37*
G36*
G01*
X0283026Y0208445D02*
X0283026Y0207106D01*
G75*
G02*
X0282474Y0206555I-000551J0000000D01*
G01*
X0281372Y0206555D01*
G75*
G02*
X0280821Y0207106I0000000J0000551D01*
G01*
X0280821Y0208445D01*
G75*
G02*
X0281372Y0208996I0000551J0000000D01*
G01*
X0282474Y0208996D01*
G75*
G02*
X0283026Y0208445I0000000J-000551D01*
G01*
G37*
G36*
G01*
X0294725Y0204567D02*
X0294725Y0203110D01*
G75*
G02*
X0294193Y0202579I-000531J0000000D01*
G01*
X0293130Y0202579D01*
G75*
G02*
X0292599Y0203110I0000000J0000531D01*
G01*
X0292599Y0204567D01*
G75*
G02*
X0293130Y0205098I0000531J0000000D01*
G01*
X0294193Y0205098D01*
G75*
G02*
X0294725Y0204567I0000000J-000531D01*
G01*
G37*
G36*
G01*
X0290709Y0204567D02*
X0290709Y0203110D01*
G75*
G02*
X0290178Y0202579I-000531J0000000D01*
G01*
X0289115Y0202579D01*
G75*
G02*
X0288583Y0203110I0000000J0000531D01*
G01*
X0288583Y0204567D01*
G75*
G02*
X0289115Y0205098I0000531J0000000D01*
G01*
X0290178Y0205098D01*
G75*
G02*
X0290709Y0204567I0000000J-000531D01*
G01*
G37*
G36*
G01*
X0288662Y0216161D02*
X0288662Y0217500D01*
G75*
G02*
X0289213Y0218051I0000551J0000000D01*
G01*
X0290315Y0218051D01*
G75*
G02*
X0290867Y0217500I0000000J-000551D01*
G01*
X0290867Y0216161D01*
G75*
G02*
X0290315Y0215610I-000551J0000000D01*
G01*
X0289213Y0215610D01*
G75*
G02*
X0288662Y0216161I0000000J0000551D01*
G01*
G37*
G36*
G01*
X0292441Y0216161D02*
X0292441Y0217500D01*
G75*
G02*
X0292993Y0218051I0000551J0000000D01*
G01*
X0294095Y0218051D01*
G75*
G02*
X0294646Y0217500I0000000J-000551D01*
G01*
X0294646Y0216161D01*
G75*
G02*
X0294095Y0215610I-000551J0000000D01*
G01*
X0292993Y0215610D01*
G75*
G02*
X0292441Y0216161I0000000J0000551D01*
G01*
G37*
G36*
G01*
X0284804Y0193032D02*
X0284804Y0194370D01*
G75*
G02*
X0285355Y0194921I0000551J0000000D01*
G01*
X0286457Y0194921D01*
G75*
G02*
X0287008Y0194370I0000000J-000551D01*
G01*
X0287008Y0193032D01*
G75*
G02*
X0286457Y0192480I-000551J0000000D01*
G01*
X0285355Y0192480D01*
G75*
G02*
X0284804Y0193032I0000000J0000551D01*
G01*
G37*
G36*
G01*
X0288583Y0193032D02*
X0288583Y0194370D01*
G75*
G02*
X0289134Y0194921I0000551J0000000D01*
G01*
X0290237Y0194921D01*
G75*
G02*
X0290788Y0194370I0000000J-000551D01*
G01*
X0290788Y0193032D01*
G75*
G02*
X0290237Y0192480I-000551J0000000D01*
G01*
X0289134Y0192480D01*
G75*
G02*
X0288583Y0193032I0000000J0000551D01*
G01*
G37*
G36*
G01*
X0281556Y0198799D02*
X0283012Y0198799D01*
G75*
G02*
X0283544Y0198268I0000000J-000531D01*
G01*
X0283544Y0197205D01*
G75*
G02*
X0283012Y0196673I-000531J0000000D01*
G01*
X0281556Y0196673D01*
G75*
G02*
X0281024Y0197205I0000000J0000531D01*
G01*
X0281024Y0198268D01*
G75*
G02*
X0281556Y0198799I0000531J0000000D01*
G01*
G37*
G36*
G01*
X0281556Y0194783D02*
X0283012Y0194783D01*
G75*
G02*
X0283544Y0194252I0000000J-000531D01*
G01*
X0283544Y0193189D01*
G75*
G02*
X0283012Y0192658I-000531J0000000D01*
G01*
X0281556Y0192658D01*
G75*
G02*
X0281024Y0193189I0000000J0000531D01*
G01*
X0281024Y0194252D01*
G75*
G02*
X0281556Y0194783I0000531J0000000D01*
G01*
G37*
G36*
G01*
X0280827Y0229626D02*
X0282166Y0229626D01*
G75*
G02*
X0282717Y0229075I0000000J-000551D01*
G01*
X0282717Y0227972D01*
G75*
G02*
X0282166Y0227421I-000551J0000000D01*
G01*
X0280827Y0227421D01*
G75*
G02*
X0280276Y0227972I0000000J0000551D01*
G01*
X0280276Y0229075D01*
G75*
G02*
X0280827Y0229626I0000551J0000000D01*
G01*
G37*
G36*
G01*
X0280827Y0225846D02*
X0282166Y0225846D01*
G75*
G02*
X0282717Y0225295I0000000J-000551D01*
G01*
X0282717Y0224193D01*
G75*
G02*
X0282166Y0223642I-000551J0000000D01*
G01*
X0280827Y0223642D01*
G75*
G02*
X0280276Y0224193I0000000J0000551D01*
G01*
X0280276Y0225295D01*
G75*
G02*
X0280827Y0225846I0000551J0000000D01*
G01*
G37*
G36*
G01*
X0275064Y0180571D02*
X0273047Y0180571D01*
G75*
G02*
X0272185Y0181432I0000000J0000861D01*
G01*
X0272185Y0183155D01*
G75*
G02*
X0273047Y0184016I0000861J0000000D01*
G01*
X0275064Y0184016D01*
G75*
G02*
X0275926Y0183155I0000000J-000861D01*
G01*
X0275926Y0181432D01*
G75*
G02*
X0275064Y0180571I-000861J0000000D01*
G01*
G37*
G36*
G01*
X0275064Y0174370D02*
X0273047Y0174370D01*
G75*
G02*
X0272185Y0175231I0000000J0000861D01*
G01*
X0272185Y0176954D01*
G75*
G02*
X0273047Y0177815I0000861J0000000D01*
G01*
X0275064Y0177815D01*
G75*
G02*
X0275926Y0176954I0000000J-000861D01*
G01*
X0275926Y0175231D01*
G75*
G02*
X0275064Y0174370I-000861J0000000D01*
G01*
G37*
G36*
G01*
X0269843Y0199350D02*
X0269843Y0198012D01*
G75*
G02*
X0269292Y0197461I-000551J0000000D01*
G01*
X0268189Y0197461D01*
G75*
G02*
X0267638Y0198012I0000000J0000551D01*
G01*
X0267638Y0199350D01*
G75*
G02*
X0268189Y0199902I0000551J0000000D01*
G01*
X0269292Y0199902D01*
G75*
G02*
X0269843Y0199350I0000000J-000551D01*
G01*
G37*
G36*
G01*
X0266063Y0199350D02*
X0266063Y0198012D01*
G75*
G02*
X0265512Y0197461I-000551J0000000D01*
G01*
X0264410Y0197461D01*
G75*
G02*
X0263859Y0198012I0000000J0000551D01*
G01*
X0263859Y0199350D01*
G75*
G02*
X0264410Y0199902I0000551J0000000D01*
G01*
X0265512Y0199902D01*
G75*
G02*
X0266063Y0199350I0000000J-000551D01*
G01*
G37*
G36*
G01*
X0266989Y0181713D02*
X0268445Y0181713D01*
G75*
G02*
X0268977Y0181181I0000000J-000531D01*
G01*
X0268977Y0180118D01*
G75*
G02*
X0268445Y0179587I-000531J0000000D01*
G01*
X0266989Y0179587D01*
G75*
G02*
X0266457Y0180118I0000000J0000531D01*
G01*
X0266457Y0181181D01*
G75*
G02*
X0266989Y0181713I0000531J0000000D01*
G01*
G37*
G36*
G01*
X0266989Y0177697D02*
X0268445Y0177697D01*
G75*
G02*
X0268977Y0177165I0000000J-000531D01*
G01*
X0268977Y0176102D01*
G75*
G02*
X0268445Y0175571I-000531J0000000D01*
G01*
X0266989Y0175571D01*
G75*
G02*
X0266457Y0176102I0000000J0000531D01*
G01*
X0266457Y0177165D01*
G75*
G02*
X0266989Y0177697I0000531J0000000D01*
G01*
G37*
G36*
G01*
X0279075Y0192658D02*
X0277619Y0192658D01*
G75*
G02*
X0277087Y0193189I0000000J0000531D01*
G01*
X0277087Y0194252D01*
G75*
G02*
X0277619Y0194783I0000531J0000000D01*
G01*
X0279075Y0194783D01*
G75*
G02*
X0279607Y0194252I0000000J-000531D01*
G01*
X0279607Y0193189D01*
G75*
G02*
X0279075Y0192658I-000531J0000000D01*
G01*
G37*
G36*
G01*
X0279075Y0196673D02*
X0277619Y0196673D01*
G75*
G02*
X0277087Y0197205I0000000J0000531D01*
G01*
X0277087Y0198268D01*
G75*
G02*
X0277619Y0198799I0000531J0000000D01*
G01*
X0279075Y0198799D01*
G75*
G02*
X0279607Y0198268I0000000J-000531D01*
G01*
X0279607Y0197205D01*
G75*
G02*
X0279075Y0196673I-000531J0000000D01*
G01*
G37*
G36*
G01*
X0284866Y0197795D02*
X0284866Y0199252D01*
G75*
G02*
X0285397Y0199783I0000531J0000000D01*
G01*
X0286460Y0199783D01*
G75*
G02*
X0286992Y0199252I0000000J-000531D01*
G01*
X0286992Y0197795D01*
G75*
G02*
X0286460Y0197264I-000531J0000000D01*
G01*
X0285397Y0197264D01*
G75*
G02*
X0284866Y0197795I0000000J0000531D01*
G01*
G37*
G36*
G01*
X0288882Y0197795D02*
X0288882Y0199252D01*
G75*
G02*
X0289413Y0199783I0000531J0000000D01*
G01*
X0290476Y0199783D01*
G75*
G02*
X0291007Y0199252I0000000J-000531D01*
G01*
X0291007Y0197795D01*
G75*
G02*
X0290476Y0197264I-000531J0000000D01*
G01*
X0289413Y0197264D01*
G75*
G02*
X0288882Y0197795I0000000J0000531D01*
G01*
G37*
G36*
G01*
X0278268Y0180453D02*
X0279607Y0180453D01*
G75*
G02*
X0280158Y0179902I0000000J-000551D01*
G01*
X0280158Y0178799D01*
G75*
G02*
X0279607Y0178248I-000551J0000000D01*
G01*
X0278268Y0178248D01*
G75*
G02*
X0277717Y0178799I0000000J0000551D01*
G01*
X0277717Y0179902D01*
G75*
G02*
X0278268Y0180453I0000551J0000000D01*
G01*
G37*
G36*
G01*
X0278268Y0176673D02*
X0279607Y0176673D01*
G75*
G02*
X0280158Y0176122I0000000J-000551D01*
G01*
X0280158Y0175020D01*
G75*
G02*
X0279607Y0174469I-000551J0000000D01*
G01*
X0278268Y0174469D01*
G75*
G02*
X0277717Y0175020I0000000J0000551D01*
G01*
X0277717Y0176122D01*
G75*
G02*
X0278268Y0176673I0000551J0000000D01*
G01*
G37*
G36*
G01*
X0286805Y0217500D02*
X0286805Y0216161D01*
G75*
G02*
X0286254Y0215610I-000551J0000000D01*
G01*
X0285152Y0215610D01*
G75*
G02*
X0284600Y0216161I0000000J0000551D01*
G01*
X0284600Y0217500D01*
G75*
G02*
X0285152Y0218051I0000551J0000000D01*
G01*
X0286254Y0218051D01*
G75*
G02*
X0286805Y0217500I0000000J-000551D01*
G01*
G37*
G36*
G01*
X0283026Y0217500D02*
X0283026Y0216161D01*
G75*
G02*
X0282474Y0215610I-000551J0000000D01*
G01*
X0281372Y0215610D01*
G75*
G02*
X0280821Y0216161I0000000J0000551D01*
G01*
X0280821Y0217500D01*
G75*
G02*
X0281372Y0218051I0000551J0000000D01*
G01*
X0282474Y0218051D01*
G75*
G02*
X0283026Y0217500I0000000J-000551D01*
G01*
G37*
G36*
G01*
X0294331Y0192480D02*
X0292874Y0192480D01*
G75*
G02*
X0292343Y0193012I0000000J0000531D01*
G01*
X0292343Y0194075D01*
G75*
G02*
X0292874Y0194606I0000531J0000000D01*
G01*
X0294331Y0194606D01*
G75*
G02*
X0294863Y0194075I0000000J-000531D01*
G01*
X0294863Y0193012D01*
G75*
G02*
X0294331Y0192480I-000531J0000000D01*
G01*
G37*
G36*
G01*
X0294331Y0196496D02*
X0292874Y0196496D01*
G75*
G02*
X0292343Y0197028I0000000J0000531D01*
G01*
X0292343Y0198091D01*
G75*
G02*
X0292874Y0198622I0000531J0000000D01*
G01*
X0294331Y0198622D01*
G75*
G02*
X0294863Y0198091I0000000J-000531D01*
G01*
X0294863Y0197028D01*
G75*
G02*
X0294331Y0196496I-000531J0000000D01*
G01*
G37*
D138*
X0293111Y0221739D03*
X0293111Y0224298D03*
X0293111Y0226857D03*
X0285630Y0226857D03*
X0285630Y0224298D03*
X0285630Y0221739D03*
G36*
G01*
X0284325Y0175790D02*
X0283144Y0175790D01*
G75*
G02*
X0282553Y0176381I0000000J0000591D01*
G01*
X0282553Y0180416D01*
G75*
G02*
X0283144Y0181007I0000591J0000000D01*
G01*
X0284325Y0181007D01*
G75*
G02*
X0284915Y0180416I0000000J-000591D01*
G01*
X0284915Y0176381D01*
G75*
G02*
X0284325Y0175790I-000591J0000000D01*
G01*
G37*
G36*
G01*
X0288065Y0175790D02*
X0286884Y0175790D01*
G75*
G02*
X0286293Y0176381I0000000J0000591D01*
G01*
X0286293Y0180416D01*
G75*
G02*
X0286884Y0181007I0000591J0000000D01*
G01*
X0288065Y0181007D01*
G75*
G02*
X0288656Y0180416I0000000J-000591D01*
G01*
X0288656Y0176381D01*
G75*
G02*
X0288065Y0175790I-000591J0000000D01*
G01*
G37*
G36*
G01*
X0291805Y0175790D02*
X0290624Y0175790D01*
G75*
G02*
X0290034Y0176381I0000000J0000591D01*
G01*
X0290034Y0180416D01*
G75*
G02*
X0290624Y0181007I0000591J0000000D01*
G01*
X0291805Y0181007D01*
G75*
G02*
X0292396Y0180416I0000000J-000591D01*
G01*
X0292396Y0176381D01*
G75*
G02*
X0291805Y0175790I-000591J0000000D01*
G01*
G37*
G36*
G01*
X0291805Y0184747D02*
X0290624Y0184747D01*
G75*
G02*
X0290034Y0185337I0000000J0000591D01*
G01*
X0290034Y0189373D01*
G75*
G02*
X0290624Y0189963I0000591J0000000D01*
G01*
X0291805Y0189963D01*
G75*
G02*
X0292396Y0189373I0000000J-000591D01*
G01*
X0292396Y0185337D01*
G75*
G02*
X0291805Y0184747I-000591J0000000D01*
G01*
G37*
G36*
G01*
X0288065Y0184747D02*
X0286884Y0184747D01*
G75*
G02*
X0286293Y0185337I0000000J0000591D01*
G01*
X0286293Y0189373D01*
G75*
G02*
X0286884Y0189963I0000591J0000000D01*
G01*
X0288065Y0189963D01*
G75*
G02*
X0288656Y0189373I0000000J-000591D01*
G01*
X0288656Y0185337D01*
G75*
G02*
X0288065Y0184747I-000591J0000000D01*
G01*
G37*
G36*
G01*
X0284325Y0184747D02*
X0283144Y0184747D01*
G75*
G02*
X0282553Y0185337I0000000J0000591D01*
G01*
X0282553Y0189373D01*
G75*
G02*
X0283144Y0189963I0000591J0000000D01*
G01*
X0284325Y0189963D01*
G75*
G02*
X0284915Y0189373I0000000J-000591D01*
G01*
X0284915Y0185337D01*
G75*
G02*
X0284325Y0184747I-000591J0000000D01*
G01*
G37*
G36*
G01*
X0272441Y0186909D02*
X0271103Y0186909D01*
G75*
G02*
X0270552Y0187461I0000000J0000551D01*
G01*
X0270552Y0188563D01*
G75*
G02*
X0271103Y0189114I0000551J0000000D01*
G01*
X0272441Y0189114D01*
G75*
G02*
X0272993Y0188563I0000000J-000551D01*
G01*
X0272993Y0187461D01*
G75*
G02*
X0272441Y0186909I-000551J0000000D01*
G01*
G37*
G36*
G01*
X0272441Y0190689D02*
X0271103Y0190689D01*
G75*
G02*
X0270552Y0191240I0000000J0000551D01*
G01*
X0270552Y0192343D01*
G75*
G02*
X0271103Y0192894I0000551J0000000D01*
G01*
X0272441Y0192894D01*
G75*
G02*
X0272993Y0192343I0000000J-000551D01*
G01*
X0272993Y0191240D01*
G75*
G02*
X0272441Y0190689I-000551J0000000D01*
G01*
G37*
G36*
G01*
X0294646Y0208445D02*
X0294646Y0207106D01*
G75*
G02*
X0294095Y0206555I-000551J0000000D01*
G01*
X0292993Y0206555D01*
G75*
G02*
X0292441Y0207106I0000000J0000551D01*
G01*
X0292441Y0208445D01*
G75*
G02*
X0292993Y0208996I0000551J0000000D01*
G01*
X0294095Y0208996D01*
G75*
G02*
X0294646Y0208445I0000000J-000551D01*
G01*
G37*
G36*
G01*
X0290867Y0208445D02*
X0290867Y0207106D01*
G75*
G02*
X0290315Y0206555I-000551J0000000D01*
G01*
X0289213Y0206555D01*
G75*
G02*
X0288662Y0207106I0000000J0000551D01*
G01*
X0288662Y0208445D01*
G75*
G02*
X0289213Y0208996I0000551J0000000D01*
G01*
X0290315Y0208996D01*
G75*
G02*
X0290867Y0208445I0000000J-000551D01*
G01*
G37*
G36*
G01*
X0286884Y0212441D02*
X0286884Y0210984D01*
G75*
G02*
X0286352Y0210453I-000531J0000000D01*
G01*
X0285289Y0210453D01*
G75*
G02*
X0284758Y0210984I0000000J0000531D01*
G01*
X0284758Y0212441D01*
G75*
G02*
X0285289Y0212972I0000531J0000000D01*
G01*
X0286352Y0212972D01*
G75*
G02*
X0286884Y0212441I0000000J-000531D01*
G01*
G37*
G36*
G01*
X0282868Y0212441D02*
X0282868Y0210984D01*
G75*
G02*
X0282337Y0210453I-000531J0000000D01*
G01*
X0281274Y0210453D01*
G75*
G02*
X0280742Y0210984I0000000J0000531D01*
G01*
X0280742Y0212441D01*
G75*
G02*
X0281274Y0212972I0000531J0000000D01*
G01*
X0282337Y0212972D01*
G75*
G02*
X0282868Y0212441I0000000J-000531D01*
G01*
G37*
X0256595Y0171014D02*
%LPD*%
G01*
D18*
X0229430Y0229282D03*
X0234154Y0229282D03*
X0224705Y0229282D03*
X0219981Y0229282D03*
X0245414Y0172490D03*
X0249351Y0172490D03*
D351*
X0243603Y0204872D03*
X0245571Y0204872D03*
X0247540Y0204872D03*
X0249508Y0204872D03*
X0251477Y0204872D03*
X0251477Y0222195D03*
X0249508Y0222195D03*
X0247540Y0222195D03*
X0245571Y0222195D03*
X0243603Y0222195D03*
G36*
G01*
X0230414Y0212392D02*
X0230414Y0215463D01*
G75*
G02*
X0230689Y0215738I0000276J0000000D01*
G01*
X0232894Y0215738D01*
G75*
G02*
X0233170Y0215463I0000000J-000276D01*
G01*
X0233170Y0212392D01*
G75*
G02*
X0232894Y0212116I-000276J0000000D01*
G01*
X0230689Y0212116D01*
G75*
G02*
X0230414Y0212392I0000000J0000276D01*
G01*
G37*
G36*
G01*
X0236713Y0212392D02*
X0236713Y0215463D01*
G75*
G02*
X0236989Y0215738I0000276J0000000D01*
G01*
X0239193Y0215738D01*
G75*
G02*
X0239469Y0215463I0000000J-000276D01*
G01*
X0239469Y0212392D01*
G75*
G02*
X0239193Y0212116I-000276J0000000D01*
G01*
X0236989Y0212116D01*
G75*
G02*
X0236713Y0212392I0000000J0000276D01*
G01*
G37*
G36*
G01*
X0223760Y0226723D02*
X0226831Y0226723D01*
G75*
G02*
X0227107Y0226447I0000000J-000276D01*
G01*
X0227107Y0224242D01*
G75*
G02*
X0226831Y0223967I-000276J0000000D01*
G01*
X0223760Y0223967D01*
G75*
G02*
X0223485Y0224242I0000000J0000276D01*
G01*
X0223485Y0226447D01*
G75*
G02*
X0223760Y0226723I0000276J0000000D01*
G01*
G37*
G36*
G01*
X0223760Y0220423D02*
X0226831Y0220423D01*
G75*
G02*
X0227107Y0220148I0000000J-000276D01*
G01*
X0227107Y0217943D01*
G75*
G02*
X0226831Y0217668I-000276J0000000D01*
G01*
X0223760Y0217668D01*
G75*
G02*
X0223485Y0217943I0000000J0000276D01*
G01*
X0223485Y0220148D01*
G75*
G02*
X0223760Y0220423I0000276J0000000D01*
G01*
G37*
G36*
G01*
X0230414Y0206486D02*
X0230414Y0209557D01*
G75*
G02*
X0230689Y0209833I0000276J0000000D01*
G01*
X0232894Y0209833D01*
G75*
G02*
X0233170Y0209557I0000000J-000276D01*
G01*
X0233170Y0206486D01*
G75*
G02*
X0232894Y0206211I-000276J0000000D01*
G01*
X0230689Y0206211D01*
G75*
G02*
X0230414Y0206486I0000000J0000276D01*
G01*
G37*
G36*
G01*
X0236713Y0206486D02*
X0236713Y0209557D01*
G75*
G02*
X0236989Y0209833I0000276J0000000D01*
G01*
X0239193Y0209833D01*
G75*
G02*
X0239469Y0209557I0000000J-000276D01*
G01*
X0239469Y0206486D01*
G75*
G02*
X0239193Y0206211I-000276J0000000D01*
G01*
X0236989Y0206211D01*
G75*
G02*
X0236713Y0206486I0000000J0000276D01*
G01*
G37*
G36*
G01*
X0226674Y0195837D02*
X0226674Y0198553D01*
G75*
G02*
X0227579Y0199459I0000906J0000000D01*
G01*
X0232855Y0199459D01*
G75*
G02*
X0233760Y0198553I0000000J-000906D01*
G01*
X0233760Y0195837D01*
G75*
G02*
X0232855Y0194931I-000906J0000000D01*
G01*
X0227579Y0194931D01*
G75*
G02*
X0226674Y0195837I0000000J0000906D01*
G01*
G37*
G36*
G01*
X0226674Y0184419D02*
X0226674Y0187136D01*
G75*
G02*
X0227579Y0188042I0000906J0000000D01*
G01*
X0232855Y0188042D01*
G75*
G02*
X0233760Y0187136I0000000J-000906D01*
G01*
X0233760Y0184419D01*
G75*
G02*
X0232855Y0183514I-000906J0000000D01*
G01*
X0227579Y0183514D01*
G75*
G02*
X0226674Y0184419I0000000J0000906D01*
G01*
G37*
G36*
G01*
X0236516Y0195837D02*
X0236516Y0198553D01*
G75*
G02*
X0237422Y0199459I0000906J0000000D01*
G01*
X0242697Y0199459D01*
G75*
G02*
X0243603Y0198553I0000000J-000906D01*
G01*
X0243603Y0195837D01*
G75*
G02*
X0242697Y0194931I-000906J0000000D01*
G01*
X0237422Y0194931D01*
G75*
G02*
X0236516Y0195837I0000000J0000906D01*
G01*
G37*
G36*
G01*
X0236516Y0184419D02*
X0236516Y0187136D01*
G75*
G02*
X0237422Y0188042I0000906J0000000D01*
G01*
X0242697Y0188042D01*
G75*
G02*
X0243603Y0187136I0000000J-000906D01*
G01*
X0243603Y0184419D01*
G75*
G02*
X0242697Y0183514I-000906J0000000D01*
G01*
X0237422Y0183514D01*
G75*
G02*
X0236516Y0184419I0000000J0000906D01*
G01*
G37*
G36*
G01*
X0230197Y0173770D02*
X0227481Y0173770D01*
G75*
G02*
X0226575Y0174675I0000000J0000906D01*
G01*
X0226575Y0179951D01*
G75*
G02*
X0227481Y0180857I0000906J0000000D01*
G01*
X0230197Y0180857D01*
G75*
G02*
X0231103Y0179951I0000000J-000906D01*
G01*
X0231103Y0174675D01*
G75*
G02*
X0230197Y0173770I-000906J0000000D01*
G01*
G37*
G36*
G01*
X0241615Y0173770D02*
X0238898Y0173770D01*
G75*
G02*
X0237993Y0174675I0000000J0000906D01*
G01*
X0237993Y0179951D01*
G75*
G02*
X0238898Y0180857I0000906J0000000D01*
G01*
X0241615Y0180857D01*
G75*
G02*
X0242520Y0179951I0000000J-000906D01*
G01*
X0242520Y0174675D01*
G75*
G02*
X0241615Y0173770I-000906J0000000D01*
G01*
G37*
G36*
G01*
X0245965Y0189144D02*
X0245965Y0191860D01*
G75*
G02*
X0246871Y0192766I0000906J0000000D01*
G01*
X0252146Y0192766D01*
G75*
G02*
X0253052Y0191860I0000000J-000906D01*
G01*
X0253052Y0189144D01*
G75*
G02*
X0252146Y0188238I-000906J0000000D01*
G01*
X0246871Y0188238D01*
G75*
G02*
X0245965Y0189144I0000000J0000906D01*
G01*
G37*
G36*
G01*
X0245965Y0177727D02*
X0245965Y0180443D01*
G75*
G02*
X0246871Y0181349I0000906J0000000D01*
G01*
X0252146Y0181349D01*
G75*
G02*
X0253052Y0180443I0000000J-000906D01*
G01*
X0253052Y0177727D01*
G75*
G02*
X0252146Y0176821I-000906J0000000D01*
G01*
X0246871Y0176821D01*
G75*
G02*
X0245965Y0177727I0000000J0000906D01*
G01*
G37*
G36*
G01*
X0224090Y0214813D02*
X0226108Y0214813D01*
G75*
G02*
X0226969Y0213952I0000000J-000861D01*
G01*
X0226969Y0212230D01*
G75*
G02*
X0226108Y0211368I-000861J0000000D01*
G01*
X0224090Y0211368D01*
G75*
G02*
X0223229Y0212230I0000000J0000861D01*
G01*
X0223229Y0213952D01*
G75*
G02*
X0224090Y0214813I0000861J0000000D01*
G01*
G37*
G36*
G01*
X0224090Y0208612D02*
X0226108Y0208612D01*
G75*
G02*
X0226969Y0207751I0000000J-000861D01*
G01*
X0226969Y0206029D01*
G75*
G02*
X0226108Y0205168I-000861J0000000D01*
G01*
X0224090Y0205168D01*
G75*
G02*
X0223229Y0206029I0000000J0000861D01*
G01*
X0223229Y0207751D01*
G75*
G02*
X0224090Y0208612I0000861J0000000D01*
G01*
G37*
G36*
G01*
X0231052Y0220758D02*
X0233729Y0220758D01*
G75*
G02*
X0234064Y0220423I0000000J-000335D01*
G01*
X0234064Y0217746D01*
G75*
G02*
X0233729Y0217412I-000335J0000000D01*
G01*
X0231052Y0217412D01*
G75*
G02*
X0230717Y0217746I0000000J0000335D01*
G01*
X0230717Y0220423D01*
G75*
G02*
X0231052Y0220758I0000335J0000000D01*
G01*
G37*
G36*
G01*
X0231052Y0226979D02*
X0233729Y0226979D01*
G75*
G02*
X0234064Y0226644I0000000J-000335D01*
G01*
X0234064Y0223967D01*
G75*
G02*
X0233729Y0223632I-000335J0000000D01*
G01*
X0231052Y0223632D01*
G75*
G02*
X0230717Y0223967I0000000J0000335D01*
G01*
X0230717Y0226644D01*
G75*
G02*
X0231052Y0226979I0000335J0000000D01*
G01*
G37*
G36*
G01*
X0236359Y0226979D02*
X0239036Y0226979D01*
G75*
G02*
X0239371Y0226644I0000000J-000335D01*
G01*
X0239371Y0223967D01*
G75*
G02*
X0239036Y0223632I-000335J0000000D01*
G01*
X0236359Y0223632D01*
G75*
G02*
X0236024Y0223967I0000000J0000335D01*
G01*
X0236024Y0226644D01*
G75*
G02*
X0236359Y0226979I0000335J0000000D01*
G01*
G37*
G36*
G01*
X0236359Y0220758D02*
X0239036Y0220758D01*
G75*
G02*
X0239371Y0220423I0000000J-000335D01*
G01*
X0239371Y0217746D01*
G75*
G02*
X0239036Y0217412I-000335J0000000D01*
G01*
X0236359Y0217412D01*
G75*
G02*
X0236024Y0217746I0000000J0000335D01*
G01*
X0236024Y0220423D01*
G75*
G02*
X0236359Y0220758I0000335J0000000D01*
G01*
G37*
G36*
G01*
X0230158Y0201565D02*
X0230158Y0204242D01*
G75*
G02*
X0230493Y0204577I0000335J0000000D01*
G01*
X0233170Y0204577D01*
G75*
G02*
X0233504Y0204242I0000000J-000335D01*
G01*
X0233504Y0201565D01*
G75*
G02*
X0233170Y0201231I-000335J0000000D01*
G01*
X0230493Y0201231D01*
G75*
G02*
X0230158Y0201565I0000000J0000335D01*
G01*
G37*
G36*
G01*
X0236378Y0201565D02*
X0236378Y0204242D01*
G75*
G02*
X0236713Y0204577I0000335J0000000D01*
G01*
X0239390Y0204577D01*
G75*
G02*
X0239725Y0204242I0000000J-000335D01*
G01*
X0239725Y0201565D01*
G75*
G02*
X0239390Y0201231I-000335J0000000D01*
G01*
X0236713Y0201231D01*
G75*
G02*
X0236378Y0201565I0000000J0000335D01*
G01*
G37*
X0104921Y0278839D02*
%LPD*%
G01*
G36*
G01*
X0140630Y0211231D02*
X0140630Y0212589D01*
G75*
G02*
X0141210Y0213170I0000581J0000000D01*
G01*
X0142372Y0213170D01*
G75*
G02*
X0142952Y0212589I0000000J-000581D01*
G01*
X0142952Y0211231D01*
G75*
G02*
X0142372Y0210650I-000581J0000000D01*
G01*
X0141210Y0210650D01*
G75*
G02*
X0140630Y0211231I0000000J0000581D01*
G01*
G37*
G36*
G01*
X0144449Y0211231D02*
X0144449Y0212589D01*
G75*
G02*
X0145029Y0213170I0000581J0000000D01*
G01*
X0146191Y0213170D01*
G75*
G02*
X0146771Y0212589I0000000J-000581D01*
G01*
X0146771Y0211231D01*
G75*
G02*
X0146191Y0210650I-000581J0000000D01*
G01*
X0145029Y0210650D01*
G75*
G02*
X0144449Y0211231I0000000J0000581D01*
G01*
G37*
G36*
G01*
X0125206Y0269804D02*
X0126565Y0269804D01*
G75*
G02*
X0127145Y0269223I0000000J-000581D01*
G01*
X0127145Y0268061D01*
G75*
G02*
X0126565Y0267481I-000581J0000000D01*
G01*
X0125206Y0267481D01*
G75*
G02*
X0124626Y0268061I0000000J0000581D01*
G01*
X0124626Y0269223D01*
G75*
G02*
X0125206Y0269804I0000581J0000000D01*
G01*
G37*
G36*
G01*
X0125206Y0265985D02*
X0126565Y0265985D01*
G75*
G02*
X0127145Y0265404I0000000J-000581D01*
G01*
X0127145Y0264243D01*
G75*
G02*
X0126565Y0263662I-000581J0000000D01*
G01*
X0125206Y0263662D01*
G75*
G02*
X0124626Y0264243I0000000J0000581D01*
G01*
X0124626Y0265404D01*
G75*
G02*
X0125206Y0265985I0000581J0000000D01*
G01*
G37*
G36*
G01*
X0140403Y0259277D02*
X0140403Y0257259D01*
G75*
G02*
X0139542Y0256398I-000861J0000000D01*
G01*
X0137820Y0256398D01*
G75*
G02*
X0136958Y0257259I0000000J0000861D01*
G01*
X0136958Y0259277D01*
G75*
G02*
X0137820Y0260138I0000861J0000000D01*
G01*
X0139542Y0260138D01*
G75*
G02*
X0140403Y0259277I0000000J-000861D01*
G01*
G37*
G36*
G01*
X0134202Y0259277D02*
X0134202Y0257259D01*
G75*
G02*
X0133341Y0256398I-000861J0000000D01*
G01*
X0131619Y0256398D01*
G75*
G02*
X0130758Y0257259I0000000J0000861D01*
G01*
X0130758Y0259277D01*
G75*
G02*
X0131619Y0260138I0000861J0000000D01*
G01*
X0133341Y0260138D01*
G75*
G02*
X0134202Y0259277I0000000J-000861D01*
G01*
G37*
G36*
G01*
X0115374Y0212786D02*
X0115374Y0211428D01*
G75*
G02*
X0114793Y0210847I-000581J0000000D01*
G01*
X0113632Y0210847D01*
G75*
G02*
X0113051Y0211428I0000000J0000581D01*
G01*
X0113051Y0212786D01*
G75*
G02*
X0113632Y0213367I0000581J0000000D01*
G01*
X0114793Y0213367D01*
G75*
G02*
X0115374Y0212786I0000000J-000581D01*
G01*
G37*
G36*
G01*
X0111555Y0212786D02*
X0111555Y0211428D01*
G75*
G02*
X0110974Y0210847I-000581J0000000D01*
G01*
X0109813Y0210847D01*
G75*
G02*
X0109232Y0211428I0000000J0000581D01*
G01*
X0109232Y0212786D01*
G75*
G02*
X0109813Y0213367I0000581J0000000D01*
G01*
X0110974Y0213367D01*
G75*
G02*
X0111555Y0212786I0000000J-000581D01*
G01*
G37*
D146*
X0131201Y0263977D03*
X0138681Y0263977D03*
X0134941Y0271851D03*
G36*
G01*
X0115374Y0216969D02*
X0115374Y0215611D01*
G75*
G02*
X0114793Y0215030I-000581J0000000D01*
G01*
X0113632Y0215030D01*
G75*
G02*
X0113051Y0215611I0000000J0000581D01*
G01*
X0113051Y0216969D01*
G75*
G02*
X0113632Y0217550I0000581J0000000D01*
G01*
X0114793Y0217550D01*
G75*
G02*
X0115374Y0216969I0000000J-000581D01*
G01*
G37*
G36*
G01*
X0111555Y0216969D02*
X0111555Y0215611D01*
G75*
G02*
X0110974Y0215030I-000581J0000000D01*
G01*
X0109813Y0215030D01*
G75*
G02*
X0109232Y0215611I0000000J0000581D01*
G01*
X0109232Y0216969D01*
G75*
G02*
X0109813Y0217550I0000581J0000000D01*
G01*
X0110974Y0217550D01*
G75*
G02*
X0111555Y0216969I0000000J-000581D01*
G01*
G37*
G36*
G01*
X0139291Y0212589D02*
X0139291Y0211231D01*
G75*
G02*
X0138710Y0210650I-000581J0000000D01*
G01*
X0137549Y0210650D01*
G75*
G02*
X0136968Y0211231I0000000J0000581D01*
G01*
X0136968Y0212589D01*
G75*
G02*
X0137549Y0213170I0000581J0000000D01*
G01*
X0138710Y0213170D01*
G75*
G02*
X0139291Y0212589I0000000J-000581D01*
G01*
G37*
G36*
G01*
X0135472Y0212589D02*
X0135472Y0211231D01*
G75*
G02*
X0134891Y0210650I-000581J0000000D01*
G01*
X0133730Y0210650D01*
G75*
G02*
X0133149Y0211231I0000000J0000581D01*
G01*
X0133149Y0212589D01*
G75*
G02*
X0133730Y0213170I0000581J0000000D01*
G01*
X0134891Y0213170D01*
G75*
G02*
X0135472Y0212589I0000000J-000581D01*
G01*
G37*
G36*
G01*
X0151555Y0216349D02*
X0151555Y0217707D01*
G75*
G02*
X0152136Y0218288I0000581J0000000D01*
G01*
X0153297Y0218288D01*
G75*
G02*
X0153878Y0217707I0000000J-000581D01*
G01*
X0153878Y0216349D01*
G75*
G02*
X0153297Y0215768I-000581J0000000D01*
G01*
X0152136Y0215768D01*
G75*
G02*
X0151555Y0216349I0000000J0000581D01*
G01*
G37*
G36*
G01*
X0155374Y0216349D02*
X0155374Y0217707D01*
G75*
G02*
X0155954Y0218288I0000581J0000000D01*
G01*
X0157116Y0218288D01*
G75*
G02*
X0157697Y0217707I0000000J-000581D01*
G01*
X0157697Y0216349D01*
G75*
G02*
X0157116Y0215768I-000581J0000000D01*
G01*
X0155954Y0215768D01*
G75*
G02*
X0155374Y0216349I0000000J0000581D01*
G01*
G37*
G36*
G01*
X0124783Y0211231D02*
X0124783Y0212589D01*
G75*
G02*
X0125364Y0213170I0000581J0000000D01*
G01*
X0126525Y0213170D01*
G75*
G02*
X0127106Y0212589I0000000J-000581D01*
G01*
X0127106Y0211231D01*
G75*
G02*
X0126525Y0210650I-000581J0000000D01*
G01*
X0125364Y0210650D01*
G75*
G02*
X0124783Y0211231I0000000J0000581D01*
G01*
G37*
G36*
G01*
X0128602Y0211231D02*
X0128602Y0212589D01*
G75*
G02*
X0129183Y0213170I0000581J0000000D01*
G01*
X0130344Y0213170D01*
G75*
G02*
X0130925Y0212589I0000000J-000581D01*
G01*
X0130925Y0211231D01*
G75*
G02*
X0130344Y0210650I-000581J0000000D01*
G01*
X0129183Y0210650D01*
G75*
G02*
X0128602Y0211231I0000000J0000581D01*
G01*
G37*
G36*
G01*
X0151555Y0250995D02*
X0151555Y0252353D01*
G75*
G02*
X0152136Y0252933I0000581J0000000D01*
G01*
X0153297Y0252933D01*
G75*
G02*
X0153878Y0252353I0000000J-000581D01*
G01*
X0153878Y0250995D01*
G75*
G02*
X0153297Y0250414I-000581J0000000D01*
G01*
X0152136Y0250414D01*
G75*
G02*
X0151555Y0250995I0000000J0000581D01*
G01*
G37*
G36*
G01*
X0155374Y0250995D02*
X0155374Y0252353D01*
G75*
G02*
X0155954Y0252933I0000581J0000000D01*
G01*
X0157116Y0252933D01*
G75*
G02*
X0157697Y0252353I0000000J-000581D01*
G01*
X0157697Y0250995D01*
G75*
G02*
X0157116Y0250414I-000581J0000000D01*
G01*
X0155954Y0250414D01*
G75*
G02*
X0155374Y0250995I0000000J0000581D01*
G01*
G37*
D352*
X0144882Y0186556D03*
D144*
X0116535Y0187658D03*
X0128346Y0195532D03*
X0116535Y0203406D03*
D353*
X0120078Y0195532D03*
D352*
X0144882Y0204508D03*
G36*
G01*
X0125108Y0262028D02*
X0126466Y0262028D01*
G75*
G02*
X0127047Y0261447I0000000J-000581D01*
G01*
X0127047Y0260286D01*
G75*
G02*
X0126466Y0259705I-000581J0000000D01*
G01*
X0125108Y0259705D01*
G75*
G02*
X0124527Y0260286I0000000J0000581D01*
G01*
X0124527Y0261447D01*
G75*
G02*
X0125108Y0262028I0000581J0000000D01*
G01*
G37*
G36*
G01*
X0125108Y0258209D02*
X0126466Y0258209D01*
G75*
G02*
X0127047Y0257628I0000000J-000581D01*
G01*
X0127047Y0256467D01*
G75*
G02*
X0126466Y0255886I-000581J0000000D01*
G01*
X0125108Y0255886D01*
G75*
G02*
X0124527Y0256467I0000000J0000581D01*
G01*
X0124527Y0257628D01*
G75*
G02*
X0125108Y0258209I0000581J0000000D01*
G01*
G37*
G36*
G01*
X0111442Y0223524D02*
X0109424Y0223524D01*
G75*
G02*
X0108563Y0224385I0000000J0000861D01*
G01*
X0108563Y0226108D01*
G75*
G02*
X0109424Y0226969I0000861J0000000D01*
G01*
X0111442Y0226969D01*
G75*
G02*
X0112303Y0226108I0000000J-000861D01*
G01*
X0112303Y0224385D01*
G75*
G02*
X0111442Y0223524I-000861J0000000D01*
G01*
G37*
G36*
G01*
X0111442Y0229725D02*
X0109424Y0229725D01*
G75*
G02*
X0108563Y0230586I0000000J0000861D01*
G01*
X0108563Y0232308D01*
G75*
G02*
X0109424Y0233170I0000861J0000000D01*
G01*
X0111442Y0233170D01*
G75*
G02*
X0112303Y0232308I0000000J-000861D01*
G01*
X0112303Y0230586D01*
G75*
G02*
X0111442Y0229725I-000861J0000000D01*
G01*
G37*
G36*
G01*
X0115374Y0221152D02*
X0115374Y0219794D01*
G75*
G02*
X0114793Y0219213I-000581J0000000D01*
G01*
X0113632Y0219213D01*
G75*
G02*
X0113051Y0219794I0000000J0000581D01*
G01*
X0113051Y0221152D01*
G75*
G02*
X0113632Y0221733I0000581J0000000D01*
G01*
X0114793Y0221733D01*
G75*
G02*
X0115374Y0221152I0000000J-000581D01*
G01*
G37*
G36*
G01*
X0111555Y0221152D02*
X0111555Y0219794D01*
G75*
G02*
X0110974Y0219213I-000581J0000000D01*
G01*
X0109813Y0219213D01*
G75*
G02*
X0109232Y0219794I0000000J0000581D01*
G01*
X0109232Y0221152D01*
G75*
G02*
X0109813Y0221733I0000581J0000000D01*
G01*
X0110974Y0221733D01*
G75*
G02*
X0111555Y0221152I0000000J-000581D01*
G01*
G37*
G36*
G01*
X0110827Y0177043D02*
X0110827Y0179060D01*
G75*
G02*
X0111688Y0179922I0000861J0000000D01*
G01*
X0113410Y0179922D01*
G75*
G02*
X0114271Y0179060I0000000J-000861D01*
G01*
X0114271Y0177043D01*
G75*
G02*
X0113410Y0176182I-000861J0000000D01*
G01*
X0111688Y0176182D01*
G75*
G02*
X0110827Y0177043I0000000J0000861D01*
G01*
G37*
G36*
G01*
X0117027Y0177043D02*
X0117027Y0179060D01*
G75*
G02*
X0117889Y0179922I0000861J0000000D01*
G01*
X0119611Y0179922D01*
G75*
G02*
X0120472Y0179060I0000000J-000861D01*
G01*
X0120472Y0177043D01*
G75*
G02*
X0119611Y0176182I-000861J0000000D01*
G01*
X0117889Y0176182D01*
G75*
G02*
X0117027Y0177043I0000000J0000861D01*
G01*
G37*
G36*
G01*
X0109424Y0244882D02*
X0111442Y0244882D01*
G75*
G02*
X0112303Y0244021I0000000J-000861D01*
G01*
X0112303Y0242299D01*
G75*
G02*
X0111442Y0241437I-000861J0000000D01*
G01*
X0109424Y0241437D01*
G75*
G02*
X0108563Y0242299I0000000J0000861D01*
G01*
X0108563Y0244021D01*
G75*
G02*
X0109424Y0244882I0000861J0000000D01*
G01*
G37*
G36*
G01*
X0109424Y0238682D02*
X0111442Y0238682D01*
G75*
G02*
X0112303Y0237820I0000000J-000861D01*
G01*
X0112303Y0236098D01*
G75*
G02*
X0111442Y0235237I-000861J0000000D01*
G01*
X0109424Y0235237D01*
G75*
G02*
X0108563Y0236098I0000000J0000861D01*
G01*
X0108563Y0237820D01*
G75*
G02*
X0109424Y0238682I0000861J0000000D01*
G01*
G37*
G36*
G01*
X0113602Y0249203D02*
X0113602Y0247845D01*
G75*
G02*
X0113021Y0247264I-000581J0000000D01*
G01*
X0111860Y0247264D01*
G75*
G02*
X0111279Y0247845I0000000J0000581D01*
G01*
X0111279Y0249203D01*
G75*
G02*
X0111860Y0249784I0000581J0000000D01*
G01*
X0113021Y0249784D01*
G75*
G02*
X0113602Y0249203I0000000J-000581D01*
G01*
G37*
G36*
G01*
X0109783Y0249203D02*
X0109783Y0247845D01*
G75*
G02*
X0109202Y0247264I-000581J0000000D01*
G01*
X0108041Y0247264D01*
G75*
G02*
X0107460Y0247845I0000000J0000581D01*
G01*
X0107460Y0249203D01*
G75*
G02*
X0108041Y0249784I0000581J0000000D01*
G01*
X0109202Y0249784D01*
G75*
G02*
X0109783Y0249203I0000000J-000581D01*
G01*
G37*
G36*
G01*
X0126279Y0214764D02*
X0125295Y0214764D01*
G75*
G02*
X0124803Y0215256I0000000J0000492D01*
G01*
X0124803Y0220178D01*
G75*
G02*
X0125295Y0220670I0000492J0000000D01*
G01*
X0126279Y0220670D01*
G75*
G02*
X0126771Y0220178I0000000J-000492D01*
G01*
X0126771Y0215256D01*
G75*
G02*
X0126279Y0214764I-000492J0000000D01*
G01*
G37*
G36*
G01*
X0129429Y0214764D02*
X0128445Y0214764D01*
G75*
G02*
X0127952Y0215256I0000000J0000492D01*
G01*
X0127952Y0220178D01*
G75*
G02*
X0128445Y0220670I0000492J0000000D01*
G01*
X0129429Y0220670D01*
G75*
G02*
X0129921Y0220178I0000000J-000492D01*
G01*
X0129921Y0215256D01*
G75*
G02*
X0129429Y0214764I-000492J0000000D01*
G01*
G37*
G36*
G01*
X0132578Y0214764D02*
X0131594Y0214764D01*
G75*
G02*
X0131102Y0215256I0000000J0000492D01*
G01*
X0131102Y0220178D01*
G75*
G02*
X0131594Y0220670I0000492J0000000D01*
G01*
X0132578Y0220670D01*
G75*
G02*
X0133071Y0220178I0000000J-000492D01*
G01*
X0133071Y0215256D01*
G75*
G02*
X0132578Y0214764I-000492J0000000D01*
G01*
G37*
G36*
G01*
X0135728Y0214764D02*
X0134744Y0214764D01*
G75*
G02*
X0134252Y0215256I0000000J0000492D01*
G01*
X0134252Y0220178D01*
G75*
G02*
X0134744Y0220670I0000492J0000000D01*
G01*
X0135728Y0220670D01*
G75*
G02*
X0136220Y0220178I0000000J-000492D01*
G01*
X0136220Y0215256D01*
G75*
G02*
X0135728Y0214764I-000492J0000000D01*
G01*
G37*
G36*
G01*
X0138878Y0214764D02*
X0137893Y0214764D01*
G75*
G02*
X0137401Y0215256I0000000J0000492D01*
G01*
X0137401Y0220178D01*
G75*
G02*
X0137893Y0220670I0000492J0000000D01*
G01*
X0138878Y0220670D01*
G75*
G02*
X0139370Y0220178I0000000J-000492D01*
G01*
X0139370Y0215256D01*
G75*
G02*
X0138878Y0214764I-000492J0000000D01*
G01*
G37*
G36*
G01*
X0142027Y0214764D02*
X0141043Y0214764D01*
G75*
G02*
X0140551Y0215256I0000000J0000492D01*
G01*
X0140551Y0220178D01*
G75*
G02*
X0141043Y0220670I0000492J0000000D01*
G01*
X0142027Y0220670D01*
G75*
G02*
X0142519Y0220178I0000000J-000492D01*
G01*
X0142519Y0215256D01*
G75*
G02*
X0142027Y0214764I-000492J0000000D01*
G01*
G37*
G36*
G01*
X0145177Y0214764D02*
X0144193Y0214764D01*
G75*
G02*
X0143701Y0215256I0000000J0000492D01*
G01*
X0143701Y0220178D01*
G75*
G02*
X0144193Y0220670I0000492J0000000D01*
G01*
X0145177Y0220670D01*
G75*
G02*
X0145669Y0220178I0000000J-000492D01*
G01*
X0145669Y0215256D01*
G75*
G02*
X0145177Y0214764I-000492J0000000D01*
G01*
G37*
G36*
G01*
X0148327Y0214764D02*
X0147342Y0214764D01*
G75*
G02*
X0146850Y0215256I0000000J0000492D01*
G01*
X0146850Y0220178D01*
G75*
G02*
X0147342Y0220670I0000492J0000000D01*
G01*
X0148327Y0220670D01*
G75*
G02*
X0148819Y0220178I0000000J-000492D01*
G01*
X0148819Y0215256D01*
G75*
G02*
X0148327Y0214764I-000492J0000000D01*
G01*
G37*
G36*
G01*
X0155708Y0222146D02*
X0150787Y0222146D01*
G75*
G02*
X0150295Y0222638I0000000J0000492D01*
G01*
X0150295Y0223622D01*
G75*
G02*
X0150787Y0224115I0000492J0000000D01*
G01*
X0155708Y0224115D01*
G75*
G02*
X0156201Y0223622I0000000J-000492D01*
G01*
X0156201Y0222638D01*
G75*
G02*
X0155708Y0222146I-000492J0000000D01*
G01*
G37*
G36*
G01*
X0155708Y0225296D02*
X0150787Y0225296D01*
G75*
G02*
X0150295Y0225788I0000000J0000492D01*
G01*
X0150295Y0226772D01*
G75*
G02*
X0150787Y0227264I0000492J0000000D01*
G01*
X0155708Y0227264D01*
G75*
G02*
X0156201Y0226772I0000000J-000492D01*
G01*
X0156201Y0225788D01*
G75*
G02*
X0155708Y0225296I-000492J0000000D01*
G01*
G37*
G36*
G01*
X0155708Y0228445D02*
X0150787Y0228445D01*
G75*
G02*
X0150295Y0228937I0000000J0000492D01*
G01*
X0150295Y0229922D01*
G75*
G02*
X0150787Y0230414I0000492J0000000D01*
G01*
X0155708Y0230414D01*
G75*
G02*
X0156201Y0229922I0000000J-000492D01*
G01*
X0156201Y0228937D01*
G75*
G02*
X0155708Y0228445I-000492J0000000D01*
G01*
G37*
G36*
G01*
X0155708Y0231595D02*
X0150787Y0231595D01*
G75*
G02*
X0150295Y0232087I0000000J0000492D01*
G01*
X0150295Y0233071D01*
G75*
G02*
X0150787Y0233563I0000492J0000000D01*
G01*
X0155708Y0233563D01*
G75*
G02*
X0156201Y0233071I0000000J-000492D01*
G01*
X0156201Y0232087D01*
G75*
G02*
X0155708Y0231595I-000492J0000000D01*
G01*
G37*
G36*
G01*
X0155708Y0234745D02*
X0150787Y0234745D01*
G75*
G02*
X0150295Y0235237I0000000J0000492D01*
G01*
X0150295Y0236221D01*
G75*
G02*
X0150787Y0236713I0000492J0000000D01*
G01*
X0155708Y0236713D01*
G75*
G02*
X0156201Y0236221I0000000J-000492D01*
G01*
X0156201Y0235237D01*
G75*
G02*
X0155708Y0234745I-000492J0000000D01*
G01*
G37*
G36*
G01*
X0155708Y0237894D02*
X0150787Y0237894D01*
G75*
G02*
X0150295Y0238386I0000000J0000492D01*
G01*
X0150295Y0239370D01*
G75*
G02*
X0150787Y0239863I0000492J0000000D01*
G01*
X0155708Y0239863D01*
G75*
G02*
X0156201Y0239370I0000000J-000492D01*
G01*
X0156201Y0238386D01*
G75*
G02*
X0155708Y0237894I-000492J0000000D01*
G01*
G37*
G36*
G01*
X0155708Y0241044D02*
X0150787Y0241044D01*
G75*
G02*
X0150295Y0241536I0000000J0000492D01*
G01*
X0150295Y0242520D01*
G75*
G02*
X0150787Y0243012I0000492J0000000D01*
G01*
X0155708Y0243012D01*
G75*
G02*
X0156201Y0242520I0000000J-000492D01*
G01*
X0156201Y0241536D01*
G75*
G02*
X0155708Y0241044I-000492J0000000D01*
G01*
G37*
G36*
G01*
X0155708Y0244193D02*
X0150787Y0244193D01*
G75*
G02*
X0150295Y0244685I0000000J0000492D01*
G01*
X0150295Y0245670D01*
G75*
G02*
X0150787Y0246162I0000492J0000000D01*
G01*
X0155708Y0246162D01*
G75*
G02*
X0156201Y0245670I0000000J-000492D01*
G01*
X0156201Y0244685D01*
G75*
G02*
X0155708Y0244193I-000492J0000000D01*
G01*
G37*
G36*
G01*
X0148327Y0247638D02*
X0147342Y0247638D01*
G75*
G02*
X0146850Y0248130I0000000J0000492D01*
G01*
X0146850Y0253052D01*
G75*
G02*
X0147342Y0253544I0000492J0000000D01*
G01*
X0148327Y0253544D01*
G75*
G02*
X0148819Y0253052I0000000J-000492D01*
G01*
X0148819Y0248130D01*
G75*
G02*
X0148327Y0247638I-000492J0000000D01*
G01*
G37*
G36*
G01*
X0145177Y0247638D02*
X0144193Y0247638D01*
G75*
G02*
X0143701Y0248130I0000000J0000492D01*
G01*
X0143701Y0253052D01*
G75*
G02*
X0144193Y0253544I0000492J0000000D01*
G01*
X0145177Y0253544D01*
G75*
G02*
X0145669Y0253052I0000000J-000492D01*
G01*
X0145669Y0248130D01*
G75*
G02*
X0145177Y0247638I-000492J0000000D01*
G01*
G37*
G36*
G01*
X0142027Y0247638D02*
X0141043Y0247638D01*
G75*
G02*
X0140551Y0248130I0000000J0000492D01*
G01*
X0140551Y0253052D01*
G75*
G02*
X0141043Y0253544I0000492J0000000D01*
G01*
X0142027Y0253544D01*
G75*
G02*
X0142519Y0253052I0000000J-000492D01*
G01*
X0142519Y0248130D01*
G75*
G02*
X0142027Y0247638I-000492J0000000D01*
G01*
G37*
G36*
G01*
X0138878Y0247638D02*
X0137893Y0247638D01*
G75*
G02*
X0137401Y0248130I0000000J0000492D01*
G01*
X0137401Y0253052D01*
G75*
G02*
X0137893Y0253544I0000492J0000000D01*
G01*
X0138878Y0253544D01*
G75*
G02*
X0139370Y0253052I0000000J-000492D01*
G01*
X0139370Y0248130D01*
G75*
G02*
X0138878Y0247638I-000492J0000000D01*
G01*
G37*
G36*
G01*
X0135728Y0247638D02*
X0134744Y0247638D01*
G75*
G02*
X0134252Y0248130I0000000J0000492D01*
G01*
X0134252Y0253052D01*
G75*
G02*
X0134744Y0253544I0000492J0000000D01*
G01*
X0135728Y0253544D01*
G75*
G02*
X0136220Y0253052I0000000J-000492D01*
G01*
X0136220Y0248130D01*
G75*
G02*
X0135728Y0247638I-000492J0000000D01*
G01*
G37*
G36*
G01*
X0132578Y0247638D02*
X0131594Y0247638D01*
G75*
G02*
X0131102Y0248130I0000000J0000492D01*
G01*
X0131102Y0253052D01*
G75*
G02*
X0131594Y0253544I0000492J0000000D01*
G01*
X0132578Y0253544D01*
G75*
G02*
X0133071Y0253052I0000000J-000492D01*
G01*
X0133071Y0248130D01*
G75*
G02*
X0132578Y0247638I-000492J0000000D01*
G01*
G37*
G36*
G01*
X0129429Y0247638D02*
X0128445Y0247638D01*
G75*
G02*
X0127952Y0248130I0000000J0000492D01*
G01*
X0127952Y0253052D01*
G75*
G02*
X0128445Y0253544I0000492J0000000D01*
G01*
X0129429Y0253544D01*
G75*
G02*
X0129921Y0253052I0000000J-000492D01*
G01*
X0129921Y0248130D01*
G75*
G02*
X0129429Y0247638I-000492J0000000D01*
G01*
G37*
G36*
G01*
X0126279Y0247638D02*
X0125295Y0247638D01*
G75*
G02*
X0124803Y0248130I0000000J0000492D01*
G01*
X0124803Y0253052D01*
G75*
G02*
X0125295Y0253544I0000492J0000000D01*
G01*
X0126279Y0253544D01*
G75*
G02*
X0126771Y0253052I0000000J-000492D01*
G01*
X0126771Y0248130D01*
G75*
G02*
X0126279Y0247638I-000492J0000000D01*
G01*
G37*
G36*
G01*
X0122834Y0244193D02*
X0117913Y0244193D01*
G75*
G02*
X0117421Y0244685I0000000J0000492D01*
G01*
X0117421Y0245670D01*
G75*
G02*
X0117913Y0246162I0000492J0000000D01*
G01*
X0122834Y0246162D01*
G75*
G02*
X0123327Y0245670I0000000J-000492D01*
G01*
X0123327Y0244685D01*
G75*
G02*
X0122834Y0244193I-000492J0000000D01*
G01*
G37*
G36*
G01*
X0122834Y0241044D02*
X0117913Y0241044D01*
G75*
G02*
X0117421Y0241536I0000000J0000492D01*
G01*
X0117421Y0242520D01*
G75*
G02*
X0117913Y0243012I0000492J0000000D01*
G01*
X0122834Y0243012D01*
G75*
G02*
X0123327Y0242520I0000000J-000492D01*
G01*
X0123327Y0241536D01*
G75*
G02*
X0122834Y0241044I-000492J0000000D01*
G01*
G37*
G36*
G01*
X0122834Y0237894D02*
X0117913Y0237894D01*
G75*
G02*
X0117421Y0238386I0000000J0000492D01*
G01*
X0117421Y0239370D01*
G75*
G02*
X0117913Y0239863I0000492J0000000D01*
G01*
X0122834Y0239863D01*
G75*
G02*
X0123327Y0239370I0000000J-000492D01*
G01*
X0123327Y0238386D01*
G75*
G02*
X0122834Y0237894I-000492J0000000D01*
G01*
G37*
G36*
G01*
X0122834Y0234745D02*
X0117913Y0234745D01*
G75*
G02*
X0117421Y0235237I0000000J0000492D01*
G01*
X0117421Y0236221D01*
G75*
G02*
X0117913Y0236713I0000492J0000000D01*
G01*
X0122834Y0236713D01*
G75*
G02*
X0123327Y0236221I0000000J-000492D01*
G01*
X0123327Y0235237D01*
G75*
G02*
X0122834Y0234745I-000492J0000000D01*
G01*
G37*
G36*
G01*
X0122834Y0231595D02*
X0117913Y0231595D01*
G75*
G02*
X0117421Y0232087I0000000J0000492D01*
G01*
X0117421Y0233071D01*
G75*
G02*
X0117913Y0233563I0000492J0000000D01*
G01*
X0122834Y0233563D01*
G75*
G02*
X0123327Y0233071I0000000J-000492D01*
G01*
X0123327Y0232087D01*
G75*
G02*
X0122834Y0231595I-000492J0000000D01*
G01*
G37*
G36*
G01*
X0122834Y0228445D02*
X0117913Y0228445D01*
G75*
G02*
X0117421Y0228937I0000000J0000492D01*
G01*
X0117421Y0229922D01*
G75*
G02*
X0117913Y0230414I0000492J0000000D01*
G01*
X0122834Y0230414D01*
G75*
G02*
X0123327Y0229922I0000000J-000492D01*
G01*
X0123327Y0228937D01*
G75*
G02*
X0122834Y0228445I-000492J0000000D01*
G01*
G37*
G36*
G01*
X0122834Y0225296D02*
X0117913Y0225296D01*
G75*
G02*
X0117421Y0225788I0000000J0000492D01*
G01*
X0117421Y0226772D01*
G75*
G02*
X0117913Y0227264I0000492J0000000D01*
G01*
X0122834Y0227264D01*
G75*
G02*
X0123327Y0226772I0000000J-000492D01*
G01*
X0123327Y0225788D01*
G75*
G02*
X0122834Y0225296I-000492J0000000D01*
G01*
G37*
G36*
G01*
X0122834Y0222146D02*
X0117913Y0222146D01*
G75*
G02*
X0117421Y0222638I0000000J0000492D01*
G01*
X0117421Y0223622D01*
G75*
G02*
X0117913Y0224115I0000492J0000000D01*
G01*
X0122834Y0224115D01*
G75*
G02*
X0123327Y0223622I0000000J-000492D01*
G01*
X0123327Y0222638D01*
G75*
G02*
X0122834Y0222146I-000492J0000000D01*
G01*
G37*
G36*
G01*
X0144380Y0256772D02*
X0143021Y0256772D01*
G75*
G02*
X0142441Y0257353I0000000J0000581D01*
G01*
X0142441Y0258514D01*
G75*
G02*
X0143021Y0259095I0000581J0000000D01*
G01*
X0144380Y0259095D01*
G75*
G02*
X0144960Y0258514I0000000J-000581D01*
G01*
X0144960Y0257353D01*
G75*
G02*
X0144380Y0256772I-000581J0000000D01*
G01*
G37*
G36*
G01*
X0144380Y0260591D02*
X0143021Y0260591D01*
G75*
G02*
X0142441Y0261172I0000000J0000581D01*
G01*
X0142441Y0262333D01*
G75*
G02*
X0143021Y0262914I0000581J0000000D01*
G01*
X0144380Y0262914D01*
G75*
G02*
X0144960Y0262333I0000000J-000581D01*
G01*
X0144960Y0261172D01*
G75*
G02*
X0144380Y0260591I-000581J0000000D01*
G01*
G37*
G36*
G01*
X0120984Y0249695D02*
X0120984Y0248337D01*
G75*
G02*
X0120403Y0247756I-000581J0000000D01*
G01*
X0119242Y0247756D01*
G75*
G02*
X0118661Y0248337I0000000J0000581D01*
G01*
X0118661Y0249695D01*
G75*
G02*
X0119242Y0250276I0000581J0000000D01*
G01*
X0120403Y0250276D01*
G75*
G02*
X0120984Y0249695I0000000J-000581D01*
G01*
G37*
G36*
G01*
X0117165Y0249695D02*
X0117165Y0248337D01*
G75*
G02*
X0116584Y0247756I-000581J0000000D01*
G01*
X0115423Y0247756D01*
G75*
G02*
X0114842Y0248337I0000000J0000581D01*
G01*
X0114842Y0249695D01*
G75*
G02*
X0115423Y0250276I0000581J0000000D01*
G01*
X0116584Y0250276D01*
G75*
G02*
X0117165Y0249695I0000000J-000581D01*
G01*
G37*
G36*
G01*
X0143021Y0273339D02*
X0144380Y0273339D01*
G75*
G02*
X0144960Y0272758I0000000J-000581D01*
G01*
X0144960Y0271597D01*
G75*
G02*
X0144380Y0271016I-000581J0000000D01*
G01*
X0143021Y0271016D01*
G75*
G02*
X0142441Y0271597I0000000J0000581D01*
G01*
X0142441Y0272758D01*
G75*
G02*
X0143021Y0273339I0000581J0000000D01*
G01*
G37*
G36*
G01*
X0143021Y0269520D02*
X0144380Y0269520D01*
G75*
G02*
X0144960Y0268939I0000000J-000581D01*
G01*
X0144960Y0267778D01*
G75*
G02*
X0144380Y0267197I-000581J0000000D01*
G01*
X0143021Y0267197D01*
G75*
G02*
X0142441Y0267778I0000000J0000581D01*
G01*
X0142441Y0268939D01*
G75*
G02*
X0143021Y0269520I0000581J0000000D01*
G01*
G37*
D142*
X0148622Y0271851D03*
X0148622Y0264370D03*
X0156496Y0268111D03*
G36*
G01*
X0122854Y0212786D02*
X0122854Y0211428D01*
G75*
G02*
X0122273Y0210847I-000581J0000000D01*
G01*
X0121112Y0210847D01*
G75*
G02*
X0120531Y0211428I0000000J0000581D01*
G01*
X0120531Y0212786D01*
G75*
G02*
X0121112Y0213367I0000581J0000000D01*
G01*
X0122273Y0213367D01*
G75*
G02*
X0122854Y0212786I0000000J-000581D01*
G01*
G37*
G36*
G01*
X0119035Y0212786D02*
X0119035Y0211428D01*
G75*
G02*
X0118454Y0210847I-000581J0000000D01*
G01*
X0117293Y0210847D01*
G75*
G02*
X0116712Y0211428I0000000J0000581D01*
G01*
X0116712Y0212786D01*
G75*
G02*
X0117293Y0213367I0000581J0000000D01*
G01*
X0118454Y0213367D01*
G75*
G02*
X0119035Y0212786I0000000J-000581D01*
G01*
G37*
G36*
G01*
X0157893Y0258913D02*
X0157893Y0256895D01*
G75*
G02*
X0157032Y0256034I-000861J0000000D01*
G01*
X0155310Y0256034D01*
G75*
G02*
X0154449Y0256895I0000000J0000861D01*
G01*
X0154449Y0258913D01*
G75*
G02*
X0155310Y0259774I0000861J0000000D01*
G01*
X0157032Y0259774D01*
G75*
G02*
X0157893Y0258913I0000000J-000861D01*
G01*
G37*
G36*
G01*
X0151693Y0258913D02*
X0151693Y0256895D01*
G75*
G02*
X0150831Y0256034I-000861J0000000D01*
G01*
X0149109Y0256034D01*
G75*
G02*
X0148248Y0256895I0000000J0000861D01*
G01*
X0148248Y0258913D01*
G75*
G02*
X0149109Y0259774I0000861J0000000D01*
G01*
X0150831Y0259774D01*
G75*
G02*
X0151693Y0258913I0000000J-000861D01*
G01*
G37*
D158*
X0115748Y0274666D03*
X0111748Y0254666D03*
X0119748Y0254666D03*
D154*
X0113248Y0269666D03*
X0118248Y0269666D03*
X0113248Y0264666D03*
X0118248Y0264666D03*
X0113248Y0259666D03*
X0118248Y0259666D03*
D354*
X0154626Y0185178D03*
D355*
X0154626Y0195178D03*
X0154626Y0205178D03*
X0290157Y0280413D02*
G01*
G75*
D189*
X0413779Y0298503D02*
D03*
X0420866Y0298503D02*
D03*
X0420866Y0288464D02*
D03*
X0413779Y0288464D02*
D03*
X0301968Y0347244D02*
D03*
X0294881Y0347244D02*
D03*
X0294881Y0337204D02*
D03*
X0301968Y0337204D02*
D03*
X0301968Y0353346D02*
D03*
X0294881Y0353346D02*
D03*
X0294881Y0363386D02*
D03*
X0301968Y0363386D02*
D03*
D190*
X0413779Y0295059D02*
D03*
X0413779Y0291909D02*
D03*
X0420866Y0291909D02*
D03*
X0420866Y0295059D02*
D03*
X0294881Y0340649D02*
D03*
X0294881Y0343799D02*
D03*
X0301968Y0343799D02*
D03*
X0301968Y0340649D02*
D03*
X0301968Y0356791D02*
D03*
X0301968Y0359941D02*
D03*
X0294881Y0359941D02*
D03*
X0294881Y0356791D02*
D03*
D191*
X0409567Y0295507D02*
D03*
X0409567Y0298066D02*
D03*
X0409567Y0300626D02*
D03*
X0402087Y0295507D02*
D03*
X0402087Y0300626D02*
D03*
X0402087Y0298066D02*
D03*
X0402087Y0290882D02*
D03*
X0402087Y0285763D02*
D03*
X0409567Y0290882D02*
D03*
X0409567Y0288322D02*
D03*
X0409567Y0285763D02*
D03*
X0402087Y0288322D02*
D03*
D192*
X0342359Y0394783D02*
D03*
X0342359Y0392815D02*
D03*
X0342359Y0390846D02*
D03*
X0342359Y0388878D02*
D03*
X0342359Y0386909D02*
D03*
X0342359Y0384941D02*
D03*
X0342359Y0382972D02*
D03*
X0342359Y0381004D02*
D03*
X0342359Y0379035D02*
D03*
X0342359Y0375098D02*
D03*
X0342359Y0373129D02*
D03*
X0342359Y0371161D02*
D03*
X0342359Y0369192D02*
D03*
X0342359Y0367224D02*
D03*
X0342359Y0365255D02*
D03*
X0342359Y0363287D02*
D03*
X0342359Y0361318D02*
D03*
X0342359Y0359350D02*
D03*
X0342359Y0357381D02*
D03*
X0342359Y0355413D02*
D03*
X0342359Y0353445D02*
D03*
X0342359Y0351476D02*
D03*
X0342359Y0349508D02*
D03*
X0342359Y0347539D02*
D03*
X0403383Y0347539D02*
D03*
X0403383Y0349508D02*
D03*
X0403383Y0351476D02*
D03*
X0403383Y0353445D02*
D03*
X0403383Y0355413D02*
D03*
X0403383Y0357381D02*
D03*
X0403383Y0359350D02*
D03*
X0403383Y0361318D02*
D03*
X0403383Y0363287D02*
D03*
X0403383Y0365255D02*
D03*
X0403383Y0367224D02*
D03*
X0403383Y0369192D02*
D03*
X0403383Y0371161D02*
D03*
X0403383Y0373129D02*
D03*
X0403383Y0375098D02*
D03*
X0403383Y0377066D02*
D03*
X0403383Y0379035D02*
D03*
X0403383Y0381004D02*
D03*
X0403383Y0382972D02*
D03*
X0403383Y0384941D02*
D03*
X0403383Y0386909D02*
D03*
X0403383Y0388878D02*
D03*
X0403383Y0390846D02*
D03*
X0403383Y0394783D02*
D03*
X0342359Y0377066D02*
D03*
X0403383Y0392815D02*
D03*
D193*
X0349249Y0340649D02*
D03*
X0353186Y0340649D02*
D03*
X0355155Y0340649D02*
D03*
X0357123Y0340649D02*
D03*
X0359092Y0340649D02*
D03*
X0361060Y0340649D02*
D03*
X0363029Y0340649D02*
D03*
X0364997Y0340649D02*
D03*
X0366966Y0340649D02*
D03*
X0368934Y0340649D02*
D03*
X0370903Y0340649D02*
D03*
X0372871Y0340649D02*
D03*
X0374840Y0340649D02*
D03*
X0376808Y0340649D02*
D03*
X0378777Y0340649D02*
D03*
X0380745Y0340649D02*
D03*
X0382714Y0340649D02*
D03*
X0384682Y0340649D02*
D03*
X0386651Y0340649D02*
D03*
X0388619Y0340649D02*
D03*
X0390588Y0340649D02*
D03*
X0392556Y0340649D02*
D03*
X0394525Y0340649D02*
D03*
X0396493Y0340649D02*
D03*
X0396493Y0401673D02*
D03*
X0394525Y0401673D02*
D03*
X0392556Y0401673D02*
D03*
X0390588Y0401673D02*
D03*
X0388619Y0401673D02*
D03*
X0386651Y0401673D02*
D03*
X0384682Y0401673D02*
D03*
X0382714Y0401673D02*
D03*
X0380745Y0401673D02*
D03*
X0378777Y0401673D02*
D03*
X0376808Y0401673D02*
D03*
X0374840Y0401673D02*
D03*
X0372871Y0401673D02*
D03*
X0370903Y0401673D02*
D03*
X0368934Y0401673D02*
D03*
X0366966Y0401673D02*
D03*
X0364997Y0401673D02*
D03*
X0363029Y0401673D02*
D03*
X0361060Y0401673D02*
D03*
X0359092Y0401673D02*
D03*
X0357123Y0401673D02*
D03*
X0355155Y0401673D02*
D03*
X0353186Y0401673D02*
D03*
X0351218Y0401673D02*
D03*
X0349249Y0401673D02*
D03*
X0351218Y0340649D02*
D03*
D194*
X0345866Y0323720D02*
D03*
X0373818Y0323720D02*
D03*
X0317913Y0323720D02*
D03*
X0323425Y0318602D02*
D03*
X0351378Y0328838D02*
D03*
X0351378Y0326279D02*
D03*
X0351378Y0323720D02*
D03*
X0351378Y0321161D02*
D03*
X0351378Y0318602D02*
D03*
X0351378Y0316043D02*
D03*
X0351378Y0313484D02*
D03*
X0373818Y0328838D02*
D03*
X0373818Y0326279D02*
D03*
X0373818Y0321161D02*
D03*
X0373818Y0318602D02*
D03*
X0373818Y0316043D02*
D03*
X0373818Y0313484D02*
D03*
X0295472Y0328838D02*
D03*
X0295472Y0326279D02*
D03*
X0295472Y0323720D02*
D03*
X0295472Y0321161D02*
D03*
X0295472Y0318602D02*
D03*
X0295472Y0316043D02*
D03*
X0295472Y0313484D02*
D03*
X0317913Y0328838D02*
D03*
X0317913Y0326279D02*
D03*
X0317913Y0321161D02*
D03*
X0317913Y0318602D02*
D03*
X0317913Y0316043D02*
D03*
X0317913Y0313484D02*
D03*
X0323425Y0328838D02*
D03*
X0323425Y0326279D02*
D03*
X0323425Y0323720D02*
D03*
X0323425Y0321161D02*
D03*
X0323425Y0316043D02*
D03*
X0323425Y0313484D02*
D03*
X0345866Y0328838D02*
D03*
X0345866Y0326279D02*
D03*
X0345866Y0321161D02*
D03*
X0345866Y0318602D02*
D03*
X0345866Y0316043D02*
D03*
X0345866Y0313484D02*
D03*
X0401771Y0313484D02*
D03*
X0401771Y0316043D02*
D03*
X0401771Y0318602D02*
D03*
X0401771Y0321161D02*
D03*
X0401771Y0323720D02*
D03*
X0401771Y0326279D02*
D03*
X0401771Y0328838D02*
D03*
X0379330Y0313484D02*
D03*
X0379330Y0316043D02*
D03*
X0379330Y0318602D02*
D03*
X0379330Y0321161D02*
D03*
X0379330Y0323720D02*
D03*
X0379330Y0326279D02*
D03*
X0379330Y0328838D02*
D03*
D195*
X0400275Y0414606D02*
D03*
X0400275Y0409606D02*
D03*
X0395275Y0414606D02*
D03*
X0395275Y0409606D02*
D03*
X0390275Y0414606D02*
D03*
X0390275Y0409606D02*
D03*
D196*
X0414566Y0415846D02*
D03*
X0418307Y0415846D02*
D03*
X0410826Y0415846D02*
D03*
X0410826Y0406397D02*
D03*
X0414566Y0406397D02*
D03*
X0418307Y0406397D02*
D03*
D197*
X0416016Y0394586D02*
D03*
X0416016Y0399311D02*
D03*
X0414547Y0385039D02*
D03*
X0328007Y0411824D02*
D03*
X0341319Y0335958D02*
D03*
X0412080Y0394586D02*
D03*
X0418485Y0385039D02*
D03*
X0413185Y0348055D02*
D03*
X0417122Y0348055D02*
D03*
X0413185Y0339000D02*
D03*
X0417122Y0339000D02*
D03*
X0412080Y0399311D02*
D03*
X0331944Y0411824D02*
D03*
X0324867Y0395109D02*
D03*
X0328804Y0395109D02*
D03*
X0345256Y0335958D02*
D03*
X0345275Y0340254D02*
D03*
X0341338Y0340254D02*
D03*
D198*
X0418473Y0376404D02*
D03*
X0418473Y0374436D02*
D03*
X0412174Y0378373D02*
D03*
X0412174Y0376404D02*
D03*
X0412174Y0380341D02*
D03*
X0412174Y0374436D02*
D03*
X0418473Y0380341D02*
D03*
X0418473Y0378373D02*
D03*
D199*
X0416308Y0374239D02*
D03*
X0414339Y0374239D02*
D03*
X0414339Y0380538D02*
D03*
X0416308Y0380538D02*
D03*
D200*
X0413568Y0369389D02*
D03*
X0413568Y0352854D02*
D03*
D201*
X0385039Y0296948D02*
D03*
X0394488Y0296948D02*
D03*
X0389763Y0296948D02*
D03*
X0380315Y0296948D02*
D03*
X0394488Y0285531D02*
D03*
X0385039Y0285531D02*
D03*
X0389763Y0285531D02*
D03*
X0380315Y0285531D02*
D03*
X0374105Y0303928D02*
D03*
X0374105Y0307865D02*
D03*
X0380315Y0289468D02*
D03*
D03*
X0380315Y0293405D02*
D03*
X0385039Y0289468D02*
D03*
X0385039Y0293405D02*
D03*
X0380315Y0300885D02*
D03*
X0389763Y0289468D02*
D03*
X0389763Y0293405D02*
D03*
X0385039Y0300885D02*
D03*
X0389763Y0300885D02*
D03*
X0394488Y0289468D02*
D03*
X0394488Y0293405D02*
D03*
X0394488Y0289468D02*
D03*
X0394488Y0300885D02*
D03*
X0385039Y0289468D02*
D03*
X0389763Y0289468D02*
D03*
X0294291Y0291830D02*
D03*
X0294291Y0287893D02*
D03*
X0318897Y0289468D02*
D03*
X0318897Y0285531D02*
D03*
X0333070Y0289468D02*
D03*
X0333070Y0285531D02*
D03*
X0351968Y0293405D02*
D03*
X0351968Y0289468D02*
D03*
X0351968Y0285531D02*
D03*
X0351968Y0289468D02*
D03*
X0366141Y0293405D02*
D03*
X0366141Y0289468D02*
D03*
X0294291Y0308563D02*
D03*
X0294291Y0304626D02*
D03*
X0300000Y0289468D02*
D03*
X0300000Y0293405D02*
D03*
X0304724Y0289468D02*
D03*
X0304724Y0293405D02*
D03*
X0309448Y0289468D02*
D03*
X0309448Y0293405D02*
D03*
X0314173Y0289468D02*
D03*
X0314173Y0293405D02*
D03*
X0300000Y0289468D02*
D03*
X0300000Y0285531D02*
D03*
X0304724Y0289468D02*
D03*
X0304724Y0285531D02*
D03*
X0309448Y0289468D02*
D03*
X0309448Y0285531D02*
D03*
X0314173Y0289468D02*
D03*
X0314173Y0285531D02*
D03*
X0318897Y0289468D02*
D03*
X0318897Y0293405D02*
D03*
X0323622Y0289468D02*
D03*
X0323622Y0293405D02*
D03*
X0328346Y0289468D02*
D03*
X0328346Y0293405D02*
D03*
X0333070Y0289468D02*
D03*
X0333070Y0293405D02*
D03*
X0323622Y0289468D02*
D03*
X0323622Y0285531D02*
D03*
X0328346Y0289468D02*
D03*
X0328346Y0285531D02*
D03*
X0337795Y0293405D02*
D03*
X0337795Y0289468D02*
D03*
X0342519Y0293405D02*
D03*
X0342519Y0289468D02*
D03*
X0347244Y0293405D02*
D03*
X0347244Y0289468D02*
D03*
X0337795Y0285531D02*
D03*
X0337795Y0289468D02*
D03*
X0342519Y0285531D02*
D03*
X0342519Y0289468D02*
D03*
X0347244Y0285531D02*
D03*
X0347244Y0289468D02*
D03*
X0356693Y0293405D02*
D03*
X0356693Y0289468D02*
D03*
X0361417Y0293405D02*
D03*
X0361417Y0289468D02*
D03*
X0370866Y0293405D02*
D03*
X0370866Y0289468D02*
D03*
X0356693Y0285531D02*
D03*
X0356693Y0289468D02*
D03*
X0361417Y0285531D02*
D03*
X0361417Y0289468D02*
D03*
X0366141Y0285531D02*
D03*
X0366141Y0289468D02*
D03*
X0370866Y0285531D02*
D03*
X0370866Y0289468D02*
D03*
X0294291Y0299507D02*
D03*
X0294291Y0295570D02*
D03*
D202*
X0359055Y0302460D02*
D03*
X0340157Y0302460D02*
D03*
X0321259Y0302460D02*
D03*
X0302362Y0302460D02*
D03*
X0330708Y0306200D02*
D03*
X0330708Y0302460D02*
D03*
X0330708Y0298720D02*
D03*
X0321259Y0298720D02*
D03*
X0321259Y0306200D02*
D03*
X0311811Y0306200D02*
D03*
X0311811Y0302460D02*
D03*
X0311811Y0298720D02*
D03*
X0302362Y0298720D02*
D03*
X0302362Y0306200D02*
D03*
X0349606Y0306200D02*
D03*
X0349606Y0302460D02*
D03*
X0349606Y0298720D02*
D03*
X0340157Y0298720D02*
D03*
X0340157Y0306200D02*
D03*
X0368504Y0306200D02*
D03*
X0368504Y0302460D02*
D03*
X0368504Y0298720D02*
D03*
X0359055Y0298720D02*
D03*
X0359055Y0306200D02*
D03*
D203*
X0325070Y0399495D02*
D03*
X0342992Y0409744D02*
D03*
D204*
X0315748Y0374372D02*
D03*
X0296850Y0369372D02*
D03*
X0296850Y0384372D02*
D03*
X0296850Y0379372D02*
D03*
X0296850Y0374372D02*
D03*
X0315748Y0384372D02*
D03*
X0315748Y0379372D02*
D03*
X0315748Y0369372D02*
D03*
D205*
X0297440Y0392013D02*
D03*
X0315551Y0392013D02*
D03*
D206*
X0331902Y0360487D02*
D03*
X0315693Y0359939D02*
D03*
X0332379Y0352327D02*
D03*
X0332379Y0344716D02*
D03*
X0315693Y0352327D02*
D03*
X0315693Y0344716D02*
D03*
X0332379Y0337104D02*
D03*
X0315693Y0337104D02*
D03*
X0325209Y0360487D02*
D03*
X0325686Y0352327D02*
D03*
X0325686Y0344716D02*
D03*
X0325686Y0337104D02*
D03*
X0309000Y0352327D02*
D03*
X0309000Y0359939D02*
D03*
X0325209Y0368464D02*
D03*
X0331902Y0368464D02*
D03*
X0331902Y0375551D02*
D03*
X0325209Y0375551D02*
D03*
X0325209Y0382637D02*
D03*
X0331902Y0382637D02*
D03*
X0331902Y0389724D02*
D03*
X0325209Y0389724D02*
D03*
X0309000Y0344716D02*
D03*
X0309000Y0337104D02*
D03*
X0331902Y0417224D02*
D03*
X0325209Y0417224D02*
D03*
D207*
X0418576Y0389811D02*
D03*
X0412276Y0389811D02*
D03*
X0411216Y0343370D02*
D03*
X0417516Y0343370D02*
D03*
D208*
X0377951Y0412753D02*
D03*
X0361416Y0412753D02*
D03*
D203*
X0342992Y0417224D02*
D03*
X0352244Y0413484D02*
D03*
X0325070Y0406975D02*
D03*
X0334322Y0403235D02*
D03*
D209*
X0306496Y0416423D02*
D03*
D210*
X0306496Y0392013D02*
D03*
D211*
X0375787Y0289468D02*
D03*
X0294881Y0283563D02*
D03*
D212*
X0412978Y0307210D02*
D03*
X0412978Y0324926D02*
D03*
D213*
X0368070Y0334547D02*
D03*
X0382283Y0334547D02*
D03*
X0352283Y0334547D02*
D03*
D214*
X0405275Y0412106D02*
D03*
X0385275Y0408106D02*
D03*
X0385275Y0416106D02*
D03*
D15*
X0294488Y0417815D02*
D03*
X0502510Y0391804D02*
G01*
G75*
D254*
X0459203Y0390721D02*
D03*
D255*
X0499951Y0390524D02*
D03*
X0497982Y0390524D02*
D03*
D371*
X0491093Y0378792D02*
D03*
X0494833Y0388044D02*
D03*
D371*
X0498573Y0378792D02*
D03*
D257*
X0483534Y0367178D02*
D03*
X0483534Y0372178D02*
D03*
X0483534Y0377178D02*
D03*
X0483534Y0382178D02*
D03*
X0464636Y0367178D02*
D03*
X0464636Y0372178D02*
D03*
X0464636Y0377178D02*
D03*
X0464636Y0382178D02*
D03*
D336*
X0467825Y0387473D02*
D03*
X0461605Y0387473D02*
D03*
X0476171Y0387473D02*
D03*
X0482392Y0387473D02*
D03*
D372*
X0497983Y0373891D02*
D03*
X0491683Y0373891D02*
D03*
D114*
X0487353Y0389934D02*
D03*
X0471309Y0367395D02*
D03*
X0471014Y0381371D02*
D03*
X0472195Y0386391D02*
D03*
X0475640Y0384324D02*
D03*
X0166142Y0247539D02*
%LPD*%
G01*
D373*
X0194922Y0238051D03*
X0190985Y0238051D03*
X0187048Y0238051D03*
X0183111Y0238051D03*
X0179173Y0238051D03*
X0175236Y0238051D03*
X0175236Y0200256D03*
X0179173Y0200256D03*
X0183111Y0200256D03*
X0187048Y0200256D03*
X0190985Y0200256D03*
X0194922Y0200256D03*
D374*
X0185079Y0219153D03*
M02*
